%TF.GenerationSoftware,KiCad,Pcbnew,(6.0.7)*%
%TF.CreationDate,2022-10-13T06:51:37-04:00*%
%TF.ProjectId,Part 5 - Backplane,50617274-2035-4202-9d20-4261636b706c,2*%
%TF.SameCoordinates,Original*%
%TF.FileFunction,Drillmap*%
%TF.FilePolarity,Positive*%
%FSLAX45Y45*%
G04 Gerber Fmt 4.5, Leading zero omitted, Abs format (unit mm)*
G04 Created by KiCad (PCBNEW (6.0.7)) date 2022-10-13 06:51:37*
%MOMM*%
%LPD*%
G01*
G04 APERTURE LIST*
%ADD10C,0.100000*%
%ADD11C,0.200000*%
%ADD12C,0.350000*%
G04 APERTURE END LIST*
D10*
X19050000Y-3556000D02*
X19050000Y-16002000D01*
X3556000Y-16002000D02*
X19050000Y-16002000D01*
X3556000Y-16002000D02*
X3556000Y-3556000D01*
X19050000Y-3556000D02*
X3556000Y-3556000D01*
D11*
D12*
X12988500Y-4016000D02*
X13338500Y-4366000D01*
X13338500Y-4016000D02*
X12988500Y-4366000D01*
D11*
X3808619Y-16317476D02*
X3808619Y-16117476D01*
X3856238Y-16117476D01*
X3884809Y-16127000D01*
X3903857Y-16146048D01*
X3913381Y-16165095D01*
X3922905Y-16203190D01*
X3922905Y-16231762D01*
X3913381Y-16269857D01*
X3903857Y-16288905D01*
X3884809Y-16307952D01*
X3856238Y-16317476D01*
X3808619Y-16317476D01*
X4008619Y-16317476D02*
X4008619Y-16184143D01*
X4008619Y-16222238D02*
X4018143Y-16203190D01*
X4027667Y-16193667D01*
X4046714Y-16184143D01*
X4065762Y-16184143D01*
X4132428Y-16317476D02*
X4132428Y-16184143D01*
X4132428Y-16117476D02*
X4122905Y-16127000D01*
X4132428Y-16136524D01*
X4141952Y-16127000D01*
X4132428Y-16117476D01*
X4132428Y-16136524D01*
X4256238Y-16317476D02*
X4237190Y-16307952D01*
X4227667Y-16288905D01*
X4227667Y-16117476D01*
X4361000Y-16317476D02*
X4341952Y-16307952D01*
X4332429Y-16288905D01*
X4332429Y-16117476D01*
X4589571Y-16317476D02*
X4589571Y-16117476D01*
X4656238Y-16260333D01*
X4722905Y-16117476D01*
X4722905Y-16317476D01*
X4903857Y-16317476D02*
X4903857Y-16212714D01*
X4894333Y-16193667D01*
X4875286Y-16184143D01*
X4837190Y-16184143D01*
X4818143Y-16193667D01*
X4903857Y-16307952D02*
X4884810Y-16317476D01*
X4837190Y-16317476D01*
X4818143Y-16307952D01*
X4808619Y-16288905D01*
X4808619Y-16269857D01*
X4818143Y-16250809D01*
X4837190Y-16241286D01*
X4884810Y-16241286D01*
X4903857Y-16231762D01*
X4999095Y-16184143D02*
X4999095Y-16384143D01*
X4999095Y-16193667D02*
X5018143Y-16184143D01*
X5056238Y-16184143D01*
X5075286Y-16193667D01*
X5084810Y-16203190D01*
X5094333Y-16222238D01*
X5094333Y-16279381D01*
X5084810Y-16298428D01*
X5075286Y-16307952D01*
X5056238Y-16317476D01*
X5018143Y-16317476D01*
X4999095Y-16307952D01*
X5180048Y-16298428D02*
X5189571Y-16307952D01*
X5180048Y-16317476D01*
X5170524Y-16307952D01*
X5180048Y-16298428D01*
X5180048Y-16317476D01*
X5180048Y-16193667D02*
X5189571Y-16203190D01*
X5180048Y-16212714D01*
X5170524Y-16203190D01*
X5180048Y-16193667D01*
X5180048Y-16212714D01*
X3351000Y-16547000D02*
X3551000Y-16747000D01*
X3551000Y-16547000D02*
X3351000Y-16747000D01*
X3789571Y-16537476D02*
X3913381Y-16537476D01*
X3846714Y-16613667D01*
X3875286Y-16613667D01*
X3894333Y-16623190D01*
X3903857Y-16632714D01*
X3913381Y-16651762D01*
X3913381Y-16699381D01*
X3903857Y-16718428D01*
X3894333Y-16727952D01*
X3875286Y-16737476D01*
X3818143Y-16737476D01*
X3799095Y-16727952D01*
X3789571Y-16718428D01*
X3999095Y-16718428D02*
X4008619Y-16727952D01*
X3999095Y-16737476D01*
X3989571Y-16727952D01*
X3999095Y-16718428D01*
X3999095Y-16737476D01*
X4189571Y-16537476D02*
X4094333Y-16537476D01*
X4084809Y-16632714D01*
X4094333Y-16623190D01*
X4113381Y-16613667D01*
X4161000Y-16613667D01*
X4180048Y-16623190D01*
X4189571Y-16632714D01*
X4199095Y-16651762D01*
X4199095Y-16699381D01*
X4189571Y-16718428D01*
X4180048Y-16727952D01*
X4161000Y-16737476D01*
X4113381Y-16737476D01*
X4094333Y-16727952D01*
X4084809Y-16718428D01*
X4322905Y-16537476D02*
X4341952Y-16537476D01*
X4361000Y-16547000D01*
X4370524Y-16556524D01*
X4380048Y-16575571D01*
X4389571Y-16613667D01*
X4389571Y-16661286D01*
X4380048Y-16699381D01*
X4370524Y-16718428D01*
X4361000Y-16727952D01*
X4341952Y-16737476D01*
X4322905Y-16737476D01*
X4303857Y-16727952D01*
X4294333Y-16718428D01*
X4284810Y-16699381D01*
X4275286Y-16661286D01*
X4275286Y-16613667D01*
X4284810Y-16575571D01*
X4294333Y-16556524D01*
X4303857Y-16547000D01*
X4322905Y-16537476D01*
X4513381Y-16537476D02*
X4532429Y-16537476D01*
X4551476Y-16547000D01*
X4561000Y-16556524D01*
X4570524Y-16575571D01*
X4580048Y-16613667D01*
X4580048Y-16661286D01*
X4570524Y-16699381D01*
X4561000Y-16718428D01*
X4551476Y-16727952D01*
X4532429Y-16737476D01*
X4513381Y-16737476D01*
X4494333Y-16727952D01*
X4484810Y-16718428D01*
X4475286Y-16699381D01*
X4465762Y-16661286D01*
X4465762Y-16613667D01*
X4475286Y-16575571D01*
X4484810Y-16556524D01*
X4494333Y-16547000D01*
X4513381Y-16537476D01*
X4665762Y-16737476D02*
X4665762Y-16604143D01*
X4665762Y-16623190D02*
X4675286Y-16613667D01*
X4694333Y-16604143D01*
X4722905Y-16604143D01*
X4741952Y-16613667D01*
X4751476Y-16632714D01*
X4751476Y-16737476D01*
X4751476Y-16632714D02*
X4761000Y-16613667D01*
X4780048Y-16604143D01*
X4808619Y-16604143D01*
X4827667Y-16613667D01*
X4837190Y-16632714D01*
X4837190Y-16737476D01*
X4932429Y-16737476D02*
X4932429Y-16604143D01*
X4932429Y-16623190D02*
X4941952Y-16613667D01*
X4961000Y-16604143D01*
X4989571Y-16604143D01*
X5008619Y-16613667D01*
X5018143Y-16632714D01*
X5018143Y-16737476D01*
X5018143Y-16632714D02*
X5027667Y-16613667D01*
X5046714Y-16604143D01*
X5075286Y-16604143D01*
X5094333Y-16613667D01*
X5103857Y-16632714D01*
X5103857Y-16737476D01*
X5494333Y-16527952D02*
X5322905Y-16785095D01*
X5751476Y-16537476D02*
X5770524Y-16537476D01*
X5789571Y-16547000D01*
X5799095Y-16556524D01*
X5808619Y-16575571D01*
X5818143Y-16613667D01*
X5818143Y-16661286D01*
X5808619Y-16699381D01*
X5799095Y-16718428D01*
X5789571Y-16727952D01*
X5770524Y-16737476D01*
X5751476Y-16737476D01*
X5732428Y-16727952D01*
X5722905Y-16718428D01*
X5713381Y-16699381D01*
X5703857Y-16661286D01*
X5703857Y-16613667D01*
X5713381Y-16575571D01*
X5722905Y-16556524D01*
X5732428Y-16547000D01*
X5751476Y-16537476D01*
X5903857Y-16718428D02*
X5913381Y-16727952D01*
X5903857Y-16737476D01*
X5894333Y-16727952D01*
X5903857Y-16718428D01*
X5903857Y-16737476D01*
X6103857Y-16737476D02*
X5989571Y-16737476D01*
X6046714Y-16737476D02*
X6046714Y-16537476D01*
X6027667Y-16566048D01*
X6008619Y-16585095D01*
X5989571Y-16594619D01*
X6170524Y-16537476D02*
X6294333Y-16537476D01*
X6227667Y-16613667D01*
X6256238Y-16613667D01*
X6275286Y-16623190D01*
X6284809Y-16632714D01*
X6294333Y-16651762D01*
X6294333Y-16699381D01*
X6284809Y-16718428D01*
X6275286Y-16727952D01*
X6256238Y-16737476D01*
X6199095Y-16737476D01*
X6180048Y-16727952D01*
X6170524Y-16718428D01*
X6361000Y-16537476D02*
X6494333Y-16537476D01*
X6408619Y-16737476D01*
X6599095Y-16623190D02*
X6580048Y-16613667D01*
X6570524Y-16604143D01*
X6561000Y-16585095D01*
X6561000Y-16575571D01*
X6570524Y-16556524D01*
X6580048Y-16547000D01*
X6599095Y-16537476D01*
X6637190Y-16537476D01*
X6656238Y-16547000D01*
X6665762Y-16556524D01*
X6675286Y-16575571D01*
X6675286Y-16585095D01*
X6665762Y-16604143D01*
X6656238Y-16613667D01*
X6637190Y-16623190D01*
X6599095Y-16623190D01*
X6580048Y-16632714D01*
X6570524Y-16642238D01*
X6561000Y-16661286D01*
X6561000Y-16699381D01*
X6570524Y-16718428D01*
X6580048Y-16727952D01*
X6599095Y-16737476D01*
X6637190Y-16737476D01*
X6656238Y-16727952D01*
X6665762Y-16718428D01*
X6675286Y-16699381D01*
X6675286Y-16661286D01*
X6665762Y-16642238D01*
X6656238Y-16632714D01*
X6637190Y-16623190D01*
X6751476Y-16537476D02*
X6751476Y-16575571D01*
X6827667Y-16537476D02*
X6827667Y-16575571D01*
X7122905Y-16813667D02*
X7113381Y-16804143D01*
X7094333Y-16775571D01*
X7084809Y-16756524D01*
X7075286Y-16727952D01*
X7065762Y-16680333D01*
X7065762Y-16642238D01*
X7075286Y-16594619D01*
X7084809Y-16566048D01*
X7094333Y-16547000D01*
X7113381Y-16518428D01*
X7122905Y-16508905D01*
X7303857Y-16737476D02*
X7189571Y-16737476D01*
X7246714Y-16737476D02*
X7246714Y-16537476D01*
X7227667Y-16566048D01*
X7208619Y-16585095D01*
X7189571Y-16594619D01*
X7541952Y-16737476D02*
X7541952Y-16537476D01*
X7627667Y-16737476D02*
X7627667Y-16632714D01*
X7618143Y-16613667D01*
X7599095Y-16604143D01*
X7570524Y-16604143D01*
X7551476Y-16613667D01*
X7541952Y-16623190D01*
X7751476Y-16737476D02*
X7732428Y-16727952D01*
X7722905Y-16718428D01*
X7713381Y-16699381D01*
X7713381Y-16642238D01*
X7722905Y-16623190D01*
X7732428Y-16613667D01*
X7751476Y-16604143D01*
X7780048Y-16604143D01*
X7799095Y-16613667D01*
X7808619Y-16623190D01*
X7818143Y-16642238D01*
X7818143Y-16699381D01*
X7808619Y-16718428D01*
X7799095Y-16727952D01*
X7780048Y-16737476D01*
X7751476Y-16737476D01*
X7932428Y-16737476D02*
X7913381Y-16727952D01*
X7903857Y-16708905D01*
X7903857Y-16537476D01*
X8084809Y-16727952D02*
X8065762Y-16737476D01*
X8027667Y-16737476D01*
X8008619Y-16727952D01*
X7999095Y-16708905D01*
X7999095Y-16632714D01*
X8008619Y-16613667D01*
X8027667Y-16604143D01*
X8065762Y-16604143D01*
X8084809Y-16613667D01*
X8094333Y-16632714D01*
X8094333Y-16651762D01*
X7999095Y-16670809D01*
X8161000Y-16813667D02*
X8170524Y-16804143D01*
X8189571Y-16775571D01*
X8199095Y-16756524D01*
X8208619Y-16727952D01*
X8218143Y-16680333D01*
X8218143Y-16642238D01*
X8208619Y-16594619D01*
X8199095Y-16566048D01*
X8189571Y-16547000D01*
X8170524Y-16518428D01*
X8161000Y-16508905D01*
X8522905Y-16813667D02*
X8513381Y-16804143D01*
X8494333Y-16775571D01*
X8484810Y-16756524D01*
X8475286Y-16727952D01*
X8465762Y-16680333D01*
X8465762Y-16642238D01*
X8475286Y-16594619D01*
X8484810Y-16566048D01*
X8494333Y-16547000D01*
X8513381Y-16518428D01*
X8522905Y-16508905D01*
X8599095Y-16604143D02*
X8599095Y-16737476D01*
X8599095Y-16623190D02*
X8608619Y-16613667D01*
X8627667Y-16604143D01*
X8656238Y-16604143D01*
X8675286Y-16613667D01*
X8684810Y-16632714D01*
X8684810Y-16737476D01*
X8808619Y-16737476D02*
X8789571Y-16727952D01*
X8780048Y-16718428D01*
X8770524Y-16699381D01*
X8770524Y-16642238D01*
X8780048Y-16623190D01*
X8789571Y-16613667D01*
X8808619Y-16604143D01*
X8837190Y-16604143D01*
X8856238Y-16613667D01*
X8865762Y-16623190D01*
X8875286Y-16642238D01*
X8875286Y-16699381D01*
X8865762Y-16718428D01*
X8856238Y-16727952D01*
X8837190Y-16737476D01*
X8808619Y-16737476D01*
X8932429Y-16604143D02*
X9008619Y-16604143D01*
X8961000Y-16537476D02*
X8961000Y-16708905D01*
X8970524Y-16727952D01*
X8989571Y-16737476D01*
X9008619Y-16737476D01*
X9227667Y-16604143D02*
X9227667Y-16804143D01*
X9227667Y-16613667D02*
X9246714Y-16604143D01*
X9284810Y-16604143D01*
X9303857Y-16613667D01*
X9313381Y-16623190D01*
X9322905Y-16642238D01*
X9322905Y-16699381D01*
X9313381Y-16718428D01*
X9303857Y-16727952D01*
X9284810Y-16737476D01*
X9246714Y-16737476D01*
X9227667Y-16727952D01*
X9437190Y-16737476D02*
X9418143Y-16727952D01*
X9408619Y-16708905D01*
X9408619Y-16537476D01*
X9599095Y-16737476D02*
X9599095Y-16632714D01*
X9589571Y-16613667D01*
X9570524Y-16604143D01*
X9532429Y-16604143D01*
X9513381Y-16613667D01*
X9599095Y-16727952D02*
X9580048Y-16737476D01*
X9532429Y-16737476D01*
X9513381Y-16727952D01*
X9503857Y-16708905D01*
X9503857Y-16689857D01*
X9513381Y-16670809D01*
X9532429Y-16661286D01*
X9580048Y-16661286D01*
X9599095Y-16651762D01*
X9665762Y-16604143D02*
X9741952Y-16604143D01*
X9694333Y-16537476D02*
X9694333Y-16708905D01*
X9703857Y-16727952D01*
X9722905Y-16737476D01*
X9741952Y-16737476D01*
X9884810Y-16727952D02*
X9865762Y-16737476D01*
X9827667Y-16737476D01*
X9808619Y-16727952D01*
X9799095Y-16708905D01*
X9799095Y-16632714D01*
X9808619Y-16613667D01*
X9827667Y-16604143D01*
X9865762Y-16604143D01*
X9884810Y-16613667D01*
X9894333Y-16632714D01*
X9894333Y-16651762D01*
X9799095Y-16670809D01*
X10065762Y-16737476D02*
X10065762Y-16537476D01*
X10065762Y-16727952D02*
X10046714Y-16737476D01*
X10008619Y-16737476D01*
X9989571Y-16727952D01*
X9980048Y-16718428D01*
X9970524Y-16699381D01*
X9970524Y-16642238D01*
X9980048Y-16623190D01*
X9989571Y-16613667D01*
X10008619Y-16604143D01*
X10046714Y-16604143D01*
X10065762Y-16613667D01*
X10141952Y-16813667D02*
X10151476Y-16804143D01*
X10170524Y-16775571D01*
X10180048Y-16756524D01*
X10189571Y-16727952D01*
X10199095Y-16680333D01*
X10199095Y-16642238D01*
X10189571Y-16594619D01*
X10180048Y-16566048D01*
X10170524Y-16547000D01*
X10151476Y-16518428D01*
X10141952Y-16508905D01*
M02*
