G04 #@! TF.GenerationSoftware,KiCad,Pcbnew,(6.0.7)*
G04 #@! TF.CreationDate,2022-11-29T20:03:00-05:00*
G04 #@! TF.ProjectId,Part 4 - CPU and memory,50617274-2034-4202-9d20-43505520616e,1*
G04 #@! TF.SameCoordinates,Original*
G04 #@! TF.FileFunction,Legend,Top*
G04 #@! TF.FilePolarity,Positive*
%FSLAX46Y46*%
G04 Gerber Fmt 4.6, Leading zero omitted, Abs format (unit mm)*
G04 Created by KiCad (PCBNEW (6.0.7)) date 2022-11-29 20:03:00*
%MOMM*%
%LPD*%
G01*
G04 APERTURE LIST*
%ADD10C,0.150000*%
%ADD11C,0.120000*%
%ADD12C,1.600000*%
%ADD13O,1.600000X1.600000*%
%ADD14R,1.600000X1.600000*%
%ADD15R,1.800000X1.800000*%
%ADD16C,1.800000*%
%ADD17R,1.780000X7.620000*%
G04 APERTURE END LIST*
D10*
X134112000Y-66040000D02*
X135382000Y-66040000D01*
X83820000Y-57150000D02*
X134112000Y-57150000D01*
X134112000Y-71120000D02*
X134112000Y-80010000D01*
X135382000Y-71120000D02*
X134112000Y-71120000D01*
X135382000Y-66040000D02*
X135382000Y-71120000D01*
X134112000Y-57150000D02*
X134112000Y-66040000D01*
X134112000Y-80010000D02*
X83820000Y-80010000D01*
X93564285Y-128992380D02*
X94230952Y-128992380D01*
X93564285Y-129992380D01*
X94230952Y-129992380D01*
X94992857Y-129944761D02*
X94897619Y-129992380D01*
X94707142Y-129992380D01*
X94611904Y-129944761D01*
X94564285Y-129849523D01*
X94564285Y-129468571D01*
X94611904Y-129373333D01*
X94707142Y-129325714D01*
X94897619Y-129325714D01*
X94992857Y-129373333D01*
X95040476Y-129468571D01*
X95040476Y-129563809D01*
X94564285Y-129659047D01*
X95897619Y-129992380D02*
X95897619Y-128992380D01*
X95897619Y-129944761D02*
X95802380Y-129992380D01*
X95611904Y-129992380D01*
X95516666Y-129944761D01*
X95469047Y-129897142D01*
X95421428Y-129801904D01*
X95421428Y-129516190D01*
X95469047Y-129420952D01*
X95516666Y-129373333D01*
X95611904Y-129325714D01*
X95802380Y-129325714D01*
X95897619Y-129373333D01*
X96373809Y-129468571D02*
X96707142Y-129468571D01*
X96850000Y-129992380D02*
X96373809Y-129992380D01*
X96373809Y-128992380D01*
X96850000Y-128992380D01*
X97278571Y-129992380D02*
X97278571Y-129325714D01*
X97278571Y-128992380D02*
X97230952Y-129040000D01*
X97278571Y-129087619D01*
X97326190Y-129040000D01*
X97278571Y-128992380D01*
X97278571Y-129087619D01*
X98183333Y-129325714D02*
X98183333Y-130135238D01*
X98135714Y-130230476D01*
X98088095Y-130278095D01*
X97992857Y-130325714D01*
X97850000Y-130325714D01*
X97754761Y-130278095D01*
X98183333Y-129944761D02*
X98088095Y-129992380D01*
X97897619Y-129992380D01*
X97802380Y-129944761D01*
X97754761Y-129897142D01*
X97707142Y-129801904D01*
X97707142Y-129516190D01*
X97754761Y-129420952D01*
X97802380Y-129373333D01*
X97897619Y-129325714D01*
X98088095Y-129325714D01*
X98183333Y-129373333D01*
X98659523Y-129992380D02*
X98659523Y-128992380D01*
X99088095Y-129992380D02*
X99088095Y-129468571D01*
X99040476Y-129373333D01*
X98945238Y-129325714D01*
X98802380Y-129325714D01*
X98707142Y-129373333D01*
X98659523Y-129420952D01*
X99421428Y-129325714D02*
X99802380Y-129325714D01*
X99564285Y-128992380D02*
X99564285Y-129849523D01*
X99611904Y-129944761D01*
X99707142Y-129992380D01*
X99802380Y-129992380D01*
X100040476Y-129325714D02*
X100278571Y-129992380D01*
X100516666Y-129325714D02*
X100278571Y-129992380D01*
X100183333Y-130230476D01*
X100135714Y-130278095D01*
X100040476Y-130325714D01*
X101659523Y-129992380D02*
X101659523Y-128992380D01*
X102040476Y-128992380D01*
X102135714Y-129040000D01*
X102183333Y-129087619D01*
X102230952Y-129182857D01*
X102230952Y-129325714D01*
X102183333Y-129420952D01*
X102135714Y-129468571D01*
X102040476Y-129516190D01*
X101659523Y-129516190D01*
X102659523Y-129992380D02*
X102659523Y-129325714D01*
X102659523Y-129516190D02*
X102707142Y-129420952D01*
X102754761Y-129373333D01*
X102850000Y-129325714D01*
X102945238Y-129325714D01*
X103421428Y-129992380D02*
X103326190Y-129944761D01*
X103278571Y-129897142D01*
X103230952Y-129801904D01*
X103230952Y-129516190D01*
X103278571Y-129420952D01*
X103326190Y-129373333D01*
X103421428Y-129325714D01*
X103564285Y-129325714D01*
X103659523Y-129373333D01*
X103707142Y-129420952D01*
X103754761Y-129516190D01*
X103754761Y-129801904D01*
X103707142Y-129897142D01*
X103659523Y-129944761D01*
X103564285Y-129992380D01*
X103421428Y-129992380D01*
X104183333Y-129325714D02*
X104183333Y-130182857D01*
X104135714Y-130278095D01*
X104040476Y-130325714D01*
X103992857Y-130325714D01*
X104183333Y-128992380D02*
X104135714Y-129040000D01*
X104183333Y-129087619D01*
X104230952Y-129040000D01*
X104183333Y-128992380D01*
X104183333Y-129087619D01*
X105040476Y-129944761D02*
X104945238Y-129992380D01*
X104754761Y-129992380D01*
X104659523Y-129944761D01*
X104611904Y-129849523D01*
X104611904Y-129468571D01*
X104659523Y-129373333D01*
X104754761Y-129325714D01*
X104945238Y-129325714D01*
X105040476Y-129373333D01*
X105088095Y-129468571D01*
X105088095Y-129563809D01*
X104611904Y-129659047D01*
X105945238Y-129944761D02*
X105850000Y-129992380D01*
X105659523Y-129992380D01*
X105564285Y-129944761D01*
X105516666Y-129897142D01*
X105469047Y-129801904D01*
X105469047Y-129516190D01*
X105516666Y-129420952D01*
X105564285Y-129373333D01*
X105659523Y-129325714D01*
X105850000Y-129325714D01*
X105945238Y-129373333D01*
X106230952Y-129325714D02*
X106611904Y-129325714D01*
X106373809Y-128992380D02*
X106373809Y-129849523D01*
X106421428Y-129944761D01*
X106516666Y-129992380D01*
X106611904Y-129992380D01*
X107707142Y-129611428D02*
X108469047Y-129611428D01*
X110278571Y-129897142D02*
X110230952Y-129944761D01*
X110088095Y-129992380D01*
X109992857Y-129992380D01*
X109850000Y-129944761D01*
X109754761Y-129849523D01*
X109707142Y-129754285D01*
X109659523Y-129563809D01*
X109659523Y-129420952D01*
X109707142Y-129230476D01*
X109754761Y-129135238D01*
X109850000Y-129040000D01*
X109992857Y-128992380D01*
X110088095Y-128992380D01*
X110230952Y-129040000D01*
X110278571Y-129087619D01*
X110707142Y-129992380D02*
X110707142Y-128992380D01*
X111088095Y-128992380D01*
X111183333Y-129040000D01*
X111230952Y-129087619D01*
X111278571Y-129182857D01*
X111278571Y-129325714D01*
X111230952Y-129420952D01*
X111183333Y-129468571D01*
X111088095Y-129516190D01*
X110707142Y-129516190D01*
X111707142Y-128992380D02*
X111707142Y-129801904D01*
X111754761Y-129897142D01*
X111802380Y-129944761D01*
X111897619Y-129992380D01*
X112088095Y-129992380D01*
X112183333Y-129944761D01*
X112230952Y-129897142D01*
X112278571Y-129801904D01*
X112278571Y-128992380D01*
X113945238Y-129992380D02*
X113945238Y-129468571D01*
X113897619Y-129373333D01*
X113802380Y-129325714D01*
X113611904Y-129325714D01*
X113516666Y-129373333D01*
X113945238Y-129944761D02*
X113850000Y-129992380D01*
X113611904Y-129992380D01*
X113516666Y-129944761D01*
X113469047Y-129849523D01*
X113469047Y-129754285D01*
X113516666Y-129659047D01*
X113611904Y-129611428D01*
X113850000Y-129611428D01*
X113945238Y-129563809D01*
X114421428Y-129325714D02*
X114421428Y-129992380D01*
X114421428Y-129420952D02*
X114469047Y-129373333D01*
X114564285Y-129325714D01*
X114707142Y-129325714D01*
X114802380Y-129373333D01*
X114850000Y-129468571D01*
X114850000Y-129992380D01*
X115754761Y-129992380D02*
X115754761Y-128992380D01*
X115754761Y-129944761D02*
X115659523Y-129992380D01*
X115469047Y-129992380D01*
X115373809Y-129944761D01*
X115326190Y-129897142D01*
X115278571Y-129801904D01*
X115278571Y-129516190D01*
X115326190Y-129420952D01*
X115373809Y-129373333D01*
X115469047Y-129325714D01*
X115659523Y-129325714D01*
X115754761Y-129373333D01*
X116992857Y-129992380D02*
X116992857Y-128992380D01*
X117326190Y-129706666D01*
X117659523Y-128992380D01*
X117659523Y-129992380D01*
X118516666Y-129944761D02*
X118421428Y-129992380D01*
X118230952Y-129992380D01*
X118135714Y-129944761D01*
X118088095Y-129849523D01*
X118088095Y-129468571D01*
X118135714Y-129373333D01*
X118230952Y-129325714D01*
X118421428Y-129325714D01*
X118516666Y-129373333D01*
X118564285Y-129468571D01*
X118564285Y-129563809D01*
X118088095Y-129659047D01*
X118992857Y-129992380D02*
X118992857Y-129325714D01*
X118992857Y-129420952D02*
X119040476Y-129373333D01*
X119135714Y-129325714D01*
X119278571Y-129325714D01*
X119373809Y-129373333D01*
X119421428Y-129468571D01*
X119421428Y-129992380D01*
X119421428Y-129468571D02*
X119469047Y-129373333D01*
X119564285Y-129325714D01*
X119707142Y-129325714D01*
X119802380Y-129373333D01*
X119850000Y-129468571D01*
X119850000Y-129992380D01*
X120469047Y-129992380D02*
X120373809Y-129944761D01*
X120326190Y-129897142D01*
X120278571Y-129801904D01*
X120278571Y-129516190D01*
X120326190Y-129420952D01*
X120373809Y-129373333D01*
X120469047Y-129325714D01*
X120611904Y-129325714D01*
X120707142Y-129373333D01*
X120754761Y-129420952D01*
X120802380Y-129516190D01*
X120802380Y-129801904D01*
X120754761Y-129897142D01*
X120707142Y-129944761D01*
X120611904Y-129992380D01*
X120469047Y-129992380D01*
X121230952Y-129992380D02*
X121230952Y-129325714D01*
X121230952Y-129516190D02*
X121278571Y-129420952D01*
X121326190Y-129373333D01*
X121421428Y-129325714D01*
X121516666Y-129325714D01*
X121754761Y-129325714D02*
X121992857Y-129992380D01*
X122230952Y-129325714D02*
X121992857Y-129992380D01*
X121897619Y-130230476D01*
X121850000Y-130278095D01*
X121754761Y-130325714D01*
X123945238Y-129897142D02*
X123897619Y-129944761D01*
X123754761Y-129992380D01*
X123659523Y-129992380D01*
X123516666Y-129944761D01*
X123421428Y-129849523D01*
X123373809Y-129754285D01*
X123326190Y-129563809D01*
X123326190Y-129420952D01*
X123373809Y-129230476D01*
X123421428Y-129135238D01*
X123516666Y-129040000D01*
X123659523Y-128992380D01*
X123754761Y-128992380D01*
X123897619Y-129040000D01*
X123945238Y-129087619D01*
X124802380Y-129992380D02*
X124802380Y-129468571D01*
X124754761Y-129373333D01*
X124659523Y-129325714D01*
X124469047Y-129325714D01*
X124373809Y-129373333D01*
X124802380Y-129944761D02*
X124707142Y-129992380D01*
X124469047Y-129992380D01*
X124373809Y-129944761D01*
X124326190Y-129849523D01*
X124326190Y-129754285D01*
X124373809Y-129659047D01*
X124469047Y-129611428D01*
X124707142Y-129611428D01*
X124802380Y-129563809D01*
X125278571Y-129992380D02*
X125278571Y-129325714D01*
X125278571Y-129516190D02*
X125326190Y-129420952D01*
X125373809Y-129373333D01*
X125469047Y-129325714D01*
X125564285Y-129325714D01*
X126326190Y-129992380D02*
X126326190Y-128992380D01*
X126326190Y-129944761D02*
X126230952Y-129992380D01*
X126040476Y-129992380D01*
X125945238Y-129944761D01*
X125897619Y-129897142D01*
X125850000Y-129801904D01*
X125850000Y-129516190D01*
X125897619Y-129420952D01*
X125945238Y-129373333D01*
X126040476Y-129325714D01*
X126230952Y-129325714D01*
X126326190Y-129373333D01*
X127564285Y-129611428D02*
X128326190Y-129611428D01*
X130135714Y-129992380D02*
X129802380Y-129516190D01*
X129564285Y-129992380D02*
X129564285Y-128992380D01*
X129945238Y-128992380D01*
X130040476Y-129040000D01*
X130088095Y-129087619D01*
X130135714Y-129182857D01*
X130135714Y-129325714D01*
X130088095Y-129420952D01*
X130040476Y-129468571D01*
X129945238Y-129516190D01*
X129564285Y-129516190D01*
X130945238Y-129944761D02*
X130850000Y-129992380D01*
X130659523Y-129992380D01*
X130564285Y-129944761D01*
X130516666Y-129849523D01*
X130516666Y-129468571D01*
X130564285Y-129373333D01*
X130659523Y-129325714D01*
X130850000Y-129325714D01*
X130945238Y-129373333D01*
X130992857Y-129468571D01*
X130992857Y-129563809D01*
X130516666Y-129659047D01*
X131326190Y-129325714D02*
X131564285Y-129992380D01*
X131802380Y-129325714D01*
X133469047Y-129992380D02*
X132897619Y-129992380D01*
X133183333Y-129992380D02*
X133183333Y-128992380D01*
X133088095Y-129135238D01*
X132992857Y-129230476D01*
X132897619Y-129278095D01*
X134659523Y-129611428D02*
X135421428Y-129611428D01*
X136992857Y-129468571D02*
X136659523Y-129468571D01*
X136659523Y-129992380D02*
X136659523Y-128992380D01*
X137135714Y-128992380D01*
X137516666Y-129992380D02*
X137516666Y-129325714D01*
X137516666Y-129516190D02*
X137564285Y-129420952D01*
X137611904Y-129373333D01*
X137707142Y-129325714D01*
X137802380Y-129325714D01*
X138516666Y-129944761D02*
X138421428Y-129992380D01*
X138230952Y-129992380D01*
X138135714Y-129944761D01*
X138088095Y-129849523D01*
X138088095Y-129468571D01*
X138135714Y-129373333D01*
X138230952Y-129325714D01*
X138421428Y-129325714D01*
X138516666Y-129373333D01*
X138564285Y-129468571D01*
X138564285Y-129563809D01*
X138088095Y-129659047D01*
X138421428Y-128944761D02*
X138278571Y-129087619D01*
X139421428Y-129992380D02*
X139421428Y-128992380D01*
X139421428Y-129944761D02*
X139326190Y-129992380D01*
X139135714Y-129992380D01*
X139040476Y-129944761D01*
X138992857Y-129897142D01*
X138945238Y-129801904D01*
X138945238Y-129516190D01*
X138992857Y-129420952D01*
X139040476Y-129373333D01*
X139135714Y-129325714D01*
X139326190Y-129325714D01*
X139421428Y-129373333D01*
X140278571Y-129944761D02*
X140183333Y-129992380D01*
X139992857Y-129992380D01*
X139897619Y-129944761D01*
X139850000Y-129849523D01*
X139850000Y-129468571D01*
X139897619Y-129373333D01*
X139992857Y-129325714D01*
X140183333Y-129325714D01*
X140278571Y-129373333D01*
X140326190Y-129468571D01*
X140326190Y-129563809D01*
X139850000Y-129659047D01*
X140183333Y-128944761D02*
X140040476Y-129087619D01*
X140754761Y-129992380D02*
X140754761Y-129325714D01*
X140754761Y-129516190D02*
X140802380Y-129420952D01*
X140850000Y-129373333D01*
X140945238Y-129325714D01*
X141040476Y-129325714D01*
X141373809Y-129992380D02*
X141373809Y-129325714D01*
X141373809Y-128992380D02*
X141326190Y-129040000D01*
X141373809Y-129087619D01*
X141421428Y-129040000D01*
X141373809Y-128992380D01*
X141373809Y-129087619D01*
X142278571Y-129944761D02*
X142183333Y-129992380D01*
X141992857Y-129992380D01*
X141897619Y-129944761D01*
X141850000Y-129897142D01*
X141802380Y-129801904D01*
X141802380Y-129516190D01*
X141850000Y-129420952D01*
X141897619Y-129373333D01*
X141992857Y-129325714D01*
X142183333Y-129325714D01*
X142278571Y-129373333D01*
X143421428Y-129944761D02*
X143564285Y-129992380D01*
X143802380Y-129992380D01*
X143897619Y-129944761D01*
X143945238Y-129897142D01*
X143992857Y-129801904D01*
X143992857Y-129706666D01*
X143945238Y-129611428D01*
X143897619Y-129563809D01*
X143802380Y-129516190D01*
X143611904Y-129468571D01*
X143516666Y-129420952D01*
X143469047Y-129373333D01*
X143421428Y-129278095D01*
X143421428Y-129182857D01*
X143469047Y-129087619D01*
X143516666Y-129040000D01*
X143611904Y-128992380D01*
X143850000Y-128992380D01*
X143992857Y-129040000D01*
X144802380Y-129944761D02*
X144707142Y-129992380D01*
X144516666Y-129992380D01*
X144421428Y-129944761D01*
X144373809Y-129849523D01*
X144373809Y-129468571D01*
X144421428Y-129373333D01*
X144516666Y-129325714D01*
X144707142Y-129325714D01*
X144802380Y-129373333D01*
X144850000Y-129468571D01*
X144850000Y-129563809D01*
X144373809Y-129659047D01*
X145707142Y-129325714D02*
X145707142Y-130135238D01*
X145659523Y-130230476D01*
X145611904Y-130278095D01*
X145516666Y-130325714D01*
X145373809Y-130325714D01*
X145278571Y-130278095D01*
X145707142Y-129944761D02*
X145611904Y-129992380D01*
X145421428Y-129992380D01*
X145326190Y-129944761D01*
X145278571Y-129897142D01*
X145230952Y-129801904D01*
X145230952Y-129516190D01*
X145278571Y-129420952D01*
X145326190Y-129373333D01*
X145421428Y-129325714D01*
X145611904Y-129325714D01*
X145707142Y-129373333D01*
X146611904Y-129992380D02*
X146611904Y-129468571D01*
X146564285Y-129373333D01*
X146469047Y-129325714D01*
X146278571Y-129325714D01*
X146183333Y-129373333D01*
X146611904Y-129944761D02*
X146516666Y-129992380D01*
X146278571Y-129992380D01*
X146183333Y-129944761D01*
X146135714Y-129849523D01*
X146135714Y-129754285D01*
X146183333Y-129659047D01*
X146278571Y-129611428D01*
X146516666Y-129611428D01*
X146611904Y-129563809D01*
X147088095Y-129992380D02*
X147088095Y-129325714D01*
X147088095Y-129516190D02*
X147135714Y-129420952D01*
X147183333Y-129373333D01*
X147278571Y-129325714D01*
X147373809Y-129325714D01*
X148135714Y-129992380D02*
X148135714Y-128992380D01*
X148135714Y-129944761D02*
X148040476Y-129992380D01*
X147850000Y-129992380D01*
X147754761Y-129944761D01*
X147707142Y-129897142D01*
X147659523Y-129801904D01*
X147659523Y-129516190D01*
X147707142Y-129420952D01*
X147754761Y-129373333D01*
X147850000Y-129325714D01*
X148040476Y-129325714D01*
X148135714Y-129373333D01*
X149373809Y-129611428D02*
X150135714Y-129611428D01*
X151278571Y-129325714D02*
X151516666Y-129992380D01*
X151754761Y-129325714D02*
X151516666Y-129992380D01*
X151421428Y-130230476D01*
X151373809Y-130278095D01*
X151278571Y-130325714D01*
X152278571Y-129992380D02*
X152183333Y-129944761D01*
X152135714Y-129897142D01*
X152088095Y-129801904D01*
X152088095Y-129516190D01*
X152135714Y-129420952D01*
X152183333Y-129373333D01*
X152278571Y-129325714D01*
X152421428Y-129325714D01*
X152516666Y-129373333D01*
X152564285Y-129420952D01*
X152611904Y-129516190D01*
X152611904Y-129801904D01*
X152564285Y-129897142D01*
X152516666Y-129944761D01*
X152421428Y-129992380D01*
X152278571Y-129992380D01*
X153469047Y-129325714D02*
X153469047Y-129992380D01*
X153040476Y-129325714D02*
X153040476Y-129849523D01*
X153088095Y-129944761D01*
X153183333Y-129992380D01*
X153326190Y-129992380D01*
X153421428Y-129944761D01*
X153469047Y-129897142D01*
X153802380Y-129325714D02*
X154183333Y-129325714D01*
X153945238Y-128992380D02*
X153945238Y-129849523D01*
X153992857Y-129944761D01*
X154088095Y-129992380D01*
X154183333Y-129992380D01*
X154945238Y-129325714D02*
X154945238Y-129992380D01*
X154516666Y-129325714D02*
X154516666Y-129849523D01*
X154564285Y-129944761D01*
X154659523Y-129992380D01*
X154802380Y-129992380D01*
X154897619Y-129944761D01*
X154945238Y-129897142D01*
X155421428Y-129992380D02*
X155421428Y-128992380D01*
X155421428Y-129373333D02*
X155516666Y-129325714D01*
X155707142Y-129325714D01*
X155802380Y-129373333D01*
X155850000Y-129420952D01*
X155897619Y-129516190D01*
X155897619Y-129801904D01*
X155850000Y-129897142D01*
X155802380Y-129944761D01*
X155707142Y-129992380D01*
X155516666Y-129992380D01*
X155421428Y-129944761D01*
X156707142Y-129944761D02*
X156611904Y-129992380D01*
X156421428Y-129992380D01*
X156326190Y-129944761D01*
X156278571Y-129849523D01*
X156278571Y-129468571D01*
X156326190Y-129373333D01*
X156421428Y-129325714D01*
X156611904Y-129325714D01*
X156707142Y-129373333D01*
X156754761Y-129468571D01*
X156754761Y-129563809D01*
X156278571Y-129659047D01*
X157183333Y-129897142D02*
X157230952Y-129944761D01*
X157183333Y-129992380D01*
X157135714Y-129944761D01*
X157183333Y-129897142D01*
X157183333Y-129992380D01*
X158088095Y-129944761D02*
X157992857Y-129992380D01*
X157802380Y-129992380D01*
X157707142Y-129944761D01*
X157659523Y-129897142D01*
X157611904Y-129801904D01*
X157611904Y-129516190D01*
X157659523Y-129420952D01*
X157707142Y-129373333D01*
X157802380Y-129325714D01*
X157992857Y-129325714D01*
X158088095Y-129373333D01*
X158659523Y-129992380D02*
X158564285Y-129944761D01*
X158516666Y-129897142D01*
X158469047Y-129801904D01*
X158469047Y-129516190D01*
X158516666Y-129420952D01*
X158564285Y-129373333D01*
X158659523Y-129325714D01*
X158802380Y-129325714D01*
X158897619Y-129373333D01*
X158945238Y-129420952D01*
X158992857Y-129516190D01*
X158992857Y-129801904D01*
X158945238Y-129897142D01*
X158897619Y-129944761D01*
X158802380Y-129992380D01*
X158659523Y-129992380D01*
X159421428Y-129992380D02*
X159421428Y-129325714D01*
X159421428Y-129420952D02*
X159469047Y-129373333D01*
X159564285Y-129325714D01*
X159707142Y-129325714D01*
X159802380Y-129373333D01*
X159850000Y-129468571D01*
X159850000Y-129992380D01*
X159850000Y-129468571D02*
X159897619Y-129373333D01*
X159992857Y-129325714D01*
X160135714Y-129325714D01*
X160230952Y-129373333D01*
X160278571Y-129468571D01*
X160278571Y-129992380D01*
X161469047Y-128944761D02*
X160611904Y-130230476D01*
X162421428Y-129516190D02*
X162373809Y-129468571D01*
X162278571Y-129420952D01*
X162183333Y-129420952D01*
X162088095Y-129468571D01*
X162040476Y-129516190D01*
X161992857Y-129611428D01*
X161992857Y-129706666D01*
X162040476Y-129801904D01*
X162088095Y-129849523D01*
X162183333Y-129897142D01*
X162278571Y-129897142D01*
X162373809Y-129849523D01*
X162421428Y-129801904D01*
X162421428Y-129420952D02*
X162421428Y-129801904D01*
X162469047Y-129849523D01*
X162516666Y-129849523D01*
X162611904Y-129801904D01*
X162659523Y-129706666D01*
X162659523Y-129468571D01*
X162564285Y-129325714D01*
X162421428Y-129230476D01*
X162230952Y-129182857D01*
X162040476Y-129230476D01*
X161897619Y-129325714D01*
X161802380Y-129468571D01*
X161754761Y-129659047D01*
X161802380Y-129849523D01*
X161897619Y-129992380D01*
X162040476Y-130087619D01*
X162230952Y-130135238D01*
X162421428Y-130087619D01*
X162564285Y-129992380D01*
X163088095Y-129992380D02*
X163088095Y-129325714D01*
X163088095Y-129420952D02*
X163135714Y-129373333D01*
X163230952Y-129325714D01*
X163373809Y-129325714D01*
X163469047Y-129373333D01*
X163516666Y-129468571D01*
X163516666Y-129992380D01*
X163516666Y-129468571D02*
X163564285Y-129373333D01*
X163659523Y-129325714D01*
X163802380Y-129325714D01*
X163897619Y-129373333D01*
X163945238Y-129468571D01*
X163945238Y-129992380D01*
X164421428Y-129992380D02*
X164421428Y-129325714D01*
X164421428Y-128992380D02*
X164373809Y-129040000D01*
X164421428Y-129087619D01*
X164469047Y-129040000D01*
X164421428Y-128992380D01*
X164421428Y-129087619D01*
X165326190Y-129944761D02*
X165230952Y-129992380D01*
X165040476Y-129992380D01*
X164945238Y-129944761D01*
X164897619Y-129897142D01*
X164850000Y-129801904D01*
X164850000Y-129516190D01*
X164897619Y-129420952D01*
X164945238Y-129373333D01*
X165040476Y-129325714D01*
X165230952Y-129325714D01*
X165326190Y-129373333D01*
X165754761Y-129992380D02*
X165754761Y-129325714D01*
X165754761Y-129516190D02*
X165802380Y-129420952D01*
X165850000Y-129373333D01*
X165945238Y-129325714D01*
X166040476Y-129325714D01*
X166516666Y-129992380D02*
X166421428Y-129944761D01*
X166373809Y-129897142D01*
X166326190Y-129801904D01*
X166326190Y-129516190D01*
X166373809Y-129420952D01*
X166421428Y-129373333D01*
X166516666Y-129325714D01*
X166659523Y-129325714D01*
X166754761Y-129373333D01*
X166802380Y-129420952D01*
X166850000Y-129516190D01*
X166850000Y-129801904D01*
X166802380Y-129897142D01*
X166754761Y-129944761D01*
X166659523Y-129992380D01*
X166516666Y-129992380D01*
X167278571Y-129992380D02*
X167278571Y-128992380D01*
X167707142Y-129992380D02*
X167707142Y-129468571D01*
X167659523Y-129373333D01*
X167564285Y-129325714D01*
X167421428Y-129325714D01*
X167326190Y-129373333D01*
X167278571Y-129420952D01*
X168326190Y-129992380D02*
X168230952Y-129944761D01*
X168183333Y-129897142D01*
X168135714Y-129801904D01*
X168135714Y-129516190D01*
X168183333Y-129420952D01*
X168230952Y-129373333D01*
X168326190Y-129325714D01*
X168469047Y-129325714D01*
X168564285Y-129373333D01*
X168611904Y-129420952D01*
X168659523Y-129516190D01*
X168659523Y-129801904D01*
X168611904Y-129897142D01*
X168564285Y-129944761D01*
X168469047Y-129992380D01*
X168326190Y-129992380D01*
X169088095Y-129992380D02*
X169088095Y-128992380D01*
X169088095Y-129373333D02*
X169183333Y-129325714D01*
X169373809Y-129325714D01*
X169469047Y-129373333D01*
X169516666Y-129420952D01*
X169564285Y-129516190D01*
X169564285Y-129801904D01*
X169516666Y-129897142D01*
X169469047Y-129944761D01*
X169373809Y-129992380D01*
X169183333Y-129992380D01*
X169088095Y-129944761D01*
X169992857Y-129992380D02*
X169992857Y-128992380D01*
X169992857Y-129373333D02*
X170088095Y-129325714D01*
X170278571Y-129325714D01*
X170373809Y-129373333D01*
X170421428Y-129420952D01*
X170469047Y-129516190D01*
X170469047Y-129801904D01*
X170421428Y-129897142D01*
X170373809Y-129944761D01*
X170278571Y-129992380D01*
X170088095Y-129992380D01*
X169992857Y-129944761D01*
X170802380Y-129325714D02*
X171040476Y-129992380D01*
X171278571Y-129325714D02*
X171040476Y-129992380D01*
X170945238Y-130230476D01*
X170897619Y-130278095D01*
X170802380Y-130325714D01*
X171659523Y-129992380D02*
X171659523Y-129325714D01*
X171659523Y-128992380D02*
X171611904Y-129040000D01*
X171659523Y-129087619D01*
X171707142Y-129040000D01*
X171659523Y-128992380D01*
X171659523Y-129087619D01*
X172088095Y-129944761D02*
X172183333Y-129992380D01*
X172373809Y-129992380D01*
X172469047Y-129944761D01*
X172516666Y-129849523D01*
X172516666Y-129801904D01*
X172469047Y-129706666D01*
X172373809Y-129659047D01*
X172230952Y-129659047D01*
X172135714Y-129611428D01*
X172088095Y-129516190D01*
X172088095Y-129468571D01*
X172135714Y-129373333D01*
X172230952Y-129325714D01*
X172373809Y-129325714D01*
X172469047Y-129373333D01*
X172802380Y-129325714D02*
X173183333Y-129325714D01*
X172945238Y-128992380D02*
X172945238Y-129849523D01*
X172992857Y-129944761D01*
X173088095Y-129992380D01*
X173183333Y-129992380D01*
X146645333Y-52268380D02*
X146312000Y-51792190D01*
X146073904Y-52268380D02*
X146073904Y-51268380D01*
X146454857Y-51268380D01*
X146550095Y-51316000D01*
X146597714Y-51363619D01*
X146645333Y-51458857D01*
X146645333Y-51601714D01*
X146597714Y-51696952D01*
X146550095Y-51744571D01*
X146454857Y-51792190D01*
X146073904Y-51792190D01*
X147502476Y-51601714D02*
X147502476Y-52268380D01*
X147264380Y-51220761D02*
X147026285Y-51935047D01*
X147645333Y-51935047D01*
X90892380Y-117606904D02*
X91701904Y-117606904D01*
X91797142Y-117559285D01*
X91844761Y-117511666D01*
X91892380Y-117416428D01*
X91892380Y-117225952D01*
X91844761Y-117130714D01*
X91797142Y-117083095D01*
X91701904Y-117035476D01*
X90892380Y-117035476D01*
X91225714Y-116130714D02*
X91892380Y-116130714D01*
X90844761Y-116368809D02*
X91559047Y-116606904D01*
X91559047Y-115987857D01*
X87733142Y-72048666D02*
X87780761Y-72096285D01*
X87828380Y-72239142D01*
X87828380Y-72334380D01*
X87780761Y-72477238D01*
X87685523Y-72572476D01*
X87590285Y-72620095D01*
X87399809Y-72667714D01*
X87256952Y-72667714D01*
X87066476Y-72620095D01*
X86971238Y-72572476D01*
X86876000Y-72477238D01*
X86828380Y-72334380D01*
X86828380Y-72239142D01*
X86876000Y-72096285D01*
X86923619Y-72048666D01*
X87828380Y-71096285D02*
X87828380Y-71667714D01*
X87828380Y-71382000D02*
X86828380Y-71382000D01*
X86971238Y-71477238D01*
X87066476Y-71572476D01*
X87114095Y-71667714D01*
X100417333Y-55570380D02*
X100084000Y-55094190D01*
X99845904Y-55570380D02*
X99845904Y-54570380D01*
X100226857Y-54570380D01*
X100322095Y-54618000D01*
X100369714Y-54665619D01*
X100417333Y-54760857D01*
X100417333Y-54903714D01*
X100369714Y-54998952D01*
X100322095Y-55046571D01*
X100226857Y-55094190D01*
X99845904Y-55094190D01*
X100750666Y-54570380D02*
X101369714Y-54570380D01*
X101036380Y-54951333D01*
X101179238Y-54951333D01*
X101274476Y-54998952D01*
X101322095Y-55046571D01*
X101369714Y-55141809D01*
X101369714Y-55379904D01*
X101322095Y-55475142D01*
X101274476Y-55522761D01*
X101179238Y-55570380D01*
X100893523Y-55570380D01*
X100798285Y-55522761D01*
X100750666Y-55475142D01*
X153519142Y-82188666D02*
X153566761Y-82236285D01*
X153614380Y-82379142D01*
X153614380Y-82474380D01*
X153566761Y-82617238D01*
X153471523Y-82712476D01*
X153376285Y-82760095D01*
X153185809Y-82807714D01*
X153042952Y-82807714D01*
X152852476Y-82760095D01*
X152757238Y-82712476D01*
X152662000Y-82617238D01*
X152614380Y-82474380D01*
X152614380Y-82379142D01*
X152662000Y-82236285D01*
X152709619Y-82188666D01*
X153042952Y-81617238D02*
X152995333Y-81712476D01*
X152947714Y-81760095D01*
X152852476Y-81807714D01*
X152804857Y-81807714D01*
X152709619Y-81760095D01*
X152662000Y-81712476D01*
X152614380Y-81617238D01*
X152614380Y-81426761D01*
X152662000Y-81331523D01*
X152709619Y-81283904D01*
X152804857Y-81236285D01*
X152852476Y-81236285D01*
X152947714Y-81283904D01*
X152995333Y-81331523D01*
X153042952Y-81426761D01*
X153042952Y-81617238D01*
X153090571Y-81712476D01*
X153138190Y-81760095D01*
X153233428Y-81807714D01*
X153423904Y-81807714D01*
X153519142Y-81760095D01*
X153566761Y-81712476D01*
X153614380Y-81617238D01*
X153614380Y-81426761D01*
X153566761Y-81331523D01*
X153519142Y-81283904D01*
X153423904Y-81236285D01*
X153233428Y-81236285D01*
X153138190Y-81283904D01*
X153090571Y-81331523D01*
X153042952Y-81426761D01*
X87733142Y-120308666D02*
X87780761Y-120356285D01*
X87828380Y-120499142D01*
X87828380Y-120594380D01*
X87780761Y-120737238D01*
X87685523Y-120832476D01*
X87590285Y-120880095D01*
X87399809Y-120927714D01*
X87256952Y-120927714D01*
X87066476Y-120880095D01*
X86971238Y-120832476D01*
X86876000Y-120737238D01*
X86828380Y-120594380D01*
X86828380Y-120499142D01*
X86876000Y-120356285D01*
X86923619Y-120308666D01*
X86828380Y-119975333D02*
X86828380Y-119356285D01*
X87209333Y-119689619D01*
X87209333Y-119546761D01*
X87256952Y-119451523D01*
X87304571Y-119403904D01*
X87399809Y-119356285D01*
X87637904Y-119356285D01*
X87733142Y-119403904D01*
X87780761Y-119451523D01*
X87828380Y-119546761D01*
X87828380Y-119832476D01*
X87780761Y-119927714D01*
X87733142Y-119975333D01*
X113033904Y-44394380D02*
X113033904Y-43394380D01*
X113272000Y-43394380D01*
X113414857Y-43442000D01*
X113510095Y-43537238D01*
X113557714Y-43632476D01*
X113605333Y-43822952D01*
X113605333Y-43965809D01*
X113557714Y-44156285D01*
X113510095Y-44251523D01*
X113414857Y-44346761D01*
X113272000Y-44394380D01*
X113033904Y-44394380D01*
X113938666Y-43394380D02*
X114605333Y-43394380D01*
X114176761Y-44394380D01*
X120229333Y-52268380D02*
X119896000Y-51792190D01*
X119657904Y-52268380D02*
X119657904Y-51268380D01*
X120038857Y-51268380D01*
X120134095Y-51316000D01*
X120181714Y-51363619D01*
X120229333Y-51458857D01*
X120229333Y-51601714D01*
X120181714Y-51696952D01*
X120134095Y-51744571D01*
X120038857Y-51792190D01*
X119657904Y-51792190D01*
X120705523Y-52268380D02*
X120896000Y-52268380D01*
X120991238Y-52220761D01*
X121038857Y-52173142D01*
X121134095Y-52030285D01*
X121181714Y-51839809D01*
X121181714Y-51458857D01*
X121134095Y-51363619D01*
X121086476Y-51316000D01*
X120991238Y-51268380D01*
X120800761Y-51268380D01*
X120705523Y-51316000D01*
X120657904Y-51363619D01*
X120610285Y-51458857D01*
X120610285Y-51696952D01*
X120657904Y-51792190D01*
X120705523Y-51839809D01*
X120800761Y-51887428D01*
X120991238Y-51887428D01*
X121086476Y-51839809D01*
X121134095Y-51792190D01*
X121181714Y-51696952D01*
X139035333Y-82389142D02*
X138987714Y-82436761D01*
X138844857Y-82484380D01*
X138749619Y-82484380D01*
X138606761Y-82436761D01*
X138511523Y-82341523D01*
X138463904Y-82246285D01*
X138416285Y-82055809D01*
X138416285Y-81912952D01*
X138463904Y-81722476D01*
X138511523Y-81627238D01*
X138606761Y-81532000D01*
X138749619Y-81484380D01*
X138844857Y-81484380D01*
X138987714Y-81532000D01*
X139035333Y-81579619D01*
X139940095Y-81484380D02*
X139463904Y-81484380D01*
X139416285Y-81960571D01*
X139463904Y-81912952D01*
X139559142Y-81865333D01*
X139797238Y-81865333D01*
X139892476Y-81912952D01*
X139940095Y-81960571D01*
X139987714Y-82055809D01*
X139987714Y-82293904D01*
X139940095Y-82389142D01*
X139892476Y-82436761D01*
X139797238Y-82484380D01*
X139559142Y-82484380D01*
X139463904Y-82436761D01*
X139416285Y-82389142D01*
X156673380Y-79471904D02*
X157482904Y-79471904D01*
X157578142Y-79424285D01*
X157625761Y-79376666D01*
X157673380Y-79281428D01*
X157673380Y-79090952D01*
X157625761Y-78995714D01*
X157578142Y-78948095D01*
X157482904Y-78900476D01*
X156673380Y-78900476D01*
X157673380Y-78376666D02*
X157673380Y-78186190D01*
X157625761Y-78090952D01*
X157578142Y-78043333D01*
X157435285Y-77948095D01*
X157244809Y-77900476D01*
X156863857Y-77900476D01*
X156768619Y-77948095D01*
X156721000Y-77995714D01*
X156673380Y-78090952D01*
X156673380Y-78281428D01*
X156721000Y-78376666D01*
X156768619Y-78424285D01*
X156863857Y-78471904D01*
X157101952Y-78471904D01*
X157197190Y-78424285D01*
X157244809Y-78376666D01*
X157292428Y-78281428D01*
X157292428Y-78090952D01*
X157244809Y-77995714D01*
X157197190Y-77948095D01*
X157101952Y-77900476D01*
X165409714Y-44394380D02*
X165409714Y-43394380D01*
X165647809Y-43394380D01*
X165790666Y-43442000D01*
X165885904Y-43537238D01*
X165933523Y-43632476D01*
X165981142Y-43822952D01*
X165981142Y-43965809D01*
X165933523Y-44156285D01*
X165885904Y-44251523D01*
X165790666Y-44346761D01*
X165647809Y-44394380D01*
X165409714Y-44394380D01*
X166933523Y-44394380D02*
X166362095Y-44394380D01*
X166647809Y-44394380D02*
X166647809Y-43394380D01*
X166552571Y-43537238D01*
X166457333Y-43632476D01*
X166362095Y-43680095D01*
X167552571Y-43394380D02*
X167647809Y-43394380D01*
X167743047Y-43442000D01*
X167790666Y-43489619D01*
X167838285Y-43584857D01*
X167885904Y-43775333D01*
X167885904Y-44013428D01*
X167838285Y-44203904D01*
X167790666Y-44299142D01*
X167743047Y-44346761D01*
X167647809Y-44394380D01*
X167552571Y-44394380D01*
X167457333Y-44346761D01*
X167409714Y-44299142D01*
X167362095Y-44203904D01*
X167314476Y-44013428D01*
X167314476Y-43775333D01*
X167362095Y-43584857D01*
X167409714Y-43489619D01*
X167457333Y-43442000D01*
X167552571Y-43394380D01*
X164303380Y-93471904D02*
X165112904Y-93471904D01*
X165208142Y-93424285D01*
X165255761Y-93376666D01*
X165303380Y-93281428D01*
X165303380Y-93090952D01*
X165255761Y-92995714D01*
X165208142Y-92948095D01*
X165112904Y-92900476D01*
X164303380Y-92900476D01*
X165303380Y-91900476D02*
X165303380Y-92471904D01*
X165303380Y-92186190D02*
X164303380Y-92186190D01*
X164446238Y-92281428D01*
X164541476Y-92376666D01*
X164589095Y-92471904D01*
X161134142Y-96208666D02*
X161181761Y-96256285D01*
X161229380Y-96399142D01*
X161229380Y-96494380D01*
X161181761Y-96637238D01*
X161086523Y-96732476D01*
X160991285Y-96780095D01*
X160800809Y-96827714D01*
X160657952Y-96827714D01*
X160467476Y-96780095D01*
X160372238Y-96732476D01*
X160277000Y-96637238D01*
X160229380Y-96494380D01*
X160229380Y-96399142D01*
X160277000Y-96256285D01*
X160324619Y-96208666D01*
X160229380Y-95351523D02*
X160229380Y-95542000D01*
X160277000Y-95637238D01*
X160324619Y-95684857D01*
X160467476Y-95780095D01*
X160657952Y-95827714D01*
X161038904Y-95827714D01*
X161134142Y-95780095D01*
X161181761Y-95732476D01*
X161229380Y-95637238D01*
X161229380Y-95446761D01*
X161181761Y-95351523D01*
X161134142Y-95303904D01*
X161038904Y-95256285D01*
X160800809Y-95256285D01*
X160705571Y-95303904D01*
X160657952Y-95351523D01*
X160610333Y-95446761D01*
X160610333Y-95637238D01*
X160657952Y-95732476D01*
X160705571Y-95780095D01*
X160800809Y-95827714D01*
X141742095Y-85558380D02*
X141742095Y-86367904D01*
X141789714Y-86463142D01*
X141837333Y-86510761D01*
X141932571Y-86558380D01*
X142123047Y-86558380D01*
X142218285Y-86510761D01*
X142265904Y-86463142D01*
X142313523Y-86367904D01*
X142313523Y-85558380D01*
X142742095Y-85653619D02*
X142789714Y-85606000D01*
X142884952Y-85558380D01*
X143123047Y-85558380D01*
X143218285Y-85606000D01*
X143265904Y-85653619D01*
X143313523Y-85748857D01*
X143313523Y-85844095D01*
X143265904Y-85986952D01*
X142694476Y-86558380D01*
X143313523Y-86558380D01*
X90892380Y-69346904D02*
X91701904Y-69346904D01*
X91797142Y-69299285D01*
X91844761Y-69251666D01*
X91892380Y-69156428D01*
X91892380Y-68965952D01*
X91844761Y-68870714D01*
X91797142Y-68823095D01*
X91701904Y-68775476D01*
X90892380Y-68775476D01*
X90892380Y-67823095D02*
X90892380Y-68299285D01*
X91368571Y-68346904D01*
X91320952Y-68299285D01*
X91273333Y-68204047D01*
X91273333Y-67965952D01*
X91320952Y-67870714D01*
X91368571Y-67823095D01*
X91463809Y-67775476D01*
X91701904Y-67775476D01*
X91797142Y-67823095D01*
X91844761Y-67870714D01*
X91892380Y-67965952D01*
X91892380Y-68204047D01*
X91844761Y-68299285D01*
X91797142Y-68346904D01*
X87733142Y-96178666D02*
X87780761Y-96226285D01*
X87828380Y-96369142D01*
X87828380Y-96464380D01*
X87780761Y-96607238D01*
X87685523Y-96702476D01*
X87590285Y-96750095D01*
X87399809Y-96797714D01*
X87256952Y-96797714D01*
X87066476Y-96750095D01*
X86971238Y-96702476D01*
X86876000Y-96607238D01*
X86828380Y-96464380D01*
X86828380Y-96369142D01*
X86876000Y-96226285D01*
X86923619Y-96178666D01*
X86923619Y-95797714D02*
X86876000Y-95750095D01*
X86828380Y-95654857D01*
X86828380Y-95416761D01*
X86876000Y-95321523D01*
X86923619Y-95273904D01*
X87018857Y-95226285D01*
X87114095Y-95226285D01*
X87256952Y-95273904D01*
X87828380Y-95845333D01*
X87828380Y-95226285D01*
X161768380Y-107471904D02*
X162577904Y-107471904D01*
X162673142Y-107424285D01*
X162720761Y-107376666D01*
X162768380Y-107281428D01*
X162768380Y-107090952D01*
X162720761Y-106995714D01*
X162673142Y-106948095D01*
X162577904Y-106900476D01*
X161768380Y-106900476D01*
X162196952Y-106281428D02*
X162149333Y-106376666D01*
X162101714Y-106424285D01*
X162006476Y-106471904D01*
X161958857Y-106471904D01*
X161863619Y-106424285D01*
X161816000Y-106376666D01*
X161768380Y-106281428D01*
X161768380Y-106090952D01*
X161816000Y-105995714D01*
X161863619Y-105948095D01*
X161958857Y-105900476D01*
X162006476Y-105900476D01*
X162101714Y-105948095D01*
X162149333Y-105995714D01*
X162196952Y-106090952D01*
X162196952Y-106281428D01*
X162244571Y-106376666D01*
X162292190Y-106424285D01*
X162387428Y-106471904D01*
X162577904Y-106471904D01*
X162673142Y-106424285D01*
X162720761Y-106376666D01*
X162768380Y-106281428D01*
X162768380Y-106090952D01*
X162720761Y-105995714D01*
X162673142Y-105948095D01*
X162577904Y-105900476D01*
X162387428Y-105900476D01*
X162292190Y-105948095D01*
X162244571Y-105995714D01*
X162196952Y-106090952D01*
X93221904Y-44394380D02*
X93221904Y-43394380D01*
X93460000Y-43394380D01*
X93602857Y-43442000D01*
X93698095Y-43537238D01*
X93745714Y-43632476D01*
X93793333Y-43822952D01*
X93793333Y-43965809D01*
X93745714Y-44156285D01*
X93698095Y-44251523D01*
X93602857Y-44346761D01*
X93460000Y-44394380D01*
X93221904Y-44394380D01*
X94745714Y-44394380D02*
X94174285Y-44394380D01*
X94460000Y-44394380D02*
X94460000Y-43394380D01*
X94364761Y-43537238D01*
X94269523Y-43632476D01*
X94174285Y-43680095D01*
X141742095Y-61428380D02*
X141742095Y-62237904D01*
X141789714Y-62333142D01*
X141837333Y-62380761D01*
X141932571Y-62428380D01*
X142123047Y-62428380D01*
X142218285Y-62380761D01*
X142265904Y-62333142D01*
X142313523Y-62237904D01*
X142313523Y-61428380D01*
X142694476Y-61428380D02*
X143361142Y-61428380D01*
X142932571Y-62428380D01*
X158609142Y-125132857D02*
X158656761Y-125180476D01*
X158704380Y-125323333D01*
X158704380Y-125418571D01*
X158656761Y-125561428D01*
X158561523Y-125656666D01*
X158466285Y-125704285D01*
X158275809Y-125751904D01*
X158132952Y-125751904D01*
X157942476Y-125704285D01*
X157847238Y-125656666D01*
X157752000Y-125561428D01*
X157704380Y-125418571D01*
X157704380Y-125323333D01*
X157752000Y-125180476D01*
X157799619Y-125132857D01*
X158704380Y-124180476D02*
X158704380Y-124751904D01*
X158704380Y-124466190D02*
X157704380Y-124466190D01*
X157847238Y-124561428D01*
X157942476Y-124656666D01*
X157990095Y-124751904D01*
X157704380Y-123561428D02*
X157704380Y-123466190D01*
X157752000Y-123370952D01*
X157799619Y-123323333D01*
X157894857Y-123275714D01*
X158085333Y-123228095D01*
X158323428Y-123228095D01*
X158513904Y-123275714D01*
X158609142Y-123323333D01*
X158656761Y-123370952D01*
X158704380Y-123466190D01*
X158704380Y-123561428D01*
X158656761Y-123656666D01*
X158609142Y-123704285D01*
X158513904Y-123751904D01*
X158323428Y-123799523D01*
X158085333Y-123799523D01*
X157894857Y-123751904D01*
X157799619Y-123704285D01*
X157752000Y-123656666D01*
X157704380Y-123561428D01*
X106449904Y-44394380D02*
X106449904Y-43394380D01*
X106688000Y-43394380D01*
X106830857Y-43442000D01*
X106926095Y-43537238D01*
X106973714Y-43632476D01*
X107021333Y-43822952D01*
X107021333Y-43965809D01*
X106973714Y-44156285D01*
X106926095Y-44251523D01*
X106830857Y-44346761D01*
X106688000Y-44394380D01*
X106449904Y-44394380D01*
X107926095Y-43394380D02*
X107449904Y-43394380D01*
X107402285Y-43870571D01*
X107449904Y-43822952D01*
X107545142Y-43775333D01*
X107783238Y-43775333D01*
X107878476Y-43822952D01*
X107926095Y-43870571D01*
X107973714Y-43965809D01*
X107973714Y-44203904D01*
X107926095Y-44299142D01*
X107878476Y-44346761D01*
X107783238Y-44394380D01*
X107545142Y-44394380D01*
X107449904Y-44346761D01*
X107402285Y-44299142D01*
X113625333Y-55570380D02*
X113292000Y-55094190D01*
X113053904Y-55570380D02*
X113053904Y-54570380D01*
X113434857Y-54570380D01*
X113530095Y-54618000D01*
X113577714Y-54665619D01*
X113625333Y-54760857D01*
X113625333Y-54903714D01*
X113577714Y-54998952D01*
X113530095Y-55046571D01*
X113434857Y-55094190D01*
X113053904Y-55094190D01*
X113958666Y-54570380D02*
X114625333Y-54570380D01*
X114196761Y-55570380D01*
X158609142Y-110686666D02*
X158656761Y-110734285D01*
X158704380Y-110877142D01*
X158704380Y-110972380D01*
X158656761Y-111115238D01*
X158561523Y-111210476D01*
X158466285Y-111258095D01*
X158275809Y-111305714D01*
X158132952Y-111305714D01*
X157942476Y-111258095D01*
X157847238Y-111210476D01*
X157752000Y-111115238D01*
X157704380Y-110972380D01*
X157704380Y-110877142D01*
X157752000Y-110734285D01*
X157799619Y-110686666D01*
X158704380Y-110210476D02*
X158704380Y-110020000D01*
X158656761Y-109924761D01*
X158609142Y-109877142D01*
X158466285Y-109781904D01*
X158275809Y-109734285D01*
X157894857Y-109734285D01*
X157799619Y-109781904D01*
X157752000Y-109829523D01*
X157704380Y-109924761D01*
X157704380Y-110115238D01*
X157752000Y-110210476D01*
X157799619Y-110258095D01*
X157894857Y-110305714D01*
X158132952Y-110305714D01*
X158228190Y-110258095D01*
X158275809Y-110210476D01*
X158323428Y-110115238D01*
X158323428Y-109924761D01*
X158275809Y-109829523D01*
X158228190Y-109781904D01*
X158132952Y-109734285D01*
X119637904Y-44394380D02*
X119637904Y-43394380D01*
X119876000Y-43394380D01*
X120018857Y-43442000D01*
X120114095Y-43537238D01*
X120161714Y-43632476D01*
X120209333Y-43822952D01*
X120209333Y-43965809D01*
X120161714Y-44156285D01*
X120114095Y-44251523D01*
X120018857Y-44346761D01*
X119876000Y-44394380D01*
X119637904Y-44394380D01*
X120685523Y-44394380D02*
X120876000Y-44394380D01*
X120971238Y-44346761D01*
X121018857Y-44299142D01*
X121114095Y-44156285D01*
X121161714Y-43965809D01*
X121161714Y-43584857D01*
X121114095Y-43489619D01*
X121066476Y-43442000D01*
X120971238Y-43394380D01*
X120780761Y-43394380D01*
X120685523Y-43442000D01*
X120637904Y-43489619D01*
X120590285Y-43584857D01*
X120590285Y-43822952D01*
X120637904Y-43918190D01*
X120685523Y-43965809D01*
X120780761Y-44013428D01*
X120971238Y-44013428D01*
X121066476Y-43965809D01*
X121114095Y-43918190D01*
X121161714Y-43822952D01*
X172585142Y-52268380D02*
X172251809Y-51792190D01*
X172013714Y-52268380D02*
X172013714Y-51268380D01*
X172394666Y-51268380D01*
X172489904Y-51316000D01*
X172537523Y-51363619D01*
X172585142Y-51458857D01*
X172585142Y-51601714D01*
X172537523Y-51696952D01*
X172489904Y-51744571D01*
X172394666Y-51792190D01*
X172013714Y-51792190D01*
X173537523Y-52268380D02*
X172966095Y-52268380D01*
X173251809Y-52268380D02*
X173251809Y-51268380D01*
X173156571Y-51411238D01*
X173061333Y-51506476D01*
X172966095Y-51554095D01*
X173918476Y-51363619D02*
X173966095Y-51316000D01*
X174061333Y-51268380D01*
X174299428Y-51268380D01*
X174394666Y-51316000D01*
X174442285Y-51363619D01*
X174489904Y-51458857D01*
X174489904Y-51554095D01*
X174442285Y-51696952D01*
X173870857Y-52268380D01*
X174489904Y-52268380D01*
X132369714Y-44394380D02*
X132369714Y-43394380D01*
X132607809Y-43394380D01*
X132750666Y-43442000D01*
X132845904Y-43537238D01*
X132893523Y-43632476D01*
X132941142Y-43822952D01*
X132941142Y-43965809D01*
X132893523Y-44156285D01*
X132845904Y-44251523D01*
X132750666Y-44346761D01*
X132607809Y-44394380D01*
X132369714Y-44394380D01*
X133893523Y-44394380D02*
X133322095Y-44394380D01*
X133607809Y-44394380D02*
X133607809Y-43394380D01*
X133512571Y-43537238D01*
X133417333Y-43632476D01*
X133322095Y-43680095D01*
X134226857Y-43394380D02*
X134845904Y-43394380D01*
X134512571Y-43775333D01*
X134655428Y-43775333D01*
X134750666Y-43822952D01*
X134798285Y-43870571D01*
X134845904Y-43965809D01*
X134845904Y-44203904D01*
X134798285Y-44299142D01*
X134750666Y-44346761D01*
X134655428Y-44394380D01*
X134369714Y-44394380D01*
X134274476Y-44346761D01*
X134226857Y-44299142D01*
X93813333Y-52268380D02*
X93480000Y-51792190D01*
X93241904Y-52268380D02*
X93241904Y-51268380D01*
X93622857Y-51268380D01*
X93718095Y-51316000D01*
X93765714Y-51363619D01*
X93813333Y-51458857D01*
X93813333Y-51601714D01*
X93765714Y-51696952D01*
X93718095Y-51744571D01*
X93622857Y-51792190D01*
X93241904Y-51792190D01*
X94765714Y-52268380D02*
X94194285Y-52268380D01*
X94480000Y-52268380D02*
X94480000Y-51268380D01*
X94384761Y-51411238D01*
X94289523Y-51506476D01*
X94194285Y-51554095D01*
X161768380Y-121411904D02*
X162577904Y-121411904D01*
X162673142Y-121364285D01*
X162720761Y-121316666D01*
X162768380Y-121221428D01*
X162768380Y-121030952D01*
X162720761Y-120935714D01*
X162673142Y-120888095D01*
X162577904Y-120840476D01*
X161768380Y-120840476D01*
X161768380Y-120459523D02*
X161768380Y-119840476D01*
X162149333Y-120173809D01*
X162149333Y-120030952D01*
X162196952Y-119935714D01*
X162244571Y-119888095D01*
X162339809Y-119840476D01*
X162577904Y-119840476D01*
X162673142Y-119888095D01*
X162720761Y-119935714D01*
X162768380Y-120030952D01*
X162768380Y-120316666D01*
X162720761Y-120411904D01*
X162673142Y-120459523D01*
X159281904Y-44394380D02*
X159281904Y-43394380D01*
X159520000Y-43394380D01*
X159662857Y-43442000D01*
X159758095Y-43537238D01*
X159805714Y-43632476D01*
X159853333Y-43822952D01*
X159853333Y-43965809D01*
X159805714Y-44156285D01*
X159758095Y-44251523D01*
X159662857Y-44346761D01*
X159520000Y-44394380D01*
X159281904Y-44394380D01*
X160424761Y-43822952D02*
X160329523Y-43775333D01*
X160281904Y-43727714D01*
X160234285Y-43632476D01*
X160234285Y-43584857D01*
X160281904Y-43489619D01*
X160329523Y-43442000D01*
X160424761Y-43394380D01*
X160615238Y-43394380D01*
X160710476Y-43442000D01*
X160758095Y-43489619D01*
X160805714Y-43584857D01*
X160805714Y-43632476D01*
X160758095Y-43727714D01*
X160710476Y-43775333D01*
X160615238Y-43822952D01*
X160424761Y-43822952D01*
X160329523Y-43870571D01*
X160281904Y-43918190D01*
X160234285Y-44013428D01*
X160234285Y-44203904D01*
X160281904Y-44299142D01*
X160329523Y-44346761D01*
X160424761Y-44394380D01*
X160615238Y-44394380D01*
X160710476Y-44346761D01*
X160758095Y-44299142D01*
X160805714Y-44203904D01*
X160805714Y-44013428D01*
X160758095Y-43918190D01*
X160710476Y-43870571D01*
X160615238Y-43822952D01*
X99825904Y-44394380D02*
X99825904Y-43394380D01*
X100064000Y-43394380D01*
X100206857Y-43442000D01*
X100302095Y-43537238D01*
X100349714Y-43632476D01*
X100397333Y-43822952D01*
X100397333Y-43965809D01*
X100349714Y-44156285D01*
X100302095Y-44251523D01*
X100206857Y-44346761D01*
X100064000Y-44394380D01*
X99825904Y-44394380D01*
X100730666Y-43394380D02*
X101349714Y-43394380D01*
X101016380Y-43775333D01*
X101159238Y-43775333D01*
X101254476Y-43822952D01*
X101302095Y-43870571D01*
X101349714Y-43965809D01*
X101349714Y-44203904D01*
X101302095Y-44299142D01*
X101254476Y-44346761D01*
X101159238Y-44394380D01*
X100873523Y-44394380D01*
X100778285Y-44346761D01*
X100730666Y-44299142D01*
X139469904Y-44394380D02*
X139469904Y-43394380D01*
X139708000Y-43394380D01*
X139850857Y-43442000D01*
X139946095Y-43537238D01*
X139993714Y-43632476D01*
X140041333Y-43822952D01*
X140041333Y-43965809D01*
X139993714Y-44156285D01*
X139946095Y-44251523D01*
X139850857Y-44346761D01*
X139708000Y-44394380D01*
X139469904Y-44394380D01*
X140422285Y-43489619D02*
X140469904Y-43442000D01*
X140565142Y-43394380D01*
X140803238Y-43394380D01*
X140898476Y-43442000D01*
X140946095Y-43489619D01*
X140993714Y-43584857D01*
X140993714Y-43680095D01*
X140946095Y-43822952D01*
X140374666Y-44394380D01*
X140993714Y-44394380D01*
X152657904Y-44394380D02*
X152657904Y-43394380D01*
X152896000Y-43394380D01*
X153038857Y-43442000D01*
X153134095Y-43537238D01*
X153181714Y-43632476D01*
X153229333Y-43822952D01*
X153229333Y-43965809D01*
X153181714Y-44156285D01*
X153134095Y-44251523D01*
X153038857Y-44346761D01*
X152896000Y-44394380D01*
X152657904Y-44394380D01*
X154086476Y-43394380D02*
X153896000Y-43394380D01*
X153800761Y-43442000D01*
X153753142Y-43489619D01*
X153657904Y-43632476D01*
X153610285Y-43822952D01*
X153610285Y-44203904D01*
X153657904Y-44299142D01*
X153705523Y-44346761D01*
X153800761Y-44394380D01*
X153991238Y-44394380D01*
X154086476Y-44346761D01*
X154134095Y-44299142D01*
X154181714Y-44203904D01*
X154181714Y-43965809D01*
X154134095Y-43870571D01*
X154086476Y-43822952D01*
X153991238Y-43775333D01*
X153800761Y-43775333D01*
X153705523Y-43822952D01*
X153657904Y-43870571D01*
X153610285Y-43965809D01*
X139025333Y-79595142D02*
X138977714Y-79642761D01*
X138834857Y-79690380D01*
X138739619Y-79690380D01*
X138596761Y-79642761D01*
X138501523Y-79547523D01*
X138453904Y-79452285D01*
X138406285Y-79261809D01*
X138406285Y-79118952D01*
X138453904Y-78928476D01*
X138501523Y-78833238D01*
X138596761Y-78738000D01*
X138739619Y-78690380D01*
X138834857Y-78690380D01*
X138977714Y-78738000D01*
X139025333Y-78785619D01*
X139882476Y-79023714D02*
X139882476Y-79690380D01*
X139644380Y-78642761D02*
X139406285Y-79357047D01*
X140025333Y-79357047D01*
X156678380Y-65978095D02*
X157487904Y-65978095D01*
X157583142Y-65930476D01*
X157630761Y-65882857D01*
X157678380Y-65787619D01*
X157678380Y-65597142D01*
X157630761Y-65501904D01*
X157583142Y-65454285D01*
X157487904Y-65406666D01*
X156678380Y-65406666D01*
X157678380Y-64406666D02*
X157678380Y-64978095D01*
X157678380Y-64692380D02*
X156678380Y-64692380D01*
X156821238Y-64787619D01*
X156916476Y-64882857D01*
X156964095Y-64978095D01*
X156678380Y-63787619D02*
X156678380Y-63692380D01*
X156726000Y-63597142D01*
X156773619Y-63549523D01*
X156868857Y-63501904D01*
X157059333Y-63454285D01*
X157297428Y-63454285D01*
X157487904Y-63501904D01*
X157583142Y-63549523D01*
X157630761Y-63597142D01*
X157678380Y-63692380D01*
X157678380Y-63787619D01*
X157630761Y-63882857D01*
X157583142Y-63930476D01*
X157487904Y-63978095D01*
X157297428Y-64025714D01*
X157059333Y-64025714D01*
X156868857Y-63978095D01*
X156773619Y-63930476D01*
X156726000Y-63882857D01*
X156678380Y-63787619D01*
X172013714Y-44394380D02*
X172013714Y-43394380D01*
X172251809Y-43394380D01*
X172394666Y-43442000D01*
X172489904Y-43537238D01*
X172537523Y-43632476D01*
X172585142Y-43822952D01*
X172585142Y-43965809D01*
X172537523Y-44156285D01*
X172489904Y-44251523D01*
X172394666Y-44346761D01*
X172251809Y-44394380D01*
X172013714Y-44394380D01*
X173537523Y-44394380D02*
X172966095Y-44394380D01*
X173251809Y-44394380D02*
X173251809Y-43394380D01*
X173156571Y-43537238D01*
X173061333Y-43632476D01*
X172966095Y-43680095D01*
X173918476Y-43489619D02*
X173966095Y-43442000D01*
X174061333Y-43394380D01*
X174299428Y-43394380D01*
X174394666Y-43442000D01*
X174442285Y-43489619D01*
X174489904Y-43584857D01*
X174489904Y-43680095D01*
X174442285Y-43822952D01*
X173870857Y-44394380D01*
X174489904Y-44394380D01*
X146053904Y-44394380D02*
X146053904Y-43394380D01*
X146292000Y-43394380D01*
X146434857Y-43442000D01*
X146530095Y-43537238D01*
X146577714Y-43632476D01*
X146625333Y-43822952D01*
X146625333Y-43965809D01*
X146577714Y-44156285D01*
X146530095Y-44251523D01*
X146434857Y-44346761D01*
X146292000Y-44394380D01*
X146053904Y-44394380D01*
X147482476Y-43727714D02*
X147482476Y-44394380D01*
X147244380Y-43346761D02*
X147006285Y-44061047D01*
X147625333Y-44061047D01*
X159853333Y-52268380D02*
X159520000Y-51792190D01*
X159281904Y-52268380D02*
X159281904Y-51268380D01*
X159662857Y-51268380D01*
X159758095Y-51316000D01*
X159805714Y-51363619D01*
X159853333Y-51458857D01*
X159853333Y-51601714D01*
X159805714Y-51696952D01*
X159758095Y-51744571D01*
X159662857Y-51792190D01*
X159281904Y-51792190D01*
X160424761Y-51696952D02*
X160329523Y-51649333D01*
X160281904Y-51601714D01*
X160234285Y-51506476D01*
X160234285Y-51458857D01*
X160281904Y-51363619D01*
X160329523Y-51316000D01*
X160424761Y-51268380D01*
X160615238Y-51268380D01*
X160710476Y-51316000D01*
X160758095Y-51363619D01*
X160805714Y-51458857D01*
X160805714Y-51506476D01*
X160758095Y-51601714D01*
X160710476Y-51649333D01*
X160615238Y-51696952D01*
X160424761Y-51696952D01*
X160329523Y-51744571D01*
X160281904Y-51792190D01*
X160234285Y-51887428D01*
X160234285Y-52077904D01*
X160281904Y-52173142D01*
X160329523Y-52220761D01*
X160424761Y-52268380D01*
X160615238Y-52268380D01*
X160710476Y-52220761D01*
X160758095Y-52173142D01*
X160805714Y-52077904D01*
X160805714Y-51887428D01*
X160758095Y-51792190D01*
X160710476Y-51744571D01*
X160615238Y-51696952D01*
X132961142Y-52268380D02*
X132627809Y-51792190D01*
X132389714Y-52268380D02*
X132389714Y-51268380D01*
X132770666Y-51268380D01*
X132865904Y-51316000D01*
X132913523Y-51363619D01*
X132961142Y-51458857D01*
X132961142Y-51601714D01*
X132913523Y-51696952D01*
X132865904Y-51744571D01*
X132770666Y-51792190D01*
X132389714Y-51792190D01*
X133913523Y-52268380D02*
X133342095Y-52268380D01*
X133627809Y-52268380D02*
X133627809Y-51268380D01*
X133532571Y-51411238D01*
X133437333Y-51506476D01*
X133342095Y-51554095D01*
X134246857Y-51268380D02*
X134865904Y-51268380D01*
X134532571Y-51649333D01*
X134675428Y-51649333D01*
X134770666Y-51696952D01*
X134818285Y-51744571D01*
X134865904Y-51839809D01*
X134865904Y-52077904D01*
X134818285Y-52173142D01*
X134770666Y-52220761D01*
X134675428Y-52268380D01*
X134389714Y-52268380D01*
X134294476Y-52220761D01*
X134246857Y-52173142D01*
X165981142Y-55570380D02*
X165647809Y-55094190D01*
X165409714Y-55570380D02*
X165409714Y-54570380D01*
X165790666Y-54570380D01*
X165885904Y-54618000D01*
X165933523Y-54665619D01*
X165981142Y-54760857D01*
X165981142Y-54903714D01*
X165933523Y-54998952D01*
X165885904Y-55046571D01*
X165790666Y-55094190D01*
X165409714Y-55094190D01*
X166933523Y-55570380D02*
X166362095Y-55570380D01*
X166647809Y-55570380D02*
X166647809Y-54570380D01*
X166552571Y-54713238D01*
X166457333Y-54808476D01*
X166362095Y-54856095D01*
X167552571Y-54570380D02*
X167647809Y-54570380D01*
X167743047Y-54618000D01*
X167790666Y-54665619D01*
X167838285Y-54760857D01*
X167885904Y-54951333D01*
X167885904Y-55189428D01*
X167838285Y-55379904D01*
X167790666Y-55475142D01*
X167743047Y-55522761D01*
X167647809Y-55570380D01*
X167552571Y-55570380D01*
X167457333Y-55522761D01*
X167409714Y-55475142D01*
X167362095Y-55379904D01*
X167314476Y-55189428D01*
X167314476Y-54951333D01*
X167362095Y-54760857D01*
X167409714Y-54665619D01*
X167457333Y-54618000D01*
X167552571Y-54570380D01*
X125765714Y-44394380D02*
X125765714Y-43394380D01*
X126003809Y-43394380D01*
X126146666Y-43442000D01*
X126241904Y-43537238D01*
X126289523Y-43632476D01*
X126337142Y-43822952D01*
X126337142Y-43965809D01*
X126289523Y-44156285D01*
X126241904Y-44251523D01*
X126146666Y-44346761D01*
X126003809Y-44394380D01*
X125765714Y-44394380D01*
X127289523Y-44394380D02*
X126718095Y-44394380D01*
X127003809Y-44394380D02*
X127003809Y-43394380D01*
X126908571Y-43537238D01*
X126813333Y-43632476D01*
X126718095Y-43680095D01*
X128241904Y-44394380D02*
X127670476Y-44394380D01*
X127956190Y-44394380D02*
X127956190Y-43394380D01*
X127860952Y-43537238D01*
X127765714Y-43632476D01*
X127670476Y-43680095D01*
X90892380Y-93451904D02*
X91701904Y-93451904D01*
X91797142Y-93404285D01*
X91844761Y-93356666D01*
X91892380Y-93261428D01*
X91892380Y-93070952D01*
X91844761Y-92975714D01*
X91797142Y-92928095D01*
X91701904Y-92880476D01*
X90892380Y-92880476D01*
X90892380Y-91975714D02*
X90892380Y-92166190D01*
X90940000Y-92261428D01*
X90987619Y-92309047D01*
X91130476Y-92404285D01*
X91320952Y-92451904D01*
X91701904Y-92451904D01*
X91797142Y-92404285D01*
X91844761Y-92356666D01*
X91892380Y-92261428D01*
X91892380Y-92070952D01*
X91844761Y-91975714D01*
X91797142Y-91928095D01*
X91701904Y-91880476D01*
X91463809Y-91880476D01*
X91368571Y-91928095D01*
X91320952Y-91975714D01*
X91273333Y-92070952D01*
X91273333Y-92261428D01*
X91320952Y-92356666D01*
X91368571Y-92404285D01*
X91463809Y-92451904D01*
X153249333Y-55570380D02*
X152916000Y-55094190D01*
X152677904Y-55570380D02*
X152677904Y-54570380D01*
X153058857Y-54570380D01*
X153154095Y-54618000D01*
X153201714Y-54665619D01*
X153249333Y-54760857D01*
X153249333Y-54903714D01*
X153201714Y-54998952D01*
X153154095Y-55046571D01*
X153058857Y-55094190D01*
X152677904Y-55094190D01*
X154106476Y-54570380D02*
X153916000Y-54570380D01*
X153820761Y-54618000D01*
X153773142Y-54665619D01*
X153677904Y-54808476D01*
X153630285Y-54998952D01*
X153630285Y-55379904D01*
X153677904Y-55475142D01*
X153725523Y-55522761D01*
X153820761Y-55570380D01*
X154011238Y-55570380D01*
X154106476Y-55522761D01*
X154154095Y-55475142D01*
X154201714Y-55379904D01*
X154201714Y-55141809D01*
X154154095Y-55046571D01*
X154106476Y-54998952D01*
X154011238Y-54951333D01*
X153820761Y-54951333D01*
X153725523Y-54998952D01*
X153677904Y-55046571D01*
X153630285Y-55141809D01*
X107021333Y-52268380D02*
X106688000Y-51792190D01*
X106449904Y-52268380D02*
X106449904Y-51268380D01*
X106830857Y-51268380D01*
X106926095Y-51316000D01*
X106973714Y-51363619D01*
X107021333Y-51458857D01*
X107021333Y-51601714D01*
X106973714Y-51696952D01*
X106926095Y-51744571D01*
X106830857Y-51792190D01*
X106449904Y-51792190D01*
X107926095Y-51268380D02*
X107449904Y-51268380D01*
X107402285Y-51744571D01*
X107449904Y-51696952D01*
X107545142Y-51649333D01*
X107783238Y-51649333D01*
X107878476Y-51696952D01*
X107926095Y-51744571D01*
X107973714Y-51839809D01*
X107973714Y-52077904D01*
X107926095Y-52173142D01*
X107878476Y-52220761D01*
X107783238Y-52268380D01*
X107545142Y-52268380D01*
X107449904Y-52220761D01*
X107402285Y-52173142D01*
X153519142Y-68218666D02*
X153566761Y-68266285D01*
X153614380Y-68409142D01*
X153614380Y-68504380D01*
X153566761Y-68647238D01*
X153471523Y-68742476D01*
X153376285Y-68790095D01*
X153185809Y-68837714D01*
X153042952Y-68837714D01*
X152852476Y-68790095D01*
X152757238Y-68742476D01*
X152662000Y-68647238D01*
X152614380Y-68504380D01*
X152614380Y-68409142D01*
X152662000Y-68266285D01*
X152709619Y-68218666D01*
X152614380Y-67885333D02*
X152614380Y-67218666D01*
X153614380Y-67647238D01*
X126357142Y-55570380D02*
X126023809Y-55094190D01*
X125785714Y-55570380D02*
X125785714Y-54570380D01*
X126166666Y-54570380D01*
X126261904Y-54618000D01*
X126309523Y-54665619D01*
X126357142Y-54760857D01*
X126357142Y-54903714D01*
X126309523Y-54998952D01*
X126261904Y-55046571D01*
X126166666Y-55094190D01*
X125785714Y-55094190D01*
X127309523Y-55570380D02*
X126738095Y-55570380D01*
X127023809Y-55570380D02*
X127023809Y-54570380D01*
X126928571Y-54713238D01*
X126833333Y-54808476D01*
X126738095Y-54856095D01*
X128261904Y-55570380D02*
X127690476Y-55570380D01*
X127976190Y-55570380D02*
X127976190Y-54570380D01*
X127880952Y-54713238D01*
X127785714Y-54808476D01*
X127690476Y-54856095D01*
X140041333Y-55570380D02*
X139708000Y-55094190D01*
X139469904Y-55570380D02*
X139469904Y-54570380D01*
X139850857Y-54570380D01*
X139946095Y-54618000D01*
X139993714Y-54665619D01*
X140041333Y-54760857D01*
X140041333Y-54903714D01*
X139993714Y-54998952D01*
X139946095Y-55046571D01*
X139850857Y-55094190D01*
X139469904Y-55094190D01*
X140422285Y-54665619D02*
X140469904Y-54618000D01*
X140565142Y-54570380D01*
X140803238Y-54570380D01*
X140898476Y-54618000D01*
X140946095Y-54665619D01*
X140993714Y-54760857D01*
X140993714Y-54856095D01*
X140946095Y-54998952D01*
X140374666Y-55570380D01*
X140993714Y-55570380D01*
X149042380Y-117784476D02*
X148566190Y-118117809D01*
X149042380Y-118355904D02*
X148042380Y-118355904D01*
X148042380Y-117974952D01*
X148090000Y-117879714D01*
X148137619Y-117832095D01*
X148232857Y-117784476D01*
X148375714Y-117784476D01*
X148470952Y-117832095D01*
X148518571Y-117879714D01*
X148566190Y-117974952D01*
X148566190Y-118355904D01*
X149042380Y-117355904D02*
X148042380Y-117355904D01*
X149042380Y-116784476D01*
X148042380Y-116784476D01*
X149042380Y-115784476D02*
X149042380Y-116355904D01*
X149042380Y-116070190D02*
X148042380Y-116070190D01*
X148185238Y-116165428D01*
X148280476Y-116260666D01*
X148328095Y-116355904D01*
D11*
X143542000Y-53186000D02*
X150082000Y-53186000D01*
X150082000Y-50446000D02*
X143542000Y-50446000D01*
X150082000Y-53186000D02*
X150082000Y-50446000D01*
X150852000Y-51816000D02*
X150082000Y-51816000D01*
X142772000Y-51816000D02*
X143542000Y-51816000D01*
X143542000Y-50446000D02*
X143542000Y-53186000D01*
X140019000Y-110385000D02*
X89099000Y-110385000D01*
X140019000Y-123305000D02*
X140019000Y-110385000D01*
X89099000Y-117845000D02*
X89099000Y-123305000D01*
X140079000Y-125795000D02*
X140079000Y-107895000D01*
X140079000Y-107895000D02*
X89039000Y-107895000D01*
X89099000Y-123305000D02*
X140019000Y-123305000D01*
X89039000Y-107895000D02*
X89039000Y-125795000D01*
X89099000Y-110385000D02*
X89099000Y-115845000D01*
X89039000Y-125795000D02*
X140079000Y-125795000D01*
X89099000Y-117845000D02*
G75*
G03*
X89099000Y-115845000I0J1000000D01*
G01*
X88296000Y-67951000D02*
X88296000Y-69209000D01*
X86456000Y-67951000D02*
X86456000Y-69209000D01*
X104624000Y-55118000D02*
X103854000Y-55118000D01*
X97314000Y-53748000D02*
X97314000Y-56488000D01*
X103854000Y-53748000D02*
X97314000Y-53748000D01*
X97314000Y-56488000D02*
X103854000Y-56488000D01*
X96544000Y-55118000D02*
X97314000Y-55118000D01*
X103854000Y-56488000D02*
X103854000Y-53748000D01*
X152242000Y-78091000D02*
X152242000Y-79349000D01*
X154082000Y-78091000D02*
X154082000Y-79349000D01*
X86456000Y-117469000D02*
X86456000Y-116211000D01*
X88296000Y-117469000D02*
X88296000Y-116211000D01*
X112212000Y-45199000D02*
X112212000Y-46319000D01*
X115042000Y-46319000D02*
X115042000Y-46319000D01*
X112502000Y-46449000D02*
X112502000Y-46449000D01*
X112212000Y-46319000D02*
X112212000Y-42459000D01*
X112502000Y-46319000D02*
X112502000Y-46319000D01*
X111812000Y-45199000D02*
X112212000Y-45199000D01*
X112212000Y-46319000D02*
X111812000Y-46319000D01*
X111812000Y-46319000D02*
X111812000Y-45199000D01*
X115042000Y-46449000D02*
X115042000Y-46319000D01*
X115332000Y-46319000D02*
X112212000Y-46319000D01*
X115042000Y-46449000D02*
X115042000Y-46449000D01*
X112502000Y-46319000D02*
X112502000Y-46449000D01*
X112502000Y-46449000D02*
X112502000Y-46319000D01*
X115332000Y-46319000D02*
X115332000Y-42459000D01*
X115042000Y-46319000D02*
X115042000Y-46449000D01*
X115332000Y-42459000D02*
G75*
G03*
X112212000Y-42459000I-1560000J0D01*
G01*
X123666000Y-50446000D02*
X117126000Y-50446000D01*
X117126000Y-50446000D02*
X117126000Y-53186000D01*
X123666000Y-53186000D02*
X123666000Y-50446000D01*
X116356000Y-51816000D02*
X117126000Y-51816000D01*
X124436000Y-51816000D02*
X123666000Y-51816000D01*
X117126000Y-53186000D02*
X123666000Y-53186000D01*
X143123000Y-82962000D02*
X141865000Y-82962000D01*
X143123000Y-81122000D02*
X141865000Y-81122000D01*
X154880000Y-81360000D02*
X180400000Y-81360000D01*
X154880000Y-76060000D02*
X154880000Y-77710000D01*
X154820000Y-83850000D02*
X180460000Y-83850000D01*
X154820000Y-73570000D02*
X154820000Y-83850000D01*
X180400000Y-76060000D02*
X154880000Y-76060000D01*
X180400000Y-81360000D02*
X180400000Y-76060000D01*
X180460000Y-83850000D02*
X180460000Y-73570000D01*
X154880000Y-79710000D02*
X154880000Y-81360000D01*
X180460000Y-73570000D02*
X154820000Y-73570000D01*
X154880000Y-79710000D02*
G75*
G03*
X154880000Y-77710000I0J1000000D01*
G01*
X164644000Y-45199000D02*
X165044000Y-45199000D01*
X165334000Y-46449000D02*
X165334000Y-46449000D01*
X165044000Y-46319000D02*
X165044000Y-42459000D01*
X165334000Y-46449000D02*
X165334000Y-46319000D01*
X167874000Y-46319000D02*
X167874000Y-46449000D01*
X165044000Y-46319000D02*
X164644000Y-46319000D01*
X167874000Y-46449000D02*
X167874000Y-46449000D01*
X165044000Y-45199000D02*
X165044000Y-46319000D01*
X168164000Y-46319000D02*
X168164000Y-42459000D01*
X167874000Y-46319000D02*
X167874000Y-46319000D01*
X164644000Y-46319000D02*
X164644000Y-45199000D01*
X167874000Y-46449000D02*
X167874000Y-46319000D01*
X165334000Y-46319000D02*
X165334000Y-46449000D01*
X165334000Y-46319000D02*
X165334000Y-46319000D01*
X168164000Y-46319000D02*
X165044000Y-46319000D01*
X168164000Y-42459000D02*
G75*
G03*
X165044000Y-42459000I-1560000J0D01*
G01*
X180460000Y-97850000D02*
X180460000Y-87570000D01*
X162500000Y-93710000D02*
X162500000Y-95360000D01*
X162500000Y-95360000D02*
X180400000Y-95360000D01*
X162500000Y-90060000D02*
X162500000Y-91710000D01*
X180460000Y-87570000D02*
X162440000Y-87570000D01*
X162440000Y-87570000D02*
X162440000Y-97850000D01*
X162440000Y-97850000D02*
X180460000Y-97850000D01*
X180400000Y-95360000D02*
X180400000Y-90060000D01*
X180400000Y-90060000D02*
X162500000Y-90060000D01*
X162500000Y-93710000D02*
G75*
G03*
X162500000Y-91710000I0J1000000D01*
G01*
X161707000Y-92091000D02*
X161707000Y-93349000D01*
X159867000Y-92091000D02*
X159867000Y-93349000D01*
X147644000Y-101715000D02*
X147644000Y-83695000D01*
X137364000Y-101715000D02*
X147644000Y-101715000D01*
X141504000Y-83755000D02*
X139854000Y-83755000D01*
X139854000Y-101655000D02*
X145154000Y-101655000D01*
X139854000Y-83755000D02*
X139854000Y-101655000D01*
X137364000Y-83695000D02*
X137364000Y-101715000D01*
X145154000Y-83755000D02*
X143504000Y-83755000D01*
X147644000Y-83695000D02*
X137364000Y-83695000D01*
X145154000Y-101655000D02*
X145154000Y-83755000D01*
X141504000Y-83755000D02*
G75*
G03*
X143504000Y-83755000I1000000J0D01*
G01*
X89034000Y-77535000D02*
X129914000Y-77535000D01*
X129914000Y-59635000D02*
X89034000Y-59635000D01*
X89094000Y-62125000D02*
X89094000Y-67585000D01*
X89094000Y-69585000D02*
X89094000Y-75045000D01*
X129854000Y-75045000D02*
X129854000Y-62125000D01*
X89094000Y-75045000D02*
X129854000Y-75045000D01*
X129914000Y-77535000D02*
X129914000Y-59635000D01*
X89034000Y-59635000D02*
X89034000Y-77535000D01*
X129854000Y-62125000D02*
X89094000Y-62125000D01*
X89094000Y-69585000D02*
G75*
G03*
X89094000Y-67585000I0J1000000D01*
G01*
X86456000Y-92061000D02*
X86456000Y-93319000D01*
X88296000Y-92061000D02*
X88296000Y-93319000D01*
X180400000Y-109360000D02*
X180400000Y-104060000D01*
X159960000Y-107710000D02*
X159960000Y-109360000D01*
X180460000Y-101570000D02*
X159900000Y-101570000D01*
X159900000Y-111850000D02*
X180460000Y-111850000D01*
X159960000Y-109360000D02*
X180400000Y-109360000D01*
X180460000Y-111850000D02*
X180460000Y-101570000D01*
X180400000Y-104060000D02*
X159960000Y-104060000D01*
X159960000Y-104060000D02*
X159960000Y-105710000D01*
X159900000Y-101570000D02*
X159900000Y-111850000D01*
X159960000Y-107710000D02*
G75*
G03*
X159960000Y-105710000I0J1000000D01*
G01*
X95230000Y-46449000D02*
X95230000Y-46319000D01*
X92400000Y-46319000D02*
X92400000Y-42459000D01*
X92690000Y-46319000D02*
X92690000Y-46319000D01*
X92400000Y-46319000D02*
X92000000Y-46319000D01*
X92400000Y-45199000D02*
X92400000Y-46319000D01*
X95230000Y-46319000D02*
X95230000Y-46319000D01*
X92000000Y-46319000D02*
X92000000Y-45199000D01*
X92690000Y-46449000D02*
X92690000Y-46449000D01*
X92690000Y-46449000D02*
X92690000Y-46319000D01*
X92690000Y-46319000D02*
X92690000Y-46449000D01*
X92000000Y-45199000D02*
X92400000Y-45199000D01*
X95230000Y-46319000D02*
X95230000Y-46449000D01*
X95520000Y-46319000D02*
X92400000Y-46319000D01*
X95520000Y-46319000D02*
X95520000Y-42459000D01*
X95230000Y-46449000D02*
X95230000Y-46449000D01*
X95520000Y-42459000D02*
G75*
G03*
X92400000Y-42459000I-1560000J0D01*
G01*
X139854000Y-77525000D02*
X145154000Y-77525000D01*
X145154000Y-77525000D02*
X145154000Y-59625000D01*
X137364000Y-77585000D02*
X147644000Y-77585000D01*
X147644000Y-59565000D02*
X137364000Y-59565000D01*
X141504000Y-59625000D02*
X139854000Y-59625000D01*
X137364000Y-59565000D02*
X137364000Y-77585000D01*
X145154000Y-59625000D02*
X143504000Y-59625000D01*
X147644000Y-77585000D02*
X147644000Y-59565000D01*
X139854000Y-59625000D02*
X139854000Y-77525000D01*
X141504000Y-59625000D02*
G75*
G03*
X143504000Y-59625000I1000000J0D01*
G01*
X157332000Y-120031000D02*
X157332000Y-121289000D01*
X159172000Y-120031000D02*
X159172000Y-121289000D01*
X108728000Y-46319000D02*
X108728000Y-42459000D01*
X105608000Y-46319000D02*
X105208000Y-46319000D01*
X108438000Y-46319000D02*
X108438000Y-46449000D01*
X105208000Y-45199000D02*
X105608000Y-45199000D01*
X108438000Y-46319000D02*
X108438000Y-46319000D01*
X105898000Y-46449000D02*
X105898000Y-46319000D01*
X105898000Y-46319000D02*
X105898000Y-46449000D01*
X108438000Y-46449000D02*
X108438000Y-46319000D01*
X105608000Y-46319000D02*
X105608000Y-42459000D01*
X105898000Y-46449000D02*
X105898000Y-46449000D01*
X108728000Y-46319000D02*
X105608000Y-46319000D01*
X105208000Y-46319000D02*
X105208000Y-45199000D01*
X108438000Y-46449000D02*
X108438000Y-46449000D01*
X105608000Y-45199000D02*
X105608000Y-46319000D01*
X105898000Y-46319000D02*
X105898000Y-46319000D01*
X108728000Y-42459000D02*
G75*
G03*
X105608000Y-42459000I-1560000J0D01*
G01*
X117062000Y-53748000D02*
X110522000Y-53748000D01*
X110522000Y-53748000D02*
X110522000Y-56488000D01*
X117832000Y-55118000D02*
X117062000Y-55118000D01*
X117062000Y-56488000D02*
X117062000Y-53748000D01*
X109752000Y-55118000D02*
X110522000Y-55118000D01*
X110522000Y-56488000D02*
X117062000Y-56488000D01*
X157332000Y-106091000D02*
X157332000Y-107349000D01*
X159172000Y-106091000D02*
X159172000Y-107349000D01*
X121646000Y-46449000D02*
X121646000Y-46319000D01*
X119106000Y-46449000D02*
X119106000Y-46449000D01*
X121646000Y-46319000D02*
X121646000Y-46449000D01*
X119106000Y-46319000D02*
X119106000Y-46449000D01*
X118416000Y-45199000D02*
X118816000Y-45199000D01*
X118416000Y-46319000D02*
X118416000Y-45199000D01*
X119106000Y-46319000D02*
X119106000Y-46319000D01*
X118816000Y-45199000D02*
X118816000Y-46319000D01*
X121936000Y-46319000D02*
X121936000Y-42459000D01*
X121646000Y-46449000D02*
X121646000Y-46449000D01*
X119106000Y-46449000D02*
X119106000Y-46319000D01*
X121936000Y-46319000D02*
X118816000Y-46319000D01*
X118816000Y-46319000D02*
X118416000Y-46319000D01*
X118816000Y-46319000D02*
X118816000Y-42459000D01*
X121646000Y-46319000D02*
X121646000Y-46319000D01*
X121936000Y-42459000D02*
G75*
G03*
X118816000Y-42459000I-1560000J0D01*
G01*
X169958000Y-53186000D02*
X176498000Y-53186000D01*
X169188000Y-51816000D02*
X169958000Y-51816000D01*
X176498000Y-50446000D02*
X169958000Y-50446000D01*
X169958000Y-50446000D02*
X169958000Y-53186000D01*
X177268000Y-51816000D02*
X176498000Y-51816000D01*
X176498000Y-53186000D02*
X176498000Y-50446000D01*
X132024000Y-46319000D02*
X131624000Y-46319000D01*
X135144000Y-46319000D02*
X132024000Y-46319000D01*
X134854000Y-46319000D02*
X134854000Y-46449000D01*
X134854000Y-46449000D02*
X134854000Y-46449000D01*
X132314000Y-46449000D02*
X132314000Y-46449000D01*
X132314000Y-46319000D02*
X132314000Y-46319000D01*
X132314000Y-46319000D02*
X132314000Y-46449000D01*
X132024000Y-46319000D02*
X132024000Y-42459000D01*
X134854000Y-46449000D02*
X134854000Y-46319000D01*
X132024000Y-45199000D02*
X132024000Y-46319000D01*
X135144000Y-46319000D02*
X135144000Y-42459000D01*
X131624000Y-46319000D02*
X131624000Y-45199000D01*
X132314000Y-46449000D02*
X132314000Y-46319000D01*
X134854000Y-46319000D02*
X134854000Y-46319000D01*
X131624000Y-45199000D02*
X132024000Y-45199000D01*
X135144000Y-42459000D02*
G75*
G03*
X132024000Y-42459000I-1560000J0D01*
G01*
X90710000Y-53186000D02*
X97250000Y-53186000D01*
X89940000Y-51816000D02*
X90710000Y-51816000D01*
X98020000Y-51816000D02*
X97250000Y-51816000D01*
X90710000Y-50446000D02*
X90710000Y-53186000D01*
X97250000Y-50446000D02*
X90710000Y-50446000D01*
X97250000Y-53186000D02*
X97250000Y-50446000D01*
X180400000Y-123300000D02*
X180400000Y-118000000D01*
X159960000Y-118000000D02*
X159960000Y-119650000D01*
X180460000Y-125790000D02*
X180460000Y-115510000D01*
X159900000Y-115510000D02*
X159900000Y-125790000D01*
X159960000Y-123300000D02*
X180400000Y-123300000D01*
X180460000Y-115510000D02*
X159900000Y-115510000D01*
X159960000Y-121650000D02*
X159960000Y-123300000D01*
X159900000Y-125790000D02*
X180460000Y-125790000D01*
X180400000Y-118000000D02*
X159960000Y-118000000D01*
X159960000Y-121650000D02*
G75*
G03*
X159960000Y-119650000I0J1000000D01*
G01*
X158440000Y-46319000D02*
X158440000Y-42459000D01*
X158730000Y-46319000D02*
X158730000Y-46449000D01*
X161560000Y-46319000D02*
X158440000Y-46319000D01*
X161270000Y-46319000D02*
X161270000Y-46319000D01*
X158040000Y-46319000D02*
X158040000Y-45199000D01*
X161270000Y-46449000D02*
X161270000Y-46449000D01*
X158440000Y-45199000D02*
X158440000Y-46319000D01*
X161270000Y-46449000D02*
X161270000Y-46319000D01*
X158730000Y-46319000D02*
X158730000Y-46319000D01*
X161270000Y-46319000D02*
X161270000Y-46449000D01*
X158040000Y-45199000D02*
X158440000Y-45199000D01*
X158730000Y-46449000D02*
X158730000Y-46449000D01*
X158730000Y-46449000D02*
X158730000Y-46319000D01*
X158440000Y-46319000D02*
X158040000Y-46319000D01*
X161560000Y-46319000D02*
X161560000Y-42459000D01*
X161560000Y-42459000D02*
G75*
G03*
X158440000Y-42459000I-1560000J0D01*
G01*
X99294000Y-46319000D02*
X99294000Y-46449000D01*
X101834000Y-46449000D02*
X101834000Y-46449000D01*
X99004000Y-46319000D02*
X99004000Y-42459000D01*
X101834000Y-46449000D02*
X101834000Y-46319000D01*
X102124000Y-46319000D02*
X102124000Y-42459000D01*
X98604000Y-46319000D02*
X98604000Y-45199000D01*
X102124000Y-46319000D02*
X99004000Y-46319000D01*
X99004000Y-45199000D02*
X99004000Y-46319000D01*
X99294000Y-46319000D02*
X99294000Y-46319000D01*
X101834000Y-46319000D02*
X101834000Y-46449000D01*
X101834000Y-46319000D02*
X101834000Y-46319000D01*
X99294000Y-46449000D02*
X99294000Y-46449000D01*
X98604000Y-45199000D02*
X99004000Y-45199000D01*
X99004000Y-46319000D02*
X98604000Y-46319000D01*
X99294000Y-46449000D02*
X99294000Y-46319000D01*
X102124000Y-42459000D02*
G75*
G03*
X99004000Y-42459000I-1560000J0D01*
G01*
X138628000Y-45199000D02*
X138628000Y-46319000D01*
X138628000Y-46319000D02*
X138628000Y-42459000D01*
X141748000Y-46319000D02*
X138628000Y-46319000D01*
X141458000Y-46319000D02*
X141458000Y-46449000D01*
X138918000Y-46319000D02*
X138918000Y-46319000D01*
X138918000Y-46449000D02*
X138918000Y-46449000D01*
X141458000Y-46319000D02*
X141458000Y-46319000D01*
X141458000Y-46449000D02*
X141458000Y-46449000D01*
X138918000Y-46319000D02*
X138918000Y-46449000D01*
X138628000Y-46319000D02*
X138228000Y-46319000D01*
X141748000Y-46319000D02*
X141748000Y-42459000D01*
X141458000Y-46449000D02*
X141458000Y-46319000D01*
X138918000Y-46449000D02*
X138918000Y-46319000D01*
X138228000Y-45199000D02*
X138628000Y-45199000D01*
X138228000Y-46319000D02*
X138228000Y-45199000D01*
X141748000Y-42459000D02*
G75*
G03*
X138628000Y-42459000I-1560000J0D01*
G01*
X151436000Y-45199000D02*
X151836000Y-45199000D01*
X154666000Y-46449000D02*
X154666000Y-46449000D01*
X151436000Y-46319000D02*
X151436000Y-45199000D01*
X151836000Y-46319000D02*
X151836000Y-42459000D01*
X152126000Y-46449000D02*
X152126000Y-46449000D01*
X154666000Y-46319000D02*
X154666000Y-46319000D01*
X152126000Y-46319000D02*
X152126000Y-46319000D01*
X154666000Y-46449000D02*
X154666000Y-46319000D01*
X151836000Y-46319000D02*
X151436000Y-46319000D01*
X152126000Y-46319000D02*
X152126000Y-46449000D01*
X154956000Y-46319000D02*
X151836000Y-46319000D01*
X152126000Y-46449000D02*
X152126000Y-46319000D01*
X154956000Y-46319000D02*
X154956000Y-42459000D01*
X154666000Y-46319000D02*
X154666000Y-46449000D01*
X151836000Y-45199000D02*
X151836000Y-46319000D01*
X154956000Y-42459000D02*
G75*
G03*
X151836000Y-42459000I-1560000J0D01*
G01*
X143123000Y-80168000D02*
X141865000Y-80168000D01*
X143123000Y-78328000D02*
X141865000Y-78328000D01*
X154885000Y-62090000D02*
X154885000Y-63740000D01*
X180405000Y-62090000D02*
X154885000Y-62090000D01*
X154825000Y-59600000D02*
X154825000Y-69880000D01*
X180465000Y-59600000D02*
X154825000Y-59600000D01*
X180465000Y-69880000D02*
X180465000Y-59600000D01*
X154885000Y-65740000D02*
X154885000Y-67390000D01*
X154885000Y-67390000D02*
X180405000Y-67390000D01*
X180405000Y-67390000D02*
X180405000Y-62090000D01*
X154825000Y-69880000D02*
X180465000Y-69880000D01*
X154885000Y-65740000D02*
G75*
G03*
X154885000Y-63740000I0J1000000D01*
G01*
X174768000Y-46319000D02*
X174768000Y-42459000D01*
X174478000Y-46319000D02*
X174478000Y-46449000D01*
X171938000Y-46319000D02*
X171938000Y-46319000D01*
X171248000Y-46319000D02*
X171248000Y-45199000D01*
X171938000Y-46319000D02*
X171938000Y-46449000D01*
X174478000Y-46449000D02*
X174478000Y-46449000D01*
X171938000Y-46449000D02*
X171938000Y-46319000D01*
X174478000Y-46319000D02*
X174478000Y-46319000D01*
X171648000Y-45199000D02*
X171648000Y-46319000D01*
X174768000Y-46319000D02*
X171648000Y-46319000D01*
X171248000Y-45199000D02*
X171648000Y-45199000D01*
X171648000Y-46319000D02*
X171248000Y-46319000D01*
X171938000Y-46449000D02*
X171938000Y-46449000D01*
X174478000Y-46449000D02*
X174478000Y-46319000D01*
X171648000Y-46319000D02*
X171648000Y-42459000D01*
X174768000Y-42459000D02*
G75*
G03*
X171648000Y-42459000I-1560000J0D01*
G01*
X145522000Y-46449000D02*
X145522000Y-46449000D01*
X148352000Y-46319000D02*
X145232000Y-46319000D01*
X145522000Y-46319000D02*
X145522000Y-46319000D01*
X148062000Y-46449000D02*
X148062000Y-46319000D01*
X145522000Y-46449000D02*
X145522000Y-46319000D01*
X145232000Y-46319000D02*
X144832000Y-46319000D01*
X145232000Y-45199000D02*
X145232000Y-46319000D01*
X148352000Y-46319000D02*
X148352000Y-42459000D01*
X148062000Y-46449000D02*
X148062000Y-46449000D01*
X144832000Y-45199000D02*
X145232000Y-45199000D01*
X148062000Y-46319000D02*
X148062000Y-46319000D01*
X144832000Y-46319000D02*
X144832000Y-45199000D01*
X145232000Y-46319000D02*
X145232000Y-42459000D01*
X145522000Y-46319000D02*
X145522000Y-46449000D01*
X148062000Y-46319000D02*
X148062000Y-46449000D01*
X148352000Y-42459000D02*
G75*
G03*
X145232000Y-42459000I-1560000J0D01*
G01*
X155980000Y-51816000D02*
X156750000Y-51816000D01*
X156750000Y-53186000D02*
X163290000Y-53186000D01*
X163290000Y-50446000D02*
X156750000Y-50446000D01*
X164060000Y-51816000D02*
X163290000Y-51816000D01*
X163290000Y-53186000D02*
X163290000Y-50446000D01*
X156750000Y-50446000D02*
X156750000Y-53186000D01*
X137644000Y-51816000D02*
X136874000Y-51816000D01*
X130334000Y-50446000D02*
X130334000Y-53186000D01*
X136874000Y-50446000D02*
X130334000Y-50446000D01*
X130334000Y-53186000D02*
X136874000Y-53186000D01*
X129564000Y-51816000D02*
X130334000Y-51816000D01*
X136874000Y-53186000D02*
X136874000Y-50446000D01*
X169894000Y-53748000D02*
X163354000Y-53748000D01*
X162584000Y-55118000D02*
X163354000Y-55118000D01*
X163354000Y-56488000D02*
X169894000Y-56488000D01*
X163354000Y-53748000D02*
X163354000Y-56488000D01*
X170664000Y-55118000D02*
X169894000Y-55118000D01*
X169894000Y-56488000D02*
X169894000Y-53748000D01*
X125710000Y-46319000D02*
X125710000Y-46319000D01*
X125710000Y-46449000D02*
X125710000Y-46319000D01*
X125020000Y-45199000D02*
X125420000Y-45199000D01*
X125710000Y-46449000D02*
X125710000Y-46449000D01*
X125420000Y-45199000D02*
X125420000Y-46319000D01*
X128540000Y-46319000D02*
X125420000Y-46319000D01*
X128250000Y-46319000D02*
X128250000Y-46449000D01*
X125420000Y-46319000D02*
X125420000Y-42459000D01*
X125420000Y-46319000D02*
X125020000Y-46319000D01*
X128250000Y-46449000D02*
X128250000Y-46449000D01*
X128250000Y-46319000D02*
X128250000Y-46319000D01*
X125020000Y-46319000D02*
X125020000Y-45199000D01*
X128250000Y-46449000D02*
X128250000Y-46319000D01*
X125710000Y-46319000D02*
X125710000Y-46449000D01*
X128540000Y-46319000D02*
X128540000Y-42459000D01*
X128540000Y-42459000D02*
G75*
G03*
X125420000Y-42459000I-1560000J0D01*
G01*
X89094000Y-93690000D02*
X89094000Y-99150000D01*
X89094000Y-86230000D02*
X89094000Y-91690000D01*
X89034000Y-101640000D02*
X129914000Y-101640000D01*
X129854000Y-86230000D02*
X89094000Y-86230000D01*
X129854000Y-99150000D02*
X129854000Y-86230000D01*
X89034000Y-83740000D02*
X89034000Y-101640000D01*
X129914000Y-101640000D02*
X129914000Y-83740000D01*
X89094000Y-99150000D02*
X129854000Y-99150000D01*
X129914000Y-83740000D02*
X89034000Y-83740000D01*
X89094000Y-93690000D02*
G75*
G03*
X89094000Y-91690000I0J1000000D01*
G01*
X150146000Y-53748000D02*
X150146000Y-56488000D01*
X157456000Y-55118000D02*
X156686000Y-55118000D01*
X149376000Y-55118000D02*
X150146000Y-55118000D01*
X156686000Y-53748000D02*
X150146000Y-53748000D01*
X150146000Y-56488000D02*
X156686000Y-56488000D01*
X156686000Y-56488000D02*
X156686000Y-53748000D01*
X110458000Y-50446000D02*
X103918000Y-50446000D01*
X103918000Y-53186000D02*
X110458000Y-53186000D01*
X110458000Y-53186000D02*
X110458000Y-50446000D01*
X111228000Y-51816000D02*
X110458000Y-51816000D01*
X103918000Y-50446000D02*
X103918000Y-53186000D01*
X103148000Y-51816000D02*
X103918000Y-51816000D01*
X154082000Y-64121000D02*
X154082000Y-65379000D01*
X152242000Y-64121000D02*
X152242000Y-65379000D01*
X131040000Y-55118000D02*
X130270000Y-55118000D01*
X130270000Y-53748000D02*
X123730000Y-53748000D01*
X123730000Y-56488000D02*
X130270000Y-56488000D01*
X122960000Y-55118000D02*
X123730000Y-55118000D01*
X123730000Y-53748000D02*
X123730000Y-56488000D01*
X130270000Y-56488000D02*
X130270000Y-53748000D01*
X136168000Y-55118000D02*
X136938000Y-55118000D01*
X136938000Y-56488000D02*
X143478000Y-56488000D01*
X143478000Y-53748000D02*
X136938000Y-53748000D01*
X144248000Y-55118000D02*
X143478000Y-55118000D01*
X143478000Y-56488000D02*
X143478000Y-53748000D01*
X136938000Y-53748000D02*
X136938000Y-56488000D01*
X147704000Y-113244000D02*
X144904000Y-113244000D01*
X147704000Y-123574000D02*
X147704000Y-110534000D01*
X144904000Y-110534000D02*
X144904000Y-123574000D01*
X147704000Y-110534000D02*
X144904000Y-110534000D01*
X144904000Y-123574000D02*
X147704000Y-123574000D01*
%LPC*%
D12*
X151892000Y-51816000D03*
D13*
X141732000Y-51816000D03*
D14*
X90429000Y-124465000D03*
D13*
X92969000Y-124465000D03*
X95509000Y-124465000D03*
X98049000Y-124465000D03*
X100589000Y-124465000D03*
X103129000Y-124465000D03*
X105669000Y-124465000D03*
X108209000Y-124465000D03*
X110749000Y-124465000D03*
X113289000Y-124465000D03*
X115829000Y-124465000D03*
X118369000Y-124465000D03*
X120909000Y-124465000D03*
X123449000Y-124465000D03*
X125989000Y-124465000D03*
X128529000Y-124465000D03*
X131069000Y-124465000D03*
X133609000Y-124465000D03*
X136149000Y-124465000D03*
X138689000Y-124465000D03*
X138689000Y-109225000D03*
X136149000Y-109225000D03*
X133609000Y-109225000D03*
X131069000Y-109225000D03*
X128529000Y-109225000D03*
X125989000Y-109225000D03*
X123449000Y-109225000D03*
X120909000Y-109225000D03*
X118369000Y-109225000D03*
X115829000Y-109225000D03*
X113289000Y-109225000D03*
X110749000Y-109225000D03*
X108209000Y-109225000D03*
X105669000Y-109225000D03*
X103129000Y-109225000D03*
X100589000Y-109225000D03*
X98049000Y-109225000D03*
X95509000Y-109225000D03*
X92969000Y-109225000D03*
X90429000Y-109225000D03*
D12*
X87376000Y-67330000D03*
X87376000Y-69830000D03*
X105664000Y-55118000D03*
D13*
X95504000Y-55118000D03*
D12*
X153162000Y-77470000D03*
X153162000Y-79970000D03*
X87376000Y-118090000D03*
X87376000Y-115590000D03*
D15*
X115042000Y-47529000D03*
D16*
X112502000Y-47529000D03*
D12*
X125476000Y-51816000D03*
D13*
X115316000Y-51816000D03*
D12*
X143744000Y-82042000D03*
X141244000Y-82042000D03*
D14*
X156210000Y-82520000D03*
D13*
X158750000Y-82520000D03*
X161290000Y-82520000D03*
X163830000Y-82520000D03*
X166370000Y-82520000D03*
X168910000Y-82520000D03*
X171450000Y-82520000D03*
X173990000Y-82520000D03*
X176530000Y-82520000D03*
X179070000Y-82520000D03*
X179070000Y-74900000D03*
X176530000Y-74900000D03*
X173990000Y-74900000D03*
X171450000Y-74900000D03*
X168910000Y-74900000D03*
X166370000Y-74900000D03*
X163830000Y-74900000D03*
X161290000Y-74900000D03*
X158750000Y-74900000D03*
X156210000Y-74900000D03*
D15*
X167874000Y-47529000D03*
D16*
X165334000Y-47529000D03*
D14*
X163830000Y-96520000D03*
D13*
X166370000Y-96520000D03*
X168910000Y-96520000D03*
X171450000Y-96520000D03*
X173990000Y-96520000D03*
X176530000Y-96520000D03*
X179070000Y-96520000D03*
X179070000Y-88900000D03*
X176530000Y-88900000D03*
X173990000Y-88900000D03*
X171450000Y-88900000D03*
X168910000Y-88900000D03*
X166370000Y-88900000D03*
X163830000Y-88900000D03*
D12*
X160787000Y-91470000D03*
X160787000Y-93970000D03*
D14*
X138694000Y-85085000D03*
D13*
X138694000Y-87625000D03*
X138694000Y-90165000D03*
X138694000Y-92705000D03*
X138694000Y-95245000D03*
X138694000Y-97785000D03*
X138694000Y-100325000D03*
X146314000Y-100325000D03*
X146314000Y-97785000D03*
X146314000Y-95245000D03*
X146314000Y-92705000D03*
X146314000Y-90165000D03*
X146314000Y-87625000D03*
X146314000Y-85085000D03*
D14*
X90424000Y-76205000D03*
D13*
X92964000Y-76205000D03*
X95504000Y-76205000D03*
X98044000Y-76205000D03*
X100584000Y-76205000D03*
X103124000Y-76205000D03*
X105664000Y-76205000D03*
X108204000Y-76205000D03*
X110744000Y-76205000D03*
X113284000Y-76205000D03*
X115824000Y-76205000D03*
X118364000Y-76205000D03*
X120904000Y-76205000D03*
X123444000Y-76205000D03*
X125984000Y-76205000D03*
X128524000Y-76205000D03*
X128524000Y-60965000D03*
X125984000Y-60965000D03*
X123444000Y-60965000D03*
X120904000Y-60965000D03*
X118364000Y-60965000D03*
X115824000Y-60965000D03*
X113284000Y-60965000D03*
X110744000Y-60965000D03*
X108204000Y-60965000D03*
X105664000Y-60965000D03*
X103124000Y-60965000D03*
X100584000Y-60965000D03*
X98044000Y-60965000D03*
X95504000Y-60965000D03*
X92964000Y-60965000D03*
X90424000Y-60965000D03*
D12*
X87376000Y-91440000D03*
X87376000Y-93940000D03*
D14*
X161290000Y-110520000D03*
D13*
X163830000Y-110520000D03*
X166370000Y-110520000D03*
X168910000Y-110520000D03*
X171450000Y-110520000D03*
X173990000Y-110520000D03*
X176530000Y-110520000D03*
X179070000Y-110520000D03*
X179070000Y-102900000D03*
X176530000Y-102900000D03*
X173990000Y-102900000D03*
X171450000Y-102900000D03*
X168910000Y-102900000D03*
X166370000Y-102900000D03*
X163830000Y-102900000D03*
X161290000Y-102900000D03*
D15*
X95230000Y-47529000D03*
D16*
X92690000Y-47529000D03*
D14*
X138694000Y-60955000D03*
D13*
X138694000Y-63495000D03*
X138694000Y-66035000D03*
X138694000Y-68575000D03*
X138694000Y-71115000D03*
X138694000Y-73655000D03*
X138694000Y-76195000D03*
X146314000Y-76195000D03*
X146314000Y-73655000D03*
X146314000Y-71115000D03*
X146314000Y-68575000D03*
X146314000Y-66035000D03*
X146314000Y-63495000D03*
X146314000Y-60955000D03*
D12*
X158252000Y-119410000D03*
X158252000Y-121910000D03*
D15*
X108438000Y-47529000D03*
D16*
X105898000Y-47529000D03*
D12*
X118872000Y-55118000D03*
D13*
X108712000Y-55118000D03*
D12*
X158252000Y-105470000D03*
X158252000Y-107970000D03*
D15*
X121646000Y-47529000D03*
D16*
X119106000Y-47529000D03*
D17*
X171704000Y-136612000D03*
X169164000Y-136612000D03*
X166624000Y-136612000D03*
X164084000Y-136612000D03*
X161544000Y-136612000D03*
X159004000Y-136612000D03*
X156464000Y-136612000D03*
X153924000Y-136612000D03*
X151384000Y-136612000D03*
X148844000Y-136612000D03*
X146304000Y-136612000D03*
X143764000Y-136612000D03*
X141224000Y-136612000D03*
X138684000Y-136612000D03*
X136144000Y-136612000D03*
X133604000Y-136612000D03*
X131064000Y-136612000D03*
X128524000Y-136612000D03*
X125984000Y-136612000D03*
X123444000Y-136612000D03*
X120904000Y-136612000D03*
X118364000Y-136612000D03*
X115824000Y-136612000D03*
X113284000Y-136612000D03*
X110744000Y-136612000D03*
X108204000Y-136612000D03*
X105664000Y-136612000D03*
X103124000Y-136612000D03*
X100584000Y-136612000D03*
X98044000Y-136612000D03*
X95504000Y-136612000D03*
D12*
X178308000Y-51816000D03*
D13*
X168148000Y-51816000D03*
D15*
X134854000Y-47529000D03*
D16*
X132314000Y-47529000D03*
D12*
X99060000Y-51816000D03*
D13*
X88900000Y-51816000D03*
D14*
X161290000Y-124460000D03*
D13*
X163830000Y-124460000D03*
X166370000Y-124460000D03*
X168910000Y-124460000D03*
X171450000Y-124460000D03*
X173990000Y-124460000D03*
X176530000Y-124460000D03*
X179070000Y-124460000D03*
X179070000Y-116840000D03*
X176530000Y-116840000D03*
X173990000Y-116840000D03*
X171450000Y-116840000D03*
X168910000Y-116840000D03*
X166370000Y-116840000D03*
X163830000Y-116840000D03*
X161290000Y-116840000D03*
D15*
X161270000Y-47529000D03*
D16*
X158730000Y-47529000D03*
D15*
X101834000Y-47529000D03*
D16*
X99294000Y-47529000D03*
D15*
X141458000Y-47529000D03*
D16*
X138918000Y-47529000D03*
D15*
X154666000Y-47529000D03*
D16*
X152126000Y-47529000D03*
D12*
X143744000Y-79248000D03*
X141244000Y-79248000D03*
D14*
X156215000Y-68550000D03*
D13*
X158755000Y-68550000D03*
X161295000Y-68550000D03*
X163835000Y-68550000D03*
X166375000Y-68550000D03*
X168915000Y-68550000D03*
X171455000Y-68550000D03*
X173995000Y-68550000D03*
X176535000Y-68550000D03*
X179075000Y-68550000D03*
X179075000Y-60930000D03*
X176535000Y-60930000D03*
X173995000Y-60930000D03*
X171455000Y-60930000D03*
X168915000Y-60930000D03*
X166375000Y-60930000D03*
X163835000Y-60930000D03*
X161295000Y-60930000D03*
X158755000Y-60930000D03*
X156215000Y-60930000D03*
D15*
X174478000Y-47529000D03*
D16*
X171938000Y-47529000D03*
D15*
X148062000Y-47529000D03*
D16*
X145522000Y-47529000D03*
D12*
X165100000Y-51816000D03*
D13*
X154940000Y-51816000D03*
D12*
X138684000Y-51816000D03*
D13*
X128524000Y-51816000D03*
D12*
X171704000Y-55118000D03*
D13*
X161544000Y-55118000D03*
D15*
X128250000Y-47529000D03*
D16*
X125710000Y-47529000D03*
D14*
X90424000Y-100310000D03*
D13*
X92964000Y-100310000D03*
X95504000Y-100310000D03*
X98044000Y-100310000D03*
X100584000Y-100310000D03*
X103124000Y-100310000D03*
X105664000Y-100310000D03*
X108204000Y-100310000D03*
X110744000Y-100310000D03*
X113284000Y-100310000D03*
X115824000Y-100310000D03*
X118364000Y-100310000D03*
X120904000Y-100310000D03*
X123444000Y-100310000D03*
X125984000Y-100310000D03*
X128524000Y-100310000D03*
X128524000Y-85070000D03*
X125984000Y-85070000D03*
X123444000Y-85070000D03*
X120904000Y-85070000D03*
X118364000Y-85070000D03*
X115824000Y-85070000D03*
X113284000Y-85070000D03*
X110744000Y-85070000D03*
X108204000Y-85070000D03*
X105664000Y-85070000D03*
X103124000Y-85070000D03*
X100584000Y-85070000D03*
X98044000Y-85070000D03*
X95504000Y-85070000D03*
X92964000Y-85070000D03*
X90424000Y-85070000D03*
D12*
X158496000Y-55118000D03*
D13*
X148336000Y-55118000D03*
D12*
X112268000Y-51816000D03*
D13*
X102108000Y-51816000D03*
D12*
X153162000Y-63500000D03*
X153162000Y-66000000D03*
X132080000Y-55118000D03*
D13*
X121920000Y-55118000D03*
D12*
X145288000Y-55118000D03*
D13*
X135128000Y-55118000D03*
D14*
X146304000Y-111974000D03*
D13*
X146304000Y-114514000D03*
X146304000Y-117054000D03*
X146304000Y-119594000D03*
X146304000Y-122134000D03*
M02*
