%TF.GenerationSoftware,KiCad,Pcbnew,(6.0.7)*%
%TF.CreationDate,2022-11-29T20:03:15-05:00*%
%TF.ProjectId,Part 4 - CPU and memory,50617274-2034-4202-9d20-43505520616e,1*%
%TF.SameCoordinates,Original*%
%TF.FileFunction,Drillmap*%
%TF.FilePolarity,Positive*%
%FSLAX45Y45*%
G04 Gerber Fmt 4.5, Leading zero omitted, Abs format (unit mm)*
G04 Created by KiCad (PCBNEW (6.0.7)) date 2022-11-29 20:03:15*
%MOMM*%
%LPD*%
G01*
G04 APERTURE LIST*
%ADD10C,0.200000*%
%ADD11C,0.040000*%
%ADD12C,0.080000*%
%ADD13C,0.090000*%
G04 APERTURE END LIST*
D10*
D11*
X9476390Y-13194760D02*
X9516390Y-13234760D01*
X9516390Y-13194760D02*
X9476390Y-13234760D01*
X10270460Y-10678290D02*
X10310460Y-10718290D01*
X10310460Y-10678290D02*
X10270460Y-10718290D01*
X10298200Y-11244970D02*
X10338200Y-11284970D01*
X10338200Y-11244970D02*
X10298200Y-11284970D01*
X10556590Y-11051530D02*
X10596590Y-11091530D01*
X10596590Y-11051530D02*
X10556590Y-11091530D01*
X10800900Y-12165950D02*
X10840900Y-12205950D01*
X10840900Y-12165950D02*
X10800900Y-12205950D01*
X10933880Y-9098770D02*
X10973880Y-9138770D01*
X10973880Y-9098770D02*
X10933880Y-9138770D01*
X11308400Y-9467930D02*
X11348400Y-9507930D01*
X11348400Y-9467930D02*
X11308400Y-9507930D01*
X11416390Y-9098770D02*
X11456390Y-9138770D01*
X11456390Y-9098770D02*
X11416390Y-9138770D01*
X11562400Y-11791000D02*
X11602400Y-11831000D01*
X11602400Y-11791000D02*
X11562400Y-11831000D01*
X11562400Y-13177970D02*
X11602400Y-13217970D01*
X11602400Y-13177970D02*
X11562400Y-13217970D01*
X11632100Y-9049870D02*
X11672100Y-9089870D01*
X11672100Y-9049870D02*
X11632100Y-9089870D01*
X11814400Y-11539000D02*
X11854400Y-11579000D01*
X11854400Y-11539000D02*
X11814400Y-11579000D01*
X12260764Y-12598964D02*
X12300764Y-12638964D01*
X12300764Y-12598964D02*
X12260764Y-12638964D01*
X12446330Y-12724890D02*
X12486330Y-12764890D01*
X12486330Y-12724890D02*
X12446330Y-12764890D01*
X12645200Y-12752320D02*
X12685200Y-12792320D01*
X12685200Y-12752320D02*
X12645200Y-12792320D01*
X12757230Y-12675000D02*
X12797230Y-12715000D01*
X12797230Y-12675000D02*
X12757230Y-12715000D01*
X12829460Y-9143930D02*
X12869460Y-9183930D01*
X12869460Y-9143930D02*
X12829460Y-9183930D01*
X12832400Y-6965000D02*
X12872400Y-7005000D01*
X12872400Y-6965000D02*
X12832400Y-7005000D01*
X12832400Y-9378000D02*
X12872400Y-9418000D01*
X12872400Y-9378000D02*
X12832400Y-9418000D01*
X12863130Y-10630860D02*
X12903130Y-10670860D01*
X12903130Y-10630860D02*
X12863130Y-10670860D01*
X13039650Y-12711300D02*
X13079650Y-12751300D01*
X13079650Y-12711300D02*
X13039650Y-12751300D01*
X13072070Y-10262790D02*
X13112070Y-10302790D01*
X13112070Y-10262790D02*
X13072070Y-10302790D01*
X13087380Y-11949220D02*
X13127380Y-11989220D01*
X13127380Y-11949220D02*
X13087380Y-11989220D01*
X13092750Y-10362830D02*
X13132750Y-10402830D01*
X13132750Y-10362830D02*
X13092750Y-10402830D01*
X13145350Y-9125830D02*
X13185350Y-9165830D01*
X13185350Y-9125830D02*
X13145350Y-9165830D01*
X13290670Y-11442060D02*
X13330670Y-11482060D01*
X13330670Y-11442060D02*
X13290670Y-11482060D01*
X13371970Y-13109820D02*
X13411970Y-13149820D01*
X13411970Y-13109820D02*
X13371970Y-13149820D01*
X13492800Y-8641400D02*
X13532800Y-8681400D01*
X13532800Y-8641400D02*
X13492800Y-8681400D01*
X13874200Y-12025900D02*
X13914200Y-12065900D01*
X13914200Y-12025900D02*
X13874200Y-12065900D01*
X13910380Y-11603970D02*
X13950380Y-11643970D01*
X13950380Y-11603970D02*
X13910380Y-11643970D01*
X13911280Y-11819210D02*
X13951280Y-11859210D01*
X13951280Y-11819210D02*
X13911280Y-11859210D01*
X13997900Y-13122090D02*
X14037900Y-13162090D01*
X14037900Y-13122090D02*
X13997900Y-13162090D01*
X14203570Y-11607620D02*
X14243570Y-11647620D01*
X14243570Y-11607620D02*
X14203570Y-11647620D01*
X14337530Y-10946260D02*
X14377530Y-10986260D01*
X14377530Y-10946260D02*
X14337530Y-10986260D01*
X14342550Y-12144260D02*
X14382550Y-12184260D01*
X14382550Y-12144260D02*
X14342550Y-12184260D01*
X14351530Y-11866780D02*
X14391530Y-11906780D01*
X14391530Y-11866780D02*
X14351530Y-11906780D01*
X14422210Y-12771470D02*
X14462210Y-12811470D01*
X14462210Y-12771470D02*
X14422210Y-12811470D01*
X14423310Y-11790760D02*
X14463310Y-11830760D01*
X14463310Y-11790760D02*
X14423310Y-11830760D01*
X14438260Y-13108000D02*
X14478260Y-13148000D01*
X14478260Y-13108000D02*
X14438260Y-13148000D01*
X14493700Y-10942960D02*
X14533700Y-10982960D01*
X14533700Y-10942960D02*
X14493700Y-10982960D01*
X14612050Y-13107470D02*
X14652050Y-13147470D01*
X14652050Y-13107470D02*
X14612050Y-13147470D01*
X14796490Y-12765490D02*
X14836490Y-12805490D01*
X14836490Y-12765490D02*
X14796490Y-12805490D01*
X14798823Y-13166494D02*
X14838823Y-13206494D01*
X14838823Y-13166494D02*
X14798823Y-13206494D01*
X14806810Y-12320710D02*
X14846810Y-12360710D01*
X14846810Y-12320710D02*
X14806810Y-12360710D01*
X14848690Y-11957400D02*
X14888690Y-11997400D01*
X14888690Y-11957400D02*
X14848690Y-11997400D01*
X14926760Y-11880350D02*
X14966760Y-11920350D01*
X14966760Y-11880350D02*
X14926760Y-11920350D01*
X14926800Y-9790670D02*
X14966800Y-9830670D01*
X14966800Y-9790670D02*
X14926800Y-9830670D01*
X14940760Y-11025640D02*
X14980760Y-11065640D01*
X14980760Y-11025640D02*
X14940760Y-11065640D01*
X14976560Y-13182710D02*
X15016560Y-13222710D01*
X15016560Y-13182710D02*
X14976560Y-13222710D01*
X14977230Y-10809230D02*
X15017230Y-10849230D01*
X15017230Y-10809230D02*
X14977230Y-10849230D01*
X15087100Y-12262300D02*
X15127100Y-12302300D01*
X15127100Y-12262300D02*
X15087100Y-12302300D01*
X15203690Y-9321860D02*
X15243690Y-9361860D01*
X15243690Y-9321860D02*
X15203690Y-9361860D01*
X15259600Y-13122570D02*
X15299600Y-13162570D01*
X15299600Y-13122570D02*
X15259600Y-13162570D01*
X15310470Y-10384930D02*
X15350470Y-10424930D01*
X15350470Y-10384930D02*
X15310470Y-10424930D01*
X15366280Y-13115180D02*
X15406280Y-13155180D01*
X15406280Y-13115180D02*
X15366280Y-13155180D01*
X15375780Y-10206440D02*
X15415780Y-10246440D01*
X15415780Y-10206440D02*
X15375780Y-10246440D01*
X15382370Y-10027150D02*
X15422370Y-10067150D01*
X15422370Y-10027150D02*
X15382370Y-10067150D01*
X15558650Y-12093950D02*
X15598650Y-12133950D01*
X15598650Y-12093950D02*
X15558650Y-12133950D01*
X15719220Y-7673440D02*
X15759220Y-7713440D01*
X15759220Y-7673440D02*
X15719220Y-7713440D01*
X15791270Y-11282210D02*
X15831270Y-11322210D01*
X15831270Y-11282210D02*
X15791270Y-11322210D01*
X15922180Y-11603990D02*
X15962180Y-11643990D01*
X15962180Y-11603990D02*
X15922180Y-11643990D01*
X16112240Y-7812510D02*
X16152240Y-7852510D01*
X16152240Y-7812510D02*
X16112240Y-7852510D01*
X16312180Y-13185890D02*
X16352180Y-13225890D01*
X16352180Y-13185890D02*
X16312180Y-13225890D01*
X16369810Y-13100190D02*
X16409810Y-13140190D01*
X16409810Y-13100190D02*
X16369810Y-13140190D01*
X16419780Y-7615190D02*
X16459780Y-7655190D01*
X16459780Y-7615190D02*
X16419780Y-7655190D01*
X16527530Y-10652000D02*
X16567530Y-10692000D01*
X16567530Y-10652000D02*
X16527530Y-10692000D01*
X16751520Y-13146310D02*
X16791520Y-13186310D01*
X16791520Y-13146310D02*
X16751520Y-13186310D01*
X16896400Y-13197020D02*
X16936400Y-13237020D01*
X16936400Y-13197020D02*
X16896400Y-13237020D01*
D12*
X8777600Y-6733000D02*
G75*
G03*
X8777600Y-6733000I-40000J0D01*
G01*
X8777600Y-6983000D02*
G75*
G03*
X8777600Y-6983000I-40000J0D01*
G01*
X8777600Y-9144000D02*
G75*
G03*
X8777600Y-9144000I-40000J0D01*
G01*
X8777600Y-9394000D02*
G75*
G03*
X8777600Y-9394000I-40000J0D01*
G01*
X8777600Y-11559000D02*
G75*
G03*
X8777600Y-11559000I-40000J0D01*
G01*
X8777600Y-11809000D02*
G75*
G03*
X8777600Y-11809000I-40000J0D01*
G01*
X8930000Y-5181600D02*
G75*
G03*
X8930000Y-5181600I-40000J0D01*
G01*
X9082400Y-6096500D02*
G75*
G03*
X9082400Y-6096500I-40000J0D01*
G01*
X9082400Y-7620500D02*
G75*
G03*
X9082400Y-7620500I-40000J0D01*
G01*
X9082400Y-8507000D02*
G75*
G03*
X9082400Y-8507000I-40000J0D01*
G01*
X9082400Y-10031000D02*
G75*
G03*
X9082400Y-10031000I-40000J0D01*
G01*
X9082900Y-10922500D02*
G75*
G03*
X9082900Y-10922500I-40000J0D01*
G01*
X9082900Y-12446500D02*
G75*
G03*
X9082900Y-12446500I-40000J0D01*
G01*
X9336400Y-6096500D02*
G75*
G03*
X9336400Y-6096500I-40000J0D01*
G01*
X9336400Y-7620500D02*
G75*
G03*
X9336400Y-7620500I-40000J0D01*
G01*
X9336400Y-8507000D02*
G75*
G03*
X9336400Y-8507000I-40000J0D01*
G01*
X9336400Y-10031000D02*
G75*
G03*
X9336400Y-10031000I-40000J0D01*
G01*
X9336900Y-10922500D02*
G75*
G03*
X9336900Y-10922500I-40000J0D01*
G01*
X9336900Y-12446500D02*
G75*
G03*
X9336900Y-12446500I-40000J0D01*
G01*
X9590400Y-5511800D02*
G75*
G03*
X9590400Y-5511800I-40000J0D01*
G01*
X9590400Y-6096500D02*
G75*
G03*
X9590400Y-6096500I-40000J0D01*
G01*
X9590400Y-7620500D02*
G75*
G03*
X9590400Y-7620500I-40000J0D01*
G01*
X9590400Y-8507000D02*
G75*
G03*
X9590400Y-8507000I-40000J0D01*
G01*
X9590400Y-10031000D02*
G75*
G03*
X9590400Y-10031000I-40000J0D01*
G01*
X9590900Y-10922500D02*
G75*
G03*
X9590900Y-10922500I-40000J0D01*
G01*
X9590900Y-12446500D02*
G75*
G03*
X9590900Y-12446500I-40000J0D01*
G01*
X9844400Y-6096500D02*
G75*
G03*
X9844400Y-6096500I-40000J0D01*
G01*
X9844400Y-7620500D02*
G75*
G03*
X9844400Y-7620500I-40000J0D01*
G01*
X9844400Y-8507000D02*
G75*
G03*
X9844400Y-8507000I-40000J0D01*
G01*
X9844400Y-10031000D02*
G75*
G03*
X9844400Y-10031000I-40000J0D01*
G01*
X9844900Y-10922500D02*
G75*
G03*
X9844900Y-10922500I-40000J0D01*
G01*
X9844900Y-12446500D02*
G75*
G03*
X9844900Y-12446500I-40000J0D01*
G01*
X9946000Y-5181600D02*
G75*
G03*
X9946000Y-5181600I-40000J0D01*
G01*
X10098400Y-6096500D02*
G75*
G03*
X10098400Y-6096500I-40000J0D01*
G01*
X10098400Y-7620500D02*
G75*
G03*
X10098400Y-7620500I-40000J0D01*
G01*
X10098400Y-8507000D02*
G75*
G03*
X10098400Y-8507000I-40000J0D01*
G01*
X10098400Y-10031000D02*
G75*
G03*
X10098400Y-10031000I-40000J0D01*
G01*
X10098900Y-10922500D02*
G75*
G03*
X10098900Y-10922500I-40000J0D01*
G01*
X10098900Y-12446500D02*
G75*
G03*
X10098900Y-12446500I-40000J0D01*
G01*
X10250800Y-5181600D02*
G75*
G03*
X10250800Y-5181600I-40000J0D01*
G01*
X10352400Y-6096500D02*
G75*
G03*
X10352400Y-6096500I-40000J0D01*
G01*
X10352400Y-7620500D02*
G75*
G03*
X10352400Y-7620500I-40000J0D01*
G01*
X10352400Y-8507000D02*
G75*
G03*
X10352400Y-8507000I-40000J0D01*
G01*
X10352400Y-10031000D02*
G75*
G03*
X10352400Y-10031000I-40000J0D01*
G01*
X10352900Y-10922500D02*
G75*
G03*
X10352900Y-10922500I-40000J0D01*
G01*
X10352900Y-12446500D02*
G75*
G03*
X10352900Y-12446500I-40000J0D01*
G01*
X10606400Y-5511800D02*
G75*
G03*
X10606400Y-5511800I-40000J0D01*
G01*
X10606400Y-6096500D02*
G75*
G03*
X10606400Y-6096500I-40000J0D01*
G01*
X10606400Y-7620500D02*
G75*
G03*
X10606400Y-7620500I-40000J0D01*
G01*
X10606400Y-8507000D02*
G75*
G03*
X10606400Y-8507000I-40000J0D01*
G01*
X10606400Y-10031000D02*
G75*
G03*
X10606400Y-10031000I-40000J0D01*
G01*
X10606900Y-10922500D02*
G75*
G03*
X10606900Y-10922500I-40000J0D01*
G01*
X10606900Y-12446500D02*
G75*
G03*
X10606900Y-12446500I-40000J0D01*
G01*
X10860400Y-6096500D02*
G75*
G03*
X10860400Y-6096500I-40000J0D01*
G01*
X10860400Y-7620500D02*
G75*
G03*
X10860400Y-7620500I-40000J0D01*
G01*
X10860400Y-8507000D02*
G75*
G03*
X10860400Y-8507000I-40000J0D01*
G01*
X10860400Y-10031000D02*
G75*
G03*
X10860400Y-10031000I-40000J0D01*
G01*
X10860900Y-10922500D02*
G75*
G03*
X10860900Y-10922500I-40000J0D01*
G01*
X10860900Y-12446500D02*
G75*
G03*
X10860900Y-12446500I-40000J0D01*
G01*
X10911200Y-5511800D02*
G75*
G03*
X10911200Y-5511800I-40000J0D01*
G01*
X11114400Y-6096500D02*
G75*
G03*
X11114400Y-6096500I-40000J0D01*
G01*
X11114400Y-7620500D02*
G75*
G03*
X11114400Y-7620500I-40000J0D01*
G01*
X11114400Y-8507000D02*
G75*
G03*
X11114400Y-8507000I-40000J0D01*
G01*
X11114400Y-10031000D02*
G75*
G03*
X11114400Y-10031000I-40000J0D01*
G01*
X11114900Y-10922500D02*
G75*
G03*
X11114900Y-10922500I-40000J0D01*
G01*
X11114900Y-12446500D02*
G75*
G03*
X11114900Y-12446500I-40000J0D01*
G01*
X11266800Y-5181600D02*
G75*
G03*
X11266800Y-5181600I-40000J0D01*
G01*
X11368400Y-6096500D02*
G75*
G03*
X11368400Y-6096500I-40000J0D01*
G01*
X11368400Y-7620500D02*
G75*
G03*
X11368400Y-7620500I-40000J0D01*
G01*
X11368400Y-8507000D02*
G75*
G03*
X11368400Y-8507000I-40000J0D01*
G01*
X11368400Y-10031000D02*
G75*
G03*
X11368400Y-10031000I-40000J0D01*
G01*
X11368900Y-10922500D02*
G75*
G03*
X11368900Y-10922500I-40000J0D01*
G01*
X11368900Y-12446500D02*
G75*
G03*
X11368900Y-12446500I-40000J0D01*
G01*
X11571600Y-5181600D02*
G75*
G03*
X11571600Y-5181600I-40000J0D01*
G01*
X11622400Y-6096500D02*
G75*
G03*
X11622400Y-6096500I-40000J0D01*
G01*
X11622400Y-7620500D02*
G75*
G03*
X11622400Y-7620500I-40000J0D01*
G01*
X11622400Y-8507000D02*
G75*
G03*
X11622400Y-8507000I-40000J0D01*
G01*
X11622400Y-10031000D02*
G75*
G03*
X11622400Y-10031000I-40000J0D01*
G01*
X11622900Y-10922500D02*
G75*
G03*
X11622900Y-10922500I-40000J0D01*
G01*
X11622900Y-12446500D02*
G75*
G03*
X11622900Y-12446500I-40000J0D01*
G01*
X11876400Y-6096500D02*
G75*
G03*
X11876400Y-6096500I-40000J0D01*
G01*
X11876400Y-7620500D02*
G75*
G03*
X11876400Y-7620500I-40000J0D01*
G01*
X11876400Y-8507000D02*
G75*
G03*
X11876400Y-8507000I-40000J0D01*
G01*
X11876400Y-10031000D02*
G75*
G03*
X11876400Y-10031000I-40000J0D01*
G01*
X11876900Y-10922500D02*
G75*
G03*
X11876900Y-10922500I-40000J0D01*
G01*
X11876900Y-12446500D02*
G75*
G03*
X11876900Y-12446500I-40000J0D01*
G01*
X11927200Y-5511800D02*
G75*
G03*
X11927200Y-5511800I-40000J0D01*
G01*
X12130400Y-6096500D02*
G75*
G03*
X12130400Y-6096500I-40000J0D01*
G01*
X12130400Y-7620500D02*
G75*
G03*
X12130400Y-7620500I-40000J0D01*
G01*
X12130400Y-8507000D02*
G75*
G03*
X12130400Y-8507000I-40000J0D01*
G01*
X12130400Y-10031000D02*
G75*
G03*
X12130400Y-10031000I-40000J0D01*
G01*
X12130900Y-10922500D02*
G75*
G03*
X12130900Y-10922500I-40000J0D01*
G01*
X12130900Y-12446500D02*
G75*
G03*
X12130900Y-12446500I-40000J0D01*
G01*
X12232000Y-5511800D02*
G75*
G03*
X12232000Y-5511800I-40000J0D01*
G01*
X12384400Y-6096500D02*
G75*
G03*
X12384400Y-6096500I-40000J0D01*
G01*
X12384400Y-7620500D02*
G75*
G03*
X12384400Y-7620500I-40000J0D01*
G01*
X12384400Y-8507000D02*
G75*
G03*
X12384400Y-8507000I-40000J0D01*
G01*
X12384400Y-10031000D02*
G75*
G03*
X12384400Y-10031000I-40000J0D01*
G01*
X12384900Y-10922500D02*
G75*
G03*
X12384900Y-10922500I-40000J0D01*
G01*
X12384900Y-12446500D02*
G75*
G03*
X12384900Y-12446500I-40000J0D01*
G01*
X12587600Y-5181600D02*
G75*
G03*
X12587600Y-5181600I-40000J0D01*
G01*
X12638400Y-6096500D02*
G75*
G03*
X12638400Y-6096500I-40000J0D01*
G01*
X12638400Y-7620500D02*
G75*
G03*
X12638400Y-7620500I-40000J0D01*
G01*
X12638400Y-8507000D02*
G75*
G03*
X12638400Y-8507000I-40000J0D01*
G01*
X12638400Y-10031000D02*
G75*
G03*
X12638400Y-10031000I-40000J0D01*
G01*
X12638900Y-10922500D02*
G75*
G03*
X12638900Y-10922500I-40000J0D01*
G01*
X12638900Y-12446500D02*
G75*
G03*
X12638900Y-12446500I-40000J0D01*
G01*
X12892400Y-5181600D02*
G75*
G03*
X12892400Y-5181600I-40000J0D01*
G01*
X12892400Y-6096500D02*
G75*
G03*
X12892400Y-6096500I-40000J0D01*
G01*
X12892400Y-7620500D02*
G75*
G03*
X12892400Y-7620500I-40000J0D01*
G01*
X12892400Y-8507000D02*
G75*
G03*
X12892400Y-8507000I-40000J0D01*
G01*
X12892400Y-10031000D02*
G75*
G03*
X12892400Y-10031000I-40000J0D01*
G01*
X12892900Y-10922500D02*
G75*
G03*
X12892900Y-10922500I-40000J0D01*
G01*
X12892900Y-12446500D02*
G75*
G03*
X12892900Y-12446500I-40000J0D01*
G01*
X13146900Y-10922500D02*
G75*
G03*
X13146900Y-10922500I-40000J0D01*
G01*
X13146900Y-12446500D02*
G75*
G03*
X13146900Y-12446500I-40000J0D01*
G01*
X13248000Y-5511800D02*
G75*
G03*
X13248000Y-5511800I-40000J0D01*
G01*
X13400900Y-10922500D02*
G75*
G03*
X13400900Y-10922500I-40000J0D01*
G01*
X13400900Y-12446500D02*
G75*
G03*
X13400900Y-12446500I-40000J0D01*
G01*
X13552800Y-5511800D02*
G75*
G03*
X13552800Y-5511800I-40000J0D01*
G01*
X13654900Y-10922500D02*
G75*
G03*
X13654900Y-10922500I-40000J0D01*
G01*
X13654900Y-12446500D02*
G75*
G03*
X13654900Y-12446500I-40000J0D01*
G01*
X13908400Y-5181600D02*
G75*
G03*
X13908400Y-5181600I-40000J0D01*
G01*
X13908900Y-10922500D02*
G75*
G03*
X13908900Y-10922500I-40000J0D01*
G01*
X13908900Y-12446500D02*
G75*
G03*
X13908900Y-12446500I-40000J0D01*
G01*
X13909400Y-6095500D02*
G75*
G03*
X13909400Y-6095500I-40000J0D01*
G01*
X13909400Y-6349500D02*
G75*
G03*
X13909400Y-6349500I-40000J0D01*
G01*
X13909400Y-6603500D02*
G75*
G03*
X13909400Y-6603500I-40000J0D01*
G01*
X13909400Y-6857500D02*
G75*
G03*
X13909400Y-6857500I-40000J0D01*
G01*
X13909400Y-7111500D02*
G75*
G03*
X13909400Y-7111500I-40000J0D01*
G01*
X13909400Y-7365500D02*
G75*
G03*
X13909400Y-7365500I-40000J0D01*
G01*
X13909400Y-7619500D02*
G75*
G03*
X13909400Y-7619500I-40000J0D01*
G01*
X13909400Y-8508500D02*
G75*
G03*
X13909400Y-8508500I-40000J0D01*
G01*
X13909400Y-8762500D02*
G75*
G03*
X13909400Y-8762500I-40000J0D01*
G01*
X13909400Y-9016500D02*
G75*
G03*
X13909400Y-9016500I-40000J0D01*
G01*
X13909400Y-9270500D02*
G75*
G03*
X13909400Y-9270500I-40000J0D01*
G01*
X13909400Y-9524500D02*
G75*
G03*
X13909400Y-9524500I-40000J0D01*
G01*
X13909400Y-9778500D02*
G75*
G03*
X13909400Y-9778500I-40000J0D01*
G01*
X13909400Y-10032500D02*
G75*
G03*
X13909400Y-10032500I-40000J0D01*
G01*
X14164400Y-7924800D02*
G75*
G03*
X14164400Y-7924800I-40000J0D01*
G01*
X14164400Y-8204200D02*
G75*
G03*
X14164400Y-8204200I-40000J0D01*
G01*
X14213200Y-5181600D02*
G75*
G03*
X14213200Y-5181600I-40000J0D01*
G01*
X14414400Y-7924800D02*
G75*
G03*
X14414400Y-7924800I-40000J0D01*
G01*
X14414400Y-8204200D02*
G75*
G03*
X14414400Y-8204200I-40000J0D01*
G01*
X14568800Y-5511800D02*
G75*
G03*
X14568800Y-5511800I-40000J0D01*
G01*
X14670400Y-11197400D02*
G75*
G03*
X14670400Y-11197400I-40000J0D01*
G01*
X14670400Y-11451400D02*
G75*
G03*
X14670400Y-11451400I-40000J0D01*
G01*
X14670400Y-11705400D02*
G75*
G03*
X14670400Y-11705400I-40000J0D01*
G01*
X14670400Y-11959400D02*
G75*
G03*
X14670400Y-11959400I-40000J0D01*
G01*
X14670400Y-12213400D02*
G75*
G03*
X14670400Y-12213400I-40000J0D01*
G01*
X14671400Y-6095500D02*
G75*
G03*
X14671400Y-6095500I-40000J0D01*
G01*
X14671400Y-6349500D02*
G75*
G03*
X14671400Y-6349500I-40000J0D01*
G01*
X14671400Y-6603500D02*
G75*
G03*
X14671400Y-6603500I-40000J0D01*
G01*
X14671400Y-6857500D02*
G75*
G03*
X14671400Y-6857500I-40000J0D01*
G01*
X14671400Y-7111500D02*
G75*
G03*
X14671400Y-7111500I-40000J0D01*
G01*
X14671400Y-7365500D02*
G75*
G03*
X14671400Y-7365500I-40000J0D01*
G01*
X14671400Y-7619500D02*
G75*
G03*
X14671400Y-7619500I-40000J0D01*
G01*
X14671400Y-8508500D02*
G75*
G03*
X14671400Y-8508500I-40000J0D01*
G01*
X14671400Y-8762500D02*
G75*
G03*
X14671400Y-8762500I-40000J0D01*
G01*
X14671400Y-9016500D02*
G75*
G03*
X14671400Y-9016500I-40000J0D01*
G01*
X14671400Y-9270500D02*
G75*
G03*
X14671400Y-9270500I-40000J0D01*
G01*
X14671400Y-9524500D02*
G75*
G03*
X14671400Y-9524500I-40000J0D01*
G01*
X14671400Y-9778500D02*
G75*
G03*
X14671400Y-9778500I-40000J0D01*
G01*
X14671400Y-10032500D02*
G75*
G03*
X14671400Y-10032500I-40000J0D01*
G01*
X14873600Y-5511800D02*
G75*
G03*
X14873600Y-5511800I-40000J0D01*
G01*
X15229200Y-5181600D02*
G75*
G03*
X15229200Y-5181600I-40000J0D01*
G01*
X15356200Y-6350000D02*
G75*
G03*
X15356200Y-6350000I-40000J0D01*
G01*
X15356200Y-6600000D02*
G75*
G03*
X15356200Y-6600000I-40000J0D01*
G01*
X15356200Y-7747000D02*
G75*
G03*
X15356200Y-7747000I-40000J0D01*
G01*
X15356200Y-7997000D02*
G75*
G03*
X15356200Y-7997000I-40000J0D01*
G01*
X15534000Y-5181600D02*
G75*
G03*
X15534000Y-5181600I-40000J0D01*
G01*
X15661000Y-7490000D02*
G75*
G03*
X15661000Y-7490000I-40000J0D01*
G01*
X15661000Y-8252000D02*
G75*
G03*
X15661000Y-8252000I-40000J0D01*
G01*
X15661500Y-6093000D02*
G75*
G03*
X15661500Y-6093000I-40000J0D01*
G01*
X15661500Y-6855000D02*
G75*
G03*
X15661500Y-6855000I-40000J0D01*
G01*
X15865200Y-10547000D02*
G75*
G03*
X15865200Y-10547000I-40000J0D01*
G01*
X15865200Y-10797000D02*
G75*
G03*
X15865200Y-10797000I-40000J0D01*
G01*
X15865200Y-11941000D02*
G75*
G03*
X15865200Y-11941000I-40000J0D01*
G01*
X15865200Y-12191000D02*
G75*
G03*
X15865200Y-12191000I-40000J0D01*
G01*
X15889600Y-5511800D02*
G75*
G03*
X15889600Y-5511800I-40000J0D01*
G01*
X15915000Y-7490000D02*
G75*
G03*
X15915000Y-7490000I-40000J0D01*
G01*
X15915000Y-8252000D02*
G75*
G03*
X15915000Y-8252000I-40000J0D01*
G01*
X15915500Y-6093000D02*
G75*
G03*
X15915500Y-6093000I-40000J0D01*
G01*
X15915500Y-6855000D02*
G75*
G03*
X15915500Y-6855000I-40000J0D01*
G01*
X16118700Y-9147000D02*
G75*
G03*
X16118700Y-9147000I-40000J0D01*
G01*
X16118700Y-9397000D02*
G75*
G03*
X16118700Y-9397000I-40000J0D01*
G01*
X16169000Y-7490000D02*
G75*
G03*
X16169000Y-7490000I-40000J0D01*
G01*
X16169000Y-8252000D02*
G75*
G03*
X16169000Y-8252000I-40000J0D01*
G01*
X16169000Y-10290000D02*
G75*
G03*
X16169000Y-10290000I-40000J0D01*
G01*
X16169000Y-11052000D02*
G75*
G03*
X16169000Y-11052000I-40000J0D01*
G01*
X16169000Y-11684000D02*
G75*
G03*
X16169000Y-11684000I-40000J0D01*
G01*
X16169000Y-12446000D02*
G75*
G03*
X16169000Y-12446000I-40000J0D01*
G01*
X16169500Y-6093000D02*
G75*
G03*
X16169500Y-6093000I-40000J0D01*
G01*
X16169500Y-6855000D02*
G75*
G03*
X16169500Y-6855000I-40000J0D01*
G01*
X16194400Y-5511800D02*
G75*
G03*
X16194400Y-5511800I-40000J0D01*
G01*
X16423000Y-7490000D02*
G75*
G03*
X16423000Y-7490000I-40000J0D01*
G01*
X16423000Y-8252000D02*
G75*
G03*
X16423000Y-8252000I-40000J0D01*
G01*
X16423000Y-8890000D02*
G75*
G03*
X16423000Y-8890000I-40000J0D01*
G01*
X16423000Y-9652000D02*
G75*
G03*
X16423000Y-9652000I-40000J0D01*
G01*
X16423000Y-10290000D02*
G75*
G03*
X16423000Y-10290000I-40000J0D01*
G01*
X16423000Y-11052000D02*
G75*
G03*
X16423000Y-11052000I-40000J0D01*
G01*
X16423000Y-11684000D02*
G75*
G03*
X16423000Y-11684000I-40000J0D01*
G01*
X16423000Y-12446000D02*
G75*
G03*
X16423000Y-12446000I-40000J0D01*
G01*
X16423500Y-6093000D02*
G75*
G03*
X16423500Y-6093000I-40000J0D01*
G01*
X16423500Y-6855000D02*
G75*
G03*
X16423500Y-6855000I-40000J0D01*
G01*
X16550000Y-5181600D02*
G75*
G03*
X16550000Y-5181600I-40000J0D01*
G01*
X16677000Y-7490000D02*
G75*
G03*
X16677000Y-7490000I-40000J0D01*
G01*
X16677000Y-8252000D02*
G75*
G03*
X16677000Y-8252000I-40000J0D01*
G01*
X16677000Y-8890000D02*
G75*
G03*
X16677000Y-8890000I-40000J0D01*
G01*
X16677000Y-9652000D02*
G75*
G03*
X16677000Y-9652000I-40000J0D01*
G01*
X16677000Y-10290000D02*
G75*
G03*
X16677000Y-10290000I-40000J0D01*
G01*
X16677000Y-11052000D02*
G75*
G03*
X16677000Y-11052000I-40000J0D01*
G01*
X16677000Y-11684000D02*
G75*
G03*
X16677000Y-11684000I-40000J0D01*
G01*
X16677000Y-12446000D02*
G75*
G03*
X16677000Y-12446000I-40000J0D01*
G01*
X16677500Y-6093000D02*
G75*
G03*
X16677500Y-6093000I-40000J0D01*
G01*
X16677500Y-6855000D02*
G75*
G03*
X16677500Y-6855000I-40000J0D01*
G01*
X16854800Y-5181600D02*
G75*
G03*
X16854800Y-5181600I-40000J0D01*
G01*
X16931000Y-7490000D02*
G75*
G03*
X16931000Y-7490000I-40000J0D01*
G01*
X16931000Y-8252000D02*
G75*
G03*
X16931000Y-8252000I-40000J0D01*
G01*
X16931000Y-8890000D02*
G75*
G03*
X16931000Y-8890000I-40000J0D01*
G01*
X16931000Y-9652000D02*
G75*
G03*
X16931000Y-9652000I-40000J0D01*
G01*
X16931000Y-10290000D02*
G75*
G03*
X16931000Y-10290000I-40000J0D01*
G01*
X16931000Y-11052000D02*
G75*
G03*
X16931000Y-11052000I-40000J0D01*
G01*
X16931000Y-11684000D02*
G75*
G03*
X16931000Y-11684000I-40000J0D01*
G01*
X16931000Y-12446000D02*
G75*
G03*
X16931000Y-12446000I-40000J0D01*
G01*
X16931500Y-6093000D02*
G75*
G03*
X16931500Y-6093000I-40000J0D01*
G01*
X16931500Y-6855000D02*
G75*
G03*
X16931500Y-6855000I-40000J0D01*
G01*
X17185000Y-7490000D02*
G75*
G03*
X17185000Y-7490000I-40000J0D01*
G01*
X17185000Y-8252000D02*
G75*
G03*
X17185000Y-8252000I-40000J0D01*
G01*
X17185000Y-8890000D02*
G75*
G03*
X17185000Y-8890000I-40000J0D01*
G01*
X17185000Y-9652000D02*
G75*
G03*
X17185000Y-9652000I-40000J0D01*
G01*
X17185000Y-10290000D02*
G75*
G03*
X17185000Y-10290000I-40000J0D01*
G01*
X17185000Y-11052000D02*
G75*
G03*
X17185000Y-11052000I-40000J0D01*
G01*
X17185000Y-11684000D02*
G75*
G03*
X17185000Y-11684000I-40000J0D01*
G01*
X17185000Y-12446000D02*
G75*
G03*
X17185000Y-12446000I-40000J0D01*
G01*
X17185500Y-6093000D02*
G75*
G03*
X17185500Y-6093000I-40000J0D01*
G01*
X17185500Y-6855000D02*
G75*
G03*
X17185500Y-6855000I-40000J0D01*
G01*
X17210400Y-5511800D02*
G75*
G03*
X17210400Y-5511800I-40000J0D01*
G01*
X17439000Y-7490000D02*
G75*
G03*
X17439000Y-7490000I-40000J0D01*
G01*
X17439000Y-8252000D02*
G75*
G03*
X17439000Y-8252000I-40000J0D01*
G01*
X17439000Y-8890000D02*
G75*
G03*
X17439000Y-8890000I-40000J0D01*
G01*
X17439000Y-9652000D02*
G75*
G03*
X17439000Y-9652000I-40000J0D01*
G01*
X17439000Y-10290000D02*
G75*
G03*
X17439000Y-10290000I-40000J0D01*
G01*
X17439000Y-11052000D02*
G75*
G03*
X17439000Y-11052000I-40000J0D01*
G01*
X17439000Y-11684000D02*
G75*
G03*
X17439000Y-11684000I-40000J0D01*
G01*
X17439000Y-12446000D02*
G75*
G03*
X17439000Y-12446000I-40000J0D01*
G01*
X17439500Y-6093000D02*
G75*
G03*
X17439500Y-6093000I-40000J0D01*
G01*
X17439500Y-6855000D02*
G75*
G03*
X17439500Y-6855000I-40000J0D01*
G01*
X17693000Y-7490000D02*
G75*
G03*
X17693000Y-7490000I-40000J0D01*
G01*
X17693000Y-8252000D02*
G75*
G03*
X17693000Y-8252000I-40000J0D01*
G01*
X17693000Y-8890000D02*
G75*
G03*
X17693000Y-8890000I-40000J0D01*
G01*
X17693000Y-9652000D02*
G75*
G03*
X17693000Y-9652000I-40000J0D01*
G01*
X17693000Y-10290000D02*
G75*
G03*
X17693000Y-10290000I-40000J0D01*
G01*
X17693000Y-11052000D02*
G75*
G03*
X17693000Y-11052000I-40000J0D01*
G01*
X17693000Y-11684000D02*
G75*
G03*
X17693000Y-11684000I-40000J0D01*
G01*
X17693000Y-12446000D02*
G75*
G03*
X17693000Y-12446000I-40000J0D01*
G01*
X17693500Y-6093000D02*
G75*
G03*
X17693500Y-6093000I-40000J0D01*
G01*
X17693500Y-6855000D02*
G75*
G03*
X17693500Y-6855000I-40000J0D01*
G01*
X17870800Y-5181600D02*
G75*
G03*
X17870800Y-5181600I-40000J0D01*
G01*
X17947000Y-7490000D02*
G75*
G03*
X17947000Y-7490000I-40000J0D01*
G01*
X17947000Y-8252000D02*
G75*
G03*
X17947000Y-8252000I-40000J0D01*
G01*
X17947000Y-8890000D02*
G75*
G03*
X17947000Y-8890000I-40000J0D01*
G01*
X17947000Y-9652000D02*
G75*
G03*
X17947000Y-9652000I-40000J0D01*
G01*
X17947000Y-10290000D02*
G75*
G03*
X17947000Y-10290000I-40000J0D01*
G01*
X17947000Y-11052000D02*
G75*
G03*
X17947000Y-11052000I-40000J0D01*
G01*
X17947000Y-11684000D02*
G75*
G03*
X17947000Y-11684000I-40000J0D01*
G01*
X17947000Y-12446000D02*
G75*
G03*
X17947000Y-12446000I-40000J0D01*
G01*
X17947500Y-6093000D02*
G75*
G03*
X17947500Y-6093000I-40000J0D01*
G01*
X17947500Y-6855000D02*
G75*
G03*
X17947500Y-6855000I-40000J0D01*
G01*
D13*
X9269000Y-4707900D02*
X9269000Y-4797900D01*
X9224000Y-4752900D02*
X9314000Y-4752900D01*
X9523000Y-4707900D02*
X9523000Y-4797900D01*
X9478000Y-4752900D02*
X9568000Y-4752900D01*
X9929400Y-4707900D02*
X9929400Y-4797900D01*
X9884400Y-4752900D02*
X9974400Y-4752900D01*
X10183400Y-4707900D02*
X10183400Y-4797900D01*
X10138400Y-4752900D02*
X10228400Y-4752900D01*
X10589800Y-4707900D02*
X10589800Y-4797900D01*
X10544800Y-4752900D02*
X10634800Y-4752900D01*
X10843800Y-4707900D02*
X10843800Y-4797900D01*
X10798800Y-4752900D02*
X10888800Y-4752900D01*
X11250200Y-4707900D02*
X11250200Y-4797900D01*
X11205200Y-4752900D02*
X11295200Y-4752900D01*
X11504200Y-4707900D02*
X11504200Y-4797900D01*
X11459200Y-4752900D02*
X11549200Y-4752900D01*
X11910600Y-4707900D02*
X11910600Y-4797900D01*
X11865600Y-4752900D02*
X11955600Y-4752900D01*
X12164600Y-4707900D02*
X12164600Y-4797900D01*
X12119600Y-4752900D02*
X12209600Y-4752900D01*
X12571000Y-4707900D02*
X12571000Y-4797900D01*
X12526000Y-4752900D02*
X12616000Y-4752900D01*
X12825000Y-4707900D02*
X12825000Y-4797900D01*
X12780000Y-4752900D02*
X12870000Y-4752900D01*
X13231400Y-4707900D02*
X13231400Y-4797900D01*
X13186400Y-4752900D02*
X13276400Y-4752900D01*
X13485400Y-4707900D02*
X13485400Y-4797900D01*
X13440400Y-4752900D02*
X13530400Y-4752900D01*
X13891800Y-4707900D02*
X13891800Y-4797900D01*
X13846800Y-4752900D02*
X13936800Y-4752900D01*
X14145800Y-4707900D02*
X14145800Y-4797900D01*
X14100800Y-4752900D02*
X14190800Y-4752900D01*
X14552200Y-4707900D02*
X14552200Y-4797900D01*
X14507200Y-4752900D02*
X14597200Y-4752900D01*
X14806200Y-4707900D02*
X14806200Y-4797900D01*
X14761200Y-4752900D02*
X14851200Y-4752900D01*
X15212600Y-4707900D02*
X15212600Y-4797900D01*
X15167600Y-4752900D02*
X15257600Y-4752900D01*
X15466600Y-4707900D02*
X15466600Y-4797900D01*
X15421600Y-4752900D02*
X15511600Y-4752900D01*
X15873000Y-4707900D02*
X15873000Y-4797900D01*
X15828000Y-4752900D02*
X15918000Y-4752900D01*
X16127000Y-4707900D02*
X16127000Y-4797900D01*
X16082000Y-4752900D02*
X16172000Y-4752900D01*
X16533400Y-4707900D02*
X16533400Y-4797900D01*
X16488400Y-4752900D02*
X16578400Y-4752900D01*
X16787400Y-4707900D02*
X16787400Y-4797900D01*
X16742400Y-4752900D02*
X16832400Y-4752900D01*
X17193800Y-4707900D02*
X17193800Y-4797900D01*
X17148800Y-4752900D02*
X17238800Y-4752900D01*
X17447800Y-4707900D02*
X17447800Y-4797900D01*
X17402800Y-4752900D02*
X17492800Y-4752900D01*
D10*
X8612019Y-14366676D02*
X8612019Y-14166676D01*
X8659638Y-14166676D01*
X8688210Y-14176200D01*
X8707257Y-14195248D01*
X8716781Y-14214295D01*
X8726305Y-14252390D01*
X8726305Y-14280962D01*
X8716781Y-14319057D01*
X8707257Y-14338105D01*
X8688210Y-14357152D01*
X8659638Y-14366676D01*
X8612019Y-14366676D01*
X8812019Y-14366676D02*
X8812019Y-14233343D01*
X8812019Y-14271438D02*
X8821543Y-14252390D01*
X8831067Y-14242867D01*
X8850114Y-14233343D01*
X8869162Y-14233343D01*
X8935829Y-14366676D02*
X8935829Y-14233343D01*
X8935829Y-14166676D02*
X8926305Y-14176200D01*
X8935829Y-14185724D01*
X8945352Y-14176200D01*
X8935829Y-14166676D01*
X8935829Y-14185724D01*
X9059638Y-14366676D02*
X9040590Y-14357152D01*
X9031067Y-14338105D01*
X9031067Y-14166676D01*
X9164400Y-14366676D02*
X9145352Y-14357152D01*
X9135829Y-14338105D01*
X9135829Y-14166676D01*
X9392971Y-14366676D02*
X9392971Y-14166676D01*
X9459638Y-14309533D01*
X9526305Y-14166676D01*
X9526305Y-14366676D01*
X9707257Y-14366676D02*
X9707257Y-14261914D01*
X9697733Y-14242867D01*
X9678686Y-14233343D01*
X9640590Y-14233343D01*
X9621543Y-14242867D01*
X9707257Y-14357152D02*
X9688210Y-14366676D01*
X9640590Y-14366676D01*
X9621543Y-14357152D01*
X9612019Y-14338105D01*
X9612019Y-14319057D01*
X9621543Y-14300009D01*
X9640590Y-14290486D01*
X9688210Y-14290486D01*
X9707257Y-14280962D01*
X9802495Y-14233343D02*
X9802495Y-14433343D01*
X9802495Y-14242867D02*
X9821543Y-14233343D01*
X9859638Y-14233343D01*
X9878686Y-14242867D01*
X9888210Y-14252390D01*
X9897733Y-14271438D01*
X9897733Y-14328581D01*
X9888210Y-14347628D01*
X9878686Y-14357152D01*
X9859638Y-14366676D01*
X9821543Y-14366676D01*
X9802495Y-14357152D01*
X9983448Y-14347628D02*
X9992971Y-14357152D01*
X9983448Y-14366676D01*
X9973924Y-14357152D01*
X9983448Y-14347628D01*
X9983448Y-14366676D01*
X9983448Y-14242867D02*
X9992971Y-14252390D01*
X9983448Y-14261914D01*
X9973924Y-14252390D01*
X9983448Y-14242867D01*
X9983448Y-14261914D01*
D11*
X8314400Y-14676200D02*
X8354400Y-14716200D01*
X8354400Y-14676200D02*
X8314400Y-14716200D01*
D10*
X8650114Y-14586676D02*
X8669162Y-14586676D01*
X8688210Y-14596200D01*
X8697733Y-14605724D01*
X8707257Y-14624771D01*
X8716781Y-14662867D01*
X8716781Y-14710486D01*
X8707257Y-14748581D01*
X8697733Y-14767628D01*
X8688210Y-14777152D01*
X8669162Y-14786676D01*
X8650114Y-14786676D01*
X8631067Y-14777152D01*
X8621543Y-14767628D01*
X8612019Y-14748581D01*
X8602495Y-14710486D01*
X8602495Y-14662867D01*
X8612019Y-14624771D01*
X8621543Y-14605724D01*
X8631067Y-14596200D01*
X8650114Y-14586676D01*
X8802495Y-14767628D02*
X8812019Y-14777152D01*
X8802495Y-14786676D01*
X8792971Y-14777152D01*
X8802495Y-14767628D01*
X8802495Y-14786676D01*
X8983448Y-14653343D02*
X8983448Y-14786676D01*
X8935829Y-14577152D02*
X8888210Y-14720009D01*
X9012019Y-14720009D01*
X9126305Y-14586676D02*
X9145352Y-14586676D01*
X9164400Y-14596200D01*
X9173924Y-14605724D01*
X9183448Y-14624771D01*
X9192971Y-14662867D01*
X9192971Y-14710486D01*
X9183448Y-14748581D01*
X9173924Y-14767628D01*
X9164400Y-14777152D01*
X9145352Y-14786676D01*
X9126305Y-14786676D01*
X9107257Y-14777152D01*
X9097733Y-14767628D01*
X9088210Y-14748581D01*
X9078686Y-14710486D01*
X9078686Y-14662867D01*
X9088210Y-14624771D01*
X9097733Y-14605724D01*
X9107257Y-14596200D01*
X9126305Y-14586676D01*
X9316781Y-14586676D02*
X9335829Y-14586676D01*
X9354876Y-14596200D01*
X9364400Y-14605724D01*
X9373924Y-14624771D01*
X9383448Y-14662867D01*
X9383448Y-14710486D01*
X9373924Y-14748581D01*
X9364400Y-14767628D01*
X9354876Y-14777152D01*
X9335829Y-14786676D01*
X9316781Y-14786676D01*
X9297733Y-14777152D01*
X9288210Y-14767628D01*
X9278686Y-14748581D01*
X9269162Y-14710486D01*
X9269162Y-14662867D01*
X9278686Y-14624771D01*
X9288210Y-14605724D01*
X9297733Y-14596200D01*
X9316781Y-14586676D01*
X9469162Y-14786676D02*
X9469162Y-14653343D01*
X9469162Y-14672390D02*
X9478686Y-14662867D01*
X9497733Y-14653343D01*
X9526305Y-14653343D01*
X9545352Y-14662867D01*
X9554876Y-14681914D01*
X9554876Y-14786676D01*
X9554876Y-14681914D02*
X9564400Y-14662867D01*
X9583448Y-14653343D01*
X9612019Y-14653343D01*
X9631067Y-14662867D01*
X9640590Y-14681914D01*
X9640590Y-14786676D01*
X9735829Y-14786676D02*
X9735829Y-14653343D01*
X9735829Y-14672390D02*
X9745352Y-14662867D01*
X9764400Y-14653343D01*
X9792971Y-14653343D01*
X9812019Y-14662867D01*
X9821543Y-14681914D01*
X9821543Y-14786676D01*
X9821543Y-14681914D02*
X9831067Y-14662867D01*
X9850114Y-14653343D01*
X9878686Y-14653343D01*
X9897733Y-14662867D01*
X9907257Y-14681914D01*
X9907257Y-14786676D01*
X10297733Y-14577152D02*
X10126305Y-14834295D01*
X10554876Y-14586676D02*
X10573924Y-14586676D01*
X10592971Y-14596200D01*
X10602495Y-14605724D01*
X10612019Y-14624771D01*
X10621543Y-14662867D01*
X10621543Y-14710486D01*
X10612019Y-14748581D01*
X10602495Y-14767628D01*
X10592971Y-14777152D01*
X10573924Y-14786676D01*
X10554876Y-14786676D01*
X10535829Y-14777152D01*
X10526305Y-14767628D01*
X10516781Y-14748581D01*
X10507257Y-14710486D01*
X10507257Y-14662867D01*
X10516781Y-14624771D01*
X10526305Y-14605724D01*
X10535829Y-14596200D01*
X10554876Y-14586676D01*
X10707257Y-14767628D02*
X10716781Y-14777152D01*
X10707257Y-14786676D01*
X10697733Y-14777152D01*
X10707257Y-14767628D01*
X10707257Y-14786676D01*
X10840590Y-14586676D02*
X10859638Y-14586676D01*
X10878686Y-14596200D01*
X10888210Y-14605724D01*
X10897733Y-14624771D01*
X10907257Y-14662867D01*
X10907257Y-14710486D01*
X10897733Y-14748581D01*
X10888210Y-14767628D01*
X10878686Y-14777152D01*
X10859638Y-14786676D01*
X10840590Y-14786676D01*
X10821543Y-14777152D01*
X10812019Y-14767628D01*
X10802495Y-14748581D01*
X10792971Y-14710486D01*
X10792971Y-14662867D01*
X10802495Y-14624771D01*
X10812019Y-14605724D01*
X10821543Y-14596200D01*
X10840590Y-14586676D01*
X11097733Y-14786676D02*
X10983448Y-14786676D01*
X11040590Y-14786676D02*
X11040590Y-14586676D01*
X11021543Y-14615248D01*
X11002495Y-14634295D01*
X10983448Y-14643819D01*
X11278686Y-14586676D02*
X11183448Y-14586676D01*
X11173924Y-14681914D01*
X11183448Y-14672390D01*
X11202495Y-14662867D01*
X11250114Y-14662867D01*
X11269162Y-14672390D01*
X11278686Y-14681914D01*
X11288209Y-14700962D01*
X11288209Y-14748581D01*
X11278686Y-14767628D01*
X11269162Y-14777152D01*
X11250114Y-14786676D01*
X11202495Y-14786676D01*
X11183448Y-14777152D01*
X11173924Y-14767628D01*
X11354876Y-14586676D02*
X11488209Y-14586676D01*
X11402495Y-14786676D01*
X11554876Y-14586676D02*
X11554876Y-14624771D01*
X11631067Y-14586676D02*
X11631067Y-14624771D01*
X11926305Y-14862867D02*
X11916781Y-14853343D01*
X11897733Y-14824771D01*
X11888209Y-14805724D01*
X11878686Y-14777152D01*
X11869162Y-14729533D01*
X11869162Y-14691438D01*
X11878686Y-14643819D01*
X11888209Y-14615248D01*
X11897733Y-14596200D01*
X11916781Y-14567628D01*
X11926305Y-14558105D01*
X12088209Y-14586676D02*
X12050114Y-14586676D01*
X12031067Y-14596200D01*
X12021543Y-14605724D01*
X12002495Y-14634295D01*
X11992971Y-14672390D01*
X11992971Y-14748581D01*
X12002495Y-14767628D01*
X12012019Y-14777152D01*
X12031067Y-14786676D01*
X12069162Y-14786676D01*
X12088209Y-14777152D01*
X12097733Y-14767628D01*
X12107257Y-14748581D01*
X12107257Y-14700962D01*
X12097733Y-14681914D01*
X12088209Y-14672390D01*
X12069162Y-14662867D01*
X12031067Y-14662867D01*
X12012019Y-14672390D01*
X12002495Y-14681914D01*
X11992971Y-14700962D01*
X12221543Y-14672390D02*
X12202495Y-14662867D01*
X12192971Y-14653343D01*
X12183448Y-14634295D01*
X12183448Y-14624771D01*
X12192971Y-14605724D01*
X12202495Y-14596200D01*
X12221543Y-14586676D01*
X12259638Y-14586676D01*
X12278686Y-14596200D01*
X12288209Y-14605724D01*
X12297733Y-14624771D01*
X12297733Y-14634295D01*
X12288209Y-14653343D01*
X12278686Y-14662867D01*
X12259638Y-14672390D01*
X12221543Y-14672390D01*
X12202495Y-14681914D01*
X12192971Y-14691438D01*
X12183448Y-14710486D01*
X12183448Y-14748581D01*
X12192971Y-14767628D01*
X12202495Y-14777152D01*
X12221543Y-14786676D01*
X12259638Y-14786676D01*
X12278686Y-14777152D01*
X12288209Y-14767628D01*
X12297733Y-14748581D01*
X12297733Y-14710486D01*
X12288209Y-14691438D01*
X12278686Y-14681914D01*
X12259638Y-14672390D01*
X12535828Y-14786676D02*
X12535828Y-14586676D01*
X12621543Y-14786676D02*
X12621543Y-14681914D01*
X12612019Y-14662867D01*
X12592971Y-14653343D01*
X12564400Y-14653343D01*
X12545352Y-14662867D01*
X12535828Y-14672390D01*
X12745352Y-14786676D02*
X12726305Y-14777152D01*
X12716781Y-14767628D01*
X12707257Y-14748581D01*
X12707257Y-14691438D01*
X12716781Y-14672390D01*
X12726305Y-14662867D01*
X12745352Y-14653343D01*
X12773924Y-14653343D01*
X12792971Y-14662867D01*
X12802495Y-14672390D01*
X12812019Y-14691438D01*
X12812019Y-14748581D01*
X12802495Y-14767628D01*
X12792971Y-14777152D01*
X12773924Y-14786676D01*
X12745352Y-14786676D01*
X12926305Y-14786676D02*
X12907257Y-14777152D01*
X12897733Y-14758105D01*
X12897733Y-14586676D01*
X13078686Y-14777152D02*
X13059638Y-14786676D01*
X13021543Y-14786676D01*
X13002495Y-14777152D01*
X12992971Y-14758105D01*
X12992971Y-14681914D01*
X13002495Y-14662867D01*
X13021543Y-14653343D01*
X13059638Y-14653343D01*
X13078686Y-14662867D01*
X13088209Y-14681914D01*
X13088209Y-14700962D01*
X12992971Y-14720009D01*
X13164400Y-14777152D02*
X13183448Y-14786676D01*
X13221543Y-14786676D01*
X13240590Y-14777152D01*
X13250114Y-14758105D01*
X13250114Y-14748581D01*
X13240590Y-14729533D01*
X13221543Y-14720009D01*
X13192971Y-14720009D01*
X13173924Y-14710486D01*
X13164400Y-14691438D01*
X13164400Y-14681914D01*
X13173924Y-14662867D01*
X13192971Y-14653343D01*
X13221543Y-14653343D01*
X13240590Y-14662867D01*
X13316781Y-14862867D02*
X13326305Y-14853343D01*
X13345352Y-14824771D01*
X13354876Y-14805724D01*
X13364400Y-14777152D01*
X13373924Y-14729533D01*
X13373924Y-14691438D01*
X13364400Y-14643819D01*
X13354876Y-14615248D01*
X13345352Y-14596200D01*
X13326305Y-14567628D01*
X13316781Y-14558105D01*
D12*
X8354400Y-14960200D02*
G75*
G03*
X8354400Y-14960200I-40000J0D01*
G01*
D10*
X8650114Y-14850676D02*
X8669162Y-14850676D01*
X8688210Y-14860200D01*
X8697733Y-14869724D01*
X8707257Y-14888771D01*
X8716781Y-14926867D01*
X8716781Y-14974486D01*
X8707257Y-15012581D01*
X8697733Y-15031628D01*
X8688210Y-15041152D01*
X8669162Y-15050676D01*
X8650114Y-15050676D01*
X8631067Y-15041152D01*
X8621543Y-15031628D01*
X8612019Y-15012581D01*
X8602495Y-14974486D01*
X8602495Y-14926867D01*
X8612019Y-14888771D01*
X8621543Y-14869724D01*
X8631067Y-14860200D01*
X8650114Y-14850676D01*
X8802495Y-15031628D02*
X8812019Y-15041152D01*
X8802495Y-15050676D01*
X8792971Y-15041152D01*
X8802495Y-15031628D01*
X8802495Y-15050676D01*
X8926305Y-14936390D02*
X8907257Y-14926867D01*
X8897733Y-14917343D01*
X8888210Y-14898295D01*
X8888210Y-14888771D01*
X8897733Y-14869724D01*
X8907257Y-14860200D01*
X8926305Y-14850676D01*
X8964400Y-14850676D01*
X8983448Y-14860200D01*
X8992971Y-14869724D01*
X9002495Y-14888771D01*
X9002495Y-14898295D01*
X8992971Y-14917343D01*
X8983448Y-14926867D01*
X8964400Y-14936390D01*
X8926305Y-14936390D01*
X8907257Y-14945914D01*
X8897733Y-14955438D01*
X8888210Y-14974486D01*
X8888210Y-15012581D01*
X8897733Y-15031628D01*
X8907257Y-15041152D01*
X8926305Y-15050676D01*
X8964400Y-15050676D01*
X8983448Y-15041152D01*
X8992971Y-15031628D01*
X9002495Y-15012581D01*
X9002495Y-14974486D01*
X8992971Y-14955438D01*
X8983448Y-14945914D01*
X8964400Y-14936390D01*
X9126305Y-14850676D02*
X9145352Y-14850676D01*
X9164400Y-14860200D01*
X9173924Y-14869724D01*
X9183448Y-14888771D01*
X9192971Y-14926867D01*
X9192971Y-14974486D01*
X9183448Y-15012581D01*
X9173924Y-15031628D01*
X9164400Y-15041152D01*
X9145352Y-15050676D01*
X9126305Y-15050676D01*
X9107257Y-15041152D01*
X9097733Y-15031628D01*
X9088210Y-15012581D01*
X9078686Y-14974486D01*
X9078686Y-14926867D01*
X9088210Y-14888771D01*
X9097733Y-14869724D01*
X9107257Y-14860200D01*
X9126305Y-14850676D01*
X9316781Y-14850676D02*
X9335829Y-14850676D01*
X9354876Y-14860200D01*
X9364400Y-14869724D01*
X9373924Y-14888771D01*
X9383448Y-14926867D01*
X9383448Y-14974486D01*
X9373924Y-15012581D01*
X9364400Y-15031628D01*
X9354876Y-15041152D01*
X9335829Y-15050676D01*
X9316781Y-15050676D01*
X9297733Y-15041152D01*
X9288210Y-15031628D01*
X9278686Y-15012581D01*
X9269162Y-14974486D01*
X9269162Y-14926867D01*
X9278686Y-14888771D01*
X9288210Y-14869724D01*
X9297733Y-14860200D01*
X9316781Y-14850676D01*
X9469162Y-15050676D02*
X9469162Y-14917343D01*
X9469162Y-14936390D02*
X9478686Y-14926867D01*
X9497733Y-14917343D01*
X9526305Y-14917343D01*
X9545352Y-14926867D01*
X9554876Y-14945914D01*
X9554876Y-15050676D01*
X9554876Y-14945914D02*
X9564400Y-14926867D01*
X9583448Y-14917343D01*
X9612019Y-14917343D01*
X9631067Y-14926867D01*
X9640590Y-14945914D01*
X9640590Y-15050676D01*
X9735829Y-15050676D02*
X9735829Y-14917343D01*
X9735829Y-14936390D02*
X9745352Y-14926867D01*
X9764400Y-14917343D01*
X9792971Y-14917343D01*
X9812019Y-14926867D01*
X9821543Y-14945914D01*
X9821543Y-15050676D01*
X9821543Y-14945914D02*
X9831067Y-14926867D01*
X9850114Y-14917343D01*
X9878686Y-14917343D01*
X9897733Y-14926867D01*
X9907257Y-14945914D01*
X9907257Y-15050676D01*
X10297733Y-14841152D02*
X10126305Y-15098295D01*
X10554876Y-14850676D02*
X10573924Y-14850676D01*
X10592971Y-14860200D01*
X10602495Y-14869724D01*
X10612019Y-14888771D01*
X10621543Y-14926867D01*
X10621543Y-14974486D01*
X10612019Y-15012581D01*
X10602495Y-15031628D01*
X10592971Y-15041152D01*
X10573924Y-15050676D01*
X10554876Y-15050676D01*
X10535829Y-15041152D01*
X10526305Y-15031628D01*
X10516781Y-15012581D01*
X10507257Y-14974486D01*
X10507257Y-14926867D01*
X10516781Y-14888771D01*
X10526305Y-14869724D01*
X10535829Y-14860200D01*
X10554876Y-14850676D01*
X10707257Y-15031628D02*
X10716781Y-15041152D01*
X10707257Y-15050676D01*
X10697733Y-15041152D01*
X10707257Y-15031628D01*
X10707257Y-15050676D01*
X10840590Y-14850676D02*
X10859638Y-14850676D01*
X10878686Y-14860200D01*
X10888210Y-14869724D01*
X10897733Y-14888771D01*
X10907257Y-14926867D01*
X10907257Y-14974486D01*
X10897733Y-15012581D01*
X10888210Y-15031628D01*
X10878686Y-15041152D01*
X10859638Y-15050676D01*
X10840590Y-15050676D01*
X10821543Y-15041152D01*
X10812019Y-15031628D01*
X10802495Y-15012581D01*
X10792971Y-14974486D01*
X10792971Y-14926867D01*
X10802495Y-14888771D01*
X10812019Y-14869724D01*
X10821543Y-14860200D01*
X10840590Y-14850676D01*
X10973924Y-14850676D02*
X11097733Y-14850676D01*
X11031067Y-14926867D01*
X11059638Y-14926867D01*
X11078686Y-14936390D01*
X11088210Y-14945914D01*
X11097733Y-14964962D01*
X11097733Y-15012581D01*
X11088210Y-15031628D01*
X11078686Y-15041152D01*
X11059638Y-15050676D01*
X11002495Y-15050676D01*
X10983448Y-15041152D01*
X10973924Y-15031628D01*
X11288209Y-15050676D02*
X11173924Y-15050676D01*
X11231067Y-15050676D02*
X11231067Y-14850676D01*
X11212019Y-14879248D01*
X11192971Y-14898295D01*
X11173924Y-14907819D01*
X11469162Y-14850676D02*
X11373924Y-14850676D01*
X11364400Y-14945914D01*
X11373924Y-14936390D01*
X11392971Y-14926867D01*
X11440590Y-14926867D01*
X11459638Y-14936390D01*
X11469162Y-14945914D01*
X11478686Y-14964962D01*
X11478686Y-15012581D01*
X11469162Y-15031628D01*
X11459638Y-15041152D01*
X11440590Y-15050676D01*
X11392971Y-15050676D01*
X11373924Y-15041152D01*
X11364400Y-15031628D01*
X11554876Y-14850676D02*
X11554876Y-14888771D01*
X11631067Y-14850676D02*
X11631067Y-14888771D01*
X11926305Y-15126867D02*
X11916781Y-15117343D01*
X11897733Y-15088771D01*
X11888209Y-15069724D01*
X11878686Y-15041152D01*
X11869162Y-14993533D01*
X11869162Y-14955438D01*
X11878686Y-14907819D01*
X11888209Y-14879248D01*
X11897733Y-14860200D01*
X11916781Y-14831628D01*
X11926305Y-14822105D01*
X11992971Y-14869724D02*
X12002495Y-14860200D01*
X12021543Y-14850676D01*
X12069162Y-14850676D01*
X12088209Y-14860200D01*
X12097733Y-14869724D01*
X12107257Y-14888771D01*
X12107257Y-14907819D01*
X12097733Y-14936390D01*
X11983448Y-15050676D01*
X12107257Y-15050676D01*
X12278686Y-14850676D02*
X12240590Y-14850676D01*
X12221543Y-14860200D01*
X12212019Y-14869724D01*
X12192971Y-14898295D01*
X12183448Y-14936390D01*
X12183448Y-15012581D01*
X12192971Y-15031628D01*
X12202495Y-15041152D01*
X12221543Y-15050676D01*
X12259638Y-15050676D01*
X12278686Y-15041152D01*
X12288209Y-15031628D01*
X12297733Y-15012581D01*
X12297733Y-14964962D01*
X12288209Y-14945914D01*
X12278686Y-14936390D01*
X12259638Y-14926867D01*
X12221543Y-14926867D01*
X12202495Y-14936390D01*
X12192971Y-14945914D01*
X12183448Y-14964962D01*
X12392971Y-15050676D02*
X12431067Y-15050676D01*
X12450114Y-15041152D01*
X12459638Y-15031628D01*
X12478686Y-15003057D01*
X12488209Y-14964962D01*
X12488209Y-14888771D01*
X12478686Y-14869724D01*
X12469162Y-14860200D01*
X12450114Y-14850676D01*
X12412019Y-14850676D01*
X12392971Y-14860200D01*
X12383448Y-14869724D01*
X12373924Y-14888771D01*
X12373924Y-14936390D01*
X12383448Y-14955438D01*
X12392971Y-14964962D01*
X12412019Y-14974486D01*
X12450114Y-14974486D01*
X12469162Y-14964962D01*
X12478686Y-14955438D01*
X12488209Y-14936390D01*
X12726305Y-15050676D02*
X12726305Y-14850676D01*
X12812019Y-15050676D02*
X12812019Y-14945914D01*
X12802495Y-14926867D01*
X12783448Y-14917343D01*
X12754876Y-14917343D01*
X12735828Y-14926867D01*
X12726305Y-14936390D01*
X12935828Y-15050676D02*
X12916781Y-15041152D01*
X12907257Y-15031628D01*
X12897733Y-15012581D01*
X12897733Y-14955438D01*
X12907257Y-14936390D01*
X12916781Y-14926867D01*
X12935828Y-14917343D01*
X12964400Y-14917343D01*
X12983448Y-14926867D01*
X12992971Y-14936390D01*
X13002495Y-14955438D01*
X13002495Y-15012581D01*
X12992971Y-15031628D01*
X12983448Y-15041152D01*
X12964400Y-15050676D01*
X12935828Y-15050676D01*
X13116781Y-15050676D02*
X13097733Y-15041152D01*
X13088209Y-15022105D01*
X13088209Y-14850676D01*
X13269162Y-15041152D02*
X13250114Y-15050676D01*
X13212019Y-15050676D01*
X13192971Y-15041152D01*
X13183448Y-15022105D01*
X13183448Y-14945914D01*
X13192971Y-14926867D01*
X13212019Y-14917343D01*
X13250114Y-14917343D01*
X13269162Y-14926867D01*
X13278686Y-14945914D01*
X13278686Y-14964962D01*
X13183448Y-14984009D01*
X13354876Y-15041152D02*
X13373924Y-15050676D01*
X13412019Y-15050676D01*
X13431067Y-15041152D01*
X13440590Y-15022105D01*
X13440590Y-15012581D01*
X13431067Y-14993533D01*
X13412019Y-14984009D01*
X13383448Y-14984009D01*
X13364400Y-14974486D01*
X13354876Y-14955438D01*
X13354876Y-14945914D01*
X13364400Y-14926867D01*
X13383448Y-14917343D01*
X13412019Y-14917343D01*
X13431067Y-14926867D01*
X13507257Y-15126867D02*
X13516781Y-15117343D01*
X13535828Y-15088771D01*
X13545352Y-15069724D01*
X13554876Y-15041152D01*
X13564400Y-14993533D01*
X13564400Y-14955438D01*
X13554876Y-14907819D01*
X13545352Y-14879248D01*
X13535828Y-14860200D01*
X13516781Y-14831628D01*
X13507257Y-14822105D01*
D13*
X8309400Y-15179200D02*
X8309400Y-15269200D01*
X8264400Y-15224200D02*
X8354400Y-15224200D01*
D10*
X8650114Y-15114676D02*
X8669162Y-15114676D01*
X8688210Y-15124200D01*
X8697733Y-15133724D01*
X8707257Y-15152771D01*
X8716781Y-15190867D01*
X8716781Y-15238486D01*
X8707257Y-15276581D01*
X8697733Y-15295628D01*
X8688210Y-15305152D01*
X8669162Y-15314676D01*
X8650114Y-15314676D01*
X8631067Y-15305152D01*
X8621543Y-15295628D01*
X8612019Y-15276581D01*
X8602495Y-15238486D01*
X8602495Y-15190867D01*
X8612019Y-15152771D01*
X8621543Y-15133724D01*
X8631067Y-15124200D01*
X8650114Y-15114676D01*
X8802495Y-15295628D02*
X8812019Y-15305152D01*
X8802495Y-15314676D01*
X8792971Y-15305152D01*
X8802495Y-15295628D01*
X8802495Y-15314676D01*
X8907257Y-15314676D02*
X8945352Y-15314676D01*
X8964400Y-15305152D01*
X8973924Y-15295628D01*
X8992971Y-15267057D01*
X9002495Y-15228962D01*
X9002495Y-15152771D01*
X8992971Y-15133724D01*
X8983448Y-15124200D01*
X8964400Y-15114676D01*
X8926305Y-15114676D01*
X8907257Y-15124200D01*
X8897733Y-15133724D01*
X8888210Y-15152771D01*
X8888210Y-15200390D01*
X8897733Y-15219438D01*
X8907257Y-15228962D01*
X8926305Y-15238486D01*
X8964400Y-15238486D01*
X8983448Y-15228962D01*
X8992971Y-15219438D01*
X9002495Y-15200390D01*
X9126305Y-15114676D02*
X9145352Y-15114676D01*
X9164400Y-15124200D01*
X9173924Y-15133724D01*
X9183448Y-15152771D01*
X9192971Y-15190867D01*
X9192971Y-15238486D01*
X9183448Y-15276581D01*
X9173924Y-15295628D01*
X9164400Y-15305152D01*
X9145352Y-15314676D01*
X9126305Y-15314676D01*
X9107257Y-15305152D01*
X9097733Y-15295628D01*
X9088210Y-15276581D01*
X9078686Y-15238486D01*
X9078686Y-15190867D01*
X9088210Y-15152771D01*
X9097733Y-15133724D01*
X9107257Y-15124200D01*
X9126305Y-15114676D01*
X9316781Y-15114676D02*
X9335829Y-15114676D01*
X9354876Y-15124200D01*
X9364400Y-15133724D01*
X9373924Y-15152771D01*
X9383448Y-15190867D01*
X9383448Y-15238486D01*
X9373924Y-15276581D01*
X9364400Y-15295628D01*
X9354876Y-15305152D01*
X9335829Y-15314676D01*
X9316781Y-15314676D01*
X9297733Y-15305152D01*
X9288210Y-15295628D01*
X9278686Y-15276581D01*
X9269162Y-15238486D01*
X9269162Y-15190867D01*
X9278686Y-15152771D01*
X9288210Y-15133724D01*
X9297733Y-15124200D01*
X9316781Y-15114676D01*
X9469162Y-15314676D02*
X9469162Y-15181343D01*
X9469162Y-15200390D02*
X9478686Y-15190867D01*
X9497733Y-15181343D01*
X9526305Y-15181343D01*
X9545352Y-15190867D01*
X9554876Y-15209914D01*
X9554876Y-15314676D01*
X9554876Y-15209914D02*
X9564400Y-15190867D01*
X9583448Y-15181343D01*
X9612019Y-15181343D01*
X9631067Y-15190867D01*
X9640590Y-15209914D01*
X9640590Y-15314676D01*
X9735829Y-15314676D02*
X9735829Y-15181343D01*
X9735829Y-15200390D02*
X9745352Y-15190867D01*
X9764400Y-15181343D01*
X9792971Y-15181343D01*
X9812019Y-15190867D01*
X9821543Y-15209914D01*
X9821543Y-15314676D01*
X9821543Y-15209914D02*
X9831067Y-15190867D01*
X9850114Y-15181343D01*
X9878686Y-15181343D01*
X9897733Y-15190867D01*
X9907257Y-15209914D01*
X9907257Y-15314676D01*
X10297733Y-15105152D02*
X10126305Y-15362295D01*
X10554876Y-15114676D02*
X10573924Y-15114676D01*
X10592971Y-15124200D01*
X10602495Y-15133724D01*
X10612019Y-15152771D01*
X10621543Y-15190867D01*
X10621543Y-15238486D01*
X10612019Y-15276581D01*
X10602495Y-15295628D01*
X10592971Y-15305152D01*
X10573924Y-15314676D01*
X10554876Y-15314676D01*
X10535829Y-15305152D01*
X10526305Y-15295628D01*
X10516781Y-15276581D01*
X10507257Y-15238486D01*
X10507257Y-15190867D01*
X10516781Y-15152771D01*
X10526305Y-15133724D01*
X10535829Y-15124200D01*
X10554876Y-15114676D01*
X10707257Y-15295628D02*
X10716781Y-15305152D01*
X10707257Y-15314676D01*
X10697733Y-15305152D01*
X10707257Y-15295628D01*
X10707257Y-15314676D01*
X10840590Y-15114676D02*
X10859638Y-15114676D01*
X10878686Y-15124200D01*
X10888210Y-15133724D01*
X10897733Y-15152771D01*
X10907257Y-15190867D01*
X10907257Y-15238486D01*
X10897733Y-15276581D01*
X10888210Y-15295628D01*
X10878686Y-15305152D01*
X10859638Y-15314676D01*
X10840590Y-15314676D01*
X10821543Y-15305152D01*
X10812019Y-15295628D01*
X10802495Y-15276581D01*
X10792971Y-15238486D01*
X10792971Y-15190867D01*
X10802495Y-15152771D01*
X10812019Y-15133724D01*
X10821543Y-15124200D01*
X10840590Y-15114676D01*
X10973924Y-15114676D02*
X11097733Y-15114676D01*
X11031067Y-15190867D01*
X11059638Y-15190867D01*
X11078686Y-15200390D01*
X11088210Y-15209914D01*
X11097733Y-15228962D01*
X11097733Y-15276581D01*
X11088210Y-15295628D01*
X11078686Y-15305152D01*
X11059638Y-15314676D01*
X11002495Y-15314676D01*
X10983448Y-15305152D01*
X10973924Y-15295628D01*
X11278686Y-15114676D02*
X11183448Y-15114676D01*
X11173924Y-15209914D01*
X11183448Y-15200390D01*
X11202495Y-15190867D01*
X11250114Y-15190867D01*
X11269162Y-15200390D01*
X11278686Y-15209914D01*
X11288209Y-15228962D01*
X11288209Y-15276581D01*
X11278686Y-15295628D01*
X11269162Y-15305152D01*
X11250114Y-15314676D01*
X11202495Y-15314676D01*
X11183448Y-15305152D01*
X11173924Y-15295628D01*
X11459638Y-15181343D02*
X11459638Y-15314676D01*
X11412019Y-15105152D02*
X11364400Y-15248009D01*
X11488209Y-15248009D01*
X11554876Y-15114676D02*
X11554876Y-15152771D01*
X11631067Y-15114676D02*
X11631067Y-15152771D01*
X11926305Y-15390867D02*
X11916781Y-15381343D01*
X11897733Y-15352771D01*
X11888209Y-15333724D01*
X11878686Y-15305152D01*
X11869162Y-15257533D01*
X11869162Y-15219438D01*
X11878686Y-15171819D01*
X11888209Y-15143248D01*
X11897733Y-15124200D01*
X11916781Y-15095628D01*
X11926305Y-15086105D01*
X11992971Y-15133724D02*
X12002495Y-15124200D01*
X12021543Y-15114676D01*
X12069162Y-15114676D01*
X12088209Y-15124200D01*
X12097733Y-15133724D01*
X12107257Y-15152771D01*
X12107257Y-15171819D01*
X12097733Y-15200390D01*
X11983448Y-15314676D01*
X12107257Y-15314676D01*
X12278686Y-15114676D02*
X12240590Y-15114676D01*
X12221543Y-15124200D01*
X12212019Y-15133724D01*
X12192971Y-15162295D01*
X12183448Y-15200390D01*
X12183448Y-15276581D01*
X12192971Y-15295628D01*
X12202495Y-15305152D01*
X12221543Y-15314676D01*
X12259638Y-15314676D01*
X12278686Y-15305152D01*
X12288209Y-15295628D01*
X12297733Y-15276581D01*
X12297733Y-15228962D01*
X12288209Y-15209914D01*
X12278686Y-15200390D01*
X12259638Y-15190867D01*
X12221543Y-15190867D01*
X12202495Y-15200390D01*
X12192971Y-15209914D01*
X12183448Y-15228962D01*
X12535828Y-15314676D02*
X12535828Y-15114676D01*
X12621543Y-15314676D02*
X12621543Y-15209914D01*
X12612019Y-15190867D01*
X12592971Y-15181343D01*
X12564400Y-15181343D01*
X12545352Y-15190867D01*
X12535828Y-15200390D01*
X12745352Y-15314676D02*
X12726305Y-15305152D01*
X12716781Y-15295628D01*
X12707257Y-15276581D01*
X12707257Y-15219438D01*
X12716781Y-15200390D01*
X12726305Y-15190867D01*
X12745352Y-15181343D01*
X12773924Y-15181343D01*
X12792971Y-15190867D01*
X12802495Y-15200390D01*
X12812019Y-15219438D01*
X12812019Y-15276581D01*
X12802495Y-15295628D01*
X12792971Y-15305152D01*
X12773924Y-15314676D01*
X12745352Y-15314676D01*
X12926305Y-15314676D02*
X12907257Y-15305152D01*
X12897733Y-15286105D01*
X12897733Y-15114676D01*
X13078686Y-15305152D02*
X13059638Y-15314676D01*
X13021543Y-15314676D01*
X13002495Y-15305152D01*
X12992971Y-15286105D01*
X12992971Y-15209914D01*
X13002495Y-15190867D01*
X13021543Y-15181343D01*
X13059638Y-15181343D01*
X13078686Y-15190867D01*
X13088209Y-15209914D01*
X13088209Y-15228962D01*
X12992971Y-15248009D01*
X13164400Y-15305152D02*
X13183448Y-15314676D01*
X13221543Y-15314676D01*
X13240590Y-15305152D01*
X13250114Y-15286105D01*
X13250114Y-15276581D01*
X13240590Y-15257533D01*
X13221543Y-15248009D01*
X13192971Y-15248009D01*
X13173924Y-15238486D01*
X13164400Y-15219438D01*
X13164400Y-15209914D01*
X13173924Y-15190867D01*
X13192971Y-15181343D01*
X13221543Y-15181343D01*
X13240590Y-15190867D01*
X13316781Y-15390867D02*
X13326305Y-15381343D01*
X13345352Y-15352771D01*
X13354876Y-15333724D01*
X13364400Y-15305152D01*
X13373924Y-15257533D01*
X13373924Y-15219438D01*
X13364400Y-15171819D01*
X13354876Y-15143248D01*
X13345352Y-15124200D01*
X13326305Y-15095628D01*
X13316781Y-15086105D01*
M02*
