%TF.GenerationSoftware,KiCad,Pcbnew,(6.0.9)*%
%TF.CreationDate,2022-12-02T20:58:01-05:00*%
%TF.ProjectId,Part 4 - CPU and memory,50617274-2034-4202-9d20-43505520616e,1*%
%TF.SameCoordinates,Original*%
%TF.FileFunction,Drillmap*%
%TF.FilePolarity,Positive*%
%FSLAX45Y45*%
G04 Gerber Fmt 4.5, Leading zero omitted, Abs format (unit mm)*
G04 Created by KiCad (PCBNEW (6.0.9)) date 2022-12-02 20:58:01*
%MOMM*%
%LPD*%
G01*
G04 APERTURE LIST*
%ADD10C,0.200000*%
%ADD11C,0.040000*%
%ADD12C,0.080000*%
%ADD13C,0.090000*%
G04 APERTURE END LIST*
D10*
D11*
X9476390Y-13194760D02*
X9516390Y-13234760D01*
X9516390Y-13194760D02*
X9476390Y-13234760D01*
X10270460Y-10678290D02*
X10310460Y-10718290D01*
X10310460Y-10678290D02*
X10270460Y-10718290D01*
X10298200Y-11244970D02*
X10338200Y-11284970D01*
X10338200Y-11244970D02*
X10298200Y-11284970D01*
X10556590Y-11051530D02*
X10596590Y-11091530D01*
X10596590Y-11051530D02*
X10556590Y-11091530D01*
X10800900Y-12165950D02*
X10840900Y-12205950D01*
X10840900Y-12165950D02*
X10800900Y-12205950D01*
X10933880Y-9098770D02*
X10973880Y-9138770D01*
X10973880Y-9098770D02*
X10933880Y-9138770D01*
X11308400Y-9467930D02*
X11348400Y-9507930D01*
X11348400Y-9467930D02*
X11308400Y-9507930D01*
X11416390Y-9098770D02*
X11456390Y-9138770D01*
X11456390Y-9098770D02*
X11416390Y-9138770D01*
X11562400Y-11791000D02*
X11602400Y-11831000D01*
X11602400Y-11791000D02*
X11562400Y-11831000D01*
X11562400Y-13177970D02*
X11602400Y-13217970D01*
X11602400Y-13177970D02*
X11562400Y-13217970D01*
X11632100Y-9049870D02*
X11672100Y-9089870D01*
X11672100Y-9049870D02*
X11632100Y-9089870D01*
X11814400Y-11539000D02*
X11854400Y-11579000D01*
X11854400Y-11539000D02*
X11814400Y-11579000D01*
X12260764Y-12598964D02*
X12300764Y-12638964D01*
X12300764Y-12598964D02*
X12260764Y-12638964D01*
X12446330Y-12724890D02*
X12486330Y-12764890D01*
X12486330Y-12724890D02*
X12446330Y-12764890D01*
X12645200Y-12752320D02*
X12685200Y-12792320D01*
X12685200Y-12752320D02*
X12645200Y-12792320D01*
X12757230Y-12675000D02*
X12797230Y-12715000D01*
X12797230Y-12675000D02*
X12757230Y-12715000D01*
X12829460Y-9143930D02*
X12869460Y-9183930D01*
X12869460Y-9143930D02*
X12829460Y-9183930D01*
X12832400Y-6965000D02*
X12872400Y-7005000D01*
X12872400Y-6965000D02*
X12832400Y-7005000D01*
X12832400Y-9378000D02*
X12872400Y-9418000D01*
X12872400Y-9378000D02*
X12832400Y-9418000D01*
X12863130Y-10630860D02*
X12903130Y-10670860D01*
X12903130Y-10630860D02*
X12863130Y-10670860D01*
X13039650Y-12711300D02*
X13079650Y-12751300D01*
X13079650Y-12711300D02*
X13039650Y-12751300D01*
X13072070Y-10262790D02*
X13112070Y-10302790D01*
X13112070Y-10262790D02*
X13072070Y-10302790D01*
X13087380Y-11949220D02*
X13127380Y-11989220D01*
X13127380Y-11949220D02*
X13087380Y-11989220D01*
X13092750Y-10362830D02*
X13132750Y-10402830D01*
X13132750Y-10362830D02*
X13092750Y-10402830D01*
X13145350Y-9125830D02*
X13185350Y-9165830D01*
X13185350Y-9125830D02*
X13145350Y-9165830D01*
X13290670Y-11442060D02*
X13330670Y-11482060D01*
X13330670Y-11442060D02*
X13290670Y-11482060D01*
X13371970Y-13109820D02*
X13411970Y-13149820D01*
X13411970Y-13109820D02*
X13371970Y-13149820D01*
X13492800Y-8641400D02*
X13532800Y-8681400D01*
X13532800Y-8641400D02*
X13492800Y-8681400D01*
X13874200Y-12025900D02*
X13914200Y-12065900D01*
X13914200Y-12025900D02*
X13874200Y-12065900D01*
X13910380Y-11603970D02*
X13950380Y-11643970D01*
X13950380Y-11603970D02*
X13910380Y-11643970D01*
X13911280Y-11819210D02*
X13951280Y-11859210D01*
X13951280Y-11819210D02*
X13911280Y-11859210D01*
X13997900Y-13122090D02*
X14037900Y-13162090D01*
X14037900Y-13122090D02*
X13997900Y-13162090D01*
X14203570Y-11607620D02*
X14243570Y-11647620D01*
X14243570Y-11607620D02*
X14203570Y-11647620D01*
X14337530Y-10946260D02*
X14377530Y-10986260D01*
X14377530Y-10946260D02*
X14337530Y-10986260D01*
X14342550Y-12144260D02*
X14382550Y-12184260D01*
X14382550Y-12144260D02*
X14342550Y-12184260D01*
X14351530Y-11866780D02*
X14391530Y-11906780D01*
X14391530Y-11866780D02*
X14351530Y-11906780D01*
X14422210Y-12771470D02*
X14462210Y-12811470D01*
X14462210Y-12771470D02*
X14422210Y-12811470D01*
X14423310Y-11790760D02*
X14463310Y-11830760D01*
X14463310Y-11790760D02*
X14423310Y-11830760D01*
X14438260Y-13108000D02*
X14478260Y-13148000D01*
X14478260Y-13108000D02*
X14438260Y-13148000D01*
X14493700Y-10942960D02*
X14533700Y-10982960D01*
X14533700Y-10942960D02*
X14493700Y-10982960D01*
X14612050Y-13107470D02*
X14652050Y-13147470D01*
X14652050Y-13107470D02*
X14612050Y-13147470D01*
X14796490Y-12765490D02*
X14836490Y-12805490D01*
X14836490Y-12765490D02*
X14796490Y-12805490D01*
X14798823Y-13166494D02*
X14838823Y-13206494D01*
X14838823Y-13166494D02*
X14798823Y-13206494D01*
X14806810Y-12320710D02*
X14846810Y-12360710D01*
X14846810Y-12320710D02*
X14806810Y-12360710D01*
X14848690Y-11957400D02*
X14888690Y-11997400D01*
X14888690Y-11957400D02*
X14848690Y-11997400D01*
X14926760Y-11880350D02*
X14966760Y-11920350D01*
X14966760Y-11880350D02*
X14926760Y-11920350D01*
X14926800Y-9790670D02*
X14966800Y-9830670D01*
X14966800Y-9790670D02*
X14926800Y-9830670D01*
X14940760Y-11025640D02*
X14980760Y-11065640D01*
X14980760Y-11025640D02*
X14940760Y-11065640D01*
X14976560Y-13182710D02*
X15016560Y-13222710D01*
X15016560Y-13182710D02*
X14976560Y-13222710D01*
X14977230Y-10809230D02*
X15017230Y-10849230D01*
X15017230Y-10809230D02*
X14977230Y-10849230D01*
X15087100Y-12262300D02*
X15127100Y-12302300D01*
X15127100Y-12262300D02*
X15087100Y-12302300D01*
X15203690Y-9321860D02*
X15243690Y-9361860D01*
X15243690Y-9321860D02*
X15203690Y-9361860D01*
X15259600Y-13122570D02*
X15299600Y-13162570D01*
X15299600Y-13122570D02*
X15259600Y-13162570D01*
X15310470Y-10384930D02*
X15350470Y-10424930D01*
X15350470Y-10384930D02*
X15310470Y-10424930D01*
X15366280Y-13115180D02*
X15406280Y-13155180D01*
X15406280Y-13115180D02*
X15366280Y-13155180D01*
X15375780Y-10206440D02*
X15415780Y-10246440D01*
X15415780Y-10206440D02*
X15375780Y-10246440D01*
X15382370Y-10027150D02*
X15422370Y-10067150D01*
X15422370Y-10027150D02*
X15382370Y-10067150D01*
X15558650Y-12093950D02*
X15598650Y-12133950D01*
X15598650Y-12093950D02*
X15558650Y-12133950D01*
X15719220Y-7673440D02*
X15759220Y-7713440D01*
X15759220Y-7673440D02*
X15719220Y-7713440D01*
X15791270Y-11282210D02*
X15831270Y-11322210D01*
X15831270Y-11282210D02*
X15791270Y-11322210D01*
X15922180Y-11603990D02*
X15962180Y-11643990D01*
X15962180Y-11603990D02*
X15922180Y-11643990D01*
X16112240Y-7812510D02*
X16152240Y-7852510D01*
X16152240Y-7812510D02*
X16112240Y-7852510D01*
X16312180Y-13185890D02*
X16352180Y-13225890D01*
X16352180Y-13185890D02*
X16312180Y-13225890D01*
X16369810Y-13100190D02*
X16409810Y-13140190D01*
X16409810Y-13100190D02*
X16369810Y-13140190D01*
X16419780Y-7615190D02*
X16459780Y-7655190D01*
X16459780Y-7615190D02*
X16419780Y-7655190D01*
X16527530Y-10652000D02*
X16567530Y-10692000D01*
X16567530Y-10652000D02*
X16527530Y-10692000D01*
X16751520Y-13146310D02*
X16791520Y-13186310D01*
X16791520Y-13146310D02*
X16751520Y-13186310D01*
X16896400Y-13197020D02*
X16936400Y-13237020D01*
X16936400Y-13197020D02*
X16896400Y-13237020D01*
D12*
X8777600Y-6733000D02*
G75*
G03*
X8777600Y-6733000I-40000J0D01*
G01*
X8777600Y-6983000D02*
G75*
G03*
X8777600Y-6983000I-40000J0D01*
G01*
X8777600Y-9144000D02*
G75*
G03*
X8777600Y-9144000I-40000J0D01*
G01*
X8777600Y-9394000D02*
G75*
G03*
X8777600Y-9394000I-40000J0D01*
G01*
X8777600Y-11559000D02*
G75*
G03*
X8777600Y-11559000I-40000J0D01*
G01*
X8777600Y-11809000D02*
G75*
G03*
X8777600Y-11809000I-40000J0D01*
G01*
X8930000Y-5181600D02*
G75*
G03*
X8930000Y-5181600I-40000J0D01*
G01*
X9082400Y-6096500D02*
G75*
G03*
X9082400Y-6096500I-40000J0D01*
G01*
X9082400Y-7620500D02*
G75*
G03*
X9082400Y-7620500I-40000J0D01*
G01*
X9082400Y-8507000D02*
G75*
G03*
X9082400Y-8507000I-40000J0D01*
G01*
X9082400Y-10031000D02*
G75*
G03*
X9082400Y-10031000I-40000J0D01*
G01*
X9082900Y-10922500D02*
G75*
G03*
X9082900Y-10922500I-40000J0D01*
G01*
X9082900Y-12446500D02*
G75*
G03*
X9082900Y-12446500I-40000J0D01*
G01*
X9336400Y-6096500D02*
G75*
G03*
X9336400Y-6096500I-40000J0D01*
G01*
X9336400Y-7620500D02*
G75*
G03*
X9336400Y-7620500I-40000J0D01*
G01*
X9336400Y-8507000D02*
G75*
G03*
X9336400Y-8507000I-40000J0D01*
G01*
X9336400Y-10031000D02*
G75*
G03*
X9336400Y-10031000I-40000J0D01*
G01*
X9336900Y-10922500D02*
G75*
G03*
X9336900Y-10922500I-40000J0D01*
G01*
X9336900Y-12446500D02*
G75*
G03*
X9336900Y-12446500I-40000J0D01*
G01*
X9590400Y-5511800D02*
G75*
G03*
X9590400Y-5511800I-40000J0D01*
G01*
X9590400Y-6096500D02*
G75*
G03*
X9590400Y-6096500I-40000J0D01*
G01*
X9590400Y-7620500D02*
G75*
G03*
X9590400Y-7620500I-40000J0D01*
G01*
X9590400Y-8507000D02*
G75*
G03*
X9590400Y-8507000I-40000J0D01*
G01*
X9590400Y-10031000D02*
G75*
G03*
X9590400Y-10031000I-40000J0D01*
G01*
X9590900Y-10922500D02*
G75*
G03*
X9590900Y-10922500I-40000J0D01*
G01*
X9590900Y-12446500D02*
G75*
G03*
X9590900Y-12446500I-40000J0D01*
G01*
X9844400Y-6096500D02*
G75*
G03*
X9844400Y-6096500I-40000J0D01*
G01*
X9844400Y-7620500D02*
G75*
G03*
X9844400Y-7620500I-40000J0D01*
G01*
X9844400Y-8507000D02*
G75*
G03*
X9844400Y-8507000I-40000J0D01*
G01*
X9844400Y-10031000D02*
G75*
G03*
X9844400Y-10031000I-40000J0D01*
G01*
X9844900Y-10922500D02*
G75*
G03*
X9844900Y-10922500I-40000J0D01*
G01*
X9844900Y-12446500D02*
G75*
G03*
X9844900Y-12446500I-40000J0D01*
G01*
X9946000Y-5181600D02*
G75*
G03*
X9946000Y-5181600I-40000J0D01*
G01*
X10098400Y-6096500D02*
G75*
G03*
X10098400Y-6096500I-40000J0D01*
G01*
X10098400Y-7620500D02*
G75*
G03*
X10098400Y-7620500I-40000J0D01*
G01*
X10098400Y-8507000D02*
G75*
G03*
X10098400Y-8507000I-40000J0D01*
G01*
X10098400Y-10031000D02*
G75*
G03*
X10098400Y-10031000I-40000J0D01*
G01*
X10098900Y-10922500D02*
G75*
G03*
X10098900Y-10922500I-40000J0D01*
G01*
X10098900Y-12446500D02*
G75*
G03*
X10098900Y-12446500I-40000J0D01*
G01*
X10250800Y-5181600D02*
G75*
G03*
X10250800Y-5181600I-40000J0D01*
G01*
X10352400Y-6096500D02*
G75*
G03*
X10352400Y-6096500I-40000J0D01*
G01*
X10352400Y-7620500D02*
G75*
G03*
X10352400Y-7620500I-40000J0D01*
G01*
X10352400Y-8507000D02*
G75*
G03*
X10352400Y-8507000I-40000J0D01*
G01*
X10352400Y-10031000D02*
G75*
G03*
X10352400Y-10031000I-40000J0D01*
G01*
X10352900Y-10922500D02*
G75*
G03*
X10352900Y-10922500I-40000J0D01*
G01*
X10352900Y-12446500D02*
G75*
G03*
X10352900Y-12446500I-40000J0D01*
G01*
X10606400Y-5511800D02*
G75*
G03*
X10606400Y-5511800I-40000J0D01*
G01*
X10606400Y-6096500D02*
G75*
G03*
X10606400Y-6096500I-40000J0D01*
G01*
X10606400Y-7620500D02*
G75*
G03*
X10606400Y-7620500I-40000J0D01*
G01*
X10606400Y-8507000D02*
G75*
G03*
X10606400Y-8507000I-40000J0D01*
G01*
X10606400Y-10031000D02*
G75*
G03*
X10606400Y-10031000I-40000J0D01*
G01*
X10606900Y-10922500D02*
G75*
G03*
X10606900Y-10922500I-40000J0D01*
G01*
X10606900Y-12446500D02*
G75*
G03*
X10606900Y-12446500I-40000J0D01*
G01*
X10860400Y-6096500D02*
G75*
G03*
X10860400Y-6096500I-40000J0D01*
G01*
X10860400Y-7620500D02*
G75*
G03*
X10860400Y-7620500I-40000J0D01*
G01*
X10860400Y-8507000D02*
G75*
G03*
X10860400Y-8507000I-40000J0D01*
G01*
X10860400Y-10031000D02*
G75*
G03*
X10860400Y-10031000I-40000J0D01*
G01*
X10860900Y-10922500D02*
G75*
G03*
X10860900Y-10922500I-40000J0D01*
G01*
X10860900Y-12446500D02*
G75*
G03*
X10860900Y-12446500I-40000J0D01*
G01*
X10911200Y-5511800D02*
G75*
G03*
X10911200Y-5511800I-40000J0D01*
G01*
X11114400Y-6096500D02*
G75*
G03*
X11114400Y-6096500I-40000J0D01*
G01*
X11114400Y-7620500D02*
G75*
G03*
X11114400Y-7620500I-40000J0D01*
G01*
X11114400Y-8507000D02*
G75*
G03*
X11114400Y-8507000I-40000J0D01*
G01*
X11114400Y-10031000D02*
G75*
G03*
X11114400Y-10031000I-40000J0D01*
G01*
X11114900Y-10922500D02*
G75*
G03*
X11114900Y-10922500I-40000J0D01*
G01*
X11114900Y-12446500D02*
G75*
G03*
X11114900Y-12446500I-40000J0D01*
G01*
X11266800Y-5181600D02*
G75*
G03*
X11266800Y-5181600I-40000J0D01*
G01*
X11368400Y-6096500D02*
G75*
G03*
X11368400Y-6096500I-40000J0D01*
G01*
X11368400Y-7620500D02*
G75*
G03*
X11368400Y-7620500I-40000J0D01*
G01*
X11368400Y-8507000D02*
G75*
G03*
X11368400Y-8507000I-40000J0D01*
G01*
X11368400Y-10031000D02*
G75*
G03*
X11368400Y-10031000I-40000J0D01*
G01*
X11368900Y-10922500D02*
G75*
G03*
X11368900Y-10922500I-40000J0D01*
G01*
X11368900Y-12446500D02*
G75*
G03*
X11368900Y-12446500I-40000J0D01*
G01*
X11571600Y-5181600D02*
G75*
G03*
X11571600Y-5181600I-40000J0D01*
G01*
X11622400Y-6096500D02*
G75*
G03*
X11622400Y-6096500I-40000J0D01*
G01*
X11622400Y-7620500D02*
G75*
G03*
X11622400Y-7620500I-40000J0D01*
G01*
X11622400Y-8507000D02*
G75*
G03*
X11622400Y-8507000I-40000J0D01*
G01*
X11622400Y-10031000D02*
G75*
G03*
X11622400Y-10031000I-40000J0D01*
G01*
X11622900Y-10922500D02*
G75*
G03*
X11622900Y-10922500I-40000J0D01*
G01*
X11622900Y-12446500D02*
G75*
G03*
X11622900Y-12446500I-40000J0D01*
G01*
X11876400Y-6096500D02*
G75*
G03*
X11876400Y-6096500I-40000J0D01*
G01*
X11876400Y-7620500D02*
G75*
G03*
X11876400Y-7620500I-40000J0D01*
G01*
X11876400Y-8507000D02*
G75*
G03*
X11876400Y-8507000I-40000J0D01*
G01*
X11876400Y-10031000D02*
G75*
G03*
X11876400Y-10031000I-40000J0D01*
G01*
X11876900Y-10922500D02*
G75*
G03*
X11876900Y-10922500I-40000J0D01*
G01*
X11876900Y-12446500D02*
G75*
G03*
X11876900Y-12446500I-40000J0D01*
G01*
X11927200Y-5511800D02*
G75*
G03*
X11927200Y-5511800I-40000J0D01*
G01*
X12130400Y-6096500D02*
G75*
G03*
X12130400Y-6096500I-40000J0D01*
G01*
X12130400Y-7620500D02*
G75*
G03*
X12130400Y-7620500I-40000J0D01*
G01*
X12130400Y-8507000D02*
G75*
G03*
X12130400Y-8507000I-40000J0D01*
G01*
X12130400Y-10031000D02*
G75*
G03*
X12130400Y-10031000I-40000J0D01*
G01*
X12130900Y-10922500D02*
G75*
G03*
X12130900Y-10922500I-40000J0D01*
G01*
X12130900Y-12446500D02*
G75*
G03*
X12130900Y-12446500I-40000J0D01*
G01*
X12232000Y-5511800D02*
G75*
G03*
X12232000Y-5511800I-40000J0D01*
G01*
X12384400Y-6096500D02*
G75*
G03*
X12384400Y-6096500I-40000J0D01*
G01*
X12384400Y-7620500D02*
G75*
G03*
X12384400Y-7620500I-40000J0D01*
G01*
X12384400Y-8507000D02*
G75*
G03*
X12384400Y-8507000I-40000J0D01*
G01*
X12384400Y-10031000D02*
G75*
G03*
X12384400Y-10031000I-40000J0D01*
G01*
X12384900Y-10922500D02*
G75*
G03*
X12384900Y-10922500I-40000J0D01*
G01*
X12384900Y-12446500D02*
G75*
G03*
X12384900Y-12446500I-40000J0D01*
G01*
X12587600Y-5181600D02*
G75*
G03*
X12587600Y-5181600I-40000J0D01*
G01*
X12638400Y-6096500D02*
G75*
G03*
X12638400Y-6096500I-40000J0D01*
G01*
X12638400Y-7620500D02*
G75*
G03*
X12638400Y-7620500I-40000J0D01*
G01*
X12638400Y-8507000D02*
G75*
G03*
X12638400Y-8507000I-40000J0D01*
G01*
X12638400Y-10031000D02*
G75*
G03*
X12638400Y-10031000I-40000J0D01*
G01*
X12638900Y-10922500D02*
G75*
G03*
X12638900Y-10922500I-40000J0D01*
G01*
X12638900Y-12446500D02*
G75*
G03*
X12638900Y-12446500I-40000J0D01*
G01*
X12892400Y-5181600D02*
G75*
G03*
X12892400Y-5181600I-40000J0D01*
G01*
X12892400Y-6096500D02*
G75*
G03*
X12892400Y-6096500I-40000J0D01*
G01*
X12892400Y-7620500D02*
G75*
G03*
X12892400Y-7620500I-40000J0D01*
G01*
X12892400Y-8507000D02*
G75*
G03*
X12892400Y-8507000I-40000J0D01*
G01*
X12892400Y-10031000D02*
G75*
G03*
X12892400Y-10031000I-40000J0D01*
G01*
X12892900Y-10922500D02*
G75*
G03*
X12892900Y-10922500I-40000J0D01*
G01*
X12892900Y-12446500D02*
G75*
G03*
X12892900Y-12446500I-40000J0D01*
G01*
X13146900Y-10922500D02*
G75*
G03*
X13146900Y-10922500I-40000J0D01*
G01*
X13146900Y-12446500D02*
G75*
G03*
X13146900Y-12446500I-40000J0D01*
G01*
X13248000Y-5511800D02*
G75*
G03*
X13248000Y-5511800I-40000J0D01*
G01*
X13400900Y-10922500D02*
G75*
G03*
X13400900Y-10922500I-40000J0D01*
G01*
X13400900Y-12446500D02*
G75*
G03*
X13400900Y-12446500I-40000J0D01*
G01*
X13552800Y-5511800D02*
G75*
G03*
X13552800Y-5511800I-40000J0D01*
G01*
X13654900Y-10922500D02*
G75*
G03*
X13654900Y-10922500I-40000J0D01*
G01*
X13654900Y-12446500D02*
G75*
G03*
X13654900Y-12446500I-40000J0D01*
G01*
X13908400Y-5181600D02*
G75*
G03*
X13908400Y-5181600I-40000J0D01*
G01*
X13908900Y-10922500D02*
G75*
G03*
X13908900Y-10922500I-40000J0D01*
G01*
X13908900Y-12446500D02*
G75*
G03*
X13908900Y-12446500I-40000J0D01*
G01*
X13909400Y-6095500D02*
G75*
G03*
X13909400Y-6095500I-40000J0D01*
G01*
X13909400Y-6349500D02*
G75*
G03*
X13909400Y-6349500I-40000J0D01*
G01*
X13909400Y-6603500D02*
G75*
G03*
X13909400Y-6603500I-40000J0D01*
G01*
X13909400Y-6857500D02*
G75*
G03*
X13909400Y-6857500I-40000J0D01*
G01*
X13909400Y-7111500D02*
G75*
G03*
X13909400Y-7111500I-40000J0D01*
G01*
X13909400Y-7365500D02*
G75*
G03*
X13909400Y-7365500I-40000J0D01*
G01*
X13909400Y-7619500D02*
G75*
G03*
X13909400Y-7619500I-40000J0D01*
G01*
X13909400Y-8508500D02*
G75*
G03*
X13909400Y-8508500I-40000J0D01*
G01*
X13909400Y-8762500D02*
G75*
G03*
X13909400Y-8762500I-40000J0D01*
G01*
X13909400Y-9016500D02*
G75*
G03*
X13909400Y-9016500I-40000J0D01*
G01*
X13909400Y-9270500D02*
G75*
G03*
X13909400Y-9270500I-40000J0D01*
G01*
X13909400Y-9524500D02*
G75*
G03*
X13909400Y-9524500I-40000J0D01*
G01*
X13909400Y-9778500D02*
G75*
G03*
X13909400Y-9778500I-40000J0D01*
G01*
X13909400Y-10032500D02*
G75*
G03*
X13909400Y-10032500I-40000J0D01*
G01*
X14164400Y-7924800D02*
G75*
G03*
X14164400Y-7924800I-40000J0D01*
G01*
X14164400Y-8204200D02*
G75*
G03*
X14164400Y-8204200I-40000J0D01*
G01*
X14213200Y-5181600D02*
G75*
G03*
X14213200Y-5181600I-40000J0D01*
G01*
X14414400Y-7924800D02*
G75*
G03*
X14414400Y-7924800I-40000J0D01*
G01*
X14414400Y-8204200D02*
G75*
G03*
X14414400Y-8204200I-40000J0D01*
G01*
X14568800Y-5511800D02*
G75*
G03*
X14568800Y-5511800I-40000J0D01*
G01*
X14670400Y-11197400D02*
G75*
G03*
X14670400Y-11197400I-40000J0D01*
G01*
X14670400Y-11451400D02*
G75*
G03*
X14670400Y-11451400I-40000J0D01*
G01*
X14670400Y-11705400D02*
G75*
G03*
X14670400Y-11705400I-40000J0D01*
G01*
X14670400Y-11959400D02*
G75*
G03*
X14670400Y-11959400I-40000J0D01*
G01*
X14670400Y-12213400D02*
G75*
G03*
X14670400Y-12213400I-40000J0D01*
G01*
X14671400Y-6095500D02*
G75*
G03*
X14671400Y-6095500I-40000J0D01*
G01*
X14671400Y-6349500D02*
G75*
G03*
X14671400Y-6349500I-40000J0D01*
G01*
X14671400Y-6603500D02*
G75*
G03*
X14671400Y-6603500I-40000J0D01*
G01*
X14671400Y-6857500D02*
G75*
G03*
X14671400Y-6857500I-40000J0D01*
G01*
X14671400Y-7111500D02*
G75*
G03*
X14671400Y-7111500I-40000J0D01*
G01*
X14671400Y-7365500D02*
G75*
G03*
X14671400Y-7365500I-40000J0D01*
G01*
X14671400Y-7619500D02*
G75*
G03*
X14671400Y-7619500I-40000J0D01*
G01*
X14671400Y-8508500D02*
G75*
G03*
X14671400Y-8508500I-40000J0D01*
G01*
X14671400Y-8762500D02*
G75*
G03*
X14671400Y-8762500I-40000J0D01*
G01*
X14671400Y-9016500D02*
G75*
G03*
X14671400Y-9016500I-40000J0D01*
G01*
X14671400Y-9270500D02*
G75*
G03*
X14671400Y-9270500I-40000J0D01*
G01*
X14671400Y-9524500D02*
G75*
G03*
X14671400Y-9524500I-40000J0D01*
G01*
X14671400Y-9778500D02*
G75*
G03*
X14671400Y-9778500I-40000J0D01*
G01*
X14671400Y-10032500D02*
G75*
G03*
X14671400Y-10032500I-40000J0D01*
G01*
X14873600Y-5511800D02*
G75*
G03*
X14873600Y-5511800I-40000J0D01*
G01*
X15229200Y-5181600D02*
G75*
G03*
X15229200Y-5181600I-40000J0D01*
G01*
X15356200Y-6350000D02*
G75*
G03*
X15356200Y-6350000I-40000J0D01*
G01*
X15356200Y-6600000D02*
G75*
G03*
X15356200Y-6600000I-40000J0D01*
G01*
X15356200Y-7747000D02*
G75*
G03*
X15356200Y-7747000I-40000J0D01*
G01*
X15356200Y-7997000D02*
G75*
G03*
X15356200Y-7997000I-40000J0D01*
G01*
X15534000Y-5181600D02*
G75*
G03*
X15534000Y-5181600I-40000J0D01*
G01*
X15661000Y-7490000D02*
G75*
G03*
X15661000Y-7490000I-40000J0D01*
G01*
X15661000Y-8252000D02*
G75*
G03*
X15661000Y-8252000I-40000J0D01*
G01*
X15661500Y-6093000D02*
G75*
G03*
X15661500Y-6093000I-40000J0D01*
G01*
X15661500Y-6855000D02*
G75*
G03*
X15661500Y-6855000I-40000J0D01*
G01*
X15865200Y-10547000D02*
G75*
G03*
X15865200Y-10547000I-40000J0D01*
G01*
X15865200Y-10797000D02*
G75*
G03*
X15865200Y-10797000I-40000J0D01*
G01*
X15865200Y-11941000D02*
G75*
G03*
X15865200Y-11941000I-40000J0D01*
G01*
X15865200Y-12191000D02*
G75*
G03*
X15865200Y-12191000I-40000J0D01*
G01*
X15889600Y-5511800D02*
G75*
G03*
X15889600Y-5511800I-40000J0D01*
G01*
X15915000Y-7490000D02*
G75*
G03*
X15915000Y-7490000I-40000J0D01*
G01*
X15915000Y-8252000D02*
G75*
G03*
X15915000Y-8252000I-40000J0D01*
G01*
X15915500Y-6093000D02*
G75*
G03*
X15915500Y-6093000I-40000J0D01*
G01*
X15915500Y-6855000D02*
G75*
G03*
X15915500Y-6855000I-40000J0D01*
G01*
X16118700Y-9147000D02*
G75*
G03*
X16118700Y-9147000I-40000J0D01*
G01*
X16118700Y-9397000D02*
G75*
G03*
X16118700Y-9397000I-40000J0D01*
G01*
X16169000Y-7490000D02*
G75*
G03*
X16169000Y-7490000I-40000J0D01*
G01*
X16169000Y-8252000D02*
G75*
G03*
X16169000Y-8252000I-40000J0D01*
G01*
X16169000Y-10290000D02*
G75*
G03*
X16169000Y-10290000I-40000J0D01*
G01*
X16169000Y-11052000D02*
G75*
G03*
X16169000Y-11052000I-40000J0D01*
G01*
X16169000Y-11684000D02*
G75*
G03*
X16169000Y-11684000I-40000J0D01*
G01*
X16169000Y-12446000D02*
G75*
G03*
X16169000Y-12446000I-40000J0D01*
G01*
X16169500Y-6093000D02*
G75*
G03*
X16169500Y-6093000I-40000J0D01*
G01*
X16169500Y-6855000D02*
G75*
G03*
X16169500Y-6855000I-40000J0D01*
G01*
X16194400Y-5511800D02*
G75*
G03*
X16194400Y-5511800I-40000J0D01*
G01*
X16423000Y-7490000D02*
G75*
G03*
X16423000Y-7490000I-40000J0D01*
G01*
X16423000Y-8252000D02*
G75*
G03*
X16423000Y-8252000I-40000J0D01*
G01*
X16423000Y-8890000D02*
G75*
G03*
X16423000Y-8890000I-40000J0D01*
G01*
X16423000Y-9652000D02*
G75*
G03*
X16423000Y-9652000I-40000J0D01*
G01*
X16423000Y-10290000D02*
G75*
G03*
X16423000Y-10290000I-40000J0D01*
G01*
X16423000Y-11052000D02*
G75*
G03*
X16423000Y-11052000I-40000J0D01*
G01*
X16423000Y-11684000D02*
G75*
G03*
X16423000Y-11684000I-40000J0D01*
G01*
X16423000Y-12446000D02*
G75*
G03*
X16423000Y-12446000I-40000J0D01*
G01*
X16423500Y-6093000D02*
G75*
G03*
X16423500Y-6093000I-40000J0D01*
G01*
X16423500Y-6855000D02*
G75*
G03*
X16423500Y-6855000I-40000J0D01*
G01*
X16550000Y-5181600D02*
G75*
G03*
X16550000Y-5181600I-40000J0D01*
G01*
X16677000Y-7490000D02*
G75*
G03*
X16677000Y-7490000I-40000J0D01*
G01*
X16677000Y-8252000D02*
G75*
G03*
X16677000Y-8252000I-40000J0D01*
G01*
X16677000Y-8890000D02*
G75*
G03*
X16677000Y-8890000I-40000J0D01*
G01*
X16677000Y-9652000D02*
G75*
G03*
X16677000Y-9652000I-40000J0D01*
G01*
X16677000Y-10290000D02*
G75*
G03*
X16677000Y-10290000I-40000J0D01*
G01*
X16677000Y-11052000D02*
G75*
G03*
X16677000Y-11052000I-40000J0D01*
G01*
X16677000Y-11684000D02*
G75*
G03*
X16677000Y-11684000I-40000J0D01*
G01*
X16677000Y-12446000D02*
G75*
G03*
X16677000Y-12446000I-40000J0D01*
G01*
X16677500Y-6093000D02*
G75*
G03*
X16677500Y-6093000I-40000J0D01*
G01*
X16677500Y-6855000D02*
G75*
G03*
X16677500Y-6855000I-40000J0D01*
G01*
X16854800Y-5181600D02*
G75*
G03*
X16854800Y-5181600I-40000J0D01*
G01*
X16931000Y-7490000D02*
G75*
G03*
X16931000Y-7490000I-40000J0D01*
G01*
X16931000Y-8252000D02*
G75*
G03*
X16931000Y-8252000I-40000J0D01*
G01*
X16931000Y-8890000D02*
G75*
G03*
X16931000Y-8890000I-40000J0D01*
G01*
X16931000Y-9652000D02*
G75*
G03*
X16931000Y-9652000I-40000J0D01*
G01*
X16931000Y-10290000D02*
G75*
G03*
X16931000Y-10290000I-40000J0D01*
G01*
X16931000Y-11052000D02*
G75*
G03*
X16931000Y-11052000I-40000J0D01*
G01*
X16931000Y-11684000D02*
G75*
G03*
X16931000Y-11684000I-40000J0D01*
G01*
X16931000Y-12446000D02*
G75*
G03*
X16931000Y-12446000I-40000J0D01*
G01*
X16931500Y-6093000D02*
G75*
G03*
X16931500Y-6093000I-40000J0D01*
G01*
X16931500Y-6855000D02*
G75*
G03*
X16931500Y-6855000I-40000J0D01*
G01*
X17185000Y-7490000D02*
G75*
G03*
X17185000Y-7490000I-40000J0D01*
G01*
X17185000Y-8252000D02*
G75*
G03*
X17185000Y-8252000I-40000J0D01*
G01*
X17185000Y-8890000D02*
G75*
G03*
X17185000Y-8890000I-40000J0D01*
G01*
X17185000Y-9652000D02*
G75*
G03*
X17185000Y-9652000I-40000J0D01*
G01*
X17185000Y-10290000D02*
G75*
G03*
X17185000Y-10290000I-40000J0D01*
G01*
X17185000Y-11052000D02*
G75*
G03*
X17185000Y-11052000I-40000J0D01*
G01*
X17185000Y-11684000D02*
G75*
G03*
X17185000Y-11684000I-40000J0D01*
G01*
X17185000Y-12446000D02*
G75*
G03*
X17185000Y-12446000I-40000J0D01*
G01*
X17185500Y-6093000D02*
G75*
G03*
X17185500Y-6093000I-40000J0D01*
G01*
X17185500Y-6855000D02*
G75*
G03*
X17185500Y-6855000I-40000J0D01*
G01*
X17210400Y-5511800D02*
G75*
G03*
X17210400Y-5511800I-40000J0D01*
G01*
X17439000Y-7490000D02*
G75*
G03*
X17439000Y-7490000I-40000J0D01*
G01*
X17439000Y-8252000D02*
G75*
G03*
X17439000Y-8252000I-40000J0D01*
G01*
X17439000Y-8890000D02*
G75*
G03*
X17439000Y-8890000I-40000J0D01*
G01*
X17439000Y-9652000D02*
G75*
G03*
X17439000Y-9652000I-40000J0D01*
G01*
X17439000Y-10290000D02*
G75*
G03*
X17439000Y-10290000I-40000J0D01*
G01*
X17439000Y-11052000D02*
G75*
G03*
X17439000Y-11052000I-40000J0D01*
G01*
X17439000Y-11684000D02*
G75*
G03*
X17439000Y-11684000I-40000J0D01*
G01*
X17439000Y-12446000D02*
G75*
G03*
X17439000Y-12446000I-40000J0D01*
G01*
X17439500Y-6093000D02*
G75*
G03*
X17439500Y-6093000I-40000J0D01*
G01*
X17439500Y-6855000D02*
G75*
G03*
X17439500Y-6855000I-40000J0D01*
G01*
X17693000Y-7490000D02*
G75*
G03*
X17693000Y-7490000I-40000J0D01*
G01*
X17693000Y-8252000D02*
G75*
G03*
X17693000Y-8252000I-40000J0D01*
G01*
X17693000Y-8890000D02*
G75*
G03*
X17693000Y-8890000I-40000J0D01*
G01*
X17693000Y-9652000D02*
G75*
G03*
X17693000Y-9652000I-40000J0D01*
G01*
X17693000Y-10290000D02*
G75*
G03*
X17693000Y-10290000I-40000J0D01*
G01*
X17693000Y-11052000D02*
G75*
G03*
X17693000Y-11052000I-40000J0D01*
G01*
X17693000Y-11684000D02*
G75*
G03*
X17693000Y-11684000I-40000J0D01*
G01*
X17693000Y-12446000D02*
G75*
G03*
X17693000Y-12446000I-40000J0D01*
G01*
X17693500Y-6093000D02*
G75*
G03*
X17693500Y-6093000I-40000J0D01*
G01*
X17693500Y-6855000D02*
G75*
G03*
X17693500Y-6855000I-40000J0D01*
G01*
X17870800Y-5181600D02*
G75*
G03*
X17870800Y-5181600I-40000J0D01*
G01*
X17947000Y-7490000D02*
G75*
G03*
X17947000Y-7490000I-40000J0D01*
G01*
X17947000Y-8252000D02*
G75*
G03*
X17947000Y-8252000I-40000J0D01*
G01*
X17947000Y-8890000D02*
G75*
G03*
X17947000Y-8890000I-40000J0D01*
G01*
X17947000Y-9652000D02*
G75*
G03*
X17947000Y-9652000I-40000J0D01*
G01*
X17947000Y-10290000D02*
G75*
G03*
X17947000Y-10290000I-40000J0D01*
G01*
X17947000Y-11052000D02*
G75*
G03*
X17947000Y-11052000I-40000J0D01*
G01*
X17947000Y-11684000D02*
G75*
G03*
X17947000Y-11684000I-40000J0D01*
G01*
X17947000Y-12446000D02*
G75*
G03*
X17947000Y-12446000I-40000J0D01*
G01*
X17947500Y-6093000D02*
G75*
G03*
X17947500Y-6093000I-40000J0D01*
G01*
X17947500Y-6855000D02*
G75*
G03*
X17947500Y-6855000I-40000J0D01*
G01*
D13*
X9269000Y-4707900D02*
X9269000Y-4797900D01*
X9224000Y-4752900D02*
X9314000Y-4752900D01*
X9523000Y-4707900D02*
X9523000Y-4797900D01*
X9478000Y-4752900D02*
X9568000Y-4752900D01*
X9929400Y-4707900D02*
X9929400Y-4797900D01*
X9884400Y-4752900D02*
X9974400Y-4752900D01*
X10183400Y-4707900D02*
X10183400Y-4797900D01*
X10138400Y-4752900D02*
X10228400Y-4752900D01*
X10589800Y-4707900D02*
X10589800Y-4797900D01*
X10544800Y-4752900D02*
X10634800Y-4752900D01*
X10843800Y-4707900D02*
X10843800Y-4797900D01*
X10798800Y-4752900D02*
X10888800Y-4752900D01*
X11250200Y-4707900D02*
X11250200Y-4797900D01*
X11205200Y-4752900D02*
X11295200Y-4752900D01*
X11504200Y-4707900D02*
X11504200Y-4797900D01*
X11459200Y-4752900D02*
X11549200Y-4752900D01*
X11910600Y-4707900D02*
X11910600Y-4797900D01*
X11865600Y-4752900D02*
X11955600Y-4752900D01*
X12164600Y-4707900D02*
X12164600Y-4797900D01*
X12119600Y-4752900D02*
X12209600Y-4752900D01*
X12571000Y-4707900D02*
X12571000Y-4797900D01*
X12526000Y-4752900D02*
X12616000Y-4752900D01*
X12825000Y-4707900D02*
X12825000Y-4797900D01*
X12780000Y-4752900D02*
X12870000Y-4752900D01*
X13231400Y-4707900D02*
X13231400Y-4797900D01*
X13186400Y-4752900D02*
X13276400Y-4752900D01*
X13485400Y-4707900D02*
X13485400Y-4797900D01*
X13440400Y-4752900D02*
X13530400Y-4752900D01*
X13891800Y-4707900D02*
X13891800Y-4797900D01*
X13846800Y-4752900D02*
X13936800Y-4752900D01*
X14145800Y-4707900D02*
X14145800Y-4797900D01*
X14100800Y-4752900D02*
X14190800Y-4752900D01*
X14552200Y-4707900D02*
X14552200Y-4797900D01*
X14507200Y-4752900D02*
X14597200Y-4752900D01*
X14806200Y-4707900D02*
X14806200Y-4797900D01*
X14761200Y-4752900D02*
X14851200Y-4752900D01*
X15212600Y-4707900D02*
X15212600Y-4797900D01*
X15167600Y-4752900D02*
X15257600Y-4752900D01*
X15466600Y-4707900D02*
X15466600Y-4797900D01*
X15421600Y-4752900D02*
X15511600Y-4752900D01*
X15873000Y-4707900D02*
X15873000Y-4797900D01*
X15828000Y-4752900D02*
X15918000Y-4752900D01*
X16127000Y-4707900D02*
X16127000Y-4797900D01*
X16082000Y-4752900D02*
X16172000Y-4752900D01*
X16533400Y-4707900D02*
X16533400Y-4797900D01*
X16488400Y-4752900D02*
X16578400Y-4752900D01*
X16787400Y-4707900D02*
X16787400Y-4797900D01*
X16742400Y-4752900D02*
X16832400Y-4752900D01*
X17193800Y-4707900D02*
X17193800Y-4797900D01*
X17148800Y-4752900D02*
X17238800Y-4752900D01*
X17447800Y-4707900D02*
X17447800Y-4797900D01*
X17402800Y-4752900D02*
X17492800Y-4752900D01*
D10*
X257619Y-310476D02*
X257619Y-110476D01*
X305238Y-110476D01*
X333810Y-120000D01*
X352857Y-139048D01*
X362381Y-158095D01*
X371905Y-196190D01*
X371905Y-224762D01*
X362381Y-262857D01*
X352857Y-281905D01*
X333810Y-300952D01*
X305238Y-310476D01*
X257619Y-310476D01*
X457619Y-310476D02*
X457619Y-177143D01*
X457619Y-215238D02*
X467143Y-196190D01*
X476667Y-186667D01*
X495714Y-177143D01*
X514762Y-177143D01*
X581429Y-310476D02*
X581429Y-177143D01*
X581429Y-110476D02*
X571905Y-120000D01*
X581429Y-129524D01*
X590952Y-120000D01*
X581429Y-110476D01*
X581429Y-129524D01*
X705238Y-310476D02*
X686190Y-300952D01*
X676667Y-281905D01*
X676667Y-110476D01*
X810000Y-310476D02*
X790952Y-300952D01*
X781428Y-281905D01*
X781428Y-110476D01*
X1038571Y-310476D02*
X1038571Y-110476D01*
X1105238Y-253333D01*
X1171905Y-110476D01*
X1171905Y-310476D01*
X1352857Y-310476D02*
X1352857Y-205714D01*
X1343333Y-186667D01*
X1324286Y-177143D01*
X1286190Y-177143D01*
X1267143Y-186667D01*
X1352857Y-300952D02*
X1333810Y-310476D01*
X1286190Y-310476D01*
X1267143Y-300952D01*
X1257619Y-281905D01*
X1257619Y-262857D01*
X1267143Y-243809D01*
X1286190Y-234286D01*
X1333810Y-234286D01*
X1352857Y-224762D01*
X1448095Y-177143D02*
X1448095Y-377143D01*
X1448095Y-186667D02*
X1467143Y-177143D01*
X1505238Y-177143D01*
X1524286Y-186667D01*
X1533809Y-196190D01*
X1543333Y-215238D01*
X1543333Y-272381D01*
X1533809Y-291429D01*
X1524286Y-300952D01*
X1505238Y-310476D01*
X1467143Y-310476D01*
X1448095Y-300952D01*
X1629048Y-291429D02*
X1638571Y-300952D01*
X1629048Y-310476D01*
X1619524Y-300952D01*
X1629048Y-291429D01*
X1629048Y-310476D01*
X1629048Y-186667D02*
X1638571Y-196190D01*
X1629048Y-205714D01*
X1619524Y-196190D01*
X1629048Y-186667D01*
X1629048Y-205714D01*
D11*
X-40000Y-620000D02*
X0Y-660000D01*
X0Y-620000D02*
X-40000Y-660000D01*
D10*
X295714Y-530476D02*
X314762Y-530476D01*
X333810Y-540000D01*
X343333Y-549524D01*
X352857Y-568571D01*
X362381Y-606667D01*
X362381Y-654286D01*
X352857Y-692381D01*
X343333Y-711428D01*
X333810Y-720952D01*
X314762Y-730476D01*
X295714Y-730476D01*
X276667Y-720952D01*
X267143Y-711428D01*
X257619Y-692381D01*
X248095Y-654286D01*
X248095Y-606667D01*
X257619Y-568571D01*
X267143Y-549524D01*
X276667Y-540000D01*
X295714Y-530476D01*
X448095Y-711428D02*
X457619Y-720952D01*
X448095Y-730476D01*
X438571Y-720952D01*
X448095Y-711428D01*
X448095Y-730476D01*
X629048Y-597143D02*
X629048Y-730476D01*
X581429Y-520952D02*
X533810Y-663810D01*
X657619Y-663810D01*
X771905Y-530476D02*
X790952Y-530476D01*
X810000Y-540000D01*
X819524Y-549524D01*
X829048Y-568571D01*
X838571Y-606667D01*
X838571Y-654286D01*
X829048Y-692381D01*
X819524Y-711428D01*
X810000Y-720952D01*
X790952Y-730476D01*
X771905Y-730476D01*
X752857Y-720952D01*
X743333Y-711428D01*
X733809Y-692381D01*
X724286Y-654286D01*
X724286Y-606667D01*
X733809Y-568571D01*
X743333Y-549524D01*
X752857Y-540000D01*
X771905Y-530476D01*
X962381Y-530476D02*
X981428Y-530476D01*
X1000476Y-540000D01*
X1010000Y-549524D01*
X1019524Y-568571D01*
X1029048Y-606667D01*
X1029048Y-654286D01*
X1019524Y-692381D01*
X1010000Y-711428D01*
X1000476Y-720952D01*
X981428Y-730476D01*
X962381Y-730476D01*
X943333Y-720952D01*
X933809Y-711428D01*
X924286Y-692381D01*
X914762Y-654286D01*
X914762Y-606667D01*
X924286Y-568571D01*
X933809Y-549524D01*
X943333Y-540000D01*
X962381Y-530476D01*
X1114762Y-730476D02*
X1114762Y-597143D01*
X1114762Y-616190D02*
X1124286Y-606667D01*
X1143333Y-597143D01*
X1171905Y-597143D01*
X1190952Y-606667D01*
X1200476Y-625714D01*
X1200476Y-730476D01*
X1200476Y-625714D02*
X1210000Y-606667D01*
X1229048Y-597143D01*
X1257619Y-597143D01*
X1276667Y-606667D01*
X1286190Y-625714D01*
X1286190Y-730476D01*
X1381429Y-730476D02*
X1381429Y-597143D01*
X1381429Y-616190D02*
X1390952Y-606667D01*
X1410000Y-597143D01*
X1438571Y-597143D01*
X1457619Y-606667D01*
X1467143Y-625714D01*
X1467143Y-730476D01*
X1467143Y-625714D02*
X1476667Y-606667D01*
X1495714Y-597143D01*
X1524286Y-597143D01*
X1543333Y-606667D01*
X1552857Y-625714D01*
X1552857Y-730476D01*
X1943333Y-520952D02*
X1771905Y-778095D01*
X2200476Y-530476D02*
X2219524Y-530476D01*
X2238571Y-540000D01*
X2248095Y-549524D01*
X2257619Y-568571D01*
X2267143Y-606667D01*
X2267143Y-654286D01*
X2257619Y-692381D01*
X2248095Y-711428D01*
X2238571Y-720952D01*
X2219524Y-730476D01*
X2200476Y-730476D01*
X2181429Y-720952D01*
X2171905Y-711428D01*
X2162381Y-692381D01*
X2152857Y-654286D01*
X2152857Y-606667D01*
X2162381Y-568571D01*
X2171905Y-549524D01*
X2181429Y-540000D01*
X2200476Y-530476D01*
X2352857Y-711428D02*
X2362381Y-720952D01*
X2352857Y-730476D01*
X2343333Y-720952D01*
X2352857Y-711428D01*
X2352857Y-730476D01*
X2486190Y-530476D02*
X2505238Y-530476D01*
X2524286Y-540000D01*
X2533810Y-549524D01*
X2543333Y-568571D01*
X2552857Y-606667D01*
X2552857Y-654286D01*
X2543333Y-692381D01*
X2533810Y-711428D01*
X2524286Y-720952D01*
X2505238Y-730476D01*
X2486190Y-730476D01*
X2467143Y-720952D01*
X2457619Y-711428D01*
X2448095Y-692381D01*
X2438571Y-654286D01*
X2438571Y-606667D01*
X2448095Y-568571D01*
X2457619Y-549524D01*
X2467143Y-540000D01*
X2486190Y-530476D01*
X2743333Y-730476D02*
X2629048Y-730476D01*
X2686190Y-730476D02*
X2686190Y-530476D01*
X2667143Y-559048D01*
X2648095Y-578095D01*
X2629048Y-587619D01*
X2924286Y-530476D02*
X2829048Y-530476D01*
X2819524Y-625714D01*
X2829048Y-616190D01*
X2848095Y-606667D01*
X2895714Y-606667D01*
X2914762Y-616190D01*
X2924286Y-625714D01*
X2933809Y-644762D01*
X2933809Y-692381D01*
X2924286Y-711428D01*
X2914762Y-720952D01*
X2895714Y-730476D01*
X2848095Y-730476D01*
X2829048Y-720952D01*
X2819524Y-711428D01*
X3000476Y-530476D02*
X3133809Y-530476D01*
X3048095Y-730476D01*
X3200476Y-530476D02*
X3200476Y-568571D01*
X3276667Y-530476D02*
X3276667Y-568571D01*
X3571905Y-806667D02*
X3562381Y-797143D01*
X3543333Y-768571D01*
X3533809Y-749524D01*
X3524286Y-720952D01*
X3514762Y-673333D01*
X3514762Y-635238D01*
X3524286Y-587619D01*
X3533809Y-559048D01*
X3543333Y-540000D01*
X3562381Y-511428D01*
X3571905Y-501905D01*
X3733809Y-530476D02*
X3695714Y-530476D01*
X3676667Y-540000D01*
X3667143Y-549524D01*
X3648095Y-578095D01*
X3638571Y-616190D01*
X3638571Y-692381D01*
X3648095Y-711428D01*
X3657619Y-720952D01*
X3676667Y-730476D01*
X3714762Y-730476D01*
X3733809Y-720952D01*
X3743333Y-711428D01*
X3752857Y-692381D01*
X3752857Y-644762D01*
X3743333Y-625714D01*
X3733809Y-616190D01*
X3714762Y-606667D01*
X3676667Y-606667D01*
X3657619Y-616190D01*
X3648095Y-625714D01*
X3638571Y-644762D01*
X3867143Y-616190D02*
X3848095Y-606667D01*
X3838571Y-597143D01*
X3829048Y-578095D01*
X3829048Y-568571D01*
X3838571Y-549524D01*
X3848095Y-540000D01*
X3867143Y-530476D01*
X3905238Y-530476D01*
X3924286Y-540000D01*
X3933809Y-549524D01*
X3943333Y-568571D01*
X3943333Y-578095D01*
X3933809Y-597143D01*
X3924286Y-606667D01*
X3905238Y-616190D01*
X3867143Y-616190D01*
X3848095Y-625714D01*
X3838571Y-635238D01*
X3829048Y-654286D01*
X3829048Y-692381D01*
X3838571Y-711428D01*
X3848095Y-720952D01*
X3867143Y-730476D01*
X3905238Y-730476D01*
X3924286Y-720952D01*
X3933809Y-711428D01*
X3943333Y-692381D01*
X3943333Y-654286D01*
X3933809Y-635238D01*
X3924286Y-625714D01*
X3905238Y-616190D01*
X4181428Y-730476D02*
X4181428Y-530476D01*
X4267143Y-730476D02*
X4267143Y-625714D01*
X4257619Y-606667D01*
X4238571Y-597143D01*
X4210000Y-597143D01*
X4190952Y-606667D01*
X4181428Y-616190D01*
X4390952Y-730476D02*
X4371905Y-720952D01*
X4362381Y-711428D01*
X4352857Y-692381D01*
X4352857Y-635238D01*
X4362381Y-616190D01*
X4371905Y-606667D01*
X4390952Y-597143D01*
X4419524Y-597143D01*
X4438571Y-606667D01*
X4448095Y-616190D01*
X4457619Y-635238D01*
X4457619Y-692381D01*
X4448095Y-711428D01*
X4438571Y-720952D01*
X4419524Y-730476D01*
X4390952Y-730476D01*
X4571905Y-730476D02*
X4552857Y-720952D01*
X4543333Y-701905D01*
X4543333Y-530476D01*
X4724286Y-720952D02*
X4705238Y-730476D01*
X4667143Y-730476D01*
X4648095Y-720952D01*
X4638571Y-701905D01*
X4638571Y-625714D01*
X4648095Y-606667D01*
X4667143Y-597143D01*
X4705238Y-597143D01*
X4724286Y-606667D01*
X4733810Y-625714D01*
X4733810Y-644762D01*
X4638571Y-663810D01*
X4810000Y-720952D02*
X4829048Y-730476D01*
X4867143Y-730476D01*
X4886190Y-720952D01*
X4895714Y-701905D01*
X4895714Y-692381D01*
X4886190Y-673333D01*
X4867143Y-663810D01*
X4838571Y-663810D01*
X4819524Y-654286D01*
X4810000Y-635238D01*
X4810000Y-625714D01*
X4819524Y-606667D01*
X4838571Y-597143D01*
X4867143Y-597143D01*
X4886190Y-606667D01*
X4962381Y-806667D02*
X4971905Y-797143D01*
X4990952Y-768571D01*
X5000476Y-749524D01*
X5010000Y-720952D01*
X5019524Y-673333D01*
X5019524Y-635238D01*
X5010000Y-587619D01*
X5000476Y-559048D01*
X4990952Y-540000D01*
X4971905Y-511428D01*
X4962381Y-501905D01*
D12*
X0Y-904000D02*
G75*
G03*
X0Y-904000I-40000J0D01*
G01*
D10*
X295714Y-794476D02*
X314762Y-794476D01*
X333810Y-804000D01*
X343333Y-813524D01*
X352857Y-832571D01*
X362381Y-870667D01*
X362381Y-918286D01*
X352857Y-956381D01*
X343333Y-975428D01*
X333810Y-984952D01*
X314762Y-994476D01*
X295714Y-994476D01*
X276667Y-984952D01*
X267143Y-975428D01*
X257619Y-956381D01*
X248095Y-918286D01*
X248095Y-870667D01*
X257619Y-832571D01*
X267143Y-813524D01*
X276667Y-804000D01*
X295714Y-794476D01*
X448095Y-975428D02*
X457619Y-984952D01*
X448095Y-994476D01*
X438571Y-984952D01*
X448095Y-975428D01*
X448095Y-994476D01*
X571905Y-880190D02*
X552857Y-870667D01*
X543333Y-861143D01*
X533810Y-842095D01*
X533810Y-832571D01*
X543333Y-813524D01*
X552857Y-804000D01*
X571905Y-794476D01*
X610000Y-794476D01*
X629048Y-804000D01*
X638571Y-813524D01*
X648095Y-832571D01*
X648095Y-842095D01*
X638571Y-861143D01*
X629048Y-870667D01*
X610000Y-880190D01*
X571905Y-880190D01*
X552857Y-889714D01*
X543333Y-899238D01*
X533810Y-918286D01*
X533810Y-956381D01*
X543333Y-975428D01*
X552857Y-984952D01*
X571905Y-994476D01*
X610000Y-994476D01*
X629048Y-984952D01*
X638571Y-975428D01*
X648095Y-956381D01*
X648095Y-918286D01*
X638571Y-899238D01*
X629048Y-889714D01*
X610000Y-880190D01*
X771905Y-794476D02*
X790952Y-794476D01*
X810000Y-804000D01*
X819524Y-813524D01*
X829048Y-832571D01*
X838571Y-870667D01*
X838571Y-918286D01*
X829048Y-956381D01*
X819524Y-975428D01*
X810000Y-984952D01*
X790952Y-994476D01*
X771905Y-994476D01*
X752857Y-984952D01*
X743333Y-975428D01*
X733809Y-956381D01*
X724286Y-918286D01*
X724286Y-870667D01*
X733809Y-832571D01*
X743333Y-813524D01*
X752857Y-804000D01*
X771905Y-794476D01*
X962381Y-794476D02*
X981428Y-794476D01*
X1000476Y-804000D01*
X1010000Y-813524D01*
X1019524Y-832571D01*
X1029048Y-870667D01*
X1029048Y-918286D01*
X1019524Y-956381D01*
X1010000Y-975428D01*
X1000476Y-984952D01*
X981428Y-994476D01*
X962381Y-994476D01*
X943333Y-984952D01*
X933809Y-975428D01*
X924286Y-956381D01*
X914762Y-918286D01*
X914762Y-870667D01*
X924286Y-832571D01*
X933809Y-813524D01*
X943333Y-804000D01*
X962381Y-794476D01*
X1114762Y-994476D02*
X1114762Y-861143D01*
X1114762Y-880190D02*
X1124286Y-870667D01*
X1143333Y-861143D01*
X1171905Y-861143D01*
X1190952Y-870667D01*
X1200476Y-889714D01*
X1200476Y-994476D01*
X1200476Y-889714D02*
X1210000Y-870667D01*
X1229048Y-861143D01*
X1257619Y-861143D01*
X1276667Y-870667D01*
X1286190Y-889714D01*
X1286190Y-994476D01*
X1381429Y-994476D02*
X1381429Y-861143D01*
X1381429Y-880190D02*
X1390952Y-870667D01*
X1410000Y-861143D01*
X1438571Y-861143D01*
X1457619Y-870667D01*
X1467143Y-889714D01*
X1467143Y-994476D01*
X1467143Y-889714D02*
X1476667Y-870667D01*
X1495714Y-861143D01*
X1524286Y-861143D01*
X1543333Y-870667D01*
X1552857Y-889714D01*
X1552857Y-994476D01*
X1943333Y-784952D02*
X1771905Y-1042095D01*
X2200476Y-794476D02*
X2219524Y-794476D01*
X2238571Y-804000D01*
X2248095Y-813524D01*
X2257619Y-832571D01*
X2267143Y-870667D01*
X2267143Y-918286D01*
X2257619Y-956381D01*
X2248095Y-975428D01*
X2238571Y-984952D01*
X2219524Y-994476D01*
X2200476Y-994476D01*
X2181429Y-984952D01*
X2171905Y-975428D01*
X2162381Y-956381D01*
X2152857Y-918286D01*
X2152857Y-870667D01*
X2162381Y-832571D01*
X2171905Y-813524D01*
X2181429Y-804000D01*
X2200476Y-794476D01*
X2352857Y-975428D02*
X2362381Y-984952D01*
X2352857Y-994476D01*
X2343333Y-984952D01*
X2352857Y-975428D01*
X2352857Y-994476D01*
X2486190Y-794476D02*
X2505238Y-794476D01*
X2524286Y-804000D01*
X2533810Y-813524D01*
X2543333Y-832571D01*
X2552857Y-870667D01*
X2552857Y-918286D01*
X2543333Y-956381D01*
X2533810Y-975428D01*
X2524286Y-984952D01*
X2505238Y-994476D01*
X2486190Y-994476D01*
X2467143Y-984952D01*
X2457619Y-975428D01*
X2448095Y-956381D01*
X2438571Y-918286D01*
X2438571Y-870667D01*
X2448095Y-832571D01*
X2457619Y-813524D01*
X2467143Y-804000D01*
X2486190Y-794476D01*
X2619524Y-794476D02*
X2743333Y-794476D01*
X2676667Y-870667D01*
X2705238Y-870667D01*
X2724286Y-880190D01*
X2733810Y-889714D01*
X2743333Y-908762D01*
X2743333Y-956381D01*
X2733810Y-975428D01*
X2724286Y-984952D01*
X2705238Y-994476D01*
X2648095Y-994476D01*
X2629048Y-984952D01*
X2619524Y-975428D01*
X2933809Y-994476D02*
X2819524Y-994476D01*
X2876667Y-994476D02*
X2876667Y-794476D01*
X2857619Y-823048D01*
X2838571Y-842095D01*
X2819524Y-851619D01*
X3114762Y-794476D02*
X3019524Y-794476D01*
X3010000Y-889714D01*
X3019524Y-880190D01*
X3038571Y-870667D01*
X3086190Y-870667D01*
X3105238Y-880190D01*
X3114762Y-889714D01*
X3124286Y-908762D01*
X3124286Y-956381D01*
X3114762Y-975428D01*
X3105238Y-984952D01*
X3086190Y-994476D01*
X3038571Y-994476D01*
X3019524Y-984952D01*
X3010000Y-975428D01*
X3200476Y-794476D02*
X3200476Y-832571D01*
X3276667Y-794476D02*
X3276667Y-832571D01*
X3571905Y-1070667D02*
X3562381Y-1061143D01*
X3543333Y-1032571D01*
X3533809Y-1013524D01*
X3524286Y-984952D01*
X3514762Y-937333D01*
X3514762Y-899238D01*
X3524286Y-851619D01*
X3533809Y-823048D01*
X3543333Y-804000D01*
X3562381Y-775428D01*
X3571905Y-765905D01*
X3638571Y-813524D02*
X3648095Y-804000D01*
X3667143Y-794476D01*
X3714762Y-794476D01*
X3733809Y-804000D01*
X3743333Y-813524D01*
X3752857Y-832571D01*
X3752857Y-851619D01*
X3743333Y-880190D01*
X3629048Y-994476D01*
X3752857Y-994476D01*
X3924286Y-794476D02*
X3886190Y-794476D01*
X3867143Y-804000D01*
X3857619Y-813524D01*
X3838571Y-842095D01*
X3829048Y-880190D01*
X3829048Y-956381D01*
X3838571Y-975428D01*
X3848095Y-984952D01*
X3867143Y-994476D01*
X3905238Y-994476D01*
X3924286Y-984952D01*
X3933809Y-975428D01*
X3943333Y-956381D01*
X3943333Y-908762D01*
X3933809Y-889714D01*
X3924286Y-880190D01*
X3905238Y-870667D01*
X3867143Y-870667D01*
X3848095Y-880190D01*
X3838571Y-889714D01*
X3829048Y-908762D01*
X4038571Y-994476D02*
X4076667Y-994476D01*
X4095714Y-984952D01*
X4105238Y-975428D01*
X4124286Y-946857D01*
X4133809Y-908762D01*
X4133809Y-832571D01*
X4124286Y-813524D01*
X4114762Y-804000D01*
X4095714Y-794476D01*
X4057619Y-794476D01*
X4038571Y-804000D01*
X4029048Y-813524D01*
X4019524Y-832571D01*
X4019524Y-880190D01*
X4029048Y-899238D01*
X4038571Y-908762D01*
X4057619Y-918286D01*
X4095714Y-918286D01*
X4114762Y-908762D01*
X4124286Y-899238D01*
X4133809Y-880190D01*
X4371905Y-994476D02*
X4371905Y-794476D01*
X4457619Y-994476D02*
X4457619Y-889714D01*
X4448095Y-870667D01*
X4429048Y-861143D01*
X4400476Y-861143D01*
X4381429Y-870667D01*
X4371905Y-880190D01*
X4581429Y-994476D02*
X4562381Y-984952D01*
X4552857Y-975428D01*
X4543333Y-956381D01*
X4543333Y-899238D01*
X4552857Y-880190D01*
X4562381Y-870667D01*
X4581429Y-861143D01*
X4610000Y-861143D01*
X4629048Y-870667D01*
X4638571Y-880190D01*
X4648095Y-899238D01*
X4648095Y-956381D01*
X4638571Y-975428D01*
X4629048Y-984952D01*
X4610000Y-994476D01*
X4581429Y-994476D01*
X4762381Y-994476D02*
X4743333Y-984952D01*
X4733810Y-965905D01*
X4733810Y-794476D01*
X4914762Y-984952D02*
X4895714Y-994476D01*
X4857619Y-994476D01*
X4838571Y-984952D01*
X4829048Y-965905D01*
X4829048Y-889714D01*
X4838571Y-870667D01*
X4857619Y-861143D01*
X4895714Y-861143D01*
X4914762Y-870667D01*
X4924286Y-889714D01*
X4924286Y-908762D01*
X4829048Y-927809D01*
X5000476Y-984952D02*
X5019524Y-994476D01*
X5057619Y-994476D01*
X5076667Y-984952D01*
X5086190Y-965905D01*
X5086190Y-956381D01*
X5076667Y-937333D01*
X5057619Y-927809D01*
X5029048Y-927809D01*
X5010000Y-918286D01*
X5000476Y-899238D01*
X5000476Y-889714D01*
X5010000Y-870667D01*
X5029048Y-861143D01*
X5057619Y-861143D01*
X5076667Y-870667D01*
X5152857Y-1070667D02*
X5162381Y-1061143D01*
X5181429Y-1032571D01*
X5190952Y-1013524D01*
X5200476Y-984952D01*
X5210000Y-937333D01*
X5210000Y-899238D01*
X5200476Y-851619D01*
X5190952Y-823048D01*
X5181429Y-804000D01*
X5162381Y-775428D01*
X5152857Y-765905D01*
D13*
X-45000Y-1123000D02*
X-45000Y-1213000D01*
X-90000Y-1168000D02*
X0Y-1168000D01*
D10*
X295714Y-1058476D02*
X314762Y-1058476D01*
X333810Y-1068000D01*
X343333Y-1077524D01*
X352857Y-1096571D01*
X362381Y-1134667D01*
X362381Y-1182286D01*
X352857Y-1220381D01*
X343333Y-1239429D01*
X333810Y-1248952D01*
X314762Y-1258476D01*
X295714Y-1258476D01*
X276667Y-1248952D01*
X267143Y-1239429D01*
X257619Y-1220381D01*
X248095Y-1182286D01*
X248095Y-1134667D01*
X257619Y-1096571D01*
X267143Y-1077524D01*
X276667Y-1068000D01*
X295714Y-1058476D01*
X448095Y-1239429D02*
X457619Y-1248952D01*
X448095Y-1258476D01*
X438571Y-1248952D01*
X448095Y-1239429D01*
X448095Y-1258476D01*
X552857Y-1258476D02*
X590952Y-1258476D01*
X610000Y-1248952D01*
X619524Y-1239429D01*
X638571Y-1210857D01*
X648095Y-1172762D01*
X648095Y-1096571D01*
X638571Y-1077524D01*
X629048Y-1068000D01*
X610000Y-1058476D01*
X571905Y-1058476D01*
X552857Y-1068000D01*
X543333Y-1077524D01*
X533810Y-1096571D01*
X533810Y-1144190D01*
X543333Y-1163238D01*
X552857Y-1172762D01*
X571905Y-1182286D01*
X610000Y-1182286D01*
X629048Y-1172762D01*
X638571Y-1163238D01*
X648095Y-1144190D01*
X771905Y-1058476D02*
X790952Y-1058476D01*
X810000Y-1068000D01*
X819524Y-1077524D01*
X829048Y-1096571D01*
X838571Y-1134667D01*
X838571Y-1182286D01*
X829048Y-1220381D01*
X819524Y-1239429D01*
X810000Y-1248952D01*
X790952Y-1258476D01*
X771905Y-1258476D01*
X752857Y-1248952D01*
X743333Y-1239429D01*
X733809Y-1220381D01*
X724286Y-1182286D01*
X724286Y-1134667D01*
X733809Y-1096571D01*
X743333Y-1077524D01*
X752857Y-1068000D01*
X771905Y-1058476D01*
X962381Y-1058476D02*
X981428Y-1058476D01*
X1000476Y-1068000D01*
X1010000Y-1077524D01*
X1019524Y-1096571D01*
X1029048Y-1134667D01*
X1029048Y-1182286D01*
X1019524Y-1220381D01*
X1010000Y-1239429D01*
X1000476Y-1248952D01*
X981428Y-1258476D01*
X962381Y-1258476D01*
X943333Y-1248952D01*
X933809Y-1239429D01*
X924286Y-1220381D01*
X914762Y-1182286D01*
X914762Y-1134667D01*
X924286Y-1096571D01*
X933809Y-1077524D01*
X943333Y-1068000D01*
X962381Y-1058476D01*
X1114762Y-1258476D02*
X1114762Y-1125143D01*
X1114762Y-1144190D02*
X1124286Y-1134667D01*
X1143333Y-1125143D01*
X1171905Y-1125143D01*
X1190952Y-1134667D01*
X1200476Y-1153714D01*
X1200476Y-1258476D01*
X1200476Y-1153714D02*
X1210000Y-1134667D01*
X1229048Y-1125143D01*
X1257619Y-1125143D01*
X1276667Y-1134667D01*
X1286190Y-1153714D01*
X1286190Y-1258476D01*
X1381429Y-1258476D02*
X1381429Y-1125143D01*
X1381429Y-1144190D02*
X1390952Y-1134667D01*
X1410000Y-1125143D01*
X1438571Y-1125143D01*
X1457619Y-1134667D01*
X1467143Y-1153714D01*
X1467143Y-1258476D01*
X1467143Y-1153714D02*
X1476667Y-1134667D01*
X1495714Y-1125143D01*
X1524286Y-1125143D01*
X1543333Y-1134667D01*
X1552857Y-1153714D01*
X1552857Y-1258476D01*
X1943333Y-1048952D02*
X1771905Y-1306095D01*
X2200476Y-1058476D02*
X2219524Y-1058476D01*
X2238571Y-1068000D01*
X2248095Y-1077524D01*
X2257619Y-1096571D01*
X2267143Y-1134667D01*
X2267143Y-1182286D01*
X2257619Y-1220381D01*
X2248095Y-1239429D01*
X2238571Y-1248952D01*
X2219524Y-1258476D01*
X2200476Y-1258476D01*
X2181429Y-1248952D01*
X2171905Y-1239429D01*
X2162381Y-1220381D01*
X2152857Y-1182286D01*
X2152857Y-1134667D01*
X2162381Y-1096571D01*
X2171905Y-1077524D01*
X2181429Y-1068000D01*
X2200476Y-1058476D01*
X2352857Y-1239429D02*
X2362381Y-1248952D01*
X2352857Y-1258476D01*
X2343333Y-1248952D01*
X2352857Y-1239429D01*
X2352857Y-1258476D01*
X2486190Y-1058476D02*
X2505238Y-1058476D01*
X2524286Y-1068000D01*
X2533810Y-1077524D01*
X2543333Y-1096571D01*
X2552857Y-1134667D01*
X2552857Y-1182286D01*
X2543333Y-1220381D01*
X2533810Y-1239429D01*
X2524286Y-1248952D01*
X2505238Y-1258476D01*
X2486190Y-1258476D01*
X2467143Y-1248952D01*
X2457619Y-1239429D01*
X2448095Y-1220381D01*
X2438571Y-1182286D01*
X2438571Y-1134667D01*
X2448095Y-1096571D01*
X2457619Y-1077524D01*
X2467143Y-1068000D01*
X2486190Y-1058476D01*
X2619524Y-1058476D02*
X2743333Y-1058476D01*
X2676667Y-1134667D01*
X2705238Y-1134667D01*
X2724286Y-1144190D01*
X2733810Y-1153714D01*
X2743333Y-1172762D01*
X2743333Y-1220381D01*
X2733810Y-1239429D01*
X2724286Y-1248952D01*
X2705238Y-1258476D01*
X2648095Y-1258476D01*
X2629048Y-1248952D01*
X2619524Y-1239429D01*
X2924286Y-1058476D02*
X2829048Y-1058476D01*
X2819524Y-1153714D01*
X2829048Y-1144190D01*
X2848095Y-1134667D01*
X2895714Y-1134667D01*
X2914762Y-1144190D01*
X2924286Y-1153714D01*
X2933809Y-1172762D01*
X2933809Y-1220381D01*
X2924286Y-1239429D01*
X2914762Y-1248952D01*
X2895714Y-1258476D01*
X2848095Y-1258476D01*
X2829048Y-1248952D01*
X2819524Y-1239429D01*
X3105238Y-1125143D02*
X3105238Y-1258476D01*
X3057619Y-1048952D02*
X3010000Y-1191810D01*
X3133809Y-1191810D01*
X3200476Y-1058476D02*
X3200476Y-1096571D01*
X3276667Y-1058476D02*
X3276667Y-1096571D01*
X3571905Y-1334667D02*
X3562381Y-1325143D01*
X3543333Y-1296571D01*
X3533809Y-1277524D01*
X3524286Y-1248952D01*
X3514762Y-1201333D01*
X3514762Y-1163238D01*
X3524286Y-1115619D01*
X3533809Y-1087048D01*
X3543333Y-1068000D01*
X3562381Y-1039428D01*
X3571905Y-1029905D01*
X3638571Y-1077524D02*
X3648095Y-1068000D01*
X3667143Y-1058476D01*
X3714762Y-1058476D01*
X3733809Y-1068000D01*
X3743333Y-1077524D01*
X3752857Y-1096571D01*
X3752857Y-1115619D01*
X3743333Y-1144190D01*
X3629048Y-1258476D01*
X3752857Y-1258476D01*
X3924286Y-1058476D02*
X3886190Y-1058476D01*
X3867143Y-1068000D01*
X3857619Y-1077524D01*
X3838571Y-1106095D01*
X3829048Y-1144190D01*
X3829048Y-1220381D01*
X3838571Y-1239429D01*
X3848095Y-1248952D01*
X3867143Y-1258476D01*
X3905238Y-1258476D01*
X3924286Y-1248952D01*
X3933809Y-1239429D01*
X3943333Y-1220381D01*
X3943333Y-1172762D01*
X3933809Y-1153714D01*
X3924286Y-1144190D01*
X3905238Y-1134667D01*
X3867143Y-1134667D01*
X3848095Y-1144190D01*
X3838571Y-1153714D01*
X3829048Y-1172762D01*
X4181428Y-1258476D02*
X4181428Y-1058476D01*
X4267143Y-1258476D02*
X4267143Y-1153714D01*
X4257619Y-1134667D01*
X4238571Y-1125143D01*
X4210000Y-1125143D01*
X4190952Y-1134667D01*
X4181428Y-1144190D01*
X4390952Y-1258476D02*
X4371905Y-1248952D01*
X4362381Y-1239429D01*
X4352857Y-1220381D01*
X4352857Y-1163238D01*
X4362381Y-1144190D01*
X4371905Y-1134667D01*
X4390952Y-1125143D01*
X4419524Y-1125143D01*
X4438571Y-1134667D01*
X4448095Y-1144190D01*
X4457619Y-1163238D01*
X4457619Y-1220381D01*
X4448095Y-1239429D01*
X4438571Y-1248952D01*
X4419524Y-1258476D01*
X4390952Y-1258476D01*
X4571905Y-1258476D02*
X4552857Y-1248952D01*
X4543333Y-1229905D01*
X4543333Y-1058476D01*
X4724286Y-1248952D02*
X4705238Y-1258476D01*
X4667143Y-1258476D01*
X4648095Y-1248952D01*
X4638571Y-1229905D01*
X4638571Y-1153714D01*
X4648095Y-1134667D01*
X4667143Y-1125143D01*
X4705238Y-1125143D01*
X4724286Y-1134667D01*
X4733810Y-1153714D01*
X4733810Y-1172762D01*
X4638571Y-1191810D01*
X4810000Y-1248952D02*
X4829048Y-1258476D01*
X4867143Y-1258476D01*
X4886190Y-1248952D01*
X4895714Y-1229905D01*
X4895714Y-1220381D01*
X4886190Y-1201333D01*
X4867143Y-1191810D01*
X4838571Y-1191810D01*
X4819524Y-1182286D01*
X4810000Y-1163238D01*
X4810000Y-1153714D01*
X4819524Y-1134667D01*
X4838571Y-1125143D01*
X4867143Y-1125143D01*
X4886190Y-1134667D01*
X4962381Y-1334667D02*
X4971905Y-1325143D01*
X4990952Y-1296571D01*
X5000476Y-1277524D01*
X5010000Y-1248952D01*
X5019524Y-1201333D01*
X5019524Y-1163238D01*
X5010000Y-1115619D01*
X5000476Y-1087048D01*
X4990952Y-1068000D01*
X4971905Y-1039428D01*
X4962381Y-1029905D01*
M02*
