G04 #@! TF.GenerationSoftware,KiCad,Pcbnew,(6.0.7)*
G04 #@! TF.CreationDate,2022-11-29T20:03:00-05:00*
G04 #@! TF.ProjectId,Part 4 - CPU and memory,50617274-2034-4202-9d20-43505520616e,1*
G04 #@! TF.SameCoordinates,Original*
G04 #@! TF.FileFunction,Soldermask,Bot*
G04 #@! TF.FilePolarity,Negative*
%FSLAX46Y46*%
G04 Gerber Fmt 4.6, Leading zero omitted, Abs format (unit mm)*
G04 Created by KiCad (PCBNEW (6.0.7)) date 2022-11-29 20:03:00*
%MOMM*%
%LPD*%
G01*
G04 APERTURE LIST*
%ADD10C,1.600000*%
%ADD11O,1.600000X1.600000*%
%ADD12R,1.600000X1.600000*%
%ADD13R,1.800000X1.800000*%
%ADD14C,1.800000*%
%ADD15R,1.780000X7.620000*%
G04 APERTURE END LIST*
D10*
X151892000Y-51816000D03*
D11*
X141732000Y-51816000D03*
D12*
X90429000Y-124465000D03*
D11*
X92969000Y-124465000D03*
X95509000Y-124465000D03*
X98049000Y-124465000D03*
X100589000Y-124465000D03*
X103129000Y-124465000D03*
X105669000Y-124465000D03*
X108209000Y-124465000D03*
X110749000Y-124465000D03*
X113289000Y-124465000D03*
X115829000Y-124465000D03*
X118369000Y-124465000D03*
X120909000Y-124465000D03*
X123449000Y-124465000D03*
X125989000Y-124465000D03*
X128529000Y-124465000D03*
X131069000Y-124465000D03*
X133609000Y-124465000D03*
X136149000Y-124465000D03*
X138689000Y-124465000D03*
X138689000Y-109225000D03*
X136149000Y-109225000D03*
X133609000Y-109225000D03*
X131069000Y-109225000D03*
X128529000Y-109225000D03*
X125989000Y-109225000D03*
X123449000Y-109225000D03*
X120909000Y-109225000D03*
X118369000Y-109225000D03*
X115829000Y-109225000D03*
X113289000Y-109225000D03*
X110749000Y-109225000D03*
X108209000Y-109225000D03*
X105669000Y-109225000D03*
X103129000Y-109225000D03*
X100589000Y-109225000D03*
X98049000Y-109225000D03*
X95509000Y-109225000D03*
X92969000Y-109225000D03*
X90429000Y-109225000D03*
D10*
X87376000Y-67330000D03*
X87376000Y-69830000D03*
X105664000Y-55118000D03*
D11*
X95504000Y-55118000D03*
D10*
X153162000Y-77470000D03*
X153162000Y-79970000D03*
X87376000Y-118090000D03*
X87376000Y-115590000D03*
D13*
X115042000Y-47529000D03*
D14*
X112502000Y-47529000D03*
D10*
X125476000Y-51816000D03*
D11*
X115316000Y-51816000D03*
D10*
X143744000Y-82042000D03*
X141244000Y-82042000D03*
D12*
X156210000Y-82520000D03*
D11*
X158750000Y-82520000D03*
X161290000Y-82520000D03*
X163830000Y-82520000D03*
X166370000Y-82520000D03*
X168910000Y-82520000D03*
X171450000Y-82520000D03*
X173990000Y-82520000D03*
X176530000Y-82520000D03*
X179070000Y-82520000D03*
X179070000Y-74900000D03*
X176530000Y-74900000D03*
X173990000Y-74900000D03*
X171450000Y-74900000D03*
X168910000Y-74900000D03*
X166370000Y-74900000D03*
X163830000Y-74900000D03*
X161290000Y-74900000D03*
X158750000Y-74900000D03*
X156210000Y-74900000D03*
D13*
X167874000Y-47529000D03*
D14*
X165334000Y-47529000D03*
D12*
X163830000Y-96520000D03*
D11*
X166370000Y-96520000D03*
X168910000Y-96520000D03*
X171450000Y-96520000D03*
X173990000Y-96520000D03*
X176530000Y-96520000D03*
X179070000Y-96520000D03*
X179070000Y-88900000D03*
X176530000Y-88900000D03*
X173990000Y-88900000D03*
X171450000Y-88900000D03*
X168910000Y-88900000D03*
X166370000Y-88900000D03*
X163830000Y-88900000D03*
D10*
X160787000Y-91470000D03*
X160787000Y-93970000D03*
D12*
X138694000Y-85085000D03*
D11*
X138694000Y-87625000D03*
X138694000Y-90165000D03*
X138694000Y-92705000D03*
X138694000Y-95245000D03*
X138694000Y-97785000D03*
X138694000Y-100325000D03*
X146314000Y-100325000D03*
X146314000Y-97785000D03*
X146314000Y-95245000D03*
X146314000Y-92705000D03*
X146314000Y-90165000D03*
X146314000Y-87625000D03*
X146314000Y-85085000D03*
D12*
X90424000Y-76205000D03*
D11*
X92964000Y-76205000D03*
X95504000Y-76205000D03*
X98044000Y-76205000D03*
X100584000Y-76205000D03*
X103124000Y-76205000D03*
X105664000Y-76205000D03*
X108204000Y-76205000D03*
X110744000Y-76205000D03*
X113284000Y-76205000D03*
X115824000Y-76205000D03*
X118364000Y-76205000D03*
X120904000Y-76205000D03*
X123444000Y-76205000D03*
X125984000Y-76205000D03*
X128524000Y-76205000D03*
X128524000Y-60965000D03*
X125984000Y-60965000D03*
X123444000Y-60965000D03*
X120904000Y-60965000D03*
X118364000Y-60965000D03*
X115824000Y-60965000D03*
X113284000Y-60965000D03*
X110744000Y-60965000D03*
X108204000Y-60965000D03*
X105664000Y-60965000D03*
X103124000Y-60965000D03*
X100584000Y-60965000D03*
X98044000Y-60965000D03*
X95504000Y-60965000D03*
X92964000Y-60965000D03*
X90424000Y-60965000D03*
D10*
X87376000Y-91440000D03*
X87376000Y-93940000D03*
D12*
X161290000Y-110520000D03*
D11*
X163830000Y-110520000D03*
X166370000Y-110520000D03*
X168910000Y-110520000D03*
X171450000Y-110520000D03*
X173990000Y-110520000D03*
X176530000Y-110520000D03*
X179070000Y-110520000D03*
X179070000Y-102900000D03*
X176530000Y-102900000D03*
X173990000Y-102900000D03*
X171450000Y-102900000D03*
X168910000Y-102900000D03*
X166370000Y-102900000D03*
X163830000Y-102900000D03*
X161290000Y-102900000D03*
D13*
X95230000Y-47529000D03*
D14*
X92690000Y-47529000D03*
D12*
X138694000Y-60955000D03*
D11*
X138694000Y-63495000D03*
X138694000Y-66035000D03*
X138694000Y-68575000D03*
X138694000Y-71115000D03*
X138694000Y-73655000D03*
X138694000Y-76195000D03*
X146314000Y-76195000D03*
X146314000Y-73655000D03*
X146314000Y-71115000D03*
X146314000Y-68575000D03*
X146314000Y-66035000D03*
X146314000Y-63495000D03*
X146314000Y-60955000D03*
D10*
X158252000Y-119410000D03*
X158252000Y-121910000D03*
D13*
X108438000Y-47529000D03*
D14*
X105898000Y-47529000D03*
D10*
X118872000Y-55118000D03*
D11*
X108712000Y-55118000D03*
D10*
X158252000Y-105470000D03*
X158252000Y-107970000D03*
D13*
X121646000Y-47529000D03*
D14*
X119106000Y-47529000D03*
D15*
X171704000Y-136612000D03*
X169164000Y-136612000D03*
X166624000Y-136612000D03*
X164084000Y-136612000D03*
X161544000Y-136612000D03*
X159004000Y-136612000D03*
X156464000Y-136612000D03*
X153924000Y-136612000D03*
X151384000Y-136612000D03*
X148844000Y-136612000D03*
X146304000Y-136612000D03*
X143764000Y-136612000D03*
X141224000Y-136612000D03*
X138684000Y-136612000D03*
X136144000Y-136612000D03*
X133604000Y-136612000D03*
X131064000Y-136612000D03*
X128524000Y-136612000D03*
X125984000Y-136612000D03*
X123444000Y-136612000D03*
X120904000Y-136612000D03*
X118364000Y-136612000D03*
X115824000Y-136612000D03*
X113284000Y-136612000D03*
X110744000Y-136612000D03*
X108204000Y-136612000D03*
X105664000Y-136612000D03*
X103124000Y-136612000D03*
X100584000Y-136612000D03*
X98044000Y-136612000D03*
X95504000Y-136612000D03*
D10*
X178308000Y-51816000D03*
D11*
X168148000Y-51816000D03*
D13*
X134854000Y-47529000D03*
D14*
X132314000Y-47529000D03*
D10*
X99060000Y-51816000D03*
D11*
X88900000Y-51816000D03*
D12*
X161290000Y-124460000D03*
D11*
X163830000Y-124460000D03*
X166370000Y-124460000D03*
X168910000Y-124460000D03*
X171450000Y-124460000D03*
X173990000Y-124460000D03*
X176530000Y-124460000D03*
X179070000Y-124460000D03*
X179070000Y-116840000D03*
X176530000Y-116840000D03*
X173990000Y-116840000D03*
X171450000Y-116840000D03*
X168910000Y-116840000D03*
X166370000Y-116840000D03*
X163830000Y-116840000D03*
X161290000Y-116840000D03*
D13*
X161270000Y-47529000D03*
D14*
X158730000Y-47529000D03*
D13*
X101834000Y-47529000D03*
D14*
X99294000Y-47529000D03*
D13*
X141458000Y-47529000D03*
D14*
X138918000Y-47529000D03*
D13*
X154666000Y-47529000D03*
D14*
X152126000Y-47529000D03*
D10*
X143744000Y-79248000D03*
X141244000Y-79248000D03*
D12*
X156215000Y-68550000D03*
D11*
X158755000Y-68550000D03*
X161295000Y-68550000D03*
X163835000Y-68550000D03*
X166375000Y-68550000D03*
X168915000Y-68550000D03*
X171455000Y-68550000D03*
X173995000Y-68550000D03*
X176535000Y-68550000D03*
X179075000Y-68550000D03*
X179075000Y-60930000D03*
X176535000Y-60930000D03*
X173995000Y-60930000D03*
X171455000Y-60930000D03*
X168915000Y-60930000D03*
X166375000Y-60930000D03*
X163835000Y-60930000D03*
X161295000Y-60930000D03*
X158755000Y-60930000D03*
X156215000Y-60930000D03*
D13*
X174478000Y-47529000D03*
D14*
X171938000Y-47529000D03*
D13*
X148062000Y-47529000D03*
D14*
X145522000Y-47529000D03*
D10*
X165100000Y-51816000D03*
D11*
X154940000Y-51816000D03*
D10*
X138684000Y-51816000D03*
D11*
X128524000Y-51816000D03*
D10*
X171704000Y-55118000D03*
D11*
X161544000Y-55118000D03*
D13*
X128250000Y-47529000D03*
D14*
X125710000Y-47529000D03*
D12*
X90424000Y-100310000D03*
D11*
X92964000Y-100310000D03*
X95504000Y-100310000D03*
X98044000Y-100310000D03*
X100584000Y-100310000D03*
X103124000Y-100310000D03*
X105664000Y-100310000D03*
X108204000Y-100310000D03*
X110744000Y-100310000D03*
X113284000Y-100310000D03*
X115824000Y-100310000D03*
X118364000Y-100310000D03*
X120904000Y-100310000D03*
X123444000Y-100310000D03*
X125984000Y-100310000D03*
X128524000Y-100310000D03*
X128524000Y-85070000D03*
X125984000Y-85070000D03*
X123444000Y-85070000D03*
X120904000Y-85070000D03*
X118364000Y-85070000D03*
X115824000Y-85070000D03*
X113284000Y-85070000D03*
X110744000Y-85070000D03*
X108204000Y-85070000D03*
X105664000Y-85070000D03*
X103124000Y-85070000D03*
X100584000Y-85070000D03*
X98044000Y-85070000D03*
X95504000Y-85070000D03*
X92964000Y-85070000D03*
X90424000Y-85070000D03*
D10*
X158496000Y-55118000D03*
D11*
X148336000Y-55118000D03*
D10*
X112268000Y-51816000D03*
D11*
X102108000Y-51816000D03*
D10*
X153162000Y-63500000D03*
X153162000Y-66000000D03*
X132080000Y-55118000D03*
D11*
X121920000Y-55118000D03*
D10*
X145288000Y-55118000D03*
D11*
X135128000Y-55118000D03*
D12*
X146304000Y-111974000D03*
D11*
X146304000Y-114514000D03*
X146304000Y-117054000D03*
X146304000Y-119594000D03*
X146304000Y-122134000D03*
M02*
