G04 #@! TF.GenerationSoftware,KiCad,Pcbnew,(6.0.9)*
G04 #@! TF.CreationDate,2022-12-02T20:57:51-05:00*
G04 #@! TF.ProjectId,Part 4 - CPU and memory,50617274-2034-4202-9d20-43505520616e,1*
G04 #@! TF.SameCoordinates,Original*
G04 #@! TF.FileFunction,Legend,Bot*
G04 #@! TF.FilePolarity,Positive*
%FSLAX46Y46*%
G04 Gerber Fmt 4.6, Leading zero omitted, Abs format (unit mm)*
G04 Created by KiCad (PCBNEW (6.0.9)) date 2022-12-02 20:57:51*
%MOMM*%
%LPD*%
G01*
G04 APERTURE LIST*
G04 Aperture macros list*
%AMRoundRect*
0 Rectangle with rounded corners*
0 $1 Rounding radius*
0 $2 $3 $4 $5 $6 $7 $8 $9 X,Y pos of 4 corners*
0 Add a 4 corners polygon primitive as box body*
4,1,4,$2,$3,$4,$5,$6,$7,$8,$9,$2,$3,0*
0 Add four circle primitives for the rounded corners*
1,1,$1+$1,$2,$3*
1,1,$1+$1,$4,$5*
1,1,$1+$1,$6,$7*
1,1,$1+$1,$8,$9*
0 Add four rect primitives between the rounded corners*
20,1,$1+$1,$2,$3,$4,$5,0*
20,1,$1+$1,$4,$5,$6,$7,0*
20,1,$1+$1,$6,$7,$8,$9,0*
20,1,$1+$1,$8,$9,$2,$3,0*%
G04 Aperture macros list end*
%ADD10C,0.150000*%
%ADD11C,0.200000*%
%ADD12C,2.000000*%
%ADD13O,2.000000X2.000000*%
%ADD14RoundRect,0.200000X0.800000X-0.800000X0.800000X0.800000X-0.800000X0.800000X-0.800000X-0.800000X0*%
%ADD15RoundRect,0.200000X0.900000X0.900000X-0.900000X0.900000X-0.900000X-0.900000X0.900000X-0.900000X0*%
%ADD16C,2.200000*%
%ADD17RoundRect,0.200000X-0.800000X-0.800000X0.800000X-0.800000X0.800000X0.800000X-0.800000X0.800000X0*%
%ADD18RoundRect,0.200000X-0.890000X-3.810000X0.890000X-3.810000X0.890000X3.810000X-0.890000X3.810000X0*%
%ADD19RoundRect,0.200000X-0.800000X0.800000X-0.800000X-0.800000X0.800000X-0.800000X0.800000X0.800000X0*%
G04 APERTURE END LIST*
D10*
X143470380Y-115746376D02*
X143470380Y-116365423D01*
X143851333Y-116032090D01*
X143851333Y-116174947D01*
X143898952Y-116270185D01*
X143946571Y-116317804D01*
X144041809Y-116365423D01*
X144279904Y-116365423D01*
X144375142Y-116317804D01*
X144422761Y-116270185D01*
X144470380Y-116174947D01*
X144470380Y-115889233D01*
X144422761Y-115793995D01*
X144375142Y-115746376D01*
X144470380Y-116793995D02*
X143470380Y-116793995D01*
X144470380Y-117365423D02*
X143898952Y-116936852D01*
X143470380Y-117365423D02*
X144041809Y-116793995D01*
X143470380Y-117698757D02*
X143470380Y-118317804D01*
X143851333Y-117984471D01*
X143851333Y-118127328D01*
X143898952Y-118222566D01*
X143946571Y-118270185D01*
X144041809Y-118317804D01*
X144279904Y-118317804D01*
X144375142Y-118270185D01*
X144422761Y-118222566D01*
X144470380Y-118127328D01*
X144470380Y-117841614D01*
X144422761Y-117746376D01*
X144375142Y-117698757D01*
X127666666Y-55570380D02*
X128238095Y-55570380D01*
X127952380Y-55570380D02*
X127952380Y-54570380D01*
X128047619Y-54713238D01*
X128142857Y-54808476D01*
X128238095Y-54856095D01*
X126761904Y-54570380D02*
X127238095Y-54570380D01*
X127285714Y-55046571D01*
X127238095Y-54998952D01*
X127142857Y-54951333D01*
X126904761Y-54951333D01*
X126809523Y-54998952D01*
X126761904Y-55046571D01*
X126714285Y-55141809D01*
X126714285Y-55379904D01*
X126761904Y-55475142D01*
X126809523Y-55522761D01*
X126904761Y-55570380D01*
X127142857Y-55570380D01*
X127238095Y-55522761D01*
X127285714Y-55475142D01*
X126095238Y-54570380D02*
X126000000Y-54570380D01*
X125904761Y-54618000D01*
X125857142Y-54665619D01*
X125809523Y-54760857D01*
X125761904Y-54951333D01*
X125761904Y-55189428D01*
X125809523Y-55379904D01*
X125857142Y-55475142D01*
X125904761Y-55522761D01*
X126000000Y-55570380D01*
X126095238Y-55570380D01*
X126190476Y-55522761D01*
X126238095Y-55475142D01*
X126285714Y-55379904D01*
X126333333Y-55189428D01*
X126333333Y-54951333D01*
X126285714Y-54760857D01*
X126238095Y-54665619D01*
X126190476Y-54618000D01*
X126095238Y-54570380D01*
X160686666Y-52268380D02*
X161258095Y-52268380D01*
X160972380Y-52268380D02*
X160972380Y-51268380D01*
X161067619Y-51411238D01*
X161162857Y-51506476D01*
X161258095Y-51554095D01*
X159781904Y-51268380D02*
X160258095Y-51268380D01*
X160305714Y-51744571D01*
X160258095Y-51696952D01*
X160162857Y-51649333D01*
X159924761Y-51649333D01*
X159829523Y-51696952D01*
X159781904Y-51744571D01*
X159734285Y-51839809D01*
X159734285Y-52077904D01*
X159781904Y-52173142D01*
X159829523Y-52220761D01*
X159924761Y-52268380D01*
X160162857Y-52268380D01*
X160258095Y-52220761D01*
X160305714Y-52173142D01*
X159115238Y-51268380D02*
X159020000Y-51268380D01*
X158924761Y-51316000D01*
X158877142Y-51363619D01*
X158829523Y-51458857D01*
X158781904Y-51649333D01*
X158781904Y-51887428D01*
X158829523Y-52077904D01*
X158877142Y-52173142D01*
X158924761Y-52220761D01*
X159020000Y-52268380D01*
X159115238Y-52268380D01*
X159210476Y-52220761D01*
X159258095Y-52173142D01*
X159305714Y-52077904D01*
X159353333Y-51887428D01*
X159353333Y-51649333D01*
X159305714Y-51458857D01*
X159258095Y-51363619D01*
X159210476Y-51316000D01*
X159115238Y-51268380D01*
X148097714Y-51268380D02*
X147478666Y-51268380D01*
X147812000Y-51649333D01*
X147669142Y-51649333D01*
X147573904Y-51696952D01*
X147526285Y-51744571D01*
X147478666Y-51839809D01*
X147478666Y-52077904D01*
X147526285Y-52173142D01*
X147573904Y-52220761D01*
X147669142Y-52268380D01*
X147954857Y-52268380D01*
X148050095Y-52220761D01*
X148097714Y-52173142D01*
X147145333Y-51268380D02*
X146526285Y-51268380D01*
X146859619Y-51649333D01*
X146716761Y-51649333D01*
X146621523Y-51696952D01*
X146573904Y-51744571D01*
X146526285Y-51839809D01*
X146526285Y-52077904D01*
X146573904Y-52173142D01*
X146621523Y-52220761D01*
X146716761Y-52268380D01*
X147002476Y-52268380D01*
X147097714Y-52220761D01*
X147145333Y-52173142D01*
X145907238Y-51268380D02*
X145812000Y-51268380D01*
X145716761Y-51316000D01*
X145669142Y-51363619D01*
X145621523Y-51458857D01*
X145573904Y-51649333D01*
X145573904Y-51887428D01*
X145621523Y-52077904D01*
X145669142Y-52173142D01*
X145716761Y-52220761D01*
X145812000Y-52268380D01*
X145907238Y-52268380D01*
X146002476Y-52220761D01*
X146050095Y-52173142D01*
X146097714Y-52077904D01*
X146145333Y-51887428D01*
X146145333Y-51649333D01*
X146097714Y-51458857D01*
X146050095Y-51363619D01*
X146002476Y-51316000D01*
X145907238Y-51268380D01*
X121427714Y-51268380D02*
X120808666Y-51268380D01*
X121142000Y-51649333D01*
X120999142Y-51649333D01*
X120903904Y-51696952D01*
X120856285Y-51744571D01*
X120808666Y-51839809D01*
X120808666Y-52077904D01*
X120856285Y-52173142D01*
X120903904Y-52220761D01*
X120999142Y-52268380D01*
X121284857Y-52268380D01*
X121380095Y-52220761D01*
X121427714Y-52173142D01*
X120475333Y-51268380D02*
X119856285Y-51268380D01*
X120189619Y-51649333D01*
X120046761Y-51649333D01*
X119951523Y-51696952D01*
X119903904Y-51744571D01*
X119856285Y-51839809D01*
X119856285Y-52077904D01*
X119903904Y-52173142D01*
X119951523Y-52220761D01*
X120046761Y-52268380D01*
X120332476Y-52268380D01*
X120427714Y-52220761D01*
X120475333Y-52173142D01*
X119237238Y-51268380D02*
X119142000Y-51268380D01*
X119046761Y-51316000D01*
X118999142Y-51363619D01*
X118951523Y-51458857D01*
X118903904Y-51649333D01*
X118903904Y-51887428D01*
X118951523Y-52077904D01*
X118999142Y-52173142D01*
X119046761Y-52220761D01*
X119142000Y-52268380D01*
X119237238Y-52268380D01*
X119332476Y-52220761D01*
X119380095Y-52173142D01*
X119427714Y-52077904D01*
X119475333Y-51887428D01*
X119475333Y-51649333D01*
X119427714Y-51458857D01*
X119380095Y-51363619D01*
X119332476Y-51316000D01*
X119237238Y-51268380D01*
X108473714Y-51268380D02*
X107854666Y-51268380D01*
X108188000Y-51649333D01*
X108045142Y-51649333D01*
X107949904Y-51696952D01*
X107902285Y-51744571D01*
X107854666Y-51839809D01*
X107854666Y-52077904D01*
X107902285Y-52173142D01*
X107949904Y-52220761D01*
X108045142Y-52268380D01*
X108330857Y-52268380D01*
X108426095Y-52220761D01*
X108473714Y-52173142D01*
X107521333Y-51268380D02*
X106902285Y-51268380D01*
X107235619Y-51649333D01*
X107092761Y-51649333D01*
X106997523Y-51696952D01*
X106949904Y-51744571D01*
X106902285Y-51839809D01*
X106902285Y-52077904D01*
X106949904Y-52173142D01*
X106997523Y-52220761D01*
X107092761Y-52268380D01*
X107378476Y-52268380D01*
X107473714Y-52220761D01*
X107521333Y-52173142D01*
X106283238Y-51268380D02*
X106188000Y-51268380D01*
X106092761Y-51316000D01*
X106045142Y-51363619D01*
X105997523Y-51458857D01*
X105949904Y-51649333D01*
X105949904Y-51887428D01*
X105997523Y-52077904D01*
X106045142Y-52173142D01*
X106092761Y-52220761D01*
X106188000Y-52268380D01*
X106283238Y-52268380D01*
X106378476Y-52220761D01*
X106426095Y-52173142D01*
X106473714Y-52077904D01*
X106521333Y-51887428D01*
X106521333Y-51649333D01*
X106473714Y-51458857D01*
X106426095Y-51363619D01*
X106378476Y-51316000D01*
X106283238Y-51268380D01*
X101822095Y-54665619D02*
X101774476Y-54618000D01*
X101679238Y-54570380D01*
X101441142Y-54570380D01*
X101345904Y-54618000D01*
X101298285Y-54665619D01*
X101250666Y-54760857D01*
X101250666Y-54856095D01*
X101298285Y-54998952D01*
X101869714Y-55570380D01*
X101250666Y-55570380D01*
X100869714Y-54665619D02*
X100822095Y-54618000D01*
X100726857Y-54570380D01*
X100488761Y-54570380D01*
X100393523Y-54618000D01*
X100345904Y-54665619D01*
X100298285Y-54760857D01*
X100298285Y-54856095D01*
X100345904Y-54998952D01*
X100917333Y-55570380D01*
X100298285Y-55570380D01*
X99679238Y-54570380D02*
X99584000Y-54570380D01*
X99488761Y-54618000D01*
X99441142Y-54665619D01*
X99393523Y-54760857D01*
X99345904Y-54951333D01*
X99345904Y-55189428D01*
X99393523Y-55379904D01*
X99441142Y-55475142D01*
X99488761Y-55522761D01*
X99584000Y-55570380D01*
X99679238Y-55570380D01*
X99774476Y-55522761D01*
X99822095Y-55475142D01*
X99869714Y-55379904D01*
X99917333Y-55189428D01*
X99917333Y-54951333D01*
X99869714Y-54760857D01*
X99822095Y-54665619D01*
X99774476Y-54618000D01*
X99679238Y-54570380D01*
X115030095Y-54665619D02*
X114982476Y-54618000D01*
X114887238Y-54570380D01*
X114649142Y-54570380D01*
X114553904Y-54618000D01*
X114506285Y-54665619D01*
X114458666Y-54760857D01*
X114458666Y-54856095D01*
X114506285Y-54998952D01*
X115077714Y-55570380D01*
X114458666Y-55570380D01*
X114077714Y-54665619D02*
X114030095Y-54618000D01*
X113934857Y-54570380D01*
X113696761Y-54570380D01*
X113601523Y-54618000D01*
X113553904Y-54665619D01*
X113506285Y-54760857D01*
X113506285Y-54856095D01*
X113553904Y-54998952D01*
X114125333Y-55570380D01*
X113506285Y-55570380D01*
X112887238Y-54570380D02*
X112792000Y-54570380D01*
X112696761Y-54618000D01*
X112649142Y-54665619D01*
X112601523Y-54760857D01*
X112553904Y-54951333D01*
X112553904Y-55189428D01*
X112601523Y-55379904D01*
X112649142Y-55475142D01*
X112696761Y-55522761D01*
X112792000Y-55570380D01*
X112887238Y-55570380D01*
X112982476Y-55522761D01*
X113030095Y-55475142D01*
X113077714Y-55379904D01*
X113125333Y-55189428D01*
X113125333Y-54951333D01*
X113077714Y-54760857D01*
X113030095Y-54665619D01*
X112982476Y-54618000D01*
X112887238Y-54570380D01*
X167862095Y-54665619D02*
X167814476Y-54618000D01*
X167719238Y-54570380D01*
X167481142Y-54570380D01*
X167385904Y-54618000D01*
X167338285Y-54665619D01*
X167290666Y-54760857D01*
X167290666Y-54856095D01*
X167338285Y-54998952D01*
X167909714Y-55570380D01*
X167290666Y-55570380D01*
X166909714Y-54665619D02*
X166862095Y-54618000D01*
X166766857Y-54570380D01*
X166528761Y-54570380D01*
X166433523Y-54618000D01*
X166385904Y-54665619D01*
X166338285Y-54760857D01*
X166338285Y-54856095D01*
X166385904Y-54998952D01*
X166957333Y-55570380D01*
X166338285Y-55570380D01*
X165719238Y-54570380D02*
X165624000Y-54570380D01*
X165528761Y-54618000D01*
X165481142Y-54665619D01*
X165433523Y-54760857D01*
X165385904Y-54951333D01*
X165385904Y-55189428D01*
X165433523Y-55379904D01*
X165481142Y-55475142D01*
X165528761Y-55522761D01*
X165624000Y-55570380D01*
X165719238Y-55570380D01*
X165814476Y-55522761D01*
X165862095Y-55475142D01*
X165909714Y-55379904D01*
X165957333Y-55189428D01*
X165957333Y-54951333D01*
X165909714Y-54760857D01*
X165862095Y-54665619D01*
X165814476Y-54618000D01*
X165719238Y-54570380D01*
X174537523Y-51268380D02*
X173918476Y-51268380D01*
X174251809Y-51649333D01*
X174108952Y-51649333D01*
X174013714Y-51696952D01*
X173966095Y-51744571D01*
X173918476Y-51839809D01*
X173918476Y-52077904D01*
X173966095Y-52173142D01*
X174013714Y-52220761D01*
X174108952Y-52268380D01*
X174394666Y-52268380D01*
X174489904Y-52220761D01*
X174537523Y-52173142D01*
X173489904Y-52268380D02*
X173489904Y-51268380D01*
X172918476Y-52268380D02*
X173347047Y-51696952D01*
X172918476Y-51268380D02*
X173489904Y-51839809D01*
X172585142Y-51268380D02*
X171966095Y-51268380D01*
X172299428Y-51649333D01*
X172156571Y-51649333D01*
X172061333Y-51696952D01*
X172013714Y-51744571D01*
X171966095Y-51839809D01*
X171966095Y-52077904D01*
X172013714Y-52173142D01*
X172061333Y-52220761D01*
X172156571Y-52268380D01*
X172442285Y-52268380D01*
X172537523Y-52220761D01*
X172585142Y-52173142D01*
X154725523Y-54570380D02*
X154106476Y-54570380D01*
X154439809Y-54951333D01*
X154296952Y-54951333D01*
X154201714Y-54998952D01*
X154154095Y-55046571D01*
X154106476Y-55141809D01*
X154106476Y-55379904D01*
X154154095Y-55475142D01*
X154201714Y-55522761D01*
X154296952Y-55570380D01*
X154582666Y-55570380D01*
X154677904Y-55522761D01*
X154725523Y-55475142D01*
X153677904Y-55570380D02*
X153677904Y-54570380D01*
X153106476Y-55570380D02*
X153535047Y-54998952D01*
X153106476Y-54570380D02*
X153677904Y-55141809D01*
X152773142Y-54570380D02*
X152154095Y-54570380D01*
X152487428Y-54951333D01*
X152344571Y-54951333D01*
X152249333Y-54998952D01*
X152201714Y-55046571D01*
X152154095Y-55141809D01*
X152154095Y-55379904D01*
X152201714Y-55475142D01*
X152249333Y-55522761D01*
X152344571Y-55570380D01*
X152630285Y-55570380D01*
X152725523Y-55522761D01*
X152773142Y-55475142D01*
X141517523Y-54570380D02*
X140898476Y-54570380D01*
X141231809Y-54951333D01*
X141088952Y-54951333D01*
X140993714Y-54998952D01*
X140946095Y-55046571D01*
X140898476Y-55141809D01*
X140898476Y-55379904D01*
X140946095Y-55475142D01*
X140993714Y-55522761D01*
X141088952Y-55570380D01*
X141374666Y-55570380D01*
X141469904Y-55522761D01*
X141517523Y-55475142D01*
X140469904Y-55570380D02*
X140469904Y-54570380D01*
X139898476Y-55570380D02*
X140327047Y-54998952D01*
X139898476Y-54570380D02*
X140469904Y-55141809D01*
X139565142Y-54570380D02*
X138946095Y-54570380D01*
X139279428Y-54951333D01*
X139136571Y-54951333D01*
X139041333Y-54998952D01*
X138993714Y-55046571D01*
X138946095Y-55141809D01*
X138946095Y-55379904D01*
X138993714Y-55475142D01*
X139041333Y-55522761D01*
X139136571Y-55570380D01*
X139422285Y-55570380D01*
X139517523Y-55522761D01*
X139565142Y-55475142D01*
X134913523Y-51268380D02*
X134294476Y-51268380D01*
X134627809Y-51649333D01*
X134484952Y-51649333D01*
X134389714Y-51696952D01*
X134342095Y-51744571D01*
X134294476Y-51839809D01*
X134294476Y-52077904D01*
X134342095Y-52173142D01*
X134389714Y-52220761D01*
X134484952Y-52268380D01*
X134770666Y-52268380D01*
X134865904Y-52220761D01*
X134913523Y-52173142D01*
X133865904Y-52268380D02*
X133865904Y-51268380D01*
X133294476Y-52268380D02*
X133723047Y-51696952D01*
X133294476Y-51268380D02*
X133865904Y-51839809D01*
X132961142Y-51268380D02*
X132342095Y-51268380D01*
X132675428Y-51649333D01*
X132532571Y-51649333D01*
X132437333Y-51696952D01*
X132389714Y-51744571D01*
X132342095Y-51839809D01*
X132342095Y-52077904D01*
X132389714Y-52173142D01*
X132437333Y-52220761D01*
X132532571Y-52268380D01*
X132818285Y-52268380D01*
X132913523Y-52220761D01*
X132961142Y-52173142D01*
X95289523Y-51268380D02*
X94670476Y-51268380D01*
X95003809Y-51649333D01*
X94860952Y-51649333D01*
X94765714Y-51696952D01*
X94718095Y-51744571D01*
X94670476Y-51839809D01*
X94670476Y-52077904D01*
X94718095Y-52173142D01*
X94765714Y-52220761D01*
X94860952Y-52268380D01*
X95146666Y-52268380D01*
X95241904Y-52220761D01*
X95289523Y-52173142D01*
X94241904Y-52268380D02*
X94241904Y-51268380D01*
X93670476Y-52268380D02*
X94099047Y-51696952D01*
X93670476Y-51268380D02*
X94241904Y-51839809D01*
X93337142Y-51268380D02*
X92718095Y-51268380D01*
X93051428Y-51649333D01*
X92908571Y-51649333D01*
X92813333Y-51696952D01*
X92765714Y-51744571D01*
X92718095Y-51839809D01*
X92718095Y-52077904D01*
X92765714Y-52173142D01*
X92813333Y-52220761D01*
X92908571Y-52268380D01*
X93194285Y-52268380D01*
X93289523Y-52220761D01*
X93337142Y-52173142D01*
X123723400Y-55118000D02*
X122986800Y-55118000D01*
X180467000Y-111861600D02*
X159893000Y-111861600D01*
X159893000Y-111861600D02*
X159893000Y-101574600D01*
X159893000Y-101574600D02*
X180467000Y-101574600D01*
X180467000Y-101574600D02*
X180467000Y-111861600D01*
X123698000Y-49022000D02*
X110490000Y-49022000D01*
X154838400Y-69875400D02*
X180467000Y-69875400D01*
X180467000Y-69875400D02*
X180467000Y-59613800D01*
X180467000Y-59613800D02*
X154838400Y-59613800D01*
X154838400Y-59613800D02*
X154838400Y-69875400D01*
X169976800Y-53162200D02*
X176504600Y-53162200D01*
X176504600Y-53162200D02*
X176504600Y-50444400D01*
X176504600Y-50444400D02*
X169976800Y-50444400D01*
X169976800Y-50444400D02*
X169976800Y-53162200D01*
X152044400Y-66040000D02*
X152044400Y-63500000D01*
X156743400Y-51816000D02*
X156006800Y-51816000D01*
X103860600Y-55118000D02*
X104597200Y-55118000D01*
X89027000Y-59639200D02*
X129921000Y-59639200D01*
X129921000Y-59639200D02*
X129921000Y-77546200D01*
X129921000Y-77546200D02*
X89027000Y-77546200D01*
X89027000Y-77546200D02*
X89027000Y-59639200D01*
X157162500Y-108013500D02*
X157162500Y-105473500D01*
X110464600Y-53187600D02*
X103911400Y-53187600D01*
X103911400Y-53187600D02*
X103911400Y-50444400D01*
X103911400Y-50444400D02*
X110464600Y-50444400D01*
X110464600Y-50444400D02*
X110464600Y-53187600D01*
X136931400Y-55118000D02*
X136194800Y-55118000D01*
X163322000Y-40640000D02*
X163322000Y-49022000D01*
X136906000Y-49022000D02*
X123698000Y-49022000D01*
X159893000Y-125780800D02*
X180467000Y-125780800D01*
X180467000Y-125780800D02*
X180467000Y-115493800D01*
X180467000Y-115493800D02*
X159893000Y-115493800D01*
X159893000Y-115493800D02*
X159893000Y-125780800D01*
X156692600Y-53746400D02*
X150139400Y-53746400D01*
X150139400Y-53746400D02*
X150139400Y-56489600D01*
X150139400Y-56489600D02*
X156692600Y-56489600D01*
X156692600Y-56489600D02*
X156692600Y-53746400D01*
X163322000Y-49022000D02*
X176530000Y-49022000D01*
X159334200Y-105473500D02*
X159334200Y-108013500D01*
X130276600Y-53746400D02*
X123723400Y-53746400D01*
X123723400Y-53746400D02*
X123723400Y-56489600D01*
X123723400Y-56489600D02*
X130276600Y-56489600D01*
X130276600Y-56489600D02*
X130276600Y-53746400D01*
X86283800Y-91440000D02*
X86283800Y-93929200D01*
X159359600Y-121920000D02*
X159359600Y-119405400D01*
X154254200Y-77470000D02*
X154254200Y-79946500D01*
X152044400Y-79946500D02*
X152044400Y-77470000D01*
X97307400Y-55118000D02*
X96570800Y-55118000D01*
X162433000Y-97840800D02*
X180467000Y-97840800D01*
X180467000Y-97840800D02*
X180467000Y-87579200D01*
X180467000Y-87579200D02*
X162433000Y-87579200D01*
X162433000Y-87579200D02*
X162433000Y-97840800D01*
X86283800Y-67335400D02*
X86283800Y-69824600D01*
X143484600Y-55118000D02*
X144221200Y-55118000D01*
X88468200Y-93929200D02*
X88468200Y-91414600D01*
X129921000Y-83743800D02*
X89027000Y-83743800D01*
X89027000Y-83743800D02*
X89027000Y-101650800D01*
X89027000Y-101650800D02*
X129921000Y-101650800D01*
X129921000Y-101650800D02*
X129921000Y-83743800D01*
X157149800Y-119405400D02*
X157149800Y-121920000D01*
X123672600Y-51816000D02*
X124409200Y-51816000D01*
X123672600Y-53187600D02*
X117144800Y-53187600D01*
X117144800Y-53187600D02*
X117144800Y-50444400D01*
X117144800Y-50444400D02*
X123672600Y-50444400D01*
X123672600Y-50444400D02*
X123672600Y-53187600D01*
X143484600Y-53746400D02*
X136931400Y-53746400D01*
X136931400Y-53746400D02*
X136931400Y-56489600D01*
X136931400Y-56489600D02*
X143484600Y-56489600D01*
X143484600Y-56489600D02*
X143484600Y-53746400D01*
X144907000Y-110540800D02*
X147701000Y-110540800D01*
X147701000Y-110540800D02*
X147701000Y-123571000D01*
X147701000Y-123571000D02*
X144907000Y-123571000D01*
X144907000Y-123571000D02*
X144907000Y-110540800D01*
X110464600Y-51816000D02*
X111201200Y-51816000D01*
X136880600Y-53187600D02*
X130352800Y-53187600D01*
X130352800Y-53187600D02*
X130352800Y-50444400D01*
X130352800Y-50444400D02*
X136880600Y-50444400D01*
X136880600Y-50444400D02*
X136880600Y-53187600D01*
X117144800Y-51816000D02*
X116382800Y-51816000D01*
X90678000Y-49022000D02*
X90678000Y-40640000D01*
X154254200Y-63500000D02*
X154254200Y-66040000D01*
X103860600Y-53746400D02*
X97307400Y-53746400D01*
X97307400Y-53746400D02*
X97307400Y-56489600D01*
X97307400Y-56489600D02*
X103860600Y-56489600D01*
X103860600Y-56489600D02*
X103860600Y-53746400D01*
X150114000Y-49022000D02*
X136906000Y-49022000D01*
X103911400Y-51816000D02*
X103174800Y-51816000D01*
X150088600Y-51816000D02*
X150825200Y-51816000D01*
X156692600Y-55118000D02*
X157429200Y-55118000D01*
X89027000Y-107899200D02*
X140081000Y-107899200D01*
X140081000Y-107899200D02*
X140081000Y-125806200D01*
X140081000Y-125806200D02*
X89027000Y-125806200D01*
X89027000Y-125806200D02*
X89027000Y-107899200D01*
X169900600Y-53746400D02*
X163347400Y-53746400D01*
X163347400Y-53746400D02*
X163347400Y-56489600D01*
X163347400Y-56489600D02*
X169900600Y-56489600D01*
X169900600Y-56489600D02*
X169900600Y-53746400D01*
X110515400Y-55118000D02*
X109778800Y-55118000D01*
X161874200Y-93980000D02*
X161874200Y-91440000D01*
X176530000Y-49022000D02*
X176530000Y-40640000D01*
X156718000Y-49022000D02*
X150114000Y-49022000D01*
X110490000Y-49022000D02*
X97282000Y-49022000D01*
X150139400Y-55118000D02*
X149402800Y-55118000D01*
X163347400Y-55118000D02*
X162610800Y-55118000D01*
X176504600Y-51803300D02*
X177241200Y-51816000D01*
X150088600Y-53187600D02*
X143535400Y-53187600D01*
X143535400Y-53187600D02*
X143535400Y-50444400D01*
X143535400Y-50444400D02*
X150088600Y-50444400D01*
X150088600Y-50444400D02*
X150088600Y-53187600D01*
X130302000Y-51816000D02*
X129590800Y-51816000D01*
X136906000Y-49022000D02*
X136906000Y-40640000D01*
X90703400Y-51816000D02*
X89966800Y-51816000D01*
X169900600Y-55118000D02*
X170637200Y-55118000D01*
X97256600Y-50444400D02*
X90703400Y-50444400D01*
X90703400Y-50444400D02*
X90703400Y-53187600D01*
X90703400Y-53187600D02*
X97256600Y-53187600D01*
X97256600Y-53187600D02*
X97256600Y-50444400D01*
X97256600Y-51816000D02*
X97993200Y-51816000D01*
X110490000Y-49022000D02*
X110490000Y-40640000D01*
X117068600Y-55118000D02*
X117805200Y-55118000D01*
X163296600Y-51816000D02*
X164033200Y-51816000D01*
X88468200Y-118084600D02*
X88468200Y-115570000D01*
X137363200Y-83693000D02*
X147650200Y-83693000D01*
X147650200Y-83693000D02*
X147650200Y-101727000D01*
X147650200Y-101727000D02*
X137363200Y-101727000D01*
X137363200Y-101727000D02*
X137363200Y-83693000D01*
X123698000Y-49022000D02*
X123698000Y-40640000D01*
X163322000Y-49022000D02*
X156718000Y-49022000D01*
X159689800Y-91440000D02*
X159689800Y-93980000D01*
X163296600Y-50444400D02*
X156743400Y-50444400D01*
X156743400Y-50444400D02*
X156743400Y-53187600D01*
X156743400Y-53187600D02*
X163296600Y-53187600D01*
X163296600Y-53187600D02*
X163296600Y-50444400D01*
X169976800Y-51803300D02*
X169214800Y-51816000D01*
X86283800Y-115595400D02*
X86283800Y-118084600D01*
X88468200Y-69824600D02*
X88468200Y-67310000D01*
X97282000Y-49022000D02*
X97282000Y-40640000D01*
X97282000Y-49022000D02*
X90678000Y-49022000D01*
X150114000Y-49022000D02*
X150114000Y-40640000D01*
X137363200Y-59563000D02*
X147650200Y-59563000D01*
X147650200Y-59563000D02*
X147650200Y-77597000D01*
X147650200Y-77597000D02*
X137363200Y-77597000D01*
X137363200Y-77597000D02*
X137363200Y-59563000D01*
X180467000Y-83845400D02*
X154813000Y-83845400D01*
X154813000Y-83845400D02*
X154813000Y-73583800D01*
X154813000Y-73583800D02*
X180467000Y-73583800D01*
X180467000Y-73583800D02*
X180467000Y-83845400D01*
X117068600Y-53746400D02*
X110515400Y-53746400D01*
X110515400Y-53746400D02*
X110515400Y-56489600D01*
X110515400Y-56489600D02*
X117068600Y-56489600D01*
X117068600Y-56489600D02*
X117068600Y-53746400D01*
X143535400Y-51816000D02*
X142798800Y-51816000D01*
X136880600Y-51816000D02*
X137617200Y-51816000D01*
X130276600Y-55118000D02*
X131013200Y-55118000D01*
D11*
X143335238Y-98090952D02*
X143335238Y-96757619D01*
X141335238Y-97614761D01*
X142668571Y-95138571D02*
X141335238Y-95138571D01*
X143430476Y-95614761D02*
X142001904Y-96090952D01*
X142001904Y-94852857D01*
X141906666Y-94186190D02*
X141906666Y-93233809D01*
X141335238Y-94376666D02*
X143335238Y-93710000D01*
X141335238Y-93043333D01*
X141525714Y-91233809D02*
X141430476Y-91329047D01*
X141335238Y-91614761D01*
X141335238Y-91805238D01*
X141430476Y-92090952D01*
X141620952Y-92281428D01*
X141811428Y-92376666D01*
X142192380Y-92471904D01*
X142478095Y-92471904D01*
X142859047Y-92376666D01*
X143049523Y-92281428D01*
X143240000Y-92090952D01*
X143335238Y-91805238D01*
X143335238Y-91614761D01*
X143240000Y-91329047D01*
X143144761Y-91233809D01*
X143335238Y-90567142D02*
X143335238Y-89329047D01*
X142573333Y-89995714D01*
X142573333Y-89710000D01*
X142478095Y-89519523D01*
X142382857Y-89424285D01*
X142192380Y-89329047D01*
X141716190Y-89329047D01*
X141525714Y-89424285D01*
X141430476Y-89519523D01*
X141335238Y-89710000D01*
X141335238Y-90281428D01*
X141430476Y-90471904D01*
X141525714Y-90567142D01*
X143144761Y-88567142D02*
X143240000Y-88471904D01*
X143335238Y-88281428D01*
X143335238Y-87805238D01*
X143240000Y-87614761D01*
X143144761Y-87519523D01*
X142954285Y-87424285D01*
X142763809Y-87424285D01*
X142478095Y-87519523D01*
X141335238Y-88662380D01*
X141335238Y-87424285D01*
X125625428Y-115197142D02*
X123625428Y-115197142D01*
X125625428Y-118197142D01*
X123625428Y-118197142D01*
X122054000Y-116482857D02*
X122339714Y-116340000D01*
X122482571Y-116197142D01*
X122625428Y-115911428D01*
X122625428Y-115768571D01*
X122482571Y-115482857D01*
X122339714Y-115340000D01*
X122054000Y-115197142D01*
X121482571Y-115197142D01*
X121196857Y-115340000D01*
X121054000Y-115482857D01*
X120911142Y-115768571D01*
X120911142Y-115911428D01*
X121054000Y-116197142D01*
X121196857Y-116340000D01*
X121482571Y-116482857D01*
X122054000Y-116482857D01*
X122339714Y-116625714D01*
X122482571Y-116768571D01*
X122625428Y-117054285D01*
X122625428Y-117625714D01*
X122482571Y-117911428D01*
X122339714Y-118054285D01*
X122054000Y-118197142D01*
X121482571Y-118197142D01*
X121196857Y-118054285D01*
X121054000Y-117911428D01*
X120911142Y-117625714D01*
X120911142Y-117054285D01*
X121054000Y-116768571D01*
X121196857Y-116625714D01*
X121482571Y-116482857D01*
X118339714Y-116197142D02*
X118339714Y-118197142D01*
X119054000Y-115054285D02*
X119768285Y-117197142D01*
X117911142Y-117197142D01*
X115054000Y-117911428D02*
X115196857Y-118054285D01*
X115625428Y-118197142D01*
X115911142Y-118197142D01*
X116339714Y-118054285D01*
X116625428Y-117768571D01*
X116768285Y-117482857D01*
X116911142Y-116911428D01*
X116911142Y-116482857D01*
X116768285Y-115911428D01*
X116625428Y-115625714D01*
X116339714Y-115340000D01*
X115911142Y-115197142D01*
X115625428Y-115197142D01*
X115196857Y-115340000D01*
X115054000Y-115482857D01*
X113196857Y-115197142D02*
X112911142Y-115197142D01*
X112625428Y-115340000D01*
X112482571Y-115482857D01*
X112339714Y-115768571D01*
X112196857Y-116340000D01*
X112196857Y-117054285D01*
X112339714Y-117625714D01*
X112482571Y-117911428D01*
X112625428Y-118054285D01*
X112911142Y-118197142D01*
X113196857Y-118197142D01*
X113482571Y-118054285D01*
X113625428Y-117911428D01*
X113768285Y-117625714D01*
X113911142Y-117054285D01*
X113911142Y-116340000D01*
X113768285Y-115768571D01*
X113625428Y-115482857D01*
X113482571Y-115340000D01*
X113196857Y-115197142D01*
X110339714Y-115197142D02*
X110054000Y-115197142D01*
X109768285Y-115340000D01*
X109625428Y-115482857D01*
X109482571Y-115768571D01*
X109339714Y-116340000D01*
X109339714Y-117054285D01*
X109482571Y-117625714D01*
X109625428Y-117911428D01*
X109768285Y-118054285D01*
X110054000Y-118197142D01*
X110339714Y-118197142D01*
X110625428Y-118054285D01*
X110768285Y-117911428D01*
X110911142Y-117625714D01*
X111054000Y-117054285D01*
X111054000Y-116340000D01*
X110911142Y-115768571D01*
X110768285Y-115482857D01*
X110625428Y-115340000D01*
X110339714Y-115197142D01*
X106482571Y-118197142D02*
X108196857Y-118197142D01*
X107339714Y-118197142D02*
X107339714Y-115197142D01*
X107625428Y-115625714D01*
X107911142Y-115911428D01*
X108196857Y-116054285D01*
X104625428Y-115197142D02*
X104339714Y-115197142D01*
X104054000Y-115340000D01*
X103911142Y-115482857D01*
X103768285Y-115768571D01*
X103625428Y-116340000D01*
X103625428Y-117054285D01*
X103768285Y-117625714D01*
X103911142Y-117911428D01*
X104054000Y-118054285D01*
X104339714Y-118197142D01*
X104625428Y-118197142D01*
X104911142Y-118054285D01*
X105054000Y-117911428D01*
X105196857Y-117625714D01*
X105339714Y-117054285D01*
X105339714Y-116340000D01*
X105196857Y-115768571D01*
X105054000Y-115482857D01*
X104911142Y-115340000D01*
X104625428Y-115197142D01*
X174163809Y-77644761D02*
X172830476Y-77644761D01*
X173687619Y-79644761D01*
X171211428Y-78311428D02*
X171211428Y-79644761D01*
X171687619Y-77549523D02*
X172163809Y-78978095D01*
X170925714Y-78978095D01*
X170163809Y-79644761D02*
X170163809Y-77644761D01*
X170163809Y-78597142D02*
X169020952Y-78597142D01*
X169020952Y-79644761D02*
X169020952Y-77644761D01*
X166925714Y-79454285D02*
X167020952Y-79549523D01*
X167306666Y-79644761D01*
X167497142Y-79644761D01*
X167782857Y-79549523D01*
X167973333Y-79359047D01*
X168068571Y-79168571D01*
X168163809Y-78787619D01*
X168163809Y-78501904D01*
X168068571Y-78120952D01*
X167973333Y-77930476D01*
X167782857Y-77740000D01*
X167497142Y-77644761D01*
X167306666Y-77644761D01*
X167020952Y-77740000D01*
X166925714Y-77835238D01*
X165116190Y-77644761D02*
X166068571Y-77644761D01*
X166163809Y-78597142D01*
X166068571Y-78501904D01*
X165878095Y-78406666D01*
X165401904Y-78406666D01*
X165211428Y-78501904D01*
X165116190Y-78597142D01*
X165020952Y-78787619D01*
X165020952Y-79263809D01*
X165116190Y-79454285D01*
X165211428Y-79549523D01*
X165401904Y-79644761D01*
X165878095Y-79644761D01*
X166068571Y-79549523D01*
X166163809Y-79454285D01*
X163306666Y-77644761D02*
X163687619Y-77644761D01*
X163878095Y-77740000D01*
X163973333Y-77835238D01*
X164163809Y-78120952D01*
X164259047Y-78501904D01*
X164259047Y-79263809D01*
X164163809Y-79454285D01*
X164068571Y-79549523D01*
X163878095Y-79644761D01*
X163497142Y-79644761D01*
X163306666Y-79549523D01*
X163211428Y-79454285D01*
X163116190Y-79263809D01*
X163116190Y-78787619D01*
X163211428Y-78597142D01*
X163306666Y-78501904D01*
X163497142Y-78406666D01*
X163878095Y-78406666D01*
X164068571Y-78501904D01*
X164163809Y-78597142D01*
X164259047Y-78787619D01*
X162449523Y-77644761D02*
X161211428Y-77644761D01*
X161878095Y-78406666D01*
X161592380Y-78406666D01*
X161401904Y-78501904D01*
X161306666Y-78597142D01*
X161211428Y-78787619D01*
X161211428Y-79263809D01*
X161306666Y-79454285D01*
X161401904Y-79549523D01*
X161592380Y-79644761D01*
X162163809Y-79644761D01*
X162354285Y-79549523D01*
X162449523Y-79454285D01*
X120259714Y-93210000D02*
X118831142Y-93210000D01*
X120545428Y-94067142D02*
X119545428Y-91067142D01*
X118545428Y-94067142D01*
X117688285Y-93924285D02*
X117259714Y-94067142D01*
X116545428Y-94067142D01*
X116259714Y-93924285D01*
X116116857Y-93781428D01*
X115974000Y-93495714D01*
X115974000Y-93210000D01*
X116116857Y-92924285D01*
X116259714Y-92781428D01*
X116545428Y-92638571D01*
X117116857Y-92495714D01*
X117402571Y-92352857D01*
X117545428Y-92210000D01*
X117688285Y-91924285D01*
X117688285Y-91638571D01*
X117545428Y-91352857D01*
X117402571Y-91210000D01*
X117116857Y-91067142D01*
X116402571Y-91067142D01*
X115974000Y-91210000D01*
X113402571Y-91067142D02*
X113974000Y-91067142D01*
X114259714Y-91210000D01*
X114402571Y-91352857D01*
X114688285Y-91781428D01*
X114831142Y-92352857D01*
X114831142Y-93495714D01*
X114688285Y-93781428D01*
X114545428Y-93924285D01*
X114259714Y-94067142D01*
X113688285Y-94067142D01*
X113402571Y-93924285D01*
X113259714Y-93781428D01*
X113116857Y-93495714D01*
X113116857Y-92781428D01*
X113259714Y-92495714D01*
X113402571Y-92352857D01*
X113688285Y-92210000D01*
X114259714Y-92210000D01*
X114545428Y-92352857D01*
X114688285Y-92495714D01*
X114831142Y-92781428D01*
X110116857Y-93781428D02*
X110259714Y-93924285D01*
X110688285Y-94067142D01*
X110974000Y-94067142D01*
X111402571Y-93924285D01*
X111688285Y-93638571D01*
X111831142Y-93352857D01*
X111974000Y-92781428D01*
X111974000Y-92352857D01*
X111831142Y-91781428D01*
X111688285Y-91495714D01*
X111402571Y-91210000D01*
X110974000Y-91067142D01*
X110688285Y-91067142D01*
X110259714Y-91210000D01*
X110116857Y-91352857D01*
X107545428Y-92067142D02*
X107545428Y-94067142D01*
X108259714Y-90924285D02*
X108974000Y-93067142D01*
X107116857Y-93067142D01*
X105402571Y-91067142D02*
X105116857Y-91067142D01*
X104831142Y-91210000D01*
X104688285Y-91352857D01*
X104545428Y-91638571D01*
X104402571Y-92210000D01*
X104402571Y-92924285D01*
X104545428Y-93495714D01*
X104688285Y-93781428D01*
X104831142Y-93924285D01*
X105116857Y-94067142D01*
X105402571Y-94067142D01*
X105688285Y-93924285D01*
X105831142Y-93781428D01*
X105974000Y-93495714D01*
X106116857Y-92924285D01*
X106116857Y-92210000D01*
X105974000Y-91638571D01*
X105831142Y-91352857D01*
X105688285Y-91210000D01*
X105402571Y-91067142D01*
X102545428Y-91067142D02*
X102259714Y-91067142D01*
X101974000Y-91210000D01*
X101831142Y-91352857D01*
X101688285Y-91638571D01*
X101545428Y-92210000D01*
X101545428Y-92924285D01*
X101688285Y-93495714D01*
X101831142Y-93781428D01*
X101974000Y-93924285D01*
X102259714Y-94067142D01*
X102545428Y-94067142D01*
X102831142Y-93924285D01*
X102974000Y-93781428D01*
X103116857Y-93495714D01*
X103259714Y-92924285D01*
X103259714Y-92210000D01*
X103116857Y-91638571D01*
X102974000Y-91352857D01*
X102831142Y-91210000D01*
X102545428Y-91067142D01*
X99831142Y-92352857D02*
X100116857Y-92210000D01*
X100259714Y-92067142D01*
X100402571Y-91781428D01*
X100402571Y-91638571D01*
X100259714Y-91352857D01*
X100116857Y-91210000D01*
X99831142Y-91067142D01*
X99259714Y-91067142D01*
X98974000Y-91210000D01*
X98831142Y-91352857D01*
X98688285Y-91638571D01*
X98688285Y-91781428D01*
X98831142Y-92067142D01*
X98974000Y-92210000D01*
X99259714Y-92352857D01*
X99831142Y-92352857D01*
X100116857Y-92495714D01*
X100259714Y-92638571D01*
X100402571Y-92924285D01*
X100402571Y-93495714D01*
X100259714Y-93781428D01*
X100116857Y-93924285D01*
X99831142Y-94067142D01*
X99259714Y-94067142D01*
X98974000Y-93924285D01*
X98831142Y-93781428D01*
X98688285Y-93495714D01*
X98688285Y-92924285D01*
X98831142Y-92638571D01*
X98974000Y-92495714D01*
X99259714Y-92352857D01*
X176513333Y-119554761D02*
X175180000Y-119554761D01*
X176037142Y-121554761D01*
X173560952Y-120221428D02*
X173560952Y-121554761D01*
X174037142Y-119459523D02*
X174513333Y-120888095D01*
X173275238Y-120888095D01*
X172608571Y-120983333D02*
X171656190Y-120983333D01*
X172799047Y-121554761D02*
X172132380Y-119554761D01*
X171465714Y-121554761D01*
X169656190Y-121364285D02*
X169751428Y-121459523D01*
X170037142Y-121554761D01*
X170227619Y-121554761D01*
X170513333Y-121459523D01*
X170703809Y-121269047D01*
X170799047Y-121078571D01*
X170894285Y-120697619D01*
X170894285Y-120411904D01*
X170799047Y-120030952D01*
X170703809Y-119840476D01*
X170513333Y-119650000D01*
X170227619Y-119554761D01*
X170037142Y-119554761D01*
X169751428Y-119650000D01*
X169656190Y-119745238D01*
X167751428Y-121554761D02*
X168894285Y-121554761D01*
X168322857Y-121554761D02*
X168322857Y-119554761D01*
X168513333Y-119840476D01*
X168703809Y-120030952D01*
X168894285Y-120126190D01*
X167084761Y-119554761D02*
X165846666Y-119554761D01*
X166513333Y-120316666D01*
X166227619Y-120316666D01*
X166037142Y-120411904D01*
X165941904Y-120507142D01*
X165846666Y-120697619D01*
X165846666Y-121173809D01*
X165941904Y-121364285D01*
X166037142Y-121459523D01*
X166227619Y-121554761D01*
X166799047Y-121554761D01*
X166989523Y-121459523D01*
X167084761Y-121364285D01*
X164703809Y-120411904D02*
X164894285Y-120316666D01*
X164989523Y-120221428D01*
X165084761Y-120030952D01*
X165084761Y-119935714D01*
X164989523Y-119745238D01*
X164894285Y-119650000D01*
X164703809Y-119554761D01*
X164322857Y-119554761D01*
X164132380Y-119650000D01*
X164037142Y-119745238D01*
X163941904Y-119935714D01*
X163941904Y-120030952D01*
X164037142Y-120221428D01*
X164132380Y-120316666D01*
X164322857Y-120411904D01*
X164703809Y-120411904D01*
X164894285Y-120507142D01*
X164989523Y-120602380D01*
X165084761Y-120792857D01*
X165084761Y-121173809D01*
X164989523Y-121364285D01*
X164894285Y-121459523D01*
X164703809Y-121554761D01*
X164322857Y-121554761D01*
X164132380Y-121459523D01*
X164037142Y-121364285D01*
X163941904Y-121173809D01*
X163941904Y-120792857D01*
X164037142Y-120602380D01*
X164132380Y-120507142D01*
X164322857Y-120411904D01*
X176830952Y-91614761D02*
X175497619Y-91614761D01*
X176354761Y-93614761D01*
X173878571Y-92281428D02*
X173878571Y-93614761D01*
X174354761Y-91519523D02*
X174830952Y-92948095D01*
X173592857Y-92948095D01*
X172926190Y-93043333D02*
X171973809Y-93043333D01*
X173116666Y-93614761D02*
X172450000Y-91614761D01*
X171783333Y-93614761D01*
X169973809Y-93424285D02*
X170069047Y-93519523D01*
X170354761Y-93614761D01*
X170545238Y-93614761D01*
X170830952Y-93519523D01*
X171021428Y-93329047D01*
X171116666Y-93138571D01*
X171211904Y-92757619D01*
X171211904Y-92471904D01*
X171116666Y-92090952D01*
X171021428Y-91900476D01*
X170830952Y-91710000D01*
X170545238Y-91614761D01*
X170354761Y-91614761D01*
X170069047Y-91710000D01*
X169973809Y-91805238D01*
X168735714Y-91614761D02*
X168545238Y-91614761D01*
X168354761Y-91710000D01*
X168259523Y-91805238D01*
X168164285Y-91995714D01*
X168069047Y-92376666D01*
X168069047Y-92852857D01*
X168164285Y-93233809D01*
X168259523Y-93424285D01*
X168354761Y-93519523D01*
X168545238Y-93614761D01*
X168735714Y-93614761D01*
X168926190Y-93519523D01*
X169021428Y-93424285D01*
X169116666Y-93233809D01*
X169211904Y-92852857D01*
X169211904Y-92376666D01*
X169116666Y-91995714D01*
X169021428Y-91805238D01*
X168926190Y-91710000D01*
X168735714Y-91614761D01*
X166830952Y-91614761D02*
X166640476Y-91614761D01*
X166450000Y-91710000D01*
X166354761Y-91805238D01*
X166259523Y-91995714D01*
X166164285Y-92376666D01*
X166164285Y-92852857D01*
X166259523Y-93233809D01*
X166354761Y-93424285D01*
X166450000Y-93519523D01*
X166640476Y-93614761D01*
X166830952Y-93614761D01*
X167021428Y-93519523D01*
X167116666Y-93424285D01*
X167211904Y-93233809D01*
X167307142Y-92852857D01*
X167307142Y-92376666D01*
X167211904Y-91995714D01*
X167116666Y-91805238D01*
X167021428Y-91710000D01*
X166830952Y-91614761D01*
D10*
X138223047Y-128992380D02*
X138223047Y-129706666D01*
X138270666Y-129849523D01*
X138365904Y-129944761D01*
X138508761Y-129992380D01*
X138604000Y-129992380D01*
X137270666Y-129992380D02*
X137746857Y-129992380D01*
X137746857Y-128992380D01*
X136365904Y-129897142D02*
X136413523Y-129944761D01*
X136556380Y-129992380D01*
X136651619Y-129992380D01*
X136794476Y-129944761D01*
X136889714Y-129849523D01*
X136937333Y-129754285D01*
X136984952Y-129563809D01*
X136984952Y-129420952D01*
X136937333Y-129230476D01*
X136889714Y-129135238D01*
X136794476Y-129040000D01*
X136651619Y-128992380D01*
X136556380Y-128992380D01*
X136413523Y-129040000D01*
X136365904Y-129087619D01*
X135651619Y-128992380D02*
X135651619Y-129706666D01*
X135699238Y-129849523D01*
X135794476Y-129944761D01*
X135937333Y-129992380D01*
X136032571Y-129992380D01*
X134699238Y-129992380D02*
X135175428Y-129992380D01*
X135175428Y-128992380D01*
X133794476Y-129897142D02*
X133842095Y-129944761D01*
X133984952Y-129992380D01*
X134080190Y-129992380D01*
X134223047Y-129944761D01*
X134318285Y-129849523D01*
X134365904Y-129754285D01*
X134413523Y-129563809D01*
X134413523Y-129420952D01*
X134365904Y-129230476D01*
X134318285Y-129135238D01*
X134223047Y-129040000D01*
X134080190Y-128992380D01*
X133984952Y-128992380D01*
X133842095Y-129040000D01*
X133794476Y-129087619D01*
X133080190Y-128992380D02*
X133080190Y-129706666D01*
X133127809Y-129849523D01*
X133223047Y-129944761D01*
X133365904Y-129992380D01*
X133461142Y-129992380D01*
X132127809Y-129992380D02*
X132604000Y-129992380D01*
X132604000Y-128992380D01*
X131223047Y-129897142D02*
X131270666Y-129944761D01*
X131413523Y-129992380D01*
X131508761Y-129992380D01*
X131651619Y-129944761D01*
X131746857Y-129849523D01*
X131794476Y-129754285D01*
X131842095Y-129563809D01*
X131842095Y-129420952D01*
X131794476Y-129230476D01*
X131746857Y-129135238D01*
X131651619Y-129040000D01*
X131508761Y-128992380D01*
X131413523Y-128992380D01*
X131270666Y-129040000D01*
X131223047Y-129087619D01*
X130508761Y-128992380D02*
X130508761Y-129706666D01*
X130556380Y-129849523D01*
X130651619Y-129944761D01*
X130794476Y-129992380D01*
X130889714Y-129992380D01*
X129556380Y-129992380D02*
X130032571Y-129992380D01*
X130032571Y-128992380D01*
X128651619Y-129897142D02*
X128699238Y-129944761D01*
X128842095Y-129992380D01*
X128937333Y-129992380D01*
X129080190Y-129944761D01*
X129175428Y-129849523D01*
X129223047Y-129754285D01*
X129270666Y-129563809D01*
X129270666Y-129420952D01*
X129223047Y-129230476D01*
X129175428Y-129135238D01*
X129080190Y-129040000D01*
X128937333Y-128992380D01*
X128842095Y-128992380D01*
X128699238Y-129040000D01*
X128651619Y-129087619D01*
D11*
X174163809Y-63547761D02*
X172830476Y-63547761D01*
X173687619Y-65547761D01*
X171211428Y-64214428D02*
X171211428Y-65547761D01*
X171687619Y-63452523D02*
X172163809Y-64881095D01*
X170925714Y-64881095D01*
X170163809Y-65547761D02*
X170163809Y-63547761D01*
X170163809Y-64500142D02*
X169020952Y-64500142D01*
X169020952Y-65547761D02*
X169020952Y-63547761D01*
X166925714Y-65357285D02*
X167020952Y-65452523D01*
X167306666Y-65547761D01*
X167497142Y-65547761D01*
X167782857Y-65452523D01*
X167973333Y-65262047D01*
X168068571Y-65071571D01*
X168163809Y-64690619D01*
X168163809Y-64404904D01*
X168068571Y-64023952D01*
X167973333Y-63833476D01*
X167782857Y-63643000D01*
X167497142Y-63547761D01*
X167306666Y-63547761D01*
X167020952Y-63643000D01*
X166925714Y-63738238D01*
X165116190Y-63547761D02*
X166068571Y-63547761D01*
X166163809Y-64500142D01*
X166068571Y-64404904D01*
X165878095Y-64309666D01*
X165401904Y-64309666D01*
X165211428Y-64404904D01*
X165116190Y-64500142D01*
X165020952Y-64690619D01*
X165020952Y-65166809D01*
X165116190Y-65357285D01*
X165211428Y-65452523D01*
X165401904Y-65547761D01*
X165878095Y-65547761D01*
X166068571Y-65452523D01*
X166163809Y-65357285D01*
X163306666Y-63547761D02*
X163687619Y-63547761D01*
X163878095Y-63643000D01*
X163973333Y-63738238D01*
X164163809Y-64023952D01*
X164259047Y-64404904D01*
X164259047Y-65166809D01*
X164163809Y-65357285D01*
X164068571Y-65452523D01*
X163878095Y-65547761D01*
X163497142Y-65547761D01*
X163306666Y-65452523D01*
X163211428Y-65357285D01*
X163116190Y-65166809D01*
X163116190Y-64690619D01*
X163211428Y-64500142D01*
X163306666Y-64404904D01*
X163497142Y-64309666D01*
X163878095Y-64309666D01*
X164068571Y-64404904D01*
X164163809Y-64500142D01*
X164259047Y-64690619D01*
X162449523Y-63547761D02*
X161211428Y-63547761D01*
X161878095Y-64309666D01*
X161592380Y-64309666D01*
X161401904Y-64404904D01*
X161306666Y-64500142D01*
X161211428Y-64690619D01*
X161211428Y-65166809D01*
X161306666Y-65357285D01*
X161401904Y-65452523D01*
X161592380Y-65547761D01*
X162163809Y-65547761D01*
X162354285Y-65452523D01*
X162449523Y-65357285D01*
X122759714Y-69794285D02*
X122331142Y-69937142D01*
X121616857Y-69937142D01*
X121331142Y-69794285D01*
X121188285Y-69651428D01*
X121045428Y-69365714D01*
X121045428Y-69080000D01*
X121188285Y-68794285D01*
X121331142Y-68651428D01*
X121616857Y-68508571D01*
X122188285Y-68365714D01*
X122474000Y-68222857D01*
X122616857Y-68080000D01*
X122759714Y-67794285D01*
X122759714Y-67508571D01*
X122616857Y-67222857D01*
X122474000Y-67080000D01*
X122188285Y-66937142D01*
X121474000Y-66937142D01*
X121045428Y-67080000D01*
X119902571Y-69794285D02*
X119474000Y-69937142D01*
X118759714Y-69937142D01*
X118474000Y-69794285D01*
X118331142Y-69651428D01*
X118188285Y-69365714D01*
X118188285Y-69080000D01*
X118331142Y-68794285D01*
X118474000Y-68651428D01*
X118759714Y-68508571D01*
X119331142Y-68365714D01*
X119616857Y-68222857D01*
X119759714Y-68080000D01*
X119902571Y-67794285D01*
X119902571Y-67508571D01*
X119759714Y-67222857D01*
X119616857Y-67080000D01*
X119331142Y-66937142D01*
X118616857Y-66937142D01*
X118188285Y-67080000D01*
X117331142Y-66937142D02*
X115616857Y-66937142D01*
X116474000Y-69937142D02*
X116474000Y-66937142D01*
X114902571Y-66937142D02*
X113045428Y-66937142D01*
X114045428Y-68080000D01*
X113616857Y-68080000D01*
X113331142Y-68222857D01*
X113188285Y-68365714D01*
X113045428Y-68651428D01*
X113045428Y-69365714D01*
X113188285Y-69651428D01*
X113331142Y-69794285D01*
X113616857Y-69937142D01*
X114474000Y-69937142D01*
X114759714Y-69794285D01*
X114902571Y-69651428D01*
X111616857Y-69937142D02*
X111045428Y-69937142D01*
X110759714Y-69794285D01*
X110616857Y-69651428D01*
X110331142Y-69222857D01*
X110188285Y-68651428D01*
X110188285Y-67508571D01*
X110331142Y-67222857D01*
X110474000Y-67080000D01*
X110759714Y-66937142D01*
X111331142Y-66937142D01*
X111616857Y-67080000D01*
X111759714Y-67222857D01*
X111902571Y-67508571D01*
X111902571Y-68222857D01*
X111759714Y-68508571D01*
X111616857Y-68651428D01*
X111331142Y-68794285D01*
X110759714Y-68794285D01*
X110474000Y-68651428D01*
X110331142Y-68508571D01*
X110188285Y-68222857D01*
X109045428Y-69794285D02*
X108616857Y-69937142D01*
X107902571Y-69937142D01*
X107616857Y-69794285D01*
X107474000Y-69651428D01*
X107331142Y-69365714D01*
X107331142Y-69080000D01*
X107474000Y-68794285D01*
X107616857Y-68651428D01*
X107902571Y-68508571D01*
X108474000Y-68365714D01*
X108759714Y-68222857D01*
X108902571Y-68080000D01*
X109045428Y-67794285D01*
X109045428Y-67508571D01*
X108902571Y-67222857D01*
X108759714Y-67080000D01*
X108474000Y-66937142D01*
X107759714Y-66937142D01*
X107331142Y-67080000D01*
X105045428Y-68365714D02*
X106045428Y-68365714D01*
X106045428Y-69937142D02*
X106045428Y-66937142D01*
X104616857Y-66937142D01*
X102902571Y-66937142D02*
X102616857Y-66937142D01*
X102331142Y-67080000D01*
X102188285Y-67222857D01*
X102045428Y-67508571D01*
X101902571Y-68080000D01*
X101902571Y-68794285D01*
X102045428Y-69365714D01*
X102188285Y-69651428D01*
X102331142Y-69794285D01*
X102616857Y-69937142D01*
X102902571Y-69937142D01*
X103188285Y-69794285D01*
X103331142Y-69651428D01*
X103474000Y-69365714D01*
X103616857Y-68794285D01*
X103616857Y-68080000D01*
X103474000Y-67508571D01*
X103331142Y-67222857D01*
X103188285Y-67080000D01*
X102902571Y-66937142D01*
X99045428Y-69937142D02*
X100759714Y-69937142D01*
X99902571Y-69937142D02*
X99902571Y-66937142D01*
X100188285Y-67365714D01*
X100474000Y-67651428D01*
X100759714Y-67794285D01*
X97188285Y-66937142D02*
X96902571Y-66937142D01*
X96616857Y-67080000D01*
X96474000Y-67222857D01*
X96331142Y-67508571D01*
X96188285Y-68080000D01*
X96188285Y-68794285D01*
X96331142Y-69365714D01*
X96474000Y-69651428D01*
X96616857Y-69794285D01*
X96902571Y-69937142D01*
X97188285Y-69937142D01*
X97474000Y-69794285D01*
X97616857Y-69651428D01*
X97759714Y-69365714D01*
X97902571Y-68794285D01*
X97902571Y-68080000D01*
X97759714Y-67508571D01*
X97616857Y-67222857D01*
X97474000Y-67080000D01*
X97188285Y-66937142D01*
X176513333Y-105584761D02*
X175180000Y-105584761D01*
X176037142Y-107584761D01*
X173560952Y-106251428D02*
X173560952Y-107584761D01*
X174037142Y-105489523D02*
X174513333Y-106918095D01*
X173275238Y-106918095D01*
X172608571Y-107013333D02*
X171656190Y-107013333D01*
X172799047Y-107584761D02*
X172132380Y-105584761D01*
X171465714Y-107584761D01*
X169656190Y-107394285D02*
X169751428Y-107489523D01*
X170037142Y-107584761D01*
X170227619Y-107584761D01*
X170513333Y-107489523D01*
X170703809Y-107299047D01*
X170799047Y-107108571D01*
X170894285Y-106727619D01*
X170894285Y-106441904D01*
X170799047Y-106060952D01*
X170703809Y-105870476D01*
X170513333Y-105680000D01*
X170227619Y-105584761D01*
X170037142Y-105584761D01*
X169751428Y-105680000D01*
X169656190Y-105775238D01*
X167751428Y-107584761D02*
X168894285Y-107584761D01*
X168322857Y-107584761D02*
X168322857Y-105584761D01*
X168513333Y-105870476D01*
X168703809Y-106060952D01*
X168894285Y-106156190D01*
X167084761Y-105584761D02*
X165751428Y-105584761D01*
X166608571Y-107584761D01*
X164132380Y-106251428D02*
X164132380Y-107584761D01*
X164608571Y-105489523D02*
X165084761Y-106918095D01*
X163846666Y-106918095D01*
X143335238Y-74087952D02*
X143335238Y-72754619D01*
X141335238Y-73611761D01*
X142668571Y-71135571D02*
X141335238Y-71135571D01*
X143430476Y-71611761D02*
X142001904Y-72087952D01*
X142001904Y-70849857D01*
X141906666Y-70183190D02*
X141906666Y-69230809D01*
X141335238Y-70373666D02*
X143335238Y-69707000D01*
X141335238Y-69040333D01*
X141525714Y-67230809D02*
X141430476Y-67326047D01*
X141335238Y-67611761D01*
X141335238Y-67802238D01*
X141430476Y-68087952D01*
X141620952Y-68278428D01*
X141811428Y-68373666D01*
X142192380Y-68468904D01*
X142478095Y-68468904D01*
X142859047Y-68373666D01*
X143049523Y-68278428D01*
X143240000Y-68087952D01*
X143335238Y-67802238D01*
X143335238Y-67611761D01*
X143240000Y-67326047D01*
X143144761Y-67230809D01*
X143335238Y-66564142D02*
X143335238Y-65326047D01*
X142573333Y-65992714D01*
X142573333Y-65707000D01*
X142478095Y-65516523D01*
X142382857Y-65421285D01*
X142192380Y-65326047D01*
X141716190Y-65326047D01*
X141525714Y-65421285D01*
X141430476Y-65516523D01*
X141335238Y-65707000D01*
X141335238Y-66278428D01*
X141430476Y-66468904D01*
X141525714Y-66564142D01*
X143144761Y-64564142D02*
X143240000Y-64468904D01*
X143335238Y-64278428D01*
X143335238Y-63802238D01*
X143240000Y-63611761D01*
X143144761Y-63516523D01*
X142954285Y-63421285D01*
X142763809Y-63421285D01*
X142478095Y-63516523D01*
X141335238Y-64659380D01*
X141335238Y-63421285D01*
D10*
X114368000Y-44688000D02*
X114368000Y-43688000D01*
X113085619Y-43878476D02*
X113561809Y-44211809D01*
X113085619Y-44449904D02*
X114085619Y-44449904D01*
X114085619Y-44068952D01*
X114038000Y-43973714D01*
X113990380Y-43926095D01*
X113895142Y-43878476D01*
X113752285Y-43878476D01*
X113657047Y-43926095D01*
X113609428Y-43973714D01*
X113561809Y-44068952D01*
X113561809Y-44449904D01*
X114368000Y-43688000D02*
X114368000Y-42688000D01*
X113085619Y-43449904D02*
X114085619Y-43449904D01*
X114085619Y-43211809D01*
X114038000Y-43068952D01*
X113942761Y-42973714D01*
X113847523Y-42926095D01*
X113657047Y-42878476D01*
X113514190Y-42878476D01*
X113323714Y-42926095D01*
X113228476Y-42973714D01*
X113133238Y-43068952D01*
X113085619Y-43211809D01*
X113085619Y-43449904D01*
X167200000Y-45283238D02*
X167200000Y-44283238D01*
X165917619Y-44473714D02*
X166393809Y-44807047D01*
X165917619Y-45045142D02*
X166917619Y-45045142D01*
X166917619Y-44664190D01*
X166870000Y-44568952D01*
X166822380Y-44521333D01*
X166727142Y-44473714D01*
X166584285Y-44473714D01*
X166489047Y-44521333D01*
X166441428Y-44568952D01*
X166393809Y-44664190D01*
X166393809Y-45045142D01*
X167200000Y-44283238D02*
X167200000Y-43235619D01*
X166917619Y-43854666D02*
X166917619Y-43664190D01*
X166870000Y-43568952D01*
X166774761Y-43473714D01*
X166584285Y-43426095D01*
X166250952Y-43426095D01*
X166060476Y-43473714D01*
X165965238Y-43568952D01*
X165917619Y-43664190D01*
X165917619Y-43854666D01*
X165965238Y-43949904D01*
X166060476Y-44045142D01*
X166250952Y-44092761D01*
X166584285Y-44092761D01*
X166774761Y-44045142D01*
X166870000Y-43949904D01*
X166917619Y-43854666D01*
X167200000Y-43235619D02*
X167200000Y-42092761D01*
X165917619Y-42997523D02*
X166917619Y-42997523D01*
X166203333Y-42664190D01*
X166917619Y-42330857D01*
X165917619Y-42330857D01*
X94556000Y-44735619D02*
X94556000Y-43592761D01*
X93273619Y-44497523D02*
X94273619Y-44497523D01*
X93559333Y-44164190D01*
X94273619Y-43830857D01*
X93273619Y-43830857D01*
X94556000Y-43592761D02*
X94556000Y-42640380D01*
X93273619Y-42830857D02*
X93273619Y-43402285D01*
X93273619Y-43116571D02*
X94273619Y-43116571D01*
X94130761Y-43211809D01*
X94035523Y-43307047D01*
X93987904Y-43402285D01*
X107764000Y-45473714D02*
X107764000Y-44997523D01*
X106481619Y-45235619D02*
X107481619Y-45235619D01*
X107764000Y-44997523D02*
X107764000Y-43949904D01*
X107481619Y-44568952D02*
X107481619Y-44378476D01*
X107434000Y-44283238D01*
X107338761Y-44188000D01*
X107148285Y-44140380D01*
X106814952Y-44140380D01*
X106624476Y-44188000D01*
X106529238Y-44283238D01*
X106481619Y-44378476D01*
X106481619Y-44568952D01*
X106529238Y-44664190D01*
X106624476Y-44759428D01*
X106814952Y-44807047D01*
X107148285Y-44807047D01*
X107338761Y-44759428D01*
X107434000Y-44664190D01*
X107481619Y-44568952D01*
X107764000Y-43949904D02*
X107764000Y-42949904D01*
X106481619Y-43140380D02*
X106957809Y-43473714D01*
X106481619Y-43711809D02*
X107481619Y-43711809D01*
X107481619Y-43330857D01*
X107434000Y-43235619D01*
X107386380Y-43188000D01*
X107291142Y-43140380D01*
X107148285Y-43140380D01*
X107053047Y-43188000D01*
X107005428Y-43235619D01*
X106957809Y-43330857D01*
X106957809Y-43711809D01*
X107764000Y-42949904D02*
X107764000Y-41902285D01*
X106386380Y-42045142D02*
X106434000Y-42140380D01*
X106529238Y-42235619D01*
X106672095Y-42378476D01*
X106719714Y-42473714D01*
X106719714Y-42568952D01*
X106481619Y-42521333D02*
X106529238Y-42616571D01*
X106624476Y-42711809D01*
X106814952Y-42759428D01*
X107148285Y-42759428D01*
X107338761Y-42711809D01*
X107434000Y-42616571D01*
X107481619Y-42521333D01*
X107481619Y-42330857D01*
X107434000Y-42235619D01*
X107338761Y-42140380D01*
X107148285Y-42092761D01*
X106814952Y-42092761D01*
X106624476Y-42140380D01*
X106529238Y-42235619D01*
X106481619Y-42330857D01*
X106481619Y-42521333D01*
X120972000Y-44759428D02*
X120972000Y-43616571D01*
X120689619Y-44616571D02*
X119689619Y-44378476D01*
X120403904Y-44188000D01*
X119689619Y-43997523D01*
X120689619Y-43759428D01*
X120972000Y-43616571D02*
X120972000Y-42616571D01*
X119689619Y-42807047D02*
X120165809Y-43140380D01*
X119689619Y-43378476D02*
X120689619Y-43378476D01*
X120689619Y-42997523D01*
X120642000Y-42902285D01*
X120594380Y-42854666D01*
X120499142Y-42807047D01*
X120356285Y-42807047D01*
X120261047Y-42854666D01*
X120213428Y-42902285D01*
X120165809Y-42997523D01*
X120165809Y-43378476D01*
X134180000Y-45426095D02*
X134180000Y-44378476D01*
X132897619Y-45188000D02*
X133897619Y-45188000D01*
X133421428Y-45188000D02*
X133421428Y-44616571D01*
X132897619Y-44616571D02*
X133897619Y-44616571D01*
X134180000Y-44378476D02*
X134180000Y-43521333D01*
X133183333Y-44188000D02*
X133183333Y-43711809D01*
X132897619Y-44283238D02*
X133897619Y-43949904D01*
X132897619Y-43616571D01*
X134180000Y-43521333D02*
X134180000Y-42711809D01*
X132897619Y-42807047D02*
X132897619Y-43283238D01*
X133897619Y-43283238D01*
X134180000Y-42711809D02*
X134180000Y-41949904D01*
X133897619Y-42616571D02*
X133897619Y-42045142D01*
X132897619Y-42330857D02*
X133897619Y-42330857D01*
X160596000Y-46116571D02*
X160596000Y-45116571D01*
X159837428Y-45545142D02*
X159789809Y-45402285D01*
X159742190Y-45354666D01*
X159646952Y-45307047D01*
X159504095Y-45307047D01*
X159408857Y-45354666D01*
X159361238Y-45402285D01*
X159313619Y-45497523D01*
X159313619Y-45878476D01*
X160313619Y-45878476D01*
X160313619Y-45545142D01*
X160266000Y-45449904D01*
X160218380Y-45402285D01*
X160123142Y-45354666D01*
X160027904Y-45354666D01*
X159932666Y-45402285D01*
X159885047Y-45449904D01*
X159837428Y-45545142D01*
X159837428Y-45878476D01*
X160596000Y-45116571D02*
X160596000Y-44068952D01*
X160313619Y-44878476D02*
X159504095Y-44878476D01*
X159408857Y-44830857D01*
X159361238Y-44783238D01*
X159313619Y-44688000D01*
X159313619Y-44497523D01*
X159361238Y-44402285D01*
X159408857Y-44354666D01*
X159504095Y-44307047D01*
X160313619Y-44307047D01*
X160596000Y-44068952D02*
X160596000Y-43116571D01*
X159361238Y-43878476D02*
X159313619Y-43735619D01*
X159313619Y-43497523D01*
X159361238Y-43402285D01*
X159408857Y-43354666D01*
X159504095Y-43307047D01*
X159599333Y-43307047D01*
X159694571Y-43354666D01*
X159742190Y-43402285D01*
X159789809Y-43497523D01*
X159837428Y-43688000D01*
X159885047Y-43783238D01*
X159932666Y-43830857D01*
X160027904Y-43878476D01*
X160123142Y-43878476D01*
X160218380Y-43830857D01*
X160266000Y-43783238D01*
X160313619Y-43688000D01*
X160313619Y-43449904D01*
X160266000Y-43307047D01*
X160596000Y-43116571D02*
X160596000Y-42259428D01*
X159599333Y-42926095D02*
X159599333Y-42449904D01*
X159313619Y-43021333D02*
X160313619Y-42688000D01*
X159313619Y-42354666D01*
X160596000Y-42259428D02*
X160596000Y-41259428D01*
X159313619Y-42021333D02*
X160313619Y-42021333D01*
X159313619Y-41449904D02*
X159885047Y-41878476D01*
X160313619Y-41449904D02*
X159742190Y-42021333D01*
X101160000Y-46307047D02*
X101160000Y-45164190D01*
X99877619Y-46068952D02*
X100877619Y-46068952D01*
X100163333Y-45735619D01*
X100877619Y-45402285D01*
X99877619Y-45402285D01*
X101160000Y-45164190D02*
X101160000Y-44259428D01*
X100401428Y-44926095D02*
X100401428Y-44592761D01*
X99877619Y-44449904D02*
X99877619Y-44926095D01*
X100877619Y-44926095D01*
X100877619Y-44449904D01*
X101160000Y-44259428D02*
X101160000Y-43116571D01*
X99877619Y-44021333D02*
X100877619Y-44021333D01*
X100163333Y-43688000D01*
X100877619Y-43354666D01*
X99877619Y-43354666D01*
X101160000Y-43116571D02*
X101160000Y-42116571D01*
X99877619Y-42307047D02*
X100353809Y-42640380D01*
X99877619Y-42878476D02*
X100877619Y-42878476D01*
X100877619Y-42497523D01*
X100830000Y-42402285D01*
X100782380Y-42354666D01*
X100687142Y-42307047D01*
X100544285Y-42307047D01*
X100449047Y-42354666D01*
X100401428Y-42402285D01*
X100353809Y-42497523D01*
X100353809Y-42878476D01*
X101160000Y-42116571D02*
X101160000Y-41068952D01*
X99782380Y-41211809D02*
X99830000Y-41307047D01*
X99925238Y-41402285D01*
X100068095Y-41545142D01*
X100115714Y-41640380D01*
X100115714Y-41735619D01*
X99877619Y-41688000D02*
X99925238Y-41783238D01*
X100020476Y-41878476D01*
X100210952Y-41926095D01*
X100544285Y-41926095D01*
X100734761Y-41878476D01*
X100830000Y-41783238D01*
X100877619Y-41688000D01*
X100877619Y-41497523D01*
X100830000Y-41402285D01*
X100734761Y-41307047D01*
X100544285Y-41259428D01*
X100210952Y-41259428D01*
X100020476Y-41307047D01*
X99925238Y-41402285D01*
X99877619Y-41497523D01*
X99877619Y-41688000D01*
X140784000Y-44830857D02*
X140784000Y-44354666D01*
X139501619Y-44592761D02*
X140501619Y-44592761D01*
X140784000Y-44354666D02*
X140784000Y-43307047D01*
X139501619Y-44116571D02*
X140501619Y-44116571D01*
X139501619Y-43545142D01*
X140501619Y-43545142D01*
X140784000Y-43307047D02*
X140784000Y-42545142D01*
X140501619Y-43211809D02*
X140501619Y-42640380D01*
X139501619Y-42926095D02*
X140501619Y-42926095D01*
X153992000Y-46211809D02*
X153992000Y-45211809D01*
X153233428Y-45640380D02*
X153185809Y-45497523D01*
X153138190Y-45449904D01*
X153042952Y-45402285D01*
X152900095Y-45402285D01*
X152804857Y-45449904D01*
X152757238Y-45497523D01*
X152709619Y-45592761D01*
X152709619Y-45973714D01*
X153709619Y-45973714D01*
X153709619Y-45640380D01*
X153662000Y-45545142D01*
X153614380Y-45497523D01*
X153519142Y-45449904D01*
X153423904Y-45449904D01*
X153328666Y-45497523D01*
X153281047Y-45545142D01*
X153233428Y-45640380D01*
X153233428Y-45973714D01*
X153992000Y-45211809D02*
X153992000Y-44164190D01*
X153709619Y-44973714D02*
X152900095Y-44973714D01*
X152804857Y-44926095D01*
X152757238Y-44878476D01*
X152709619Y-44783238D01*
X152709619Y-44592761D01*
X152757238Y-44497523D01*
X152804857Y-44449904D01*
X152900095Y-44402285D01*
X153709619Y-44402285D01*
X153992000Y-44164190D02*
X153992000Y-43211809D01*
X152757238Y-43973714D02*
X152709619Y-43830857D01*
X152709619Y-43592761D01*
X152757238Y-43497523D01*
X152804857Y-43449904D01*
X152900095Y-43402285D01*
X152995333Y-43402285D01*
X153090571Y-43449904D01*
X153138190Y-43497523D01*
X153185809Y-43592761D01*
X153233428Y-43783238D01*
X153281047Y-43878476D01*
X153328666Y-43926095D01*
X153423904Y-43973714D01*
X153519142Y-43973714D01*
X153614380Y-43926095D01*
X153662000Y-43878476D01*
X153709619Y-43783238D01*
X153709619Y-43545142D01*
X153662000Y-43402285D01*
X153992000Y-43211809D02*
X153992000Y-42211809D01*
X152709619Y-42402285D02*
X153185809Y-42735619D01*
X152709619Y-42973714D02*
X153709619Y-42973714D01*
X153709619Y-42592761D01*
X153662000Y-42497523D01*
X153614380Y-42449904D01*
X153519142Y-42402285D01*
X153376285Y-42402285D01*
X153281047Y-42449904D01*
X153233428Y-42497523D01*
X153185809Y-42592761D01*
X153185809Y-42973714D01*
X153992000Y-42211809D02*
X153992000Y-41164190D01*
X152614380Y-41307047D02*
X152662000Y-41402285D01*
X152757238Y-41497523D01*
X152900095Y-41640380D01*
X152947714Y-41735619D01*
X152947714Y-41830857D01*
X152709619Y-41783238D02*
X152757238Y-41878476D01*
X152852476Y-41973714D01*
X153042952Y-42021333D01*
X153376285Y-42021333D01*
X153566761Y-41973714D01*
X153662000Y-41878476D01*
X153709619Y-41783238D01*
X153709619Y-41592761D01*
X153662000Y-41497523D01*
X153566761Y-41402285D01*
X153376285Y-41354666D01*
X153042952Y-41354666D01*
X152852476Y-41402285D01*
X152757238Y-41497523D01*
X152709619Y-41592761D01*
X152709619Y-41783238D01*
X173804000Y-45188000D02*
X173804000Y-44188000D01*
X172521619Y-44378476D02*
X172997809Y-44711809D01*
X172521619Y-44949904D02*
X173521619Y-44949904D01*
X173521619Y-44568952D01*
X173474000Y-44473714D01*
X173426380Y-44426095D01*
X173331142Y-44378476D01*
X173188285Y-44378476D01*
X173093047Y-44426095D01*
X173045428Y-44473714D01*
X172997809Y-44568952D01*
X172997809Y-44949904D01*
X173804000Y-44188000D02*
X173804000Y-43330857D01*
X172807333Y-43997523D02*
X172807333Y-43521333D01*
X172521619Y-44092761D02*
X173521619Y-43759428D01*
X172521619Y-43426095D01*
X173804000Y-43330857D02*
X173804000Y-42188000D01*
X172521619Y-43092761D02*
X173521619Y-43092761D01*
X172807333Y-42759428D01*
X173521619Y-42426095D01*
X172521619Y-42426095D01*
X146236000Y-42354666D02*
X146236000Y-43402285D01*
X147518380Y-42592761D02*
X146518380Y-42592761D01*
X147518380Y-43164190D01*
X146518380Y-43164190D01*
X146236000Y-43402285D02*
X146236000Y-44545142D01*
X147518380Y-43640380D02*
X146518380Y-43640380D01*
X147232666Y-43973714D01*
X146518380Y-44307047D01*
X147518380Y-44307047D01*
X146236000Y-44545142D02*
X146236000Y-45021333D01*
X147518380Y-44783238D02*
X146518380Y-44783238D01*
X127576000Y-45307047D02*
X127576000Y-44164190D01*
X127293619Y-45164190D02*
X126293619Y-44926095D01*
X127007904Y-44735619D01*
X126293619Y-44545142D01*
X127293619Y-44307047D01*
X127576000Y-44164190D02*
X127576000Y-43307047D01*
X126579333Y-43973714D02*
X126579333Y-43497523D01*
X126293619Y-44068952D02*
X127293619Y-43735619D01*
X126293619Y-43402285D01*
X127576000Y-43307047D02*
X127576000Y-42830857D01*
X126293619Y-43068952D02*
X127293619Y-43068952D01*
X127576000Y-42830857D02*
X127576000Y-42068952D01*
X127293619Y-42735619D02*
X127293619Y-42164190D01*
X126293619Y-42449904D02*
X127293619Y-42449904D01*
%LPC*%
D12*
X151892000Y-51816000D03*
D13*
X141732000Y-51816000D03*
D14*
X90429000Y-124465000D03*
D13*
X92969000Y-124465000D03*
X95509000Y-124465000D03*
X98049000Y-124465000D03*
X100589000Y-124465000D03*
X103129000Y-124465000D03*
X105669000Y-124465000D03*
X108209000Y-124465000D03*
X110749000Y-124465000D03*
X113289000Y-124465000D03*
X115829000Y-124465000D03*
X118369000Y-124465000D03*
X120909000Y-124465000D03*
X123449000Y-124465000D03*
X125989000Y-124465000D03*
X128529000Y-124465000D03*
X131069000Y-124465000D03*
X133609000Y-124465000D03*
X136149000Y-124465000D03*
X138689000Y-124465000D03*
X138689000Y-109225000D03*
X136149000Y-109225000D03*
X133609000Y-109225000D03*
X131069000Y-109225000D03*
X128529000Y-109225000D03*
X125989000Y-109225000D03*
X123449000Y-109225000D03*
X120909000Y-109225000D03*
X118369000Y-109225000D03*
X115829000Y-109225000D03*
X113289000Y-109225000D03*
X110749000Y-109225000D03*
X108209000Y-109225000D03*
X105669000Y-109225000D03*
X103129000Y-109225000D03*
X100589000Y-109225000D03*
X98049000Y-109225000D03*
X95509000Y-109225000D03*
X92969000Y-109225000D03*
X90429000Y-109225000D03*
D12*
X87376000Y-67330000D03*
X87376000Y-69830000D03*
X105664000Y-55118000D03*
D13*
X95504000Y-55118000D03*
D12*
X153162000Y-77470000D03*
X153162000Y-79970000D03*
X87376000Y-118090000D03*
X87376000Y-115590000D03*
D15*
X115042000Y-47529000D03*
D16*
X112502000Y-47529000D03*
D12*
X125476000Y-51816000D03*
D13*
X115316000Y-51816000D03*
D12*
X143744000Y-82042000D03*
X141244000Y-82042000D03*
D14*
X156210000Y-82520000D03*
D13*
X158750000Y-82520000D03*
X161290000Y-82520000D03*
X163830000Y-82520000D03*
X166370000Y-82520000D03*
X168910000Y-82520000D03*
X171450000Y-82520000D03*
X173990000Y-82520000D03*
X176530000Y-82520000D03*
X179070000Y-82520000D03*
X179070000Y-74900000D03*
X176530000Y-74900000D03*
X173990000Y-74900000D03*
X171450000Y-74900000D03*
X168910000Y-74900000D03*
X166370000Y-74900000D03*
X163830000Y-74900000D03*
X161290000Y-74900000D03*
X158750000Y-74900000D03*
X156210000Y-74900000D03*
D15*
X167874000Y-47529000D03*
D16*
X165334000Y-47529000D03*
D14*
X163830000Y-96520000D03*
D13*
X166370000Y-96520000D03*
X168910000Y-96520000D03*
X171450000Y-96520000D03*
X173990000Y-96520000D03*
X176530000Y-96520000D03*
X179070000Y-96520000D03*
X179070000Y-88900000D03*
X176530000Y-88900000D03*
X173990000Y-88900000D03*
X171450000Y-88900000D03*
X168910000Y-88900000D03*
X166370000Y-88900000D03*
X163830000Y-88900000D03*
D12*
X160787000Y-91470000D03*
X160787000Y-93970000D03*
D17*
X138694000Y-85085000D03*
D13*
X138694000Y-87625000D03*
X138694000Y-90165000D03*
X138694000Y-92705000D03*
X138694000Y-95245000D03*
X138694000Y-97785000D03*
X138694000Y-100325000D03*
X146314000Y-100325000D03*
X146314000Y-97785000D03*
X146314000Y-95245000D03*
X146314000Y-92705000D03*
X146314000Y-90165000D03*
X146314000Y-87625000D03*
X146314000Y-85085000D03*
D14*
X90424000Y-76205000D03*
D13*
X92964000Y-76205000D03*
X95504000Y-76205000D03*
X98044000Y-76205000D03*
X100584000Y-76205000D03*
X103124000Y-76205000D03*
X105664000Y-76205000D03*
X108204000Y-76205000D03*
X110744000Y-76205000D03*
X113284000Y-76205000D03*
X115824000Y-76205000D03*
X118364000Y-76205000D03*
X120904000Y-76205000D03*
X123444000Y-76205000D03*
X125984000Y-76205000D03*
X128524000Y-76205000D03*
X128524000Y-60965000D03*
X125984000Y-60965000D03*
X123444000Y-60965000D03*
X120904000Y-60965000D03*
X118364000Y-60965000D03*
X115824000Y-60965000D03*
X113284000Y-60965000D03*
X110744000Y-60965000D03*
X108204000Y-60965000D03*
X105664000Y-60965000D03*
X103124000Y-60965000D03*
X100584000Y-60965000D03*
X98044000Y-60965000D03*
X95504000Y-60965000D03*
X92964000Y-60965000D03*
X90424000Y-60965000D03*
D12*
X87376000Y-91440000D03*
X87376000Y-93940000D03*
D14*
X161290000Y-110520000D03*
D13*
X163830000Y-110520000D03*
X166370000Y-110520000D03*
X168910000Y-110520000D03*
X171450000Y-110520000D03*
X173990000Y-110520000D03*
X176530000Y-110520000D03*
X179070000Y-110520000D03*
X179070000Y-102900000D03*
X176530000Y-102900000D03*
X173990000Y-102900000D03*
X171450000Y-102900000D03*
X168910000Y-102900000D03*
X166370000Y-102900000D03*
X163830000Y-102900000D03*
X161290000Y-102900000D03*
D15*
X95230000Y-47529000D03*
D16*
X92690000Y-47529000D03*
D17*
X138694000Y-60955000D03*
D13*
X138694000Y-63495000D03*
X138694000Y-66035000D03*
X138694000Y-68575000D03*
X138694000Y-71115000D03*
X138694000Y-73655000D03*
X138694000Y-76195000D03*
X146314000Y-76195000D03*
X146314000Y-73655000D03*
X146314000Y-71115000D03*
X146314000Y-68575000D03*
X146314000Y-66035000D03*
X146314000Y-63495000D03*
X146314000Y-60955000D03*
D12*
X158252000Y-119410000D03*
X158252000Y-121910000D03*
D15*
X108438000Y-47529000D03*
D16*
X105898000Y-47529000D03*
D12*
X118872000Y-55118000D03*
D13*
X108712000Y-55118000D03*
D12*
X158252000Y-105470000D03*
X158252000Y-107970000D03*
D15*
X121646000Y-47529000D03*
D16*
X119106000Y-47529000D03*
D18*
X171704000Y-136612000D03*
X169164000Y-136612000D03*
X166624000Y-136612000D03*
X164084000Y-136612000D03*
X161544000Y-136612000D03*
X159004000Y-136612000D03*
X156464000Y-136612000D03*
X153924000Y-136612000D03*
X151384000Y-136612000D03*
X148844000Y-136612000D03*
X146304000Y-136612000D03*
X143764000Y-136612000D03*
X141224000Y-136612000D03*
X138684000Y-136612000D03*
X136144000Y-136612000D03*
X133604000Y-136612000D03*
X131064000Y-136612000D03*
X128524000Y-136612000D03*
X125984000Y-136612000D03*
X123444000Y-136612000D03*
X120904000Y-136612000D03*
X118364000Y-136612000D03*
X115824000Y-136612000D03*
X113284000Y-136612000D03*
X110744000Y-136612000D03*
X108204000Y-136612000D03*
X105664000Y-136612000D03*
X103124000Y-136612000D03*
X100584000Y-136612000D03*
X98044000Y-136612000D03*
X95504000Y-136612000D03*
D12*
X178308000Y-51816000D03*
D13*
X168148000Y-51816000D03*
D15*
X134854000Y-47529000D03*
D16*
X132314000Y-47529000D03*
D12*
X99060000Y-51816000D03*
D13*
X88900000Y-51816000D03*
D14*
X161290000Y-124460000D03*
D13*
X163830000Y-124460000D03*
X166370000Y-124460000D03*
X168910000Y-124460000D03*
X171450000Y-124460000D03*
X173990000Y-124460000D03*
X176530000Y-124460000D03*
X179070000Y-124460000D03*
X179070000Y-116840000D03*
X176530000Y-116840000D03*
X173990000Y-116840000D03*
X171450000Y-116840000D03*
X168910000Y-116840000D03*
X166370000Y-116840000D03*
X163830000Y-116840000D03*
X161290000Y-116840000D03*
D15*
X161270000Y-47529000D03*
D16*
X158730000Y-47529000D03*
D15*
X101834000Y-47529000D03*
D16*
X99294000Y-47529000D03*
D15*
X141458000Y-47529000D03*
D16*
X138918000Y-47529000D03*
D15*
X154666000Y-47529000D03*
D16*
X152126000Y-47529000D03*
D12*
X143744000Y-79248000D03*
X141244000Y-79248000D03*
D14*
X156215000Y-68550000D03*
D13*
X158755000Y-68550000D03*
X161295000Y-68550000D03*
X163835000Y-68550000D03*
X166375000Y-68550000D03*
X168915000Y-68550000D03*
X171455000Y-68550000D03*
X173995000Y-68550000D03*
X176535000Y-68550000D03*
X179075000Y-68550000D03*
X179075000Y-60930000D03*
X176535000Y-60930000D03*
X173995000Y-60930000D03*
X171455000Y-60930000D03*
X168915000Y-60930000D03*
X166375000Y-60930000D03*
X163835000Y-60930000D03*
X161295000Y-60930000D03*
X158755000Y-60930000D03*
X156215000Y-60930000D03*
D15*
X174478000Y-47529000D03*
D16*
X171938000Y-47529000D03*
D15*
X148062000Y-47529000D03*
D16*
X145522000Y-47529000D03*
D12*
X165100000Y-51816000D03*
D13*
X154940000Y-51816000D03*
D12*
X138684000Y-51816000D03*
D13*
X128524000Y-51816000D03*
D12*
X171704000Y-55118000D03*
D13*
X161544000Y-55118000D03*
D15*
X128250000Y-47529000D03*
D16*
X125710000Y-47529000D03*
D14*
X90424000Y-100310000D03*
D13*
X92964000Y-100310000D03*
X95504000Y-100310000D03*
X98044000Y-100310000D03*
X100584000Y-100310000D03*
X103124000Y-100310000D03*
X105664000Y-100310000D03*
X108204000Y-100310000D03*
X110744000Y-100310000D03*
X113284000Y-100310000D03*
X115824000Y-100310000D03*
X118364000Y-100310000D03*
X120904000Y-100310000D03*
X123444000Y-100310000D03*
X125984000Y-100310000D03*
X128524000Y-100310000D03*
X128524000Y-85070000D03*
X125984000Y-85070000D03*
X123444000Y-85070000D03*
X120904000Y-85070000D03*
X118364000Y-85070000D03*
X115824000Y-85070000D03*
X113284000Y-85070000D03*
X110744000Y-85070000D03*
X108204000Y-85070000D03*
X105664000Y-85070000D03*
X103124000Y-85070000D03*
X100584000Y-85070000D03*
X98044000Y-85070000D03*
X95504000Y-85070000D03*
X92964000Y-85070000D03*
X90424000Y-85070000D03*
D12*
X158496000Y-55118000D03*
D13*
X148336000Y-55118000D03*
D12*
X112268000Y-51816000D03*
D13*
X102108000Y-51816000D03*
D12*
X153162000Y-63500000D03*
X153162000Y-66000000D03*
X132080000Y-55118000D03*
D13*
X121920000Y-55118000D03*
D12*
X145288000Y-55118000D03*
D13*
X135128000Y-55118000D03*
D19*
X146304000Y-111974000D03*
D13*
X146304000Y-114514000D03*
X146304000Y-117054000D03*
X146304000Y-119594000D03*
X146304000Y-122134000D03*
M02*
