G04 #@! TF.GenerationSoftware,KiCad,Pcbnew,(6.0.9)*
G04 #@! TF.CreationDate,2022-12-02T20:03:53-05:00*
G04 #@! TF.ProjectId,Part 3 - Clock v3,50617274-2033-4202-9d20-436c6f636b20,1.1*
G04 #@! TF.SameCoordinates,Original*
G04 #@! TF.FileFunction,Legend,Bot*
G04 #@! TF.FilePolarity,Positive*
%FSLAX46Y46*%
G04 Gerber Fmt 4.6, Leading zero omitted, Abs format (unit mm)*
G04 Created by KiCad (PCBNEW (6.0.9)) date 2022-12-02 20:03:53*
%MOMM*%
%LPD*%
G01*
G04 APERTURE LIST*
G04 Aperture macros list*
%AMRoundRect*
0 Rectangle with rounded corners*
0 $1 Rounding radius*
0 $2 $3 $4 $5 $6 $7 $8 $9 X,Y pos of 4 corners*
0 Add a 4 corners polygon primitive as box body*
4,1,4,$2,$3,$4,$5,$6,$7,$8,$9,$2,$3,0*
0 Add four circle primitives for the rounded corners*
1,1,$1+$1,$2,$3*
1,1,$1+$1,$4,$5*
1,1,$1+$1,$6,$7*
1,1,$1+$1,$8,$9*
0 Add four rect primitives between the rounded corners*
20,1,$1+$1,$2,$3,$4,$5,0*
20,1,$1+$1,$4,$5,$6,$7,0*
20,1,$1+$1,$6,$7,$8,$9,0*
20,1,$1+$1,$8,$9,$2,$3,0*%
G04 Aperture macros list end*
%ADD10C,0.150000*%
%ADD11C,0.200000*%
%ADD12C,2.000000*%
%ADD13O,2.000000X2.000000*%
%ADD14RoundRect,0.200000X0.800000X-0.800000X0.800000X0.800000X-0.800000X0.800000X-0.800000X-0.800000X0*%
%ADD15RoundRect,0.200000X-0.900000X0.900000X-0.900000X-0.900000X0.900000X-0.900000X0.900000X0.900000X0*%
%ADD16C,2.200000*%
%ADD17C,2.500000*%
%ADD18C,2.150000*%
%ADD19RoundRect,0.200000X0.900000X0.900000X-0.900000X0.900000X-0.900000X-0.900000X0.900000X-0.900000X0*%
%ADD20C,3.000000*%
%ADD21RoundRect,0.200000X-0.890000X-3.810000X0.890000X-3.810000X0.890000X3.810000X-0.890000X3.810000X0*%
%ADD22RoundRect,0.200000X-0.800000X0.800000X-0.800000X-0.800000X0.800000X-0.800000X0.800000X0.800000X0*%
%ADD23C,1.840000*%
%ADD24RoundRect,0.200000X-0.850000X-0.850000X0.850000X-0.850000X0.850000X0.850000X-0.850000X0.850000X0*%
%ADD25O,2.100000X2.100000*%
%ADD26RoundRect,0.200000X0.750000X-0.750000X0.750000X0.750000X-0.750000X0.750000X-0.750000X-0.750000X0*%
%ADD27C,1.900000*%
G04 APERTURE END LIST*
D10*
X152125000Y-55626000D02*
X162031000Y-55626000D01*
X89662000Y-60833000D02*
X102616000Y-60833000D01*
X131292600Y-125755400D02*
X131292600Y-128244600D01*
X178333400Y-72034400D02*
X184886600Y-72034400D01*
X184886600Y-72034400D02*
X184886600Y-74777600D01*
X184886600Y-74777600D02*
X178333400Y-74777600D01*
X178333400Y-74777600D02*
X178333400Y-72034400D01*
X131064000Y-54737000D02*
X131572000Y-54483000D01*
X136702800Y-77444600D02*
X136702800Y-74930000D01*
X129082800Y-100330000D02*
X129082800Y-102819200D01*
X145669000Y-54737000D02*
X140970000Y-54737000D01*
X130048000Y-54991000D02*
X130556000Y-54737000D01*
X89662000Y-89535000D02*
X89662000Y-76073000D01*
X109982000Y-54737000D02*
X109474000Y-54483000D01*
X110236000Y-55626000D02*
X115570000Y-55626000D01*
X109982000Y-54737000D02*
X109474000Y-54864000D01*
X184886600Y-94742000D02*
X185623200Y-94742000D01*
X150672800Y-74930000D02*
X150672800Y-77419200D01*
X131292600Y-113055400D02*
X131292600Y-115570000D01*
X162031000Y-55626000D02*
X162031000Y-46200000D01*
X180365400Y-107594400D02*
X182854600Y-107594400D01*
X184886600Y-105410000D02*
X185623200Y-105410000D01*
X102616000Y-104775000D02*
X89662000Y-104775000D01*
X146918000Y-55626000D02*
X146791000Y-55626000D01*
X149987000Y-106730800D02*
X131953000Y-106730800D01*
X131953000Y-106730800D02*
X131953000Y-96443800D01*
X131953000Y-96443800D02*
X149987000Y-96443800D01*
X149987000Y-96443800D02*
X149987000Y-106730800D01*
X107492800Y-64744600D02*
X107492800Y-62255400D01*
X178333400Y-94742000D02*
X177596800Y-94742000D01*
X140970000Y-54737000D02*
X141478000Y-54483000D01*
X134620000Y-73456800D02*
X132105400Y-73456800D01*
X131064000Y-54737000D02*
X131572000Y-54864000D01*
X152984200Y-115544600D02*
X152984200Y-113055400D01*
X102616000Y-106553000D02*
X102616000Y-120015000D01*
X174117000Y-121843800D02*
X153568400Y-121843800D01*
X153568400Y-121843800D02*
X153568400Y-132130800D01*
X153568400Y-132130800D02*
X174117000Y-132130800D01*
X174117000Y-132130800D02*
X174117000Y-121843800D01*
X107492800Y-113055400D02*
X107492800Y-115544600D01*
X151892000Y-54737000D02*
X151384000Y-54483000D01*
X89662000Y-104775000D02*
X89662000Y-91313000D01*
X162814000Y-54991000D02*
X162306000Y-54737000D01*
X115824000Y-54737000D02*
X116332000Y-54864000D01*
X95758000Y-54991000D02*
X95250000Y-54737000D01*
X184886600Y-73406000D02*
X185623200Y-73406000D01*
X149987000Y-54737000D02*
X151892000Y-54737000D01*
X178333400Y-66294000D02*
X177596800Y-66294000D01*
X129082800Y-62255400D02*
X129082800Y-64744600D01*
X131267200Y-102819200D02*
X131267200Y-100330000D01*
X150647400Y-128244600D02*
X150647400Y-125755400D01*
X137922000Y-54737000D02*
X140462000Y-54737000D01*
X95250000Y-54737000D02*
X95758000Y-54610000D01*
X149987000Y-119430800D02*
X131978400Y-119430800D01*
X131978400Y-119430800D02*
X131978400Y-109169200D01*
X131978400Y-109169200D02*
X149987000Y-109169200D01*
X149987000Y-109169200D02*
X149987000Y-119430800D01*
X102616000Y-120015000D02*
X89662000Y-120015000D01*
X150672800Y-62255400D02*
X150672800Y-64744600D01*
X162306000Y-54737000D02*
X162814000Y-54864000D01*
X152908000Y-54483000D02*
X152908000Y-54991000D01*
X140970000Y-54737000D02*
X141478000Y-54610000D01*
X149987000Y-94005400D02*
X139598400Y-94005400D01*
X139598400Y-94005400D02*
X139598400Y-83743800D01*
X139598400Y-83743800D02*
X149987000Y-83743800D01*
X149987000Y-83743800D02*
X149987000Y-94005400D01*
X131572000Y-54991000D02*
X131064000Y-54737000D01*
X139954000Y-54483000D02*
X139954000Y-54991000D01*
X130810000Y-55626000D02*
X130810000Y-46200000D01*
X184886600Y-80518000D02*
X185623200Y-80518000D01*
X178333400Y-93370400D02*
X184886600Y-93370400D01*
X184886600Y-93370400D02*
X184886600Y-96113600D01*
X184886600Y-96113600D02*
X178333400Y-96113600D01*
X178333400Y-96113600D02*
X178333400Y-93370400D01*
X107492800Y-90119200D02*
X107492800Y-87630000D01*
X152857200Y-102844600D02*
X152857200Y-100330000D01*
X162306000Y-54737000D02*
X162814000Y-54483000D01*
X131267200Y-64744600D02*
X131267200Y-62255400D01*
X161798000Y-54737000D02*
X161290000Y-54864000D01*
X130556000Y-54737000D02*
X130048000Y-54864000D01*
X178333400Y-105410000D02*
X177596800Y-105410000D01*
X150672800Y-100330000D02*
X150672800Y-102819200D01*
X182372000Y-54737000D02*
X181864000Y-54864000D01*
X125222000Y-54737000D02*
X130556000Y-54737000D01*
X95758000Y-54483000D02*
X95758000Y-54991000D01*
X150672800Y-87604600D02*
X150672800Y-90119200D01*
X138887200Y-90144600D02*
X138887200Y-87630000D01*
X153543000Y-83743800D02*
X174091600Y-83743800D01*
X174091600Y-83743800D02*
X174091600Y-94005400D01*
X174091600Y-94005400D02*
X153543000Y-94005400D01*
X153543000Y-94005400D02*
X153543000Y-83743800D01*
X178333400Y-89814400D02*
X184886600Y-89814400D01*
X184886600Y-89814400D02*
X184886600Y-92557600D01*
X184886600Y-92557600D02*
X178333400Y-92557600D01*
X178333400Y-92557600D02*
X178333400Y-89814400D01*
X102616000Y-60833000D02*
X102616000Y-74295000D01*
X140716000Y-55626000D02*
X140716000Y-46200000D01*
X116332000Y-54483000D02*
X116332000Y-54991000D01*
X102616000Y-74295000D02*
X89662000Y-74295000D01*
X149987000Y-81305400D02*
X139598400Y-81305400D01*
X139598400Y-81305400D02*
X139598400Y-71043800D01*
X139598400Y-71043800D02*
X149987000Y-71043800D01*
X149987000Y-71043800D02*
X149987000Y-81305400D01*
X149987000Y-121843800D02*
X131978400Y-121843800D01*
X131978400Y-121843800D02*
X131978400Y-132130800D01*
X131978400Y-132130800D02*
X149987000Y-132130800D01*
X149987000Y-132130800D02*
X149987000Y-121843800D01*
X140462000Y-54737000D02*
X139954000Y-54864000D01*
X178333400Y-62738000D02*
X177596800Y-62738000D01*
X181864000Y-54991000D02*
X182372000Y-54737000D01*
X132105400Y-82727800D02*
X134594600Y-82727800D01*
X89662000Y-91313000D02*
X102616000Y-91313000D01*
X184886600Y-59182000D02*
X185623200Y-59182000D01*
X178333400Y-91186000D02*
X177596800Y-91186000D01*
X133604000Y-54737000D02*
X131064000Y-54737000D01*
X178333400Y-59182000D02*
X177596800Y-59182000D01*
X178333400Y-96926400D02*
X184886600Y-96926400D01*
X184886600Y-96926400D02*
X184886600Y-99669600D01*
X184886600Y-99669600D02*
X178333400Y-99669600D01*
X178333400Y-99669600D02*
X178333400Y-96926400D01*
X128371600Y-119430800D02*
X110363000Y-119430800D01*
X110363000Y-119430800D02*
X110363000Y-109143800D01*
X110363000Y-109143800D02*
X128371600Y-109143800D01*
X128371600Y-109143800D02*
X128371600Y-119430800D01*
X151892000Y-54737000D02*
X151384000Y-54864000D01*
X141478000Y-54483000D02*
X141478000Y-54991000D01*
X128397000Y-94005400D02*
X110363000Y-94005400D01*
X110363000Y-94005400D02*
X110363000Y-83743800D01*
X110363000Y-83743800D02*
X128397000Y-83743800D01*
X128397000Y-83743800D02*
X128397000Y-94005400D01*
X178333400Y-98298000D02*
X177596800Y-98298000D01*
X134594600Y-82372200D02*
X132105400Y-82372200D01*
X102616000Y-76073000D02*
X102616000Y-89535000D01*
X152400000Y-54737000D02*
X152908000Y-54483000D01*
X140462000Y-54737000D02*
X139954000Y-54610000D01*
X161798000Y-54737000D02*
X161290000Y-54483000D01*
X182372000Y-54737000D02*
X181864000Y-54610000D01*
X182372000Y-54737000D02*
X181864000Y-54483000D01*
X129082800Y-115570000D02*
X129082800Y-113055400D01*
X109474000Y-54991000D02*
X109982000Y-54737000D01*
X95250000Y-54737000D02*
X95758000Y-54483000D01*
X170307000Y-54737000D02*
X162306000Y-54737000D01*
X115824000Y-54737000D02*
X116332000Y-54610000D01*
X178333400Y-76962000D02*
X177596800Y-76962000D01*
X141478000Y-54991000D02*
X140970000Y-54737000D01*
X178333400Y-100482400D02*
X184886600Y-100482400D01*
X184886600Y-100482400D02*
X184886600Y-103225600D01*
X184886600Y-103225600D02*
X178333400Y-103225600D01*
X178333400Y-103225600D02*
X178333400Y-100482400D01*
X161290000Y-54483000D02*
X161290000Y-54991000D01*
X151384000Y-54991000D02*
X151892000Y-54737000D01*
X182605000Y-55626000D02*
X182605000Y-46200000D01*
X174244000Y-54737000D02*
X182372000Y-54737000D01*
X184886600Y-76962000D02*
X185623200Y-76962000D01*
X162814000Y-54483000D02*
X162814000Y-54991000D01*
X184886600Y-69850000D02*
X185623200Y-69850000D01*
X135051800Y-91922600D02*
X135051800Y-87998395D01*
X178333400Y-64922400D02*
X184886600Y-64922400D01*
X184886600Y-64922400D02*
X184886600Y-67665600D01*
X184886600Y-67665600D02*
X178333400Y-67665600D01*
X178333400Y-67665600D02*
X178333400Y-64922400D01*
X104952800Y-125730000D02*
X104952800Y-128219200D01*
X89662000Y-120015000D02*
X89662000Y-106553000D01*
X109677200Y-102819200D02*
X109677200Y-100330000D01*
X152857200Y-64744600D02*
X152857200Y-62255400D01*
X128397000Y-68630800D02*
X110363000Y-68630800D01*
X110363000Y-68630800D02*
X110363000Y-58343800D01*
X110363000Y-58343800D02*
X128397000Y-58343800D01*
X128397000Y-58343800D02*
X128397000Y-68630800D01*
X121158000Y-54737000D02*
X115824000Y-54737000D01*
X177317400Y-132588000D02*
X177317400Y-111226600D01*
X130048000Y-54483000D02*
X130048000Y-54991000D01*
X136702800Y-87630000D02*
X136702800Y-90119200D01*
X178333400Y-101854000D02*
X177596800Y-101854000D01*
X184886600Y-91186000D02*
X185623200Y-91186000D01*
X132105400Y-76352400D02*
X134594600Y-76352400D01*
X140462000Y-54737000D02*
X139954000Y-54483000D01*
X178333400Y-84074000D02*
X177596800Y-84074000D01*
X189280800Y-132562600D02*
X177317400Y-132588000D01*
X154559000Y-54737000D02*
X152400000Y-54737000D01*
X184886600Y-66294000D02*
X185623200Y-66294000D01*
X116332000Y-54991000D02*
X115824000Y-54737000D01*
X178333400Y-82702400D02*
X184886600Y-82702400D01*
X184886600Y-82702400D02*
X184886600Y-85445600D01*
X184886600Y-85445600D02*
X178333400Y-85445600D01*
X178333400Y-85445600D02*
X178333400Y-82702400D01*
X174091600Y-71043800D02*
X153543000Y-71043800D01*
X153543000Y-71043800D02*
X153543000Y-81330800D01*
X153543000Y-81330800D02*
X174091600Y-81330800D01*
X174091600Y-81330800D02*
X174091600Y-71043800D01*
X131064000Y-54737000D02*
X131572000Y-54610000D01*
X130556000Y-54737000D02*
X130048000Y-54610000D01*
X152400000Y-54737000D02*
X152908000Y-54610000D01*
X184886600Y-98298000D02*
X185623200Y-98298000D01*
X152908000Y-54991000D02*
X152400000Y-54737000D01*
X177317400Y-111226600D02*
X189255400Y-111226600D01*
X129082800Y-128244600D02*
X129082800Y-125755400D01*
X104013000Y-78587600D02*
X106807000Y-78587600D01*
X106807000Y-78587600D02*
X106807000Y-106857800D01*
X106807000Y-106857800D02*
X104013000Y-106857800D01*
X104013000Y-106857800D02*
X104013000Y-78587600D01*
X109677200Y-115544600D02*
X109677200Y-113055400D01*
X180365400Y-109829600D02*
X182880000Y-109829600D01*
X104013000Y-58242200D02*
X106807000Y-58242200D01*
X106807000Y-58242200D02*
X106807000Y-71297800D01*
X106807000Y-71297800D02*
X104013000Y-71297800D01*
X104013000Y-71297800D02*
X104013000Y-58242200D01*
X178333400Y-61366400D02*
X184886600Y-61366400D01*
X184886600Y-61366400D02*
X184886600Y-64109600D01*
X184886600Y-64109600D02*
X178333400Y-64109600D01*
X178333400Y-64109600D02*
X178333400Y-61366400D01*
X131572000Y-54483000D02*
X131572000Y-54991000D01*
X153543000Y-58343800D02*
X174091600Y-58343800D01*
X174091600Y-58343800D02*
X174091600Y-68630800D01*
X174091600Y-68630800D02*
X153543000Y-68630800D01*
X153543000Y-68630800D02*
X153543000Y-58343800D01*
X139954000Y-54991000D02*
X140462000Y-54737000D01*
X107162600Y-128219200D02*
X107162600Y-125730000D01*
X150799800Y-115544600D02*
X150799800Y-113055400D01*
X178333400Y-104038400D02*
X184886600Y-104038400D01*
X184886600Y-104038400D02*
X184886600Y-106781600D01*
X184886600Y-106781600D02*
X178333400Y-106781600D01*
X178333400Y-106781600D02*
X178333400Y-104038400D01*
X132207000Y-87630000D02*
G75*
G03*
X132207000Y-92329000I1147900J-2349500D01*
G01*
X109677200Y-62255400D02*
X109677200Y-64744600D01*
X152882600Y-128244600D02*
X152882600Y-125755400D01*
X151384000Y-54483000D02*
X151384000Y-54991000D01*
X89662000Y-106553000D02*
X102616000Y-106553000D01*
X181864000Y-54483000D02*
X181864000Y-54991000D01*
X140716000Y-55626000D02*
X152125000Y-55626000D01*
X128397000Y-81305400D02*
X110388400Y-81305400D01*
X110388400Y-81305400D02*
X110388400Y-71043800D01*
X110388400Y-71043800D02*
X128397000Y-71043800D01*
X128397000Y-71043800D02*
X128397000Y-81305400D01*
X159639000Y-54737000D02*
X161798000Y-54737000D01*
X134594600Y-78536800D02*
X132105400Y-78536800D01*
X162031000Y-55626000D02*
X182605000Y-55626000D01*
X162306000Y-54737000D02*
X162814000Y-54610000D01*
X130556000Y-54737000D02*
X130048000Y-54483000D01*
X161290000Y-54991000D02*
X161798000Y-54737000D01*
X89662000Y-76073000D02*
X102616000Y-76073000D01*
X109677200Y-74930000D02*
X109677200Y-77419200D01*
X89662000Y-74295000D02*
X89662000Y-60833000D01*
X110363000Y-106705400D02*
X128397000Y-106705400D01*
X128397000Y-106705400D02*
X128397000Y-96443800D01*
X128397000Y-96443800D02*
X110363000Y-96443800D01*
X110363000Y-96443800D02*
X110363000Y-106705400D01*
X132105400Y-71272400D02*
X134594600Y-71272400D01*
X174091600Y-96469200D02*
X153543000Y-96469200D01*
X153543000Y-96469200D02*
X153543000Y-106730800D01*
X153543000Y-106730800D02*
X174091600Y-106730800D01*
X174091600Y-106730800D02*
X174091600Y-96469200D01*
X151892000Y-54737000D02*
X151384000Y-54610000D01*
X178333400Y-69850000D02*
X177596800Y-69850000D01*
X149961600Y-68630800D02*
X131953000Y-68630800D01*
X131953000Y-68630800D02*
X131953000Y-58343800D01*
X131953000Y-58343800D02*
X149961600Y-58343800D01*
X149961600Y-58343800D02*
X149961600Y-68630800D01*
X152125000Y-55626000D02*
X152125000Y-46200000D01*
X178333400Y-57810400D02*
X184886600Y-57810400D01*
X184886600Y-57810400D02*
X184886600Y-60553600D01*
X184886600Y-60553600D02*
X178333400Y-60553600D01*
X178333400Y-60553600D02*
X178333400Y-57810400D01*
X184886600Y-62738000D02*
X185623200Y-62738000D01*
X178333400Y-73406000D02*
X177596800Y-73406000D01*
X102616000Y-91313000D02*
X102616000Y-104775000D01*
X132105400Y-73812400D02*
X134620000Y-73812400D01*
X107492800Y-77419200D02*
X107492800Y-74930000D01*
X184886600Y-101854000D02*
X185623200Y-101854000D01*
X140970000Y-54737000D02*
X141478000Y-54864000D01*
X152857200Y-77444600D02*
X152857200Y-74930000D01*
X178333400Y-68478400D02*
X184886600Y-68478400D01*
X184886600Y-68478400D02*
X184886600Y-71221600D01*
X184886600Y-71221600D02*
X178333400Y-71221600D01*
X178333400Y-71221600D02*
X178333400Y-68478400D01*
X161798000Y-54737000D02*
X161290000Y-54610000D01*
X128397000Y-132130800D02*
X107848400Y-132130800D01*
X107848400Y-132130800D02*
X107848400Y-121843800D01*
X107848400Y-121843800D02*
X128397000Y-121843800D01*
X128397000Y-121843800D02*
X128397000Y-132130800D01*
X184912000Y-87630000D02*
X185623200Y-87630000D01*
X109982000Y-54737000D02*
X109474000Y-54610000D01*
X184886600Y-84074000D02*
X185623200Y-84074000D01*
X178333400Y-86258400D02*
X184886600Y-86258400D01*
X184886600Y-86258400D02*
X184886600Y-89001600D01*
X184886600Y-89001600D02*
X178333400Y-89001600D01*
X178333400Y-89001600D02*
X178333400Y-86258400D01*
X115824000Y-54737000D02*
X116332000Y-54483000D01*
X178333400Y-79146400D02*
X184886600Y-79146400D01*
X184886600Y-79146400D02*
X184886600Y-81889600D01*
X184886600Y-81889600D02*
X178333400Y-81889600D01*
X178333400Y-81889600D02*
X178333400Y-79146400D01*
X95250000Y-54737000D02*
X95758000Y-54864000D01*
X152857200Y-90119200D02*
X152857200Y-87604600D01*
X138887200Y-74930000D02*
X138887200Y-77419200D01*
X178333400Y-80518000D02*
X177596800Y-80518000D01*
X178333400Y-75590400D02*
X184886600Y-75590400D01*
X184886600Y-75590400D02*
X184886600Y-78333600D01*
X184886600Y-78333600D02*
X178333400Y-78333600D01*
X178333400Y-78333600D02*
X178333400Y-75590400D01*
X107492800Y-100330000D02*
X107492800Y-102819200D01*
X132105400Y-80187800D02*
X134594600Y-80187800D01*
X94996000Y-46200000D02*
X94996000Y-55626000D01*
X178333400Y-87630000D02*
X177596800Y-87630000D01*
X153543000Y-109143800D02*
X174091600Y-109143800D01*
X174091600Y-109143800D02*
X174091600Y-119430800D01*
X174091600Y-119430800D02*
X153543000Y-119430800D01*
X153543000Y-119430800D02*
X153543000Y-109143800D01*
X134620000Y-75996800D02*
X132105400Y-75996800D01*
X109677200Y-87630000D02*
X109677200Y-90144600D01*
X130810000Y-55626000D02*
X140716000Y-55626000D01*
X152400000Y-54737000D02*
X152908000Y-54864000D01*
X94996000Y-55626000D02*
X110236000Y-55626000D01*
X109474000Y-54483000D02*
X109474000Y-54991000D01*
X110236000Y-55626000D02*
X110236000Y-46200000D01*
X115570000Y-55626000D02*
X130810000Y-55626000D01*
X134594600Y-84912200D02*
X132105400Y-84912200D01*
X115570000Y-55626000D02*
X115570000Y-46200000D01*
X102616000Y-89535000D02*
X89662000Y-89535000D01*
X104902000Y-54737000D02*
X109982000Y-54737000D01*
X99949000Y-54737000D02*
X95250000Y-54737000D01*
X186110190Y-114867000D02*
X185110190Y-114867000D01*
X185872095Y-116149380D02*
X185872095Y-115149380D01*
X185491142Y-115149380D01*
X185395904Y-115197000D01*
X185348285Y-115244619D01*
X185300666Y-115339857D01*
X185300666Y-115482714D01*
X185348285Y-115577952D01*
X185395904Y-115625571D01*
X185491142Y-115673190D01*
X185872095Y-115673190D01*
X185110190Y-114867000D02*
X183967333Y-114867000D01*
X184967333Y-115149380D02*
X184729238Y-116149380D01*
X184538761Y-115435095D01*
X184348285Y-116149380D01*
X184110190Y-115149380D01*
X183967333Y-114867000D02*
X182967333Y-114867000D01*
X183157809Y-116149380D02*
X183491142Y-115673190D01*
X183729238Y-116149380D02*
X183729238Y-115149380D01*
X183348285Y-115149380D01*
X183253047Y-115197000D01*
X183205428Y-115244619D01*
X183157809Y-115339857D01*
X183157809Y-115482714D01*
X183205428Y-115577952D01*
X183253047Y-115625571D01*
X183348285Y-115673190D01*
X183729238Y-115673190D01*
X182967333Y-114867000D02*
X182205428Y-114867000D01*
X182967333Y-116244619D02*
X182205428Y-116244619D01*
X182205428Y-114867000D02*
X181157809Y-114867000D01*
X181967333Y-115149380D02*
X181967333Y-115958904D01*
X181919714Y-116054142D01*
X181872095Y-116101761D01*
X181776857Y-116149380D01*
X181586380Y-116149380D01*
X181491142Y-116101761D01*
X181443523Y-116054142D01*
X181395904Y-115958904D01*
X181395904Y-115149380D01*
X181157809Y-114867000D02*
X180157809Y-114867000D01*
X180919714Y-116149380D02*
X180919714Y-115149380D01*
X180538761Y-115149380D01*
X180443523Y-115197000D01*
X180395904Y-115244619D01*
X180348285Y-115339857D01*
X180348285Y-115482714D01*
X180395904Y-115577952D01*
X180443523Y-115625571D01*
X180538761Y-115673190D01*
X180919714Y-115673190D01*
X95424523Y-103036619D02*
X95519761Y-102989000D01*
X95615000Y-102893761D01*
X95757857Y-102750904D01*
X95853095Y-102703285D01*
X95948333Y-102703285D01*
X95900714Y-102941380D02*
X95995952Y-102893761D01*
X96091190Y-102798523D01*
X96138809Y-102608047D01*
X96138809Y-102274714D01*
X96091190Y-102084238D01*
X95995952Y-101989000D01*
X95900714Y-101941380D01*
X95710238Y-101941380D01*
X95615000Y-101989000D01*
X95519761Y-102084238D01*
X95472142Y-102274714D01*
X95472142Y-102608047D01*
X95519761Y-102798523D01*
X95615000Y-102893761D01*
X95710238Y-102941380D01*
X95900714Y-102941380D01*
X94853095Y-101941380D02*
X94757857Y-101941380D01*
X94662619Y-101989000D01*
X94615000Y-102036619D01*
X94567380Y-102131857D01*
X94519761Y-102322333D01*
X94519761Y-102560428D01*
X94567380Y-102750904D01*
X94615000Y-102846142D01*
X94662619Y-102893761D01*
X94757857Y-102941380D01*
X94853095Y-102941380D01*
X94948333Y-102893761D01*
X94995952Y-102846142D01*
X95043571Y-102750904D01*
X95091190Y-102560428D01*
X95091190Y-102322333D01*
X95043571Y-102131857D01*
X94995952Y-102036619D01*
X94948333Y-101989000D01*
X94853095Y-101941380D01*
X94091190Y-102846142D02*
X94043571Y-102893761D01*
X94091190Y-102941380D01*
X94138809Y-102893761D01*
X94091190Y-102846142D01*
X94091190Y-102941380D01*
X94091190Y-102322333D02*
X94043571Y-102369952D01*
X94091190Y-102417571D01*
X94138809Y-102369952D01*
X94091190Y-102322333D01*
X94091190Y-102417571D01*
X93424523Y-101941380D02*
X93329285Y-101941380D01*
X93234047Y-101989000D01*
X93186428Y-102036619D01*
X93138809Y-102131857D01*
X93091190Y-102322333D01*
X93091190Y-102560428D01*
X93138809Y-102750904D01*
X93186428Y-102846142D01*
X93234047Y-102893761D01*
X93329285Y-102941380D01*
X93424523Y-102941380D01*
X93519761Y-102893761D01*
X93567380Y-102846142D01*
X93615000Y-102750904D01*
X93662619Y-102560428D01*
X93662619Y-102322333D01*
X93615000Y-102131857D01*
X93567380Y-102036619D01*
X93519761Y-101989000D01*
X93424523Y-101941380D01*
X182300428Y-117407000D02*
X181157571Y-117407000D01*
X182062333Y-118689380D02*
X182062333Y-117689380D01*
X181729000Y-118403666D01*
X181395666Y-117689380D01*
X181395666Y-118689380D01*
X181157571Y-117407000D02*
X180157571Y-117407000D01*
X180348047Y-118689380D02*
X180681380Y-118213190D01*
X180919476Y-118689380D02*
X180919476Y-117689380D01*
X180538523Y-117689380D01*
X180443285Y-117737000D01*
X180395666Y-117784619D01*
X180348047Y-117879857D01*
X180348047Y-118022714D01*
X180395666Y-118117952D01*
X180443285Y-118165571D01*
X180538523Y-118213190D01*
X180919476Y-118213190D01*
X95424523Y-94146619D02*
X95519761Y-94099000D01*
X95615000Y-94003761D01*
X95757857Y-93860904D01*
X95853095Y-93813285D01*
X95948333Y-93813285D01*
X95900714Y-94051380D02*
X95995952Y-94003761D01*
X96091190Y-93908523D01*
X96138809Y-93718047D01*
X96138809Y-93384714D01*
X96091190Y-93194238D01*
X95995952Y-93099000D01*
X95900714Y-93051380D01*
X95710238Y-93051380D01*
X95615000Y-93099000D01*
X95519761Y-93194238D01*
X95472142Y-93384714D01*
X95472142Y-93718047D01*
X95519761Y-93908523D01*
X95615000Y-94003761D01*
X95710238Y-94051380D01*
X95900714Y-94051380D01*
X94853095Y-93051380D02*
X94757857Y-93051380D01*
X94662619Y-93099000D01*
X94615000Y-93146619D01*
X94567380Y-93241857D01*
X94519761Y-93432333D01*
X94519761Y-93670428D01*
X94567380Y-93860904D01*
X94615000Y-93956142D01*
X94662619Y-94003761D01*
X94757857Y-94051380D01*
X94853095Y-94051380D01*
X94948333Y-94003761D01*
X94995952Y-93956142D01*
X95043571Y-93860904D01*
X95091190Y-93670428D01*
X95091190Y-93432333D01*
X95043571Y-93241857D01*
X94995952Y-93146619D01*
X94948333Y-93099000D01*
X94853095Y-93051380D01*
X94091190Y-93956142D02*
X94043571Y-94003761D01*
X94091190Y-94051380D01*
X94138809Y-94003761D01*
X94091190Y-93956142D01*
X94091190Y-94051380D01*
X94091190Y-93432333D02*
X94043571Y-93479952D01*
X94091190Y-93527571D01*
X94138809Y-93479952D01*
X94091190Y-93432333D01*
X94091190Y-93527571D01*
X93091190Y-94051380D02*
X93662619Y-94051380D01*
X93376904Y-94051380D02*
X93376904Y-93051380D01*
X93472142Y-93194238D01*
X93567380Y-93289476D01*
X93662619Y-93337095D01*
X159268476Y-55141761D02*
X159125619Y-55189380D01*
X158887523Y-55189380D01*
X158792285Y-55141761D01*
X158744666Y-55094142D01*
X158697047Y-54998904D01*
X158697047Y-54903666D01*
X158744666Y-54808428D01*
X158792285Y-54760809D01*
X158887523Y-54713190D01*
X159078000Y-54665571D01*
X159173238Y-54617952D01*
X159220857Y-54570333D01*
X159268476Y-54475095D01*
X159268476Y-54379857D01*
X159220857Y-54284619D01*
X159173238Y-54237000D01*
X159078000Y-54189380D01*
X158839904Y-54189380D01*
X158697047Y-54237000D01*
X158268476Y-55189380D02*
X158268476Y-54189380D01*
X157887523Y-54189380D01*
X157792285Y-54237000D01*
X157744666Y-54284619D01*
X157697047Y-54379857D01*
X157697047Y-54522714D01*
X157744666Y-54617952D01*
X157792285Y-54665571D01*
X157887523Y-54713190D01*
X158268476Y-54713190D01*
X157268476Y-54665571D02*
X156935142Y-54665571D01*
X156792285Y-55189380D02*
X157268476Y-55189380D01*
X157268476Y-54189380D01*
X156792285Y-54189380D01*
X156363714Y-54665571D02*
X156030380Y-54665571D01*
X155887523Y-55189380D02*
X156363714Y-55189380D01*
X156363714Y-54189380D01*
X155887523Y-54189380D01*
X155458952Y-55189380D02*
X155458952Y-54189380D01*
X155220857Y-54189380D01*
X155078000Y-54237000D01*
X154982761Y-54332238D01*
X154935142Y-54427476D01*
X154887523Y-54617952D01*
X154887523Y-54760809D01*
X154935142Y-54951285D01*
X154982761Y-55046523D01*
X155078000Y-55141761D01*
X155220857Y-55189380D01*
X155458952Y-55189380D01*
X182895714Y-101306380D02*
X182276666Y-101306380D01*
X182610000Y-101687333D01*
X182467142Y-101687333D01*
X182371904Y-101734952D01*
X182324285Y-101782571D01*
X182276666Y-101877809D01*
X182276666Y-102115904D01*
X182324285Y-102211142D01*
X182371904Y-102258761D01*
X182467142Y-102306380D01*
X182752857Y-102306380D01*
X182848095Y-102258761D01*
X182895714Y-102211142D01*
X181943333Y-101306380D02*
X181324285Y-101306380D01*
X181657619Y-101687333D01*
X181514761Y-101687333D01*
X181419523Y-101734952D01*
X181371904Y-101782571D01*
X181324285Y-101877809D01*
X181324285Y-102115904D01*
X181371904Y-102211142D01*
X181419523Y-102258761D01*
X181514761Y-102306380D01*
X181800476Y-102306380D01*
X181895714Y-102258761D01*
X181943333Y-102211142D01*
X180705238Y-101306380D02*
X180610000Y-101306380D01*
X180514761Y-101354000D01*
X180467142Y-101401619D01*
X180419523Y-101496857D01*
X180371904Y-101687333D01*
X180371904Y-101925428D01*
X180419523Y-102115904D01*
X180467142Y-102211142D01*
X180514761Y-102258761D01*
X180610000Y-102306380D01*
X180705238Y-102306380D01*
X180800476Y-102258761D01*
X180848095Y-102211142D01*
X180895714Y-102115904D01*
X180943333Y-101925428D01*
X180943333Y-101687333D01*
X180895714Y-101496857D01*
X180848095Y-101401619D01*
X180800476Y-101354000D01*
X180705238Y-101306380D01*
D11*
X124760952Y-75104761D02*
X123427619Y-75104761D01*
X124284761Y-77104761D01*
X121808571Y-75771428D02*
X121808571Y-77104761D01*
X122284761Y-75009523D02*
X122760952Y-76438095D01*
X121522857Y-76438095D01*
X120856190Y-76533333D02*
X119903809Y-76533333D01*
X121046666Y-77104761D02*
X120380000Y-75104761D01*
X119713333Y-77104761D01*
X117903809Y-76914285D02*
X117999047Y-77009523D01*
X118284761Y-77104761D01*
X118475238Y-77104761D01*
X118760952Y-77009523D01*
X118951428Y-76819047D01*
X119046666Y-76628571D01*
X119141904Y-76247619D01*
X119141904Y-75961904D01*
X119046666Y-75580952D01*
X118951428Y-75390476D01*
X118760952Y-75200000D01*
X118475238Y-75104761D01*
X118284761Y-75104761D01*
X117999047Y-75200000D01*
X117903809Y-75295238D01*
X115999047Y-77104761D02*
X117141904Y-77104761D01*
X116570476Y-77104761D02*
X116570476Y-75104761D01*
X116760952Y-75390476D01*
X116951428Y-75580952D01*
X117141904Y-75676190D01*
X114284761Y-75771428D02*
X114284761Y-77104761D01*
X114760952Y-75009523D02*
X115237142Y-76438095D01*
X113999047Y-76438095D01*
X170353809Y-87804761D02*
X169020476Y-87804761D01*
X169877619Y-89804761D01*
X167401428Y-88471428D02*
X167401428Y-89804761D01*
X167877619Y-87709523D02*
X168353809Y-89138095D01*
X167115714Y-89138095D01*
X166353809Y-89804761D02*
X166353809Y-87804761D01*
X166353809Y-88757142D02*
X165210952Y-88757142D01*
X165210952Y-89804761D02*
X165210952Y-87804761D01*
X163115714Y-89614285D02*
X163210952Y-89709523D01*
X163496666Y-89804761D01*
X163687142Y-89804761D01*
X163972857Y-89709523D01*
X164163333Y-89519047D01*
X164258571Y-89328571D01*
X164353809Y-88947619D01*
X164353809Y-88661904D01*
X164258571Y-88280952D01*
X164163333Y-88090476D01*
X163972857Y-87900000D01*
X163687142Y-87804761D01*
X163496666Y-87804761D01*
X163210952Y-87900000D01*
X163115714Y-87995238D01*
X162353809Y-87995238D02*
X162258571Y-87900000D01*
X162068095Y-87804761D01*
X161591904Y-87804761D01*
X161401428Y-87900000D01*
X161306190Y-87995238D01*
X161210952Y-88185714D01*
X161210952Y-88376190D01*
X161306190Y-88661904D01*
X162449047Y-89804761D01*
X161210952Y-89804761D01*
X159401428Y-87804761D02*
X160353809Y-87804761D01*
X160449047Y-88757142D01*
X160353809Y-88661904D01*
X160163333Y-88566666D01*
X159687142Y-88566666D01*
X159496666Y-88661904D01*
X159401428Y-88757142D01*
X159306190Y-88947619D01*
X159306190Y-89423809D01*
X159401428Y-89614285D01*
X159496666Y-89709523D01*
X159687142Y-89804761D01*
X160163333Y-89804761D01*
X160353809Y-89709523D01*
X160449047Y-89614285D01*
X157401428Y-89804761D02*
X158544285Y-89804761D01*
X157972857Y-89804761D02*
X157972857Y-87804761D01*
X158163333Y-88090476D01*
X158353809Y-88280952D01*
X158544285Y-88376190D01*
D10*
X95757857Y-78287571D02*
X96091190Y-78287571D01*
X96091190Y-78811380D02*
X96091190Y-77811380D01*
X95615000Y-77811380D01*
X95281666Y-78525666D02*
X94805476Y-78525666D01*
X95376904Y-78811380D02*
X95043571Y-77811380D01*
X94710238Y-78811380D01*
X94424523Y-78763761D02*
X94281666Y-78811380D01*
X94043571Y-78811380D01*
X93948333Y-78763761D01*
X93900714Y-78716142D01*
X93853095Y-78620904D01*
X93853095Y-78525666D01*
X93900714Y-78430428D01*
X93948333Y-78382809D01*
X94043571Y-78335190D01*
X94234047Y-78287571D01*
X94329285Y-78239952D01*
X94376904Y-78192333D01*
X94424523Y-78097095D01*
X94424523Y-78001857D01*
X94376904Y-77906619D01*
X94329285Y-77859000D01*
X94234047Y-77811380D01*
X93995952Y-77811380D01*
X93853095Y-77859000D01*
X93567380Y-77811380D02*
X92995952Y-77811380D01*
X93281666Y-78811380D02*
X93281666Y-77811380D01*
D11*
X170163333Y-75104761D02*
X168830000Y-75104761D01*
X169687142Y-77104761D01*
X167210952Y-75771428D02*
X167210952Y-77104761D01*
X167687142Y-75009523D02*
X168163333Y-76438095D01*
X166925238Y-76438095D01*
X166258571Y-76533333D02*
X165306190Y-76533333D01*
X166449047Y-77104761D02*
X165782380Y-75104761D01*
X165115714Y-77104761D01*
X163306190Y-76914285D02*
X163401428Y-77009523D01*
X163687142Y-77104761D01*
X163877619Y-77104761D01*
X164163333Y-77009523D01*
X164353809Y-76819047D01*
X164449047Y-76628571D01*
X164544285Y-76247619D01*
X164544285Y-75961904D01*
X164449047Y-75580952D01*
X164353809Y-75390476D01*
X164163333Y-75200000D01*
X163877619Y-75104761D01*
X163687142Y-75104761D01*
X163401428Y-75200000D01*
X163306190Y-75295238D01*
X161401428Y-77104761D02*
X162544285Y-77104761D01*
X161972857Y-77104761D02*
X161972857Y-75104761D01*
X162163333Y-75390476D01*
X162353809Y-75580952D01*
X162544285Y-75676190D01*
X159496666Y-77104761D02*
X160639523Y-77104761D01*
X160068095Y-77104761D02*
X160068095Y-75104761D01*
X160258571Y-75390476D01*
X160449047Y-75580952D01*
X160639523Y-75676190D01*
X158734761Y-75295238D02*
X158639523Y-75200000D01*
X158449047Y-75104761D01*
X157972857Y-75104761D01*
X157782380Y-75200000D01*
X157687142Y-75295238D01*
X157591904Y-75485714D01*
X157591904Y-75676190D01*
X157687142Y-75961904D01*
X158830000Y-77104761D01*
X157591904Y-77104761D01*
D10*
X182871904Y-58729619D02*
X182824285Y-58682000D01*
X182729047Y-58634380D01*
X182490952Y-58634380D01*
X182395714Y-58682000D01*
X182348095Y-58729619D01*
X182300476Y-58824857D01*
X182300476Y-58920095D01*
X182348095Y-59062952D01*
X182919523Y-59634380D01*
X182300476Y-59634380D01*
X181681428Y-58634380D02*
X181586190Y-58634380D01*
X181490952Y-58682000D01*
X181443333Y-58729619D01*
X181395714Y-58824857D01*
X181348095Y-59015333D01*
X181348095Y-59253428D01*
X181395714Y-59443904D01*
X181443333Y-59539142D01*
X181490952Y-59586761D01*
X181586190Y-59634380D01*
X181681428Y-59634380D01*
X181776666Y-59586761D01*
X181824285Y-59539142D01*
X181871904Y-59443904D01*
X181919523Y-59253428D01*
X181919523Y-59015333D01*
X181871904Y-58824857D01*
X181824285Y-58729619D01*
X181776666Y-58682000D01*
X181681428Y-58634380D01*
X180919523Y-59634380D02*
X180919523Y-58634380D01*
X180348095Y-59634380D02*
X180776666Y-59062952D01*
X180348095Y-58634380D02*
X180919523Y-59205809D01*
D11*
X124633809Y-125904761D02*
X123300476Y-125904761D01*
X124157619Y-127904761D01*
X121681428Y-126571428D02*
X121681428Y-127904761D01*
X122157619Y-125809523D02*
X122633809Y-127238095D01*
X121395714Y-127238095D01*
X120633809Y-127904761D02*
X120633809Y-125904761D01*
X120633809Y-126857142D02*
X119490952Y-126857142D01*
X119490952Y-127904761D02*
X119490952Y-125904761D01*
X117395714Y-127714285D02*
X117490952Y-127809523D01*
X117776666Y-127904761D01*
X117967142Y-127904761D01*
X118252857Y-127809523D01*
X118443333Y-127619047D01*
X118538571Y-127428571D01*
X118633809Y-127047619D01*
X118633809Y-126761904D01*
X118538571Y-126380952D01*
X118443333Y-126190476D01*
X118252857Y-126000000D01*
X117967142Y-125904761D01*
X117776666Y-125904761D01*
X117490952Y-126000000D01*
X117395714Y-126095238D01*
X116633809Y-126095238D02*
X116538571Y-126000000D01*
X116348095Y-125904761D01*
X115871904Y-125904761D01*
X115681428Y-126000000D01*
X115586190Y-126095238D01*
X115490952Y-126285714D01*
X115490952Y-126476190D01*
X115586190Y-126761904D01*
X116729047Y-127904761D01*
X115490952Y-127904761D01*
X113681428Y-125904761D02*
X114633809Y-125904761D01*
X114729047Y-126857142D01*
X114633809Y-126761904D01*
X114443333Y-126666666D01*
X113967142Y-126666666D01*
X113776666Y-126761904D01*
X113681428Y-126857142D01*
X113586190Y-127047619D01*
X113586190Y-127523809D01*
X113681428Y-127714285D01*
X113776666Y-127809523D01*
X113967142Y-127904761D01*
X114443333Y-127904761D01*
X114633809Y-127809523D01*
X114729047Y-127714285D01*
X111681428Y-127904761D02*
X112824285Y-127904761D01*
X112252857Y-127904761D02*
X112252857Y-125904761D01*
X112443333Y-126190476D01*
X112633809Y-126380952D01*
X112824285Y-126476190D01*
D10*
X97805476Y-63047571D02*
X98138809Y-63047571D01*
X98138809Y-63571380D02*
X98138809Y-62571380D01*
X97662619Y-62571380D01*
X96710238Y-63571380D02*
X97043571Y-63095190D01*
X97281666Y-63571380D02*
X97281666Y-62571380D01*
X96900714Y-62571380D01*
X96805476Y-62619000D01*
X96757857Y-62666619D01*
X96710238Y-62761857D01*
X96710238Y-62904714D01*
X96757857Y-62999952D01*
X96805476Y-63047571D01*
X96900714Y-63095190D01*
X97281666Y-63095190D01*
X96281666Y-63047571D02*
X95948333Y-63047571D01*
X95805476Y-63571380D02*
X96281666Y-63571380D01*
X96281666Y-62571380D01*
X95805476Y-62571380D01*
X95376904Y-63047571D02*
X95043571Y-63047571D01*
X94900714Y-63571380D02*
X95376904Y-63571380D01*
X95376904Y-62571380D01*
X94900714Y-62571380D01*
X93138809Y-63571380D02*
X93472142Y-63095190D01*
X93710238Y-63571380D02*
X93710238Y-62571380D01*
X93329285Y-62571380D01*
X93234047Y-62619000D01*
X93186428Y-62666619D01*
X93138809Y-62761857D01*
X93138809Y-62904714D01*
X93186428Y-62999952D01*
X93234047Y-63047571D01*
X93329285Y-63095190D01*
X93710238Y-63095190D01*
X92710238Y-62571380D02*
X92710238Y-63380904D01*
X92662619Y-63476142D01*
X92615000Y-63523761D01*
X92519761Y-63571380D01*
X92329285Y-63571380D01*
X92234047Y-63523761D01*
X92186428Y-63476142D01*
X92138809Y-63380904D01*
X92138809Y-62571380D01*
X91662619Y-63571380D02*
X91662619Y-62571380D01*
X91091190Y-63571380D01*
X91091190Y-62571380D01*
D11*
X96793571Y-112755071D02*
X97293571Y-112040785D01*
X97650714Y-112755071D02*
X97650714Y-111255071D01*
X97079285Y-111255071D01*
X96936428Y-111326500D01*
X96865000Y-111397928D01*
X96793571Y-111540785D01*
X96793571Y-111755071D01*
X96865000Y-111897928D01*
X96936428Y-111969357D01*
X97079285Y-112040785D01*
X97650714Y-112040785D01*
X96150714Y-111969357D02*
X95650714Y-111969357D01*
X95436428Y-112755071D02*
X96150714Y-112755071D01*
X96150714Y-111255071D01*
X95436428Y-111255071D01*
X94865000Y-112683642D02*
X94650714Y-112755071D01*
X94293571Y-112755071D01*
X94150714Y-112683642D01*
X94079285Y-112612214D01*
X94007857Y-112469357D01*
X94007857Y-112326500D01*
X94079285Y-112183642D01*
X94150714Y-112112214D01*
X94293571Y-112040785D01*
X94579285Y-111969357D01*
X94722142Y-111897928D01*
X94793571Y-111826500D01*
X94865000Y-111683642D01*
X94865000Y-111540785D01*
X94793571Y-111397928D01*
X94722142Y-111326500D01*
X94579285Y-111255071D01*
X94222142Y-111255071D01*
X94007857Y-111326500D01*
X93365000Y-111969357D02*
X92865000Y-111969357D01*
X92650714Y-112755071D02*
X93365000Y-112755071D01*
X93365000Y-111255071D01*
X92650714Y-111255071D01*
X92222142Y-111255071D02*
X91365000Y-111255071D01*
X91793571Y-112755071D02*
X91793571Y-111255071D01*
X97615000Y-114384357D02*
X98115000Y-114384357D01*
X98115000Y-115170071D02*
X98115000Y-113670071D01*
X97400714Y-113670071D01*
X96900714Y-114741500D02*
X96186428Y-114741500D01*
X97043571Y-115170071D02*
X96543571Y-113670071D01*
X96043571Y-115170071D01*
X95615000Y-115098642D02*
X95400714Y-115170071D01*
X95043571Y-115170071D01*
X94900714Y-115098642D01*
X94829285Y-115027214D01*
X94757857Y-114884357D01*
X94757857Y-114741500D01*
X94829285Y-114598642D01*
X94900714Y-114527214D01*
X95043571Y-114455785D01*
X95329285Y-114384357D01*
X95472142Y-114312928D01*
X95543571Y-114241500D01*
X95615000Y-114098642D01*
X95615000Y-113955785D01*
X95543571Y-113812928D01*
X95472142Y-113741500D01*
X95329285Y-113670071D01*
X94972142Y-113670071D01*
X94757857Y-113741500D01*
X94329285Y-113670071D02*
X93472142Y-113670071D01*
X93900714Y-115170071D02*
X93900714Y-113670071D01*
X91043571Y-115170071D02*
X91900714Y-115170071D01*
X91472142Y-115170071D02*
X91472142Y-113670071D01*
X91615000Y-113884357D01*
X91757857Y-114027214D01*
X91900714Y-114098642D01*
X124760952Y-100504761D02*
X123427619Y-100504761D01*
X124284761Y-102504761D01*
X121808571Y-101171428D02*
X121808571Y-102504761D01*
X122284761Y-100409523D02*
X122760952Y-101838095D01*
X121522857Y-101838095D01*
X120856190Y-101933333D02*
X119903809Y-101933333D01*
X121046666Y-102504761D02*
X120380000Y-100504761D01*
X119713333Y-102504761D01*
X117903809Y-102314285D02*
X117999047Y-102409523D01*
X118284761Y-102504761D01*
X118475238Y-102504761D01*
X118760952Y-102409523D01*
X118951428Y-102219047D01*
X119046666Y-102028571D01*
X119141904Y-101647619D01*
X119141904Y-101361904D01*
X119046666Y-100980952D01*
X118951428Y-100790476D01*
X118760952Y-100600000D01*
X118475238Y-100504761D01*
X118284761Y-100504761D01*
X117999047Y-100600000D01*
X117903809Y-100695238D01*
X116665714Y-100504761D02*
X116475238Y-100504761D01*
X116284761Y-100600000D01*
X116189523Y-100695238D01*
X116094285Y-100885714D01*
X115999047Y-101266666D01*
X115999047Y-101742857D01*
X116094285Y-102123809D01*
X116189523Y-102314285D01*
X116284761Y-102409523D01*
X116475238Y-102504761D01*
X116665714Y-102504761D01*
X116856190Y-102409523D01*
X116951428Y-102314285D01*
X117046666Y-102123809D01*
X117141904Y-101742857D01*
X117141904Y-101266666D01*
X117046666Y-100885714D01*
X116951428Y-100695238D01*
X116856190Y-100600000D01*
X116665714Y-100504761D01*
X114856190Y-101361904D02*
X115046666Y-101266666D01*
X115141904Y-101171428D01*
X115237142Y-100980952D01*
X115237142Y-100885714D01*
X115141904Y-100695238D01*
X115046666Y-100600000D01*
X114856190Y-100504761D01*
X114475238Y-100504761D01*
X114284761Y-100600000D01*
X114189523Y-100695238D01*
X114094285Y-100885714D01*
X114094285Y-100980952D01*
X114189523Y-101171428D01*
X114284761Y-101266666D01*
X114475238Y-101361904D01*
X114856190Y-101361904D01*
X115046666Y-101457142D01*
X115141904Y-101552380D01*
X115237142Y-101742857D01*
X115237142Y-102123809D01*
X115141904Y-102314285D01*
X115046666Y-102409523D01*
X114856190Y-102504761D01*
X114475238Y-102504761D01*
X114284761Y-102409523D01*
X114189523Y-102314285D01*
X114094285Y-102123809D01*
X114094285Y-101742857D01*
X114189523Y-101552380D01*
X114284761Y-101457142D01*
X114475238Y-101361904D01*
X146208571Y-75079361D02*
X147160952Y-75079361D01*
X147256190Y-76031742D01*
X147160952Y-75936504D01*
X146970476Y-75841266D01*
X146494285Y-75841266D01*
X146303809Y-75936504D01*
X146208571Y-76031742D01*
X146113333Y-76222219D01*
X146113333Y-76698409D01*
X146208571Y-76888885D01*
X146303809Y-76984123D01*
X146494285Y-77079361D01*
X146970476Y-77079361D01*
X147160952Y-76984123D01*
X147256190Y-76888885D01*
X144303809Y-75079361D02*
X145256190Y-75079361D01*
X145351428Y-76031742D01*
X145256190Y-75936504D01*
X145065714Y-75841266D01*
X144589523Y-75841266D01*
X144399047Y-75936504D01*
X144303809Y-76031742D01*
X144208571Y-76222219D01*
X144208571Y-76698409D01*
X144303809Y-76888885D01*
X144399047Y-76984123D01*
X144589523Y-77079361D01*
X145065714Y-77079361D01*
X145256190Y-76984123D01*
X145351428Y-76888885D01*
X142399047Y-75079361D02*
X143351428Y-75079361D01*
X143446666Y-76031742D01*
X143351428Y-75936504D01*
X143160952Y-75841266D01*
X142684761Y-75841266D01*
X142494285Y-75936504D01*
X142399047Y-76031742D01*
X142303809Y-76222219D01*
X142303809Y-76698409D01*
X142399047Y-76888885D01*
X142494285Y-76984123D01*
X142684761Y-77079361D01*
X143160952Y-77079361D01*
X143351428Y-76984123D01*
X143446666Y-76888885D01*
D10*
X180485619Y-50514047D02*
X180485619Y-49847380D01*
X179485619Y-50275952D01*
X179580857Y-49466428D02*
X179533238Y-49418809D01*
X179485619Y-49466428D01*
X179533238Y-49514047D01*
X179580857Y-49466428D01*
X179485619Y-49466428D01*
X180152285Y-48561666D02*
X179485619Y-48561666D01*
X180533238Y-48799761D02*
X179818952Y-49037857D01*
X179818952Y-48418809D01*
X179485619Y-48037857D02*
X180485619Y-48037857D01*
X179771333Y-47704523D01*
X180485619Y-47371190D01*
X179485619Y-47371190D01*
X182919523Y-87082380D02*
X182300476Y-87082380D01*
X182633809Y-87463333D01*
X182490952Y-87463333D01*
X182395714Y-87510952D01*
X182348095Y-87558571D01*
X182300476Y-87653809D01*
X182300476Y-87891904D01*
X182348095Y-87987142D01*
X182395714Y-88034761D01*
X182490952Y-88082380D01*
X182776666Y-88082380D01*
X182871904Y-88034761D01*
X182919523Y-87987142D01*
X181871904Y-88082380D02*
X181871904Y-87082380D01*
X181300476Y-88082380D02*
X181729047Y-87510952D01*
X181300476Y-87082380D02*
X181871904Y-87653809D01*
X180967142Y-87082380D02*
X180348095Y-87082380D01*
X180681428Y-87463333D01*
X180538571Y-87463333D01*
X180443333Y-87510952D01*
X180395714Y-87558571D01*
X180348095Y-87653809D01*
X180348095Y-87891904D01*
X180395714Y-87987142D01*
X180443333Y-88034761D01*
X180538571Y-88082380D01*
X180824285Y-88082380D01*
X180919523Y-88034761D01*
X180967142Y-87987142D01*
D11*
X124760952Y-87804761D02*
X123427619Y-87804761D01*
X124284761Y-89804761D01*
X121808571Y-88471428D02*
X121808571Y-89804761D01*
X122284761Y-87709523D02*
X122760952Y-89138095D01*
X121522857Y-89138095D01*
X120856190Y-89233333D02*
X119903809Y-89233333D01*
X121046666Y-89804761D02*
X120380000Y-87804761D01*
X119713333Y-89804761D01*
X117903809Y-89614285D02*
X117999047Y-89709523D01*
X118284761Y-89804761D01*
X118475238Y-89804761D01*
X118760952Y-89709523D01*
X118951428Y-89519047D01*
X119046666Y-89328571D01*
X119141904Y-88947619D01*
X119141904Y-88661904D01*
X119046666Y-88280952D01*
X118951428Y-88090476D01*
X118760952Y-87900000D01*
X118475238Y-87804761D01*
X118284761Y-87804761D01*
X117999047Y-87900000D01*
X117903809Y-87995238D01*
X117237142Y-87804761D02*
X115903809Y-87804761D01*
X116760952Y-89804761D01*
X114284761Y-88471428D02*
X114284761Y-89804761D01*
X114760952Y-87709523D02*
X115237142Y-89138095D01*
X113999047Y-89138095D01*
D10*
X182078238Y-123547142D02*
X182125857Y-123594761D01*
X182268714Y-123642380D01*
X182363952Y-123642380D01*
X182506809Y-123594761D01*
X182602047Y-123499523D01*
X182649666Y-123404285D01*
X182697285Y-123213809D01*
X182697285Y-123070952D01*
X182649666Y-122880476D01*
X182602047Y-122785238D01*
X182506809Y-122690000D01*
X182363952Y-122642380D01*
X182268714Y-122642380D01*
X182125857Y-122690000D01*
X182078238Y-122737619D01*
X181173476Y-123642380D02*
X181649666Y-123642380D01*
X181649666Y-122642380D01*
X180840142Y-123642380D02*
X180840142Y-122642380D01*
X180268714Y-123642380D02*
X180697285Y-123070952D01*
X180268714Y-122642380D02*
X180840142Y-123213809D01*
X184633904Y-119947000D02*
X183633904Y-119947000D01*
X183824380Y-121229380D02*
X184157714Y-120753190D01*
X184395809Y-121229380D02*
X184395809Y-120229380D01*
X184014857Y-120229380D01*
X183919619Y-120277000D01*
X183872000Y-120324619D01*
X183824380Y-120419857D01*
X183824380Y-120562714D01*
X183872000Y-120657952D01*
X183919619Y-120705571D01*
X184014857Y-120753190D01*
X184395809Y-120753190D01*
X183633904Y-119947000D02*
X182729142Y-119947000D01*
X183395809Y-120705571D02*
X183062476Y-120705571D01*
X182919619Y-121229380D02*
X183395809Y-121229380D01*
X183395809Y-120229380D01*
X182919619Y-120229380D01*
X182729142Y-119947000D02*
X181776761Y-119947000D01*
X182538666Y-121181761D02*
X182395809Y-121229380D01*
X182157714Y-121229380D01*
X182062476Y-121181761D01*
X182014857Y-121134142D01*
X181967238Y-121038904D01*
X181967238Y-120943666D01*
X182014857Y-120848428D01*
X182062476Y-120800809D01*
X182157714Y-120753190D01*
X182348190Y-120705571D01*
X182443428Y-120657952D01*
X182491047Y-120610333D01*
X182538666Y-120515095D01*
X182538666Y-120419857D01*
X182491047Y-120324619D01*
X182443428Y-120277000D01*
X182348190Y-120229380D01*
X182110095Y-120229380D01*
X181967238Y-120277000D01*
X181776761Y-119947000D02*
X180872000Y-119947000D01*
X181538666Y-120705571D02*
X181205333Y-120705571D01*
X181062476Y-121229380D02*
X181538666Y-121229380D01*
X181538666Y-120229380D01*
X181062476Y-120229380D01*
X180872000Y-119947000D02*
X180110095Y-119947000D01*
X180776761Y-120229380D02*
X180205333Y-120229380D01*
X180491047Y-121229380D02*
X180491047Y-120229380D01*
X114522047Y-55094142D02*
X114569666Y-55141761D01*
X114712523Y-55189380D01*
X114807761Y-55189380D01*
X114950619Y-55141761D01*
X115045857Y-55046523D01*
X115093476Y-54951285D01*
X115141095Y-54760809D01*
X115141095Y-54617952D01*
X115093476Y-54427476D01*
X115045857Y-54332238D01*
X114950619Y-54237000D01*
X114807761Y-54189380D01*
X114712523Y-54189380D01*
X114569666Y-54237000D01*
X114522047Y-54284619D01*
X113617285Y-55189380D02*
X114093476Y-55189380D01*
X114093476Y-54189380D01*
X113093476Y-54189380D02*
X112903000Y-54189380D01*
X112807761Y-54237000D01*
X112712523Y-54332238D01*
X112664904Y-54522714D01*
X112664904Y-54856047D01*
X112712523Y-55046523D01*
X112807761Y-55141761D01*
X112903000Y-55189380D01*
X113093476Y-55189380D01*
X113188714Y-55141761D01*
X113283952Y-55046523D01*
X113331571Y-54856047D01*
X113331571Y-54522714D01*
X113283952Y-54332238D01*
X113188714Y-54237000D01*
X113093476Y-54189380D01*
X111664904Y-55094142D02*
X111712523Y-55141761D01*
X111855380Y-55189380D01*
X111950619Y-55189380D01*
X112093476Y-55141761D01*
X112188714Y-55046523D01*
X112236333Y-54951285D01*
X112283952Y-54760809D01*
X112283952Y-54617952D01*
X112236333Y-54427476D01*
X112188714Y-54332238D01*
X112093476Y-54237000D01*
X111950619Y-54189380D01*
X111855380Y-54189380D01*
X111712523Y-54237000D01*
X111664904Y-54284619D01*
X111236333Y-55189380D02*
X111236333Y-54189380D01*
X110664904Y-55189380D02*
X111093476Y-54617952D01*
X110664904Y-54189380D02*
X111236333Y-54760809D01*
X182871904Y-90733619D02*
X182824285Y-90686000D01*
X182729047Y-90638380D01*
X182490952Y-90638380D01*
X182395714Y-90686000D01*
X182348095Y-90733619D01*
X182300476Y-90828857D01*
X182300476Y-90924095D01*
X182348095Y-91066952D01*
X182919523Y-91638380D01*
X182300476Y-91638380D01*
X181681428Y-90638380D02*
X181586190Y-90638380D01*
X181490952Y-90686000D01*
X181443333Y-90733619D01*
X181395714Y-90828857D01*
X181348095Y-91019333D01*
X181348095Y-91257428D01*
X181395714Y-91447904D01*
X181443333Y-91543142D01*
X181490952Y-91590761D01*
X181586190Y-91638380D01*
X181681428Y-91638380D01*
X181776666Y-91590761D01*
X181824285Y-91543142D01*
X181871904Y-91447904D01*
X181919523Y-91257428D01*
X181919523Y-91019333D01*
X181871904Y-90828857D01*
X181824285Y-90733619D01*
X181776666Y-90686000D01*
X181681428Y-90638380D01*
X180919523Y-91638380D02*
X180919523Y-90638380D01*
X180348095Y-91638380D02*
X180776666Y-91066952D01*
X180348095Y-90638380D02*
X180919523Y-91209809D01*
X182848095Y-80065619D02*
X182800476Y-80018000D01*
X182705238Y-79970380D01*
X182467142Y-79970380D01*
X182371904Y-80018000D01*
X182324285Y-80065619D01*
X182276666Y-80160857D01*
X182276666Y-80256095D01*
X182324285Y-80398952D01*
X182895714Y-80970380D01*
X182276666Y-80970380D01*
X181895714Y-80065619D02*
X181848095Y-80018000D01*
X181752857Y-79970380D01*
X181514761Y-79970380D01*
X181419523Y-80018000D01*
X181371904Y-80065619D01*
X181324285Y-80160857D01*
X181324285Y-80256095D01*
X181371904Y-80398952D01*
X181943333Y-80970380D01*
X181324285Y-80970380D01*
X180705238Y-79970380D02*
X180610000Y-79970380D01*
X180514761Y-80018000D01*
X180467142Y-80065619D01*
X180419523Y-80160857D01*
X180371904Y-80351333D01*
X180371904Y-80589428D01*
X180419523Y-80779904D01*
X180467142Y-80875142D01*
X180514761Y-80922761D01*
X180610000Y-80970380D01*
X180705238Y-80970380D01*
X180800476Y-80922761D01*
X180848095Y-80875142D01*
X180895714Y-80779904D01*
X180943333Y-80589428D01*
X180943333Y-80351333D01*
X180895714Y-80160857D01*
X180848095Y-80065619D01*
X180800476Y-80018000D01*
X180705238Y-79970380D01*
X182895714Y-76414380D02*
X182276666Y-76414380D01*
X182610000Y-76795333D01*
X182467142Y-76795333D01*
X182371904Y-76842952D01*
X182324285Y-76890571D01*
X182276666Y-76985809D01*
X182276666Y-77223904D01*
X182324285Y-77319142D01*
X182371904Y-77366761D01*
X182467142Y-77414380D01*
X182752857Y-77414380D01*
X182848095Y-77366761D01*
X182895714Y-77319142D01*
X181943333Y-76414380D02*
X181324285Y-76414380D01*
X181657619Y-76795333D01*
X181514761Y-76795333D01*
X181419523Y-76842952D01*
X181371904Y-76890571D01*
X181324285Y-76985809D01*
X181324285Y-77223904D01*
X181371904Y-77319142D01*
X181419523Y-77366761D01*
X181514761Y-77414380D01*
X181800476Y-77414380D01*
X181895714Y-77366761D01*
X181943333Y-77319142D01*
X180705238Y-76414380D02*
X180610000Y-76414380D01*
X180514761Y-76462000D01*
X180467142Y-76509619D01*
X180419523Y-76604857D01*
X180371904Y-76795333D01*
X180371904Y-77033428D01*
X180419523Y-77223904D01*
X180467142Y-77319142D01*
X180514761Y-77366761D01*
X180610000Y-77414380D01*
X180705238Y-77414380D01*
X180800476Y-77366761D01*
X180848095Y-77319142D01*
X180895714Y-77223904D01*
X180943333Y-77033428D01*
X180943333Y-76795333D01*
X180895714Y-76604857D01*
X180848095Y-76509619D01*
X180800476Y-76462000D01*
X180705238Y-76414380D01*
X149613714Y-55167161D02*
X149470857Y-55214780D01*
X149232761Y-55214780D01*
X149137523Y-55167161D01*
X149089904Y-55119542D01*
X149042285Y-55024304D01*
X149042285Y-54929066D01*
X149089904Y-54833828D01*
X149137523Y-54786209D01*
X149232761Y-54738590D01*
X149423238Y-54690971D01*
X149518476Y-54643352D01*
X149566095Y-54595733D01*
X149613714Y-54500495D01*
X149613714Y-54405257D01*
X149566095Y-54310019D01*
X149518476Y-54262400D01*
X149423238Y-54214780D01*
X149185142Y-54214780D01*
X149042285Y-54262400D01*
X148137523Y-55214780D02*
X148613714Y-55214780D01*
X148613714Y-54214780D01*
X147613714Y-54214780D02*
X147423238Y-54214780D01*
X147328000Y-54262400D01*
X147232761Y-54357638D01*
X147185142Y-54548114D01*
X147185142Y-54881447D01*
X147232761Y-55071923D01*
X147328000Y-55167161D01*
X147423238Y-55214780D01*
X147613714Y-55214780D01*
X147708952Y-55167161D01*
X147804190Y-55071923D01*
X147851809Y-54881447D01*
X147851809Y-54548114D01*
X147804190Y-54357638D01*
X147708952Y-54262400D01*
X147613714Y-54214780D01*
X146851809Y-54214780D02*
X146613714Y-55214780D01*
X146423238Y-54500495D01*
X146232761Y-55214780D01*
X145994666Y-54214780D01*
D11*
X146350952Y-113204761D02*
X145017619Y-113204761D01*
X145874761Y-115204761D01*
X143398571Y-113871428D02*
X143398571Y-115204761D01*
X143874761Y-113109523D02*
X144350952Y-114538095D01*
X143112857Y-114538095D01*
X142446190Y-114633333D02*
X141493809Y-114633333D01*
X142636666Y-115204761D02*
X141970000Y-113204761D01*
X141303333Y-115204761D01*
X139493809Y-115014285D02*
X139589047Y-115109523D01*
X139874761Y-115204761D01*
X140065238Y-115204761D01*
X140350952Y-115109523D01*
X140541428Y-114919047D01*
X140636666Y-114728571D01*
X140731904Y-114347619D01*
X140731904Y-114061904D01*
X140636666Y-113680952D01*
X140541428Y-113490476D01*
X140350952Y-113300000D01*
X140065238Y-113204761D01*
X139874761Y-113204761D01*
X139589047Y-113300000D01*
X139493809Y-113395238D01*
X138827142Y-113204761D02*
X137493809Y-113204761D01*
X138350952Y-115204761D01*
X135874761Y-113871428D02*
X135874761Y-115204761D01*
X136350952Y-113109523D02*
X136827142Y-114538095D01*
X135589047Y-114538095D01*
D10*
X95424523Y-118276619D02*
X95519761Y-118229000D01*
X95615000Y-118133761D01*
X95757857Y-117990904D01*
X95853095Y-117943285D01*
X95948333Y-117943285D01*
X95900714Y-118181380D02*
X95995952Y-118133761D01*
X96091190Y-118038523D01*
X96138809Y-117848047D01*
X96138809Y-117514714D01*
X96091190Y-117324238D01*
X95995952Y-117229000D01*
X95900714Y-117181380D01*
X95710238Y-117181380D01*
X95615000Y-117229000D01*
X95519761Y-117324238D01*
X95472142Y-117514714D01*
X95472142Y-117848047D01*
X95519761Y-118038523D01*
X95615000Y-118133761D01*
X95710238Y-118181380D01*
X95900714Y-118181380D01*
X94519761Y-118181380D02*
X95091190Y-118181380D01*
X94805476Y-118181380D02*
X94805476Y-117181380D01*
X94900714Y-117324238D01*
X94995952Y-117419476D01*
X95091190Y-117467095D01*
X94091190Y-118086142D02*
X94043571Y-118133761D01*
X94091190Y-118181380D01*
X94138809Y-118133761D01*
X94091190Y-118086142D01*
X94091190Y-118181380D01*
X94091190Y-117562333D02*
X94043571Y-117609952D01*
X94091190Y-117657571D01*
X94138809Y-117609952D01*
X94091190Y-117562333D01*
X94091190Y-117657571D01*
X93424523Y-117181380D02*
X93329285Y-117181380D01*
X93234047Y-117229000D01*
X93186428Y-117276619D01*
X93138809Y-117371857D01*
X93091190Y-117562333D01*
X93091190Y-117800428D01*
X93138809Y-117990904D01*
X93186428Y-118086142D01*
X93234047Y-118133761D01*
X93329285Y-118181380D01*
X93424523Y-118181380D01*
X93519761Y-118133761D01*
X93567380Y-118086142D01*
X93615000Y-117990904D01*
X93662619Y-117800428D01*
X93662619Y-117562333D01*
X93615000Y-117371857D01*
X93567380Y-117276619D01*
X93519761Y-117229000D01*
X93424523Y-117181380D01*
X182919523Y-94194380D02*
X182300476Y-94194380D01*
X182633809Y-94575333D01*
X182490952Y-94575333D01*
X182395714Y-94622952D01*
X182348095Y-94670571D01*
X182300476Y-94765809D01*
X182300476Y-95003904D01*
X182348095Y-95099142D01*
X182395714Y-95146761D01*
X182490952Y-95194380D01*
X182776666Y-95194380D01*
X182871904Y-95146761D01*
X182919523Y-95099142D01*
X181871904Y-95194380D02*
X181871904Y-94194380D01*
X181300476Y-95194380D02*
X181729047Y-94622952D01*
X181300476Y-94194380D02*
X181871904Y-94765809D01*
X180967142Y-94194380D02*
X180348095Y-94194380D01*
X180681428Y-94575333D01*
X180538571Y-94575333D01*
X180443333Y-94622952D01*
X180395714Y-94670571D01*
X180348095Y-94765809D01*
X180348095Y-95003904D01*
X180395714Y-95099142D01*
X180443333Y-95146761D01*
X180538571Y-95194380D01*
X180824285Y-95194380D01*
X180919523Y-95146761D01*
X180967142Y-95099142D01*
X137572523Y-55189380D02*
X137572523Y-54189380D01*
X137239190Y-54903666D01*
X136905857Y-54189380D01*
X136905857Y-55189380D01*
X136239190Y-54189380D02*
X136048714Y-54189380D01*
X135953476Y-54237000D01*
X135858238Y-54332238D01*
X135810619Y-54522714D01*
X135810619Y-54856047D01*
X135858238Y-55046523D01*
X135953476Y-55141761D01*
X136048714Y-55189380D01*
X136239190Y-55189380D01*
X136334428Y-55141761D01*
X136429666Y-55046523D01*
X136477285Y-54856047D01*
X136477285Y-54522714D01*
X136429666Y-54332238D01*
X136334428Y-54237000D01*
X136239190Y-54189380D01*
X135382047Y-55189380D02*
X135382047Y-54189380D01*
X135143952Y-54189380D01*
X135001095Y-54237000D01*
X134905857Y-54332238D01*
X134858238Y-54427476D01*
X134810619Y-54617952D01*
X134810619Y-54760809D01*
X134858238Y-54951285D01*
X134905857Y-55046523D01*
X135001095Y-55141761D01*
X135143952Y-55189380D01*
X135382047Y-55189380D01*
X134382047Y-54665571D02*
X134048714Y-54665571D01*
X133905857Y-55189380D02*
X134382047Y-55189380D01*
X134382047Y-54189380D01*
X133905857Y-54189380D01*
X182919523Y-69302380D02*
X182300476Y-69302380D01*
X182633809Y-69683333D01*
X182490952Y-69683333D01*
X182395714Y-69730952D01*
X182348095Y-69778571D01*
X182300476Y-69873809D01*
X182300476Y-70111904D01*
X182348095Y-70207142D01*
X182395714Y-70254761D01*
X182490952Y-70302380D01*
X182776666Y-70302380D01*
X182871904Y-70254761D01*
X182919523Y-70207142D01*
X181871904Y-70302380D02*
X181871904Y-69302380D01*
X181300476Y-70302380D02*
X181729047Y-69730952D01*
X181300476Y-69302380D02*
X181871904Y-69873809D01*
X180967142Y-69302380D02*
X180348095Y-69302380D01*
X180681428Y-69683333D01*
X180538571Y-69683333D01*
X180443333Y-69730952D01*
X180395714Y-69778571D01*
X180348095Y-69873809D01*
X180348095Y-70111904D01*
X180395714Y-70207142D01*
X180443333Y-70254761D01*
X180538571Y-70302380D01*
X180824285Y-70302380D01*
X180919523Y-70254761D01*
X180967142Y-70207142D01*
X182871904Y-65841619D02*
X182824285Y-65794000D01*
X182729047Y-65746380D01*
X182490952Y-65746380D01*
X182395714Y-65794000D01*
X182348095Y-65841619D01*
X182300476Y-65936857D01*
X182300476Y-66032095D01*
X182348095Y-66174952D01*
X182919523Y-66746380D01*
X182300476Y-66746380D01*
X181681428Y-65746380D02*
X181586190Y-65746380D01*
X181490952Y-65794000D01*
X181443333Y-65841619D01*
X181395714Y-65936857D01*
X181348095Y-66127333D01*
X181348095Y-66365428D01*
X181395714Y-66555904D01*
X181443333Y-66651142D01*
X181490952Y-66698761D01*
X181586190Y-66746380D01*
X181681428Y-66746380D01*
X181776666Y-66698761D01*
X181824285Y-66651142D01*
X181871904Y-66555904D01*
X181919523Y-66365428D01*
X181919523Y-66127333D01*
X181871904Y-65936857D01*
X181824285Y-65841619D01*
X181776666Y-65794000D01*
X181681428Y-65746380D01*
X180919523Y-66746380D02*
X180919523Y-65746380D01*
X180348095Y-66746380D02*
X180776666Y-66174952D01*
X180348095Y-65746380D02*
X180919523Y-66317809D01*
X173460857Y-54792571D02*
X173794190Y-54792571D01*
X173794190Y-55316380D02*
X173794190Y-54316380D01*
X173318000Y-54316380D01*
X172984666Y-55030666D02*
X172508476Y-55030666D01*
X173079904Y-55316380D02*
X172746571Y-54316380D01*
X172413238Y-55316380D01*
X172127523Y-55268761D02*
X171984666Y-55316380D01*
X171746571Y-55316380D01*
X171651333Y-55268761D01*
X171603714Y-55221142D01*
X171556095Y-55125904D01*
X171556095Y-55030666D01*
X171603714Y-54935428D01*
X171651333Y-54887809D01*
X171746571Y-54840190D01*
X171937047Y-54792571D01*
X172032285Y-54744952D01*
X172079904Y-54697333D01*
X172127523Y-54602095D01*
X172127523Y-54506857D01*
X172079904Y-54411619D01*
X172032285Y-54364000D01*
X171937047Y-54316380D01*
X171698952Y-54316380D01*
X171556095Y-54364000D01*
X171270380Y-54316380D02*
X170698952Y-54316380D01*
X170984666Y-55316380D02*
X170984666Y-54316380D01*
D11*
X170163333Y-125904761D02*
X168830000Y-125904761D01*
X169687142Y-127904761D01*
X167210952Y-126571428D02*
X167210952Y-127904761D01*
X167687142Y-125809523D02*
X168163333Y-127238095D01*
X166925238Y-127238095D01*
X166258571Y-127333333D02*
X165306190Y-127333333D01*
X166449047Y-127904761D02*
X165782380Y-125904761D01*
X165115714Y-127904761D01*
X163306190Y-127714285D02*
X163401428Y-127809523D01*
X163687142Y-127904761D01*
X163877619Y-127904761D01*
X164163333Y-127809523D01*
X164353809Y-127619047D01*
X164449047Y-127428571D01*
X164544285Y-127047619D01*
X164544285Y-126761904D01*
X164449047Y-126380952D01*
X164353809Y-126190476D01*
X164163333Y-126000000D01*
X163877619Y-125904761D01*
X163687142Y-125904761D01*
X163401428Y-126000000D01*
X163306190Y-126095238D01*
X161401428Y-127904761D02*
X162544285Y-127904761D01*
X161972857Y-127904761D02*
X161972857Y-125904761D01*
X162163333Y-126190476D01*
X162353809Y-126380952D01*
X162544285Y-126476190D01*
X160734761Y-125904761D02*
X159401428Y-125904761D01*
X160258571Y-127904761D01*
X157782380Y-126571428D02*
X157782380Y-127904761D01*
X158258571Y-125809523D02*
X158734761Y-127238095D01*
X157496666Y-127238095D01*
X170163333Y-100504761D02*
X168830000Y-100504761D01*
X169687142Y-102504761D01*
X167210952Y-101171428D02*
X167210952Y-102504761D01*
X167687142Y-100409523D02*
X168163333Y-101838095D01*
X166925238Y-101838095D01*
X166258571Y-101933333D02*
X165306190Y-101933333D01*
X166449047Y-102504761D02*
X165782380Y-100504761D01*
X165115714Y-102504761D01*
X163306190Y-102314285D02*
X163401428Y-102409523D01*
X163687142Y-102504761D01*
X163877619Y-102504761D01*
X164163333Y-102409523D01*
X164353809Y-102219047D01*
X164449047Y-102028571D01*
X164544285Y-101647619D01*
X164544285Y-101361904D01*
X164449047Y-100980952D01*
X164353809Y-100790476D01*
X164163333Y-100600000D01*
X163877619Y-100504761D01*
X163687142Y-100504761D01*
X163401428Y-100600000D01*
X163306190Y-100695238D01*
X161401428Y-102504761D02*
X162544285Y-102504761D01*
X161972857Y-102504761D02*
X161972857Y-100504761D01*
X162163333Y-100790476D01*
X162353809Y-100980952D01*
X162544285Y-101076190D01*
X159496666Y-102504761D02*
X160639523Y-102504761D01*
X160068095Y-102504761D02*
X160068095Y-100504761D01*
X160258571Y-100790476D01*
X160449047Y-100980952D01*
X160639523Y-101076190D01*
X158734761Y-100695238D02*
X158639523Y-100600000D01*
X158449047Y-100504761D01*
X157972857Y-100504761D01*
X157782380Y-100600000D01*
X157687142Y-100695238D01*
X157591904Y-100885714D01*
X157591904Y-101076190D01*
X157687142Y-101361904D01*
X158830000Y-102504761D01*
X157591904Y-102504761D01*
X170353809Y-62404761D02*
X169020476Y-62404761D01*
X169877619Y-64404761D01*
X167401428Y-63071428D02*
X167401428Y-64404761D01*
X167877619Y-62309523D02*
X168353809Y-63738095D01*
X167115714Y-63738095D01*
X166353809Y-64404761D02*
X166353809Y-62404761D01*
X166353809Y-63357142D02*
X165210952Y-63357142D01*
X165210952Y-64404761D02*
X165210952Y-62404761D01*
X163115714Y-64214285D02*
X163210952Y-64309523D01*
X163496666Y-64404761D01*
X163687142Y-64404761D01*
X163972857Y-64309523D01*
X164163333Y-64119047D01*
X164258571Y-63928571D01*
X164353809Y-63547619D01*
X164353809Y-63261904D01*
X164258571Y-62880952D01*
X164163333Y-62690476D01*
X163972857Y-62500000D01*
X163687142Y-62404761D01*
X163496666Y-62404761D01*
X163210952Y-62500000D01*
X163115714Y-62595238D01*
X161210952Y-64404761D02*
X162353809Y-64404761D01*
X161782380Y-64404761D02*
X161782380Y-62404761D01*
X161972857Y-62690476D01*
X162163333Y-62880952D01*
X162353809Y-62976190D01*
X160544285Y-62404761D02*
X159306190Y-62404761D01*
X159972857Y-63166666D01*
X159687142Y-63166666D01*
X159496666Y-63261904D01*
X159401428Y-63357142D01*
X159306190Y-63547619D01*
X159306190Y-64023809D01*
X159401428Y-64214285D01*
X159496666Y-64309523D01*
X159687142Y-64404761D01*
X160258571Y-64404761D01*
X160449047Y-64309523D01*
X160544285Y-64214285D01*
X158163333Y-63261904D02*
X158353809Y-63166666D01*
X158449047Y-63071428D01*
X158544285Y-62880952D01*
X158544285Y-62785714D01*
X158449047Y-62595238D01*
X158353809Y-62500000D01*
X158163333Y-62404761D01*
X157782380Y-62404761D01*
X157591904Y-62500000D01*
X157496666Y-62595238D01*
X157401428Y-62785714D01*
X157401428Y-62880952D01*
X157496666Y-63071428D01*
X157591904Y-63166666D01*
X157782380Y-63261904D01*
X158163333Y-63261904D01*
X158353809Y-63357142D01*
X158449047Y-63452380D01*
X158544285Y-63642857D01*
X158544285Y-64023809D01*
X158449047Y-64214285D01*
X158353809Y-64309523D01*
X158163333Y-64404761D01*
X157782380Y-64404761D01*
X157591904Y-64309523D01*
X157496666Y-64214285D01*
X157401428Y-64023809D01*
X157401428Y-63642857D01*
X157496666Y-63452380D01*
X157591904Y-63357142D01*
X157782380Y-63261904D01*
D10*
X182895714Y-72858380D02*
X182276666Y-72858380D01*
X182610000Y-73239333D01*
X182467142Y-73239333D01*
X182371904Y-73286952D01*
X182324285Y-73334571D01*
X182276666Y-73429809D01*
X182276666Y-73667904D01*
X182324285Y-73763142D01*
X182371904Y-73810761D01*
X182467142Y-73858380D01*
X182752857Y-73858380D01*
X182848095Y-73810761D01*
X182895714Y-73763142D01*
X181943333Y-72858380D02*
X181324285Y-72858380D01*
X181657619Y-73239333D01*
X181514761Y-73239333D01*
X181419523Y-73286952D01*
X181371904Y-73334571D01*
X181324285Y-73429809D01*
X181324285Y-73667904D01*
X181371904Y-73763142D01*
X181419523Y-73810761D01*
X181514761Y-73858380D01*
X181800476Y-73858380D01*
X181895714Y-73810761D01*
X181943333Y-73763142D01*
X180705238Y-72858380D02*
X180610000Y-72858380D01*
X180514761Y-72906000D01*
X180467142Y-72953619D01*
X180419523Y-73048857D01*
X180371904Y-73239333D01*
X180371904Y-73477428D01*
X180419523Y-73667904D01*
X180467142Y-73763142D01*
X180514761Y-73810761D01*
X180610000Y-73858380D01*
X180705238Y-73858380D01*
X180800476Y-73810761D01*
X180848095Y-73763142D01*
X180895714Y-73667904D01*
X180943333Y-73477428D01*
X180943333Y-73239333D01*
X180895714Y-73048857D01*
X180848095Y-72953619D01*
X180800476Y-72906000D01*
X180705238Y-72858380D01*
X182498904Y-130310000D02*
X182594142Y-130262380D01*
X182737000Y-130262380D01*
X182879857Y-130310000D01*
X182975095Y-130405238D01*
X183022714Y-130500476D01*
X183070333Y-130690952D01*
X183070333Y-130833809D01*
X183022714Y-131024285D01*
X182975095Y-131119523D01*
X182879857Y-131214761D01*
X182737000Y-131262380D01*
X182641761Y-131262380D01*
X182498904Y-131214761D01*
X182451285Y-131167142D01*
X182451285Y-130833809D01*
X182641761Y-130833809D01*
X182022714Y-131262380D02*
X182022714Y-130262380D01*
X181451285Y-131262380D01*
X181451285Y-130262380D01*
X180975095Y-131262380D02*
X180975095Y-130262380D01*
X180737000Y-130262380D01*
X180594142Y-130310000D01*
X180498904Y-130405238D01*
X180451285Y-130500476D01*
X180403666Y-130690952D01*
X180403666Y-130833809D01*
X180451285Y-131024285D01*
X180498904Y-131119523D01*
X180594142Y-131214761D01*
X180737000Y-131262380D01*
X180975095Y-131262380D01*
D11*
X96650714Y-66249357D02*
X96436428Y-66320785D01*
X96365000Y-66392214D01*
X96293571Y-66535071D01*
X96293571Y-66749357D01*
X96365000Y-66892214D01*
X96436428Y-66963642D01*
X96579285Y-67035071D01*
X97150714Y-67035071D01*
X97150714Y-65535071D01*
X96650714Y-65535071D01*
X96507857Y-65606500D01*
X96436428Y-65677928D01*
X96365000Y-65820785D01*
X96365000Y-65963642D01*
X96436428Y-66106500D01*
X96507857Y-66177928D01*
X96650714Y-66249357D01*
X97150714Y-66249357D01*
X95365000Y-65535071D02*
X95079285Y-65535071D01*
X94936428Y-65606500D01*
X94793571Y-65749357D01*
X94722142Y-66035071D01*
X94722142Y-66535071D01*
X94793571Y-66820785D01*
X94936428Y-66963642D01*
X95079285Y-67035071D01*
X95365000Y-67035071D01*
X95507857Y-66963642D01*
X95650714Y-66820785D01*
X95722142Y-66535071D01*
X95722142Y-66035071D01*
X95650714Y-65749357D01*
X95507857Y-65606500D01*
X95365000Y-65535071D01*
X93793571Y-65535071D02*
X93507857Y-65535071D01*
X93365000Y-65606500D01*
X93222142Y-65749357D01*
X93150714Y-66035071D01*
X93150714Y-66535071D01*
X93222142Y-66820785D01*
X93365000Y-66963642D01*
X93507857Y-67035071D01*
X93793571Y-67035071D01*
X93936428Y-66963642D01*
X94079285Y-66820785D01*
X94150714Y-66535071D01*
X94150714Y-66035071D01*
X94079285Y-65749357D01*
X93936428Y-65606500D01*
X93793571Y-65535071D01*
X92722142Y-65535071D02*
X91865000Y-65535071D01*
X92293571Y-67035071D02*
X92293571Y-65535071D01*
X97329285Y-69450071D02*
X97329285Y-67950071D01*
X96829285Y-69021500D01*
X96329285Y-67950071D01*
X96329285Y-69450071D01*
X95329285Y-67950071D02*
X95043571Y-67950071D01*
X94900714Y-68021500D01*
X94757857Y-68164357D01*
X94686428Y-68450071D01*
X94686428Y-68950071D01*
X94757857Y-69235785D01*
X94900714Y-69378642D01*
X95043571Y-69450071D01*
X95329285Y-69450071D01*
X95472142Y-69378642D01*
X95615000Y-69235785D01*
X95686428Y-68950071D01*
X95686428Y-68450071D01*
X95615000Y-68164357D01*
X95472142Y-68021500D01*
X95329285Y-67950071D01*
X94043571Y-69450071D02*
X94043571Y-67950071D01*
X93686428Y-67950071D01*
X93472142Y-68021500D01*
X93329285Y-68164357D01*
X93257857Y-68307214D01*
X93186428Y-68592928D01*
X93186428Y-68807214D01*
X93257857Y-69092928D01*
X93329285Y-69235785D01*
X93472142Y-69378642D01*
X93686428Y-69450071D01*
X94043571Y-69450071D01*
X92543571Y-68664357D02*
X92043571Y-68664357D01*
X91829285Y-69450071D02*
X92543571Y-69450071D01*
X92543571Y-67950071D01*
X91829285Y-67950071D01*
X147875238Y-87804761D02*
X146541904Y-89804761D01*
X146541904Y-87804761D02*
X147875238Y-89804761D01*
X146065714Y-87804761D02*
X144922857Y-87804761D01*
X145494285Y-89804761D02*
X145494285Y-87804761D01*
X144351428Y-89233333D02*
X143399047Y-89233333D01*
X144541904Y-89804761D02*
X143875238Y-87804761D01*
X143208571Y-89804761D01*
X141589523Y-89804761D02*
X142541904Y-89804761D01*
X142541904Y-87804761D01*
X96793571Y-97515071D02*
X97293571Y-96800785D01*
X97650714Y-97515071D02*
X97650714Y-96015071D01*
X97079285Y-96015071D01*
X96936428Y-96086500D01*
X96865000Y-96157928D01*
X96793571Y-96300785D01*
X96793571Y-96515071D01*
X96865000Y-96657928D01*
X96936428Y-96729357D01*
X97079285Y-96800785D01*
X97650714Y-96800785D01*
X96150714Y-96729357D02*
X95650714Y-96729357D01*
X95436428Y-97515071D02*
X96150714Y-97515071D01*
X96150714Y-96015071D01*
X95436428Y-96015071D01*
X94865000Y-97443642D02*
X94650714Y-97515071D01*
X94293571Y-97515071D01*
X94150714Y-97443642D01*
X94079285Y-97372214D01*
X94007857Y-97229357D01*
X94007857Y-97086500D01*
X94079285Y-96943642D01*
X94150714Y-96872214D01*
X94293571Y-96800785D01*
X94579285Y-96729357D01*
X94722142Y-96657928D01*
X94793571Y-96586500D01*
X94865000Y-96443642D01*
X94865000Y-96300785D01*
X94793571Y-96157928D01*
X94722142Y-96086500D01*
X94579285Y-96015071D01*
X94222142Y-96015071D01*
X94007857Y-96086500D01*
X93365000Y-96729357D02*
X92865000Y-96729357D01*
X92650714Y-97515071D02*
X93365000Y-97515071D01*
X93365000Y-96015071D01*
X92650714Y-96015071D01*
X92222142Y-96015071D02*
X91365000Y-96015071D01*
X91793571Y-97515071D02*
X91793571Y-96015071D01*
X97615000Y-99144357D02*
X98115000Y-99144357D01*
X98115000Y-99930071D02*
X98115000Y-98430071D01*
X97400714Y-98430071D01*
X96900714Y-99501500D02*
X96186428Y-99501500D01*
X97043571Y-99930071D02*
X96543571Y-98430071D01*
X96043571Y-99930071D01*
X95615000Y-99858642D02*
X95400714Y-99930071D01*
X95043571Y-99930071D01*
X94900714Y-99858642D01*
X94829285Y-99787214D01*
X94757857Y-99644357D01*
X94757857Y-99501500D01*
X94829285Y-99358642D01*
X94900714Y-99287214D01*
X95043571Y-99215785D01*
X95329285Y-99144357D01*
X95472142Y-99072928D01*
X95543571Y-99001500D01*
X95615000Y-98858642D01*
X95615000Y-98715785D01*
X95543571Y-98572928D01*
X95472142Y-98501500D01*
X95329285Y-98430071D01*
X94972142Y-98430071D01*
X94757857Y-98501500D01*
X94329285Y-98430071D02*
X93472142Y-98430071D01*
X93900714Y-99930071D02*
X93900714Y-98430071D01*
X91543571Y-98430071D02*
X91400714Y-98430071D01*
X91257857Y-98501500D01*
X91186428Y-98572928D01*
X91115000Y-98715785D01*
X91043571Y-99001500D01*
X91043571Y-99358642D01*
X91115000Y-99644357D01*
X91186428Y-99787214D01*
X91257857Y-99858642D01*
X91400714Y-99930071D01*
X91543571Y-99930071D01*
X91686428Y-99858642D01*
X91757857Y-99787214D01*
X91829285Y-99644357D01*
X91900714Y-99358642D01*
X91900714Y-99001500D01*
X91829285Y-98715785D01*
X91757857Y-98572928D01*
X91686428Y-98501500D01*
X91543571Y-98430071D01*
D10*
X103941380Y-55189380D02*
X104274714Y-54713190D01*
X104512809Y-55189380D02*
X104512809Y-54189380D01*
X104131857Y-54189380D01*
X104036619Y-54237000D01*
X103989000Y-54284619D01*
X103941380Y-54379857D01*
X103941380Y-54522714D01*
X103989000Y-54617952D01*
X104036619Y-54665571D01*
X104131857Y-54713190D01*
X104512809Y-54713190D01*
X103512809Y-54665571D02*
X103179476Y-54665571D01*
X103036619Y-55189380D02*
X103512809Y-55189380D01*
X103512809Y-54189380D01*
X103036619Y-54189380D01*
X102655666Y-55141761D02*
X102512809Y-55189380D01*
X102274714Y-55189380D01*
X102179476Y-55141761D01*
X102131857Y-55094142D01*
X102084238Y-54998904D01*
X102084238Y-54903666D01*
X102131857Y-54808428D01*
X102179476Y-54760809D01*
X102274714Y-54713190D01*
X102465190Y-54665571D01*
X102560428Y-54617952D01*
X102608047Y-54570333D01*
X102655666Y-54475095D01*
X102655666Y-54379857D01*
X102608047Y-54284619D01*
X102560428Y-54237000D01*
X102465190Y-54189380D01*
X102227095Y-54189380D01*
X102084238Y-54237000D01*
X101655666Y-54665571D02*
X101322333Y-54665571D01*
X101179476Y-55189380D02*
X101655666Y-55189380D01*
X101655666Y-54189380D01*
X101179476Y-54189380D01*
X100893761Y-54189380D02*
X100322333Y-54189380D01*
X100608047Y-55189380D02*
X100608047Y-54189380D01*
X124809047Y-55141761D02*
X124666190Y-55189380D01*
X124428095Y-55189380D01*
X124332857Y-55141761D01*
X124285238Y-55094142D01*
X124237619Y-54998904D01*
X124237619Y-54903666D01*
X124285238Y-54808428D01*
X124332857Y-54760809D01*
X124428095Y-54713190D01*
X124618571Y-54665571D01*
X124713809Y-54617952D01*
X124761428Y-54570333D01*
X124809047Y-54475095D01*
X124809047Y-54379857D01*
X124761428Y-54284619D01*
X124713809Y-54237000D01*
X124618571Y-54189380D01*
X124380476Y-54189380D01*
X124237619Y-54237000D01*
X123951904Y-54189380D02*
X123380476Y-54189380D01*
X123666190Y-55189380D02*
X123666190Y-54189380D01*
X123047142Y-54665571D02*
X122713809Y-54665571D01*
X122570952Y-55189380D02*
X123047142Y-55189380D01*
X123047142Y-54189380D01*
X122570952Y-54189380D01*
X122142380Y-55189380D02*
X122142380Y-54189380D01*
X121761428Y-54189380D01*
X121666190Y-54237000D01*
X121618571Y-54284619D01*
X121570952Y-54379857D01*
X121570952Y-54522714D01*
X121618571Y-54617952D01*
X121666190Y-54665571D01*
X121761428Y-54713190D01*
X122142380Y-54713190D01*
X182300476Y-105862380D02*
X182871904Y-105862380D01*
X182586190Y-105862380D02*
X182586190Y-104862380D01*
X182681428Y-105005238D01*
X182776666Y-105100476D01*
X182871904Y-105148095D01*
X181681428Y-104862380D02*
X181586190Y-104862380D01*
X181490952Y-104910000D01*
X181443333Y-104957619D01*
X181395714Y-105052857D01*
X181348095Y-105243333D01*
X181348095Y-105481428D01*
X181395714Y-105671904D01*
X181443333Y-105767142D01*
X181490952Y-105814761D01*
X181586190Y-105862380D01*
X181681428Y-105862380D01*
X181776666Y-105814761D01*
X181824285Y-105767142D01*
X181871904Y-105671904D01*
X181919523Y-105481428D01*
X181919523Y-105243333D01*
X181871904Y-105052857D01*
X181824285Y-104957619D01*
X181776666Y-104910000D01*
X181681428Y-104862380D01*
X180919523Y-105862380D02*
X180919523Y-104862380D01*
X180348095Y-105862380D02*
X180776666Y-105290952D01*
X180348095Y-104862380D02*
X180919523Y-105433809D01*
D11*
X170353809Y-113204761D02*
X169020476Y-113204761D01*
X169877619Y-115204761D01*
X167401428Y-113871428D02*
X167401428Y-115204761D01*
X167877619Y-113109523D02*
X168353809Y-114538095D01*
X167115714Y-114538095D01*
X166353809Y-115204761D02*
X166353809Y-113204761D01*
X166353809Y-114157142D02*
X165210952Y-114157142D01*
X165210952Y-115204761D02*
X165210952Y-113204761D01*
X163115714Y-115014285D02*
X163210952Y-115109523D01*
X163496666Y-115204761D01*
X163687142Y-115204761D01*
X163972857Y-115109523D01*
X164163333Y-114919047D01*
X164258571Y-114728571D01*
X164353809Y-114347619D01*
X164353809Y-114061904D01*
X164258571Y-113680952D01*
X164163333Y-113490476D01*
X163972857Y-113300000D01*
X163687142Y-113204761D01*
X163496666Y-113204761D01*
X163210952Y-113300000D01*
X163115714Y-113395238D01*
X162353809Y-113395238D02*
X162258571Y-113300000D01*
X162068095Y-113204761D01*
X161591904Y-113204761D01*
X161401428Y-113300000D01*
X161306190Y-113395238D01*
X161210952Y-113585714D01*
X161210952Y-113776190D01*
X161306190Y-114061904D01*
X162449047Y-115204761D01*
X161210952Y-115204761D01*
X159401428Y-113204761D02*
X160353809Y-113204761D01*
X160449047Y-114157142D01*
X160353809Y-114061904D01*
X160163333Y-113966666D01*
X159687142Y-113966666D01*
X159496666Y-114061904D01*
X159401428Y-114157142D01*
X159306190Y-114347619D01*
X159306190Y-114823809D01*
X159401428Y-115014285D01*
X159496666Y-115109523D01*
X159687142Y-115204761D01*
X160163333Y-115204761D01*
X160353809Y-115109523D01*
X160449047Y-115014285D01*
X157401428Y-115204761D02*
X158544285Y-115204761D01*
X157972857Y-115204761D02*
X157972857Y-113204761D01*
X158163333Y-113490476D01*
X158353809Y-113680952D01*
X158544285Y-113776190D01*
D10*
X182919523Y-62190380D02*
X182300476Y-62190380D01*
X182633809Y-62571333D01*
X182490952Y-62571333D01*
X182395714Y-62618952D01*
X182348095Y-62666571D01*
X182300476Y-62761809D01*
X182300476Y-62999904D01*
X182348095Y-63095142D01*
X182395714Y-63142761D01*
X182490952Y-63190380D01*
X182776666Y-63190380D01*
X182871904Y-63142761D01*
X182919523Y-63095142D01*
X181871904Y-63190380D02*
X181871904Y-62190380D01*
X181300476Y-63190380D02*
X181729047Y-62618952D01*
X181300476Y-62190380D02*
X181871904Y-62761809D01*
X180967142Y-62190380D02*
X180348095Y-62190380D01*
X180681428Y-62571333D01*
X180538571Y-62571333D01*
X180443333Y-62618952D01*
X180395714Y-62666571D01*
X180348095Y-62761809D01*
X180348095Y-62999904D01*
X180395714Y-63095142D01*
X180443333Y-63142761D01*
X180538571Y-63190380D01*
X180824285Y-63190380D01*
X180919523Y-63142761D01*
X180967142Y-63095142D01*
X183022714Y-113101428D02*
X182260809Y-113101428D01*
X182641761Y-113482380D02*
X182641761Y-112720476D01*
X181308428Y-112482380D02*
X181784619Y-112482380D01*
X181832238Y-112958571D01*
X181784619Y-112910952D01*
X181689380Y-112863333D01*
X181451285Y-112863333D01*
X181356047Y-112910952D01*
X181308428Y-112958571D01*
X181260809Y-113053809D01*
X181260809Y-113291904D01*
X181308428Y-113387142D01*
X181356047Y-113434761D01*
X181451285Y-113482380D01*
X181689380Y-113482380D01*
X181784619Y-113434761D01*
X181832238Y-113387142D01*
X180975095Y-112482380D02*
X180641761Y-113482380D01*
X180308428Y-112482380D01*
D11*
X96650714Y-81489357D02*
X96436428Y-81560785D01*
X96365000Y-81632214D01*
X96293571Y-81775071D01*
X96293571Y-81989357D01*
X96365000Y-82132214D01*
X96436428Y-82203642D01*
X96579285Y-82275071D01*
X97150714Y-82275071D01*
X97150714Y-80775071D01*
X96650714Y-80775071D01*
X96507857Y-80846500D01*
X96436428Y-80917928D01*
X96365000Y-81060785D01*
X96365000Y-81203642D01*
X96436428Y-81346500D01*
X96507857Y-81417928D01*
X96650714Y-81489357D01*
X97150714Y-81489357D01*
X95365000Y-80775071D02*
X95079285Y-80775071D01*
X94936428Y-80846500D01*
X94793571Y-80989357D01*
X94722142Y-81275071D01*
X94722142Y-81775071D01*
X94793571Y-82060785D01*
X94936428Y-82203642D01*
X95079285Y-82275071D01*
X95365000Y-82275071D01*
X95507857Y-82203642D01*
X95650714Y-82060785D01*
X95722142Y-81775071D01*
X95722142Y-81275071D01*
X95650714Y-80989357D01*
X95507857Y-80846500D01*
X95365000Y-80775071D01*
X93793571Y-80775071D02*
X93507857Y-80775071D01*
X93365000Y-80846500D01*
X93222142Y-80989357D01*
X93150714Y-81275071D01*
X93150714Y-81775071D01*
X93222142Y-82060785D01*
X93365000Y-82203642D01*
X93507857Y-82275071D01*
X93793571Y-82275071D01*
X93936428Y-82203642D01*
X94079285Y-82060785D01*
X94150714Y-81775071D01*
X94150714Y-81275071D01*
X94079285Y-80989357D01*
X93936428Y-80846500D01*
X93793571Y-80775071D01*
X92722142Y-80775071D02*
X91865000Y-80775071D01*
X92293571Y-82275071D02*
X92293571Y-80775071D01*
X97900714Y-84618642D02*
X97686428Y-84690071D01*
X97329285Y-84690071D01*
X97186428Y-84618642D01*
X97115000Y-84547214D01*
X97043571Y-84404357D01*
X97043571Y-84261500D01*
X97115000Y-84118642D01*
X97186428Y-84047214D01*
X97329285Y-83975785D01*
X97615000Y-83904357D01*
X97757857Y-83832928D01*
X97829285Y-83761500D01*
X97900714Y-83618642D01*
X97900714Y-83475785D01*
X97829285Y-83332928D01*
X97757857Y-83261500D01*
X97615000Y-83190071D01*
X97257857Y-83190071D01*
X97043571Y-83261500D01*
X96400714Y-84690071D02*
X96400714Y-83190071D01*
X95829285Y-83190071D01*
X95686428Y-83261500D01*
X95615000Y-83332928D01*
X95543571Y-83475785D01*
X95543571Y-83690071D01*
X95615000Y-83832928D01*
X95686428Y-83904357D01*
X95829285Y-83975785D01*
X96400714Y-83975785D01*
X94900714Y-83904357D02*
X94400714Y-83904357D01*
X94186428Y-84690071D02*
X94900714Y-84690071D01*
X94900714Y-83190071D01*
X94186428Y-83190071D01*
X93543571Y-83904357D02*
X93043571Y-83904357D01*
X92829285Y-84690071D02*
X93543571Y-84690071D01*
X93543571Y-83190071D01*
X92829285Y-83190071D01*
X92186428Y-84690071D02*
X92186428Y-83190071D01*
X91829285Y-83190071D01*
X91615000Y-83261500D01*
X91472142Y-83404357D01*
X91400714Y-83547214D01*
X91329285Y-83832928D01*
X91329285Y-84047214D01*
X91400714Y-84332928D01*
X91472142Y-84475785D01*
X91615000Y-84618642D01*
X91829285Y-84690071D01*
X92186428Y-84690071D01*
D10*
X143811047Y-135596380D02*
X143811047Y-136310666D01*
X143858666Y-136453523D01*
X143953904Y-136548761D01*
X144096761Y-136596380D01*
X144192000Y-136596380D01*
X142858666Y-136596380D02*
X143334857Y-136596380D01*
X143334857Y-135596380D01*
X141953904Y-136501142D02*
X142001523Y-136548761D01*
X142144380Y-136596380D01*
X142239619Y-136596380D01*
X142382476Y-136548761D01*
X142477714Y-136453523D01*
X142525333Y-136358285D01*
X142572952Y-136167809D01*
X142572952Y-136024952D01*
X142525333Y-135834476D01*
X142477714Y-135739238D01*
X142382476Y-135644000D01*
X142239619Y-135596380D01*
X142144380Y-135596380D01*
X142001523Y-135644000D01*
X141953904Y-135691619D01*
X141239619Y-135596380D02*
X141239619Y-136310666D01*
X141287238Y-136453523D01*
X141382476Y-136548761D01*
X141525333Y-136596380D01*
X141620571Y-136596380D01*
X140287238Y-136596380D02*
X140763428Y-136596380D01*
X140763428Y-135596380D01*
X139382476Y-136501142D02*
X139430095Y-136548761D01*
X139572952Y-136596380D01*
X139668190Y-136596380D01*
X139811047Y-136548761D01*
X139906285Y-136453523D01*
X139953904Y-136358285D01*
X140001523Y-136167809D01*
X140001523Y-136024952D01*
X139953904Y-135834476D01*
X139906285Y-135739238D01*
X139811047Y-135644000D01*
X139668190Y-135596380D01*
X139572952Y-135596380D01*
X139430095Y-135644000D01*
X139382476Y-135691619D01*
X138668190Y-135596380D02*
X138668190Y-136310666D01*
X138715809Y-136453523D01*
X138811047Y-136548761D01*
X138953904Y-136596380D01*
X139049142Y-136596380D01*
X137715809Y-136596380D02*
X138192000Y-136596380D01*
X138192000Y-135596380D01*
X136811047Y-136501142D02*
X136858666Y-136548761D01*
X137001523Y-136596380D01*
X137096761Y-136596380D01*
X137239619Y-136548761D01*
X137334857Y-136453523D01*
X137382476Y-136358285D01*
X137430095Y-136167809D01*
X137430095Y-136024952D01*
X137382476Y-135834476D01*
X137334857Y-135739238D01*
X137239619Y-135644000D01*
X137096761Y-135596380D01*
X137001523Y-135596380D01*
X136858666Y-135644000D01*
X136811047Y-135691619D01*
X136096761Y-135596380D02*
X136096761Y-136310666D01*
X136144380Y-136453523D01*
X136239619Y-136548761D01*
X136382476Y-136596380D01*
X136477714Y-136596380D01*
X135144380Y-136596380D02*
X135620571Y-136596380D01*
X135620571Y-135596380D01*
X134239619Y-136501142D02*
X134287238Y-136548761D01*
X134430095Y-136596380D01*
X134525333Y-136596380D01*
X134668190Y-136548761D01*
X134763428Y-136453523D01*
X134811047Y-136358285D01*
X134858666Y-136167809D01*
X134858666Y-136024952D01*
X134811047Y-135834476D01*
X134763428Y-135739238D01*
X134668190Y-135644000D01*
X134525333Y-135596380D01*
X134430095Y-135596380D01*
X134287238Y-135644000D01*
X134239619Y-135691619D01*
D11*
X146350952Y-62404761D02*
X145017619Y-62404761D01*
X145874761Y-64404761D01*
X143398571Y-63071428D02*
X143398571Y-64404761D01*
X143874761Y-62309523D02*
X144350952Y-63738095D01*
X143112857Y-63738095D01*
X142446190Y-63833333D02*
X141493809Y-63833333D01*
X142636666Y-64404761D02*
X141970000Y-62404761D01*
X141303333Y-64404761D01*
X139493809Y-64214285D02*
X139589047Y-64309523D01*
X139874761Y-64404761D01*
X140065238Y-64404761D01*
X140350952Y-64309523D01*
X140541428Y-64119047D01*
X140636666Y-63928571D01*
X140731904Y-63547619D01*
X140731904Y-63261904D01*
X140636666Y-62880952D01*
X140541428Y-62690476D01*
X140350952Y-62500000D01*
X140065238Y-62404761D01*
X139874761Y-62404761D01*
X139589047Y-62500000D01*
X139493809Y-62595238D01*
X138827142Y-62404761D02*
X137493809Y-62404761D01*
X138350952Y-64404761D01*
X135874761Y-63071428D02*
X135874761Y-64404761D01*
X136350952Y-62309523D02*
X136827142Y-63738095D01*
X135589047Y-63738095D01*
D10*
X182848095Y-83621619D02*
X182800476Y-83574000D01*
X182705238Y-83526380D01*
X182467142Y-83526380D01*
X182371904Y-83574000D01*
X182324285Y-83621619D01*
X182276666Y-83716857D01*
X182276666Y-83812095D01*
X182324285Y-83954952D01*
X182895714Y-84526380D01*
X182276666Y-84526380D01*
X181895714Y-83621619D02*
X181848095Y-83574000D01*
X181752857Y-83526380D01*
X181514761Y-83526380D01*
X181419523Y-83574000D01*
X181371904Y-83621619D01*
X181324285Y-83716857D01*
X181324285Y-83812095D01*
X181371904Y-83954952D01*
X181943333Y-84526380D01*
X181324285Y-84526380D01*
X180705238Y-83526380D02*
X180610000Y-83526380D01*
X180514761Y-83574000D01*
X180467142Y-83621619D01*
X180419523Y-83716857D01*
X180371904Y-83907333D01*
X180371904Y-84145428D01*
X180419523Y-84335904D01*
X180467142Y-84431142D01*
X180514761Y-84478761D01*
X180610000Y-84526380D01*
X180705238Y-84526380D01*
X180800476Y-84478761D01*
X180848095Y-84431142D01*
X180895714Y-84335904D01*
X180943333Y-84145428D01*
X180943333Y-83907333D01*
X180895714Y-83716857D01*
X180848095Y-83621619D01*
X180800476Y-83574000D01*
X180705238Y-83526380D01*
D11*
X146350952Y-125904761D02*
X145017619Y-125904761D01*
X145874761Y-127904761D01*
X143398571Y-126571428D02*
X143398571Y-127904761D01*
X143874761Y-125809523D02*
X144350952Y-127238095D01*
X143112857Y-127238095D01*
X142446190Y-127333333D02*
X141493809Y-127333333D01*
X142636666Y-127904761D02*
X141970000Y-125904761D01*
X141303333Y-127904761D01*
X139493809Y-127714285D02*
X139589047Y-127809523D01*
X139874761Y-127904761D01*
X140065238Y-127904761D01*
X140350952Y-127809523D01*
X140541428Y-127619047D01*
X140636666Y-127428571D01*
X140731904Y-127047619D01*
X140731904Y-126761904D01*
X140636666Y-126380952D01*
X140541428Y-126190476D01*
X140350952Y-126000000D01*
X140065238Y-125904761D01*
X139874761Y-125904761D01*
X139589047Y-126000000D01*
X139493809Y-126095238D01*
X137589047Y-127904761D02*
X138731904Y-127904761D01*
X138160476Y-127904761D02*
X138160476Y-125904761D01*
X138350952Y-126190476D01*
X138541428Y-126380952D01*
X138731904Y-126476190D01*
X135874761Y-126571428D02*
X135874761Y-127904761D01*
X136350952Y-125809523D02*
X136827142Y-127238095D01*
X135589047Y-127238095D01*
D10*
X103711000Y-125662000D02*
X102711000Y-125662000D01*
X102901476Y-126849142D02*
X102949095Y-126896761D01*
X103091952Y-126944380D01*
X103187190Y-126944380D01*
X103330047Y-126896761D01*
X103425285Y-126801523D01*
X103472904Y-126706285D01*
X103520523Y-126515809D01*
X103520523Y-126372952D01*
X103472904Y-126182476D01*
X103425285Y-126087238D01*
X103330047Y-125992000D01*
X103187190Y-125944380D01*
X103091952Y-125944380D01*
X102949095Y-125992000D01*
X102901476Y-126039619D01*
X102711000Y-125662000D02*
X101901476Y-125662000D01*
X101996714Y-126944380D02*
X102472904Y-126944380D01*
X102472904Y-125944380D01*
X101901476Y-125662000D02*
X100901476Y-125662000D01*
X101663380Y-126944380D02*
X101663380Y-125944380D01*
X101091952Y-126944380D02*
X101520523Y-126372952D01*
X101091952Y-125944380D02*
X101663380Y-126515809D01*
X100901476Y-125662000D02*
X100139571Y-125662000D01*
X100901476Y-127039619D02*
X100139571Y-127039619D01*
X100139571Y-125662000D02*
X99139571Y-125662000D01*
X99901476Y-126944380D02*
X99901476Y-125944380D01*
X99663380Y-125944380D01*
X99520523Y-125992000D01*
X99425285Y-126087238D01*
X99377666Y-126182476D01*
X99330047Y-126372952D01*
X99330047Y-126515809D01*
X99377666Y-126706285D01*
X99425285Y-126801523D01*
X99520523Y-126896761D01*
X99663380Y-126944380D01*
X99901476Y-126944380D01*
X99139571Y-125662000D02*
X98663380Y-125662000D01*
X98901476Y-126944380D02*
X98901476Y-125944380D01*
X98663380Y-125662000D02*
X97711000Y-125662000D01*
X98472904Y-126896761D02*
X98330047Y-126944380D01*
X98091952Y-126944380D01*
X97996714Y-126896761D01*
X97949095Y-126849142D01*
X97901476Y-126753904D01*
X97901476Y-126658666D01*
X97949095Y-126563428D01*
X97996714Y-126515809D01*
X98091952Y-126468190D01*
X98282428Y-126420571D01*
X98377666Y-126372952D01*
X98425285Y-126325333D01*
X98472904Y-126230095D01*
X98472904Y-126134857D01*
X98425285Y-126039619D01*
X98377666Y-125992000D01*
X98282428Y-125944380D01*
X98044333Y-125944380D01*
X97901476Y-125992000D01*
D11*
X124760952Y-113204761D02*
X123427619Y-113204761D01*
X124284761Y-115204761D01*
X121808571Y-113871428D02*
X121808571Y-115204761D01*
X122284761Y-113109523D02*
X122760952Y-114538095D01*
X121522857Y-114538095D01*
X120856190Y-114633333D02*
X119903809Y-114633333D01*
X121046666Y-115204761D02*
X120380000Y-113204761D01*
X119713333Y-115204761D01*
X117903809Y-115014285D02*
X117999047Y-115109523D01*
X118284761Y-115204761D01*
X118475238Y-115204761D01*
X118760952Y-115109523D01*
X118951428Y-114919047D01*
X119046666Y-114728571D01*
X119141904Y-114347619D01*
X119141904Y-114061904D01*
X119046666Y-113680952D01*
X118951428Y-113490476D01*
X118760952Y-113300000D01*
X118475238Y-113204761D01*
X118284761Y-113204761D01*
X117999047Y-113300000D01*
X117903809Y-113395238D01*
X117237142Y-113204761D02*
X115903809Y-113204761D01*
X116760952Y-115204761D01*
X114284761Y-113871428D02*
X114284761Y-115204761D01*
X114760952Y-113109523D02*
X115237142Y-114538095D01*
X113999047Y-114538095D01*
D10*
X95424523Y-109386619D02*
X95519761Y-109339000D01*
X95615000Y-109243761D01*
X95757857Y-109100904D01*
X95853095Y-109053285D01*
X95948333Y-109053285D01*
X95900714Y-109291380D02*
X95995952Y-109243761D01*
X96091190Y-109148523D01*
X96138809Y-108958047D01*
X96138809Y-108624714D01*
X96091190Y-108434238D01*
X95995952Y-108339000D01*
X95900714Y-108291380D01*
X95710238Y-108291380D01*
X95615000Y-108339000D01*
X95519761Y-108434238D01*
X95472142Y-108624714D01*
X95472142Y-108958047D01*
X95519761Y-109148523D01*
X95615000Y-109243761D01*
X95710238Y-109291380D01*
X95900714Y-109291380D01*
X94519761Y-109291380D02*
X95091190Y-109291380D01*
X94805476Y-109291380D02*
X94805476Y-108291380D01*
X94900714Y-108434238D01*
X94995952Y-108529476D01*
X95091190Y-108577095D01*
X94091190Y-109196142D02*
X94043571Y-109243761D01*
X94091190Y-109291380D01*
X94138809Y-109243761D01*
X94091190Y-109196142D01*
X94091190Y-109291380D01*
X94091190Y-108672333D02*
X94043571Y-108719952D01*
X94091190Y-108767571D01*
X94138809Y-108719952D01*
X94091190Y-108672333D01*
X94091190Y-108767571D01*
X93091190Y-109291380D02*
X93662619Y-109291380D01*
X93376904Y-109291380D02*
X93376904Y-108291380D01*
X93472142Y-108434238D01*
X93567380Y-108529476D01*
X93662619Y-108577095D01*
X182848095Y-97845619D02*
X182800476Y-97798000D01*
X182705238Y-97750380D01*
X182467142Y-97750380D01*
X182371904Y-97798000D01*
X182324285Y-97845619D01*
X182276666Y-97940857D01*
X182276666Y-98036095D01*
X182324285Y-98178952D01*
X182895714Y-98750380D01*
X182276666Y-98750380D01*
X181895714Y-97845619D02*
X181848095Y-97798000D01*
X181752857Y-97750380D01*
X181514761Y-97750380D01*
X181419523Y-97798000D01*
X181371904Y-97845619D01*
X181324285Y-97940857D01*
X181324285Y-98036095D01*
X181371904Y-98178952D01*
X181943333Y-98750380D01*
X181324285Y-98750380D01*
X180705238Y-97750380D02*
X180610000Y-97750380D01*
X180514761Y-97798000D01*
X180467142Y-97845619D01*
X180419523Y-97940857D01*
X180371904Y-98131333D01*
X180371904Y-98369428D01*
X180419523Y-98559904D01*
X180467142Y-98655142D01*
X180514761Y-98702761D01*
X180610000Y-98750380D01*
X180705238Y-98750380D01*
X180800476Y-98702761D01*
X180848095Y-98655142D01*
X180895714Y-98559904D01*
X180943333Y-98369428D01*
X180943333Y-98131333D01*
X180895714Y-97940857D01*
X180848095Y-97845619D01*
X180800476Y-97798000D01*
X180705238Y-97750380D01*
D11*
X146350952Y-100504761D02*
X145017619Y-100504761D01*
X145874761Y-102504761D01*
X143398571Y-101171428D02*
X143398571Y-102504761D01*
X143874761Y-100409523D02*
X144350952Y-101838095D01*
X143112857Y-101838095D01*
X142446190Y-101933333D02*
X141493809Y-101933333D01*
X142636666Y-102504761D02*
X141970000Y-100504761D01*
X141303333Y-102504761D01*
X139493809Y-102314285D02*
X139589047Y-102409523D01*
X139874761Y-102504761D01*
X140065238Y-102504761D01*
X140350952Y-102409523D01*
X140541428Y-102219047D01*
X140636666Y-102028571D01*
X140731904Y-101647619D01*
X140731904Y-101361904D01*
X140636666Y-100980952D01*
X140541428Y-100790476D01*
X140350952Y-100600000D01*
X140065238Y-100504761D01*
X139874761Y-100504761D01*
X139589047Y-100600000D01*
X139493809Y-100695238D01*
X138827142Y-100504761D02*
X137493809Y-100504761D01*
X138350952Y-102504761D01*
X135874761Y-101171428D02*
X135874761Y-102504761D01*
X136350952Y-100409523D02*
X136827142Y-101838095D01*
X135589047Y-101838095D01*
D10*
X182887761Y-125027000D02*
X181887761Y-125027000D01*
X182078238Y-126214142D02*
X182125857Y-126261761D01*
X182268714Y-126309380D01*
X182363952Y-126309380D01*
X182506809Y-126261761D01*
X182602047Y-126166523D01*
X182649666Y-126071285D01*
X182697285Y-125880809D01*
X182697285Y-125737952D01*
X182649666Y-125547476D01*
X182602047Y-125452238D01*
X182506809Y-125357000D01*
X182363952Y-125309380D01*
X182268714Y-125309380D01*
X182125857Y-125357000D01*
X182078238Y-125404619D01*
X181887761Y-125027000D02*
X181078238Y-125027000D01*
X181173476Y-126309380D02*
X181649666Y-126309380D01*
X181649666Y-125309380D01*
X181078238Y-125027000D02*
X180078238Y-125027000D01*
X180840142Y-126309380D02*
X180840142Y-125309380D01*
X180268714Y-126309380D02*
X180697285Y-125737952D01*
X180268714Y-125309380D02*
X180840142Y-125880809D01*
X169325619Y-49895000D02*
X169325619Y-50466428D01*
X169325619Y-50180714D02*
X170325619Y-50180714D01*
X170182761Y-50275952D01*
X170087523Y-50371190D01*
X170039904Y-50466428D01*
X169420857Y-49466428D02*
X169373238Y-49418809D01*
X169325619Y-49466428D01*
X169373238Y-49514047D01*
X169420857Y-49466428D01*
X169325619Y-49466428D01*
X169897047Y-48847380D02*
X169944666Y-48942619D01*
X169992285Y-48990238D01*
X170087523Y-49037857D01*
X170135142Y-49037857D01*
X170230380Y-48990238D01*
X170278000Y-48942619D01*
X170325619Y-48847380D01*
X170325619Y-48656904D01*
X170278000Y-48561666D01*
X170230380Y-48514047D01*
X170135142Y-48466428D01*
X170087523Y-48466428D01*
X169992285Y-48514047D01*
X169944666Y-48561666D01*
X169897047Y-48656904D01*
X169897047Y-48847380D01*
X169849428Y-48942619D01*
X169801809Y-48990238D01*
X169706571Y-49037857D01*
X169516095Y-49037857D01*
X169420857Y-48990238D01*
X169373238Y-48942619D01*
X169325619Y-48847380D01*
X169325619Y-48656904D01*
X169373238Y-48561666D01*
X169420857Y-48514047D01*
X169516095Y-48466428D01*
X169706571Y-48466428D01*
X169801809Y-48514047D01*
X169849428Y-48561666D01*
X169897047Y-48656904D01*
X169325619Y-48037857D02*
X170325619Y-48037857D01*
X169611333Y-47704523D01*
X170325619Y-47371190D01*
X169325619Y-47371190D01*
X175405619Y-50514047D02*
X175405619Y-49895000D01*
X175024666Y-50228333D01*
X175024666Y-50085476D01*
X174977047Y-49990238D01*
X174929428Y-49942619D01*
X174834190Y-49895000D01*
X174596095Y-49895000D01*
X174500857Y-49942619D01*
X174453238Y-49990238D01*
X174405619Y-50085476D01*
X174405619Y-50371190D01*
X174453238Y-50466428D01*
X174500857Y-50514047D01*
X174500857Y-49466428D02*
X174453238Y-49418809D01*
X174405619Y-49466428D01*
X174453238Y-49514047D01*
X174500857Y-49466428D01*
X174405619Y-49466428D01*
X175405619Y-48561666D02*
X175405619Y-48752142D01*
X175358000Y-48847380D01*
X175310380Y-48895000D01*
X175167523Y-48990238D01*
X174977047Y-49037857D01*
X174596095Y-49037857D01*
X174500857Y-48990238D01*
X174453238Y-48942619D01*
X174405619Y-48847380D01*
X174405619Y-48656904D01*
X174453238Y-48561666D01*
X174500857Y-48514047D01*
X174596095Y-48466428D01*
X174834190Y-48466428D01*
X174929428Y-48514047D01*
X174977047Y-48561666D01*
X175024666Y-48656904D01*
X175024666Y-48847380D01*
X174977047Y-48942619D01*
X174929428Y-48990238D01*
X174834190Y-49037857D01*
X174405619Y-48037857D02*
X175405619Y-48037857D01*
X174691333Y-47704523D01*
X175405619Y-47371190D01*
X174405619Y-47371190D01*
X96400714Y-87653761D02*
X96257857Y-87701380D01*
X96019761Y-87701380D01*
X95924523Y-87653761D01*
X95876904Y-87606142D01*
X95829285Y-87510904D01*
X95829285Y-87415666D01*
X95876904Y-87320428D01*
X95924523Y-87272809D01*
X96019761Y-87225190D01*
X96210238Y-87177571D01*
X96305476Y-87129952D01*
X96353095Y-87082333D01*
X96400714Y-86987095D01*
X96400714Y-86891857D01*
X96353095Y-86796619D01*
X96305476Y-86749000D01*
X96210238Y-86701380D01*
X95972142Y-86701380D01*
X95829285Y-86749000D01*
X94924523Y-87701380D02*
X95400714Y-87701380D01*
X95400714Y-86701380D01*
X94400714Y-86701380D02*
X94210238Y-86701380D01*
X94115000Y-86749000D01*
X94019761Y-86844238D01*
X93972142Y-87034714D01*
X93972142Y-87368047D01*
X94019761Y-87558523D01*
X94115000Y-87653761D01*
X94210238Y-87701380D01*
X94400714Y-87701380D01*
X94495952Y-87653761D01*
X94591190Y-87558523D01*
X94638809Y-87368047D01*
X94638809Y-87034714D01*
X94591190Y-86844238D01*
X94495952Y-86749000D01*
X94400714Y-86701380D01*
X93638809Y-86701380D02*
X93400714Y-87701380D01*
X93210238Y-86987095D01*
X93019761Y-87701380D01*
X92781666Y-86701380D01*
X182498904Y-127770000D02*
X182594142Y-127722380D01*
X182737000Y-127722380D01*
X182879857Y-127770000D01*
X182975095Y-127865238D01*
X183022714Y-127960476D01*
X183070333Y-128150952D01*
X183070333Y-128293809D01*
X183022714Y-128484285D01*
X182975095Y-128579523D01*
X182879857Y-128674761D01*
X182737000Y-128722380D01*
X182641761Y-128722380D01*
X182498904Y-128674761D01*
X182451285Y-128627142D01*
X182451285Y-128293809D01*
X182641761Y-128293809D01*
X182022714Y-128722380D02*
X182022714Y-127722380D01*
X181451285Y-128722380D01*
X181451285Y-127722380D01*
X180975095Y-128722380D02*
X180975095Y-127722380D01*
X180737000Y-127722380D01*
X180594142Y-127770000D01*
X180498904Y-127865238D01*
X180451285Y-127960476D01*
X180403666Y-128150952D01*
X180403666Y-128293809D01*
X180451285Y-128484285D01*
X180498904Y-128579523D01*
X180594142Y-128674761D01*
X180737000Y-128722380D01*
X180975095Y-128722380D01*
D11*
X124760952Y-62404761D02*
X123427619Y-62404761D01*
X124284761Y-64404761D01*
X121808571Y-63071428D02*
X121808571Y-64404761D01*
X122284761Y-62309523D02*
X122760952Y-63738095D01*
X121522857Y-63738095D01*
X120856190Y-63833333D02*
X119903809Y-63833333D01*
X121046666Y-64404761D02*
X120380000Y-62404761D01*
X119713333Y-64404761D01*
X117903809Y-64214285D02*
X117999047Y-64309523D01*
X118284761Y-64404761D01*
X118475238Y-64404761D01*
X118760952Y-64309523D01*
X118951428Y-64119047D01*
X119046666Y-63928571D01*
X119141904Y-63547619D01*
X119141904Y-63261904D01*
X119046666Y-62880952D01*
X118951428Y-62690476D01*
X118760952Y-62500000D01*
X118475238Y-62404761D01*
X118284761Y-62404761D01*
X117999047Y-62500000D01*
X117903809Y-62595238D01*
X117237142Y-62404761D02*
X115903809Y-62404761D01*
X116760952Y-64404761D01*
X114284761Y-63071428D02*
X114284761Y-64404761D01*
X114760952Y-62309523D02*
X115237142Y-63738095D01*
X113999047Y-63738095D01*
D10*
X99210238Y-72413761D02*
X99067380Y-72461380D01*
X98829285Y-72461380D01*
X98734047Y-72413761D01*
X98686428Y-72366142D01*
X98638809Y-72270904D01*
X98638809Y-72175666D01*
X98686428Y-72080428D01*
X98734047Y-72032809D01*
X98829285Y-71985190D01*
X99019761Y-71937571D01*
X99115000Y-71889952D01*
X99162619Y-71842333D01*
X99210238Y-71747095D01*
X99210238Y-71651857D01*
X99162619Y-71556619D01*
X99115000Y-71509000D01*
X99019761Y-71461380D01*
X98781666Y-71461380D01*
X98638809Y-71509000D01*
X98210238Y-72461380D02*
X98210238Y-71461380D01*
X97734047Y-72461380D02*
X97734047Y-71461380D01*
X97162619Y-72461380D01*
X97162619Y-71461380D01*
X96162619Y-71509000D02*
X96257857Y-71461380D01*
X96400714Y-71461380D01*
X96543571Y-71509000D01*
X96638809Y-71604238D01*
X96686428Y-71699476D01*
X96734047Y-71889952D01*
X96734047Y-72032809D01*
X96686428Y-72223285D01*
X96638809Y-72318523D01*
X96543571Y-72413761D01*
X96400714Y-72461380D01*
X96305476Y-72461380D01*
X96162619Y-72413761D01*
X96115000Y-72366142D01*
X96115000Y-72032809D01*
X96305476Y-72032809D01*
X95210238Y-72461380D02*
X95686428Y-72461380D01*
X95686428Y-71461380D01*
X94876904Y-71937571D02*
X94543571Y-71937571D01*
X94400714Y-72461380D02*
X94876904Y-72461380D01*
X94876904Y-71461380D01*
X94400714Y-71461380D01*
X93257857Y-72413761D02*
X93115000Y-72461380D01*
X92876904Y-72461380D01*
X92781666Y-72413761D01*
X92734047Y-72366142D01*
X92686428Y-72270904D01*
X92686428Y-72175666D01*
X92734047Y-72080428D01*
X92781666Y-72032809D01*
X92876904Y-71985190D01*
X93067380Y-71937571D01*
X93162619Y-71889952D01*
X93210238Y-71842333D01*
X93257857Y-71747095D01*
X93257857Y-71651857D01*
X93210238Y-71556619D01*
X93162619Y-71509000D01*
X93067380Y-71461380D01*
X92829285Y-71461380D01*
X92686428Y-71509000D01*
X92400714Y-71461380D02*
X91829285Y-71461380D01*
X92115000Y-72461380D02*
X92115000Y-71461380D01*
X91495952Y-71937571D02*
X91162619Y-71937571D01*
X91019761Y-72461380D02*
X91495952Y-72461380D01*
X91495952Y-71461380D01*
X91019761Y-71461380D01*
X90591190Y-72461380D02*
X90591190Y-71461380D01*
X90210238Y-71461380D01*
X90115000Y-71509000D01*
X90067380Y-71556619D01*
X90019761Y-71651857D01*
X90019761Y-71794714D01*
X90067380Y-71889952D01*
X90115000Y-71937571D01*
X90210238Y-71985190D01*
X90591190Y-71985190D01*
X164245619Y-50537857D02*
X164245619Y-50347380D01*
X164293238Y-50252142D01*
X164340857Y-50204523D01*
X164483714Y-50109285D01*
X164674190Y-50061666D01*
X165055142Y-50061666D01*
X165150380Y-50109285D01*
X165198000Y-50156904D01*
X165245619Y-50252142D01*
X165245619Y-50442619D01*
X165198000Y-50537857D01*
X165150380Y-50585476D01*
X165055142Y-50633095D01*
X164817047Y-50633095D01*
X164721809Y-50585476D01*
X164674190Y-50537857D01*
X164626571Y-50442619D01*
X164626571Y-50252142D01*
X164674190Y-50156904D01*
X164721809Y-50109285D01*
X164817047Y-50061666D01*
X165150380Y-49680714D02*
X165198000Y-49633095D01*
X165245619Y-49537857D01*
X165245619Y-49299761D01*
X165198000Y-49204523D01*
X165150380Y-49156904D01*
X165055142Y-49109285D01*
X164959904Y-49109285D01*
X164817047Y-49156904D01*
X164245619Y-49728333D01*
X164245619Y-49109285D01*
X164245619Y-48156904D02*
X164245619Y-48728333D01*
X164245619Y-48442619D02*
X165245619Y-48442619D01*
X165102761Y-48537857D01*
X165007523Y-48633095D01*
X164959904Y-48728333D01*
X164245619Y-47728333D02*
X165245619Y-47728333D01*
X164245619Y-47156904D02*
X164817047Y-47585476D01*
X165245619Y-47156904D02*
X164674190Y-47728333D01*
%LPC*%
D12*
X186690000Y-76962000D03*
D13*
X176530000Y-76962000D03*
D14*
X111755000Y-67300000D03*
D13*
X114295000Y-67300000D03*
X116835000Y-67300000D03*
X119375000Y-67300000D03*
X121915000Y-67300000D03*
X124455000Y-67300000D03*
X126995000Y-67300000D03*
X126995000Y-59680000D03*
X124455000Y-59680000D03*
X121915000Y-59680000D03*
X119375000Y-59680000D03*
X116835000Y-59680000D03*
X114295000Y-59680000D03*
X111755000Y-59680000D03*
D15*
X96266000Y-125069600D03*
D16*
X96266000Y-127609600D03*
D14*
X154930000Y-67300000D03*
D13*
X157470000Y-67300000D03*
X160010000Y-67300000D03*
X162550000Y-67300000D03*
X165090000Y-67300000D03*
X167630000Y-67300000D03*
X170170000Y-67300000D03*
X172710000Y-67300000D03*
X172710000Y-59680000D03*
X170170000Y-59680000D03*
X167630000Y-59680000D03*
X165090000Y-59680000D03*
X162550000Y-59680000D03*
X160010000Y-59680000D03*
X157470000Y-59680000D03*
X154930000Y-59680000D03*
D12*
X151892000Y-113050000D03*
X151892000Y-115550000D03*
X176530000Y-98298000D03*
D13*
X186690000Y-98298000D03*
D12*
X130185000Y-113060000D03*
X130185000Y-115560000D03*
X182860000Y-108712000D03*
X180360000Y-108712000D03*
X186690000Y-59182000D03*
D13*
X176530000Y-59182000D03*
D12*
X176530000Y-101854000D03*
D13*
X186690000Y-101854000D03*
D17*
X160583000Y-51411700D03*
X153573000Y-51411700D03*
D18*
X154823000Y-48921700D03*
X159323000Y-48921700D03*
D19*
X176128000Y-52990000D03*
D16*
X173588000Y-52990000D03*
D12*
X132100000Y-74910000D03*
X134600000Y-74910000D03*
D14*
X111760000Y-92680000D03*
D13*
X114300000Y-92680000D03*
X116840000Y-92680000D03*
X119380000Y-92680000D03*
X121920000Y-92680000D03*
X124460000Y-92680000D03*
X127000000Y-92680000D03*
X127000000Y-85060000D03*
X124460000Y-85060000D03*
X121920000Y-85060000D03*
X119380000Y-85060000D03*
X116840000Y-85060000D03*
X114300000Y-85060000D03*
X111760000Y-85060000D03*
D20*
X101068600Y-102718600D03*
X101068600Y-98018600D03*
X101068600Y-93318600D03*
D17*
X116987000Y-51411700D03*
X123997000Y-51411700D03*
D18*
X118237000Y-48921700D03*
X122737000Y-48921700D03*
D14*
X111760000Y-105380000D03*
D13*
X114300000Y-105380000D03*
X116840000Y-105380000D03*
X119380000Y-105380000D03*
X121920000Y-105380000D03*
X124460000Y-105380000D03*
X127000000Y-105380000D03*
X127000000Y-97760000D03*
X124460000Y-97760000D03*
X121920000Y-97760000D03*
X119380000Y-97760000D03*
X116840000Y-97760000D03*
X114300000Y-97760000D03*
X111760000Y-97760000D03*
D12*
X186690000Y-87630000D03*
D13*
X176530000Y-87630000D03*
D12*
X108585000Y-87630000D03*
X108585000Y-90130000D03*
D21*
X177490000Y-142200000D03*
X174950000Y-142200000D03*
X172410000Y-142200000D03*
X169870000Y-142200000D03*
X167330000Y-142200000D03*
X164790000Y-142200000D03*
X162250000Y-142200000D03*
X159710000Y-142200000D03*
X157170000Y-142200000D03*
X154630000Y-142200000D03*
X152090000Y-142200000D03*
X149550000Y-142200000D03*
X147010000Y-142200000D03*
X144470000Y-142200000D03*
X141930000Y-142200000D03*
X139390000Y-142200000D03*
X136850000Y-142200000D03*
X134310000Y-142200000D03*
X131770000Y-142200000D03*
X129230000Y-142200000D03*
X126690000Y-142200000D03*
X124150000Y-142200000D03*
X121610000Y-142200000D03*
X119070000Y-142200000D03*
X116530000Y-142200000D03*
X113990000Y-142200000D03*
X111450000Y-142200000D03*
X108910000Y-142200000D03*
X106370000Y-142200000D03*
X103830000Y-142200000D03*
X101290000Y-142200000D03*
D12*
X132100000Y-72370000D03*
X134600000Y-72370000D03*
D22*
X105410000Y-59690000D03*
D13*
X105410000Y-62230000D03*
X105410000Y-64770000D03*
X105410000Y-67310000D03*
X105410000Y-69850000D03*
D12*
X151765000Y-87610000D03*
X151765000Y-90110000D03*
D20*
X101068600Y-72238600D03*
X101068600Y-67538600D03*
X101068600Y-62838600D03*
D14*
X154940000Y-130800000D03*
D13*
X157480000Y-130800000D03*
X160020000Y-130800000D03*
X162560000Y-130800000D03*
X165100000Y-130800000D03*
X167640000Y-130800000D03*
X170180000Y-130800000D03*
X172720000Y-130800000D03*
X172720000Y-123180000D03*
X170180000Y-123180000D03*
X167640000Y-123180000D03*
X165100000Y-123180000D03*
X162560000Y-123180000D03*
X160020000Y-123180000D03*
X157480000Y-123180000D03*
X154940000Y-123180000D03*
D19*
X129393000Y-52991300D03*
D16*
X126853000Y-52991300D03*
D14*
X154930000Y-105400000D03*
D13*
X157470000Y-105400000D03*
X160010000Y-105400000D03*
X162550000Y-105400000D03*
X165090000Y-105400000D03*
X167630000Y-105400000D03*
X170170000Y-105400000D03*
X172710000Y-105400000D03*
X172710000Y-97780000D03*
X170170000Y-97780000D03*
X167630000Y-97780000D03*
X165090000Y-97780000D03*
X162550000Y-97780000D03*
X160010000Y-97780000D03*
X157470000Y-97780000D03*
X154930000Y-97780000D03*
D12*
X186690000Y-94742000D03*
D13*
X176530000Y-94742000D03*
D23*
X145115600Y-53668200D03*
X142575600Y-51128200D03*
X145115600Y-48588200D03*
D12*
X151765000Y-62250000D03*
X151765000Y-64750000D03*
X137795000Y-87630000D03*
X137795000Y-90130000D03*
X108585000Y-74930000D03*
X108585000Y-77430000D03*
X186690000Y-91186000D03*
D13*
X176530000Y-91186000D03*
D14*
X133345000Y-105390000D03*
D13*
X135885000Y-105390000D03*
X138425000Y-105390000D03*
X140965000Y-105390000D03*
X143505000Y-105390000D03*
X146045000Y-105390000D03*
X148585000Y-105390000D03*
X148585000Y-97770000D03*
X146045000Y-97770000D03*
X143505000Y-97770000D03*
X140965000Y-97770000D03*
X138425000Y-97770000D03*
X135885000Y-97770000D03*
X133345000Y-97770000D03*
D19*
X114142000Y-52991300D03*
D16*
X111602000Y-52991300D03*
D14*
X154930000Y-80000000D03*
D13*
X157470000Y-80000000D03*
X160010000Y-80000000D03*
X162550000Y-80000000D03*
X165090000Y-80000000D03*
X167630000Y-80000000D03*
X170170000Y-80000000D03*
X172710000Y-80000000D03*
X172710000Y-72380000D03*
X170170000Y-72380000D03*
X167630000Y-72380000D03*
X165090000Y-72380000D03*
X162550000Y-72380000D03*
X160010000Y-72380000D03*
X157470000Y-72380000D03*
X154930000Y-72380000D03*
D24*
X179114600Y-113019600D03*
D25*
X179114600Y-115559600D03*
X179114600Y-118099600D03*
X179114600Y-120639600D03*
X179114600Y-123179600D03*
X179114600Y-125719600D03*
X179114600Y-128259600D03*
X179114600Y-130799600D03*
D12*
X132100000Y-83820000D03*
X134600000Y-83820000D03*
D17*
X139248000Y-51410400D03*
X132238000Y-51410400D03*
D18*
X133488000Y-48920400D03*
X137988000Y-48920400D03*
D14*
X133355000Y-130800000D03*
D13*
X135895000Y-130800000D03*
X138435000Y-130800000D03*
X140975000Y-130800000D03*
X143515000Y-130800000D03*
X146055000Y-130800000D03*
X148595000Y-130800000D03*
X148595000Y-123180000D03*
X146055000Y-123180000D03*
X143515000Y-123180000D03*
X140975000Y-123180000D03*
X138435000Y-123180000D03*
X135895000Y-123180000D03*
X133355000Y-123180000D03*
D22*
X105410000Y-80010000D03*
D13*
X105410000Y-82550000D03*
X105410000Y-85090000D03*
X105410000Y-87630000D03*
X105410000Y-90170000D03*
X105410000Y-92710000D03*
X105410000Y-95250000D03*
X105410000Y-97790000D03*
X105410000Y-100330000D03*
X105410000Y-102870000D03*
X105410000Y-105410000D03*
D12*
X186690000Y-105410000D03*
D13*
X176530000Y-105410000D03*
D12*
X108585000Y-62250000D03*
X108585000Y-64750000D03*
X106055000Y-125730000D03*
X106055000Y-128230000D03*
X130175000Y-62250000D03*
X130175000Y-64750000D03*
X134600000Y-81280000D03*
X132100000Y-81280000D03*
X132100000Y-77450000D03*
X134600000Y-77450000D03*
D14*
X111755000Y-118100000D03*
D13*
X114295000Y-118100000D03*
X116835000Y-118100000D03*
X119375000Y-118100000D03*
X121915000Y-118100000D03*
X124455000Y-118100000D03*
X126995000Y-118100000D03*
X126995000Y-110480000D03*
X124455000Y-110480000D03*
X121915000Y-110480000D03*
X119375000Y-110480000D03*
X116835000Y-110480000D03*
X114295000Y-110480000D03*
X111755000Y-110480000D03*
D20*
X101068600Y-87478600D03*
X101068600Y-82778600D03*
X101068600Y-78078600D03*
D12*
X137795000Y-74930000D03*
X137795000Y-77430000D03*
X130175000Y-100330000D03*
X130175000Y-102830000D03*
D20*
X101068600Y-117958600D03*
X101068600Y-113258600D03*
X101068600Y-108558600D03*
D14*
X154930000Y-92680000D03*
D13*
X157470000Y-92680000D03*
X160010000Y-92680000D03*
X162550000Y-92680000D03*
X165090000Y-92680000D03*
X167630000Y-92680000D03*
X170170000Y-92680000D03*
X172710000Y-92680000D03*
X172710000Y-85060000D03*
X170170000Y-85060000D03*
X167630000Y-85060000D03*
X165090000Y-85060000D03*
X162550000Y-85060000D03*
X160010000Y-85060000D03*
X157470000Y-85060000D03*
X154930000Y-85060000D03*
D17*
X108742600Y-51411700D03*
X101732600Y-51411700D03*
D18*
X102982600Y-48921700D03*
X107482600Y-48921700D03*
D12*
X130185000Y-125750000D03*
X130185000Y-128250000D03*
D26*
X133350000Y-92505000D03*
D27*
X133350000Y-89965000D03*
X133350000Y-87425000D03*
D14*
X140980000Y-92680000D03*
D13*
X148600000Y-92680000D03*
X148600000Y-85060000D03*
X140980000Y-85060000D03*
D12*
X186690000Y-66294000D03*
D13*
X176530000Y-66294000D03*
D14*
X109225000Y-130800000D03*
D13*
X111765000Y-130800000D03*
X114305000Y-130800000D03*
X116845000Y-130800000D03*
X119385000Y-130800000D03*
X121925000Y-130800000D03*
X124465000Y-130800000D03*
X127005000Y-130800000D03*
X127005000Y-123180000D03*
X124465000Y-123180000D03*
X121925000Y-123180000D03*
X119385000Y-123180000D03*
X116845000Y-123180000D03*
X114305000Y-123180000D03*
X111765000Y-123180000D03*
X109225000Y-123180000D03*
D19*
X165968000Y-52990000D03*
D16*
X163428000Y-52990000D03*
D19*
X171048000Y-52990000D03*
D16*
X168508000Y-52990000D03*
D14*
X133345000Y-67300000D03*
D13*
X135885000Y-67300000D03*
X138425000Y-67300000D03*
X140965000Y-67300000D03*
X143505000Y-67300000D03*
X146045000Y-67300000D03*
X148585000Y-67300000D03*
X148585000Y-59680000D03*
X146045000Y-59680000D03*
X143505000Y-59680000D03*
X140965000Y-59680000D03*
X138425000Y-59680000D03*
X135885000Y-59680000D03*
X133345000Y-59680000D03*
D12*
X186690000Y-69850000D03*
D13*
X176530000Y-69850000D03*
D19*
X181208000Y-52990000D03*
D16*
X178668000Y-52990000D03*
D14*
X111760000Y-79980000D03*
D13*
X114300000Y-79980000D03*
X116840000Y-79980000D03*
X119380000Y-79980000D03*
X121920000Y-79980000D03*
X124460000Y-79980000D03*
X127000000Y-79980000D03*
X127000000Y-72360000D03*
X124460000Y-72360000D03*
X121920000Y-72360000D03*
X119380000Y-72360000D03*
X116840000Y-72360000D03*
X114300000Y-72360000D03*
X111760000Y-72360000D03*
D14*
X140985000Y-79980000D03*
D13*
X143525000Y-79980000D03*
X146065000Y-79980000D03*
X148605000Y-79980000D03*
X148605000Y-72360000D03*
X146065000Y-72360000D03*
X143525000Y-72360000D03*
X140985000Y-72360000D03*
D12*
X151775000Y-125750000D03*
X151775000Y-128250000D03*
X186690000Y-62738000D03*
D13*
X176530000Y-62738000D03*
D14*
X133355000Y-118110000D03*
D13*
X135895000Y-118110000D03*
X138435000Y-118110000D03*
X140975000Y-118110000D03*
X143515000Y-118110000D03*
X146055000Y-118110000D03*
X148595000Y-118110000D03*
X148595000Y-110490000D03*
X146055000Y-110490000D03*
X143515000Y-110490000D03*
X140975000Y-110490000D03*
X138435000Y-110490000D03*
X135895000Y-110490000D03*
X133355000Y-110490000D03*
D12*
X151765000Y-100330000D03*
X151765000Y-102830000D03*
X186690000Y-84074000D03*
D13*
X176530000Y-84074000D03*
D12*
X151765000Y-74930000D03*
X151765000Y-77430000D03*
D14*
X154930000Y-118100000D03*
D13*
X157470000Y-118100000D03*
X160010000Y-118100000D03*
X162550000Y-118100000D03*
X165090000Y-118100000D03*
X167630000Y-118100000D03*
X170170000Y-118100000D03*
X172710000Y-118100000D03*
X172710000Y-110480000D03*
X170170000Y-110480000D03*
X167630000Y-110480000D03*
X165090000Y-110480000D03*
X162550000Y-110480000D03*
X160010000Y-110480000D03*
X157470000Y-110480000D03*
X154930000Y-110480000D03*
D12*
X108585000Y-113050000D03*
X108585000Y-115550000D03*
X108585000Y-100330000D03*
X108585000Y-102830000D03*
D19*
X98913000Y-52990000D03*
D16*
X96373000Y-52990000D03*
D12*
X186690000Y-73406000D03*
D13*
X176530000Y-73406000D03*
D19*
X150728000Y-52990000D03*
D16*
X148188000Y-52990000D03*
D12*
X186690000Y-80518000D03*
D13*
X176530000Y-80518000D03*
M02*
