G04 #@! TF.GenerationSoftware,KiCad,Pcbnew,(6.0.7)*
G04 #@! TF.CreationDate,2022-11-29T20:10:23-05:00*
G04 #@! TF.ProjectId,Part 3 - Clock v3,50617274-2033-4202-9d20-436c6f636b20,1.1*
G04 #@! TF.SameCoordinates,Original*
G04 #@! TF.FileFunction,Legend,Top*
G04 #@! TF.FilePolarity,Positive*
%FSLAX46Y46*%
G04 Gerber Fmt 4.6, Leading zero omitted, Abs format (unit mm)*
G04 Created by KiCad (PCBNEW (6.0.7)) date 2022-11-29 20:10:23*
%MOMM*%
%LPD*%
G01*
G04 APERTURE LIST*
%ADD10C,0.150000*%
%ADD11C,0.120000*%
%ADD12C,1.600000*%
%ADD13O,1.600000X1.600000*%
%ADD14R,1.600000X1.600000*%
%ADD15R,1.800000X1.800000*%
%ADD16C,1.800000*%
%ADD17C,2.100000*%
%ADD18C,1.750000*%
%ADD19C,2.600000*%
%ADD20R,1.780000X7.620000*%
%ADD21C,1.440000*%
%ADD22R,1.700000X1.700000*%
%ADD23O,1.700000X1.700000*%
%ADD24R,1.500000X1.500000*%
%ADD25C,1.500000*%
G04 APERTURE END LIST*
D10*
X152125000Y-55626000D02*
X162031000Y-55626000D01*
X162031000Y-55626000D02*
X162031000Y-46200000D01*
X182605000Y-55626000D02*
X182605000Y-46200000D01*
X115570000Y-55626000D02*
X130810000Y-55626000D01*
X94996000Y-55626000D02*
X94996000Y-46200000D01*
X146405600Y-55626000D02*
X152125000Y-55626000D01*
X162031000Y-55626000D02*
X182605000Y-55626000D01*
X110236000Y-46200000D02*
X110236000Y-55626000D01*
X110236000Y-55626000D02*
X115570000Y-55626000D01*
X130810000Y-55626000D02*
X130810000Y-46200000D01*
X140716000Y-55626000D02*
X140716000Y-46200000D01*
X152125000Y-55626000D02*
X152125000Y-46200000D01*
X130810000Y-55626000D02*
X140716000Y-55626000D01*
X110236000Y-55626000D02*
X94996000Y-55626000D01*
X115570000Y-55626000D02*
X115570000Y-46200000D01*
X175381842Y-117280000D02*
X176524700Y-117280000D01*
X175619938Y-118562380D02*
X175619938Y-117562380D01*
X175953271Y-118276666D01*
X176286604Y-117562380D01*
X176286604Y-118562380D01*
X176524700Y-117280000D02*
X177524700Y-117280000D01*
X177334223Y-118562380D02*
X177000890Y-118086190D01*
X176762795Y-118562380D02*
X176762795Y-117562380D01*
X177143747Y-117562380D01*
X177238985Y-117610000D01*
X177286604Y-117657619D01*
X177334223Y-117752857D01*
X177334223Y-117895714D01*
X177286604Y-117990952D01*
X177238985Y-118038571D01*
X177143747Y-118086190D01*
X176762795Y-118086190D01*
X174715176Y-124900000D02*
X175715176Y-124900000D01*
X175524700Y-126087142D02*
X175477080Y-126134761D01*
X175334223Y-126182380D01*
X175238985Y-126182380D01*
X175096128Y-126134761D01*
X175000890Y-126039523D01*
X174953271Y-125944285D01*
X174905652Y-125753809D01*
X174905652Y-125610952D01*
X174953271Y-125420476D01*
X175000890Y-125325238D01*
X175096128Y-125230000D01*
X175238985Y-125182380D01*
X175334223Y-125182380D01*
X175477080Y-125230000D01*
X175524700Y-125277619D01*
X175715176Y-124900000D02*
X176524700Y-124900000D01*
X176429461Y-126182380D02*
X175953271Y-126182380D01*
X175953271Y-125182380D01*
X176524700Y-124900000D02*
X177524700Y-124900000D01*
X176762795Y-126182380D02*
X176762795Y-125182380D01*
X177334223Y-126182380D02*
X176905652Y-125610952D01*
X177334223Y-125182380D02*
X176762795Y-125753809D01*
X174765976Y-113101428D02*
X175527880Y-113101428D01*
X175146928Y-113482380D02*
X175146928Y-112720476D01*
X176480261Y-112482380D02*
X176004071Y-112482380D01*
X175956452Y-112958571D01*
X176004071Y-112910952D01*
X176099309Y-112863333D01*
X176337404Y-112863333D01*
X176432642Y-112910952D01*
X176480261Y-112958571D01*
X176527880Y-113053809D01*
X176527880Y-113291904D01*
X176480261Y-113387142D01*
X176432642Y-113434761D01*
X176337404Y-113482380D01*
X176099309Y-113482380D01*
X176004071Y-113434761D01*
X175956452Y-113387142D01*
X176813595Y-112482380D02*
X177146928Y-113482380D01*
X177480261Y-112482380D01*
X174810414Y-119820000D02*
X175810414Y-119820000D01*
X175619938Y-121102380D02*
X175286604Y-120626190D01*
X175048509Y-121102380D02*
X175048509Y-120102380D01*
X175429461Y-120102380D01*
X175524700Y-120150000D01*
X175572319Y-120197619D01*
X175619938Y-120292857D01*
X175619938Y-120435714D01*
X175572319Y-120530952D01*
X175524700Y-120578571D01*
X175429461Y-120626190D01*
X175048509Y-120626190D01*
X175810414Y-119820000D02*
X176762795Y-119820000D01*
X176000890Y-121054761D02*
X176143747Y-121102380D01*
X176381842Y-121102380D01*
X176477080Y-121054761D01*
X176524700Y-121007142D01*
X176572319Y-120911904D01*
X176572319Y-120816666D01*
X176524700Y-120721428D01*
X176477080Y-120673809D01*
X176381842Y-120626190D01*
X176191366Y-120578571D01*
X176096128Y-120530952D01*
X176048509Y-120483333D01*
X176000890Y-120388095D01*
X176000890Y-120292857D01*
X176048509Y-120197619D01*
X176096128Y-120150000D01*
X176191366Y-120102380D01*
X176429461Y-120102380D01*
X176572319Y-120150000D01*
X176762795Y-119820000D02*
X177524700Y-119820000D01*
X176858033Y-120102380D02*
X177429461Y-120102380D01*
X177143747Y-121102380D02*
X177143747Y-120102380D01*
X175416785Y-127770000D02*
X175321547Y-127722380D01*
X175178690Y-127722380D01*
X175035833Y-127770000D01*
X174940595Y-127865238D01*
X174892976Y-127960476D01*
X174845357Y-128150952D01*
X174845357Y-128293809D01*
X174892976Y-128484285D01*
X174940595Y-128579523D01*
X175035833Y-128674761D01*
X175178690Y-128722380D01*
X175273928Y-128722380D01*
X175416785Y-128674761D01*
X175464404Y-128627142D01*
X175464404Y-128293809D01*
X175273928Y-128293809D01*
X175892976Y-128722380D02*
X175892976Y-127722380D01*
X176464404Y-128722380D01*
X176464404Y-127722380D01*
X176940595Y-128722380D02*
X176940595Y-127722380D01*
X177178690Y-127722380D01*
X177321547Y-127770000D01*
X177416785Y-127865238D01*
X177464404Y-127960476D01*
X177512023Y-128150952D01*
X177512023Y-128293809D01*
X177464404Y-128484285D01*
X177416785Y-128579523D01*
X177321547Y-128674761D01*
X177178690Y-128722380D01*
X176940595Y-128722380D01*
X175416785Y-130310000D02*
X175321547Y-130262380D01*
X175178690Y-130262380D01*
X175035833Y-130310000D01*
X174940595Y-130405238D01*
X174892976Y-130500476D01*
X174845357Y-130690952D01*
X174845357Y-130833809D01*
X174892976Y-131024285D01*
X174940595Y-131119523D01*
X175035833Y-131214761D01*
X175178690Y-131262380D01*
X175273928Y-131262380D01*
X175416785Y-131214761D01*
X175464404Y-131167142D01*
X175464404Y-130833809D01*
X175273928Y-130833809D01*
X175892976Y-131262380D02*
X175892976Y-130262380D01*
X176464404Y-131262380D01*
X176464404Y-130262380D01*
X176940595Y-131262380D02*
X176940595Y-130262380D01*
X177178690Y-130262380D01*
X177321547Y-130310000D01*
X177416785Y-130405238D01*
X177464404Y-130500476D01*
X177512023Y-130690952D01*
X177512023Y-130833809D01*
X177464404Y-131024285D01*
X177416785Y-131119523D01*
X177321547Y-131214761D01*
X177178690Y-131262380D01*
X176940595Y-131262380D01*
X175477080Y-114750000D02*
X176477080Y-114750000D01*
X175715176Y-116032380D02*
X175715176Y-115032380D01*
X176096128Y-115032380D01*
X176191366Y-115080000D01*
X176238985Y-115127619D01*
X176286604Y-115222857D01*
X176286604Y-115365714D01*
X176238985Y-115460952D01*
X176191366Y-115508571D01*
X176096128Y-115556190D01*
X175715176Y-115556190D01*
X176477080Y-114750000D02*
X177524700Y-114750000D01*
X176715176Y-115032380D02*
X176715176Y-115841904D01*
X176762795Y-115937142D01*
X176810414Y-115984761D01*
X176905652Y-116032380D01*
X177096128Y-116032380D01*
X177191366Y-115984761D01*
X177238985Y-115937142D01*
X177286604Y-115841904D01*
X177286604Y-115032380D01*
X100660285Y-135596380D02*
X101326952Y-135596380D01*
X100660285Y-136596380D01*
X101326952Y-136596380D01*
X102088857Y-136548761D02*
X101993619Y-136596380D01*
X101803142Y-136596380D01*
X101707904Y-136548761D01*
X101660285Y-136453523D01*
X101660285Y-136072571D01*
X101707904Y-135977333D01*
X101803142Y-135929714D01*
X101993619Y-135929714D01*
X102088857Y-135977333D01*
X102136476Y-136072571D01*
X102136476Y-136167809D01*
X101660285Y-136263047D01*
X102993619Y-136596380D02*
X102993619Y-135596380D01*
X102993619Y-136548761D02*
X102898380Y-136596380D01*
X102707904Y-136596380D01*
X102612666Y-136548761D01*
X102565047Y-136501142D01*
X102517428Y-136405904D01*
X102517428Y-136120190D01*
X102565047Y-136024952D01*
X102612666Y-135977333D01*
X102707904Y-135929714D01*
X102898380Y-135929714D01*
X102993619Y-135977333D01*
X103469809Y-136072571D02*
X103803142Y-136072571D01*
X103946000Y-136596380D02*
X103469809Y-136596380D01*
X103469809Y-135596380D01*
X103946000Y-135596380D01*
X104374571Y-136596380D02*
X104374571Y-135929714D01*
X104374571Y-135596380D02*
X104326952Y-135644000D01*
X104374571Y-135691619D01*
X104422190Y-135644000D01*
X104374571Y-135596380D01*
X104374571Y-135691619D01*
X105279333Y-135929714D02*
X105279333Y-136739238D01*
X105231714Y-136834476D01*
X105184095Y-136882095D01*
X105088857Y-136929714D01*
X104946000Y-136929714D01*
X104850761Y-136882095D01*
X105279333Y-136548761D02*
X105184095Y-136596380D01*
X104993619Y-136596380D01*
X104898380Y-136548761D01*
X104850761Y-136501142D01*
X104803142Y-136405904D01*
X104803142Y-136120190D01*
X104850761Y-136024952D01*
X104898380Y-135977333D01*
X104993619Y-135929714D01*
X105184095Y-135929714D01*
X105279333Y-135977333D01*
X105755523Y-136596380D02*
X105755523Y-135596380D01*
X106184095Y-136596380D02*
X106184095Y-136072571D01*
X106136476Y-135977333D01*
X106041238Y-135929714D01*
X105898380Y-135929714D01*
X105803142Y-135977333D01*
X105755523Y-136024952D01*
X106517428Y-135929714D02*
X106898380Y-135929714D01*
X106660285Y-135596380D02*
X106660285Y-136453523D01*
X106707904Y-136548761D01*
X106803142Y-136596380D01*
X106898380Y-136596380D01*
X107136476Y-135929714D02*
X107374571Y-136596380D01*
X107612666Y-135929714D02*
X107374571Y-136596380D01*
X107279333Y-136834476D01*
X107231714Y-136882095D01*
X107136476Y-136929714D01*
X108755523Y-136596380D02*
X108755523Y-135596380D01*
X109136476Y-135596380D01*
X109231714Y-135644000D01*
X109279333Y-135691619D01*
X109326952Y-135786857D01*
X109326952Y-135929714D01*
X109279333Y-136024952D01*
X109231714Y-136072571D01*
X109136476Y-136120190D01*
X108755523Y-136120190D01*
X109755523Y-136596380D02*
X109755523Y-135929714D01*
X109755523Y-136120190D02*
X109803142Y-136024952D01*
X109850761Y-135977333D01*
X109946000Y-135929714D01*
X110041238Y-135929714D01*
X110517428Y-136596380D02*
X110422190Y-136548761D01*
X110374571Y-136501142D01*
X110326952Y-136405904D01*
X110326952Y-136120190D01*
X110374571Y-136024952D01*
X110422190Y-135977333D01*
X110517428Y-135929714D01*
X110660285Y-135929714D01*
X110755523Y-135977333D01*
X110803142Y-136024952D01*
X110850761Y-136120190D01*
X110850761Y-136405904D01*
X110803142Y-136501142D01*
X110755523Y-136548761D01*
X110660285Y-136596380D01*
X110517428Y-136596380D01*
X111279333Y-135929714D02*
X111279333Y-136786857D01*
X111231714Y-136882095D01*
X111136476Y-136929714D01*
X111088857Y-136929714D01*
X111279333Y-135596380D02*
X111231714Y-135644000D01*
X111279333Y-135691619D01*
X111326952Y-135644000D01*
X111279333Y-135596380D01*
X111279333Y-135691619D01*
X112136476Y-136548761D02*
X112041238Y-136596380D01*
X111850761Y-136596380D01*
X111755523Y-136548761D01*
X111707904Y-136453523D01*
X111707904Y-136072571D01*
X111755523Y-135977333D01*
X111850761Y-135929714D01*
X112041238Y-135929714D01*
X112136476Y-135977333D01*
X112184095Y-136072571D01*
X112184095Y-136167809D01*
X111707904Y-136263047D01*
X113041238Y-136548761D02*
X112946000Y-136596380D01*
X112755523Y-136596380D01*
X112660285Y-136548761D01*
X112612666Y-136501142D01*
X112565047Y-136405904D01*
X112565047Y-136120190D01*
X112612666Y-136024952D01*
X112660285Y-135977333D01*
X112755523Y-135929714D01*
X112946000Y-135929714D01*
X113041238Y-135977333D01*
X113326952Y-135929714D02*
X113707904Y-135929714D01*
X113469809Y-135596380D02*
X113469809Y-136453523D01*
X113517428Y-136548761D01*
X113612666Y-136596380D01*
X113707904Y-136596380D01*
X114803142Y-136215428D02*
X115565047Y-136215428D01*
X117374571Y-136596380D02*
X117041238Y-136120190D01*
X116803142Y-136596380D02*
X116803142Y-135596380D01*
X117184095Y-135596380D01*
X117279333Y-135644000D01*
X117326952Y-135691619D01*
X117374571Y-135786857D01*
X117374571Y-135929714D01*
X117326952Y-136024952D01*
X117279333Y-136072571D01*
X117184095Y-136120190D01*
X116803142Y-136120190D01*
X118184095Y-136548761D02*
X118088857Y-136596380D01*
X117898380Y-136596380D01*
X117803142Y-136548761D01*
X117755523Y-136453523D01*
X117755523Y-136072571D01*
X117803142Y-135977333D01*
X117898380Y-135929714D01*
X118088857Y-135929714D01*
X118184095Y-135977333D01*
X118231714Y-136072571D01*
X118231714Y-136167809D01*
X117755523Y-136263047D01*
X118612666Y-136548761D02*
X118707904Y-136596380D01*
X118898380Y-136596380D01*
X118993619Y-136548761D01*
X119041238Y-136453523D01*
X119041238Y-136405904D01*
X118993619Y-136310666D01*
X118898380Y-136263047D01*
X118755523Y-136263047D01*
X118660285Y-136215428D01*
X118612666Y-136120190D01*
X118612666Y-136072571D01*
X118660285Y-135977333D01*
X118755523Y-135929714D01*
X118898380Y-135929714D01*
X118993619Y-135977333D01*
X119850761Y-136548761D02*
X119755523Y-136596380D01*
X119565047Y-136596380D01*
X119469809Y-136548761D01*
X119422190Y-136453523D01*
X119422190Y-136072571D01*
X119469809Y-135977333D01*
X119565047Y-135929714D01*
X119755523Y-135929714D01*
X119850761Y-135977333D01*
X119898380Y-136072571D01*
X119898380Y-136167809D01*
X119422190Y-136263047D01*
X120184095Y-135929714D02*
X120565047Y-135929714D01*
X120326952Y-135596380D02*
X120326952Y-136453523D01*
X120374571Y-136548761D01*
X120469809Y-136596380D01*
X120565047Y-136596380D01*
X122088857Y-136596380D02*
X122088857Y-136072571D01*
X122041238Y-135977333D01*
X121946000Y-135929714D01*
X121755523Y-135929714D01*
X121660285Y-135977333D01*
X122088857Y-136548761D02*
X121993619Y-136596380D01*
X121755523Y-136596380D01*
X121660285Y-136548761D01*
X121612666Y-136453523D01*
X121612666Y-136358285D01*
X121660285Y-136263047D01*
X121755523Y-136215428D01*
X121993619Y-136215428D01*
X122088857Y-136167809D01*
X122565047Y-135929714D02*
X122565047Y-136596380D01*
X122565047Y-136024952D02*
X122612666Y-135977333D01*
X122707904Y-135929714D01*
X122850761Y-135929714D01*
X122946000Y-135977333D01*
X122993619Y-136072571D01*
X122993619Y-136596380D01*
X123898380Y-136596380D02*
X123898380Y-135596380D01*
X123898380Y-136548761D02*
X123803142Y-136596380D01*
X123612666Y-136596380D01*
X123517428Y-136548761D01*
X123469809Y-136501142D01*
X123422190Y-136405904D01*
X123422190Y-136120190D01*
X123469809Y-136024952D01*
X123517428Y-135977333D01*
X123612666Y-135929714D01*
X123803142Y-135929714D01*
X123898380Y-135977333D01*
X125707904Y-136501142D02*
X125660285Y-136548761D01*
X125517428Y-136596380D01*
X125422190Y-136596380D01*
X125279333Y-136548761D01*
X125184095Y-136453523D01*
X125136476Y-136358285D01*
X125088857Y-136167809D01*
X125088857Y-136024952D01*
X125136476Y-135834476D01*
X125184095Y-135739238D01*
X125279333Y-135644000D01*
X125422190Y-135596380D01*
X125517428Y-135596380D01*
X125660285Y-135644000D01*
X125707904Y-135691619D01*
X126279333Y-136596380D02*
X126184095Y-136548761D01*
X126136476Y-136453523D01*
X126136476Y-135596380D01*
X126803142Y-136596380D02*
X126707904Y-136548761D01*
X126660285Y-136501142D01*
X126612666Y-136405904D01*
X126612666Y-136120190D01*
X126660285Y-136024952D01*
X126707904Y-135977333D01*
X126803142Y-135929714D01*
X126946000Y-135929714D01*
X127041238Y-135977333D01*
X127088857Y-136024952D01*
X127136476Y-136120190D01*
X127136476Y-136405904D01*
X127088857Y-136501142D01*
X127041238Y-136548761D01*
X126946000Y-136596380D01*
X126803142Y-136596380D01*
X127993619Y-136548761D02*
X127898380Y-136596380D01*
X127707904Y-136596380D01*
X127612666Y-136548761D01*
X127565047Y-136501142D01*
X127517428Y-136405904D01*
X127517428Y-136120190D01*
X127565047Y-136024952D01*
X127612666Y-135977333D01*
X127707904Y-135929714D01*
X127898380Y-135929714D01*
X127993619Y-135977333D01*
X128422190Y-136596380D02*
X128422190Y-135596380D01*
X128517428Y-136215428D02*
X128803142Y-136596380D01*
X128803142Y-135929714D02*
X128422190Y-136310666D01*
X130565047Y-136501142D02*
X130517428Y-136548761D01*
X130374571Y-136596380D01*
X130279333Y-136596380D01*
X130136476Y-136548761D01*
X130041238Y-136453523D01*
X129993619Y-136358285D01*
X129946000Y-136167809D01*
X129946000Y-136024952D01*
X129993619Y-135834476D01*
X130041238Y-135739238D01*
X130136476Y-135644000D01*
X130279333Y-135596380D01*
X130374571Y-135596380D01*
X130517428Y-135644000D01*
X130565047Y-135691619D01*
X131422190Y-136596380D02*
X131422190Y-136072571D01*
X131374571Y-135977333D01*
X131279333Y-135929714D01*
X131088857Y-135929714D01*
X130993619Y-135977333D01*
X131422190Y-136548761D02*
X131326952Y-136596380D01*
X131088857Y-136596380D01*
X130993619Y-136548761D01*
X130946000Y-136453523D01*
X130946000Y-136358285D01*
X130993619Y-136263047D01*
X131088857Y-136215428D01*
X131326952Y-136215428D01*
X131422190Y-136167809D01*
X131898380Y-136596380D02*
X131898380Y-135929714D01*
X131898380Y-136120190D02*
X131946000Y-136024952D01*
X131993619Y-135977333D01*
X132088857Y-135929714D01*
X132184095Y-135929714D01*
X132946000Y-136596380D02*
X132946000Y-135596380D01*
X132946000Y-136548761D02*
X132850761Y-136596380D01*
X132660285Y-136596380D01*
X132565047Y-136548761D01*
X132517428Y-136501142D01*
X132469809Y-136405904D01*
X132469809Y-136120190D01*
X132517428Y-136024952D01*
X132565047Y-135977333D01*
X132660285Y-135929714D01*
X132850761Y-135929714D01*
X132946000Y-135977333D01*
X134184095Y-136215428D02*
X134946000Y-136215428D01*
X136755523Y-136596380D02*
X136422190Y-136120190D01*
X136184095Y-136596380D02*
X136184095Y-135596380D01*
X136565047Y-135596380D01*
X136660285Y-135644000D01*
X136707904Y-135691619D01*
X136755523Y-135786857D01*
X136755523Y-135929714D01*
X136707904Y-136024952D01*
X136660285Y-136072571D01*
X136565047Y-136120190D01*
X136184095Y-136120190D01*
X137565047Y-136548761D02*
X137469809Y-136596380D01*
X137279333Y-136596380D01*
X137184095Y-136548761D01*
X137136476Y-136453523D01*
X137136476Y-136072571D01*
X137184095Y-135977333D01*
X137279333Y-135929714D01*
X137469809Y-135929714D01*
X137565047Y-135977333D01*
X137612666Y-136072571D01*
X137612666Y-136167809D01*
X137136476Y-136263047D01*
X137946000Y-135929714D02*
X138184095Y-136596380D01*
X138422190Y-135929714D01*
X139469809Y-135596380D02*
X140088857Y-135596380D01*
X139755523Y-135977333D01*
X139898380Y-135977333D01*
X139993619Y-136024952D01*
X140041238Y-136072571D01*
X140088857Y-136167809D01*
X140088857Y-136405904D01*
X140041238Y-136501142D01*
X139993619Y-136548761D01*
X139898380Y-136596380D01*
X139612666Y-136596380D01*
X139517428Y-136548761D01*
X139469809Y-136501142D01*
X141279333Y-136215428D02*
X142041238Y-136215428D01*
X143612666Y-136072571D02*
X143279333Y-136072571D01*
X143279333Y-136596380D02*
X143279333Y-135596380D01*
X143755523Y-135596380D01*
X144136476Y-136596380D02*
X144136476Y-135929714D01*
X144136476Y-136120190D02*
X144184095Y-136024952D01*
X144231714Y-135977333D01*
X144326952Y-135929714D01*
X144422190Y-135929714D01*
X145136476Y-136548761D02*
X145041238Y-136596380D01*
X144850761Y-136596380D01*
X144755523Y-136548761D01*
X144707904Y-136453523D01*
X144707904Y-136072571D01*
X144755523Y-135977333D01*
X144850761Y-135929714D01*
X145041238Y-135929714D01*
X145136476Y-135977333D01*
X145184095Y-136072571D01*
X145184095Y-136167809D01*
X144707904Y-136263047D01*
X145041238Y-135548761D02*
X144898380Y-135691619D01*
X146041238Y-136596380D02*
X146041238Y-135596380D01*
X146041238Y-136548761D02*
X145946000Y-136596380D01*
X145755523Y-136596380D01*
X145660285Y-136548761D01*
X145612666Y-136501142D01*
X145565047Y-136405904D01*
X145565047Y-136120190D01*
X145612666Y-136024952D01*
X145660285Y-135977333D01*
X145755523Y-135929714D01*
X145946000Y-135929714D01*
X146041238Y-135977333D01*
X146898380Y-136548761D02*
X146803142Y-136596380D01*
X146612666Y-136596380D01*
X146517428Y-136548761D01*
X146469809Y-136453523D01*
X146469809Y-136072571D01*
X146517428Y-135977333D01*
X146612666Y-135929714D01*
X146803142Y-135929714D01*
X146898380Y-135977333D01*
X146946000Y-136072571D01*
X146946000Y-136167809D01*
X146469809Y-136263047D01*
X146803142Y-135548761D02*
X146660285Y-135691619D01*
X147374571Y-136596380D02*
X147374571Y-135929714D01*
X147374571Y-136120190D02*
X147422190Y-136024952D01*
X147469809Y-135977333D01*
X147565047Y-135929714D01*
X147660285Y-135929714D01*
X147993619Y-136596380D02*
X147993619Y-135929714D01*
X147993619Y-135596380D02*
X147946000Y-135644000D01*
X147993619Y-135691619D01*
X148041238Y-135644000D01*
X147993619Y-135596380D01*
X147993619Y-135691619D01*
X148898380Y-136548761D02*
X148803142Y-136596380D01*
X148612666Y-136596380D01*
X148517428Y-136548761D01*
X148469809Y-136501142D01*
X148422190Y-136405904D01*
X148422190Y-136120190D01*
X148469809Y-136024952D01*
X148517428Y-135977333D01*
X148612666Y-135929714D01*
X148803142Y-135929714D01*
X148898380Y-135977333D01*
X150041238Y-136548761D02*
X150184095Y-136596380D01*
X150422190Y-136596380D01*
X150517428Y-136548761D01*
X150565047Y-136501142D01*
X150612666Y-136405904D01*
X150612666Y-136310666D01*
X150565047Y-136215428D01*
X150517428Y-136167809D01*
X150422190Y-136120190D01*
X150231714Y-136072571D01*
X150136476Y-136024952D01*
X150088857Y-135977333D01*
X150041238Y-135882095D01*
X150041238Y-135786857D01*
X150088857Y-135691619D01*
X150136476Y-135644000D01*
X150231714Y-135596380D01*
X150469809Y-135596380D01*
X150612666Y-135644000D01*
X151422190Y-136548761D02*
X151326952Y-136596380D01*
X151136476Y-136596380D01*
X151041238Y-136548761D01*
X150993619Y-136453523D01*
X150993619Y-136072571D01*
X151041238Y-135977333D01*
X151136476Y-135929714D01*
X151326952Y-135929714D01*
X151422190Y-135977333D01*
X151469809Y-136072571D01*
X151469809Y-136167809D01*
X150993619Y-136263047D01*
X152326952Y-135929714D02*
X152326952Y-136739238D01*
X152279333Y-136834476D01*
X152231714Y-136882095D01*
X152136476Y-136929714D01*
X151993619Y-136929714D01*
X151898380Y-136882095D01*
X152326952Y-136548761D02*
X152231714Y-136596380D01*
X152041238Y-136596380D01*
X151946000Y-136548761D01*
X151898380Y-136501142D01*
X151850761Y-136405904D01*
X151850761Y-136120190D01*
X151898380Y-136024952D01*
X151946000Y-135977333D01*
X152041238Y-135929714D01*
X152231714Y-135929714D01*
X152326952Y-135977333D01*
X153231714Y-136596380D02*
X153231714Y-136072571D01*
X153184095Y-135977333D01*
X153088857Y-135929714D01*
X152898380Y-135929714D01*
X152803142Y-135977333D01*
X153231714Y-136548761D02*
X153136476Y-136596380D01*
X152898380Y-136596380D01*
X152803142Y-136548761D01*
X152755523Y-136453523D01*
X152755523Y-136358285D01*
X152803142Y-136263047D01*
X152898380Y-136215428D01*
X153136476Y-136215428D01*
X153231714Y-136167809D01*
X153707904Y-136596380D02*
X153707904Y-135929714D01*
X153707904Y-136120190D02*
X153755523Y-136024952D01*
X153803142Y-135977333D01*
X153898380Y-135929714D01*
X153993619Y-135929714D01*
X154755523Y-136596380D02*
X154755523Y-135596380D01*
X154755523Y-136548761D02*
X154660285Y-136596380D01*
X154469809Y-136596380D01*
X154374571Y-136548761D01*
X154326952Y-136501142D01*
X154279333Y-136405904D01*
X154279333Y-136120190D01*
X154326952Y-136024952D01*
X154374571Y-135977333D01*
X154469809Y-135929714D01*
X154660285Y-135929714D01*
X154755523Y-135977333D01*
X155279333Y-136548761D02*
X155279333Y-136596380D01*
X155231714Y-136691619D01*
X155184095Y-136739238D01*
X156374571Y-135929714D02*
X156612666Y-136596380D01*
X156850761Y-135929714D02*
X156612666Y-136596380D01*
X156517428Y-136834476D01*
X156469809Y-136882095D01*
X156374571Y-136929714D01*
X157374571Y-136596380D02*
X157279333Y-136548761D01*
X157231714Y-136501142D01*
X157184095Y-136405904D01*
X157184095Y-136120190D01*
X157231714Y-136024952D01*
X157279333Y-135977333D01*
X157374571Y-135929714D01*
X157517428Y-135929714D01*
X157612666Y-135977333D01*
X157660285Y-136024952D01*
X157707904Y-136120190D01*
X157707904Y-136405904D01*
X157660285Y-136501142D01*
X157612666Y-136548761D01*
X157517428Y-136596380D01*
X157374571Y-136596380D01*
X158565047Y-135929714D02*
X158565047Y-136596380D01*
X158136476Y-135929714D02*
X158136476Y-136453523D01*
X158184095Y-136548761D01*
X158279333Y-136596380D01*
X158422190Y-136596380D01*
X158517428Y-136548761D01*
X158565047Y-136501142D01*
X158898380Y-135929714D02*
X159279333Y-135929714D01*
X159041238Y-135596380D02*
X159041238Y-136453523D01*
X159088857Y-136548761D01*
X159184095Y-136596380D01*
X159279333Y-136596380D01*
X160041238Y-135929714D02*
X160041238Y-136596380D01*
X159612666Y-135929714D02*
X159612666Y-136453523D01*
X159660285Y-136548761D01*
X159755523Y-136596380D01*
X159898380Y-136596380D01*
X159993619Y-136548761D01*
X160041238Y-136501142D01*
X160517428Y-136596380D02*
X160517428Y-135596380D01*
X160517428Y-135977333D02*
X160612666Y-135929714D01*
X160803142Y-135929714D01*
X160898380Y-135977333D01*
X160946000Y-136024952D01*
X160993619Y-136120190D01*
X160993619Y-136405904D01*
X160946000Y-136501142D01*
X160898380Y-136548761D01*
X160803142Y-136596380D01*
X160612666Y-136596380D01*
X160517428Y-136548761D01*
X161803142Y-136548761D02*
X161707904Y-136596380D01*
X161517428Y-136596380D01*
X161422190Y-136548761D01*
X161374571Y-136453523D01*
X161374571Y-136072571D01*
X161422190Y-135977333D01*
X161517428Y-135929714D01*
X161707904Y-135929714D01*
X161803142Y-135977333D01*
X161850761Y-136072571D01*
X161850761Y-136167809D01*
X161374571Y-136263047D01*
X162279333Y-136501142D02*
X162326952Y-136548761D01*
X162279333Y-136596380D01*
X162231714Y-136548761D01*
X162279333Y-136501142D01*
X162279333Y-136596380D01*
X163184095Y-136548761D02*
X163088857Y-136596380D01*
X162898380Y-136596380D01*
X162803142Y-136548761D01*
X162755523Y-136501142D01*
X162707904Y-136405904D01*
X162707904Y-136120190D01*
X162755523Y-136024952D01*
X162803142Y-135977333D01*
X162898380Y-135929714D01*
X163088857Y-135929714D01*
X163184095Y-135977333D01*
X163755523Y-136596380D02*
X163660285Y-136548761D01*
X163612666Y-136501142D01*
X163565047Y-136405904D01*
X163565047Y-136120190D01*
X163612666Y-136024952D01*
X163660285Y-135977333D01*
X163755523Y-135929714D01*
X163898380Y-135929714D01*
X163993619Y-135977333D01*
X164041238Y-136024952D01*
X164088857Y-136120190D01*
X164088857Y-136405904D01*
X164041238Y-136501142D01*
X163993619Y-136548761D01*
X163898380Y-136596380D01*
X163755523Y-136596380D01*
X164517428Y-136596380D02*
X164517428Y-135929714D01*
X164517428Y-136024952D02*
X164565047Y-135977333D01*
X164660285Y-135929714D01*
X164803142Y-135929714D01*
X164898380Y-135977333D01*
X164946000Y-136072571D01*
X164946000Y-136596380D01*
X164946000Y-136072571D02*
X164993619Y-135977333D01*
X165088857Y-135929714D01*
X165231714Y-135929714D01*
X165326952Y-135977333D01*
X165374571Y-136072571D01*
X165374571Y-136596380D01*
X166565047Y-135548761D02*
X165707904Y-136834476D01*
X167517428Y-136120190D02*
X167469809Y-136072571D01*
X167374571Y-136024952D01*
X167279333Y-136024952D01*
X167184095Y-136072571D01*
X167136476Y-136120190D01*
X167088857Y-136215428D01*
X167088857Y-136310666D01*
X167136476Y-136405904D01*
X167184095Y-136453523D01*
X167279333Y-136501142D01*
X167374571Y-136501142D01*
X167469809Y-136453523D01*
X167517428Y-136405904D01*
X167517428Y-136024952D02*
X167517428Y-136405904D01*
X167565047Y-136453523D01*
X167612666Y-136453523D01*
X167707904Y-136405904D01*
X167755523Y-136310666D01*
X167755523Y-136072571D01*
X167660285Y-135929714D01*
X167517428Y-135834476D01*
X167326952Y-135786857D01*
X167136476Y-135834476D01*
X166993619Y-135929714D01*
X166898380Y-136072571D01*
X166850761Y-136263047D01*
X166898380Y-136453523D01*
X166993619Y-136596380D01*
X167136476Y-136691619D01*
X167326952Y-136739238D01*
X167517428Y-136691619D01*
X167660285Y-136596380D01*
X168184095Y-136596380D02*
X168184095Y-135929714D01*
X168184095Y-136024952D02*
X168231714Y-135977333D01*
X168326952Y-135929714D01*
X168469809Y-135929714D01*
X168565047Y-135977333D01*
X168612666Y-136072571D01*
X168612666Y-136596380D01*
X168612666Y-136072571D02*
X168660285Y-135977333D01*
X168755523Y-135929714D01*
X168898380Y-135929714D01*
X168993619Y-135977333D01*
X169041238Y-136072571D01*
X169041238Y-136596380D01*
X169517428Y-136596380D02*
X169517428Y-135929714D01*
X169517428Y-135596380D02*
X169469809Y-135644000D01*
X169517428Y-135691619D01*
X169565047Y-135644000D01*
X169517428Y-135596380D01*
X169517428Y-135691619D01*
X170422190Y-136548761D02*
X170326952Y-136596380D01*
X170136476Y-136596380D01*
X170041238Y-136548761D01*
X169993619Y-136501142D01*
X169946000Y-136405904D01*
X169946000Y-136120190D01*
X169993619Y-136024952D01*
X170041238Y-135977333D01*
X170136476Y-135929714D01*
X170326952Y-135929714D01*
X170422190Y-135977333D01*
X170850761Y-136596380D02*
X170850761Y-135929714D01*
X170850761Y-136120190D02*
X170898380Y-136024952D01*
X170946000Y-135977333D01*
X171041238Y-135929714D01*
X171136476Y-135929714D01*
X171612666Y-136596380D02*
X171517428Y-136548761D01*
X171469809Y-136501142D01*
X171422190Y-136405904D01*
X171422190Y-136120190D01*
X171469809Y-136024952D01*
X171517428Y-135977333D01*
X171612666Y-135929714D01*
X171755523Y-135929714D01*
X171850761Y-135977333D01*
X171898380Y-136024952D01*
X171946000Y-136120190D01*
X171946000Y-136405904D01*
X171898380Y-136501142D01*
X171850761Y-136548761D01*
X171755523Y-136596380D01*
X171612666Y-136596380D01*
X172374571Y-136596380D02*
X172374571Y-135596380D01*
X172803142Y-136596380D02*
X172803142Y-136072571D01*
X172755523Y-135977333D01*
X172660285Y-135929714D01*
X172517428Y-135929714D01*
X172422190Y-135977333D01*
X172374571Y-136024952D01*
X173422190Y-136596380D02*
X173326952Y-136548761D01*
X173279333Y-136501142D01*
X173231714Y-136405904D01*
X173231714Y-136120190D01*
X173279333Y-136024952D01*
X173326952Y-135977333D01*
X173422190Y-135929714D01*
X173565047Y-135929714D01*
X173660285Y-135977333D01*
X173707904Y-136024952D01*
X173755523Y-136120190D01*
X173755523Y-136405904D01*
X173707904Y-136501142D01*
X173660285Y-136548761D01*
X173565047Y-136596380D01*
X173422190Y-136596380D01*
X174184095Y-136596380D02*
X174184095Y-135596380D01*
X174184095Y-135977333D02*
X174279333Y-135929714D01*
X174469809Y-135929714D01*
X174565047Y-135977333D01*
X174612666Y-136024952D01*
X174660285Y-136120190D01*
X174660285Y-136405904D01*
X174612666Y-136501142D01*
X174565047Y-136548761D01*
X174469809Y-136596380D01*
X174279333Y-136596380D01*
X174184095Y-136548761D01*
X175088857Y-136596380D02*
X175088857Y-135596380D01*
X175088857Y-135977333D02*
X175184095Y-135929714D01*
X175374571Y-135929714D01*
X175469809Y-135977333D01*
X175517428Y-136024952D01*
X175565047Y-136120190D01*
X175565047Y-136405904D01*
X175517428Y-136501142D01*
X175469809Y-136548761D01*
X175374571Y-136596380D01*
X175184095Y-136596380D01*
X175088857Y-136548761D01*
X175898380Y-135929714D02*
X176136476Y-136596380D01*
X176374571Y-135929714D02*
X176136476Y-136596380D01*
X176041238Y-136834476D01*
X175993619Y-136882095D01*
X175898380Y-136929714D01*
X176755523Y-136596380D02*
X176755523Y-135929714D01*
X176755523Y-135596380D02*
X176707904Y-135644000D01*
X176755523Y-135691619D01*
X176803142Y-135644000D01*
X176755523Y-135596380D01*
X176755523Y-135691619D01*
X177184095Y-136548761D02*
X177279333Y-136596380D01*
X177469809Y-136596380D01*
X177565047Y-136548761D01*
X177612666Y-136453523D01*
X177612666Y-136405904D01*
X177565047Y-136310666D01*
X177469809Y-136263047D01*
X177326952Y-136263047D01*
X177231714Y-136215428D01*
X177184095Y-136120190D01*
X177184095Y-136072571D01*
X177231714Y-135977333D01*
X177326952Y-135929714D01*
X177469809Y-135929714D01*
X177565047Y-135977333D01*
X177898380Y-135929714D02*
X178279333Y-135929714D01*
X178041238Y-135596380D02*
X178041238Y-136453523D01*
X178088857Y-136548761D01*
X178184095Y-136596380D01*
X178279333Y-136596380D01*
X175702500Y-123547142D02*
X175654880Y-123594761D01*
X175512023Y-123642380D01*
X175416785Y-123642380D01*
X175273928Y-123594761D01*
X175178690Y-123499523D01*
X175131071Y-123404285D01*
X175083452Y-123213809D01*
X175083452Y-123070952D01*
X175131071Y-122880476D01*
X175178690Y-122785238D01*
X175273928Y-122690000D01*
X175416785Y-122642380D01*
X175512023Y-122642380D01*
X175654880Y-122690000D01*
X175702500Y-122737619D01*
X176607261Y-123642380D02*
X176131071Y-123642380D01*
X176131071Y-122642380D01*
X176940595Y-123642380D02*
X176940595Y-122642380D01*
X177512023Y-123642380D02*
X177083452Y-123070952D01*
X177512023Y-122642380D02*
X176940595Y-123213809D01*
X182745142Y-77414380D02*
X182411809Y-76938190D01*
X182173714Y-77414380D02*
X182173714Y-76414380D01*
X182554666Y-76414380D01*
X182649904Y-76462000D01*
X182697523Y-76509619D01*
X182745142Y-76604857D01*
X182745142Y-76747714D01*
X182697523Y-76842952D01*
X182649904Y-76890571D01*
X182554666Y-76938190D01*
X182173714Y-76938190D01*
X183697523Y-77414380D02*
X183126095Y-77414380D01*
X183411809Y-77414380D02*
X183411809Y-76414380D01*
X183316571Y-76557238D01*
X183221333Y-76652476D01*
X183126095Y-76700095D01*
X184078476Y-76509619D02*
X184126095Y-76462000D01*
X184221333Y-76414380D01*
X184459428Y-76414380D01*
X184554666Y-76462000D01*
X184602285Y-76509619D01*
X184649904Y-76604857D01*
X184649904Y-76700095D01*
X184602285Y-76842952D01*
X184030857Y-77414380D01*
X184649904Y-77414380D01*
X111842380Y-64728095D02*
X112651904Y-64728095D01*
X112747142Y-64680476D01*
X112794761Y-64632857D01*
X112842380Y-64537619D01*
X112842380Y-64347142D01*
X112794761Y-64251904D01*
X112747142Y-64204285D01*
X112651904Y-64156666D01*
X111842380Y-64156666D01*
X112842380Y-63156666D02*
X112842380Y-63728095D01*
X112842380Y-63442380D02*
X111842380Y-63442380D01*
X111985238Y-63537619D01*
X112080476Y-63632857D01*
X112128095Y-63728095D01*
X112842380Y-62204285D02*
X112842380Y-62775714D01*
X112842380Y-62490000D02*
X111842380Y-62490000D01*
X111985238Y-62585238D01*
X112080476Y-62680476D01*
X112128095Y-62775714D01*
X93258380Y-127077695D02*
X92258380Y-127077695D01*
X92258380Y-126839600D01*
X92306000Y-126696742D01*
X92401238Y-126601504D01*
X92496476Y-126553885D01*
X92686952Y-126506266D01*
X92829809Y-126506266D01*
X93020285Y-126553885D01*
X93115523Y-126601504D01*
X93210761Y-126696742D01*
X93258380Y-126839600D01*
X93258380Y-127077695D01*
X92686952Y-125934838D02*
X92639333Y-126030076D01*
X92591714Y-126077695D01*
X92496476Y-126125314D01*
X92448857Y-126125314D01*
X92353619Y-126077695D01*
X92306000Y-126030076D01*
X92258380Y-125934838D01*
X92258380Y-125744361D01*
X92306000Y-125649123D01*
X92353619Y-125601504D01*
X92448857Y-125553885D01*
X92496476Y-125553885D01*
X92591714Y-125601504D01*
X92639333Y-125649123D01*
X92686952Y-125744361D01*
X92686952Y-125934838D01*
X92734571Y-126030076D01*
X92782190Y-126077695D01*
X92877428Y-126125314D01*
X93067904Y-126125314D01*
X93163142Y-126077695D01*
X93210761Y-126030076D01*
X93258380Y-125934838D01*
X93258380Y-125744361D01*
X93210761Y-125649123D01*
X93163142Y-125601504D01*
X93067904Y-125553885D01*
X92877428Y-125553885D01*
X92782190Y-125601504D01*
X92734571Y-125649123D01*
X92686952Y-125744361D01*
X155027380Y-64728095D02*
X155836904Y-64728095D01*
X155932142Y-64680476D01*
X155979761Y-64632857D01*
X156027380Y-64537619D01*
X156027380Y-64347142D01*
X155979761Y-64251904D01*
X155932142Y-64204285D01*
X155836904Y-64156666D01*
X155027380Y-64156666D01*
X156027380Y-63156666D02*
X156027380Y-63728095D01*
X156027380Y-63442380D02*
X155027380Y-63442380D01*
X155170238Y-63537619D01*
X155265476Y-63632857D01*
X155313095Y-63728095D01*
X155027380Y-62251904D02*
X155027380Y-62728095D01*
X155503571Y-62775714D01*
X155455952Y-62728095D01*
X155408333Y-62632857D01*
X155408333Y-62394761D01*
X155455952Y-62299523D01*
X155503571Y-62251904D01*
X155598809Y-62204285D01*
X155836904Y-62204285D01*
X155932142Y-62251904D01*
X155979761Y-62299523D01*
X156027380Y-62394761D01*
X156027380Y-62632857D01*
X155979761Y-62728095D01*
X155932142Y-62775714D01*
X152249142Y-118600457D02*
X152296761Y-118648076D01*
X152344380Y-118790933D01*
X152344380Y-118886171D01*
X152296761Y-119029028D01*
X152201523Y-119124266D01*
X152106285Y-119171885D01*
X151915809Y-119219504D01*
X151772952Y-119219504D01*
X151582476Y-119171885D01*
X151487238Y-119124266D01*
X151392000Y-119029028D01*
X151344380Y-118886171D01*
X151344380Y-118790933D01*
X151392000Y-118648076D01*
X151439619Y-118600457D01*
X152344380Y-117648076D02*
X152344380Y-118219504D01*
X152344380Y-117933790D02*
X151344380Y-117933790D01*
X151487238Y-118029028D01*
X151582476Y-118124266D01*
X151630095Y-118219504D01*
X151344380Y-116790933D02*
X151344380Y-116981409D01*
X151392000Y-117076647D01*
X151439619Y-117124266D01*
X151582476Y-117219504D01*
X151772952Y-117267123D01*
X152153904Y-117267123D01*
X152249142Y-117219504D01*
X152296761Y-117171885D01*
X152344380Y-117076647D01*
X152344380Y-116886171D01*
X152296761Y-116790933D01*
X152249142Y-116743314D01*
X152153904Y-116695695D01*
X151915809Y-116695695D01*
X151820571Y-116743314D01*
X151772952Y-116790933D01*
X151725333Y-116886171D01*
X151725333Y-117076647D01*
X151772952Y-117171885D01*
X151820571Y-117219504D01*
X151915809Y-117267123D01*
X183627733Y-98750380D02*
X183294400Y-98274190D01*
X183056304Y-98750380D02*
X183056304Y-97750380D01*
X183437257Y-97750380D01*
X183532495Y-97798000D01*
X183580114Y-97845619D01*
X183627733Y-97940857D01*
X183627733Y-98083714D01*
X183580114Y-98178952D01*
X183532495Y-98226571D01*
X183437257Y-98274190D01*
X183056304Y-98274190D01*
X184199161Y-98178952D02*
X184103923Y-98131333D01*
X184056304Y-98083714D01*
X184008685Y-97988476D01*
X184008685Y-97940857D01*
X184056304Y-97845619D01*
X184103923Y-97798000D01*
X184199161Y-97750380D01*
X184389638Y-97750380D01*
X184484876Y-97798000D01*
X184532495Y-97845619D01*
X184580114Y-97940857D01*
X184580114Y-97988476D01*
X184532495Y-98083714D01*
X184484876Y-98131333D01*
X184389638Y-98178952D01*
X184199161Y-98178952D01*
X184103923Y-98226571D01*
X184056304Y-98274190D01*
X184008685Y-98369428D01*
X184008685Y-98559904D01*
X184056304Y-98655142D01*
X184103923Y-98702761D01*
X184199161Y-98750380D01*
X184389638Y-98750380D01*
X184484876Y-98702761D01*
X184532495Y-98655142D01*
X184580114Y-98559904D01*
X184580114Y-98369428D01*
X184532495Y-98274190D01*
X184484876Y-98226571D01*
X184389638Y-98178952D01*
X130542142Y-118635857D02*
X130589761Y-118683476D01*
X130637380Y-118826333D01*
X130637380Y-118921571D01*
X130589761Y-119064428D01*
X130494523Y-119159666D01*
X130399285Y-119207285D01*
X130208809Y-119254904D01*
X130065952Y-119254904D01*
X129875476Y-119207285D01*
X129780238Y-119159666D01*
X129685000Y-119064428D01*
X129637380Y-118921571D01*
X129637380Y-118826333D01*
X129685000Y-118683476D01*
X129732619Y-118635857D01*
X129732619Y-118254904D02*
X129685000Y-118207285D01*
X129637380Y-118112047D01*
X129637380Y-117873952D01*
X129685000Y-117778714D01*
X129732619Y-117731095D01*
X129827857Y-117683476D01*
X129923095Y-117683476D01*
X130065952Y-117731095D01*
X130637380Y-118302523D01*
X130637380Y-117683476D01*
X130637380Y-116731095D02*
X130637380Y-117302523D01*
X130637380Y-117016809D02*
X129637380Y-117016809D01*
X129780238Y-117112047D01*
X129875476Y-117207285D01*
X129923095Y-117302523D01*
X178242933Y-109069142D02*
X178195314Y-109116761D01*
X178052457Y-109164380D01*
X177957219Y-109164380D01*
X177814361Y-109116761D01*
X177719123Y-109021523D01*
X177671504Y-108926285D01*
X177623885Y-108735809D01*
X177623885Y-108592952D01*
X177671504Y-108402476D01*
X177719123Y-108307238D01*
X177814361Y-108212000D01*
X177957219Y-108164380D01*
X178052457Y-108164380D01*
X178195314Y-108212000D01*
X178242933Y-108259619D01*
X178623885Y-108259619D02*
X178671504Y-108212000D01*
X178766742Y-108164380D01*
X179004838Y-108164380D01*
X179100076Y-108212000D01*
X179147695Y-108259619D01*
X179195314Y-108354857D01*
X179195314Y-108450095D01*
X179147695Y-108592952D01*
X178576266Y-109164380D01*
X179195314Y-109164380D01*
X183678533Y-59634380D02*
X183345200Y-59158190D01*
X183107104Y-59634380D02*
X183107104Y-58634380D01*
X183488057Y-58634380D01*
X183583295Y-58682000D01*
X183630914Y-58729619D01*
X183678533Y-58824857D01*
X183678533Y-58967714D01*
X183630914Y-59062952D01*
X183583295Y-59110571D01*
X183488057Y-59158190D01*
X183107104Y-59158190D01*
X184011866Y-58634380D02*
X184630914Y-58634380D01*
X184297580Y-59015333D01*
X184440438Y-59015333D01*
X184535676Y-59062952D01*
X184583295Y-59110571D01*
X184630914Y-59205809D01*
X184630914Y-59443904D01*
X184583295Y-59539142D01*
X184535676Y-59586761D01*
X184440438Y-59634380D01*
X184154723Y-59634380D01*
X184059485Y-59586761D01*
X184011866Y-59539142D01*
X182668942Y-102306380D02*
X182335609Y-101830190D01*
X182097514Y-102306380D02*
X182097514Y-101306380D01*
X182478466Y-101306380D01*
X182573704Y-101354000D01*
X182621323Y-101401619D01*
X182668942Y-101496857D01*
X182668942Y-101639714D01*
X182621323Y-101734952D01*
X182573704Y-101782571D01*
X182478466Y-101830190D01*
X182097514Y-101830190D01*
X183621323Y-102306380D02*
X183049895Y-102306380D01*
X183335609Y-102306380D02*
X183335609Y-101306380D01*
X183240371Y-101449238D01*
X183145133Y-101544476D01*
X183049895Y-101592095D01*
X183954657Y-101306380D02*
X184573704Y-101306380D01*
X184240371Y-101687333D01*
X184383228Y-101687333D01*
X184478466Y-101734952D01*
X184526085Y-101782571D01*
X184573704Y-101877809D01*
X184573704Y-102115904D01*
X184526085Y-102211142D01*
X184478466Y-102258761D01*
X184383228Y-102306380D01*
X184097514Y-102306380D01*
X184002276Y-102258761D01*
X183954657Y-102211142D01*
X155739666Y-47801161D02*
X155882523Y-47848780D01*
X156120619Y-47848780D01*
X156215857Y-47801161D01*
X156263476Y-47753542D01*
X156311095Y-47658304D01*
X156311095Y-47563066D01*
X156263476Y-47467828D01*
X156215857Y-47420209D01*
X156120619Y-47372590D01*
X155930142Y-47324971D01*
X155834904Y-47277352D01*
X155787285Y-47229733D01*
X155739666Y-47134495D01*
X155739666Y-47039257D01*
X155787285Y-46944019D01*
X155834904Y-46896400D01*
X155930142Y-46848780D01*
X156168238Y-46848780D01*
X156311095Y-46896400D01*
X156644428Y-46848780D02*
X156882523Y-47848780D01*
X157073000Y-47134495D01*
X157263476Y-47848780D01*
X157501571Y-46848780D01*
X157787285Y-46848780D02*
X158406333Y-46848780D01*
X158073000Y-47229733D01*
X158215857Y-47229733D01*
X158311095Y-47277352D01*
X158358714Y-47324971D01*
X158406333Y-47420209D01*
X158406333Y-47658304D01*
X158358714Y-47753542D01*
X158311095Y-47801161D01*
X158215857Y-47848780D01*
X157930142Y-47848780D01*
X157834904Y-47801161D01*
X157787285Y-47753542D01*
X174119904Y-49855380D02*
X174119904Y-48855380D01*
X174358000Y-48855380D01*
X174500857Y-48903000D01*
X174596095Y-48998238D01*
X174643714Y-49093476D01*
X174691333Y-49283952D01*
X174691333Y-49426809D01*
X174643714Y-49617285D01*
X174596095Y-49712523D01*
X174500857Y-49807761D01*
X174358000Y-49855380D01*
X174119904Y-49855380D01*
X175548476Y-48855380D02*
X175358000Y-48855380D01*
X175262761Y-48903000D01*
X175215142Y-48950619D01*
X175119904Y-49093476D01*
X175072285Y-49283952D01*
X175072285Y-49664904D01*
X175119904Y-49760142D01*
X175167523Y-49807761D01*
X175262761Y-49855380D01*
X175453238Y-49855380D01*
X175548476Y-49807761D01*
X175596095Y-49760142D01*
X175643714Y-49664904D01*
X175643714Y-49426809D01*
X175596095Y-49331571D01*
X175548476Y-49283952D01*
X175453238Y-49236333D01*
X175262761Y-49236333D01*
X175167523Y-49283952D01*
X175119904Y-49331571D01*
X175072285Y-49426809D01*
X129932133Y-75267142D02*
X129884514Y-75314761D01*
X129741657Y-75362380D01*
X129646419Y-75362380D01*
X129503561Y-75314761D01*
X129408323Y-75219523D01*
X129360704Y-75124285D01*
X129313085Y-74933809D01*
X129313085Y-74790952D01*
X129360704Y-74600476D01*
X129408323Y-74505238D01*
X129503561Y-74410000D01*
X129646419Y-74362380D01*
X129741657Y-74362380D01*
X129884514Y-74410000D01*
X129932133Y-74457619D01*
X130265466Y-74362380D02*
X130884514Y-74362380D01*
X130551180Y-74743333D01*
X130694038Y-74743333D01*
X130789276Y-74790952D01*
X130836895Y-74838571D01*
X130884514Y-74933809D01*
X130884514Y-75171904D01*
X130836895Y-75267142D01*
X130789276Y-75314761D01*
X130694038Y-75362380D01*
X130408323Y-75362380D01*
X130313085Y-75314761D01*
X130265466Y-75267142D01*
X111847380Y-89631904D02*
X112656904Y-89631904D01*
X112752142Y-89584285D01*
X112799761Y-89536666D01*
X112847380Y-89441428D01*
X112847380Y-89250952D01*
X112799761Y-89155714D01*
X112752142Y-89108095D01*
X112656904Y-89060476D01*
X111847380Y-89060476D01*
X111847380Y-88108095D02*
X111847380Y-88584285D01*
X112323571Y-88631904D01*
X112275952Y-88584285D01*
X112228333Y-88489047D01*
X112228333Y-88250952D01*
X112275952Y-88155714D01*
X112323571Y-88108095D01*
X112418809Y-88060476D01*
X112656904Y-88060476D01*
X112752142Y-88108095D01*
X112799761Y-88155714D01*
X112847380Y-88250952D01*
X112847380Y-88489047D01*
X112799761Y-88584285D01*
X112752142Y-88631904D01*
X93114761Y-99351933D02*
X93162380Y-99209076D01*
X93162380Y-98970980D01*
X93114761Y-98875742D01*
X93067142Y-98828123D01*
X92971904Y-98780504D01*
X92876666Y-98780504D01*
X92781428Y-98828123D01*
X92733809Y-98875742D01*
X92686190Y-98970980D01*
X92638571Y-99161457D01*
X92590952Y-99256695D01*
X92543333Y-99304314D01*
X92448095Y-99351933D01*
X92352857Y-99351933D01*
X92257619Y-99304314D01*
X92210000Y-99256695D01*
X92162380Y-99161457D01*
X92162380Y-98923361D01*
X92210000Y-98780504D01*
X92162380Y-98447171D02*
X93162380Y-98209076D01*
X92448095Y-98018600D01*
X93162380Y-97828123D01*
X92162380Y-97590028D01*
X92162380Y-97304314D02*
X92162380Y-96637647D01*
X93162380Y-97066219D01*
X119153666Y-47799861D02*
X119296523Y-47847480D01*
X119534619Y-47847480D01*
X119629857Y-47799861D01*
X119677476Y-47752242D01*
X119725095Y-47657004D01*
X119725095Y-47561766D01*
X119677476Y-47466528D01*
X119629857Y-47418909D01*
X119534619Y-47371290D01*
X119344142Y-47323671D01*
X119248904Y-47276052D01*
X119201285Y-47228433D01*
X119153666Y-47133195D01*
X119153666Y-47037957D01*
X119201285Y-46942719D01*
X119248904Y-46895100D01*
X119344142Y-46847480D01*
X119582238Y-46847480D01*
X119725095Y-46895100D01*
X120058428Y-46847480D02*
X120296523Y-47847480D01*
X120487000Y-47133195D01*
X120677476Y-47847480D01*
X120915571Y-46847480D01*
X121725095Y-47180814D02*
X121725095Y-47847480D01*
X121487000Y-46799861D02*
X121248904Y-47514147D01*
X121867952Y-47514147D01*
X111847380Y-102331904D02*
X112656904Y-102331904D01*
X112752142Y-102284285D01*
X112799761Y-102236666D01*
X112847380Y-102141428D01*
X112847380Y-101950952D01*
X112799761Y-101855714D01*
X112752142Y-101808095D01*
X112656904Y-101760476D01*
X111847380Y-101760476D01*
X111847380Y-101379523D02*
X111847380Y-100760476D01*
X112228333Y-101093809D01*
X112228333Y-100950952D01*
X112275952Y-100855714D01*
X112323571Y-100808095D01*
X112418809Y-100760476D01*
X112656904Y-100760476D01*
X112752142Y-100808095D01*
X112799761Y-100855714D01*
X112847380Y-100950952D01*
X112847380Y-101236666D01*
X112799761Y-101331904D01*
X112752142Y-101379523D01*
X183678533Y-88082380D02*
X183345200Y-87606190D01*
X183107104Y-88082380D02*
X183107104Y-87082380D01*
X183488057Y-87082380D01*
X183583295Y-87130000D01*
X183630914Y-87177619D01*
X183678533Y-87272857D01*
X183678533Y-87415714D01*
X183630914Y-87510952D01*
X183583295Y-87558571D01*
X183488057Y-87606190D01*
X183107104Y-87606190D01*
X184154723Y-88082380D02*
X184345200Y-88082380D01*
X184440438Y-88034761D01*
X184488057Y-87987142D01*
X184583295Y-87844285D01*
X184630914Y-87653809D01*
X184630914Y-87272857D01*
X184583295Y-87177619D01*
X184535676Y-87130000D01*
X184440438Y-87082380D01*
X184249961Y-87082380D01*
X184154723Y-87130000D01*
X184107104Y-87177619D01*
X184059485Y-87272857D01*
X184059485Y-87510952D01*
X184107104Y-87606190D01*
X184154723Y-87653809D01*
X184249961Y-87701428D01*
X184440438Y-87701428D01*
X184535676Y-87653809D01*
X184583295Y-87606190D01*
X184630914Y-87510952D01*
X108942142Y-92247066D02*
X108989761Y-92294685D01*
X109037380Y-92437542D01*
X109037380Y-92532780D01*
X108989761Y-92675638D01*
X108894523Y-92770876D01*
X108799285Y-92818495D01*
X108608809Y-92866114D01*
X108465952Y-92866114D01*
X108275476Y-92818495D01*
X108180238Y-92770876D01*
X108085000Y-92675638D01*
X108037380Y-92532780D01*
X108037380Y-92437542D01*
X108085000Y-92294685D01*
X108132619Y-92247066D01*
X109037380Y-91770876D02*
X109037380Y-91580400D01*
X108989761Y-91485161D01*
X108942142Y-91437542D01*
X108799285Y-91342304D01*
X108608809Y-91294685D01*
X108227857Y-91294685D01*
X108132619Y-91342304D01*
X108085000Y-91389923D01*
X108037380Y-91485161D01*
X108037380Y-91675638D01*
X108085000Y-91770876D01*
X108132619Y-91818495D01*
X108227857Y-91866114D01*
X108465952Y-91866114D01*
X108561190Y-91818495D01*
X108608809Y-91770876D01*
X108656428Y-91675638D01*
X108656428Y-91485161D01*
X108608809Y-91389923D01*
X108561190Y-91342304D01*
X108465952Y-91294685D01*
X129982933Y-72727142D02*
X129935314Y-72774761D01*
X129792457Y-72822380D01*
X129697219Y-72822380D01*
X129554361Y-72774761D01*
X129459123Y-72679523D01*
X129411504Y-72584285D01*
X129363885Y-72393809D01*
X129363885Y-72250952D01*
X129411504Y-72060476D01*
X129459123Y-71965238D01*
X129554361Y-71870000D01*
X129697219Y-71822380D01*
X129792457Y-71822380D01*
X129935314Y-71870000D01*
X129982933Y-71917619D01*
X130887695Y-71822380D02*
X130411504Y-71822380D01*
X130363885Y-72298571D01*
X130411504Y-72250952D01*
X130506742Y-72203333D01*
X130744838Y-72203333D01*
X130840076Y-72250952D01*
X130887695Y-72298571D01*
X130935314Y-72393809D01*
X130935314Y-72631904D01*
X130887695Y-72727142D01*
X130840076Y-72774761D01*
X130744838Y-72822380D01*
X130506742Y-72822380D01*
X130411504Y-72774761D01*
X130363885Y-72727142D01*
X104719523Y-57983380D02*
X104386190Y-57507190D01*
X104148095Y-57983380D02*
X104148095Y-56983380D01*
X104529047Y-56983380D01*
X104624285Y-57031000D01*
X104671904Y-57078619D01*
X104719523Y-57173857D01*
X104719523Y-57316714D01*
X104671904Y-57411952D01*
X104624285Y-57459571D01*
X104529047Y-57507190D01*
X104148095Y-57507190D01*
X105148095Y-57983380D02*
X105148095Y-56983380D01*
X105719523Y-57983380D01*
X105719523Y-56983380D01*
X106719523Y-57983380D02*
X106148095Y-57983380D01*
X106433809Y-57983380D02*
X106433809Y-56983380D01*
X106338571Y-57126238D01*
X106243333Y-57221476D01*
X106148095Y-57269095D01*
X152122142Y-93180457D02*
X152169761Y-93228076D01*
X152217380Y-93370933D01*
X152217380Y-93466171D01*
X152169761Y-93609028D01*
X152074523Y-93704266D01*
X151979285Y-93751885D01*
X151788809Y-93799504D01*
X151645952Y-93799504D01*
X151455476Y-93751885D01*
X151360238Y-93704266D01*
X151265000Y-93609028D01*
X151217380Y-93466171D01*
X151217380Y-93370933D01*
X151265000Y-93228076D01*
X151312619Y-93180457D01*
X152217380Y-92228076D02*
X152217380Y-92799504D01*
X152217380Y-92513790D02*
X151217380Y-92513790D01*
X151360238Y-92609028D01*
X151455476Y-92704266D01*
X151503095Y-92799504D01*
X151312619Y-91847123D02*
X151265000Y-91799504D01*
X151217380Y-91704266D01*
X151217380Y-91466171D01*
X151265000Y-91370933D01*
X151312619Y-91323314D01*
X151407857Y-91275695D01*
X151503095Y-91275695D01*
X151645952Y-91323314D01*
X152217380Y-91894742D01*
X152217380Y-91275695D01*
X93114761Y-68871933D02*
X93162380Y-68729076D01*
X93162380Y-68490980D01*
X93114761Y-68395742D01*
X93067142Y-68348123D01*
X92971904Y-68300504D01*
X92876666Y-68300504D01*
X92781428Y-68348123D01*
X92733809Y-68395742D01*
X92686190Y-68490980D01*
X92638571Y-68681457D01*
X92590952Y-68776695D01*
X92543333Y-68824314D01*
X92448095Y-68871933D01*
X92352857Y-68871933D01*
X92257619Y-68824314D01*
X92210000Y-68776695D01*
X92162380Y-68681457D01*
X92162380Y-68443361D01*
X92210000Y-68300504D01*
X92162380Y-67967171D02*
X93162380Y-67729076D01*
X92448095Y-67538600D01*
X93162380Y-67348123D01*
X92162380Y-67110028D01*
X92162380Y-66300504D02*
X92162380Y-66490980D01*
X92210000Y-66586219D01*
X92257619Y-66633838D01*
X92400476Y-66729076D01*
X92590952Y-66776695D01*
X92971904Y-66776695D01*
X93067142Y-66729076D01*
X93114761Y-66681457D01*
X93162380Y-66586219D01*
X93162380Y-66395742D01*
X93114761Y-66300504D01*
X93067142Y-66252885D01*
X92971904Y-66205266D01*
X92733809Y-66205266D01*
X92638571Y-66252885D01*
X92590952Y-66300504D01*
X92543333Y-66395742D01*
X92543333Y-66586219D01*
X92590952Y-66681457D01*
X92638571Y-66729076D01*
X92733809Y-66776695D01*
X155027380Y-127751904D02*
X155836904Y-127751904D01*
X155932142Y-127704285D01*
X155979761Y-127656666D01*
X156027380Y-127561428D01*
X156027380Y-127370952D01*
X155979761Y-127275714D01*
X155932142Y-127228095D01*
X155836904Y-127180476D01*
X155027380Y-127180476D01*
X155122619Y-126751904D02*
X155075000Y-126704285D01*
X155027380Y-126609047D01*
X155027380Y-126370952D01*
X155075000Y-126275714D01*
X155122619Y-126228095D01*
X155217857Y-126180476D01*
X155313095Y-126180476D01*
X155455952Y-126228095D01*
X156027380Y-126799523D01*
X156027380Y-126180476D01*
X127384904Y-49856680D02*
X127384904Y-48856680D01*
X127623000Y-48856680D01*
X127765857Y-48904300D01*
X127861095Y-48999538D01*
X127908714Y-49094776D01*
X127956333Y-49285252D01*
X127956333Y-49428109D01*
X127908714Y-49618585D01*
X127861095Y-49713823D01*
X127765857Y-49809061D01*
X127623000Y-49856680D01*
X127384904Y-49856680D01*
X128289666Y-48856680D02*
X128908714Y-48856680D01*
X128575380Y-49237633D01*
X128718238Y-49237633D01*
X128813476Y-49285252D01*
X128861095Y-49332871D01*
X128908714Y-49428109D01*
X128908714Y-49666204D01*
X128861095Y-49761442D01*
X128813476Y-49809061D01*
X128718238Y-49856680D01*
X128432523Y-49856680D01*
X128337285Y-49809061D01*
X128289666Y-49761442D01*
X154900380Y-102351904D02*
X155709904Y-102351904D01*
X155805142Y-102304285D01*
X155852761Y-102256666D01*
X155900380Y-102161428D01*
X155900380Y-101970952D01*
X155852761Y-101875714D01*
X155805142Y-101828095D01*
X155709904Y-101780476D01*
X154900380Y-101780476D01*
X155900380Y-101256666D02*
X155900380Y-101066190D01*
X155852761Y-100970952D01*
X155805142Y-100923333D01*
X155662285Y-100828095D01*
X155471809Y-100780476D01*
X155090857Y-100780476D01*
X154995619Y-100828095D01*
X154948000Y-100875714D01*
X154900380Y-100970952D01*
X154900380Y-101161428D01*
X154948000Y-101256666D01*
X154995619Y-101304285D01*
X155090857Y-101351904D01*
X155328952Y-101351904D01*
X155424190Y-101304285D01*
X155471809Y-101256666D01*
X155519428Y-101161428D01*
X155519428Y-100970952D01*
X155471809Y-100875714D01*
X155424190Y-100828095D01*
X155328952Y-100780476D01*
X183678533Y-95194380D02*
X183345200Y-94718190D01*
X183107104Y-95194380D02*
X183107104Y-94194380D01*
X183488057Y-94194380D01*
X183583295Y-94242000D01*
X183630914Y-94289619D01*
X183678533Y-94384857D01*
X183678533Y-94527714D01*
X183630914Y-94622952D01*
X183583295Y-94670571D01*
X183488057Y-94718190D01*
X183107104Y-94718190D01*
X184535676Y-94194380D02*
X184345200Y-94194380D01*
X184249961Y-94242000D01*
X184202342Y-94289619D01*
X184107104Y-94432476D01*
X184059485Y-94622952D01*
X184059485Y-95003904D01*
X184107104Y-95099142D01*
X184154723Y-95146761D01*
X184249961Y-95194380D01*
X184440438Y-95194380D01*
X184535676Y-95146761D01*
X184583295Y-95099142D01*
X184630914Y-95003904D01*
X184630914Y-94765809D01*
X184583295Y-94670571D01*
X184535676Y-94622952D01*
X184440438Y-94575333D01*
X184249961Y-94575333D01*
X184154723Y-94622952D01*
X184107104Y-94670571D01*
X184059485Y-94765809D01*
X144184761Y-51531780D02*
X143851428Y-51055590D01*
X143613333Y-51531780D02*
X143613333Y-50531780D01*
X143994285Y-50531780D01*
X144089523Y-50579400D01*
X144137142Y-50627019D01*
X144184761Y-50722257D01*
X144184761Y-50865114D01*
X144137142Y-50960352D01*
X144089523Y-51007971D01*
X143994285Y-51055590D01*
X143613333Y-51055590D01*
X144470476Y-50531780D02*
X144803809Y-51531780D01*
X145137142Y-50531780D01*
X145994285Y-51531780D02*
X145422857Y-51531780D01*
X145708571Y-51531780D02*
X145708571Y-50531780D01*
X145613333Y-50674638D01*
X145518095Y-50769876D01*
X145422857Y-50817495D01*
X152249142Y-67952857D02*
X152296761Y-68000476D01*
X152344380Y-68143333D01*
X152344380Y-68238571D01*
X152296761Y-68381428D01*
X152201523Y-68476666D01*
X152106285Y-68524285D01*
X151915809Y-68571904D01*
X151772952Y-68571904D01*
X151582476Y-68524285D01*
X151487238Y-68476666D01*
X151392000Y-68381428D01*
X151344380Y-68238571D01*
X151344380Y-68143333D01*
X151392000Y-68000476D01*
X151439619Y-67952857D01*
X151439619Y-67571904D02*
X151392000Y-67524285D01*
X151344380Y-67429047D01*
X151344380Y-67190952D01*
X151392000Y-67095714D01*
X151439619Y-67048095D01*
X151534857Y-67000476D01*
X151630095Y-67000476D01*
X151772952Y-67048095D01*
X152344380Y-67619523D01*
X152344380Y-67000476D01*
X151439619Y-66619523D02*
X151392000Y-66571904D01*
X151344380Y-66476666D01*
X151344380Y-66238571D01*
X151392000Y-66143333D01*
X151439619Y-66095714D01*
X151534857Y-66048095D01*
X151630095Y-66048095D01*
X151772952Y-66095714D01*
X152344380Y-66667142D01*
X152344380Y-66048095D01*
X138152142Y-93231257D02*
X138199761Y-93278876D01*
X138247380Y-93421733D01*
X138247380Y-93516971D01*
X138199761Y-93659828D01*
X138104523Y-93755066D01*
X138009285Y-93802685D01*
X137818809Y-93850304D01*
X137675952Y-93850304D01*
X137485476Y-93802685D01*
X137390238Y-93755066D01*
X137295000Y-93659828D01*
X137247380Y-93516971D01*
X137247380Y-93421733D01*
X137295000Y-93278876D01*
X137342619Y-93231257D01*
X138247380Y-92278876D02*
X138247380Y-92850304D01*
X138247380Y-92564590D02*
X137247380Y-92564590D01*
X137390238Y-92659828D01*
X137485476Y-92755066D01*
X137533095Y-92850304D01*
X137247380Y-91945542D02*
X137247380Y-91278876D01*
X138247380Y-91707447D01*
X108942142Y-79572466D02*
X108989761Y-79620085D01*
X109037380Y-79762942D01*
X109037380Y-79858180D01*
X108989761Y-80001038D01*
X108894523Y-80096276D01*
X108799285Y-80143895D01*
X108608809Y-80191514D01*
X108465952Y-80191514D01*
X108275476Y-80143895D01*
X108180238Y-80096276D01*
X108085000Y-80001038D01*
X108037380Y-79858180D01*
X108037380Y-79762942D01*
X108085000Y-79620085D01*
X108132619Y-79572466D01*
X108465952Y-79001038D02*
X108418333Y-79096276D01*
X108370714Y-79143895D01*
X108275476Y-79191514D01*
X108227857Y-79191514D01*
X108132619Y-79143895D01*
X108085000Y-79096276D01*
X108037380Y-79001038D01*
X108037380Y-78810561D01*
X108085000Y-78715323D01*
X108132619Y-78667704D01*
X108227857Y-78620085D01*
X108275476Y-78620085D01*
X108370714Y-78667704D01*
X108418333Y-78715323D01*
X108465952Y-78810561D01*
X108465952Y-79001038D01*
X108513571Y-79096276D01*
X108561190Y-79143895D01*
X108656428Y-79191514D01*
X108846904Y-79191514D01*
X108942142Y-79143895D01*
X108989761Y-79096276D01*
X109037380Y-79001038D01*
X109037380Y-78810561D01*
X108989761Y-78715323D01*
X108942142Y-78667704D01*
X108846904Y-78620085D01*
X108656428Y-78620085D01*
X108561190Y-78667704D01*
X108513571Y-78715323D01*
X108465952Y-78810561D01*
X183678533Y-91638380D02*
X183345200Y-91162190D01*
X183107104Y-91638380D02*
X183107104Y-90638380D01*
X183488057Y-90638380D01*
X183583295Y-90686000D01*
X183630914Y-90733619D01*
X183678533Y-90828857D01*
X183678533Y-90971714D01*
X183630914Y-91066952D01*
X183583295Y-91114571D01*
X183488057Y-91162190D01*
X183107104Y-91162190D01*
X184535676Y-90971714D02*
X184535676Y-91638380D01*
X184297580Y-90590761D02*
X184059485Y-91305047D01*
X184678533Y-91305047D01*
X133437380Y-102341904D02*
X134246904Y-102341904D01*
X134342142Y-102294285D01*
X134389761Y-102246666D01*
X134437380Y-102151428D01*
X134437380Y-101960952D01*
X134389761Y-101865714D01*
X134342142Y-101818095D01*
X134246904Y-101770476D01*
X133437380Y-101770476D01*
X133437380Y-101389523D02*
X133437380Y-100722857D01*
X134437380Y-101151428D01*
X112133904Y-49856680D02*
X112133904Y-48856680D01*
X112372000Y-48856680D01*
X112514857Y-48904300D01*
X112610095Y-48999538D01*
X112657714Y-49094776D01*
X112705333Y-49285252D01*
X112705333Y-49428109D01*
X112657714Y-49618585D01*
X112610095Y-49713823D01*
X112514857Y-49809061D01*
X112372000Y-49856680D01*
X112133904Y-49856680D01*
X113181523Y-49856680D02*
X113372000Y-49856680D01*
X113467238Y-49809061D01*
X113514857Y-49761442D01*
X113610095Y-49618585D01*
X113657714Y-49428109D01*
X113657714Y-49047157D01*
X113610095Y-48951919D01*
X113562476Y-48904300D01*
X113467238Y-48856680D01*
X113276761Y-48856680D01*
X113181523Y-48904300D01*
X113133904Y-48951919D01*
X113086285Y-49047157D01*
X113086285Y-49285252D01*
X113133904Y-49380490D01*
X113181523Y-49428109D01*
X113276761Y-49475728D01*
X113467238Y-49475728D01*
X113562476Y-49428109D01*
X113610095Y-49380490D01*
X113657714Y-49285252D01*
X155027380Y-77428095D02*
X155836904Y-77428095D01*
X155932142Y-77380476D01*
X155979761Y-77332857D01*
X156027380Y-77237619D01*
X156027380Y-77047142D01*
X155979761Y-76951904D01*
X155932142Y-76904285D01*
X155836904Y-76856666D01*
X155027380Y-76856666D01*
X156027380Y-75856666D02*
X156027380Y-76428095D01*
X156027380Y-76142380D02*
X155027380Y-76142380D01*
X155170238Y-76237619D01*
X155265476Y-76332857D01*
X155313095Y-76428095D01*
X155027380Y-75237619D02*
X155027380Y-75142380D01*
X155075000Y-75047142D01*
X155122619Y-74999523D01*
X155217857Y-74951904D01*
X155408333Y-74904285D01*
X155646428Y-74904285D01*
X155836904Y-74951904D01*
X155932142Y-74999523D01*
X155979761Y-75047142D01*
X156027380Y-75142380D01*
X156027380Y-75237619D01*
X155979761Y-75332857D01*
X155932142Y-75380476D01*
X155836904Y-75428095D01*
X155646428Y-75475714D01*
X155408333Y-75475714D01*
X155217857Y-75428095D01*
X155122619Y-75380476D01*
X155075000Y-75332857D01*
X155027380Y-75237619D01*
X181530666Y-130262380D02*
X181530666Y-130976666D01*
X181483047Y-131119523D01*
X181387809Y-131214761D01*
X181244952Y-131262380D01*
X181149714Y-131262380D01*
X181959238Y-130357619D02*
X182006857Y-130310000D01*
X182102095Y-130262380D01*
X182340190Y-130262380D01*
X182435428Y-130310000D01*
X182483047Y-130357619D01*
X182530666Y-130452857D01*
X182530666Y-130548095D01*
X182483047Y-130690952D01*
X181911619Y-131262380D01*
X182530666Y-131262380D01*
X129881333Y-84177142D02*
X129833714Y-84224761D01*
X129690857Y-84272380D01*
X129595619Y-84272380D01*
X129452761Y-84224761D01*
X129357523Y-84129523D01*
X129309904Y-84034285D01*
X129262285Y-83843809D01*
X129262285Y-83700952D01*
X129309904Y-83510476D01*
X129357523Y-83415238D01*
X129452761Y-83320000D01*
X129595619Y-83272380D01*
X129690857Y-83272380D01*
X129833714Y-83320000D01*
X129881333Y-83367619D01*
X130214666Y-83272380D02*
X130881333Y-83272380D01*
X130452761Y-84272380D01*
X134409666Y-47823961D02*
X134552523Y-47871580D01*
X134790619Y-47871580D01*
X134885857Y-47823961D01*
X134933476Y-47776342D01*
X134981095Y-47681104D01*
X134981095Y-47585866D01*
X134933476Y-47490628D01*
X134885857Y-47443009D01*
X134790619Y-47395390D01*
X134600142Y-47347771D01*
X134504904Y-47300152D01*
X134457285Y-47252533D01*
X134409666Y-47157295D01*
X134409666Y-47062057D01*
X134457285Y-46966819D01*
X134504904Y-46919200D01*
X134600142Y-46871580D01*
X134838238Y-46871580D01*
X134981095Y-46919200D01*
X135314428Y-46871580D02*
X135552523Y-47871580D01*
X135743000Y-47157295D01*
X135933476Y-47871580D01*
X136171571Y-46871580D01*
X136504904Y-46966819D02*
X136552523Y-46919200D01*
X136647761Y-46871580D01*
X136885857Y-46871580D01*
X136981095Y-46919200D01*
X137028714Y-46966819D01*
X137076333Y-47062057D01*
X137076333Y-47157295D01*
X137028714Y-47300152D01*
X136457285Y-47871580D01*
X137076333Y-47871580D01*
X133447380Y-127761904D02*
X134256904Y-127761904D01*
X134352142Y-127714285D01*
X134399761Y-127666666D01*
X134447380Y-127571428D01*
X134447380Y-127380952D01*
X134399761Y-127285714D01*
X134352142Y-127238095D01*
X134256904Y-127190476D01*
X133447380Y-127190476D01*
X134447380Y-126190476D02*
X134447380Y-126761904D01*
X134447380Y-126476190D02*
X133447380Y-126476190D01*
X133590238Y-126571428D01*
X133685476Y-126666666D01*
X133733095Y-126761904D01*
X104719523Y-78303380D02*
X104386190Y-77827190D01*
X104148095Y-78303380D02*
X104148095Y-77303380D01*
X104529047Y-77303380D01*
X104624285Y-77351000D01*
X104671904Y-77398619D01*
X104719523Y-77493857D01*
X104719523Y-77636714D01*
X104671904Y-77731952D01*
X104624285Y-77779571D01*
X104529047Y-77827190D01*
X104148095Y-77827190D01*
X105148095Y-78303380D02*
X105148095Y-77303380D01*
X105719523Y-78303380D01*
X105719523Y-77303380D01*
X106148095Y-77398619D02*
X106195714Y-77351000D01*
X106290952Y-77303380D01*
X106529047Y-77303380D01*
X106624285Y-77351000D01*
X106671904Y-77398619D01*
X106719523Y-77493857D01*
X106719523Y-77589095D01*
X106671904Y-77731952D01*
X106100476Y-78303380D01*
X106719523Y-78303380D01*
X183602333Y-105862380D02*
X183269000Y-105386190D01*
X183030904Y-105862380D02*
X183030904Y-104862380D01*
X183411857Y-104862380D01*
X183507095Y-104910000D01*
X183554714Y-104957619D01*
X183602333Y-105052857D01*
X183602333Y-105195714D01*
X183554714Y-105290952D01*
X183507095Y-105338571D01*
X183411857Y-105386190D01*
X183030904Y-105386190D01*
X184554714Y-105862380D02*
X183983285Y-105862380D01*
X184269000Y-105862380D02*
X184269000Y-104862380D01*
X184173761Y-105005238D01*
X184078523Y-105100476D01*
X183983285Y-105148095D01*
X109069142Y-67952857D02*
X109116761Y-68000476D01*
X109164380Y-68143333D01*
X109164380Y-68238571D01*
X109116761Y-68381428D01*
X109021523Y-68476666D01*
X108926285Y-68524285D01*
X108735809Y-68571904D01*
X108592952Y-68571904D01*
X108402476Y-68524285D01*
X108307238Y-68476666D01*
X108212000Y-68381428D01*
X108164380Y-68238571D01*
X108164380Y-68143333D01*
X108212000Y-68000476D01*
X108259619Y-67952857D01*
X108259619Y-67571904D02*
X108212000Y-67524285D01*
X108164380Y-67429047D01*
X108164380Y-67190952D01*
X108212000Y-67095714D01*
X108259619Y-67048095D01*
X108354857Y-67000476D01*
X108450095Y-67000476D01*
X108592952Y-67048095D01*
X109164380Y-67619523D01*
X109164380Y-67000476D01*
X108164380Y-66381428D02*
X108164380Y-66286190D01*
X108212000Y-66190952D01*
X108259619Y-66143333D01*
X108354857Y-66095714D01*
X108545333Y-66048095D01*
X108783428Y-66048095D01*
X108973904Y-66095714D01*
X109069142Y-66143333D01*
X109116761Y-66190952D01*
X109164380Y-66286190D01*
X109164380Y-66381428D01*
X109116761Y-66476666D01*
X109069142Y-66524285D01*
X108973904Y-66571904D01*
X108783428Y-66619523D01*
X108545333Y-66619523D01*
X108354857Y-66571904D01*
X108259619Y-66524285D01*
X108212000Y-66476666D01*
X108164380Y-66381428D01*
X106402142Y-131325857D02*
X106449761Y-131373476D01*
X106497380Y-131516333D01*
X106497380Y-131611571D01*
X106449761Y-131754428D01*
X106354523Y-131849666D01*
X106259285Y-131897285D01*
X106068809Y-131944904D01*
X105925952Y-131944904D01*
X105735476Y-131897285D01*
X105640238Y-131849666D01*
X105545000Y-131754428D01*
X105497380Y-131611571D01*
X105497380Y-131516333D01*
X105545000Y-131373476D01*
X105592619Y-131325857D01*
X106497380Y-130373476D02*
X106497380Y-130944904D01*
X106497380Y-130659190D02*
X105497380Y-130659190D01*
X105640238Y-130754428D01*
X105735476Y-130849666D01*
X105783095Y-130944904D01*
X105497380Y-130040142D02*
X105497380Y-129421095D01*
X105878333Y-129754428D01*
X105878333Y-129611571D01*
X105925952Y-129516333D01*
X105973571Y-129468714D01*
X106068809Y-129421095D01*
X106306904Y-129421095D01*
X106402142Y-129468714D01*
X106449761Y-129516333D01*
X106497380Y-129611571D01*
X106497380Y-129897285D01*
X106449761Y-129992523D01*
X106402142Y-130040142D01*
X130659142Y-67851257D02*
X130706761Y-67898876D01*
X130754380Y-68041733D01*
X130754380Y-68136971D01*
X130706761Y-68279828D01*
X130611523Y-68375066D01*
X130516285Y-68422685D01*
X130325809Y-68470304D01*
X130182952Y-68470304D01*
X129992476Y-68422685D01*
X129897238Y-68375066D01*
X129802000Y-68279828D01*
X129754380Y-68136971D01*
X129754380Y-68041733D01*
X129802000Y-67898876D01*
X129849619Y-67851257D01*
X130754380Y-66898876D02*
X130754380Y-67470304D01*
X130754380Y-67184590D02*
X129754380Y-67184590D01*
X129897238Y-67279828D01*
X129992476Y-67375066D01*
X130040095Y-67470304D01*
X130182952Y-66327447D02*
X130135333Y-66422685D01*
X130087714Y-66470304D01*
X129992476Y-66517923D01*
X129944857Y-66517923D01*
X129849619Y-66470304D01*
X129802000Y-66422685D01*
X129754380Y-66327447D01*
X129754380Y-66136971D01*
X129802000Y-66041733D01*
X129849619Y-65994114D01*
X129944857Y-65946495D01*
X129992476Y-65946495D01*
X130087714Y-65994114D01*
X130135333Y-66041733D01*
X130182952Y-66136971D01*
X130182952Y-66327447D01*
X130230571Y-66422685D01*
X130278190Y-66470304D01*
X130373428Y-66517923D01*
X130563904Y-66517923D01*
X130659142Y-66470304D01*
X130706761Y-66422685D01*
X130754380Y-66327447D01*
X130754380Y-66136971D01*
X130706761Y-66041733D01*
X130659142Y-65994114D01*
X130563904Y-65946495D01*
X130373428Y-65946495D01*
X130278190Y-65994114D01*
X130230571Y-66041733D01*
X130182952Y-66136971D01*
X129982933Y-81637142D02*
X129935314Y-81684761D01*
X129792457Y-81732380D01*
X129697219Y-81732380D01*
X129554361Y-81684761D01*
X129459123Y-81589523D01*
X129411504Y-81494285D01*
X129363885Y-81303809D01*
X129363885Y-81160952D01*
X129411504Y-80970476D01*
X129459123Y-80875238D01*
X129554361Y-80780000D01*
X129697219Y-80732380D01*
X129792457Y-80732380D01*
X129935314Y-80780000D01*
X129982933Y-80827619D01*
X130840076Y-80732380D02*
X130649600Y-80732380D01*
X130554361Y-80780000D01*
X130506742Y-80827619D01*
X130411504Y-80970476D01*
X130363885Y-81160952D01*
X130363885Y-81541904D01*
X130411504Y-81637142D01*
X130459123Y-81684761D01*
X130554361Y-81732380D01*
X130744838Y-81732380D01*
X130840076Y-81684761D01*
X130887695Y-81637142D01*
X130935314Y-81541904D01*
X130935314Y-81303809D01*
X130887695Y-81208571D01*
X130840076Y-81160952D01*
X130744838Y-81113333D01*
X130554361Y-81113333D01*
X130459123Y-81160952D01*
X130411504Y-81208571D01*
X130363885Y-81303809D01*
X129982933Y-77807142D02*
X129935314Y-77854761D01*
X129792457Y-77902380D01*
X129697219Y-77902380D01*
X129554361Y-77854761D01*
X129459123Y-77759523D01*
X129411504Y-77664285D01*
X129363885Y-77473809D01*
X129363885Y-77330952D01*
X129411504Y-77140476D01*
X129459123Y-77045238D01*
X129554361Y-76950000D01*
X129697219Y-76902380D01*
X129792457Y-76902380D01*
X129935314Y-76950000D01*
X129982933Y-76997619D01*
X130840076Y-77235714D02*
X130840076Y-77902380D01*
X130601980Y-76854761D02*
X130363885Y-77569047D01*
X130982933Y-77569047D01*
X111842380Y-115051904D02*
X112651904Y-115051904D01*
X112747142Y-115004285D01*
X112794761Y-114956666D01*
X112842380Y-114861428D01*
X112842380Y-114670952D01*
X112794761Y-114575714D01*
X112747142Y-114528095D01*
X112651904Y-114480476D01*
X111842380Y-114480476D01*
X112270952Y-113861428D02*
X112223333Y-113956666D01*
X112175714Y-114004285D01*
X112080476Y-114051904D01*
X112032857Y-114051904D01*
X111937619Y-114004285D01*
X111890000Y-113956666D01*
X111842380Y-113861428D01*
X111842380Y-113670952D01*
X111890000Y-113575714D01*
X111937619Y-113528095D01*
X112032857Y-113480476D01*
X112080476Y-113480476D01*
X112175714Y-113528095D01*
X112223333Y-113575714D01*
X112270952Y-113670952D01*
X112270952Y-113861428D01*
X112318571Y-113956666D01*
X112366190Y-114004285D01*
X112461428Y-114051904D01*
X112651904Y-114051904D01*
X112747142Y-114004285D01*
X112794761Y-113956666D01*
X112842380Y-113861428D01*
X112842380Y-113670952D01*
X112794761Y-113575714D01*
X112747142Y-113528095D01*
X112651904Y-113480476D01*
X112461428Y-113480476D01*
X112366190Y-113528095D01*
X112318571Y-113575714D01*
X112270952Y-113670952D01*
X93114761Y-84111933D02*
X93162380Y-83969076D01*
X93162380Y-83730980D01*
X93114761Y-83635742D01*
X93067142Y-83588123D01*
X92971904Y-83540504D01*
X92876666Y-83540504D01*
X92781428Y-83588123D01*
X92733809Y-83635742D01*
X92686190Y-83730980D01*
X92638571Y-83921457D01*
X92590952Y-84016695D01*
X92543333Y-84064314D01*
X92448095Y-84111933D01*
X92352857Y-84111933D01*
X92257619Y-84064314D01*
X92210000Y-84016695D01*
X92162380Y-83921457D01*
X92162380Y-83683361D01*
X92210000Y-83540504D01*
X92162380Y-83207171D02*
X93162380Y-82969076D01*
X92448095Y-82778600D01*
X93162380Y-82588123D01*
X92162380Y-82350028D01*
X92162380Y-81492885D02*
X92162380Y-81969076D01*
X92638571Y-82016695D01*
X92590952Y-81969076D01*
X92543333Y-81873838D01*
X92543333Y-81635742D01*
X92590952Y-81540504D01*
X92638571Y-81492885D01*
X92733809Y-81445266D01*
X92971904Y-81445266D01*
X93067142Y-81492885D01*
X93114761Y-81540504D01*
X93162380Y-81635742D01*
X93162380Y-81873838D01*
X93114761Y-81969076D01*
X93067142Y-82016695D01*
X138152142Y-80480457D02*
X138199761Y-80528076D01*
X138247380Y-80670933D01*
X138247380Y-80766171D01*
X138199761Y-80909028D01*
X138104523Y-81004266D01*
X138009285Y-81051885D01*
X137818809Y-81099504D01*
X137675952Y-81099504D01*
X137485476Y-81051885D01*
X137390238Y-81004266D01*
X137295000Y-80909028D01*
X137247380Y-80766171D01*
X137247380Y-80670933D01*
X137295000Y-80528076D01*
X137342619Y-80480457D01*
X138247380Y-79528076D02*
X138247380Y-80099504D01*
X138247380Y-79813790D02*
X137247380Y-79813790D01*
X137390238Y-79909028D01*
X137485476Y-80004266D01*
X137533095Y-80099504D01*
X137247380Y-78623314D02*
X137247380Y-79099504D01*
X137723571Y-79147123D01*
X137675952Y-79099504D01*
X137628333Y-79004266D01*
X137628333Y-78766171D01*
X137675952Y-78670933D01*
X137723571Y-78623314D01*
X137818809Y-78575695D01*
X138056904Y-78575695D01*
X138152142Y-78623314D01*
X138199761Y-78670933D01*
X138247380Y-78766171D01*
X138247380Y-79004266D01*
X138199761Y-79099504D01*
X138152142Y-79147123D01*
X130532142Y-105905857D02*
X130579761Y-105953476D01*
X130627380Y-106096333D01*
X130627380Y-106191571D01*
X130579761Y-106334428D01*
X130484523Y-106429666D01*
X130389285Y-106477285D01*
X130198809Y-106524904D01*
X130055952Y-106524904D01*
X129865476Y-106477285D01*
X129770238Y-106429666D01*
X129675000Y-106334428D01*
X129627380Y-106191571D01*
X129627380Y-106096333D01*
X129675000Y-105953476D01*
X129722619Y-105905857D01*
X130627380Y-104953476D02*
X130627380Y-105524904D01*
X130627380Y-105239190D02*
X129627380Y-105239190D01*
X129770238Y-105334428D01*
X129865476Y-105429666D01*
X129913095Y-105524904D01*
X130627380Y-104477285D02*
X130627380Y-104286809D01*
X130579761Y-104191571D01*
X130532142Y-104143952D01*
X130389285Y-104048714D01*
X130198809Y-104001095D01*
X129817857Y-104001095D01*
X129722619Y-104048714D01*
X129675000Y-104096333D01*
X129627380Y-104191571D01*
X129627380Y-104382047D01*
X129675000Y-104477285D01*
X129722619Y-104524904D01*
X129817857Y-104572523D01*
X130055952Y-104572523D01*
X130151190Y-104524904D01*
X130198809Y-104477285D01*
X130246428Y-104382047D01*
X130246428Y-104191571D01*
X130198809Y-104096333D01*
X130151190Y-104048714D01*
X130055952Y-104001095D01*
X93114761Y-114591933D02*
X93162380Y-114449076D01*
X93162380Y-114210980D01*
X93114761Y-114115742D01*
X93067142Y-114068123D01*
X92971904Y-114020504D01*
X92876666Y-114020504D01*
X92781428Y-114068123D01*
X92733809Y-114115742D01*
X92686190Y-114210980D01*
X92638571Y-114401457D01*
X92590952Y-114496695D01*
X92543333Y-114544314D01*
X92448095Y-114591933D01*
X92352857Y-114591933D01*
X92257619Y-114544314D01*
X92210000Y-114496695D01*
X92162380Y-114401457D01*
X92162380Y-114163361D01*
X92210000Y-114020504D01*
X92162380Y-113687171D02*
X93162380Y-113449076D01*
X92448095Y-113258600D01*
X93162380Y-113068123D01*
X92162380Y-112830028D01*
X92590952Y-112306219D02*
X92543333Y-112401457D01*
X92495714Y-112449076D01*
X92400476Y-112496695D01*
X92352857Y-112496695D01*
X92257619Y-112449076D01*
X92210000Y-112401457D01*
X92162380Y-112306219D01*
X92162380Y-112115742D01*
X92210000Y-112020504D01*
X92257619Y-111972885D01*
X92352857Y-111925266D01*
X92400476Y-111925266D01*
X92495714Y-111972885D01*
X92543333Y-112020504D01*
X92590952Y-112115742D01*
X92590952Y-112306219D01*
X92638571Y-112401457D01*
X92686190Y-112449076D01*
X92781428Y-112496695D01*
X92971904Y-112496695D01*
X93067142Y-112449076D01*
X93114761Y-112401457D01*
X93162380Y-112306219D01*
X93162380Y-112115742D01*
X93114761Y-112020504D01*
X93067142Y-111972885D01*
X92971904Y-111925266D01*
X92781428Y-111925266D01*
X92686190Y-111972885D01*
X92638571Y-112020504D01*
X92590952Y-112115742D01*
X155017380Y-90108095D02*
X155826904Y-90108095D01*
X155922142Y-90060476D01*
X155969761Y-90012857D01*
X156017380Y-89917619D01*
X156017380Y-89727142D01*
X155969761Y-89631904D01*
X155922142Y-89584285D01*
X155826904Y-89536666D01*
X155017380Y-89536666D01*
X156017380Y-88536666D02*
X156017380Y-89108095D01*
X156017380Y-88822380D02*
X155017380Y-88822380D01*
X155160238Y-88917619D01*
X155255476Y-89012857D01*
X155303095Y-89108095D01*
X155017380Y-87679523D02*
X155017380Y-87870000D01*
X155065000Y-87965238D01*
X155112619Y-88012857D01*
X155255476Y-88108095D01*
X155445952Y-88155714D01*
X155826904Y-88155714D01*
X155922142Y-88108095D01*
X155969761Y-88060476D01*
X156017380Y-87965238D01*
X156017380Y-87774761D01*
X155969761Y-87679523D01*
X155922142Y-87631904D01*
X155826904Y-87584285D01*
X155588809Y-87584285D01*
X155493571Y-87631904D01*
X155445952Y-87679523D01*
X155398333Y-87774761D01*
X155398333Y-87965238D01*
X155445952Y-88060476D01*
X155493571Y-88108095D01*
X155588809Y-88155714D01*
X103899266Y-47802461D02*
X104042123Y-47850080D01*
X104280219Y-47850080D01*
X104375457Y-47802461D01*
X104423076Y-47754842D01*
X104470695Y-47659604D01*
X104470695Y-47564366D01*
X104423076Y-47469128D01*
X104375457Y-47421509D01*
X104280219Y-47373890D01*
X104089742Y-47326271D01*
X103994504Y-47278652D01*
X103946885Y-47231033D01*
X103899266Y-47135795D01*
X103899266Y-47040557D01*
X103946885Y-46945319D01*
X103994504Y-46897700D01*
X104089742Y-46850080D01*
X104327838Y-46850080D01*
X104470695Y-46897700D01*
X104804028Y-46850080D02*
X105042123Y-47850080D01*
X105232600Y-47135795D01*
X105423076Y-47850080D01*
X105661171Y-46850080D01*
X106565933Y-47850080D02*
X105994504Y-47850080D01*
X106280219Y-47850080D02*
X106280219Y-46850080D01*
X106184980Y-46992938D01*
X106089742Y-47088176D01*
X105994504Y-47135795D01*
X130542142Y-131452857D02*
X130589761Y-131500476D01*
X130637380Y-131643333D01*
X130637380Y-131738571D01*
X130589761Y-131881428D01*
X130494523Y-131976666D01*
X130399285Y-132024285D01*
X130208809Y-132071904D01*
X130065952Y-132071904D01*
X129875476Y-132024285D01*
X129780238Y-131976666D01*
X129685000Y-131881428D01*
X129637380Y-131738571D01*
X129637380Y-131643333D01*
X129685000Y-131500476D01*
X129732619Y-131452857D01*
X129732619Y-131071904D02*
X129685000Y-131024285D01*
X129637380Y-130929047D01*
X129637380Y-130690952D01*
X129685000Y-130595714D01*
X129732619Y-130548095D01*
X129827857Y-130500476D01*
X129923095Y-130500476D01*
X130065952Y-130548095D01*
X130637380Y-131119523D01*
X130637380Y-130500476D01*
X129637380Y-130167142D02*
X129637380Y-129548095D01*
X130018333Y-129881428D01*
X130018333Y-129738571D01*
X130065952Y-129643333D01*
X130113571Y-129595714D01*
X130208809Y-129548095D01*
X130446904Y-129548095D01*
X130542142Y-129595714D01*
X130589761Y-129643333D01*
X130637380Y-129738571D01*
X130637380Y-130024285D01*
X130589761Y-130119523D01*
X130542142Y-130167142D01*
X129659142Y-87574380D02*
X129325809Y-87098190D01*
X129087714Y-87574380D02*
X129087714Y-86574380D01*
X129468666Y-86574380D01*
X129563904Y-86622000D01*
X129611523Y-86669619D01*
X129659142Y-86764857D01*
X129659142Y-86907714D01*
X129611523Y-87002952D01*
X129563904Y-87050571D01*
X129468666Y-87098190D01*
X129087714Y-87098190D01*
X130040095Y-87526761D02*
X130182952Y-87574380D01*
X130421047Y-87574380D01*
X130516285Y-87526761D01*
X130563904Y-87479142D01*
X130611523Y-87383904D01*
X130611523Y-87288666D01*
X130563904Y-87193428D01*
X130516285Y-87145809D01*
X130421047Y-87098190D01*
X130230571Y-87050571D01*
X130135333Y-87002952D01*
X130087714Y-86955333D01*
X130040095Y-86860095D01*
X130040095Y-86764857D01*
X130087714Y-86669619D01*
X130135333Y-86622000D01*
X130230571Y-86574380D01*
X130468666Y-86574380D01*
X130611523Y-86622000D01*
X131563904Y-87574380D02*
X130992476Y-87574380D01*
X131278190Y-87574380D02*
X131278190Y-86574380D01*
X131182952Y-86717238D01*
X131087714Y-86812476D01*
X130992476Y-86860095D01*
X143970476Y-86955380D02*
X144637142Y-87955380D01*
X144637142Y-86955380D02*
X143970476Y-87955380D01*
X145541904Y-87955380D02*
X144970476Y-87955380D01*
X145256190Y-87955380D02*
X145256190Y-86955380D01*
X145160952Y-87098238D01*
X145065714Y-87193476D01*
X144970476Y-87241095D01*
X183678533Y-66746380D02*
X183345200Y-66270190D01*
X183107104Y-66746380D02*
X183107104Y-65746380D01*
X183488057Y-65746380D01*
X183583295Y-65794000D01*
X183630914Y-65841619D01*
X183678533Y-65936857D01*
X183678533Y-66079714D01*
X183630914Y-66174952D01*
X183583295Y-66222571D01*
X183488057Y-66270190D01*
X183107104Y-66270190D01*
X184583295Y-65746380D02*
X184107104Y-65746380D01*
X184059485Y-66222571D01*
X184107104Y-66174952D01*
X184202342Y-66127333D01*
X184440438Y-66127333D01*
X184535676Y-66174952D01*
X184583295Y-66222571D01*
X184630914Y-66317809D01*
X184630914Y-66555904D01*
X184583295Y-66651142D01*
X184535676Y-66698761D01*
X184440438Y-66746380D01*
X184202342Y-66746380D01*
X184107104Y-66698761D01*
X184059485Y-66651142D01*
X109317380Y-128228095D02*
X110126904Y-128228095D01*
X110222142Y-128180476D01*
X110269761Y-128132857D01*
X110317380Y-128037619D01*
X110317380Y-127847142D01*
X110269761Y-127751904D01*
X110222142Y-127704285D01*
X110126904Y-127656666D01*
X109317380Y-127656666D01*
X110317380Y-126656666D02*
X110317380Y-127228095D01*
X110317380Y-126942380D02*
X109317380Y-126942380D01*
X109460238Y-127037619D01*
X109555476Y-127132857D01*
X109603095Y-127228095D01*
X109317380Y-126323333D02*
X109317380Y-125656666D01*
X110317380Y-126085238D01*
X163959904Y-49855380D02*
X163959904Y-48855380D01*
X164198000Y-48855380D01*
X164340857Y-48903000D01*
X164436095Y-48998238D01*
X164483714Y-49093476D01*
X164531333Y-49283952D01*
X164531333Y-49426809D01*
X164483714Y-49617285D01*
X164436095Y-49712523D01*
X164340857Y-49807761D01*
X164198000Y-49855380D01*
X163959904Y-49855380D01*
X165388476Y-49188714D02*
X165388476Y-49855380D01*
X165150380Y-48807761D02*
X164912285Y-49522047D01*
X165531333Y-49522047D01*
X169039904Y-49855380D02*
X169039904Y-48855380D01*
X169278000Y-48855380D01*
X169420857Y-48903000D01*
X169516095Y-48998238D01*
X169563714Y-49093476D01*
X169611333Y-49283952D01*
X169611333Y-49426809D01*
X169563714Y-49617285D01*
X169516095Y-49712523D01*
X169420857Y-49807761D01*
X169278000Y-49855380D01*
X169039904Y-49855380D01*
X170516095Y-48855380D02*
X170039904Y-48855380D01*
X169992285Y-49331571D01*
X170039904Y-49283952D01*
X170135142Y-49236333D01*
X170373238Y-49236333D01*
X170468476Y-49283952D01*
X170516095Y-49331571D01*
X170563714Y-49426809D01*
X170563714Y-49664904D01*
X170516095Y-49760142D01*
X170468476Y-49807761D01*
X170373238Y-49855380D01*
X170135142Y-49855380D01*
X170039904Y-49807761D01*
X169992285Y-49760142D01*
X133437380Y-64728095D02*
X134246904Y-64728095D01*
X134342142Y-64680476D01*
X134389761Y-64632857D01*
X134437380Y-64537619D01*
X134437380Y-64347142D01*
X134389761Y-64251904D01*
X134342142Y-64204285D01*
X134246904Y-64156666D01*
X133437380Y-64156666D01*
X134437380Y-63156666D02*
X134437380Y-63728095D01*
X134437380Y-63442380D02*
X133437380Y-63442380D01*
X133580238Y-63537619D01*
X133675476Y-63632857D01*
X133723095Y-63728095D01*
X133437380Y-62823333D02*
X133437380Y-62204285D01*
X133818333Y-62537619D01*
X133818333Y-62394761D01*
X133865952Y-62299523D01*
X133913571Y-62251904D01*
X134008809Y-62204285D01*
X134246904Y-62204285D01*
X134342142Y-62251904D01*
X134389761Y-62299523D01*
X134437380Y-62394761D01*
X134437380Y-62680476D01*
X134389761Y-62775714D01*
X134342142Y-62823333D01*
X182719742Y-70175380D02*
X182386409Y-69699190D01*
X182148314Y-70175380D02*
X182148314Y-69175380D01*
X182529266Y-69175380D01*
X182624504Y-69223000D01*
X182672123Y-69270619D01*
X182719742Y-69365857D01*
X182719742Y-69508714D01*
X182672123Y-69603952D01*
X182624504Y-69651571D01*
X182529266Y-69699190D01*
X182148314Y-69699190D01*
X183672123Y-70175380D02*
X183100695Y-70175380D01*
X183386409Y-70175380D02*
X183386409Y-69175380D01*
X183291171Y-69318238D01*
X183195933Y-69413476D01*
X183100695Y-69461095D01*
X184529266Y-69508714D02*
X184529266Y-70175380D01*
X184291171Y-69127761D02*
X184053076Y-69842047D01*
X184672123Y-69842047D01*
X179199904Y-49855380D02*
X179199904Y-48855380D01*
X179438000Y-48855380D01*
X179580857Y-48903000D01*
X179676095Y-48998238D01*
X179723714Y-49093476D01*
X179771333Y-49283952D01*
X179771333Y-49426809D01*
X179723714Y-49617285D01*
X179676095Y-49712523D01*
X179580857Y-49807761D01*
X179438000Y-49855380D01*
X179199904Y-49855380D01*
X180104666Y-48855380D02*
X180771333Y-48855380D01*
X180342761Y-49855380D01*
X111847380Y-76931904D02*
X112656904Y-76931904D01*
X112752142Y-76884285D01*
X112799761Y-76836666D01*
X112847380Y-76741428D01*
X112847380Y-76550952D01*
X112799761Y-76455714D01*
X112752142Y-76408095D01*
X112656904Y-76360476D01*
X111847380Y-76360476D01*
X112180714Y-75455714D02*
X112847380Y-75455714D01*
X111799761Y-75693809D02*
X112514047Y-75931904D01*
X112514047Y-75312857D01*
X141062380Y-77408095D02*
X141871904Y-77408095D01*
X141967142Y-77360476D01*
X142014761Y-77312857D01*
X142062380Y-77217619D01*
X142062380Y-77027142D01*
X142014761Y-76931904D01*
X141967142Y-76884285D01*
X141871904Y-76836666D01*
X141062380Y-76836666D01*
X142062380Y-75836666D02*
X142062380Y-76408095D01*
X142062380Y-76122380D02*
X141062380Y-76122380D01*
X141205238Y-76217619D01*
X141300476Y-76312857D01*
X141348095Y-76408095D01*
X141157619Y-75455714D02*
X141110000Y-75408095D01*
X141062380Y-75312857D01*
X141062380Y-75074761D01*
X141110000Y-74979523D01*
X141157619Y-74931904D01*
X141252857Y-74884285D01*
X141348095Y-74884285D01*
X141490952Y-74931904D01*
X142062380Y-75503333D01*
X142062380Y-74884285D01*
X152132142Y-130341666D02*
X152179761Y-130389285D01*
X152227380Y-130532142D01*
X152227380Y-130627380D01*
X152179761Y-130770238D01*
X152084523Y-130865476D01*
X151989285Y-130913095D01*
X151798809Y-130960714D01*
X151655952Y-130960714D01*
X151465476Y-130913095D01*
X151370238Y-130865476D01*
X151275000Y-130770238D01*
X151227380Y-130627380D01*
X151227380Y-130532142D01*
X151275000Y-130389285D01*
X151322619Y-130341666D01*
X152227380Y-129389285D02*
X152227380Y-129960714D01*
X152227380Y-129675000D02*
X151227380Y-129675000D01*
X151370238Y-129770238D01*
X151465476Y-129865476D01*
X151513095Y-129960714D01*
X183627733Y-63190380D02*
X183294400Y-62714190D01*
X183056304Y-63190380D02*
X183056304Y-62190380D01*
X183437257Y-62190380D01*
X183532495Y-62238000D01*
X183580114Y-62285619D01*
X183627733Y-62380857D01*
X183627733Y-62523714D01*
X183580114Y-62618952D01*
X183532495Y-62666571D01*
X183437257Y-62714190D01*
X183056304Y-62714190D01*
X183961066Y-62190380D02*
X184627733Y-62190380D01*
X184199161Y-63190380D01*
X133437380Y-115071904D02*
X134246904Y-115071904D01*
X134342142Y-115024285D01*
X134389761Y-114976666D01*
X134437380Y-114881428D01*
X134437380Y-114690952D01*
X134389761Y-114595714D01*
X134342142Y-114548095D01*
X134246904Y-114500476D01*
X133437380Y-114500476D01*
X133437380Y-113595714D02*
X133437380Y-113786190D01*
X133485000Y-113881428D01*
X133532619Y-113929047D01*
X133675476Y-114024285D01*
X133865952Y-114071904D01*
X134246904Y-114071904D01*
X134342142Y-114024285D01*
X134389761Y-113976666D01*
X134437380Y-113881428D01*
X134437380Y-113690952D01*
X134389761Y-113595714D01*
X134342142Y-113548095D01*
X134246904Y-113500476D01*
X134008809Y-113500476D01*
X133913571Y-113548095D01*
X133865952Y-113595714D01*
X133818333Y-113690952D01*
X133818333Y-113881428D01*
X133865952Y-113976666D01*
X133913571Y-114024285D01*
X134008809Y-114071904D01*
X152122142Y-105880457D02*
X152169761Y-105928076D01*
X152217380Y-106070933D01*
X152217380Y-106166171D01*
X152169761Y-106309028D01*
X152074523Y-106404266D01*
X151979285Y-106451885D01*
X151788809Y-106499504D01*
X151645952Y-106499504D01*
X151455476Y-106451885D01*
X151360238Y-106404266D01*
X151265000Y-106309028D01*
X151217380Y-106166171D01*
X151217380Y-106070933D01*
X151265000Y-105928076D01*
X151312619Y-105880457D01*
X152217380Y-104928076D02*
X152217380Y-105499504D01*
X152217380Y-105213790D02*
X151217380Y-105213790D01*
X151360238Y-105309028D01*
X151455476Y-105404266D01*
X151503095Y-105499504D01*
X151550714Y-104070933D02*
X152217380Y-104070933D01*
X151169761Y-104309028D02*
X151884047Y-104547123D01*
X151884047Y-103928076D01*
X182745142Y-84526380D02*
X182411809Y-84050190D01*
X182173714Y-84526380D02*
X182173714Y-83526380D01*
X182554666Y-83526380D01*
X182649904Y-83574000D01*
X182697523Y-83621619D01*
X182745142Y-83716857D01*
X182745142Y-83859714D01*
X182697523Y-83954952D01*
X182649904Y-84002571D01*
X182554666Y-84050190D01*
X182173714Y-84050190D01*
X183697523Y-84526380D02*
X183126095Y-84526380D01*
X183411809Y-84526380D02*
X183411809Y-83526380D01*
X183316571Y-83669238D01*
X183221333Y-83764476D01*
X183126095Y-83812095D01*
X184316571Y-83526380D02*
X184411809Y-83526380D01*
X184507047Y-83574000D01*
X184554666Y-83621619D01*
X184602285Y-83716857D01*
X184649904Y-83907333D01*
X184649904Y-84145428D01*
X184602285Y-84335904D01*
X184554666Y-84431142D01*
X184507047Y-84478761D01*
X184411809Y-84526380D01*
X184316571Y-84526380D01*
X184221333Y-84478761D01*
X184173714Y-84431142D01*
X184126095Y-84335904D01*
X184078476Y-84145428D01*
X184078476Y-83907333D01*
X184126095Y-83716857D01*
X184173714Y-83621619D01*
X184221333Y-83574000D01*
X184316571Y-83526380D01*
X152122142Y-80505857D02*
X152169761Y-80553476D01*
X152217380Y-80696333D01*
X152217380Y-80791571D01*
X152169761Y-80934428D01*
X152074523Y-81029666D01*
X151979285Y-81077285D01*
X151788809Y-81124904D01*
X151645952Y-81124904D01*
X151455476Y-81077285D01*
X151360238Y-81029666D01*
X151265000Y-80934428D01*
X151217380Y-80791571D01*
X151217380Y-80696333D01*
X151265000Y-80553476D01*
X151312619Y-80505857D01*
X152217380Y-79553476D02*
X152217380Y-80124904D01*
X152217380Y-79839190D02*
X151217380Y-79839190D01*
X151360238Y-79934428D01*
X151455476Y-80029666D01*
X151503095Y-80124904D01*
X151217380Y-78934428D02*
X151217380Y-78839190D01*
X151265000Y-78743952D01*
X151312619Y-78696333D01*
X151407857Y-78648714D01*
X151598333Y-78601095D01*
X151836428Y-78601095D01*
X152026904Y-78648714D01*
X152122142Y-78696333D01*
X152169761Y-78743952D01*
X152217380Y-78839190D01*
X152217380Y-78934428D01*
X152169761Y-79029666D01*
X152122142Y-79077285D01*
X152026904Y-79124904D01*
X151836428Y-79172523D01*
X151598333Y-79172523D01*
X151407857Y-79124904D01*
X151312619Y-79077285D01*
X151265000Y-79029666D01*
X151217380Y-78934428D01*
X155027380Y-115538095D02*
X155836904Y-115538095D01*
X155932142Y-115490476D01*
X155979761Y-115442857D01*
X156027380Y-115347619D01*
X156027380Y-115157142D01*
X155979761Y-115061904D01*
X155932142Y-115014285D01*
X155836904Y-114966666D01*
X155027380Y-114966666D01*
X156027380Y-113966666D02*
X156027380Y-114538095D01*
X156027380Y-114252380D02*
X155027380Y-114252380D01*
X155170238Y-114347619D01*
X155265476Y-114442857D01*
X155313095Y-114538095D01*
X155360714Y-113109523D02*
X156027380Y-113109523D01*
X154979761Y-113347619D02*
X155694047Y-113585714D01*
X155694047Y-112966666D01*
X109069142Y-118676657D02*
X109116761Y-118724276D01*
X109164380Y-118867133D01*
X109164380Y-118962371D01*
X109116761Y-119105228D01*
X109021523Y-119200466D01*
X108926285Y-119248085D01*
X108735809Y-119295704D01*
X108592952Y-119295704D01*
X108402476Y-119248085D01*
X108307238Y-119200466D01*
X108212000Y-119105228D01*
X108164380Y-118962371D01*
X108164380Y-118867133D01*
X108212000Y-118724276D01*
X108259619Y-118676657D01*
X108259619Y-118295704D02*
X108212000Y-118248085D01*
X108164380Y-118152847D01*
X108164380Y-117914752D01*
X108212000Y-117819514D01*
X108259619Y-117771895D01*
X108354857Y-117724276D01*
X108450095Y-117724276D01*
X108592952Y-117771895D01*
X109164380Y-118343323D01*
X109164380Y-117724276D01*
X108497714Y-116867133D02*
X109164380Y-116867133D01*
X108116761Y-117105228D02*
X108831047Y-117343323D01*
X108831047Y-116724276D01*
X108942142Y-105905857D02*
X108989761Y-105953476D01*
X109037380Y-106096333D01*
X109037380Y-106191571D01*
X108989761Y-106334428D01*
X108894523Y-106429666D01*
X108799285Y-106477285D01*
X108608809Y-106524904D01*
X108465952Y-106524904D01*
X108275476Y-106477285D01*
X108180238Y-106429666D01*
X108085000Y-106334428D01*
X108037380Y-106191571D01*
X108037380Y-106096333D01*
X108085000Y-105953476D01*
X108132619Y-105905857D01*
X109037380Y-104953476D02*
X109037380Y-105524904D01*
X109037380Y-105239190D02*
X108037380Y-105239190D01*
X108180238Y-105334428D01*
X108275476Y-105429666D01*
X108323095Y-105524904D01*
X109037380Y-104001095D02*
X109037380Y-104572523D01*
X109037380Y-104286809D02*
X108037380Y-104286809D01*
X108180238Y-104382047D01*
X108275476Y-104477285D01*
X108323095Y-104572523D01*
X96904904Y-49855380D02*
X96904904Y-48855380D01*
X97143000Y-48855380D01*
X97285857Y-48903000D01*
X97381095Y-48998238D01*
X97428714Y-49093476D01*
X97476333Y-49283952D01*
X97476333Y-49426809D01*
X97428714Y-49617285D01*
X97381095Y-49712523D01*
X97285857Y-49807761D01*
X97143000Y-49855380D01*
X96904904Y-49855380D01*
X98428714Y-49855380D02*
X97857285Y-49855380D01*
X98143000Y-49855380D02*
X98143000Y-48855380D01*
X98047761Y-48998238D01*
X97952523Y-49093476D01*
X97857285Y-49141095D01*
X183602333Y-73883780D02*
X183269000Y-73407590D01*
X183030904Y-73883780D02*
X183030904Y-72883780D01*
X183411857Y-72883780D01*
X183507095Y-72931400D01*
X183554714Y-72979019D01*
X183602333Y-73074257D01*
X183602333Y-73217114D01*
X183554714Y-73312352D01*
X183507095Y-73359971D01*
X183411857Y-73407590D01*
X183030904Y-73407590D01*
X183983285Y-72979019D02*
X184030904Y-72931400D01*
X184126142Y-72883780D01*
X184364238Y-72883780D01*
X184459476Y-72931400D01*
X184507095Y-72979019D01*
X184554714Y-73074257D01*
X184554714Y-73169495D01*
X184507095Y-73312352D01*
X183935666Y-73883780D01*
X184554714Y-73883780D01*
X148719904Y-49855380D02*
X148719904Y-48855380D01*
X148958000Y-48855380D01*
X149100857Y-48903000D01*
X149196095Y-48998238D01*
X149243714Y-49093476D01*
X149291333Y-49283952D01*
X149291333Y-49426809D01*
X149243714Y-49617285D01*
X149196095Y-49712523D01*
X149100857Y-49807761D01*
X148958000Y-49855380D01*
X148719904Y-49855380D01*
X149672285Y-48950619D02*
X149719904Y-48903000D01*
X149815142Y-48855380D01*
X150053238Y-48855380D01*
X150148476Y-48903000D01*
X150196095Y-48950619D01*
X150243714Y-49045857D01*
X150243714Y-49141095D01*
X150196095Y-49283952D01*
X149624666Y-49855380D01*
X150243714Y-49855380D01*
X182745142Y-80970380D02*
X182411809Y-80494190D01*
X182173714Y-80970380D02*
X182173714Y-79970380D01*
X182554666Y-79970380D01*
X182649904Y-80018000D01*
X182697523Y-80065619D01*
X182745142Y-80160857D01*
X182745142Y-80303714D01*
X182697523Y-80398952D01*
X182649904Y-80446571D01*
X182554666Y-80494190D01*
X182173714Y-80494190D01*
X183697523Y-80970380D02*
X183126095Y-80970380D01*
X183411809Y-80970380D02*
X183411809Y-79970380D01*
X183316571Y-80113238D01*
X183221333Y-80208476D01*
X183126095Y-80256095D01*
X184649904Y-80970380D02*
X184078476Y-80970380D01*
X184364190Y-80970380D02*
X184364190Y-79970380D01*
X184268952Y-80113238D01*
X184173714Y-80208476D01*
X184078476Y-80256095D01*
D11*
X184880000Y-78332000D02*
X184880000Y-75592000D01*
X184880000Y-75592000D02*
X178340000Y-75592000D01*
X178340000Y-78332000D02*
X184880000Y-78332000D01*
X177570000Y-76962000D02*
X178340000Y-76962000D01*
X178340000Y-75592000D02*
X178340000Y-78332000D01*
X185650000Y-76962000D02*
X184880000Y-76962000D01*
X128385000Y-58350000D02*
X110365000Y-58350000D01*
X110365000Y-58350000D02*
X110365000Y-68630000D01*
X128385000Y-68630000D02*
X128385000Y-58350000D01*
X128325000Y-66140000D02*
X128325000Y-60840000D01*
X110425000Y-60840000D02*
X110425000Y-62490000D01*
X110425000Y-66140000D02*
X128325000Y-66140000D01*
X128325000Y-60840000D02*
X110425000Y-60840000D01*
X110365000Y-68630000D02*
X128385000Y-68630000D01*
X110425000Y-64490000D02*
X110425000Y-66140000D01*
X110425000Y-64490000D02*
G75*
G03*
X110425000Y-62490000I0J1000000D01*
G01*
X93936000Y-128299600D02*
X93936000Y-127899600D01*
X95056000Y-127899600D02*
X95056000Y-128299600D01*
X93936000Y-127899600D02*
X95056000Y-127899600D01*
X95056000Y-127609600D02*
X95186000Y-127609600D01*
X95056000Y-125069600D02*
X95186000Y-125069600D01*
X95186000Y-127609600D02*
X95186000Y-127609600D01*
X95186000Y-127609600D02*
X95056000Y-127609600D01*
X95056000Y-127609600D02*
X95056000Y-127609600D01*
X95056000Y-124779600D02*
X91196000Y-124779600D01*
X95186000Y-125069600D02*
X95056000Y-125069600D01*
X95056000Y-128299600D02*
X93936000Y-128299600D01*
X95056000Y-124779600D02*
X95056000Y-127899600D01*
X95186000Y-125069600D02*
X95186000Y-125069600D01*
X95056000Y-125069600D02*
X95056000Y-125069600D01*
X95056000Y-127899600D02*
X91196000Y-127899600D01*
X91196000Y-124779600D02*
G75*
G03*
X91196000Y-127899600I0J-1560000D01*
G01*
X153600000Y-60840000D02*
X153600000Y-62490000D01*
X174100000Y-58350000D02*
X153540000Y-58350000D01*
X153540000Y-58350000D02*
X153540000Y-68630000D01*
X153600000Y-66140000D02*
X174040000Y-66140000D01*
X153600000Y-64490000D02*
X153600000Y-66140000D01*
X174040000Y-60840000D02*
X153600000Y-60840000D01*
X174040000Y-66140000D02*
X174040000Y-60840000D01*
X153540000Y-68630000D02*
X174100000Y-68630000D01*
X174100000Y-68630000D02*
X174100000Y-58350000D01*
X153600000Y-64490000D02*
G75*
G03*
X153600000Y-62490000I0J1000000D01*
G01*
X150972000Y-113671000D02*
X150972000Y-114929000D01*
X152812000Y-113671000D02*
X152812000Y-114929000D01*
X178340000Y-99668000D02*
X184880000Y-99668000D01*
X177570000Y-98298000D02*
X178340000Y-98298000D01*
X184880000Y-96928000D02*
X178340000Y-96928000D01*
X184880000Y-99668000D02*
X184880000Y-96928000D01*
X185650000Y-98298000D02*
X184880000Y-98298000D01*
X178340000Y-96928000D02*
X178340000Y-99668000D01*
X131105000Y-113681000D02*
X131105000Y-114939000D01*
X129265000Y-113681000D02*
X129265000Y-114939000D01*
X183230000Y-107657000D02*
X183230000Y-107592000D01*
X183230000Y-109832000D02*
X183230000Y-109767000D01*
X183230000Y-107592000D02*
X179990000Y-107592000D01*
X179990000Y-109832000D02*
X179990000Y-109767000D01*
X183230000Y-109832000D02*
X179990000Y-109832000D01*
X179990000Y-107657000D02*
X179990000Y-107592000D01*
X177570000Y-59182000D02*
X178340000Y-59182000D01*
X185650000Y-59182000D02*
X184880000Y-59182000D01*
X178340000Y-57812000D02*
X178340000Y-60552000D01*
X184880000Y-57812000D02*
X178340000Y-57812000D01*
X178340000Y-60552000D02*
X184880000Y-60552000D01*
X184880000Y-60552000D02*
X184880000Y-57812000D01*
X178340000Y-100484000D02*
X178340000Y-103224000D01*
X185650000Y-101854000D02*
X184880000Y-101854000D01*
X178340000Y-103224000D02*
X184880000Y-103224000D01*
X184880000Y-100484000D02*
X178340000Y-100484000D01*
X184880000Y-103224000D02*
X184880000Y-100484000D01*
X177570000Y-101854000D02*
X178340000Y-101854000D01*
X153733000Y-49891700D02*
X154273000Y-49891700D01*
X153213000Y-52721700D02*
X153213000Y-53231700D01*
X153213000Y-46221700D02*
X160933000Y-46221700D01*
X155373000Y-49891700D02*
X158773000Y-49891700D01*
X159873000Y-49891700D02*
X160413000Y-49891700D01*
X160413000Y-52721700D02*
X160413000Y-53231700D01*
X153733000Y-52721700D02*
X153733000Y-53231700D01*
X153213000Y-53231700D02*
X153733000Y-53231700D01*
X160933000Y-52721700D02*
X160933000Y-53231700D01*
X160413000Y-49891700D02*
X160413000Y-50121700D01*
X160413000Y-53231700D02*
X160933000Y-53231700D01*
X153733000Y-49891700D02*
X153733000Y-50121700D01*
X153213000Y-46221700D02*
X153213000Y-50121700D01*
X160933000Y-46221700D02*
X160933000Y-50121700D01*
X173588000Y-51910000D02*
X173588000Y-51910000D01*
X173298000Y-51780000D02*
X173298000Y-47920000D01*
X172898000Y-50660000D02*
X173298000Y-50660000D01*
X173588000Y-51780000D02*
X173588000Y-51910000D01*
X176128000Y-51910000D02*
X176128000Y-51910000D01*
X173588000Y-51910000D02*
X173588000Y-51780000D01*
X176418000Y-51780000D02*
X176418000Y-47920000D01*
X176128000Y-51780000D02*
X176128000Y-51780000D01*
X176128000Y-51910000D02*
X176128000Y-51780000D01*
X176418000Y-51780000D02*
X173298000Y-51780000D01*
X173588000Y-51780000D02*
X173588000Y-51780000D01*
X173298000Y-50660000D02*
X173298000Y-51780000D01*
X173298000Y-51780000D02*
X172898000Y-51780000D01*
X176128000Y-51780000D02*
X176128000Y-51910000D01*
X172898000Y-51780000D02*
X172898000Y-50660000D01*
X176418000Y-47920000D02*
G75*
G03*
X173298000Y-47920000I-1560000J0D01*
G01*
X132721000Y-73990000D02*
X133979000Y-73990000D01*
X132721000Y-75830000D02*
X133979000Y-75830000D01*
X128390000Y-83730000D02*
X110370000Y-83730000D01*
X110370000Y-83730000D02*
X110370000Y-94010000D01*
X110430000Y-86220000D02*
X110430000Y-87870000D01*
X110430000Y-91520000D02*
X128330000Y-91520000D01*
X128390000Y-94010000D02*
X128390000Y-83730000D01*
X128330000Y-86220000D02*
X110430000Y-86220000D01*
X110370000Y-94010000D02*
X128390000Y-94010000D01*
X128330000Y-91520000D02*
X128330000Y-86220000D01*
X110430000Y-89870000D02*
X110430000Y-91520000D01*
X110430000Y-89870000D02*
G75*
G03*
X110430000Y-87870000I0J1000000D01*
G01*
X96068600Y-91518600D02*
X89568600Y-91518600D01*
X96068600Y-104518600D02*
X96068600Y-98018600D01*
X89568600Y-104518600D02*
X96068600Y-104518600D01*
X89568600Y-91518600D02*
X89568600Y-104518600D01*
X96068600Y-98018600D02*
X96068600Y-91518600D01*
X123827000Y-52721700D02*
X123827000Y-53231700D01*
X124347000Y-46221700D02*
X124347000Y-50121700D01*
X117147000Y-49891700D02*
X117147000Y-50121700D01*
X123827000Y-49891700D02*
X123827000Y-50121700D01*
X117147000Y-52721700D02*
X117147000Y-53231700D01*
X118787000Y-49891700D02*
X122187000Y-49891700D01*
X116627000Y-53231700D02*
X117147000Y-53231700D01*
X116627000Y-46221700D02*
X116627000Y-50121700D01*
X117147000Y-49891700D02*
X117687000Y-49891700D01*
X116627000Y-52721700D02*
X116627000Y-53231700D01*
X124347000Y-52721700D02*
X124347000Y-53231700D01*
X123287000Y-49891700D02*
X123827000Y-49891700D01*
X123827000Y-53231700D02*
X124347000Y-53231700D01*
X116627000Y-46221700D02*
X124347000Y-46221700D01*
X128390000Y-96430000D02*
X110370000Y-96430000D01*
X110370000Y-106710000D02*
X128390000Y-106710000D01*
X110430000Y-102570000D02*
X110430000Y-104220000D01*
X128390000Y-106710000D02*
X128390000Y-96430000D01*
X110430000Y-98920000D02*
X110430000Y-100570000D01*
X110370000Y-96430000D02*
X110370000Y-106710000D01*
X128330000Y-104220000D02*
X128330000Y-98920000D01*
X128330000Y-98920000D02*
X110430000Y-98920000D01*
X110430000Y-104220000D02*
X128330000Y-104220000D01*
X110430000Y-102570000D02*
G75*
G03*
X110430000Y-100570000I0J1000000D01*
G01*
X184880000Y-86260000D02*
X178340000Y-86260000D01*
X178340000Y-86260000D02*
X178340000Y-89000000D01*
X177570000Y-87630000D02*
X178340000Y-87630000D01*
X184880000Y-89000000D02*
X184880000Y-86260000D01*
X185650000Y-87630000D02*
X184880000Y-87630000D01*
X178340000Y-89000000D02*
X184880000Y-89000000D01*
X109505000Y-88251000D02*
X109505000Y-89509000D01*
X107665000Y-88251000D02*
X107665000Y-89509000D01*
X132721000Y-73290000D02*
X133979000Y-73290000D01*
X132721000Y-71450000D02*
X133979000Y-71450000D01*
X104010000Y-58250000D02*
X104010000Y-71290000D01*
X104010000Y-71290000D02*
X106810000Y-71290000D01*
X106810000Y-58250000D02*
X104010000Y-58250000D01*
X106810000Y-60960000D02*
X104010000Y-60960000D01*
X106810000Y-71290000D02*
X106810000Y-58250000D01*
X152685000Y-88231000D02*
X152685000Y-89489000D01*
X150845000Y-88231000D02*
X150845000Y-89489000D01*
X96068600Y-67538600D02*
X96068600Y-61038600D01*
X96068600Y-61038600D02*
X89568600Y-61038600D01*
X89568600Y-74038600D02*
X96068600Y-74038600D01*
X89568600Y-61038600D02*
X89568600Y-74038600D01*
X96068600Y-74038600D02*
X96068600Y-67538600D01*
X174050000Y-124340000D02*
X153610000Y-124340000D01*
X174110000Y-121850000D02*
X153550000Y-121850000D01*
X153610000Y-127990000D02*
X153610000Y-129640000D01*
X153550000Y-132130000D02*
X174110000Y-132130000D01*
X174050000Y-129640000D02*
X174050000Y-124340000D01*
X153610000Y-129640000D02*
X174050000Y-129640000D01*
X174110000Y-132130000D02*
X174110000Y-121850000D01*
X153550000Y-121850000D02*
X153550000Y-132130000D01*
X153610000Y-124340000D02*
X153610000Y-125990000D01*
X153610000Y-127990000D02*
G75*
G03*
X153610000Y-125990000I0J1000000D01*
G01*
X129393000Y-51781300D02*
X129393000Y-51911300D01*
X129683000Y-51781300D02*
X126563000Y-51781300D01*
X126853000Y-51781300D02*
X126853000Y-51781300D01*
X126853000Y-51911300D02*
X126853000Y-51911300D01*
X126163000Y-50661300D02*
X126563000Y-50661300D01*
X126563000Y-51781300D02*
X126163000Y-51781300D01*
X126563000Y-50661300D02*
X126563000Y-51781300D01*
X129393000Y-51911300D02*
X129393000Y-51781300D01*
X129683000Y-51781300D02*
X129683000Y-47921300D01*
X129393000Y-51911300D02*
X129393000Y-51911300D01*
X129393000Y-51781300D02*
X129393000Y-51781300D01*
X126563000Y-51781300D02*
X126563000Y-47921300D01*
X126163000Y-51781300D02*
X126163000Y-50661300D01*
X126853000Y-51911300D02*
X126853000Y-51781300D01*
X126853000Y-51781300D02*
X126853000Y-51911300D01*
X129683000Y-47921300D02*
G75*
G03*
X126563000Y-47921300I-1560000J0D01*
G01*
X174040000Y-98940000D02*
X153600000Y-98940000D01*
X174040000Y-104240000D02*
X174040000Y-98940000D01*
X153600000Y-102590000D02*
X153600000Y-104240000D01*
X153540000Y-106730000D02*
X174100000Y-106730000D01*
X174100000Y-96450000D02*
X153540000Y-96450000D01*
X153540000Y-96450000D02*
X153540000Y-106730000D01*
X174100000Y-106730000D02*
X174100000Y-96450000D01*
X153600000Y-104240000D02*
X174040000Y-104240000D01*
X153600000Y-98940000D02*
X153600000Y-100590000D01*
X153600000Y-102590000D02*
G75*
G03*
X153600000Y-100590000I0J1000000D01*
G01*
X177570000Y-94742000D02*
X178340000Y-94742000D01*
X184880000Y-93372000D02*
X178340000Y-93372000D01*
X178340000Y-93372000D02*
X178340000Y-96112000D01*
X185650000Y-94742000D02*
X184880000Y-94742000D01*
X184880000Y-96112000D02*
X184880000Y-93372000D01*
X178340000Y-96112000D02*
X184880000Y-96112000D01*
X143920600Y-44723200D02*
X143920600Y-46242200D01*
X143920600Y-44723200D02*
X141490600Y-44723200D01*
X143920600Y-46242200D02*
X141490600Y-46242200D01*
X141315600Y-46243200D02*
X141315600Y-56013200D01*
X146385600Y-46243200D02*
X146385600Y-56013200D01*
X146385600Y-56013200D02*
X141315600Y-56013200D01*
X146385600Y-46243200D02*
X141315600Y-46243200D01*
X142705600Y-44723200D02*
X142705600Y-45482200D01*
X141490600Y-44723200D02*
X141490600Y-46242200D01*
X152685000Y-62871000D02*
X152685000Y-64129000D01*
X150845000Y-62871000D02*
X150845000Y-64129000D01*
X136875000Y-88251000D02*
X136875000Y-89509000D01*
X138715000Y-88251000D02*
X138715000Y-89509000D01*
X109505000Y-75551000D02*
X109505000Y-76809000D01*
X107665000Y-75551000D02*
X107665000Y-76809000D01*
X178340000Y-89816000D02*
X178340000Y-92556000D01*
X184880000Y-92556000D02*
X184880000Y-89816000D01*
X184880000Y-89816000D02*
X178340000Y-89816000D01*
X178340000Y-92556000D02*
X184880000Y-92556000D01*
X177570000Y-91186000D02*
X178340000Y-91186000D01*
X185650000Y-91186000D02*
X184880000Y-91186000D01*
X132015000Y-104230000D02*
X149915000Y-104230000D01*
X132015000Y-102580000D02*
X132015000Y-104230000D01*
X131955000Y-96440000D02*
X131955000Y-106720000D01*
X149915000Y-98930000D02*
X132015000Y-98930000D01*
X132015000Y-98930000D02*
X132015000Y-100580000D01*
X149915000Y-104230000D02*
X149915000Y-98930000D01*
X149975000Y-106720000D02*
X149975000Y-96440000D01*
X131955000Y-106720000D02*
X149975000Y-106720000D01*
X149975000Y-96440000D02*
X131955000Y-96440000D01*
X132015000Y-102580000D02*
G75*
G03*
X132015000Y-100580000I0J1000000D01*
G01*
X110912000Y-51781300D02*
X110912000Y-50661300D01*
X111602000Y-51911300D02*
X111602000Y-51781300D01*
X114142000Y-51781300D02*
X114142000Y-51781300D01*
X111312000Y-50661300D02*
X111312000Y-51781300D01*
X111312000Y-51781300D02*
X110912000Y-51781300D01*
X114432000Y-51781300D02*
X111312000Y-51781300D01*
X111602000Y-51911300D02*
X111602000Y-51911300D01*
X111602000Y-51781300D02*
X111602000Y-51781300D01*
X111602000Y-51781300D02*
X111602000Y-51911300D01*
X114432000Y-51781300D02*
X114432000Y-47921300D01*
X110912000Y-50661300D02*
X111312000Y-50661300D01*
X114142000Y-51911300D02*
X114142000Y-51781300D01*
X114142000Y-51781300D02*
X114142000Y-51911300D01*
X111312000Y-51781300D02*
X111312000Y-47921300D01*
X114142000Y-51911300D02*
X114142000Y-51911300D01*
X114432000Y-47921300D02*
G75*
G03*
X111312000Y-47921300I-1560000J0D01*
G01*
X174100000Y-81330000D02*
X174100000Y-71050000D01*
X153540000Y-81330000D02*
X174100000Y-81330000D01*
X153600000Y-78840000D02*
X174040000Y-78840000D01*
X153600000Y-77190000D02*
X153600000Y-78840000D01*
X153600000Y-73540000D02*
X153600000Y-75190000D01*
X174040000Y-73540000D02*
X153600000Y-73540000D01*
X174040000Y-78840000D02*
X174040000Y-73540000D01*
X174100000Y-71050000D02*
X153540000Y-71050000D01*
X153540000Y-71050000D02*
X153540000Y-81330000D01*
X153600000Y-77190000D02*
G75*
G03*
X153600000Y-75190000I0J1000000D01*
G01*
X183214600Y-117719600D02*
X189214600Y-117719600D01*
X183214600Y-132129600D02*
X183214600Y-111689600D01*
X183214600Y-115179600D02*
X189214600Y-115179600D01*
X189214600Y-120259600D02*
X189214600Y-121019600D01*
X180554600Y-124449600D02*
X183214600Y-124449600D01*
X183214600Y-112699600D02*
X189214600Y-112699600D01*
X189214600Y-121019600D02*
X183214600Y-121019600D01*
X180554600Y-119369600D02*
X183214600Y-119369600D01*
X180554600Y-111689600D02*
X180554600Y-132129600D01*
X183214600Y-112819600D02*
X189214600Y-112819600D01*
X189214600Y-115939600D02*
X183214600Y-115939600D01*
X180157529Y-122799600D02*
X180554600Y-122799600D01*
X180157529Y-118479600D02*
X180554600Y-118479600D01*
X189214600Y-130419600D02*
X189214600Y-131179600D01*
X180157529Y-123559600D02*
X180554600Y-123559600D01*
X183214600Y-113299600D02*
X189214600Y-113299600D01*
X180157529Y-131179600D02*
X180554600Y-131179600D01*
X180554600Y-132129600D02*
X183214600Y-132129600D01*
X189214600Y-118479600D02*
X183214600Y-118479600D01*
X189214600Y-131179600D02*
X183214600Y-131179600D01*
X183214600Y-122799600D02*
X189214600Y-122799600D01*
X183214600Y-113179600D02*
X189214600Y-113179600D01*
X189214600Y-113399600D02*
X183214600Y-113399600D01*
X189214600Y-122799600D02*
X189214600Y-123559600D01*
X183214600Y-112939600D02*
X189214600Y-112939600D01*
X189214600Y-117719600D02*
X189214600Y-118479600D01*
X180157529Y-126099600D02*
X180554600Y-126099600D01*
X183214600Y-112639600D02*
X189214600Y-112639600D01*
X180157529Y-130419600D02*
X180554600Y-130419600D01*
X177844600Y-111749600D02*
X179114600Y-111749600D01*
X180157529Y-117719600D02*
X180554600Y-117719600D01*
X180224600Y-113399600D02*
X180554600Y-113399600D01*
X180554600Y-129529600D02*
X183214600Y-129529600D01*
X180157529Y-121019600D02*
X180554600Y-121019600D01*
X180157529Y-128639600D02*
X180554600Y-128639600D01*
X183214600Y-111689600D02*
X180554600Y-111689600D01*
X180554600Y-126989600D02*
X183214600Y-126989600D01*
X183214600Y-127879600D02*
X189214600Y-127879600D01*
X177844600Y-113019600D02*
X177844600Y-111749600D01*
X180157529Y-120259600D02*
X180554600Y-120259600D01*
X180554600Y-116829600D02*
X183214600Y-116829600D01*
X180554600Y-121909600D02*
X183214600Y-121909600D01*
X180157529Y-125339600D02*
X180554600Y-125339600D01*
X180224600Y-112639600D02*
X180554600Y-112639600D01*
X189214600Y-115179600D02*
X189214600Y-115939600D01*
X183214600Y-120259600D02*
X189214600Y-120259600D01*
X180157529Y-127879600D02*
X180554600Y-127879600D01*
X189214600Y-112639600D02*
X189214600Y-113399600D01*
X180554600Y-114289600D02*
X183214600Y-114289600D01*
X189214600Y-127879600D02*
X189214600Y-128639600D01*
X189214600Y-125339600D02*
X189214600Y-126099600D01*
X180157529Y-115939600D02*
X180554600Y-115939600D01*
X180157529Y-115179600D02*
X180554600Y-115179600D01*
X189214600Y-126099600D02*
X183214600Y-126099600D01*
X183214600Y-130419600D02*
X189214600Y-130419600D01*
X183214600Y-113059600D02*
X189214600Y-113059600D01*
X183214600Y-125339600D02*
X189214600Y-125339600D01*
X189214600Y-128639600D02*
X183214600Y-128639600D01*
X189214600Y-123559600D02*
X183214600Y-123559600D01*
X132721000Y-82900000D02*
X133979000Y-82900000D01*
X132721000Y-84740000D02*
X133979000Y-84740000D01*
X132398000Y-52720400D02*
X132398000Y-53230400D01*
X139078000Y-53230400D02*
X139598000Y-53230400D01*
X131878000Y-46220400D02*
X131878000Y-50120400D01*
X139078000Y-52720400D02*
X139078000Y-53230400D01*
X131878000Y-46220400D02*
X139598000Y-46220400D01*
X132398000Y-49890400D02*
X132398000Y-50120400D01*
X139078000Y-49890400D02*
X139078000Y-50120400D01*
X139598000Y-46220400D02*
X139598000Y-50120400D01*
X131878000Y-52720400D02*
X131878000Y-53230400D01*
X139598000Y-52720400D02*
X139598000Y-53230400D01*
X138538000Y-49890400D02*
X139078000Y-49890400D01*
X131878000Y-53230400D02*
X132398000Y-53230400D01*
X134038000Y-49890400D02*
X137438000Y-49890400D01*
X132398000Y-49890400D02*
X132938000Y-49890400D01*
X149925000Y-124340000D02*
X132025000Y-124340000D01*
X131965000Y-132130000D02*
X149985000Y-132130000D01*
X132025000Y-127990000D02*
X132025000Y-129640000D01*
X149985000Y-132130000D02*
X149985000Y-121850000D01*
X132025000Y-129640000D02*
X149925000Y-129640000D01*
X149925000Y-129640000D02*
X149925000Y-124340000D01*
X131965000Y-121850000D02*
X131965000Y-132130000D01*
X149985000Y-121850000D02*
X131965000Y-121850000D01*
X132025000Y-124340000D02*
X132025000Y-125990000D01*
X132025000Y-127990000D02*
G75*
G03*
X132025000Y-125990000I0J1000000D01*
G01*
X106810000Y-106850000D02*
X106810000Y-78570000D01*
X104010000Y-78570000D02*
X104010000Y-106850000D01*
X106810000Y-81280000D02*
X104010000Y-81280000D01*
X106810000Y-78570000D02*
X104010000Y-78570000D01*
X104010000Y-106850000D02*
X106810000Y-106850000D01*
X178340000Y-106780000D02*
X184880000Y-106780000D01*
X178340000Y-104040000D02*
X178340000Y-106780000D01*
X185650000Y-105410000D02*
X184880000Y-105410000D01*
X177570000Y-105410000D02*
X178340000Y-105410000D01*
X184880000Y-106780000D02*
X184880000Y-104040000D01*
X184880000Y-104040000D02*
X178340000Y-104040000D01*
X109505000Y-62871000D02*
X109505000Y-64129000D01*
X107665000Y-62871000D02*
X107665000Y-64129000D01*
X105135000Y-126351000D02*
X105135000Y-127609000D01*
X106975000Y-126351000D02*
X106975000Y-127609000D01*
X129255000Y-62871000D02*
X129255000Y-64129000D01*
X131095000Y-62871000D02*
X131095000Y-64129000D01*
X133979000Y-80360000D02*
X132721000Y-80360000D01*
X133979000Y-82200000D02*
X132721000Y-82200000D01*
X132721000Y-76530000D02*
X133979000Y-76530000D01*
X132721000Y-78370000D02*
X133979000Y-78370000D01*
X110365000Y-109150000D02*
X110365000Y-119430000D01*
X110425000Y-116940000D02*
X128325000Y-116940000D01*
X110425000Y-111640000D02*
X110425000Y-113290000D01*
X128325000Y-116940000D02*
X128325000Y-111640000D01*
X128325000Y-111640000D02*
X110425000Y-111640000D01*
X128385000Y-119430000D02*
X128385000Y-109150000D01*
X110365000Y-119430000D02*
X128385000Y-119430000D01*
X110425000Y-115290000D02*
X110425000Y-116940000D01*
X128385000Y-109150000D02*
X110365000Y-109150000D01*
X110425000Y-115290000D02*
G75*
G03*
X110425000Y-113290000I0J1000000D01*
G01*
X96068600Y-82778600D02*
X96068600Y-76278600D01*
X89568600Y-76278600D02*
X89568600Y-89278600D01*
X96068600Y-76278600D02*
X89568600Y-76278600D01*
X96068600Y-89278600D02*
X96068600Y-82778600D01*
X89568600Y-89278600D02*
X96068600Y-89278600D01*
X136875000Y-75551000D02*
X136875000Y-76809000D01*
X138715000Y-75551000D02*
X138715000Y-76809000D01*
X131095000Y-100951000D02*
X131095000Y-102209000D01*
X129255000Y-100951000D02*
X129255000Y-102209000D01*
X96068600Y-119758600D02*
X96068600Y-113258600D01*
X89568600Y-106758600D02*
X89568600Y-119758600D01*
X96068600Y-113258600D02*
X96068600Y-106758600D01*
X96068600Y-106758600D02*
X89568600Y-106758600D01*
X89568600Y-119758600D02*
X96068600Y-119758600D01*
X174100000Y-83730000D02*
X153540000Y-83730000D01*
X153540000Y-94010000D02*
X174100000Y-94010000D01*
X153600000Y-91520000D02*
X174040000Y-91520000D01*
X153600000Y-89870000D02*
X153600000Y-91520000D01*
X174100000Y-94010000D02*
X174100000Y-83730000D01*
X153540000Y-83730000D02*
X153540000Y-94010000D01*
X153600000Y-86220000D02*
X153600000Y-87870000D01*
X174040000Y-91520000D02*
X174040000Y-86220000D01*
X174040000Y-86220000D02*
X153600000Y-86220000D01*
X153600000Y-89870000D02*
G75*
G03*
X153600000Y-87870000I0J1000000D01*
G01*
X108032600Y-49891700D02*
X108572600Y-49891700D01*
X109092600Y-52721700D02*
X109092600Y-53231700D01*
X101372600Y-52721700D02*
X101372600Y-53231700D01*
X101372600Y-46221700D02*
X101372600Y-50121700D01*
X103532600Y-49891700D02*
X106932600Y-49891700D01*
X101892600Y-49891700D02*
X101892600Y-50121700D01*
X101892600Y-52721700D02*
X101892600Y-53231700D01*
X108572600Y-49891700D02*
X108572600Y-50121700D01*
X109092600Y-46221700D02*
X109092600Y-50121700D01*
X101372600Y-53231700D02*
X101892600Y-53231700D01*
X101372600Y-46221700D02*
X109092600Y-46221700D01*
X108572600Y-53231700D02*
X109092600Y-53231700D01*
X108572600Y-52721700D02*
X108572600Y-53231700D01*
X101892600Y-49891700D02*
X102432600Y-49891700D01*
X131105000Y-126371000D02*
X131105000Y-127629000D01*
X129265000Y-126371000D02*
X129265000Y-127629000D01*
X135050000Y-91905000D02*
X135050000Y-88055000D01*
X135050000Y-88055000D02*
G75*
G03*
X134462264Y-87662617I-1700000J-1910000D01*
G01*
X134472045Y-92287631D02*
G75*
G03*
X135050000Y-91905000I-1122045J2322631D01*
G01*
X130750000Y-89965000D02*
G75*
G03*
X132251193Y-92321400I2600000J0D01*
G01*
X132251193Y-87608600D02*
G75*
G03*
X130750000Y-89965000I1098807J-2356400D01*
G01*
X149990000Y-94010000D02*
X149990000Y-83730000D01*
X139650000Y-91520000D02*
X149930000Y-91520000D01*
X149990000Y-83730000D02*
X139590000Y-83730000D01*
X149930000Y-86220000D02*
X139650000Y-86220000D01*
X139590000Y-83730000D02*
X139590000Y-94010000D01*
X139650000Y-89870000D02*
X139650000Y-91520000D01*
X139650000Y-86220000D02*
X139650000Y-87870000D01*
X149930000Y-91520000D02*
X149930000Y-86220000D01*
X139590000Y-94010000D02*
X149990000Y-94010000D01*
X139650000Y-89870000D02*
G75*
G03*
X139650000Y-87870000I0J1000000D01*
G01*
X185650000Y-66294000D02*
X184880000Y-66294000D01*
X177570000Y-66294000D02*
X178340000Y-66294000D01*
X178340000Y-67664000D02*
X184880000Y-67664000D01*
X184880000Y-67664000D02*
X184880000Y-64924000D01*
X184880000Y-64924000D02*
X178340000Y-64924000D01*
X178340000Y-64924000D02*
X178340000Y-67664000D01*
X107835000Y-121850000D02*
X107835000Y-132130000D01*
X128335000Y-129640000D02*
X128335000Y-124340000D01*
X107835000Y-132130000D02*
X128395000Y-132130000D01*
X107895000Y-127990000D02*
X107895000Y-129640000D01*
X128395000Y-121850000D02*
X107835000Y-121850000D01*
X107895000Y-129640000D02*
X128335000Y-129640000D01*
X128395000Y-132130000D02*
X128395000Y-121850000D01*
X128335000Y-124340000D02*
X107895000Y-124340000D01*
X107895000Y-124340000D02*
X107895000Y-125990000D01*
X107895000Y-127990000D02*
G75*
G03*
X107895000Y-125990000I0J1000000D01*
G01*
X163428000Y-51780000D02*
X163428000Y-51910000D01*
X163138000Y-51780000D02*
X162738000Y-51780000D01*
X165968000Y-51780000D02*
X165968000Y-51910000D01*
X165968000Y-51910000D02*
X165968000Y-51910000D01*
X163428000Y-51780000D02*
X163428000Y-51780000D01*
X163138000Y-50660000D02*
X163138000Y-51780000D01*
X165968000Y-51910000D02*
X165968000Y-51780000D01*
X166258000Y-51780000D02*
X166258000Y-47920000D01*
X162738000Y-50660000D02*
X163138000Y-50660000D01*
X163428000Y-51910000D02*
X163428000Y-51910000D01*
X165968000Y-51780000D02*
X165968000Y-51780000D01*
X166258000Y-51780000D02*
X163138000Y-51780000D01*
X163428000Y-51910000D02*
X163428000Y-51780000D01*
X163138000Y-51780000D02*
X163138000Y-47920000D01*
X162738000Y-51780000D02*
X162738000Y-50660000D01*
X166258000Y-47920000D02*
G75*
G03*
X163138000Y-47920000I-1560000J0D01*
G01*
X171338000Y-51780000D02*
X171338000Y-47920000D01*
X167818000Y-50660000D02*
X168218000Y-50660000D01*
X168218000Y-51780000D02*
X167818000Y-51780000D01*
X168508000Y-51910000D02*
X168508000Y-51780000D01*
X171338000Y-51780000D02*
X168218000Y-51780000D01*
X168508000Y-51780000D02*
X168508000Y-51910000D01*
X168218000Y-50660000D02*
X168218000Y-51780000D01*
X171048000Y-51910000D02*
X171048000Y-51780000D01*
X168218000Y-51780000D02*
X168218000Y-47920000D01*
X167818000Y-51780000D02*
X167818000Y-50660000D01*
X168508000Y-51910000D02*
X168508000Y-51910000D01*
X171048000Y-51780000D02*
X171048000Y-51910000D01*
X168508000Y-51780000D02*
X168508000Y-51780000D01*
X171048000Y-51910000D02*
X171048000Y-51910000D01*
X171048000Y-51780000D02*
X171048000Y-51780000D01*
X171338000Y-47920000D02*
G75*
G03*
X168218000Y-47920000I-1560000J0D01*
G01*
X131955000Y-58350000D02*
X131955000Y-68630000D01*
X132015000Y-66140000D02*
X149915000Y-66140000D01*
X149915000Y-66140000D02*
X149915000Y-60840000D01*
X149915000Y-60840000D02*
X132015000Y-60840000D01*
X149975000Y-68630000D02*
X149975000Y-58350000D01*
X132015000Y-60840000D02*
X132015000Y-62490000D01*
X149975000Y-58350000D02*
X131955000Y-58350000D01*
X131955000Y-68630000D02*
X149975000Y-68630000D01*
X132015000Y-64490000D02*
X132015000Y-66140000D01*
X132015000Y-64490000D02*
G75*
G03*
X132015000Y-62490000I0J1000000D01*
G01*
X178340000Y-68480000D02*
X178340000Y-71220000D01*
X177570000Y-69850000D02*
X178340000Y-69850000D01*
X185650000Y-69850000D02*
X184880000Y-69850000D01*
X184880000Y-71220000D02*
X184880000Y-68480000D01*
X184880000Y-68480000D02*
X178340000Y-68480000D01*
X178340000Y-71220000D02*
X184880000Y-71220000D01*
X181498000Y-51780000D02*
X178378000Y-51780000D01*
X178668000Y-51910000D02*
X178668000Y-51910000D01*
X181208000Y-51780000D02*
X181208000Y-51910000D01*
X181498000Y-51780000D02*
X181498000Y-47920000D01*
X181208000Y-51780000D02*
X181208000Y-51780000D01*
X178378000Y-51780000D02*
X178378000Y-47920000D01*
X178378000Y-50660000D02*
X178378000Y-51780000D01*
X181208000Y-51910000D02*
X181208000Y-51910000D01*
X177978000Y-51780000D02*
X177978000Y-50660000D01*
X178668000Y-51910000D02*
X178668000Y-51780000D01*
X181208000Y-51910000D02*
X181208000Y-51780000D01*
X178668000Y-51780000D02*
X178668000Y-51910000D01*
X178668000Y-51780000D02*
X178668000Y-51780000D01*
X177978000Y-50660000D02*
X178378000Y-50660000D01*
X178378000Y-51780000D02*
X177978000Y-51780000D01*
X181498000Y-47920000D02*
G75*
G03*
X178378000Y-47920000I-1560000J0D01*
G01*
X110430000Y-77170000D02*
X110430000Y-78820000D01*
X128390000Y-81310000D02*
X128390000Y-71030000D01*
X110370000Y-81310000D02*
X128390000Y-81310000D01*
X110370000Y-71030000D02*
X110370000Y-81310000D01*
X110430000Y-73520000D02*
X110430000Y-75170000D01*
X110430000Y-78820000D02*
X128330000Y-78820000D01*
X128330000Y-78820000D02*
X128330000Y-73520000D01*
X128390000Y-71030000D02*
X110370000Y-71030000D01*
X128330000Y-73520000D02*
X110430000Y-73520000D01*
X110430000Y-77170000D02*
G75*
G03*
X110430000Y-75170000I0J1000000D01*
G01*
X149995000Y-81310000D02*
X149995000Y-71030000D01*
X139655000Y-73520000D02*
X139655000Y-75170000D01*
X149935000Y-73520000D02*
X139655000Y-73520000D01*
X149935000Y-78820000D02*
X149935000Y-73520000D01*
X139595000Y-81310000D02*
X149995000Y-81310000D01*
X149995000Y-71030000D02*
X139595000Y-71030000D01*
X139655000Y-77170000D02*
X139655000Y-78820000D01*
X139655000Y-78820000D02*
X149935000Y-78820000D01*
X139595000Y-71030000D02*
X139595000Y-81310000D01*
X139655000Y-77170000D02*
G75*
G03*
X139655000Y-75170000I0J1000000D01*
G01*
X152895000Y-125380000D02*
X152830000Y-125380000D01*
X152895000Y-128620000D02*
X152830000Y-128620000D01*
X150720000Y-128620000D02*
X150655000Y-128620000D01*
X150655000Y-125380000D02*
X150655000Y-128620000D01*
X150720000Y-125380000D02*
X150655000Y-125380000D01*
X152895000Y-125380000D02*
X152895000Y-128620000D01*
X178340000Y-64108000D02*
X184880000Y-64108000D01*
X177570000Y-62738000D02*
X178340000Y-62738000D01*
X185650000Y-62738000D02*
X184880000Y-62738000D01*
X178340000Y-61368000D02*
X178340000Y-64108000D01*
X184880000Y-64108000D02*
X184880000Y-61368000D01*
X184880000Y-61368000D02*
X178340000Y-61368000D01*
X131965000Y-119440000D02*
X149985000Y-119440000D01*
X149925000Y-111650000D02*
X132025000Y-111650000D01*
X132025000Y-116950000D02*
X149925000Y-116950000D01*
X132025000Y-111650000D02*
X132025000Y-113300000D01*
X132025000Y-115300000D02*
X132025000Y-116950000D01*
X149985000Y-109160000D02*
X131965000Y-109160000D01*
X131965000Y-109160000D02*
X131965000Y-119440000D01*
X149925000Y-116950000D02*
X149925000Y-111650000D01*
X149985000Y-119440000D02*
X149985000Y-109160000D01*
X132025000Y-115300000D02*
G75*
G03*
X132025000Y-113300000I0J1000000D01*
G01*
X152685000Y-100951000D02*
X152685000Y-102209000D01*
X150845000Y-100951000D02*
X150845000Y-102209000D01*
X184880000Y-82704000D02*
X178340000Y-82704000D01*
X184880000Y-85444000D02*
X184880000Y-82704000D01*
X178340000Y-82704000D02*
X178340000Y-85444000D01*
X178340000Y-85444000D02*
X184880000Y-85444000D01*
X185650000Y-84074000D02*
X184880000Y-84074000D01*
X177570000Y-84074000D02*
X178340000Y-84074000D01*
X150845000Y-75551000D02*
X150845000Y-76809000D01*
X152685000Y-75551000D02*
X152685000Y-76809000D01*
X174040000Y-111640000D02*
X153600000Y-111640000D01*
X174100000Y-109150000D02*
X153540000Y-109150000D01*
X174040000Y-116940000D02*
X174040000Y-111640000D01*
X153540000Y-119430000D02*
X174100000Y-119430000D01*
X153600000Y-115290000D02*
X153600000Y-116940000D01*
X174100000Y-119430000D02*
X174100000Y-109150000D01*
X153600000Y-116940000D02*
X174040000Y-116940000D01*
X153540000Y-109150000D02*
X153540000Y-119430000D01*
X153600000Y-111640000D02*
X153600000Y-113290000D01*
X153600000Y-115290000D02*
G75*
G03*
X153600000Y-113290000I0J1000000D01*
G01*
X107665000Y-113671000D02*
X107665000Y-114929000D01*
X109505000Y-113671000D02*
X109505000Y-114929000D01*
X107665000Y-100951000D02*
X107665000Y-102209000D01*
X109505000Y-100951000D02*
X109505000Y-102209000D01*
X95683000Y-51780000D02*
X95683000Y-50660000D01*
X98913000Y-51910000D02*
X98913000Y-51780000D01*
X96373000Y-51910000D02*
X96373000Y-51910000D01*
X98913000Y-51780000D02*
X98913000Y-51780000D01*
X96373000Y-51780000D02*
X96373000Y-51780000D01*
X98913000Y-51780000D02*
X98913000Y-51910000D01*
X96083000Y-50660000D02*
X96083000Y-51780000D01*
X98913000Y-51910000D02*
X98913000Y-51910000D01*
X96083000Y-51780000D02*
X96083000Y-47920000D01*
X96373000Y-51910000D02*
X96373000Y-51780000D01*
X95683000Y-50660000D02*
X96083000Y-50660000D01*
X96373000Y-51780000D02*
X96373000Y-51910000D01*
X96083000Y-51780000D02*
X95683000Y-51780000D01*
X99203000Y-51780000D02*
X99203000Y-47920000D01*
X99203000Y-51780000D02*
X96083000Y-51780000D01*
X99203000Y-47920000D02*
G75*
G03*
X96083000Y-47920000I-1560000J0D01*
G01*
X178340000Y-72036000D02*
X178340000Y-74776000D01*
X184880000Y-72036000D02*
X178340000Y-72036000D01*
X184880000Y-74776000D02*
X184880000Y-72036000D01*
X177570000Y-73406000D02*
X178340000Y-73406000D01*
X185650000Y-73406000D02*
X184880000Y-73406000D01*
X178340000Y-74776000D02*
X184880000Y-74776000D01*
X147498000Y-51780000D02*
X147498000Y-50660000D01*
X148188000Y-51910000D02*
X148188000Y-51780000D01*
X148188000Y-51910000D02*
X148188000Y-51910000D01*
X147898000Y-50660000D02*
X147898000Y-51780000D01*
X147898000Y-51780000D02*
X147498000Y-51780000D01*
X151018000Y-51780000D02*
X151018000Y-47920000D01*
X150728000Y-51910000D02*
X150728000Y-51910000D01*
X150728000Y-51780000D02*
X150728000Y-51910000D01*
X151018000Y-51780000D02*
X147898000Y-51780000D01*
X147898000Y-51780000D02*
X147898000Y-47920000D01*
X148188000Y-51780000D02*
X148188000Y-51780000D01*
X150728000Y-51910000D02*
X150728000Y-51780000D01*
X148188000Y-51780000D02*
X148188000Y-51910000D01*
X150728000Y-51780000D02*
X150728000Y-51780000D01*
X147498000Y-50660000D02*
X147898000Y-50660000D01*
X151018000Y-47920000D02*
G75*
G03*
X147898000Y-47920000I-1560000J0D01*
G01*
X184880000Y-81888000D02*
X184880000Y-79148000D01*
X185650000Y-80518000D02*
X184880000Y-80518000D01*
X178340000Y-79148000D02*
X178340000Y-81888000D01*
X178340000Y-81888000D02*
X184880000Y-81888000D01*
X177570000Y-80518000D02*
X178340000Y-80518000D01*
X184880000Y-79148000D02*
X178340000Y-79148000D01*
%LPC*%
D12*
X186690000Y-76962000D03*
D13*
X176530000Y-76962000D03*
D14*
X111755000Y-67300000D03*
D13*
X114295000Y-67300000D03*
X116835000Y-67300000D03*
X119375000Y-67300000D03*
X121915000Y-67300000D03*
X124455000Y-67300000D03*
X126995000Y-67300000D03*
X126995000Y-59680000D03*
X124455000Y-59680000D03*
X121915000Y-59680000D03*
X119375000Y-59680000D03*
X116835000Y-59680000D03*
X114295000Y-59680000D03*
X111755000Y-59680000D03*
D15*
X96266000Y-125069600D03*
D16*
X96266000Y-127609600D03*
D14*
X154930000Y-67300000D03*
D13*
X157470000Y-67300000D03*
X160010000Y-67300000D03*
X162550000Y-67300000D03*
X165090000Y-67300000D03*
X167630000Y-67300000D03*
X170170000Y-67300000D03*
X172710000Y-67300000D03*
X172710000Y-59680000D03*
X170170000Y-59680000D03*
X167630000Y-59680000D03*
X165090000Y-59680000D03*
X162550000Y-59680000D03*
X160010000Y-59680000D03*
X157470000Y-59680000D03*
X154930000Y-59680000D03*
D12*
X151892000Y-113050000D03*
X151892000Y-115550000D03*
X176530000Y-98298000D03*
D13*
X186690000Y-98298000D03*
D12*
X130185000Y-113060000D03*
X130185000Y-115560000D03*
X182860000Y-108712000D03*
X180360000Y-108712000D03*
X186690000Y-59182000D03*
D13*
X176530000Y-59182000D03*
D12*
X176530000Y-101854000D03*
D13*
X186690000Y-101854000D03*
D17*
X160583000Y-51411700D03*
X153573000Y-51411700D03*
D18*
X154823000Y-48921700D03*
X159323000Y-48921700D03*
D15*
X176128000Y-52990000D03*
D16*
X173588000Y-52990000D03*
D12*
X132100000Y-74910000D03*
X134600000Y-74910000D03*
D14*
X111760000Y-92680000D03*
D13*
X114300000Y-92680000D03*
X116840000Y-92680000D03*
X119380000Y-92680000D03*
X121920000Y-92680000D03*
X124460000Y-92680000D03*
X127000000Y-92680000D03*
X127000000Y-85060000D03*
X124460000Y-85060000D03*
X121920000Y-85060000D03*
X119380000Y-85060000D03*
X116840000Y-85060000D03*
X114300000Y-85060000D03*
X111760000Y-85060000D03*
D19*
X101068600Y-102718600D03*
X101068600Y-98018600D03*
X101068600Y-93318600D03*
D17*
X116987000Y-51411700D03*
X123997000Y-51411700D03*
D18*
X118237000Y-48921700D03*
X122737000Y-48921700D03*
D14*
X111760000Y-105380000D03*
D13*
X114300000Y-105380000D03*
X116840000Y-105380000D03*
X119380000Y-105380000D03*
X121920000Y-105380000D03*
X124460000Y-105380000D03*
X127000000Y-105380000D03*
X127000000Y-97760000D03*
X124460000Y-97760000D03*
X121920000Y-97760000D03*
X119380000Y-97760000D03*
X116840000Y-97760000D03*
X114300000Y-97760000D03*
X111760000Y-97760000D03*
D12*
X186690000Y-87630000D03*
D13*
X176530000Y-87630000D03*
D12*
X108585000Y-87630000D03*
X108585000Y-90130000D03*
D20*
X177490000Y-142200000D03*
X174950000Y-142200000D03*
X172410000Y-142200000D03*
X169870000Y-142200000D03*
X167330000Y-142200000D03*
X164790000Y-142200000D03*
X162250000Y-142200000D03*
X159710000Y-142200000D03*
X157170000Y-142200000D03*
X154630000Y-142200000D03*
X152090000Y-142200000D03*
X149550000Y-142200000D03*
X147010000Y-142200000D03*
X144470000Y-142200000D03*
X141930000Y-142200000D03*
X139390000Y-142200000D03*
X136850000Y-142200000D03*
X134310000Y-142200000D03*
X131770000Y-142200000D03*
X129230000Y-142200000D03*
X126690000Y-142200000D03*
X124150000Y-142200000D03*
X121610000Y-142200000D03*
X119070000Y-142200000D03*
X116530000Y-142200000D03*
X113990000Y-142200000D03*
X111450000Y-142200000D03*
X108910000Y-142200000D03*
X106370000Y-142200000D03*
X103830000Y-142200000D03*
X101290000Y-142200000D03*
D12*
X132100000Y-72370000D03*
X134600000Y-72370000D03*
D14*
X105410000Y-59690000D03*
D13*
X105410000Y-62230000D03*
X105410000Y-64770000D03*
X105410000Y-67310000D03*
X105410000Y-69850000D03*
D12*
X151765000Y-87610000D03*
X151765000Y-90110000D03*
D19*
X101068600Y-72238600D03*
X101068600Y-67538600D03*
X101068600Y-62838600D03*
D14*
X154940000Y-130800000D03*
D13*
X157480000Y-130800000D03*
X160020000Y-130800000D03*
X162560000Y-130800000D03*
X165100000Y-130800000D03*
X167640000Y-130800000D03*
X170180000Y-130800000D03*
X172720000Y-130800000D03*
X172720000Y-123180000D03*
X170180000Y-123180000D03*
X167640000Y-123180000D03*
X165100000Y-123180000D03*
X162560000Y-123180000D03*
X160020000Y-123180000D03*
X157480000Y-123180000D03*
X154940000Y-123180000D03*
D15*
X129393000Y-52991300D03*
D16*
X126853000Y-52991300D03*
D14*
X154930000Y-105400000D03*
D13*
X157470000Y-105400000D03*
X160010000Y-105400000D03*
X162550000Y-105400000D03*
X165090000Y-105400000D03*
X167630000Y-105400000D03*
X170170000Y-105400000D03*
X172710000Y-105400000D03*
X172710000Y-97780000D03*
X170170000Y-97780000D03*
X167630000Y-97780000D03*
X165090000Y-97780000D03*
X162550000Y-97780000D03*
X160010000Y-97780000D03*
X157470000Y-97780000D03*
X154930000Y-97780000D03*
D12*
X186690000Y-94742000D03*
D13*
X176530000Y-94742000D03*
D21*
X145115600Y-53668200D03*
X142575600Y-51128200D03*
X145115600Y-48588200D03*
D12*
X151765000Y-62250000D03*
X151765000Y-64750000D03*
X137795000Y-87630000D03*
X137795000Y-90130000D03*
X108585000Y-74930000D03*
X108585000Y-77430000D03*
X186690000Y-91186000D03*
D13*
X176530000Y-91186000D03*
D14*
X133345000Y-105390000D03*
D13*
X135885000Y-105390000D03*
X138425000Y-105390000D03*
X140965000Y-105390000D03*
X143505000Y-105390000D03*
X146045000Y-105390000D03*
X148585000Y-105390000D03*
X148585000Y-97770000D03*
X146045000Y-97770000D03*
X143505000Y-97770000D03*
X140965000Y-97770000D03*
X138425000Y-97770000D03*
X135885000Y-97770000D03*
X133345000Y-97770000D03*
D15*
X114142000Y-52991300D03*
D16*
X111602000Y-52991300D03*
D14*
X154930000Y-80000000D03*
D13*
X157470000Y-80000000D03*
X160010000Y-80000000D03*
X162550000Y-80000000D03*
X165090000Y-80000000D03*
X167630000Y-80000000D03*
X170170000Y-80000000D03*
X172710000Y-80000000D03*
X172710000Y-72380000D03*
X170170000Y-72380000D03*
X167630000Y-72380000D03*
X165090000Y-72380000D03*
X162550000Y-72380000D03*
X160010000Y-72380000D03*
X157470000Y-72380000D03*
X154930000Y-72380000D03*
D22*
X179114600Y-113019600D03*
D23*
X179114600Y-115559600D03*
X179114600Y-118099600D03*
X179114600Y-120639600D03*
X179114600Y-123179600D03*
X179114600Y-125719600D03*
X179114600Y-128259600D03*
X179114600Y-130799600D03*
D12*
X132100000Y-83820000D03*
X134600000Y-83820000D03*
D17*
X139248000Y-51410400D03*
X132238000Y-51410400D03*
D18*
X133488000Y-48920400D03*
X137988000Y-48920400D03*
D14*
X133355000Y-130800000D03*
D13*
X135895000Y-130800000D03*
X138435000Y-130800000D03*
X140975000Y-130800000D03*
X143515000Y-130800000D03*
X146055000Y-130800000D03*
X148595000Y-130800000D03*
X148595000Y-123180000D03*
X146055000Y-123180000D03*
X143515000Y-123180000D03*
X140975000Y-123180000D03*
X138435000Y-123180000D03*
X135895000Y-123180000D03*
X133355000Y-123180000D03*
D14*
X105410000Y-80010000D03*
D13*
X105410000Y-82550000D03*
X105410000Y-85090000D03*
X105410000Y-87630000D03*
X105410000Y-90170000D03*
X105410000Y-92710000D03*
X105410000Y-95250000D03*
X105410000Y-97790000D03*
X105410000Y-100330000D03*
X105410000Y-102870000D03*
X105410000Y-105410000D03*
D12*
X186690000Y-105410000D03*
D13*
X176530000Y-105410000D03*
D12*
X108585000Y-62250000D03*
X108585000Y-64750000D03*
X106055000Y-125730000D03*
X106055000Y-128230000D03*
X130175000Y-62250000D03*
X130175000Y-64750000D03*
X134600000Y-81280000D03*
X132100000Y-81280000D03*
X132100000Y-77450000D03*
X134600000Y-77450000D03*
D14*
X111755000Y-118100000D03*
D13*
X114295000Y-118100000D03*
X116835000Y-118100000D03*
X119375000Y-118100000D03*
X121915000Y-118100000D03*
X124455000Y-118100000D03*
X126995000Y-118100000D03*
X126995000Y-110480000D03*
X124455000Y-110480000D03*
X121915000Y-110480000D03*
X119375000Y-110480000D03*
X116835000Y-110480000D03*
X114295000Y-110480000D03*
X111755000Y-110480000D03*
D19*
X101068600Y-87478600D03*
X101068600Y-82778600D03*
X101068600Y-78078600D03*
D12*
X137795000Y-74930000D03*
X137795000Y-77430000D03*
X130175000Y-100330000D03*
X130175000Y-102830000D03*
D19*
X101068600Y-117958600D03*
X101068600Y-113258600D03*
X101068600Y-108558600D03*
D14*
X154930000Y-92680000D03*
D13*
X157470000Y-92680000D03*
X160010000Y-92680000D03*
X162550000Y-92680000D03*
X165090000Y-92680000D03*
X167630000Y-92680000D03*
X170170000Y-92680000D03*
X172710000Y-92680000D03*
X172710000Y-85060000D03*
X170170000Y-85060000D03*
X167630000Y-85060000D03*
X165090000Y-85060000D03*
X162550000Y-85060000D03*
X160010000Y-85060000D03*
X157470000Y-85060000D03*
X154930000Y-85060000D03*
D17*
X108742600Y-51411700D03*
X101732600Y-51411700D03*
D18*
X102982600Y-48921700D03*
X107482600Y-48921700D03*
D12*
X130185000Y-125750000D03*
X130185000Y-128250000D03*
D24*
X133350000Y-92505000D03*
D25*
X133350000Y-89965000D03*
X133350000Y-87425000D03*
D14*
X140980000Y-92680000D03*
D13*
X148600000Y-92680000D03*
X148600000Y-85060000D03*
X140980000Y-85060000D03*
D12*
X186690000Y-66294000D03*
D13*
X176530000Y-66294000D03*
D14*
X109225000Y-130800000D03*
D13*
X111765000Y-130800000D03*
X114305000Y-130800000D03*
X116845000Y-130800000D03*
X119385000Y-130800000D03*
X121925000Y-130800000D03*
X124465000Y-130800000D03*
X127005000Y-130800000D03*
X127005000Y-123180000D03*
X124465000Y-123180000D03*
X121925000Y-123180000D03*
X119385000Y-123180000D03*
X116845000Y-123180000D03*
X114305000Y-123180000D03*
X111765000Y-123180000D03*
X109225000Y-123180000D03*
D15*
X165968000Y-52990000D03*
D16*
X163428000Y-52990000D03*
D15*
X171048000Y-52990000D03*
D16*
X168508000Y-52990000D03*
D14*
X133345000Y-67300000D03*
D13*
X135885000Y-67300000D03*
X138425000Y-67300000D03*
X140965000Y-67300000D03*
X143505000Y-67300000D03*
X146045000Y-67300000D03*
X148585000Y-67300000D03*
X148585000Y-59680000D03*
X146045000Y-59680000D03*
X143505000Y-59680000D03*
X140965000Y-59680000D03*
X138425000Y-59680000D03*
X135885000Y-59680000D03*
X133345000Y-59680000D03*
D12*
X186690000Y-69850000D03*
D13*
X176530000Y-69850000D03*
D15*
X181208000Y-52990000D03*
D16*
X178668000Y-52990000D03*
D14*
X111760000Y-79980000D03*
D13*
X114300000Y-79980000D03*
X116840000Y-79980000D03*
X119380000Y-79980000D03*
X121920000Y-79980000D03*
X124460000Y-79980000D03*
X127000000Y-79980000D03*
X127000000Y-72360000D03*
X124460000Y-72360000D03*
X121920000Y-72360000D03*
X119380000Y-72360000D03*
X116840000Y-72360000D03*
X114300000Y-72360000D03*
X111760000Y-72360000D03*
D14*
X140985000Y-79980000D03*
D13*
X143525000Y-79980000D03*
X146065000Y-79980000D03*
X148605000Y-79980000D03*
X148605000Y-72360000D03*
X146065000Y-72360000D03*
X143525000Y-72360000D03*
X140985000Y-72360000D03*
D12*
X151775000Y-125750000D03*
X151775000Y-128250000D03*
X186690000Y-62738000D03*
D13*
X176530000Y-62738000D03*
D14*
X133355000Y-118110000D03*
D13*
X135895000Y-118110000D03*
X138435000Y-118110000D03*
X140975000Y-118110000D03*
X143515000Y-118110000D03*
X146055000Y-118110000D03*
X148595000Y-118110000D03*
X148595000Y-110490000D03*
X146055000Y-110490000D03*
X143515000Y-110490000D03*
X140975000Y-110490000D03*
X138435000Y-110490000D03*
X135895000Y-110490000D03*
X133355000Y-110490000D03*
D12*
X151765000Y-100330000D03*
X151765000Y-102830000D03*
X186690000Y-84074000D03*
D13*
X176530000Y-84074000D03*
D12*
X151765000Y-74930000D03*
X151765000Y-77430000D03*
D14*
X154930000Y-118100000D03*
D13*
X157470000Y-118100000D03*
X160010000Y-118100000D03*
X162550000Y-118100000D03*
X165090000Y-118100000D03*
X167630000Y-118100000D03*
X170170000Y-118100000D03*
X172710000Y-118100000D03*
X172710000Y-110480000D03*
X170170000Y-110480000D03*
X167630000Y-110480000D03*
X165090000Y-110480000D03*
X162550000Y-110480000D03*
X160010000Y-110480000D03*
X157470000Y-110480000D03*
X154930000Y-110480000D03*
D12*
X108585000Y-113050000D03*
X108585000Y-115550000D03*
X108585000Y-100330000D03*
X108585000Y-102830000D03*
D15*
X98913000Y-52990000D03*
D16*
X96373000Y-52990000D03*
D12*
X186690000Y-73406000D03*
D13*
X176530000Y-73406000D03*
D15*
X150728000Y-52990000D03*
D16*
X148188000Y-52990000D03*
D12*
X186690000Y-80518000D03*
D13*
X176530000Y-80518000D03*
M02*
