%TF.GenerationSoftware,KiCad,Pcbnew,(6.0.9)*%
%TF.CreationDate,2022-12-02T19:34:26-05:00*%
%TF.ProjectId,Part 3 - Clock v3,50617274-2033-4202-9d20-436c6f636b20,1.1*%
%TF.SameCoordinates,Original*%
%TF.FileFunction,Drillmap*%
%TF.FilePolarity,Positive*%
%FSLAX45Y45*%
G04 Gerber Fmt 4.5, Leading zero omitted, Abs format (unit mm)*
G04 Created by KiCad (PCBNEW (6.0.9)) date 2022-12-02 19:34:26*
%MOMM*%
%LPD*%
G01*
G04 APERTURE LIST*
%ADD10C,0.200000*%
G04 APERTURE END LIST*
D10*
X9190619Y-14925476D02*
X9190619Y-14725476D01*
X9238238Y-14725476D01*
X9266810Y-14735000D01*
X9285857Y-14754048D01*
X9295381Y-14773095D01*
X9304905Y-14811190D01*
X9304905Y-14839762D01*
X9295381Y-14877857D01*
X9285857Y-14896905D01*
X9266810Y-14915952D01*
X9238238Y-14925476D01*
X9190619Y-14925476D01*
X9390619Y-14925476D02*
X9390619Y-14792143D01*
X9390619Y-14830238D02*
X9400143Y-14811190D01*
X9409667Y-14801667D01*
X9428714Y-14792143D01*
X9447762Y-14792143D01*
X9514429Y-14925476D02*
X9514429Y-14792143D01*
X9514429Y-14725476D02*
X9504905Y-14735000D01*
X9514429Y-14744524D01*
X9523952Y-14735000D01*
X9514429Y-14725476D01*
X9514429Y-14744524D01*
X9638238Y-14925476D02*
X9619190Y-14915952D01*
X9609667Y-14896905D01*
X9609667Y-14725476D01*
X9743000Y-14925476D02*
X9723952Y-14915952D01*
X9714429Y-14896905D01*
X9714429Y-14725476D01*
X9971571Y-14925476D02*
X9971571Y-14725476D01*
X10038238Y-14868333D01*
X10104905Y-14725476D01*
X10104905Y-14925476D01*
X10285857Y-14925476D02*
X10285857Y-14820714D01*
X10276333Y-14801667D01*
X10257286Y-14792143D01*
X10219190Y-14792143D01*
X10200143Y-14801667D01*
X10285857Y-14915952D02*
X10266810Y-14925476D01*
X10219190Y-14925476D01*
X10200143Y-14915952D01*
X10190619Y-14896905D01*
X10190619Y-14877857D01*
X10200143Y-14858809D01*
X10219190Y-14849286D01*
X10266810Y-14849286D01*
X10285857Y-14839762D01*
X10381095Y-14792143D02*
X10381095Y-14992143D01*
X10381095Y-14801667D02*
X10400143Y-14792143D01*
X10438238Y-14792143D01*
X10457286Y-14801667D01*
X10466810Y-14811190D01*
X10476333Y-14830238D01*
X10476333Y-14887381D01*
X10466810Y-14906428D01*
X10457286Y-14915952D01*
X10438238Y-14925476D01*
X10400143Y-14925476D01*
X10381095Y-14915952D01*
X10562048Y-14906428D02*
X10571571Y-14915952D01*
X10562048Y-14925476D01*
X10552524Y-14915952D01*
X10562048Y-14906428D01*
X10562048Y-14925476D01*
X10562048Y-14801667D02*
X10571571Y-14811190D01*
X10562048Y-14820714D01*
X10552524Y-14811190D01*
X10562048Y-14801667D01*
X10562048Y-14820714D01*
M02*
