%TF.GenerationSoftware,KiCad,Pcbnew,(6.0.9)*%
%TF.CreationDate,2022-12-02T19:26:51-05:00*%
%TF.ProjectId,DIP 68 1.778mm adaptor,44495020-3638-4203-912e-3737386d6d20,rev?*%
%TF.SameCoordinates,Original*%
%TF.FileFunction,Drillmap*%
%TF.FilePolarity,Positive*%
%FSLAX45Y45*%
G04 Gerber Fmt 4.5, Leading zero omitted, Abs format (unit mm)*
G04 Created by KiCad (PCBNEW (6.0.9)) date 2022-12-02 19:26:51*
%MOMM*%
%LPD*%
G01*
G04 APERTURE LIST*
%ADD10C,0.100000*%
%ADD11C,0.200000*%
G04 APERTURE END LIST*
D10*
X11029950Y-4425950D02*
X14497050Y-4425950D01*
X11029950Y-12592050D02*
X11029950Y-4425950D01*
X14497050Y-4425950D02*
X14497050Y-12592050D01*
X14497050Y-12592050D02*
X11029950Y-12592050D01*
D11*
X11282569Y-12907526D02*
X11282569Y-12707526D01*
X11330188Y-12707526D01*
X11358759Y-12717050D01*
X11377807Y-12736098D01*
X11387331Y-12755145D01*
X11396855Y-12793240D01*
X11396855Y-12821812D01*
X11387331Y-12859907D01*
X11377807Y-12878955D01*
X11358759Y-12898002D01*
X11330188Y-12907526D01*
X11282569Y-12907526D01*
X11482569Y-12907526D02*
X11482569Y-12774193D01*
X11482569Y-12812288D02*
X11492093Y-12793240D01*
X11501617Y-12783717D01*
X11520664Y-12774193D01*
X11539712Y-12774193D01*
X11606378Y-12907526D02*
X11606378Y-12774193D01*
X11606378Y-12707526D02*
X11596855Y-12717050D01*
X11606378Y-12726574D01*
X11615902Y-12717050D01*
X11606378Y-12707526D01*
X11606378Y-12726574D01*
X11730188Y-12907526D02*
X11711140Y-12898002D01*
X11701617Y-12878955D01*
X11701617Y-12707526D01*
X11834950Y-12907526D02*
X11815902Y-12898002D01*
X11806378Y-12878955D01*
X11806378Y-12707526D01*
X12063521Y-12907526D02*
X12063521Y-12707526D01*
X12130188Y-12850383D01*
X12196855Y-12707526D01*
X12196855Y-12907526D01*
X12377807Y-12907526D02*
X12377807Y-12802764D01*
X12368283Y-12783717D01*
X12349236Y-12774193D01*
X12311140Y-12774193D01*
X12292093Y-12783717D01*
X12377807Y-12898002D02*
X12358759Y-12907526D01*
X12311140Y-12907526D01*
X12292093Y-12898002D01*
X12282569Y-12878955D01*
X12282569Y-12859907D01*
X12292093Y-12840859D01*
X12311140Y-12831336D01*
X12358759Y-12831336D01*
X12377807Y-12821812D01*
X12473045Y-12774193D02*
X12473045Y-12974193D01*
X12473045Y-12783717D02*
X12492093Y-12774193D01*
X12530188Y-12774193D01*
X12549236Y-12783717D01*
X12558759Y-12793240D01*
X12568283Y-12812288D01*
X12568283Y-12869431D01*
X12558759Y-12888478D01*
X12549236Y-12898002D01*
X12530188Y-12907526D01*
X12492093Y-12907526D01*
X12473045Y-12898002D01*
X12653998Y-12888478D02*
X12663521Y-12898002D01*
X12653998Y-12907526D01*
X12644474Y-12898002D01*
X12653998Y-12888478D01*
X12653998Y-12907526D01*
X12653998Y-12783717D02*
X12663521Y-12793240D01*
X12653998Y-12802764D01*
X12644474Y-12793240D01*
X12653998Y-12783717D01*
X12653998Y-12802764D01*
M02*
