G04 #@! TF.GenerationSoftware,KiCad,Pcbnew,(6.0.9)*
G04 #@! TF.CreationDate,2022-12-02T20:28:39-05:00*
G04 #@! TF.ProjectId,DIP 68 1.778mm adaptor,44495020-3638-4203-912e-3737386d6d20,rev?*
G04 #@! TF.SameCoordinates,Original*
G04 #@! TF.FileFunction,Legend,Bot*
G04 #@! TF.FilePolarity,Positive*
%FSLAX46Y46*%
G04 Gerber Fmt 4.6, Leading zero omitted, Abs format (unit mm)*
G04 Created by KiCad (PCBNEW (6.0.9)) date 2022-12-02 20:28:39*
%MOMM*%
%LPD*%
G01*
G04 APERTURE LIST*
G04 Aperture macros list*
%AMRoundRect*
0 Rectangle with rounded corners*
0 $1 Rounding radius*
0 $2 $3 $4 $5 $6 $7 $8 $9 X,Y pos of 4 corners*
0 Add a 4 corners polygon primitive as box body*
4,1,4,$2,$3,$4,$5,$6,$7,$8,$9,$2,$3,0*
0 Add four circle primitives for the rounded corners*
1,1,$1+$1,$2,$3*
1,1,$1+$1,$4,$5*
1,1,$1+$1,$6,$7*
1,1,$1+$1,$8,$9*
0 Add four rect primitives between the rounded corners*
20,1,$1+$1,$2,$3,$4,$5,0*
20,1,$1+$1,$4,$5,$6,$7,0*
20,1,$1+$1,$6,$7,$8,$9,0*
20,1,$1+$1,$8,$9,$2,$3,0*%
G04 Aperture macros list end*
%ADD10C,0.150000*%
%ADD11RoundRect,0.200000X-1.270000X-0.508000X1.270000X-0.508000X1.270000X0.508000X-1.270000X0.508000X0*%
%ADD12O,2.940000X1.416000*%
%ADD13RoundRect,0.200000X-0.850000X-0.850000X0.850000X-0.850000X0.850000X0.850000X-0.850000X0.850000X0*%
%ADD14O,2.100000X2.100000*%
G04 APERTURE END LIST*
D10*
X124499619Y-89328047D02*
X123785333Y-89328047D01*
X123642476Y-89375666D01*
X123547238Y-89470904D01*
X123499619Y-89613761D01*
X123499619Y-89709000D01*
X123499619Y-88375666D02*
X123499619Y-88851857D01*
X124499619Y-88851857D01*
X123594857Y-87470904D02*
X123547238Y-87518523D01*
X123499619Y-87661380D01*
X123499619Y-87756619D01*
X123547238Y-87899476D01*
X123642476Y-87994714D01*
X123737714Y-88042333D01*
X123928190Y-88089952D01*
X124071047Y-88089952D01*
X124261523Y-88042333D01*
X124356761Y-87994714D01*
X124452000Y-87899476D01*
X124499619Y-87756619D01*
X124499619Y-87661380D01*
X124452000Y-87518523D01*
X124404380Y-87470904D01*
X124499619Y-86756619D02*
X123785333Y-86756619D01*
X123642476Y-86804238D01*
X123547238Y-86899476D01*
X123499619Y-87042333D01*
X123499619Y-87137571D01*
X123499619Y-85804238D02*
X123499619Y-86280428D01*
X124499619Y-86280428D01*
X123594857Y-84899476D02*
X123547238Y-84947095D01*
X123499619Y-85089952D01*
X123499619Y-85185190D01*
X123547238Y-85328047D01*
X123642476Y-85423285D01*
X123737714Y-85470904D01*
X123928190Y-85518523D01*
X124071047Y-85518523D01*
X124261523Y-85470904D01*
X124356761Y-85423285D01*
X124452000Y-85328047D01*
X124499619Y-85185190D01*
X124499619Y-85089952D01*
X124452000Y-84947095D01*
X124404380Y-84899476D01*
X124499619Y-84185190D02*
X123785333Y-84185190D01*
X123642476Y-84232809D01*
X123547238Y-84328047D01*
X123499619Y-84470904D01*
X123499619Y-84566142D01*
X123499619Y-83232809D02*
X123499619Y-83709000D01*
X124499619Y-83709000D01*
X123594857Y-82328047D02*
X123547238Y-82375666D01*
X123499619Y-82518523D01*
X123499619Y-82613761D01*
X123547238Y-82756619D01*
X123642476Y-82851857D01*
X123737714Y-82899476D01*
X123928190Y-82947095D01*
X124071047Y-82947095D01*
X124261523Y-82899476D01*
X124356761Y-82851857D01*
X124452000Y-82756619D01*
X124499619Y-82613761D01*
X124499619Y-82518523D01*
X124452000Y-82375666D01*
X124404380Y-82328047D01*
X124499619Y-81613761D02*
X123785333Y-81613761D01*
X123642476Y-81661380D01*
X123547238Y-81756619D01*
X123499619Y-81899476D01*
X123499619Y-81994714D01*
X123499619Y-80661380D02*
X123499619Y-81137571D01*
X124499619Y-81137571D01*
X123594857Y-79756619D02*
X123547238Y-79804238D01*
X123499619Y-79947095D01*
X123499619Y-80042333D01*
X123547238Y-80185190D01*
X123642476Y-80280428D01*
X123737714Y-80328047D01*
X123928190Y-80375666D01*
X124071047Y-80375666D01*
X124261523Y-80328047D01*
X124356761Y-80280428D01*
X124452000Y-80185190D01*
X124499619Y-80042333D01*
X124499619Y-79947095D01*
X124452000Y-79804238D01*
X124404380Y-79756619D01*
G36*
X131732988Y-91438225D02*
G01*
X131762068Y-91450623D01*
X131772401Y-91463072D01*
X131784742Y-91496594D01*
X131793845Y-91554439D01*
X131800152Y-91643779D01*
X131804107Y-91771785D01*
X131806155Y-91945629D01*
X131806739Y-92172482D01*
X131806739Y-92857267D01*
X131513315Y-92923338D01*
X131433846Y-92941341D01*
X131312224Y-92969336D01*
X131218150Y-92991543D01*
X131167225Y-93004313D01*
X131165130Y-93004888D01*
X131138377Y-93004967D01*
X131123088Y-92979657D01*
X131116177Y-92917372D01*
X131114559Y-92806526D01*
X131113623Y-92725586D01*
X131104919Y-92639569D01*
X131080766Y-92599371D01*
X131033640Y-92596203D01*
X130956020Y-92621274D01*
X130951222Y-92623049D01*
X130868316Y-92646822D01*
X130772024Y-92666486D01*
X130754942Y-92669374D01*
X130641783Y-92693307D01*
X130495739Y-92729646D01*
X130329856Y-92774556D01*
X130157179Y-92824204D01*
X129990753Y-92874755D01*
X129843625Y-92922375D01*
X129728839Y-92963230D01*
X129659440Y-92993485D01*
X129595089Y-93033363D01*
X129498629Y-93122525D01*
X129436691Y-93237653D01*
X129398642Y-93395119D01*
X129389383Y-93470630D01*
X129396282Y-93717891D01*
X129457183Y-93957582D01*
X129474260Y-94013200D01*
X129487631Y-94096916D01*
X129485443Y-94162892D01*
X129466869Y-94191160D01*
X129425954Y-94196975D01*
X129345980Y-94213276D01*
X129228580Y-94241393D01*
X129063526Y-94283673D01*
X128992953Y-94301506D01*
X128868206Y-94326057D01*
X128786232Y-94324485D01*
X128737234Y-94292356D01*
X128711417Y-94225237D01*
X128698983Y-94118694D01*
X128691072Y-93974232D01*
X128685355Y-93774490D01*
X128684009Y-93566875D01*
X128686933Y-93368370D01*
X128694028Y-93195957D01*
X128705193Y-93066619D01*
X128708406Y-93043883D01*
X128759119Y-92838104D01*
X128844118Y-92628463D01*
X128953309Y-92436266D01*
X129076596Y-92282819D01*
X129161412Y-92206935D01*
X129262899Y-92136403D01*
X129385706Y-92071015D01*
X129537415Y-92007613D01*
X129725613Y-91943039D01*
X129957883Y-91874137D01*
X130241810Y-91797749D01*
X130256973Y-91793807D01*
X130480206Y-91735758D01*
X130713521Y-91675060D01*
X130939836Y-91616161D01*
X131142064Y-91563508D01*
X131303122Y-91521545D01*
X131313572Y-91518824D01*
X131481811Y-91476376D01*
X131601819Y-91449717D01*
X131682558Y-91437461D01*
X131732988Y-91438225D01*
G37*
G36*
X131571775Y-84934981D02*
G01*
X131609676Y-84986278D01*
X131655744Y-85077169D01*
X131705111Y-85196556D01*
X131752907Y-85333338D01*
X131794262Y-85476417D01*
X131816502Y-85590791D01*
X131836419Y-85768011D01*
X131848183Y-85970599D01*
X131851580Y-86181586D01*
X131846400Y-86384001D01*
X131832430Y-86560876D01*
X131809460Y-86695240D01*
X131789796Y-86767924D01*
X131663778Y-87115119D01*
X131496370Y-87421550D01*
X131289831Y-87685117D01*
X131046419Y-87903720D01*
X130768390Y-88075259D01*
X130458002Y-88197635D01*
X130117514Y-88268749D01*
X129955106Y-88282800D01*
X129669809Y-88271348D01*
X129415934Y-88210341D01*
X129195031Y-88100237D01*
X129008651Y-87941492D01*
X129004907Y-87937417D01*
X128896212Y-87801834D01*
X128812496Y-87655095D01*
X128749199Y-87485034D01*
X128701763Y-87279490D01*
X128665628Y-87026298D01*
X128657070Y-86831898D01*
X128671304Y-86588779D01*
X128707125Y-86330508D01*
X128761698Y-86077125D01*
X128832189Y-85848667D01*
X128928366Y-85588926D01*
X129096048Y-85549869D01*
X129167557Y-85533273D01*
X129249714Y-85514384D01*
X129293824Y-85504483D01*
X129321962Y-85497734D01*
X129395901Y-85478907D01*
X129492736Y-85453628D01*
X129618966Y-85432241D01*
X129712403Y-85444330D01*
X129759730Y-85489598D01*
X129757912Y-85564974D01*
X129703916Y-85667387D01*
X129665268Y-85728827D01*
X129609743Y-85827135D01*
X129552624Y-85936125D01*
X129516715Y-86011489D01*
X129428368Y-86250339D01*
X129380513Y-86479735D01*
X129372931Y-86692466D01*
X129405403Y-86881323D01*
X129477711Y-87039098D01*
X129589638Y-87158579D01*
X129630880Y-87184988D01*
X129682454Y-87204158D01*
X129754080Y-87215362D01*
X129859127Y-87220611D01*
X130010965Y-87221915D01*
X130047713Y-87221877D01*
X130188870Y-87219977D01*
X130290437Y-87213092D01*
X130369388Y-87198314D01*
X130442693Y-87172735D01*
X130527326Y-87133447D01*
X130590272Y-87099787D01*
X130777999Y-86965626D01*
X130938643Y-86800343D01*
X131055656Y-86620019D01*
X131065976Y-86598578D01*
X131098649Y-86517629D01*
X131117829Y-86434313D01*
X131126727Y-86329395D01*
X131128556Y-86183644D01*
X131128263Y-86148195D01*
X131120392Y-85993410D01*
X131097120Y-85866041D01*
X131051999Y-85748263D01*
X130978580Y-85622253D01*
X130870413Y-85470185D01*
X130829511Y-85411190D01*
X130773826Y-85307800D01*
X130753514Y-85229426D01*
X130753540Y-85223576D01*
X130756776Y-85190377D01*
X130771961Y-85164392D01*
X130808347Y-85141113D01*
X130875186Y-85116030D01*
X130981727Y-85084636D01*
X131137222Y-85042422D01*
X131164322Y-85035143D01*
X131306983Y-84996615D01*
X131427421Y-84963753D01*
X131513658Y-84939841D01*
X131553718Y-84928165D01*
X131571775Y-84934981D01*
G37*
G36*
X129356094Y-88784677D02*
G01*
X129429251Y-88803038D01*
X129429251Y-89527959D01*
X129429465Y-89743415D01*
X129430481Y-89920178D01*
X129432808Y-90049965D01*
X129436955Y-90139581D01*
X129443431Y-90195830D01*
X129452744Y-90225517D01*
X129465403Y-90235448D01*
X129481917Y-90232428D01*
X129514322Y-90222270D01*
X129598409Y-90199577D01*
X129715417Y-90170019D01*
X129850578Y-90137402D01*
X129855241Y-90136299D01*
X129987339Y-90104105D01*
X130161589Y-90060305D01*
X130362711Y-90008808D01*
X130575429Y-89953525D01*
X130784466Y-89898367D01*
X130839138Y-89883835D01*
X131023826Y-89835054D01*
X131189768Y-89791678D01*
X131327117Y-89756252D01*
X131426026Y-89731323D01*
X131476646Y-89719435D01*
X131549354Y-89705400D01*
X131643148Y-89687503D01*
X131688724Y-89681173D01*
X131735619Y-89686627D01*
X131768164Y-89714901D01*
X131788619Y-89773455D01*
X131799244Y-89869747D01*
X131802297Y-90011234D01*
X131800039Y-90205375D01*
X131791692Y-90652720D01*
X131355317Y-90762136D01*
X131224150Y-90795060D01*
X130910861Y-90873976D01*
X130600539Y-90952506D01*
X130298727Y-91029222D01*
X130010965Y-91102697D01*
X129742793Y-91171503D01*
X129499752Y-91234212D01*
X129287383Y-91289396D01*
X129111228Y-91335627D01*
X128976825Y-91371479D01*
X128889718Y-91395522D01*
X128855445Y-91406329D01*
X128825366Y-91407665D01*
X128768390Y-91383823D01*
X128756556Y-91375674D01*
X128743382Y-91361296D01*
X128732775Y-91337623D01*
X128724457Y-91299000D01*
X128718150Y-91239772D01*
X128713577Y-91154285D01*
X128710459Y-91036883D01*
X128708518Y-90881912D01*
X128707476Y-90683716D01*
X128707055Y-90436640D01*
X128706976Y-90135030D01*
X128706976Y-88924590D01*
X128834879Y-88891064D01*
X128881626Y-88878635D01*
X129002683Y-88845595D01*
X129122860Y-88811927D01*
X129186532Y-88796518D01*
X129286025Y-88782374D01*
X129356094Y-88784677D01*
G37*
G36*
X130347142Y-84647405D02*
G01*
X130153125Y-84697090D01*
X129916029Y-84757892D01*
X129687672Y-84816538D01*
X129480447Y-84869843D01*
X129306749Y-84914620D01*
X129178972Y-84947683D01*
X129145780Y-84956240D01*
X128989514Y-84993897D01*
X128879938Y-85014343D01*
X128808130Y-85018898D01*
X128765169Y-85008879D01*
X128759711Y-85005810D01*
X128738962Y-84988040D01*
X128724481Y-84957260D01*
X128715154Y-84904033D01*
X128709869Y-84818925D01*
X128707514Y-84692501D01*
X128706976Y-84515327D01*
X128706976Y-84052918D01*
X128864974Y-84017381D01*
X128920443Y-84004631D01*
X129043851Y-83975433D01*
X129191458Y-83939833D01*
X129342220Y-83902881D01*
X129661469Y-83823917D01*
X129675003Y-83525790D01*
X130391094Y-83525790D01*
X130398214Y-83598209D01*
X130413331Y-83625512D01*
X130414123Y-83625472D01*
X130453625Y-83617248D01*
X130535421Y-83597359D01*
X130644744Y-83569639D01*
X130766822Y-83537922D01*
X130886886Y-83506042D01*
X130990166Y-83477835D01*
X131061893Y-83457135D01*
X131077949Y-83449919D01*
X131100553Y-83419093D01*
X131111624Y-83355553D01*
X131114559Y-83245654D01*
X131113836Y-83185315D01*
X131097218Y-82988840D01*
X131057297Y-82845100D01*
X130992294Y-82751202D01*
X130900429Y-82704250D01*
X130779923Y-82701352D01*
X130663163Y-82736393D01*
X130544228Y-82828208D01*
X130452418Y-82973054D01*
X130445221Y-82991576D01*
X130425312Y-83073309D01*
X130409081Y-83182015D01*
X130397391Y-83303275D01*
X130391108Y-83422673D01*
X130391094Y-83525790D01*
X129675003Y-83525790D01*
X129678608Y-83446376D01*
X129687145Y-83306028D01*
X129703168Y-83125570D01*
X129722956Y-82958445D01*
X129744033Y-82828076D01*
X129768948Y-82723348D01*
X129842181Y-82505432D01*
X129938975Y-82292659D01*
X130050429Y-82103350D01*
X130167648Y-81955828D01*
X130236887Y-81891147D01*
X130436922Y-81759038D01*
X130663252Y-81676072D01*
X130906265Y-81645038D01*
X131156346Y-81668730D01*
X131336072Y-81735228D01*
X131489674Y-81854767D01*
X131614898Y-82025806D01*
X131710818Y-82247077D01*
X131776506Y-82517312D01*
X131779555Y-82538083D01*
X131788830Y-82646658D01*
X131795755Y-82804483D01*
X131800124Y-83003073D01*
X131801727Y-83233945D01*
X131800357Y-83488615D01*
X131791692Y-84269534D01*
X131475696Y-84354501D01*
X131378613Y-84380310D01*
X131221629Y-84421498D01*
X131028225Y-84471855D01*
X130810165Y-84528328D01*
X130579216Y-84587863D01*
X130413331Y-84630423D01*
X130347142Y-84647405D01*
G37*
G36*
X131627114Y-78205779D02*
G01*
X131685488Y-78344944D01*
X131779625Y-78656587D01*
X131839070Y-78991690D01*
X131862231Y-79333384D01*
X131847520Y-79664801D01*
X131793344Y-79969071D01*
X131763849Y-80071441D01*
X131640380Y-80378946D01*
X131474429Y-80660886D01*
X131272179Y-80909273D01*
X131039813Y-81116121D01*
X130783516Y-81273443D01*
X130674839Y-81324532D01*
X130463269Y-81408244D01*
X130265253Y-81459570D01*
X130058954Y-81483297D01*
X129822535Y-81484215D01*
X129724509Y-81480203D01*
X129598191Y-81470626D01*
X129502268Y-81454259D01*
X129418115Y-81427427D01*
X129327109Y-81386455D01*
X129273799Y-81358811D01*
X129086042Y-81228192D01*
X128933633Y-81059018D01*
X128807429Y-80841705D01*
X128755041Y-80721023D01*
X128708731Y-80566927D01*
X128686016Y-80400632D01*
X128684864Y-80385905D01*
X128674673Y-80279102D01*
X128664004Y-80199961D01*
X128654987Y-80164687D01*
X128651962Y-80155544D01*
X128649941Y-80097632D01*
X128654161Y-79999948D01*
X128663473Y-79876462D01*
X128676726Y-79741144D01*
X128692771Y-79607965D01*
X128710458Y-79490895D01*
X128713865Y-79472547D01*
X128742908Y-79350019D01*
X128784821Y-79204451D01*
X128831755Y-79063506D01*
X128922274Y-78813345D01*
X129077954Y-78769252D01*
X129091494Y-78765419D01*
X129280718Y-78712567D01*
X129421817Y-78675125D01*
X129523730Y-78651215D01*
X129595395Y-78638956D01*
X129645750Y-78636471D01*
X129683734Y-78641879D01*
X129699015Y-78646375D01*
X129747091Y-78680648D01*
X129755825Y-78741057D01*
X129724650Y-78833564D01*
X129652996Y-78964131D01*
X129632767Y-78997917D01*
X129499064Y-79258366D01*
X129414985Y-79505385D01*
X129376507Y-79750414D01*
X129373217Y-79824495D01*
X129389478Y-80037257D01*
X129447269Y-80206477D01*
X129546901Y-80332458D01*
X129688686Y-80415504D01*
X129872935Y-80455916D01*
X130099960Y-80453999D01*
X130269302Y-80426375D01*
X130511473Y-80342901D01*
X130728468Y-80214683D01*
X130910621Y-80047891D01*
X131048268Y-79848692D01*
X131065348Y-79815216D01*
X131097723Y-79738113D01*
X131116709Y-79657940D01*
X131125801Y-79555680D01*
X131128496Y-79412317D01*
X131128427Y-79344013D01*
X131124349Y-79220465D01*
X131111926Y-79128530D01*
X131087612Y-79048328D01*
X131047865Y-78959980D01*
X131011463Y-78892099D01*
X130934512Y-78769433D01*
X130857831Y-78667027D01*
X130800748Y-78593813D01*
X130764025Y-78518805D01*
X130759003Y-78445362D01*
X130760928Y-78428615D01*
X130777446Y-78374231D01*
X130819515Y-78339756D01*
X130903895Y-78309469D01*
X130939409Y-78299033D01*
X131038919Y-78271951D01*
X131114559Y-78254218D01*
X131175782Y-78240259D01*
X131276335Y-78214627D01*
X131390282Y-78183755D01*
X131590767Y-78127796D01*
X131627114Y-78205779D01*
G37*
G36*
X129308800Y-78107638D02*
G01*
X129160193Y-78144113D01*
X129043428Y-78171717D01*
X128954279Y-78191430D01*
X128888522Y-78204230D01*
X128841933Y-78211096D01*
X128810288Y-78213006D01*
X128789361Y-78210941D01*
X128774929Y-78205877D01*
X128762767Y-78198795D01*
X128755900Y-78194102D01*
X128740717Y-78177662D01*
X128729035Y-78149587D01*
X128720399Y-78102940D01*
X128714353Y-78030787D01*
X128710443Y-77926189D01*
X128708213Y-77782211D01*
X128707209Y-77591917D01*
X128706976Y-77348371D01*
X128707878Y-77154612D01*
X128711122Y-76926986D01*
X128712297Y-76879554D01*
X129399075Y-76879554D01*
X129400476Y-76971931D01*
X129411904Y-77029566D01*
X129443086Y-77056708D01*
X129503748Y-77057607D01*
X129603616Y-77036512D01*
X129752415Y-76997674D01*
X130008824Y-76930424D01*
X130001300Y-76759924D01*
X130657623Y-76759924D01*
X130848473Y-76716235D01*
X130942895Y-76693987D01*
X131030688Y-76671948D01*
X131079840Y-76657903D01*
X131097234Y-76640520D01*
X131109061Y-76590609D01*
X131112979Y-76499687D01*
X131109934Y-76358316D01*
X131107071Y-76288647D01*
X131099029Y-76173088D01*
X131085998Y-76097003D01*
X131064849Y-76046168D01*
X131032448Y-76006356D01*
X131008403Y-75983943D01*
X130952523Y-75955707D01*
X130885048Y-75967950D01*
X130883915Y-75968360D01*
X130809062Y-76013615D01*
X130741448Y-76081439D01*
X130734287Y-76091400D01*
X130705581Y-76144903D01*
X130686815Y-76215010D01*
X130675188Y-76316242D01*
X130667904Y-76463121D01*
X130657623Y-76759924D01*
X130001300Y-76759924D01*
X129993743Y-76588684D01*
X129985798Y-76452812D01*
X129967654Y-76300690D01*
X129938316Y-76195672D01*
X129894002Y-76130118D01*
X129830929Y-76096389D01*
X129745316Y-76086843D01*
X129652718Y-76106208D01*
X129555171Y-76178516D01*
X129479126Y-76298488D01*
X129429844Y-76459901D01*
X129415470Y-76561675D01*
X129403681Y-76703999D01*
X129399156Y-76843321D01*
X129399075Y-76879554D01*
X128712297Y-76879554D01*
X128716388Y-76714396D01*
X128723318Y-76528131D01*
X128731557Y-76379476D01*
X128740748Y-76279721D01*
X128746007Y-76242556D01*
X128801549Y-75976341D01*
X128883316Y-75731321D01*
X128986775Y-75517109D01*
X129107395Y-75343316D01*
X129240642Y-75219554D01*
X129400906Y-75130500D01*
X129585011Y-75072078D01*
X129768758Y-75053153D01*
X129942214Y-75072520D01*
X130095446Y-75128972D01*
X130218518Y-75221305D01*
X130301499Y-75348313D01*
X130338900Y-75438607D01*
X130452824Y-75262344D01*
X130459748Y-75251704D01*
X130540716Y-75142614D01*
X130624886Y-75066949D01*
X130735275Y-75003629D01*
X130775835Y-74984321D01*
X130877111Y-74945614D01*
X130973080Y-74930735D01*
X131095957Y-74933412D01*
X131140274Y-74937038D01*
X131301931Y-74970434D01*
X131430562Y-75039203D01*
X131537819Y-75151606D01*
X131635352Y-75315906D01*
X131648718Y-75343062D01*
X131695463Y-75448703D01*
X131732275Y-75555969D01*
X131760148Y-75673217D01*
X131780074Y-75808803D01*
X131793048Y-75971082D01*
X131800065Y-76168410D01*
X131802117Y-76409143D01*
X131800200Y-76701636D01*
X131791692Y-77466902D01*
X131701407Y-77492252D01*
X131698204Y-77493142D01*
X131639905Y-77508692D01*
X131532710Y-77536772D01*
X131385047Y-77575193D01*
X131205341Y-77621768D01*
X131002022Y-77674306D01*
X130783516Y-77730621D01*
X130677301Y-77757959D01*
X130657623Y-77763022D01*
X130306123Y-77853465D01*
X129987909Y-77935207D01*
X129718433Y-78004164D01*
X129503748Y-78058704D01*
X129493472Y-78061315D01*
X129308800Y-78107638D01*
G37*
%LPC*%
D11*
X118110000Y-57150000D03*
D12*
X118110000Y-58928000D03*
X118110000Y-60706000D03*
X118110000Y-62484000D03*
X118110000Y-64262000D03*
X118110000Y-66040000D03*
X118110000Y-67818000D03*
X118110000Y-69596000D03*
X118110000Y-71374000D03*
X118110000Y-73152000D03*
X118110000Y-74930000D03*
X118110000Y-76708000D03*
X118110000Y-78486000D03*
X118110000Y-80264000D03*
X118110000Y-82042000D03*
X118110000Y-83820000D03*
X118110000Y-85598000D03*
X118110000Y-87376000D03*
X118110000Y-89154000D03*
X118110000Y-90932000D03*
X118110000Y-92710000D03*
X118110000Y-94488000D03*
X118110000Y-96266000D03*
X118110000Y-98044000D03*
X118110000Y-99822000D03*
X118110000Y-101600000D03*
X118110000Y-103378000D03*
X118110000Y-105156000D03*
X118110000Y-106934000D03*
X118110000Y-108712000D03*
X118110000Y-110490000D03*
X118110000Y-112268000D03*
X137160000Y-112268000D03*
X137160000Y-110490000D03*
X137160000Y-108712000D03*
X137160000Y-106934000D03*
X137160000Y-105156000D03*
X137160000Y-103378000D03*
X137160000Y-101600000D03*
X137160000Y-99822000D03*
X137160000Y-98044000D03*
X137160000Y-96266000D03*
X137160000Y-94488000D03*
X137160000Y-92710000D03*
X137160000Y-90932000D03*
X137160000Y-89154000D03*
X137160000Y-87376000D03*
X137160000Y-85598000D03*
X137160000Y-83820000D03*
X137160000Y-82042000D03*
X137160000Y-80264000D03*
X137160000Y-78486000D03*
X137160000Y-76708000D03*
X137160000Y-74930000D03*
X137160000Y-73152000D03*
X137160000Y-71374000D03*
X137160000Y-69596000D03*
X137160000Y-67818000D03*
X137160000Y-66040000D03*
X137160000Y-64262000D03*
X137160000Y-62484000D03*
X137160000Y-60706000D03*
X137160000Y-58928000D03*
X137160000Y-57150000D03*
D13*
X143510000Y-45720000D03*
D14*
X143510000Y-48260000D03*
X143510000Y-50800000D03*
X143510000Y-53340000D03*
X143510000Y-55880000D03*
X143510000Y-58420000D03*
X143510000Y-60960000D03*
X143510000Y-63500000D03*
X143510000Y-66040000D03*
X143510000Y-68580000D03*
X143510000Y-71120000D03*
X143510000Y-73660000D03*
X143510000Y-76200000D03*
X143510000Y-78740000D03*
X143510000Y-81280000D03*
X143510000Y-83820000D03*
X143510000Y-86360000D03*
X143510000Y-88900000D03*
X143510000Y-91440000D03*
X143510000Y-93980000D03*
X143510000Y-96520000D03*
X143510000Y-99060000D03*
X143510000Y-101600000D03*
X143510000Y-104140000D03*
X143510000Y-106680000D03*
X143510000Y-109220000D03*
X143510000Y-111760000D03*
X143510000Y-114300000D03*
X143510000Y-116840000D03*
X143510000Y-119380000D03*
X143510000Y-121920000D03*
X143510000Y-124460000D03*
D13*
X111760000Y-45720000D03*
D14*
X111760000Y-48260000D03*
X111760000Y-50800000D03*
X111760000Y-53340000D03*
X111760000Y-55880000D03*
X111760000Y-58420000D03*
X111760000Y-60960000D03*
X111760000Y-63500000D03*
X111760000Y-66040000D03*
X111760000Y-68580000D03*
X111760000Y-71120000D03*
X111760000Y-73660000D03*
X111760000Y-76200000D03*
X111760000Y-78740000D03*
X111760000Y-81280000D03*
X111760000Y-83820000D03*
X111760000Y-86360000D03*
X111760000Y-88900000D03*
X111760000Y-91440000D03*
X111760000Y-93980000D03*
X111760000Y-96520000D03*
X111760000Y-99060000D03*
X111760000Y-101600000D03*
X111760000Y-104140000D03*
X111760000Y-106680000D03*
X111760000Y-109220000D03*
X111760000Y-111760000D03*
X111760000Y-114300000D03*
X111760000Y-116840000D03*
X111760000Y-119380000D03*
X111760000Y-121920000D03*
X111760000Y-124460000D03*
M02*
