%TF.GenerationSoftware,KiCad,Pcbnew,(6.0.9)*%
%TF.CreationDate,2022-12-02T19:26:51-05:00*%
%TF.ProjectId,DIP 68 1.778mm adaptor,44495020-3638-4203-912e-3737386d6d20,rev?*%
%TF.SameCoordinates,Original*%
%TF.FileFunction,Drillmap*%
%TF.FilePolarity,Positive*%
%FSLAX45Y45*%
G04 Gerber Fmt 4.5, Leading zero omitted, Abs format (unit mm)*
G04 Created by KiCad (PCBNEW (6.0.9)) date 2022-12-02 19:26:51*
%MOMM*%
%LPD*%
G01*
G04 APERTURE LIST*
%ADD10C,0.100000*%
%ADD11C,0.200000*%
%ADD12C,0.076200*%
G04 APERTURE END LIST*
D10*
X11029950Y-4425950D02*
X14497050Y-4425950D01*
X11029950Y-12592050D02*
X11029950Y-4425950D01*
X14497050Y-4425950D02*
X14497050Y-12592050D01*
X14497050Y-12592050D02*
X11029950Y-12592050D01*
D11*
D12*
X11772900Y-5676900D02*
X11849100Y-5753100D01*
X11849100Y-5676900D02*
X11772900Y-5753100D01*
X11772900Y-5854700D02*
X11849100Y-5930900D01*
X11849100Y-5854700D02*
X11772900Y-5930900D01*
X11772900Y-6032500D02*
X11849100Y-6108700D01*
X11849100Y-6032500D02*
X11772900Y-6108700D01*
X11772900Y-6210300D02*
X11849100Y-6286500D01*
X11849100Y-6210300D02*
X11772900Y-6286500D01*
X11772900Y-6388100D02*
X11849100Y-6464300D01*
X11849100Y-6388100D02*
X11772900Y-6464300D01*
X11772900Y-6565900D02*
X11849100Y-6642100D01*
X11849100Y-6565900D02*
X11772900Y-6642100D01*
X11772900Y-6743700D02*
X11849100Y-6819900D01*
X11849100Y-6743700D02*
X11772900Y-6819900D01*
X11772900Y-6921500D02*
X11849100Y-6997700D01*
X11849100Y-6921500D02*
X11772900Y-6997700D01*
X11772900Y-7099300D02*
X11849100Y-7175500D01*
X11849100Y-7099300D02*
X11772900Y-7175500D01*
X11772900Y-7277100D02*
X11849100Y-7353300D01*
X11849100Y-7277100D02*
X11772900Y-7353300D01*
X11772900Y-7454900D02*
X11849100Y-7531100D01*
X11849100Y-7454900D02*
X11772900Y-7531100D01*
X11772900Y-7632700D02*
X11849100Y-7708900D01*
X11849100Y-7632700D02*
X11772900Y-7708900D01*
X11772900Y-7810500D02*
X11849100Y-7886700D01*
X11849100Y-7810500D02*
X11772900Y-7886700D01*
X11772900Y-7988300D02*
X11849100Y-8064500D01*
X11849100Y-7988300D02*
X11772900Y-8064500D01*
X11772900Y-8166100D02*
X11849100Y-8242300D01*
X11849100Y-8166100D02*
X11772900Y-8242300D01*
X11772900Y-8343900D02*
X11849100Y-8420100D01*
X11849100Y-8343900D02*
X11772900Y-8420100D01*
X11772900Y-8521700D02*
X11849100Y-8597900D01*
X11849100Y-8521700D02*
X11772900Y-8597900D01*
X11772900Y-8699500D02*
X11849100Y-8775700D01*
X11849100Y-8699500D02*
X11772900Y-8775700D01*
X11772900Y-8877300D02*
X11849100Y-8953500D01*
X11849100Y-8877300D02*
X11772900Y-8953500D01*
X11772900Y-9055100D02*
X11849100Y-9131300D01*
X11849100Y-9055100D02*
X11772900Y-9131300D01*
X11772900Y-9232900D02*
X11849100Y-9309100D01*
X11849100Y-9232900D02*
X11772900Y-9309100D01*
X11772900Y-9410700D02*
X11849100Y-9486900D01*
X11849100Y-9410700D02*
X11772900Y-9486900D01*
X11772900Y-9588500D02*
X11849100Y-9664700D01*
X11849100Y-9588500D02*
X11772900Y-9664700D01*
X11772900Y-9766300D02*
X11849100Y-9842500D01*
X11849100Y-9766300D02*
X11772900Y-9842500D01*
X11772900Y-9944100D02*
X11849100Y-10020300D01*
X11849100Y-9944100D02*
X11772900Y-10020300D01*
X11772900Y-10121900D02*
X11849100Y-10198100D01*
X11849100Y-10121900D02*
X11772900Y-10198100D01*
X11772900Y-10299700D02*
X11849100Y-10375900D01*
X11849100Y-10299700D02*
X11772900Y-10375900D01*
X11772900Y-10477500D02*
X11849100Y-10553700D01*
X11849100Y-10477500D02*
X11772900Y-10553700D01*
X11772900Y-10655300D02*
X11849100Y-10731500D01*
X11849100Y-10655300D02*
X11772900Y-10731500D01*
X11772900Y-10833100D02*
X11849100Y-10909300D01*
X11849100Y-10833100D02*
X11772900Y-10909300D01*
X11772900Y-11010900D02*
X11849100Y-11087100D01*
X11849100Y-11010900D02*
X11772900Y-11087100D01*
X11772900Y-11188700D02*
X11849100Y-11264900D01*
X11849100Y-11188700D02*
X11772900Y-11264900D01*
X13677900Y-5676900D02*
X13754100Y-5753100D01*
X13754100Y-5676900D02*
X13677900Y-5753100D01*
X13677900Y-5854700D02*
X13754100Y-5930900D01*
X13754100Y-5854700D02*
X13677900Y-5930900D01*
X13677900Y-6032500D02*
X13754100Y-6108700D01*
X13754100Y-6032500D02*
X13677900Y-6108700D01*
X13677900Y-6210300D02*
X13754100Y-6286500D01*
X13754100Y-6210300D02*
X13677900Y-6286500D01*
X13677900Y-6388100D02*
X13754100Y-6464300D01*
X13754100Y-6388100D02*
X13677900Y-6464300D01*
X13677900Y-6565900D02*
X13754100Y-6642100D01*
X13754100Y-6565900D02*
X13677900Y-6642100D01*
X13677900Y-6743700D02*
X13754100Y-6819900D01*
X13754100Y-6743700D02*
X13677900Y-6819900D01*
X13677900Y-6921500D02*
X13754100Y-6997700D01*
X13754100Y-6921500D02*
X13677900Y-6997700D01*
X13677900Y-7099300D02*
X13754100Y-7175500D01*
X13754100Y-7099300D02*
X13677900Y-7175500D01*
X13677900Y-7277100D02*
X13754100Y-7353300D01*
X13754100Y-7277100D02*
X13677900Y-7353300D01*
X13677900Y-7454900D02*
X13754100Y-7531100D01*
X13754100Y-7454900D02*
X13677900Y-7531100D01*
X13677900Y-7632700D02*
X13754100Y-7708900D01*
X13754100Y-7632700D02*
X13677900Y-7708900D01*
X13677900Y-7810500D02*
X13754100Y-7886700D01*
X13754100Y-7810500D02*
X13677900Y-7886700D01*
X13677900Y-7988300D02*
X13754100Y-8064500D01*
X13754100Y-7988300D02*
X13677900Y-8064500D01*
X13677900Y-8166100D02*
X13754100Y-8242300D01*
X13754100Y-8166100D02*
X13677900Y-8242300D01*
X13677900Y-8343900D02*
X13754100Y-8420100D01*
X13754100Y-8343900D02*
X13677900Y-8420100D01*
X13677900Y-8521700D02*
X13754100Y-8597900D01*
X13754100Y-8521700D02*
X13677900Y-8597900D01*
X13677900Y-8699500D02*
X13754100Y-8775700D01*
X13754100Y-8699500D02*
X13677900Y-8775700D01*
X13677900Y-8877300D02*
X13754100Y-8953500D01*
X13754100Y-8877300D02*
X13677900Y-8953500D01*
X13677900Y-9055100D02*
X13754100Y-9131300D01*
X13754100Y-9055100D02*
X13677900Y-9131300D01*
X13677900Y-9232900D02*
X13754100Y-9309100D01*
X13754100Y-9232900D02*
X13677900Y-9309100D01*
X13677900Y-9410700D02*
X13754100Y-9486900D01*
X13754100Y-9410700D02*
X13677900Y-9486900D01*
X13677900Y-9588500D02*
X13754100Y-9664700D01*
X13754100Y-9588500D02*
X13677900Y-9664700D01*
X13677900Y-9766300D02*
X13754100Y-9842500D01*
X13754100Y-9766300D02*
X13677900Y-9842500D01*
X13677900Y-9944100D02*
X13754100Y-10020300D01*
X13754100Y-9944100D02*
X13677900Y-10020300D01*
X13677900Y-10121900D02*
X13754100Y-10198100D01*
X13754100Y-10121900D02*
X13677900Y-10198100D01*
X13677900Y-10299700D02*
X13754100Y-10375900D01*
X13754100Y-10299700D02*
X13677900Y-10375900D01*
X13677900Y-10477500D02*
X13754100Y-10553700D01*
X13754100Y-10477500D02*
X13677900Y-10553700D01*
X13677900Y-10655300D02*
X13754100Y-10731500D01*
X13754100Y-10655300D02*
X13677900Y-10731500D01*
X13677900Y-10833100D02*
X13754100Y-10909300D01*
X13754100Y-10833100D02*
X13677900Y-10909300D01*
X13677900Y-11010900D02*
X13754100Y-11087100D01*
X13754100Y-11010900D02*
X13677900Y-11087100D01*
X13677900Y-11188700D02*
X13754100Y-11264900D01*
X13754100Y-11188700D02*
X13677900Y-11264900D01*
D10*
X11226000Y-4572000D02*
G75*
G03*
X11226000Y-4572000I-50000J0D01*
G01*
X11226000Y-4826000D02*
G75*
G03*
X11226000Y-4826000I-50000J0D01*
G01*
X11226000Y-5080000D02*
G75*
G03*
X11226000Y-5080000I-50000J0D01*
G01*
X11226000Y-5334000D02*
G75*
G03*
X11226000Y-5334000I-50000J0D01*
G01*
X11226000Y-5588000D02*
G75*
G03*
X11226000Y-5588000I-50000J0D01*
G01*
X11226000Y-5842000D02*
G75*
G03*
X11226000Y-5842000I-50000J0D01*
G01*
X11226000Y-6096000D02*
G75*
G03*
X11226000Y-6096000I-50000J0D01*
G01*
X11226000Y-6350000D02*
G75*
G03*
X11226000Y-6350000I-50000J0D01*
G01*
X11226000Y-6604000D02*
G75*
G03*
X11226000Y-6604000I-50000J0D01*
G01*
X11226000Y-6858000D02*
G75*
G03*
X11226000Y-6858000I-50000J0D01*
G01*
X11226000Y-7112000D02*
G75*
G03*
X11226000Y-7112000I-50000J0D01*
G01*
X11226000Y-7366000D02*
G75*
G03*
X11226000Y-7366000I-50000J0D01*
G01*
X11226000Y-7620000D02*
G75*
G03*
X11226000Y-7620000I-50000J0D01*
G01*
X11226000Y-7874000D02*
G75*
G03*
X11226000Y-7874000I-50000J0D01*
G01*
X11226000Y-8128000D02*
G75*
G03*
X11226000Y-8128000I-50000J0D01*
G01*
X11226000Y-8382000D02*
G75*
G03*
X11226000Y-8382000I-50000J0D01*
G01*
X11226000Y-8636000D02*
G75*
G03*
X11226000Y-8636000I-50000J0D01*
G01*
X11226000Y-8890000D02*
G75*
G03*
X11226000Y-8890000I-50000J0D01*
G01*
X11226000Y-9144000D02*
G75*
G03*
X11226000Y-9144000I-50000J0D01*
G01*
X11226000Y-9398000D02*
G75*
G03*
X11226000Y-9398000I-50000J0D01*
G01*
X11226000Y-9652000D02*
G75*
G03*
X11226000Y-9652000I-50000J0D01*
G01*
X11226000Y-9906000D02*
G75*
G03*
X11226000Y-9906000I-50000J0D01*
G01*
X11226000Y-10160000D02*
G75*
G03*
X11226000Y-10160000I-50000J0D01*
G01*
X11226000Y-10414000D02*
G75*
G03*
X11226000Y-10414000I-50000J0D01*
G01*
X11226000Y-10668000D02*
G75*
G03*
X11226000Y-10668000I-50000J0D01*
G01*
X11226000Y-10922000D02*
G75*
G03*
X11226000Y-10922000I-50000J0D01*
G01*
X11226000Y-11176000D02*
G75*
G03*
X11226000Y-11176000I-50000J0D01*
G01*
X11226000Y-11430000D02*
G75*
G03*
X11226000Y-11430000I-50000J0D01*
G01*
X11226000Y-11684000D02*
G75*
G03*
X11226000Y-11684000I-50000J0D01*
G01*
X11226000Y-11938000D02*
G75*
G03*
X11226000Y-11938000I-50000J0D01*
G01*
X11226000Y-12192000D02*
G75*
G03*
X11226000Y-12192000I-50000J0D01*
G01*
X11226000Y-12446000D02*
G75*
G03*
X11226000Y-12446000I-50000J0D01*
G01*
X14401000Y-4572000D02*
G75*
G03*
X14401000Y-4572000I-50000J0D01*
G01*
X14401000Y-4826000D02*
G75*
G03*
X14401000Y-4826000I-50000J0D01*
G01*
X14401000Y-5080000D02*
G75*
G03*
X14401000Y-5080000I-50000J0D01*
G01*
X14401000Y-5334000D02*
G75*
G03*
X14401000Y-5334000I-50000J0D01*
G01*
X14401000Y-5588000D02*
G75*
G03*
X14401000Y-5588000I-50000J0D01*
G01*
X14401000Y-5842000D02*
G75*
G03*
X14401000Y-5842000I-50000J0D01*
G01*
X14401000Y-6096000D02*
G75*
G03*
X14401000Y-6096000I-50000J0D01*
G01*
X14401000Y-6350000D02*
G75*
G03*
X14401000Y-6350000I-50000J0D01*
G01*
X14401000Y-6604000D02*
G75*
G03*
X14401000Y-6604000I-50000J0D01*
G01*
X14401000Y-6858000D02*
G75*
G03*
X14401000Y-6858000I-50000J0D01*
G01*
X14401000Y-7112000D02*
G75*
G03*
X14401000Y-7112000I-50000J0D01*
G01*
X14401000Y-7366000D02*
G75*
G03*
X14401000Y-7366000I-50000J0D01*
G01*
X14401000Y-7620000D02*
G75*
G03*
X14401000Y-7620000I-50000J0D01*
G01*
X14401000Y-7874000D02*
G75*
G03*
X14401000Y-7874000I-50000J0D01*
G01*
X14401000Y-8128000D02*
G75*
G03*
X14401000Y-8128000I-50000J0D01*
G01*
X14401000Y-8382000D02*
G75*
G03*
X14401000Y-8382000I-50000J0D01*
G01*
X14401000Y-8636000D02*
G75*
G03*
X14401000Y-8636000I-50000J0D01*
G01*
X14401000Y-8890000D02*
G75*
G03*
X14401000Y-8890000I-50000J0D01*
G01*
X14401000Y-9144000D02*
G75*
G03*
X14401000Y-9144000I-50000J0D01*
G01*
X14401000Y-9398000D02*
G75*
G03*
X14401000Y-9398000I-50000J0D01*
G01*
X14401000Y-9652000D02*
G75*
G03*
X14401000Y-9652000I-50000J0D01*
G01*
X14401000Y-9906000D02*
G75*
G03*
X14401000Y-9906000I-50000J0D01*
G01*
X14401000Y-10160000D02*
G75*
G03*
X14401000Y-10160000I-50000J0D01*
G01*
X14401000Y-10414000D02*
G75*
G03*
X14401000Y-10414000I-50000J0D01*
G01*
X14401000Y-10668000D02*
G75*
G03*
X14401000Y-10668000I-50000J0D01*
G01*
X14401000Y-10922000D02*
G75*
G03*
X14401000Y-10922000I-50000J0D01*
G01*
X14401000Y-11176000D02*
G75*
G03*
X14401000Y-11176000I-50000J0D01*
G01*
X14401000Y-11430000D02*
G75*
G03*
X14401000Y-11430000I-50000J0D01*
G01*
X14401000Y-11684000D02*
G75*
G03*
X14401000Y-11684000I-50000J0D01*
G01*
X14401000Y-11938000D02*
G75*
G03*
X14401000Y-11938000I-50000J0D01*
G01*
X14401000Y-12192000D02*
G75*
G03*
X14401000Y-12192000I-50000J0D01*
G01*
X14401000Y-12446000D02*
G75*
G03*
X14401000Y-12446000I-50000J0D01*
G01*
D11*
X11282569Y-12907526D02*
X11282569Y-12707526D01*
X11330188Y-12707526D01*
X11358759Y-12717050D01*
X11377807Y-12736098D01*
X11387331Y-12755145D01*
X11396855Y-12793240D01*
X11396855Y-12821812D01*
X11387331Y-12859907D01*
X11377807Y-12878955D01*
X11358759Y-12898002D01*
X11330188Y-12907526D01*
X11282569Y-12907526D01*
X11482569Y-12907526D02*
X11482569Y-12774193D01*
X11482569Y-12812288D02*
X11492093Y-12793240D01*
X11501617Y-12783717D01*
X11520664Y-12774193D01*
X11539712Y-12774193D01*
X11606378Y-12907526D02*
X11606378Y-12774193D01*
X11606378Y-12707526D02*
X11596855Y-12717050D01*
X11606378Y-12726574D01*
X11615902Y-12717050D01*
X11606378Y-12707526D01*
X11606378Y-12726574D01*
X11730188Y-12907526D02*
X11711140Y-12898002D01*
X11701617Y-12878955D01*
X11701617Y-12707526D01*
X11834950Y-12907526D02*
X11815902Y-12898002D01*
X11806378Y-12878955D01*
X11806378Y-12707526D01*
X12063521Y-12907526D02*
X12063521Y-12707526D01*
X12130188Y-12850383D01*
X12196855Y-12707526D01*
X12196855Y-12907526D01*
X12377807Y-12907526D02*
X12377807Y-12802764D01*
X12368283Y-12783717D01*
X12349236Y-12774193D01*
X12311140Y-12774193D01*
X12292093Y-12783717D01*
X12377807Y-12898002D02*
X12358759Y-12907526D01*
X12311140Y-12907526D01*
X12292093Y-12898002D01*
X12282569Y-12878955D01*
X12282569Y-12859907D01*
X12292093Y-12840859D01*
X12311140Y-12831336D01*
X12358759Y-12831336D01*
X12377807Y-12821812D01*
X12473045Y-12774193D02*
X12473045Y-12974193D01*
X12473045Y-12783717D02*
X12492093Y-12774193D01*
X12530188Y-12774193D01*
X12549236Y-12783717D01*
X12558759Y-12793240D01*
X12568283Y-12812288D01*
X12568283Y-12869431D01*
X12558759Y-12888478D01*
X12549236Y-12898002D01*
X12530188Y-12907526D01*
X12492093Y-12907526D01*
X12473045Y-12898002D01*
X12653998Y-12888478D02*
X12663521Y-12898002D01*
X12653998Y-12907526D01*
X12644474Y-12898002D01*
X12653998Y-12888478D01*
X12653998Y-12907526D01*
X12653998Y-12783717D02*
X12663521Y-12793240D01*
X12653998Y-12802764D01*
X12644474Y-12793240D01*
X12653998Y-12783717D01*
X12653998Y-12802764D01*
D12*
X10948750Y-13198950D02*
X11024950Y-13275150D01*
X11024950Y-13198950D02*
X10948750Y-13275150D01*
D11*
X11320664Y-13127526D02*
X11339712Y-13127526D01*
X11358759Y-13137050D01*
X11368283Y-13146574D01*
X11377807Y-13165621D01*
X11387331Y-13203717D01*
X11387331Y-13251336D01*
X11377807Y-13289431D01*
X11368283Y-13308478D01*
X11358759Y-13318002D01*
X11339712Y-13327526D01*
X11320664Y-13327526D01*
X11301617Y-13318002D01*
X11292093Y-13308478D01*
X11282569Y-13289431D01*
X11273045Y-13251336D01*
X11273045Y-13203717D01*
X11282569Y-13165621D01*
X11292093Y-13146574D01*
X11301617Y-13137050D01*
X11320664Y-13127526D01*
X11473045Y-13308478D02*
X11482569Y-13318002D01*
X11473045Y-13327526D01*
X11463521Y-13318002D01*
X11473045Y-13308478D01*
X11473045Y-13327526D01*
X11549236Y-13127526D02*
X11682569Y-13127526D01*
X11596855Y-13327526D01*
X11844474Y-13127526D02*
X11806378Y-13127526D01*
X11787331Y-13137050D01*
X11777807Y-13146574D01*
X11758759Y-13175145D01*
X11749236Y-13213240D01*
X11749236Y-13289431D01*
X11758759Y-13308478D01*
X11768283Y-13318002D01*
X11787331Y-13327526D01*
X11825426Y-13327526D01*
X11844474Y-13318002D01*
X11853998Y-13308478D01*
X11863521Y-13289431D01*
X11863521Y-13241812D01*
X11853998Y-13222764D01*
X11844474Y-13213240D01*
X11825426Y-13203717D01*
X11787331Y-13203717D01*
X11768283Y-13213240D01*
X11758759Y-13222764D01*
X11749236Y-13241812D01*
X11939712Y-13146574D02*
X11949236Y-13137050D01*
X11968283Y-13127526D01*
X12015902Y-13127526D01*
X12034950Y-13137050D01*
X12044474Y-13146574D01*
X12053998Y-13165621D01*
X12053998Y-13184669D01*
X12044474Y-13213240D01*
X11930188Y-13327526D01*
X12053998Y-13327526D01*
X12139712Y-13327526D02*
X12139712Y-13194193D01*
X12139712Y-13213240D02*
X12149236Y-13203717D01*
X12168283Y-13194193D01*
X12196855Y-13194193D01*
X12215902Y-13203717D01*
X12225426Y-13222764D01*
X12225426Y-13327526D01*
X12225426Y-13222764D02*
X12234950Y-13203717D01*
X12253998Y-13194193D01*
X12282569Y-13194193D01*
X12301617Y-13203717D01*
X12311140Y-13222764D01*
X12311140Y-13327526D01*
X12406378Y-13327526D02*
X12406378Y-13194193D01*
X12406378Y-13213240D02*
X12415902Y-13203717D01*
X12434950Y-13194193D01*
X12463521Y-13194193D01*
X12482569Y-13203717D01*
X12492093Y-13222764D01*
X12492093Y-13327526D01*
X12492093Y-13222764D02*
X12501617Y-13203717D01*
X12520664Y-13194193D01*
X12549236Y-13194193D01*
X12568283Y-13203717D01*
X12577807Y-13222764D01*
X12577807Y-13327526D01*
X12968283Y-13118002D02*
X12796855Y-13375145D01*
X13225426Y-13127526D02*
X13244474Y-13127526D01*
X13263521Y-13137050D01*
X13273045Y-13146574D01*
X13282569Y-13165621D01*
X13292093Y-13203717D01*
X13292093Y-13251336D01*
X13282569Y-13289431D01*
X13273045Y-13308478D01*
X13263521Y-13318002D01*
X13244474Y-13327526D01*
X13225426Y-13327526D01*
X13206378Y-13318002D01*
X13196855Y-13308478D01*
X13187331Y-13289431D01*
X13177807Y-13251336D01*
X13177807Y-13203717D01*
X13187331Y-13165621D01*
X13196855Y-13146574D01*
X13206378Y-13137050D01*
X13225426Y-13127526D01*
X13377807Y-13308478D02*
X13387331Y-13318002D01*
X13377807Y-13327526D01*
X13368283Y-13318002D01*
X13377807Y-13308478D01*
X13377807Y-13327526D01*
X13511140Y-13127526D02*
X13530188Y-13127526D01*
X13549236Y-13137050D01*
X13558759Y-13146574D01*
X13568283Y-13165621D01*
X13577807Y-13203717D01*
X13577807Y-13251336D01*
X13568283Y-13289431D01*
X13558759Y-13308478D01*
X13549236Y-13318002D01*
X13530188Y-13327526D01*
X13511140Y-13327526D01*
X13492093Y-13318002D01*
X13482569Y-13308478D01*
X13473045Y-13289431D01*
X13463521Y-13251336D01*
X13463521Y-13203717D01*
X13473045Y-13165621D01*
X13482569Y-13146574D01*
X13492093Y-13137050D01*
X13511140Y-13127526D01*
X13644474Y-13127526D02*
X13768283Y-13127526D01*
X13701617Y-13203717D01*
X13730188Y-13203717D01*
X13749236Y-13213240D01*
X13758759Y-13222764D01*
X13768283Y-13241812D01*
X13768283Y-13289431D01*
X13758759Y-13308478D01*
X13749236Y-13318002D01*
X13730188Y-13327526D01*
X13673045Y-13327526D01*
X13653998Y-13318002D01*
X13644474Y-13308478D01*
X13892093Y-13127526D02*
X13911140Y-13127526D01*
X13930188Y-13137050D01*
X13939712Y-13146574D01*
X13949236Y-13165621D01*
X13958759Y-13203717D01*
X13958759Y-13251336D01*
X13949236Y-13289431D01*
X13939712Y-13308478D01*
X13930188Y-13318002D01*
X13911140Y-13327526D01*
X13892093Y-13327526D01*
X13873045Y-13318002D01*
X13863521Y-13308478D01*
X13853998Y-13289431D01*
X13844474Y-13251336D01*
X13844474Y-13203717D01*
X13853998Y-13165621D01*
X13863521Y-13146574D01*
X13873045Y-13137050D01*
X13892093Y-13127526D01*
X14082569Y-13127526D02*
X14101617Y-13127526D01*
X14120664Y-13137050D01*
X14130188Y-13146574D01*
X14139712Y-13165621D01*
X14149236Y-13203717D01*
X14149236Y-13251336D01*
X14139712Y-13289431D01*
X14130188Y-13308478D01*
X14120664Y-13318002D01*
X14101617Y-13327526D01*
X14082569Y-13327526D01*
X14063521Y-13318002D01*
X14053998Y-13308478D01*
X14044474Y-13289431D01*
X14034950Y-13251336D01*
X14034950Y-13203717D01*
X14044474Y-13165621D01*
X14053998Y-13146574D01*
X14063521Y-13137050D01*
X14082569Y-13127526D01*
X14225426Y-13127526D02*
X14225426Y-13165621D01*
X14301617Y-13127526D02*
X14301617Y-13165621D01*
X14596855Y-13403717D02*
X14587331Y-13394193D01*
X14568283Y-13365621D01*
X14558759Y-13346574D01*
X14549236Y-13318002D01*
X14539712Y-13270383D01*
X14539712Y-13232288D01*
X14549236Y-13184669D01*
X14558759Y-13156098D01*
X14568283Y-13137050D01*
X14587331Y-13108478D01*
X14596855Y-13098955D01*
X14758759Y-13127526D02*
X14720664Y-13127526D01*
X14701617Y-13137050D01*
X14692093Y-13146574D01*
X14673045Y-13175145D01*
X14663521Y-13213240D01*
X14663521Y-13289431D01*
X14673045Y-13308478D01*
X14682569Y-13318002D01*
X14701617Y-13327526D01*
X14739712Y-13327526D01*
X14758759Y-13318002D01*
X14768283Y-13308478D01*
X14777807Y-13289431D01*
X14777807Y-13241812D01*
X14768283Y-13222764D01*
X14758759Y-13213240D01*
X14739712Y-13203717D01*
X14701617Y-13203717D01*
X14682569Y-13213240D01*
X14673045Y-13222764D01*
X14663521Y-13241812D01*
X14949236Y-13194193D02*
X14949236Y-13327526D01*
X14901617Y-13118002D02*
X14853998Y-13260859D01*
X14977807Y-13260859D01*
X15206378Y-13327526D02*
X15206378Y-13127526D01*
X15292093Y-13327526D02*
X15292093Y-13222764D01*
X15282569Y-13203717D01*
X15263521Y-13194193D01*
X15234950Y-13194193D01*
X15215902Y-13203717D01*
X15206378Y-13213240D01*
X15415902Y-13327526D02*
X15396855Y-13318002D01*
X15387331Y-13308478D01*
X15377807Y-13289431D01*
X15377807Y-13232288D01*
X15387331Y-13213240D01*
X15396855Y-13203717D01*
X15415902Y-13194193D01*
X15444474Y-13194193D01*
X15463521Y-13203717D01*
X15473045Y-13213240D01*
X15482569Y-13232288D01*
X15482569Y-13289431D01*
X15473045Y-13308478D01*
X15463521Y-13318002D01*
X15444474Y-13327526D01*
X15415902Y-13327526D01*
X15596855Y-13327526D02*
X15577807Y-13318002D01*
X15568283Y-13298955D01*
X15568283Y-13127526D01*
X15749236Y-13318002D02*
X15730188Y-13327526D01*
X15692093Y-13327526D01*
X15673045Y-13318002D01*
X15663521Y-13298955D01*
X15663521Y-13222764D01*
X15673045Y-13203717D01*
X15692093Y-13194193D01*
X15730188Y-13194193D01*
X15749236Y-13203717D01*
X15758759Y-13222764D01*
X15758759Y-13241812D01*
X15663521Y-13260859D01*
X15834950Y-13318002D02*
X15853998Y-13327526D01*
X15892093Y-13327526D01*
X15911140Y-13318002D01*
X15920664Y-13298955D01*
X15920664Y-13289431D01*
X15911140Y-13270383D01*
X15892093Y-13260859D01*
X15863521Y-13260859D01*
X15844474Y-13251336D01*
X15834950Y-13232288D01*
X15834950Y-13222764D01*
X15844474Y-13203717D01*
X15863521Y-13194193D01*
X15892093Y-13194193D01*
X15911140Y-13203717D01*
X15987331Y-13403717D02*
X15996855Y-13394193D01*
X16015902Y-13365621D01*
X16025426Y-13346574D01*
X16034950Y-13318002D01*
X16044474Y-13270383D01*
X16044474Y-13232288D01*
X16034950Y-13184669D01*
X16025426Y-13156098D01*
X16015902Y-13137050D01*
X15996855Y-13108478D01*
X15987331Y-13098955D01*
D10*
X11024950Y-13501050D02*
G75*
G03*
X11024950Y-13501050I-50000J0D01*
G01*
D11*
X11387331Y-13591526D02*
X11273045Y-13591526D01*
X11330188Y-13591526D02*
X11330188Y-13391526D01*
X11311140Y-13420098D01*
X11292093Y-13439145D01*
X11273045Y-13448669D01*
X11473045Y-13572478D02*
X11482569Y-13582002D01*
X11473045Y-13591526D01*
X11463521Y-13582002D01*
X11473045Y-13572478D01*
X11473045Y-13591526D01*
X11606378Y-13391526D02*
X11625426Y-13391526D01*
X11644474Y-13401050D01*
X11653998Y-13410574D01*
X11663521Y-13429621D01*
X11673045Y-13467717D01*
X11673045Y-13515336D01*
X11663521Y-13553431D01*
X11653998Y-13572478D01*
X11644474Y-13582002D01*
X11625426Y-13591526D01*
X11606378Y-13591526D01*
X11587331Y-13582002D01*
X11577807Y-13572478D01*
X11568283Y-13553431D01*
X11558759Y-13515336D01*
X11558759Y-13467717D01*
X11568283Y-13429621D01*
X11577807Y-13410574D01*
X11587331Y-13401050D01*
X11606378Y-13391526D01*
X11796855Y-13391526D02*
X11815902Y-13391526D01*
X11834950Y-13401050D01*
X11844474Y-13410574D01*
X11853998Y-13429621D01*
X11863521Y-13467717D01*
X11863521Y-13515336D01*
X11853998Y-13553431D01*
X11844474Y-13572478D01*
X11834950Y-13582002D01*
X11815902Y-13591526D01*
X11796855Y-13591526D01*
X11777807Y-13582002D01*
X11768283Y-13572478D01*
X11758759Y-13553431D01*
X11749236Y-13515336D01*
X11749236Y-13467717D01*
X11758759Y-13429621D01*
X11768283Y-13410574D01*
X11777807Y-13401050D01*
X11796855Y-13391526D01*
X11987331Y-13391526D02*
X12006378Y-13391526D01*
X12025426Y-13401050D01*
X12034950Y-13410574D01*
X12044474Y-13429621D01*
X12053998Y-13467717D01*
X12053998Y-13515336D01*
X12044474Y-13553431D01*
X12034950Y-13572478D01*
X12025426Y-13582002D01*
X12006378Y-13591526D01*
X11987331Y-13591526D01*
X11968283Y-13582002D01*
X11958759Y-13572478D01*
X11949236Y-13553431D01*
X11939712Y-13515336D01*
X11939712Y-13467717D01*
X11949236Y-13429621D01*
X11958759Y-13410574D01*
X11968283Y-13401050D01*
X11987331Y-13391526D01*
X12139712Y-13591526D02*
X12139712Y-13458193D01*
X12139712Y-13477240D02*
X12149236Y-13467717D01*
X12168283Y-13458193D01*
X12196855Y-13458193D01*
X12215902Y-13467717D01*
X12225426Y-13486764D01*
X12225426Y-13591526D01*
X12225426Y-13486764D02*
X12234950Y-13467717D01*
X12253998Y-13458193D01*
X12282569Y-13458193D01*
X12301617Y-13467717D01*
X12311140Y-13486764D01*
X12311140Y-13591526D01*
X12406378Y-13591526D02*
X12406378Y-13458193D01*
X12406378Y-13477240D02*
X12415902Y-13467717D01*
X12434950Y-13458193D01*
X12463521Y-13458193D01*
X12482569Y-13467717D01*
X12492093Y-13486764D01*
X12492093Y-13591526D01*
X12492093Y-13486764D02*
X12501617Y-13467717D01*
X12520664Y-13458193D01*
X12549236Y-13458193D01*
X12568283Y-13467717D01*
X12577807Y-13486764D01*
X12577807Y-13591526D01*
X12968283Y-13382002D02*
X12796855Y-13639145D01*
X13225426Y-13391526D02*
X13244474Y-13391526D01*
X13263521Y-13401050D01*
X13273045Y-13410574D01*
X13282569Y-13429621D01*
X13292093Y-13467717D01*
X13292093Y-13515336D01*
X13282569Y-13553431D01*
X13273045Y-13572478D01*
X13263521Y-13582002D01*
X13244474Y-13591526D01*
X13225426Y-13591526D01*
X13206378Y-13582002D01*
X13196855Y-13572478D01*
X13187331Y-13553431D01*
X13177807Y-13515336D01*
X13177807Y-13467717D01*
X13187331Y-13429621D01*
X13196855Y-13410574D01*
X13206378Y-13401050D01*
X13225426Y-13391526D01*
X13377807Y-13572478D02*
X13387331Y-13582002D01*
X13377807Y-13591526D01*
X13368283Y-13582002D01*
X13377807Y-13572478D01*
X13377807Y-13591526D01*
X13511140Y-13391526D02*
X13530188Y-13391526D01*
X13549236Y-13401050D01*
X13558759Y-13410574D01*
X13568283Y-13429621D01*
X13577807Y-13467717D01*
X13577807Y-13515336D01*
X13568283Y-13553431D01*
X13558759Y-13572478D01*
X13549236Y-13582002D01*
X13530188Y-13591526D01*
X13511140Y-13591526D01*
X13492093Y-13582002D01*
X13482569Y-13572478D01*
X13473045Y-13553431D01*
X13463521Y-13515336D01*
X13463521Y-13467717D01*
X13473045Y-13429621D01*
X13482569Y-13410574D01*
X13492093Y-13401050D01*
X13511140Y-13391526D01*
X13644474Y-13391526D02*
X13768283Y-13391526D01*
X13701617Y-13467717D01*
X13730188Y-13467717D01*
X13749236Y-13477240D01*
X13758759Y-13486764D01*
X13768283Y-13505812D01*
X13768283Y-13553431D01*
X13758759Y-13572478D01*
X13749236Y-13582002D01*
X13730188Y-13591526D01*
X13673045Y-13591526D01*
X13653998Y-13582002D01*
X13644474Y-13572478D01*
X13863521Y-13591526D02*
X13901617Y-13591526D01*
X13920664Y-13582002D01*
X13930188Y-13572478D01*
X13949236Y-13543907D01*
X13958759Y-13505812D01*
X13958759Y-13429621D01*
X13949236Y-13410574D01*
X13939712Y-13401050D01*
X13920664Y-13391526D01*
X13882569Y-13391526D01*
X13863521Y-13401050D01*
X13853998Y-13410574D01*
X13844474Y-13429621D01*
X13844474Y-13477240D01*
X13853998Y-13496288D01*
X13863521Y-13505812D01*
X13882569Y-13515336D01*
X13920664Y-13515336D01*
X13939712Y-13505812D01*
X13949236Y-13496288D01*
X13958759Y-13477240D01*
X14130188Y-13458193D02*
X14130188Y-13591526D01*
X14082569Y-13382002D02*
X14034950Y-13524859D01*
X14158759Y-13524859D01*
X14225426Y-13391526D02*
X14225426Y-13429621D01*
X14301617Y-13391526D02*
X14301617Y-13429621D01*
X14596855Y-13667717D02*
X14587331Y-13658193D01*
X14568283Y-13629621D01*
X14558759Y-13610574D01*
X14549236Y-13582002D01*
X14539712Y-13534383D01*
X14539712Y-13496288D01*
X14549236Y-13448669D01*
X14558759Y-13420098D01*
X14568283Y-13401050D01*
X14587331Y-13372478D01*
X14596855Y-13362955D01*
X14758759Y-13391526D02*
X14720664Y-13391526D01*
X14701617Y-13401050D01*
X14692093Y-13410574D01*
X14673045Y-13439145D01*
X14663521Y-13477240D01*
X14663521Y-13553431D01*
X14673045Y-13572478D01*
X14682569Y-13582002D01*
X14701617Y-13591526D01*
X14739712Y-13591526D01*
X14758759Y-13582002D01*
X14768283Y-13572478D01*
X14777807Y-13553431D01*
X14777807Y-13505812D01*
X14768283Y-13486764D01*
X14758759Y-13477240D01*
X14739712Y-13467717D01*
X14701617Y-13467717D01*
X14682569Y-13477240D01*
X14673045Y-13486764D01*
X14663521Y-13505812D01*
X14949236Y-13458193D02*
X14949236Y-13591526D01*
X14901617Y-13382002D02*
X14853998Y-13524859D01*
X14977807Y-13524859D01*
X15206378Y-13591526D02*
X15206378Y-13391526D01*
X15292093Y-13591526D02*
X15292093Y-13486764D01*
X15282569Y-13467717D01*
X15263521Y-13458193D01*
X15234950Y-13458193D01*
X15215902Y-13467717D01*
X15206378Y-13477240D01*
X15415902Y-13591526D02*
X15396855Y-13582002D01*
X15387331Y-13572478D01*
X15377807Y-13553431D01*
X15377807Y-13496288D01*
X15387331Y-13477240D01*
X15396855Y-13467717D01*
X15415902Y-13458193D01*
X15444474Y-13458193D01*
X15463521Y-13467717D01*
X15473045Y-13477240D01*
X15482569Y-13496288D01*
X15482569Y-13553431D01*
X15473045Y-13572478D01*
X15463521Y-13582002D01*
X15444474Y-13591526D01*
X15415902Y-13591526D01*
X15596855Y-13591526D02*
X15577807Y-13582002D01*
X15568283Y-13562955D01*
X15568283Y-13391526D01*
X15749236Y-13582002D02*
X15730188Y-13591526D01*
X15692093Y-13591526D01*
X15673045Y-13582002D01*
X15663521Y-13562955D01*
X15663521Y-13486764D01*
X15673045Y-13467717D01*
X15692093Y-13458193D01*
X15730188Y-13458193D01*
X15749236Y-13467717D01*
X15758759Y-13486764D01*
X15758759Y-13505812D01*
X15663521Y-13524859D01*
X15834950Y-13582002D02*
X15853998Y-13591526D01*
X15892093Y-13591526D01*
X15911140Y-13582002D01*
X15920664Y-13562955D01*
X15920664Y-13553431D01*
X15911140Y-13534383D01*
X15892093Y-13524859D01*
X15863521Y-13524859D01*
X15844474Y-13515336D01*
X15834950Y-13496288D01*
X15834950Y-13486764D01*
X15844474Y-13467717D01*
X15863521Y-13458193D01*
X15892093Y-13458193D01*
X15911140Y-13467717D01*
X15987331Y-13667717D02*
X15996855Y-13658193D01*
X16015902Y-13629621D01*
X16025426Y-13610574D01*
X16034950Y-13582002D01*
X16044474Y-13534383D01*
X16044474Y-13496288D01*
X16034950Y-13448669D01*
X16025426Y-13420098D01*
X16015902Y-13401050D01*
X15996855Y-13372478D01*
X15987331Y-13362955D01*
M02*
