G04 #@! TF.GenerationSoftware,KiCad,Pcbnew,(6.0.9)*
G04 #@! TF.CreationDate,2022-12-02T20:28:39-05:00*
G04 #@! TF.ProjectId,DIP 68 1.778mm adaptor,44495020-3638-4203-912e-3737386d6d20,rev?*
G04 #@! TF.SameCoordinates,Original*
G04 #@! TF.FileFunction,Legend,Top*
G04 #@! TF.FilePolarity,Positive*
%FSLAX46Y46*%
G04 Gerber Fmt 4.6, Leading zero omitted, Abs format (unit mm)*
G04 Created by KiCad (PCBNEW (6.0.9)) date 2022-12-02 20:28:39*
%MOMM*%
%LPD*%
G01*
G04 APERTURE LIST*
G04 Aperture macros list*
%AMRoundRect*
0 Rectangle with rounded corners*
0 $1 Rounding radius*
0 $2 $3 $4 $5 $6 $7 $8 $9 X,Y pos of 4 corners*
0 Add a 4 corners polygon primitive as box body*
4,1,4,$2,$3,$4,$5,$6,$7,$8,$9,$2,$3,0*
0 Add four circle primitives for the rounded corners*
1,1,$1+$1,$2,$3*
1,1,$1+$1,$4,$5*
1,1,$1+$1,$6,$7*
1,1,$1+$1,$8,$9*
0 Add four rect primitives between the rounded corners*
20,1,$1+$1,$2,$3,$4,$5,0*
20,1,$1+$1,$4,$5,$6,$7,0*
20,1,$1+$1,$6,$7,$8,$9,0*
20,1,$1+$1,$8,$9,$2,$3,0*%
G04 Aperture macros list end*
%ADD10C,0.120000*%
%ADD11C,0.400000*%
%ADD12C,0.150000*%
%ADD13C,0.300000*%
%ADD14C,0.180000*%
%ADD15C,0.010000*%
%ADD16RoundRect,0.200000X-1.270000X-0.508000X1.270000X-0.508000X1.270000X0.508000X-1.270000X0.508000X0*%
%ADD17O,2.940000X1.416000*%
%ADD18RoundRect,0.200000X-0.850000X-0.850000X0.850000X-0.850000X0.850000X0.850000X-0.850000X0.850000X0*%
%ADD19O,2.100000X2.100000*%
G04 APERTURE END LIST*
D10*
X144780000Y-118110000D02*
X139700000Y-118110000D01*
X110490000Y-54610000D02*
X115570000Y-54610000D01*
X110490000Y-97790000D02*
X115570000Y-97790000D01*
X115824000Y-124460000D02*
X116332000Y-124333000D01*
X110490000Y-100330000D02*
X115570000Y-100330000D01*
X110490000Y-115570000D02*
X115570000Y-115570000D01*
X144830800Y-46990000D02*
X139700000Y-46990000D01*
X113090000Y-46990000D02*
X113090000Y-44390000D01*
X144780000Y-72390000D02*
X139700000Y-72390000D01*
X110490000Y-107950000D02*
X115570000Y-107950000D01*
X116713000Y-56159400D02*
X119507000Y-56159400D01*
X136906000Y-114554000D02*
X137160000Y-114046000D01*
X117856000Y-114554000D02*
X118110000Y-114046000D01*
D11*
X110642400Y-46812200D02*
X112877600Y-46812200D01*
D10*
X110490000Y-57150000D02*
X115570000Y-57150000D01*
X110490000Y-87630000D02*
X115570000Y-87630000D01*
X116713000Y-57937400D02*
X119507000Y-57937400D01*
X144780000Y-120650000D02*
X139700000Y-120650000D01*
X144780000Y-67310000D02*
X139700000Y-67310000D01*
X144780000Y-107950000D02*
X139700000Y-107950000D01*
X116713000Y-56464200D02*
X119507000Y-56464200D01*
X144780000Y-77470000D02*
X139700000Y-77470000D01*
X144780000Y-100330000D02*
X139700000Y-100330000D01*
X144780000Y-74930000D02*
X139700000Y-74930000D01*
X110490000Y-49530000D02*
X115570000Y-49530000D01*
X138938000Y-124714000D02*
X139446000Y-124460000D01*
X134620000Y-115570000D02*
X137160000Y-115570000D01*
X116332000Y-124714000D02*
X116332000Y-124206000D01*
X134620000Y-124460000D02*
X139446000Y-124460000D01*
X118110000Y-114046000D02*
X118364000Y-114554000D01*
X116332000Y-124206000D02*
X115824000Y-124460000D01*
X144780000Y-85090000D02*
X139700000Y-85090000D01*
X144780000Y-92710000D02*
X139700000Y-92710000D01*
X110490000Y-123190000D02*
X115570000Y-123190000D01*
X118110000Y-115570000D02*
X118110000Y-114046000D01*
D11*
X112877600Y-46812200D02*
X112877600Y-44577000D01*
D10*
X116332000Y-124587000D02*
X115824000Y-124460000D01*
X139446000Y-124460000D02*
X138938000Y-124206000D01*
X110490000Y-105410000D02*
X115570000Y-105410000D01*
X139700000Y-44390000D02*
X139700000Y-125790000D01*
X144780000Y-115570000D02*
X139700000Y-115570000D01*
X110490000Y-59690000D02*
X115570000Y-59690000D01*
X144780000Y-87630000D02*
X139700000Y-87630000D01*
X110490000Y-64770000D02*
X115570000Y-64770000D01*
X144780000Y-80010000D02*
X139700000Y-80010000D01*
X144780000Y-95250000D02*
X139700000Y-95250000D01*
X118110000Y-114046000D02*
X118237000Y-114554000D01*
X116713000Y-57734200D02*
X119507000Y-57734200D01*
X118110000Y-114046000D02*
X117983000Y-114554000D01*
X110490000Y-95250000D02*
X115570000Y-95250000D01*
X115570000Y-44390000D02*
X115570000Y-125790000D01*
X142180000Y-45720000D02*
X142180000Y-46990000D01*
X137160000Y-114046000D02*
X137033000Y-114554000D01*
X110490000Y-62230000D02*
X115570000Y-62230000D01*
X110490000Y-67310000D02*
X115570000Y-67310000D01*
X144780000Y-62230000D02*
X139700000Y-62230000D01*
X138938000Y-124206000D02*
X139446000Y-124460000D01*
X113090000Y-44390000D02*
X115570000Y-44390000D01*
X144780000Y-113030000D02*
X139700000Y-113030000D01*
X144780000Y-105410000D02*
X139700000Y-105410000D01*
X144780000Y-54610000D02*
X139700000Y-54610000D01*
X110490000Y-120650000D02*
X115570000Y-120650000D01*
X144780000Y-52070000D02*
X139700000Y-52070000D01*
X116713000Y-56261000D02*
X119507000Y-56261000D01*
X110490000Y-82550000D02*
X115570000Y-82550000D01*
X139700000Y-44390000D02*
X144840000Y-44390000D01*
X137160000Y-115570000D02*
X137160000Y-114046000D01*
X116713000Y-56565800D02*
X119507000Y-56565800D01*
X110490000Y-77470000D02*
X115570000Y-77470000D01*
X110430000Y-46990000D02*
X110430000Y-45694600D01*
X119456200Y-57734200D02*
X119456200Y-56540400D01*
D12*
X112699800Y-46659800D02*
X112699800Y-44780200D01*
D10*
X137160000Y-114046000D02*
X137287000Y-114554000D01*
X118364000Y-114554000D02*
X117856000Y-114554000D01*
X110490000Y-52070000D02*
X115570000Y-52070000D01*
X110490000Y-110490000D02*
X115570000Y-110490000D01*
X144780000Y-110490000D02*
X139700000Y-110490000D01*
X116713000Y-55854600D02*
X119507000Y-55854600D01*
X110490000Y-80010000D02*
X115570000Y-80010000D01*
X139446000Y-124460000D02*
X138938000Y-124333000D01*
X116713000Y-57835800D02*
X119507000Y-57835800D01*
X137160000Y-114046000D02*
X137414000Y-114554000D01*
X144780000Y-82550000D02*
X139700000Y-82550000D01*
X142180000Y-125790000D02*
X139700000Y-125790000D01*
X110490000Y-69850000D02*
X115570000Y-69850000D01*
X110490000Y-85090000D02*
X115570000Y-85090000D01*
X116713000Y-56057800D02*
X119507000Y-56057800D01*
X144840000Y-46990000D02*
X144840000Y-44390000D01*
X115570000Y-46990000D02*
X113090000Y-46990000D01*
D12*
X144780000Y-49530000D02*
X139700000Y-49530000D01*
D10*
X144780000Y-97790000D02*
X139700000Y-97790000D01*
X116713000Y-55956200D02*
X119507000Y-55956200D01*
D11*
X112877600Y-44577000D02*
X110642400Y-44577000D01*
D10*
X116713000Y-56362600D02*
X119507000Y-56362600D01*
X110490000Y-92710000D02*
X115570000Y-92710000D01*
X138938000Y-124587000D02*
X139446000Y-124460000D01*
X116763800Y-57772300D02*
X116763800Y-56578500D01*
X144780000Y-64770000D02*
X139700000Y-64770000D01*
X116713000Y-58039000D02*
X119507000Y-58039000D01*
X113090000Y-125790000D02*
X115570000Y-125790000D01*
X111760000Y-44390000D02*
X113090000Y-44390000D01*
X110490000Y-72390000D02*
X115570000Y-72390000D01*
D12*
X110820200Y-44780200D02*
X110820200Y-46659800D01*
D10*
X144780000Y-90170000D02*
X139700000Y-90170000D01*
D12*
X110820200Y-46659800D02*
X112699800Y-46659800D01*
D11*
X110642400Y-44577000D02*
X110642400Y-46812200D01*
D10*
X110490000Y-74930000D02*
X115570000Y-74930000D01*
X144780000Y-69850000D02*
X139700000Y-69850000D01*
X110490000Y-102870000D02*
X115570000Y-102870000D01*
X120650000Y-124460000D02*
X115824000Y-124460000D01*
X144780000Y-59690000D02*
X139700000Y-59690000D01*
X120650000Y-115570000D02*
X118110000Y-115570000D01*
D12*
X112699800Y-44780200D02*
X110820200Y-44780200D01*
D10*
X144780000Y-57150000D02*
X139700000Y-57150000D01*
X110490000Y-118110000D02*
X115570000Y-118110000D01*
X115824000Y-124460000D02*
X116332000Y-124714000D01*
X138938000Y-124714000D02*
X138938000Y-124206000D01*
X110490000Y-113030000D02*
X115570000Y-113030000D01*
X137414000Y-114554000D02*
X136906000Y-114554000D01*
X144780000Y-123190000D02*
X139700000Y-123190000D01*
X110490000Y-90170000D02*
X115570000Y-90170000D01*
X144780000Y-102870000D02*
X139700000Y-102870000D01*
D12*
X114752380Y-110998095D02*
X114800000Y-111045714D01*
X114847619Y-111140952D01*
X114847619Y-111379047D01*
X114800000Y-111474285D01*
X114752380Y-111521904D01*
X114657142Y-111569523D01*
X114561904Y-111569523D01*
X114419047Y-111521904D01*
X113847619Y-110950476D01*
X113847619Y-111569523D01*
X114847619Y-111902857D02*
X114847619Y-112569523D01*
X113847619Y-112140952D01*
X114847619Y-123650476D02*
X114847619Y-124269523D01*
X114466666Y-123936190D01*
X114466666Y-124079047D01*
X114419047Y-124174285D01*
X114371428Y-124221904D01*
X114276190Y-124269523D01*
X114038095Y-124269523D01*
X113942857Y-124221904D01*
X113895238Y-124174285D01*
X113847619Y-124079047D01*
X113847619Y-123793333D01*
X113895238Y-123698095D01*
X113942857Y-123650476D01*
X114752380Y-124650476D02*
X114800000Y-124698095D01*
X114847619Y-124793333D01*
X114847619Y-125031428D01*
X114800000Y-125126666D01*
X114752380Y-125174285D01*
X114657142Y-125221904D01*
X114561904Y-125221904D01*
X114419047Y-125174285D01*
X113847619Y-124602857D01*
X113847619Y-125221904D01*
X141390619Y-75961904D02*
X141390619Y-75485714D01*
X140914428Y-75438095D01*
X140962047Y-75485714D01*
X141009666Y-75580952D01*
X141009666Y-75819047D01*
X140962047Y-75914285D01*
X140914428Y-75961904D01*
X140819190Y-76009523D01*
X140581095Y-76009523D01*
X140485857Y-75961904D01*
X140438238Y-75914285D01*
X140390619Y-75819047D01*
X140390619Y-75580952D01*
X140438238Y-75485714D01*
X140485857Y-75438095D01*
X141295380Y-76390476D02*
X141343000Y-76438095D01*
X141390619Y-76533333D01*
X141390619Y-76771428D01*
X141343000Y-76866666D01*
X141295380Y-76914285D01*
X141200142Y-76961904D01*
X141104904Y-76961904D01*
X140962047Y-76914285D01*
X140390619Y-76342857D01*
X140390619Y-76961904D01*
X114847619Y-118570476D02*
X114847619Y-119189523D01*
X114466666Y-118856190D01*
X114466666Y-118999047D01*
X114419047Y-119094285D01*
X114371428Y-119141904D01*
X114276190Y-119189523D01*
X114038095Y-119189523D01*
X113942857Y-119141904D01*
X113895238Y-119094285D01*
X113847619Y-118999047D01*
X113847619Y-118713333D01*
X113895238Y-118618095D01*
X113942857Y-118570476D01*
X114847619Y-119808571D02*
X114847619Y-119903809D01*
X114800000Y-119999047D01*
X114752380Y-120046666D01*
X114657142Y-120094285D01*
X114466666Y-120141904D01*
X114228571Y-120141904D01*
X114038095Y-120094285D01*
X113942857Y-120046666D01*
X113895238Y-119999047D01*
X113847619Y-119903809D01*
X113847619Y-119808571D01*
X113895238Y-119713333D01*
X113942857Y-119665714D01*
X114038095Y-119618095D01*
X114228571Y-119570476D01*
X114466666Y-119570476D01*
X114657142Y-119618095D01*
X114752380Y-119665714D01*
X114800000Y-119713333D01*
X114847619Y-119808571D01*
X141057285Y-91154285D02*
X140390619Y-91154285D01*
X141438238Y-90916190D02*
X140723952Y-90678095D01*
X140723952Y-91297142D01*
X141390619Y-92106666D02*
X141390619Y-91916190D01*
X141343000Y-91820952D01*
X141295380Y-91773333D01*
X141152523Y-91678095D01*
X140962047Y-91630476D01*
X140581095Y-91630476D01*
X140485857Y-91678095D01*
X140438238Y-91725714D01*
X140390619Y-91820952D01*
X140390619Y-92011428D01*
X140438238Y-92106666D01*
X140485857Y-92154285D01*
X140581095Y-92201904D01*
X140819190Y-92201904D01*
X140914428Y-92154285D01*
X140962047Y-92106666D01*
X141009666Y-92011428D01*
X141009666Y-91820952D01*
X140962047Y-91725714D01*
X140914428Y-91678095D01*
X140819190Y-91630476D01*
X116944523Y-52444119D02*
X116944523Y-51344119D01*
X117182619Y-51344119D01*
X117325476Y-51396500D01*
X117420714Y-51501261D01*
X117468333Y-51606023D01*
X117515952Y-51815547D01*
X117515952Y-51972690D01*
X117468333Y-52182214D01*
X117420714Y-52286976D01*
X117325476Y-52391738D01*
X117182619Y-52444119D01*
X116944523Y-52444119D01*
X118325476Y-52391738D02*
X118230238Y-52444119D01*
X118039761Y-52444119D01*
X117944523Y-52391738D01*
X117896904Y-52286976D01*
X117896904Y-51867928D01*
X117944523Y-51763166D01*
X118039761Y-51710785D01*
X118230238Y-51710785D01*
X118325476Y-51763166D01*
X118373095Y-51867928D01*
X118373095Y-51972690D01*
X117896904Y-52077452D01*
X118754047Y-52391738D02*
X118849285Y-52444119D01*
X119039761Y-52444119D01*
X119135000Y-52391738D01*
X119182619Y-52286976D01*
X119182619Y-52234595D01*
X119135000Y-52129833D01*
X119039761Y-52077452D01*
X118896904Y-52077452D01*
X118801666Y-52025071D01*
X118754047Y-51920309D01*
X118754047Y-51867928D01*
X118801666Y-51763166D01*
X118896904Y-51710785D01*
X119039761Y-51710785D01*
X119135000Y-51763166D01*
X119611190Y-52444119D02*
X119611190Y-51710785D01*
X119611190Y-51344119D02*
X119563571Y-51396500D01*
X119611190Y-51448880D01*
X119658809Y-51396500D01*
X119611190Y-51344119D01*
X119611190Y-51448880D01*
X120515952Y-51710785D02*
X120515952Y-52601261D01*
X120468333Y-52706023D01*
X120420714Y-52758404D01*
X120325476Y-52810785D01*
X120182619Y-52810785D01*
X120087380Y-52758404D01*
X120515952Y-52391738D02*
X120420714Y-52444119D01*
X120230238Y-52444119D01*
X120135000Y-52391738D01*
X120087380Y-52339357D01*
X120039761Y-52234595D01*
X120039761Y-51920309D01*
X120087380Y-51815547D01*
X120135000Y-51763166D01*
X120230238Y-51710785D01*
X120420714Y-51710785D01*
X120515952Y-51763166D01*
X120992142Y-51710785D02*
X120992142Y-52444119D01*
X120992142Y-51815547D02*
X121039761Y-51763166D01*
X121135000Y-51710785D01*
X121277857Y-51710785D01*
X121373095Y-51763166D01*
X121420714Y-51867928D01*
X121420714Y-52444119D01*
X122277857Y-52391738D02*
X122182619Y-52444119D01*
X121992142Y-52444119D01*
X121896904Y-52391738D01*
X121849285Y-52286976D01*
X121849285Y-51867928D01*
X121896904Y-51763166D01*
X121992142Y-51710785D01*
X122182619Y-51710785D01*
X122277857Y-51763166D01*
X122325476Y-51867928D01*
X122325476Y-51972690D01*
X121849285Y-52077452D01*
X123182619Y-52444119D02*
X123182619Y-51344119D01*
X123182619Y-52391738D02*
X123087380Y-52444119D01*
X122896904Y-52444119D01*
X122801666Y-52391738D01*
X122754047Y-52339357D01*
X122706428Y-52234595D01*
X122706428Y-51920309D01*
X122754047Y-51815547D01*
X122801666Y-51763166D01*
X122896904Y-51710785D01*
X123087380Y-51710785D01*
X123182619Y-51763166D01*
X124420714Y-52444119D02*
X124420714Y-51344119D01*
X124420714Y-51763166D02*
X124515952Y-51710785D01*
X124706428Y-51710785D01*
X124801666Y-51763166D01*
X124849285Y-51815547D01*
X124896904Y-51920309D01*
X124896904Y-52234595D01*
X124849285Y-52339357D01*
X124801666Y-52391738D01*
X124706428Y-52444119D01*
X124515952Y-52444119D01*
X124420714Y-52391738D01*
X125230238Y-51710785D02*
X125468333Y-52444119D01*
X125706428Y-51710785D02*
X125468333Y-52444119D01*
X125373095Y-52706023D01*
X125325476Y-52758404D01*
X125230238Y-52810785D01*
X127182619Y-51867928D02*
X126849285Y-51867928D01*
X126849285Y-52444119D02*
X126849285Y-51344119D01*
X127325476Y-51344119D01*
X127706428Y-52444119D02*
X127706428Y-51710785D01*
X127706428Y-51920309D02*
X127754047Y-51815547D01*
X127801666Y-51763166D01*
X127896904Y-51710785D01*
X127992142Y-51710785D01*
X128706428Y-52391738D02*
X128611190Y-52444119D01*
X128420714Y-52444119D01*
X128325476Y-52391738D01*
X128277857Y-52286976D01*
X128277857Y-51867928D01*
X128325476Y-51763166D01*
X128420714Y-51710785D01*
X128611190Y-51710785D01*
X128706428Y-51763166D01*
X128754047Y-51867928D01*
X128754047Y-51972690D01*
X128277857Y-52077452D01*
X128611190Y-51291738D02*
X128468333Y-51448880D01*
X129611190Y-52444119D02*
X129611190Y-51344119D01*
X129611190Y-52391738D02*
X129515952Y-52444119D01*
X129325476Y-52444119D01*
X129230238Y-52391738D01*
X129182619Y-52339357D01*
X129135000Y-52234595D01*
X129135000Y-51920309D01*
X129182619Y-51815547D01*
X129230238Y-51763166D01*
X129325476Y-51710785D01*
X129515952Y-51710785D01*
X129611190Y-51763166D01*
X130468333Y-52391738D02*
X130373095Y-52444119D01*
X130182619Y-52444119D01*
X130087380Y-52391738D01*
X130039761Y-52286976D01*
X130039761Y-51867928D01*
X130087380Y-51763166D01*
X130182619Y-51710785D01*
X130373095Y-51710785D01*
X130468333Y-51763166D01*
X130515952Y-51867928D01*
X130515952Y-51972690D01*
X130039761Y-52077452D01*
X130373095Y-51291738D02*
X130230238Y-51448880D01*
X130944523Y-52444119D02*
X130944523Y-51710785D01*
X130944523Y-51920309D02*
X130992142Y-51815547D01*
X131039761Y-51763166D01*
X131135000Y-51710785D01*
X131230238Y-51710785D01*
X131563571Y-52444119D02*
X131563571Y-51710785D01*
X131563571Y-51344119D02*
X131515952Y-51396500D01*
X131563571Y-51448880D01*
X131611190Y-51396500D01*
X131563571Y-51344119D01*
X131563571Y-51448880D01*
X132468333Y-52391738D02*
X132373095Y-52444119D01*
X132182619Y-52444119D01*
X132087380Y-52391738D01*
X132039761Y-52339357D01*
X131992142Y-52234595D01*
X131992142Y-51920309D01*
X132039761Y-51815547D01*
X132087380Y-51763166D01*
X132182619Y-51710785D01*
X132373095Y-51710785D01*
X132468333Y-51763166D01*
X133611190Y-52391738D02*
X133754047Y-52444119D01*
X133992142Y-52444119D01*
X134087380Y-52391738D01*
X134135000Y-52339357D01*
X134182619Y-52234595D01*
X134182619Y-52129833D01*
X134135000Y-52025071D01*
X134087380Y-51972690D01*
X133992142Y-51920309D01*
X133801666Y-51867928D01*
X133706428Y-51815547D01*
X133658809Y-51763166D01*
X133611190Y-51658404D01*
X133611190Y-51553642D01*
X133658809Y-51448880D01*
X133706428Y-51396500D01*
X133801666Y-51344119D01*
X134039761Y-51344119D01*
X134182619Y-51396500D01*
X134992142Y-52391738D02*
X134896904Y-52444119D01*
X134706428Y-52444119D01*
X134611190Y-52391738D01*
X134563571Y-52286976D01*
X134563571Y-51867928D01*
X134611190Y-51763166D01*
X134706428Y-51710785D01*
X134896904Y-51710785D01*
X134992142Y-51763166D01*
X135039761Y-51867928D01*
X135039761Y-51972690D01*
X134563571Y-52077452D01*
X135896904Y-51710785D02*
X135896904Y-52601261D01*
X135849285Y-52706023D01*
X135801666Y-52758404D01*
X135706428Y-52810785D01*
X135563571Y-52810785D01*
X135468333Y-52758404D01*
X135896904Y-52391738D02*
X135801666Y-52444119D01*
X135611190Y-52444119D01*
X135515952Y-52391738D01*
X135468333Y-52339357D01*
X135420714Y-52234595D01*
X135420714Y-51920309D01*
X135468333Y-51815547D01*
X135515952Y-51763166D01*
X135611190Y-51710785D01*
X135801666Y-51710785D01*
X135896904Y-51763166D01*
X136801666Y-52444119D02*
X136801666Y-51867928D01*
X136754047Y-51763166D01*
X136658809Y-51710785D01*
X136468333Y-51710785D01*
X136373095Y-51763166D01*
X136801666Y-52391738D02*
X136706428Y-52444119D01*
X136468333Y-52444119D01*
X136373095Y-52391738D01*
X136325476Y-52286976D01*
X136325476Y-52182214D01*
X136373095Y-52077452D01*
X136468333Y-52025071D01*
X136706428Y-52025071D01*
X136801666Y-51972690D01*
X137277857Y-52444119D02*
X137277857Y-51710785D01*
X137277857Y-51920309D02*
X137325476Y-51815547D01*
X137373095Y-51763166D01*
X137468333Y-51710785D01*
X137563571Y-51710785D01*
X138325476Y-52444119D02*
X138325476Y-51344119D01*
X138325476Y-52391738D02*
X138230238Y-52444119D01*
X138039761Y-52444119D01*
X137944523Y-52391738D01*
X137896904Y-52339357D01*
X137849285Y-52234595D01*
X137849285Y-51920309D01*
X137896904Y-51815547D01*
X137944523Y-51763166D01*
X138039761Y-51710785D01*
X138230238Y-51710785D01*
X138325476Y-51763166D01*
X116706428Y-53481785D02*
X116944523Y-54215119D01*
X117182619Y-53481785D02*
X116944523Y-54215119D01*
X116849285Y-54477023D01*
X116801666Y-54529404D01*
X116706428Y-54581785D01*
X117706428Y-54215119D02*
X117611190Y-54162738D01*
X117563571Y-54110357D01*
X117515952Y-54005595D01*
X117515952Y-53691309D01*
X117563571Y-53586547D01*
X117611190Y-53534166D01*
X117706428Y-53481785D01*
X117849285Y-53481785D01*
X117944523Y-53534166D01*
X117992142Y-53586547D01*
X118039761Y-53691309D01*
X118039761Y-54005595D01*
X117992142Y-54110357D01*
X117944523Y-54162738D01*
X117849285Y-54215119D01*
X117706428Y-54215119D01*
X118896904Y-53481785D02*
X118896904Y-54215119D01*
X118468333Y-53481785D02*
X118468333Y-54057976D01*
X118515952Y-54162738D01*
X118611190Y-54215119D01*
X118754047Y-54215119D01*
X118849285Y-54162738D01*
X118896904Y-54110357D01*
X119230238Y-53481785D02*
X119611190Y-53481785D01*
X119373095Y-53115119D02*
X119373095Y-54057976D01*
X119420714Y-54162738D01*
X119515952Y-54215119D01*
X119611190Y-54215119D01*
X120373095Y-53481785D02*
X120373095Y-54215119D01*
X119944523Y-53481785D02*
X119944523Y-54057976D01*
X119992142Y-54162738D01*
X120087380Y-54215119D01*
X120230238Y-54215119D01*
X120325476Y-54162738D01*
X120373095Y-54110357D01*
X120849285Y-54215119D02*
X120849285Y-53115119D01*
X120849285Y-53534166D02*
X120944523Y-53481785D01*
X121135000Y-53481785D01*
X121230238Y-53534166D01*
X121277857Y-53586547D01*
X121325476Y-53691309D01*
X121325476Y-54005595D01*
X121277857Y-54110357D01*
X121230238Y-54162738D01*
X121135000Y-54215119D01*
X120944523Y-54215119D01*
X120849285Y-54162738D01*
X122135000Y-54162738D02*
X122039761Y-54215119D01*
X121849285Y-54215119D01*
X121754047Y-54162738D01*
X121706428Y-54057976D01*
X121706428Y-53638928D01*
X121754047Y-53534166D01*
X121849285Y-53481785D01*
X122039761Y-53481785D01*
X122135000Y-53534166D01*
X122182619Y-53638928D01*
X122182619Y-53743690D01*
X121706428Y-53848452D01*
X122611190Y-54110357D02*
X122658809Y-54162738D01*
X122611190Y-54215119D01*
X122563571Y-54162738D01*
X122611190Y-54110357D01*
X122611190Y-54215119D01*
X123515952Y-54162738D02*
X123420714Y-54215119D01*
X123230238Y-54215119D01*
X123135000Y-54162738D01*
X123087380Y-54110357D01*
X123039761Y-54005595D01*
X123039761Y-53691309D01*
X123087380Y-53586547D01*
X123135000Y-53534166D01*
X123230238Y-53481785D01*
X123420714Y-53481785D01*
X123515952Y-53534166D01*
X124087380Y-54215119D02*
X123992142Y-54162738D01*
X123944523Y-54110357D01*
X123896904Y-54005595D01*
X123896904Y-53691309D01*
X123944523Y-53586547D01*
X123992142Y-53534166D01*
X124087380Y-53481785D01*
X124230238Y-53481785D01*
X124325476Y-53534166D01*
X124373095Y-53586547D01*
X124420714Y-53691309D01*
X124420714Y-54005595D01*
X124373095Y-54110357D01*
X124325476Y-54162738D01*
X124230238Y-54215119D01*
X124087380Y-54215119D01*
X124849285Y-54215119D02*
X124849285Y-53481785D01*
X124849285Y-53586547D02*
X124896904Y-53534166D01*
X124992142Y-53481785D01*
X125135000Y-53481785D01*
X125230238Y-53534166D01*
X125277857Y-53638928D01*
X125277857Y-54215119D01*
X125277857Y-53638928D02*
X125325476Y-53534166D01*
X125420714Y-53481785D01*
X125563571Y-53481785D01*
X125658809Y-53534166D01*
X125706428Y-53638928D01*
X125706428Y-54215119D01*
X126896904Y-53062738D02*
X126039761Y-54477023D01*
X127849285Y-53691309D02*
X127801666Y-53638928D01*
X127706428Y-53586547D01*
X127611190Y-53586547D01*
X127515952Y-53638928D01*
X127468333Y-53691309D01*
X127420714Y-53796071D01*
X127420714Y-53900833D01*
X127468333Y-54005595D01*
X127515952Y-54057976D01*
X127611190Y-54110357D01*
X127706428Y-54110357D01*
X127801666Y-54057976D01*
X127849285Y-54005595D01*
X127849285Y-53586547D02*
X127849285Y-54005595D01*
X127896904Y-54057976D01*
X127944523Y-54057976D01*
X128039761Y-54005595D01*
X128087380Y-53900833D01*
X128087380Y-53638928D01*
X127992142Y-53481785D01*
X127849285Y-53377023D01*
X127658809Y-53324642D01*
X127468333Y-53377023D01*
X127325476Y-53481785D01*
X127230238Y-53638928D01*
X127182619Y-53848452D01*
X127230238Y-54057976D01*
X127325476Y-54215119D01*
X127468333Y-54319880D01*
X127658809Y-54372261D01*
X127849285Y-54319880D01*
X127992142Y-54215119D01*
X128515952Y-54215119D02*
X128515952Y-53481785D01*
X128515952Y-53586547D02*
X128563571Y-53534166D01*
X128658809Y-53481785D01*
X128801666Y-53481785D01*
X128896904Y-53534166D01*
X128944523Y-53638928D01*
X128944523Y-54215119D01*
X128944523Y-53638928D02*
X128992142Y-53534166D01*
X129087380Y-53481785D01*
X129230238Y-53481785D01*
X129325476Y-53534166D01*
X129373095Y-53638928D01*
X129373095Y-54215119D01*
X129849285Y-54215119D02*
X129849285Y-53481785D01*
X129849285Y-53115119D02*
X129801666Y-53167500D01*
X129849285Y-53219880D01*
X129896904Y-53167500D01*
X129849285Y-53115119D01*
X129849285Y-53219880D01*
X130754047Y-54162738D02*
X130658809Y-54215119D01*
X130468333Y-54215119D01*
X130373095Y-54162738D01*
X130325476Y-54110357D01*
X130277857Y-54005595D01*
X130277857Y-53691309D01*
X130325476Y-53586547D01*
X130373095Y-53534166D01*
X130468333Y-53481785D01*
X130658809Y-53481785D01*
X130754047Y-53534166D01*
X131182619Y-54215119D02*
X131182619Y-53481785D01*
X131182619Y-53691309D02*
X131230238Y-53586547D01*
X131277857Y-53534166D01*
X131373095Y-53481785D01*
X131468333Y-53481785D01*
X131944523Y-54215119D02*
X131849285Y-54162738D01*
X131801666Y-54110357D01*
X131754047Y-54005595D01*
X131754047Y-53691309D01*
X131801666Y-53586547D01*
X131849285Y-53534166D01*
X131944523Y-53481785D01*
X132087380Y-53481785D01*
X132182619Y-53534166D01*
X132230238Y-53586547D01*
X132277857Y-53691309D01*
X132277857Y-54005595D01*
X132230238Y-54110357D01*
X132182619Y-54162738D01*
X132087380Y-54215119D01*
X131944523Y-54215119D01*
X132706428Y-54215119D02*
X132706428Y-53115119D01*
X133135000Y-54215119D02*
X133135000Y-53638928D01*
X133087380Y-53534166D01*
X132992142Y-53481785D01*
X132849285Y-53481785D01*
X132754047Y-53534166D01*
X132706428Y-53586547D01*
X133754047Y-54215119D02*
X133658809Y-54162738D01*
X133611190Y-54110357D01*
X133563571Y-54005595D01*
X133563571Y-53691309D01*
X133611190Y-53586547D01*
X133658809Y-53534166D01*
X133754047Y-53481785D01*
X133896904Y-53481785D01*
X133992142Y-53534166D01*
X134039761Y-53586547D01*
X134087380Y-53691309D01*
X134087380Y-54005595D01*
X134039761Y-54110357D01*
X133992142Y-54162738D01*
X133896904Y-54215119D01*
X133754047Y-54215119D01*
X134515952Y-54215119D02*
X134515952Y-53115119D01*
X134515952Y-53534166D02*
X134611190Y-53481785D01*
X134801666Y-53481785D01*
X134896904Y-53534166D01*
X134944523Y-53586547D01*
X134992142Y-53691309D01*
X134992142Y-54005595D01*
X134944523Y-54110357D01*
X134896904Y-54162738D01*
X134801666Y-54215119D01*
X134611190Y-54215119D01*
X134515952Y-54162738D01*
X135420714Y-54215119D02*
X135420714Y-53115119D01*
X135420714Y-53534166D02*
X135515952Y-53481785D01*
X135706428Y-53481785D01*
X135801666Y-53534166D01*
X135849285Y-53586547D01*
X135896904Y-53691309D01*
X135896904Y-54005595D01*
X135849285Y-54110357D01*
X135801666Y-54162738D01*
X135706428Y-54215119D01*
X135515952Y-54215119D01*
X135420714Y-54162738D01*
X136230238Y-53481785D02*
X136468333Y-54215119D01*
X136706428Y-53481785D02*
X136468333Y-54215119D01*
X136373095Y-54477023D01*
X136325476Y-54529404D01*
X136230238Y-54581785D01*
X137087380Y-54215119D02*
X137087380Y-53481785D01*
X137087380Y-53115119D02*
X137039761Y-53167500D01*
X137087380Y-53219880D01*
X137135000Y-53167500D01*
X137087380Y-53115119D01*
X137087380Y-53219880D01*
X137515952Y-54162738D02*
X137611190Y-54215119D01*
X137801666Y-54215119D01*
X137896904Y-54162738D01*
X137944523Y-54057976D01*
X137944523Y-54005595D01*
X137896904Y-53900833D01*
X137801666Y-53848452D01*
X137658809Y-53848452D01*
X137563571Y-53796071D01*
X137515952Y-53691309D01*
X137515952Y-53638928D01*
X137563571Y-53534166D01*
X137658809Y-53481785D01*
X137801666Y-53481785D01*
X137896904Y-53534166D01*
X138230238Y-53481785D02*
X138611190Y-53481785D01*
X138373095Y-53115119D02*
X138373095Y-54057976D01*
X138420714Y-54162738D01*
X138515952Y-54215119D01*
X138611190Y-54215119D01*
X141390619Y-123650476D02*
X141390619Y-124269523D01*
X141009666Y-123936190D01*
X141009666Y-124079047D01*
X140962047Y-124174285D01*
X140914428Y-124221904D01*
X140819190Y-124269523D01*
X140581095Y-124269523D01*
X140485857Y-124221904D01*
X140438238Y-124174285D01*
X140390619Y-124079047D01*
X140390619Y-123793333D01*
X140438238Y-123698095D01*
X140485857Y-123650476D01*
X141390619Y-124602857D02*
X141390619Y-125221904D01*
X141009666Y-124888571D01*
X141009666Y-125031428D01*
X140962047Y-125126666D01*
X140914428Y-125174285D01*
X140819190Y-125221904D01*
X140581095Y-125221904D01*
X140485857Y-125174285D01*
X140438238Y-125126666D01*
X140390619Y-125031428D01*
X140390619Y-124745714D01*
X140438238Y-124650476D01*
X140485857Y-124602857D01*
X114752380Y-113538095D02*
X114800000Y-113585714D01*
X114847619Y-113680952D01*
X114847619Y-113919047D01*
X114800000Y-114014285D01*
X114752380Y-114061904D01*
X114657142Y-114109523D01*
X114561904Y-114109523D01*
X114419047Y-114061904D01*
X113847619Y-113490476D01*
X113847619Y-114109523D01*
X114419047Y-114680952D02*
X114466666Y-114585714D01*
X114514285Y-114538095D01*
X114609523Y-114490476D01*
X114657142Y-114490476D01*
X114752380Y-114538095D01*
X114800000Y-114585714D01*
X114847619Y-114680952D01*
X114847619Y-114871428D01*
X114800000Y-114966666D01*
X114752380Y-115014285D01*
X114657142Y-115061904D01*
X114609523Y-115061904D01*
X114514285Y-115014285D01*
X114466666Y-114966666D01*
X114419047Y-114871428D01*
X114419047Y-114680952D01*
X114371428Y-114585714D01*
X114323809Y-114538095D01*
X114228571Y-114490476D01*
X114038095Y-114490476D01*
X113942857Y-114538095D01*
X113895238Y-114585714D01*
X113847619Y-114680952D01*
X113847619Y-114871428D01*
X113895238Y-114966666D01*
X113942857Y-115014285D01*
X114038095Y-115061904D01*
X114228571Y-115061904D01*
X114323809Y-115014285D01*
X114371428Y-114966666D01*
X114419047Y-114871428D01*
X114847619Y-56118095D02*
X114847619Y-55641904D01*
X114371428Y-55594285D01*
X114419047Y-55641904D01*
X114466666Y-55737142D01*
X114466666Y-55975238D01*
X114419047Y-56070476D01*
X114371428Y-56118095D01*
X114276190Y-56165714D01*
X114038095Y-56165714D01*
X113942857Y-56118095D01*
X113895238Y-56070476D01*
X113847619Y-55975238D01*
X113847619Y-55737142D01*
X113895238Y-55641904D01*
X113942857Y-55594285D01*
X141390619Y-63261904D02*
X141390619Y-62785714D01*
X140914428Y-62738095D01*
X140962047Y-62785714D01*
X141009666Y-62880952D01*
X141009666Y-63119047D01*
X140962047Y-63214285D01*
X140914428Y-63261904D01*
X140819190Y-63309523D01*
X140581095Y-63309523D01*
X140485857Y-63261904D01*
X140438238Y-63214285D01*
X140390619Y-63119047D01*
X140390619Y-62880952D01*
X140438238Y-62785714D01*
X140485857Y-62738095D01*
X141390619Y-63642857D02*
X141390619Y-64309523D01*
X140390619Y-63880952D01*
X141390619Y-53054285D02*
X141390619Y-52863809D01*
X141343000Y-52768571D01*
X141295380Y-52720952D01*
X141152523Y-52625714D01*
X140962047Y-52578095D01*
X140581095Y-52578095D01*
X140485857Y-52625714D01*
X140438238Y-52673333D01*
X140390619Y-52768571D01*
X140390619Y-52959047D01*
X140438238Y-53054285D01*
X140485857Y-53101904D01*
X140581095Y-53149523D01*
X140819190Y-53149523D01*
X140914428Y-53101904D01*
X140962047Y-53054285D01*
X141009666Y-52959047D01*
X141009666Y-52768571D01*
X140962047Y-52673333D01*
X140914428Y-52625714D01*
X140819190Y-52578095D01*
X140390619Y-54101904D02*
X140390619Y-53530476D01*
X140390619Y-53816190D02*
X141390619Y-53816190D01*
X141247761Y-53720952D01*
X141152523Y-53625714D01*
X141104904Y-53530476D01*
X113847619Y-81089523D02*
X113847619Y-80518095D01*
X113847619Y-80803809D02*
X114847619Y-80803809D01*
X114704761Y-80708571D01*
X114609523Y-80613333D01*
X114561904Y-80518095D01*
X114847619Y-81994285D02*
X114847619Y-81518095D01*
X114371428Y-81470476D01*
X114419047Y-81518095D01*
X114466666Y-81613333D01*
X114466666Y-81851428D01*
X114419047Y-81946666D01*
X114371428Y-81994285D01*
X114276190Y-82041904D01*
X114038095Y-82041904D01*
X113942857Y-81994285D01*
X113895238Y-81946666D01*
X113847619Y-81851428D01*
X113847619Y-81613333D01*
X113895238Y-81518095D01*
X113942857Y-81470476D01*
X114514285Y-53530476D02*
X113847619Y-53530476D01*
X114895238Y-53292380D02*
X114180952Y-53054285D01*
X114180952Y-53673333D01*
X141390619Y-45434285D02*
X141390619Y-45243809D01*
X141343000Y-45148571D01*
X141295380Y-45100952D01*
X141152523Y-45005714D01*
X140962047Y-44958095D01*
X140581095Y-44958095D01*
X140485857Y-45005714D01*
X140438238Y-45053333D01*
X140390619Y-45148571D01*
X140390619Y-45339047D01*
X140438238Y-45434285D01*
X140485857Y-45481904D01*
X140581095Y-45529523D01*
X140819190Y-45529523D01*
X140914428Y-45481904D01*
X140962047Y-45434285D01*
X141009666Y-45339047D01*
X141009666Y-45148571D01*
X140962047Y-45053333D01*
X140914428Y-45005714D01*
X140819190Y-44958095D01*
X141057285Y-46386666D02*
X140390619Y-46386666D01*
X141438238Y-46148571D02*
X140723952Y-45910476D01*
X140723952Y-46529523D01*
X113847619Y-46005714D02*
X113847619Y-45434285D01*
X113847619Y-45720000D02*
X114847619Y-45720000D01*
X114704761Y-45624761D01*
X114609523Y-45529523D01*
X114561904Y-45434285D01*
X141390619Y-68341904D02*
X141390619Y-67865714D01*
X140914428Y-67818095D01*
X140962047Y-67865714D01*
X141009666Y-67960952D01*
X141009666Y-68199047D01*
X140962047Y-68294285D01*
X140914428Y-68341904D01*
X140819190Y-68389523D01*
X140581095Y-68389523D01*
X140485857Y-68341904D01*
X140438238Y-68294285D01*
X140390619Y-68199047D01*
X140390619Y-67960952D01*
X140438238Y-67865714D01*
X140485857Y-67818095D01*
X141390619Y-69294285D02*
X141390619Y-68818095D01*
X140914428Y-68770476D01*
X140962047Y-68818095D01*
X141009666Y-68913333D01*
X141009666Y-69151428D01*
X140962047Y-69246666D01*
X140914428Y-69294285D01*
X140819190Y-69341904D01*
X140581095Y-69341904D01*
X140485857Y-69294285D01*
X140438238Y-69246666D01*
X140390619Y-69151428D01*
X140390619Y-68913333D01*
X140438238Y-68818095D01*
X140485857Y-68770476D01*
X113847619Y-91249523D02*
X113847619Y-90678095D01*
X113847619Y-90963809D02*
X114847619Y-90963809D01*
X114704761Y-90868571D01*
X114609523Y-90773333D01*
X114561904Y-90678095D01*
X113847619Y-91725714D02*
X113847619Y-91916190D01*
X113895238Y-92011428D01*
X113942857Y-92059047D01*
X114085714Y-92154285D01*
X114276190Y-92201904D01*
X114657142Y-92201904D01*
X114752380Y-92154285D01*
X114800000Y-92106666D01*
X114847619Y-92011428D01*
X114847619Y-91820952D01*
X114800000Y-91725714D01*
X114752380Y-91678095D01*
X114657142Y-91630476D01*
X114419047Y-91630476D01*
X114323809Y-91678095D01*
X114276190Y-91725714D01*
X114228571Y-91820952D01*
X114228571Y-92011428D01*
X114276190Y-92106666D01*
X114323809Y-92154285D01*
X114419047Y-92201904D01*
X141390619Y-60721904D02*
X141390619Y-60245714D01*
X140914428Y-60198095D01*
X140962047Y-60245714D01*
X141009666Y-60340952D01*
X141009666Y-60579047D01*
X140962047Y-60674285D01*
X140914428Y-60721904D01*
X140819190Y-60769523D01*
X140581095Y-60769523D01*
X140485857Y-60721904D01*
X140438238Y-60674285D01*
X140390619Y-60579047D01*
X140390619Y-60340952D01*
X140438238Y-60245714D01*
X140485857Y-60198095D01*
X140962047Y-61340952D02*
X141009666Y-61245714D01*
X141057285Y-61198095D01*
X141152523Y-61150476D01*
X141200142Y-61150476D01*
X141295380Y-61198095D01*
X141343000Y-61245714D01*
X141390619Y-61340952D01*
X141390619Y-61531428D01*
X141343000Y-61626666D01*
X141295380Y-61674285D01*
X141200142Y-61721904D01*
X141152523Y-61721904D01*
X141057285Y-61674285D01*
X141009666Y-61626666D01*
X140962047Y-61531428D01*
X140962047Y-61340952D01*
X140914428Y-61245714D01*
X140866809Y-61198095D01*
X140771571Y-61150476D01*
X140581095Y-61150476D01*
X140485857Y-61198095D01*
X140438238Y-61245714D01*
X140390619Y-61340952D01*
X140390619Y-61531428D01*
X140438238Y-61626666D01*
X140485857Y-61674285D01*
X140581095Y-61721904D01*
X140771571Y-61721904D01*
X140866809Y-61674285D01*
X140914428Y-61626666D01*
X140962047Y-61531428D01*
X141390619Y-65801904D02*
X141390619Y-65325714D01*
X140914428Y-65278095D01*
X140962047Y-65325714D01*
X141009666Y-65420952D01*
X141009666Y-65659047D01*
X140962047Y-65754285D01*
X140914428Y-65801904D01*
X140819190Y-65849523D01*
X140581095Y-65849523D01*
X140485857Y-65801904D01*
X140438238Y-65754285D01*
X140390619Y-65659047D01*
X140390619Y-65420952D01*
X140438238Y-65325714D01*
X140485857Y-65278095D01*
X141390619Y-66706666D02*
X141390619Y-66516190D01*
X141343000Y-66420952D01*
X141295380Y-66373333D01*
X141152523Y-66278095D01*
X140962047Y-66230476D01*
X140581095Y-66230476D01*
X140485857Y-66278095D01*
X140438238Y-66325714D01*
X140390619Y-66420952D01*
X140390619Y-66611428D01*
X140438238Y-66706666D01*
X140485857Y-66754285D01*
X140581095Y-66801904D01*
X140819190Y-66801904D01*
X140914428Y-66754285D01*
X140962047Y-66706666D01*
X141009666Y-66611428D01*
X141009666Y-66420952D01*
X140962047Y-66325714D01*
X140914428Y-66278095D01*
X140819190Y-66230476D01*
X141390619Y-50514285D02*
X141390619Y-50323809D01*
X141343000Y-50228571D01*
X141295380Y-50180952D01*
X141152523Y-50085714D01*
X140962047Y-50038095D01*
X140581095Y-50038095D01*
X140485857Y-50085714D01*
X140438238Y-50133333D01*
X140390619Y-50228571D01*
X140390619Y-50419047D01*
X140438238Y-50514285D01*
X140485857Y-50561904D01*
X140581095Y-50609523D01*
X140819190Y-50609523D01*
X140914428Y-50561904D01*
X140962047Y-50514285D01*
X141009666Y-50419047D01*
X141009666Y-50228571D01*
X140962047Y-50133333D01*
X140914428Y-50085714D01*
X140819190Y-50038095D01*
X141295380Y-50990476D02*
X141343000Y-51038095D01*
X141390619Y-51133333D01*
X141390619Y-51371428D01*
X141343000Y-51466666D01*
X141295380Y-51514285D01*
X141200142Y-51561904D01*
X141104904Y-51561904D01*
X140962047Y-51514285D01*
X140390619Y-50942857D01*
X140390619Y-51561904D01*
X114752380Y-95758095D02*
X114800000Y-95805714D01*
X114847619Y-95900952D01*
X114847619Y-96139047D01*
X114800000Y-96234285D01*
X114752380Y-96281904D01*
X114657142Y-96329523D01*
X114561904Y-96329523D01*
X114419047Y-96281904D01*
X113847619Y-95710476D01*
X113847619Y-96329523D01*
X113847619Y-97281904D02*
X113847619Y-96710476D01*
X113847619Y-96996190D02*
X114847619Y-96996190D01*
X114704761Y-96900952D01*
X114609523Y-96805714D01*
X114561904Y-96710476D01*
X141390619Y-47974285D02*
X141390619Y-47783809D01*
X141343000Y-47688571D01*
X141295380Y-47640952D01*
X141152523Y-47545714D01*
X140962047Y-47498095D01*
X140581095Y-47498095D01*
X140485857Y-47545714D01*
X140438238Y-47593333D01*
X140390619Y-47688571D01*
X140390619Y-47879047D01*
X140438238Y-47974285D01*
X140485857Y-48021904D01*
X140581095Y-48069523D01*
X140819190Y-48069523D01*
X140914428Y-48021904D01*
X140962047Y-47974285D01*
X141009666Y-47879047D01*
X141009666Y-47688571D01*
X140962047Y-47593333D01*
X140914428Y-47545714D01*
X140819190Y-47498095D01*
X141390619Y-48402857D02*
X141390619Y-49021904D01*
X141009666Y-48688571D01*
X141009666Y-48831428D01*
X140962047Y-48926666D01*
X140914428Y-48974285D01*
X140819190Y-49021904D01*
X140581095Y-49021904D01*
X140485857Y-48974285D01*
X140438238Y-48926666D01*
X140390619Y-48831428D01*
X140390619Y-48545714D01*
X140438238Y-48450476D01*
X140485857Y-48402857D01*
X114752380Y-116078095D02*
X114800000Y-116125714D01*
X114847619Y-116220952D01*
X114847619Y-116459047D01*
X114800000Y-116554285D01*
X114752380Y-116601904D01*
X114657142Y-116649523D01*
X114561904Y-116649523D01*
X114419047Y-116601904D01*
X113847619Y-116030476D01*
X113847619Y-116649523D01*
X113847619Y-117125714D02*
X113847619Y-117316190D01*
X113895238Y-117411428D01*
X113942857Y-117459047D01*
X114085714Y-117554285D01*
X114276190Y-117601904D01*
X114657142Y-117601904D01*
X114752380Y-117554285D01*
X114800000Y-117506666D01*
X114847619Y-117411428D01*
X114847619Y-117220952D01*
X114800000Y-117125714D01*
X114752380Y-117078095D01*
X114657142Y-117030476D01*
X114419047Y-117030476D01*
X114323809Y-117078095D01*
X114276190Y-117125714D01*
X114228571Y-117220952D01*
X114228571Y-117411428D01*
X114276190Y-117506666D01*
X114323809Y-117554285D01*
X114419047Y-117601904D01*
X141057285Y-101314285D02*
X140390619Y-101314285D01*
X141438238Y-101076190D02*
X140723952Y-100838095D01*
X140723952Y-101457142D01*
X141295380Y-101790476D02*
X141343000Y-101838095D01*
X141390619Y-101933333D01*
X141390619Y-102171428D01*
X141343000Y-102266666D01*
X141295380Y-102314285D01*
X141200142Y-102361904D01*
X141104904Y-102361904D01*
X140962047Y-102314285D01*
X140390619Y-101742857D01*
X140390619Y-102361904D01*
X141057285Y-93694285D02*
X140390619Y-93694285D01*
X141438238Y-93456190D02*
X140723952Y-93218095D01*
X140723952Y-93837142D01*
X141390619Y-94694285D02*
X141390619Y-94218095D01*
X140914428Y-94170476D01*
X140962047Y-94218095D01*
X141009666Y-94313333D01*
X141009666Y-94551428D01*
X140962047Y-94646666D01*
X140914428Y-94694285D01*
X140819190Y-94741904D01*
X140581095Y-94741904D01*
X140485857Y-94694285D01*
X140438238Y-94646666D01*
X140390619Y-94551428D01*
X140390619Y-94313333D01*
X140438238Y-94218095D01*
X140485857Y-94170476D01*
X141057285Y-103854285D02*
X140390619Y-103854285D01*
X141438238Y-103616190D02*
X140723952Y-103378095D01*
X140723952Y-103997142D01*
X140390619Y-104901904D02*
X140390619Y-104330476D01*
X140390619Y-104616190D02*
X141390619Y-104616190D01*
X141247761Y-104520952D01*
X141152523Y-104425714D01*
X141104904Y-104330476D01*
X113847619Y-86169523D02*
X113847619Y-85598095D01*
X113847619Y-85883809D02*
X114847619Y-85883809D01*
X114704761Y-85788571D01*
X114609523Y-85693333D01*
X114561904Y-85598095D01*
X114847619Y-86502857D02*
X114847619Y-87169523D01*
X113847619Y-86740952D01*
X113847619Y-83629523D02*
X113847619Y-83058095D01*
X113847619Y-83343809D02*
X114847619Y-83343809D01*
X114704761Y-83248571D01*
X114609523Y-83153333D01*
X114561904Y-83058095D01*
X114847619Y-84486666D02*
X114847619Y-84296190D01*
X114800000Y-84200952D01*
X114752380Y-84153333D01*
X114609523Y-84058095D01*
X114419047Y-84010476D01*
X114038095Y-84010476D01*
X113942857Y-84058095D01*
X113895238Y-84105714D01*
X113847619Y-84200952D01*
X113847619Y-84391428D01*
X113895238Y-84486666D01*
X113942857Y-84534285D01*
X114038095Y-84581904D01*
X114276190Y-84581904D01*
X114371428Y-84534285D01*
X114419047Y-84486666D01*
X114466666Y-84391428D01*
X114466666Y-84200952D01*
X114419047Y-84105714D01*
X114371428Y-84058095D01*
X114276190Y-84010476D01*
X141057285Y-83534285D02*
X140390619Y-83534285D01*
X141438238Y-83296190D02*
X140723952Y-83058095D01*
X140723952Y-83677142D01*
X140390619Y-84105714D02*
X140390619Y-84296190D01*
X140438238Y-84391428D01*
X140485857Y-84439047D01*
X140628714Y-84534285D01*
X140819190Y-84581904D01*
X141200142Y-84581904D01*
X141295380Y-84534285D01*
X141343000Y-84486666D01*
X141390619Y-84391428D01*
X141390619Y-84200952D01*
X141343000Y-84105714D01*
X141295380Y-84058095D01*
X141200142Y-84010476D01*
X140962047Y-84010476D01*
X140866809Y-84058095D01*
X140819190Y-84105714D01*
X140771571Y-84200952D01*
X140771571Y-84391428D01*
X140819190Y-84486666D01*
X140866809Y-84534285D01*
X140962047Y-84581904D01*
X141390619Y-81041904D02*
X141390619Y-80565714D01*
X140914428Y-80518095D01*
X140962047Y-80565714D01*
X141009666Y-80660952D01*
X141009666Y-80899047D01*
X140962047Y-80994285D01*
X140914428Y-81041904D01*
X140819190Y-81089523D01*
X140581095Y-81089523D01*
X140485857Y-81041904D01*
X140438238Y-80994285D01*
X140390619Y-80899047D01*
X140390619Y-80660952D01*
X140438238Y-80565714D01*
X140485857Y-80518095D01*
X141390619Y-81708571D02*
X141390619Y-81803809D01*
X141343000Y-81899047D01*
X141295380Y-81946666D01*
X141200142Y-81994285D01*
X141009666Y-82041904D01*
X140771571Y-82041904D01*
X140581095Y-81994285D01*
X140485857Y-81946666D01*
X140438238Y-81899047D01*
X140390619Y-81803809D01*
X140390619Y-81708571D01*
X140438238Y-81613333D01*
X140485857Y-81565714D01*
X140581095Y-81518095D01*
X140771571Y-81470476D01*
X141009666Y-81470476D01*
X141200142Y-81518095D01*
X141295380Y-81565714D01*
X141343000Y-81613333D01*
X141390619Y-81708571D01*
X114752380Y-103378095D02*
X114800000Y-103425714D01*
X114847619Y-103520952D01*
X114847619Y-103759047D01*
X114800000Y-103854285D01*
X114752380Y-103901904D01*
X114657142Y-103949523D01*
X114561904Y-103949523D01*
X114419047Y-103901904D01*
X113847619Y-103330476D01*
X113847619Y-103949523D01*
X114514285Y-104806666D02*
X113847619Y-104806666D01*
X114895238Y-104568571D02*
X114180952Y-104330476D01*
X114180952Y-104949523D01*
X141057285Y-88614285D02*
X140390619Y-88614285D01*
X141438238Y-88376190D02*
X140723952Y-88138095D01*
X140723952Y-88757142D01*
X141390619Y-89042857D02*
X141390619Y-89709523D01*
X140390619Y-89280952D01*
X141390619Y-110950476D02*
X141390619Y-111569523D01*
X141009666Y-111236190D01*
X141009666Y-111379047D01*
X140962047Y-111474285D01*
X140914428Y-111521904D01*
X140819190Y-111569523D01*
X140581095Y-111569523D01*
X140485857Y-111521904D01*
X140438238Y-111474285D01*
X140390619Y-111379047D01*
X140390619Y-111093333D01*
X140438238Y-110998095D01*
X140485857Y-110950476D01*
X140962047Y-112140952D02*
X141009666Y-112045714D01*
X141057285Y-111998095D01*
X141152523Y-111950476D01*
X141200142Y-111950476D01*
X141295380Y-111998095D01*
X141343000Y-112045714D01*
X141390619Y-112140952D01*
X141390619Y-112331428D01*
X141343000Y-112426666D01*
X141295380Y-112474285D01*
X141200142Y-112521904D01*
X141152523Y-112521904D01*
X141057285Y-112474285D01*
X141009666Y-112426666D01*
X140962047Y-112331428D01*
X140962047Y-112140952D01*
X140914428Y-112045714D01*
X140866809Y-111998095D01*
X140771571Y-111950476D01*
X140581095Y-111950476D01*
X140485857Y-111998095D01*
X140438238Y-112045714D01*
X140390619Y-112140952D01*
X140390619Y-112331428D01*
X140438238Y-112426666D01*
X140485857Y-112474285D01*
X140581095Y-112521904D01*
X140771571Y-112521904D01*
X140866809Y-112474285D01*
X140914428Y-112426666D01*
X140962047Y-112331428D01*
X114847619Y-121110476D02*
X114847619Y-121729523D01*
X114466666Y-121396190D01*
X114466666Y-121539047D01*
X114419047Y-121634285D01*
X114371428Y-121681904D01*
X114276190Y-121729523D01*
X114038095Y-121729523D01*
X113942857Y-121681904D01*
X113895238Y-121634285D01*
X113847619Y-121539047D01*
X113847619Y-121253333D01*
X113895238Y-121158095D01*
X113942857Y-121110476D01*
X113847619Y-122681904D02*
X113847619Y-122110476D01*
X113847619Y-122396190D02*
X114847619Y-122396190D01*
X114704761Y-122300952D01*
X114609523Y-122205714D01*
X114561904Y-122110476D01*
X141057285Y-86074285D02*
X140390619Y-86074285D01*
X141438238Y-85836190D02*
X140723952Y-85598095D01*
X140723952Y-86217142D01*
X140962047Y-86740952D02*
X141009666Y-86645714D01*
X141057285Y-86598095D01*
X141152523Y-86550476D01*
X141200142Y-86550476D01*
X141295380Y-86598095D01*
X141343000Y-86645714D01*
X141390619Y-86740952D01*
X141390619Y-86931428D01*
X141343000Y-87026666D01*
X141295380Y-87074285D01*
X141200142Y-87121904D01*
X141152523Y-87121904D01*
X141057285Y-87074285D01*
X141009666Y-87026666D01*
X140962047Y-86931428D01*
X140962047Y-86740952D01*
X140914428Y-86645714D01*
X140866809Y-86598095D01*
X140771571Y-86550476D01*
X140581095Y-86550476D01*
X140485857Y-86598095D01*
X140438238Y-86645714D01*
X140390619Y-86740952D01*
X140390619Y-86931428D01*
X140438238Y-87026666D01*
X140485857Y-87074285D01*
X140581095Y-87121904D01*
X140771571Y-87121904D01*
X140866809Y-87074285D01*
X140914428Y-87026666D01*
X140962047Y-86931428D01*
X141390619Y-116030476D02*
X141390619Y-116649523D01*
X141009666Y-116316190D01*
X141009666Y-116459047D01*
X140962047Y-116554285D01*
X140914428Y-116601904D01*
X140819190Y-116649523D01*
X140581095Y-116649523D01*
X140485857Y-116601904D01*
X140438238Y-116554285D01*
X140390619Y-116459047D01*
X140390619Y-116173333D01*
X140438238Y-116078095D01*
X140485857Y-116030476D01*
X141390619Y-117506666D02*
X141390619Y-117316190D01*
X141343000Y-117220952D01*
X141295380Y-117173333D01*
X141152523Y-117078095D01*
X140962047Y-117030476D01*
X140581095Y-117030476D01*
X140485857Y-117078095D01*
X140438238Y-117125714D01*
X140390619Y-117220952D01*
X140390619Y-117411428D01*
X140438238Y-117506666D01*
X140485857Y-117554285D01*
X140581095Y-117601904D01*
X140819190Y-117601904D01*
X140914428Y-117554285D01*
X140962047Y-117506666D01*
X141009666Y-117411428D01*
X141009666Y-117220952D01*
X140962047Y-117125714D01*
X140914428Y-117078095D01*
X140819190Y-117030476D01*
X141390619Y-73421904D02*
X141390619Y-72945714D01*
X140914428Y-72898095D01*
X140962047Y-72945714D01*
X141009666Y-73040952D01*
X141009666Y-73279047D01*
X140962047Y-73374285D01*
X140914428Y-73421904D01*
X140819190Y-73469523D01*
X140581095Y-73469523D01*
X140485857Y-73421904D01*
X140438238Y-73374285D01*
X140390619Y-73279047D01*
X140390619Y-73040952D01*
X140438238Y-72945714D01*
X140485857Y-72898095D01*
X141390619Y-73802857D02*
X141390619Y-74421904D01*
X141009666Y-74088571D01*
X141009666Y-74231428D01*
X140962047Y-74326666D01*
X140914428Y-74374285D01*
X140819190Y-74421904D01*
X140581095Y-74421904D01*
X140485857Y-74374285D01*
X140438238Y-74326666D01*
X140390619Y-74231428D01*
X140390619Y-73945714D01*
X140438238Y-73850476D01*
X140485857Y-73802857D01*
X141057285Y-98774285D02*
X140390619Y-98774285D01*
X141438238Y-98536190D02*
X140723952Y-98298095D01*
X140723952Y-98917142D01*
X141390619Y-99202857D02*
X141390619Y-99821904D01*
X141009666Y-99488571D01*
X141009666Y-99631428D01*
X140962047Y-99726666D01*
X140914428Y-99774285D01*
X140819190Y-99821904D01*
X140581095Y-99821904D01*
X140485857Y-99774285D01*
X140438238Y-99726666D01*
X140390619Y-99631428D01*
X140390619Y-99345714D01*
X140438238Y-99250476D01*
X140485857Y-99202857D01*
X141390619Y-113490476D02*
X141390619Y-114109523D01*
X141009666Y-113776190D01*
X141009666Y-113919047D01*
X140962047Y-114014285D01*
X140914428Y-114061904D01*
X140819190Y-114109523D01*
X140581095Y-114109523D01*
X140485857Y-114061904D01*
X140438238Y-114014285D01*
X140390619Y-113919047D01*
X140390619Y-113633333D01*
X140438238Y-113538095D01*
X140485857Y-113490476D01*
X141390619Y-114442857D02*
X141390619Y-115109523D01*
X140390619Y-114680952D01*
X141390619Y-55594285D02*
X141390619Y-55403809D01*
X141343000Y-55308571D01*
X141295380Y-55260952D01*
X141152523Y-55165714D01*
X140962047Y-55118095D01*
X140581095Y-55118095D01*
X140485857Y-55165714D01*
X140438238Y-55213333D01*
X140390619Y-55308571D01*
X140390619Y-55499047D01*
X140438238Y-55594285D01*
X140485857Y-55641904D01*
X140581095Y-55689523D01*
X140819190Y-55689523D01*
X140914428Y-55641904D01*
X140962047Y-55594285D01*
X141009666Y-55499047D01*
X141009666Y-55308571D01*
X140962047Y-55213333D01*
X140914428Y-55165714D01*
X140819190Y-55118095D01*
X141390619Y-56308571D02*
X141390619Y-56403809D01*
X141343000Y-56499047D01*
X141295380Y-56546666D01*
X141200142Y-56594285D01*
X141009666Y-56641904D01*
X140771571Y-56641904D01*
X140581095Y-56594285D01*
X140485857Y-56546666D01*
X140438238Y-56499047D01*
X140390619Y-56403809D01*
X140390619Y-56308571D01*
X140438238Y-56213333D01*
X140485857Y-56165714D01*
X140581095Y-56118095D01*
X140771571Y-56070476D01*
X141009666Y-56070476D01*
X141200142Y-56118095D01*
X141295380Y-56165714D01*
X141343000Y-56213333D01*
X141390619Y-56308571D01*
X121206428Y-123912380D02*
X121825476Y-123912380D01*
X121492142Y-124293333D01*
X121635000Y-124293333D01*
X121730238Y-124340952D01*
X121777857Y-124388571D01*
X121825476Y-124483809D01*
X121825476Y-124721904D01*
X121777857Y-124817142D01*
X121730238Y-124864761D01*
X121635000Y-124912380D01*
X121349285Y-124912380D01*
X121254047Y-124864761D01*
X121206428Y-124817142D01*
X122777857Y-124912380D02*
X122206428Y-124912380D01*
X122492142Y-124912380D02*
X122492142Y-123912380D01*
X122396904Y-124055238D01*
X122301666Y-124150476D01*
X122206428Y-124198095D01*
X123206428Y-124817142D02*
X123254047Y-124864761D01*
X123206428Y-124912380D01*
X123158809Y-124864761D01*
X123206428Y-124817142D01*
X123206428Y-124912380D01*
X123587380Y-123912380D02*
X124254047Y-123912380D01*
X123825476Y-124912380D01*
X125111190Y-123912380D02*
X124635000Y-123912380D01*
X124587380Y-124388571D01*
X124635000Y-124340952D01*
X124730238Y-124293333D01*
X124968333Y-124293333D01*
X125063571Y-124340952D01*
X125111190Y-124388571D01*
X125158809Y-124483809D01*
X125158809Y-124721904D01*
X125111190Y-124817142D01*
X125063571Y-124864761D01*
X124968333Y-124912380D01*
X124730238Y-124912380D01*
X124635000Y-124864761D01*
X124587380Y-124817142D01*
X125587380Y-124912380D02*
X125587380Y-124245714D01*
X125587380Y-124340952D02*
X125635000Y-124293333D01*
X125730238Y-124245714D01*
X125873095Y-124245714D01*
X125968333Y-124293333D01*
X126015952Y-124388571D01*
X126015952Y-124912380D01*
X126015952Y-124388571D02*
X126063571Y-124293333D01*
X126158809Y-124245714D01*
X126301666Y-124245714D01*
X126396904Y-124293333D01*
X126444523Y-124388571D01*
X126444523Y-124912380D01*
X126920714Y-124912380D02*
X126920714Y-124245714D01*
X126920714Y-124340952D02*
X126968333Y-124293333D01*
X127063571Y-124245714D01*
X127206428Y-124245714D01*
X127301666Y-124293333D01*
X127349285Y-124388571D01*
X127349285Y-124912380D01*
X127349285Y-124388571D02*
X127396904Y-124293333D01*
X127492142Y-124245714D01*
X127635000Y-124245714D01*
X127730238Y-124293333D01*
X127777857Y-124388571D01*
X127777857Y-124912380D01*
X129301666Y-125293333D02*
X129254047Y-125245714D01*
X129158809Y-125102857D01*
X129111190Y-125007619D01*
X129063571Y-124864761D01*
X129015952Y-124626666D01*
X129015952Y-124436190D01*
X129063571Y-124198095D01*
X129111190Y-124055238D01*
X129158809Y-123960000D01*
X129254047Y-123817142D01*
X129301666Y-123769523D01*
X130206428Y-124912380D02*
X129635000Y-124912380D01*
X129920714Y-124912380D02*
X129920714Y-123912380D01*
X129825476Y-124055238D01*
X129730238Y-124150476D01*
X129635000Y-124198095D01*
X130635000Y-124817142D02*
X130682619Y-124864761D01*
X130635000Y-124912380D01*
X130587380Y-124864761D01*
X130635000Y-124817142D01*
X130635000Y-124912380D01*
X131063571Y-124007619D02*
X131111190Y-123960000D01*
X131206428Y-123912380D01*
X131444523Y-123912380D01*
X131539761Y-123960000D01*
X131587380Y-124007619D01*
X131635000Y-124102857D01*
X131635000Y-124198095D01*
X131587380Y-124340952D01*
X131015952Y-124912380D01*
X131635000Y-124912380D01*
X132539761Y-123912380D02*
X132063571Y-123912380D01*
X132015952Y-124388571D01*
X132063571Y-124340952D01*
X132158809Y-124293333D01*
X132396904Y-124293333D01*
X132492142Y-124340952D01*
X132539761Y-124388571D01*
X132587380Y-124483809D01*
X132587380Y-124721904D01*
X132539761Y-124817142D01*
X132492142Y-124864761D01*
X132396904Y-124912380D01*
X132158809Y-124912380D01*
X132063571Y-124864761D01*
X132015952Y-124817142D01*
X132968333Y-123912380D02*
X132968333Y-124102857D01*
X133349285Y-123912380D02*
X133349285Y-124102857D01*
X133682619Y-125293333D02*
X133730238Y-125245714D01*
X133825476Y-125102857D01*
X133873095Y-125007619D01*
X133920714Y-124864761D01*
X133968333Y-124626666D01*
X133968333Y-124436190D01*
X133920714Y-124198095D01*
X133873095Y-124055238D01*
X133825476Y-123960000D01*
X133730238Y-123817142D01*
X133682619Y-123769523D01*
X141390619Y-118570476D02*
X141390619Y-119189523D01*
X141009666Y-118856190D01*
X141009666Y-118999047D01*
X140962047Y-119094285D01*
X140914428Y-119141904D01*
X140819190Y-119189523D01*
X140581095Y-119189523D01*
X140485857Y-119141904D01*
X140438238Y-119094285D01*
X140390619Y-118999047D01*
X140390619Y-118713333D01*
X140438238Y-118618095D01*
X140485857Y-118570476D01*
X141390619Y-120094285D02*
X141390619Y-119618095D01*
X140914428Y-119570476D01*
X140962047Y-119618095D01*
X141009666Y-119713333D01*
X141009666Y-119951428D01*
X140962047Y-120046666D01*
X140914428Y-120094285D01*
X140819190Y-120141904D01*
X140581095Y-120141904D01*
X140485857Y-120094285D01*
X140438238Y-120046666D01*
X140390619Y-119951428D01*
X140390619Y-119713333D01*
X140438238Y-119618095D01*
X140485857Y-119570476D01*
X141390619Y-58181904D02*
X141390619Y-57705714D01*
X140914428Y-57658095D01*
X140962047Y-57705714D01*
X141009666Y-57800952D01*
X141009666Y-58039047D01*
X140962047Y-58134285D01*
X140914428Y-58181904D01*
X140819190Y-58229523D01*
X140581095Y-58229523D01*
X140485857Y-58181904D01*
X140438238Y-58134285D01*
X140390619Y-58039047D01*
X140390619Y-57800952D01*
X140438238Y-57705714D01*
X140485857Y-57658095D01*
X140390619Y-58705714D02*
X140390619Y-58896190D01*
X140438238Y-58991428D01*
X140485857Y-59039047D01*
X140628714Y-59134285D01*
X140819190Y-59181904D01*
X141200142Y-59181904D01*
X141295380Y-59134285D01*
X141343000Y-59086666D01*
X141390619Y-58991428D01*
X141390619Y-58800952D01*
X141343000Y-58705714D01*
X141295380Y-58658095D01*
X141200142Y-58610476D01*
X140962047Y-58610476D01*
X140866809Y-58658095D01*
X140819190Y-58705714D01*
X140771571Y-58800952D01*
X140771571Y-58991428D01*
X140819190Y-59086666D01*
X140866809Y-59134285D01*
X140962047Y-59181904D01*
X114419047Y-63404761D02*
X114466666Y-63309523D01*
X114514285Y-63261904D01*
X114609523Y-63214285D01*
X114657142Y-63214285D01*
X114752380Y-63261904D01*
X114800000Y-63309523D01*
X114847619Y-63404761D01*
X114847619Y-63595238D01*
X114800000Y-63690476D01*
X114752380Y-63738095D01*
X114657142Y-63785714D01*
X114609523Y-63785714D01*
X114514285Y-63738095D01*
X114466666Y-63690476D01*
X114419047Y-63595238D01*
X114419047Y-63404761D01*
X114371428Y-63309523D01*
X114323809Y-63261904D01*
X114228571Y-63214285D01*
X114038095Y-63214285D01*
X113942857Y-63261904D01*
X113895238Y-63309523D01*
X113847619Y-63404761D01*
X113847619Y-63595238D01*
X113895238Y-63690476D01*
X113942857Y-63738095D01*
X114038095Y-63785714D01*
X114228571Y-63785714D01*
X114323809Y-63738095D01*
X114371428Y-63690476D01*
X114419047Y-63595238D01*
X141390619Y-70881904D02*
X141390619Y-70405714D01*
X140914428Y-70358095D01*
X140962047Y-70405714D01*
X141009666Y-70500952D01*
X141009666Y-70739047D01*
X140962047Y-70834285D01*
X140914428Y-70881904D01*
X140819190Y-70929523D01*
X140581095Y-70929523D01*
X140485857Y-70881904D01*
X140438238Y-70834285D01*
X140390619Y-70739047D01*
X140390619Y-70500952D01*
X140438238Y-70405714D01*
X140485857Y-70358095D01*
X141057285Y-71786666D02*
X140390619Y-71786666D01*
X141438238Y-71548571D02*
X140723952Y-71310476D01*
X140723952Y-71929523D01*
X114752380Y-98298095D02*
X114800000Y-98345714D01*
X114847619Y-98440952D01*
X114847619Y-98679047D01*
X114800000Y-98774285D01*
X114752380Y-98821904D01*
X114657142Y-98869523D01*
X114561904Y-98869523D01*
X114419047Y-98821904D01*
X113847619Y-98250476D01*
X113847619Y-98869523D01*
X114752380Y-99250476D02*
X114800000Y-99298095D01*
X114847619Y-99393333D01*
X114847619Y-99631428D01*
X114800000Y-99726666D01*
X114752380Y-99774285D01*
X114657142Y-99821904D01*
X114561904Y-99821904D01*
X114419047Y-99774285D01*
X113847619Y-99202857D01*
X113847619Y-99821904D01*
X113847619Y-78549523D02*
X113847619Y-77978095D01*
X113847619Y-78263809D02*
X114847619Y-78263809D01*
X114704761Y-78168571D01*
X114609523Y-78073333D01*
X114561904Y-77978095D01*
X114514285Y-79406666D02*
X113847619Y-79406666D01*
X114895238Y-79168571D02*
X114180952Y-78930476D01*
X114180952Y-79549523D01*
X141390619Y-78501904D02*
X141390619Y-78025714D01*
X140914428Y-77978095D01*
X140962047Y-78025714D01*
X141009666Y-78120952D01*
X141009666Y-78359047D01*
X140962047Y-78454285D01*
X140914428Y-78501904D01*
X140819190Y-78549523D01*
X140581095Y-78549523D01*
X140485857Y-78501904D01*
X140438238Y-78454285D01*
X140390619Y-78359047D01*
X140390619Y-78120952D01*
X140438238Y-78025714D01*
X140485857Y-77978095D01*
X140390619Y-79501904D02*
X140390619Y-78930476D01*
X140390619Y-79216190D02*
X141390619Y-79216190D01*
X141247761Y-79120952D01*
X141152523Y-79025714D01*
X141104904Y-78930476D01*
X114847619Y-50466666D02*
X114847619Y-51085714D01*
X114466666Y-50752380D01*
X114466666Y-50895238D01*
X114419047Y-50990476D01*
X114371428Y-51038095D01*
X114276190Y-51085714D01*
X114038095Y-51085714D01*
X113942857Y-51038095D01*
X113895238Y-50990476D01*
X113847619Y-50895238D01*
X113847619Y-50609523D01*
X113895238Y-50514285D01*
X113942857Y-50466666D01*
X114847619Y-58610476D02*
X114847619Y-58420000D01*
X114800000Y-58324761D01*
X114752380Y-58277142D01*
X114609523Y-58181904D01*
X114419047Y-58134285D01*
X114038095Y-58134285D01*
X113942857Y-58181904D01*
X113895238Y-58229523D01*
X113847619Y-58324761D01*
X113847619Y-58515238D01*
X113895238Y-58610476D01*
X113942857Y-58658095D01*
X114038095Y-58705714D01*
X114276190Y-58705714D01*
X114371428Y-58658095D01*
X114419047Y-58610476D01*
X114466666Y-58515238D01*
X114466666Y-58324761D01*
X114419047Y-58229523D01*
X114371428Y-58181904D01*
X114276190Y-58134285D01*
X113847619Y-88709523D02*
X113847619Y-88138095D01*
X113847619Y-88423809D02*
X114847619Y-88423809D01*
X114704761Y-88328571D01*
X114609523Y-88233333D01*
X114561904Y-88138095D01*
X114419047Y-89280952D02*
X114466666Y-89185714D01*
X114514285Y-89138095D01*
X114609523Y-89090476D01*
X114657142Y-89090476D01*
X114752380Y-89138095D01*
X114800000Y-89185714D01*
X114847619Y-89280952D01*
X114847619Y-89471428D01*
X114800000Y-89566666D01*
X114752380Y-89614285D01*
X114657142Y-89661904D01*
X114609523Y-89661904D01*
X114514285Y-89614285D01*
X114466666Y-89566666D01*
X114419047Y-89471428D01*
X114419047Y-89280952D01*
X114371428Y-89185714D01*
X114323809Y-89138095D01*
X114228571Y-89090476D01*
X114038095Y-89090476D01*
X113942857Y-89138095D01*
X113895238Y-89185714D01*
X113847619Y-89280952D01*
X113847619Y-89471428D01*
X113895238Y-89566666D01*
X113942857Y-89614285D01*
X114038095Y-89661904D01*
X114228571Y-89661904D01*
X114323809Y-89614285D01*
X114371428Y-89566666D01*
X114419047Y-89471428D01*
X141390619Y-108410476D02*
X141390619Y-109029523D01*
X141009666Y-108696190D01*
X141009666Y-108839047D01*
X140962047Y-108934285D01*
X140914428Y-108981904D01*
X140819190Y-109029523D01*
X140581095Y-109029523D01*
X140485857Y-108981904D01*
X140438238Y-108934285D01*
X140390619Y-108839047D01*
X140390619Y-108553333D01*
X140438238Y-108458095D01*
X140485857Y-108410476D01*
X140390619Y-109505714D02*
X140390619Y-109696190D01*
X140438238Y-109791428D01*
X140485857Y-109839047D01*
X140628714Y-109934285D01*
X140819190Y-109981904D01*
X141200142Y-109981904D01*
X141295380Y-109934285D01*
X141343000Y-109886666D01*
X141390619Y-109791428D01*
X141390619Y-109600952D01*
X141343000Y-109505714D01*
X141295380Y-109458095D01*
X141200142Y-109410476D01*
X140962047Y-109410476D01*
X140866809Y-109458095D01*
X140819190Y-109505714D01*
X140771571Y-109600952D01*
X140771571Y-109791428D01*
X140819190Y-109886666D01*
X140866809Y-109934285D01*
X140962047Y-109981904D01*
X114752380Y-105918095D02*
X114800000Y-105965714D01*
X114847619Y-106060952D01*
X114847619Y-106299047D01*
X114800000Y-106394285D01*
X114752380Y-106441904D01*
X114657142Y-106489523D01*
X114561904Y-106489523D01*
X114419047Y-106441904D01*
X113847619Y-105870476D01*
X113847619Y-106489523D01*
X114847619Y-107394285D02*
X114847619Y-106918095D01*
X114371428Y-106870476D01*
X114419047Y-106918095D01*
X114466666Y-107013333D01*
X114466666Y-107251428D01*
X114419047Y-107346666D01*
X114371428Y-107394285D01*
X114276190Y-107441904D01*
X114038095Y-107441904D01*
X113942857Y-107394285D01*
X113895238Y-107346666D01*
X113847619Y-107251428D01*
X113847619Y-107013333D01*
X113895238Y-106918095D01*
X113942857Y-106870476D01*
X113847619Y-76009523D02*
X113847619Y-75438095D01*
X113847619Y-75723809D02*
X114847619Y-75723809D01*
X114704761Y-75628571D01*
X114609523Y-75533333D01*
X114561904Y-75438095D01*
X114847619Y-76342857D02*
X114847619Y-76961904D01*
X114466666Y-76628571D01*
X114466666Y-76771428D01*
X114419047Y-76866666D01*
X114371428Y-76914285D01*
X114276190Y-76961904D01*
X114038095Y-76961904D01*
X113942857Y-76914285D01*
X113895238Y-76866666D01*
X113847619Y-76771428D01*
X113847619Y-76485714D01*
X113895238Y-76390476D01*
X113942857Y-76342857D01*
X114752380Y-108458095D02*
X114800000Y-108505714D01*
X114847619Y-108600952D01*
X114847619Y-108839047D01*
X114800000Y-108934285D01*
X114752380Y-108981904D01*
X114657142Y-109029523D01*
X114561904Y-109029523D01*
X114419047Y-108981904D01*
X113847619Y-108410476D01*
X113847619Y-109029523D01*
X114847619Y-109886666D02*
X114847619Y-109696190D01*
X114800000Y-109600952D01*
X114752380Y-109553333D01*
X114609523Y-109458095D01*
X114419047Y-109410476D01*
X114038095Y-109410476D01*
X113942857Y-109458095D01*
X113895238Y-109505714D01*
X113847619Y-109600952D01*
X113847619Y-109791428D01*
X113895238Y-109886666D01*
X113942857Y-109934285D01*
X114038095Y-109981904D01*
X114276190Y-109981904D01*
X114371428Y-109934285D01*
X114419047Y-109886666D01*
X114466666Y-109791428D01*
X114466666Y-109600952D01*
X114419047Y-109505714D01*
X114371428Y-109458095D01*
X114276190Y-109410476D01*
X113847619Y-70929523D02*
X113847619Y-70358095D01*
X113847619Y-70643809D02*
X114847619Y-70643809D01*
X114704761Y-70548571D01*
X114609523Y-70453333D01*
X114561904Y-70358095D01*
X113847619Y-71881904D02*
X113847619Y-71310476D01*
X113847619Y-71596190D02*
X114847619Y-71596190D01*
X114704761Y-71500952D01*
X114609523Y-71405714D01*
X114561904Y-71310476D01*
X114752380Y-100838095D02*
X114800000Y-100885714D01*
X114847619Y-100980952D01*
X114847619Y-101219047D01*
X114800000Y-101314285D01*
X114752380Y-101361904D01*
X114657142Y-101409523D01*
X114561904Y-101409523D01*
X114419047Y-101361904D01*
X113847619Y-100790476D01*
X113847619Y-101409523D01*
X114847619Y-101742857D02*
X114847619Y-102361904D01*
X114466666Y-102028571D01*
X114466666Y-102171428D01*
X114419047Y-102266666D01*
X114371428Y-102314285D01*
X114276190Y-102361904D01*
X114038095Y-102361904D01*
X113942857Y-102314285D01*
X113895238Y-102266666D01*
X113847619Y-102171428D01*
X113847619Y-101885714D01*
X113895238Y-101790476D01*
X113942857Y-101742857D01*
X114847619Y-60626666D02*
X114847619Y-61293333D01*
X113847619Y-60864761D01*
X114752380Y-93218095D02*
X114800000Y-93265714D01*
X114847619Y-93360952D01*
X114847619Y-93599047D01*
X114800000Y-93694285D01*
X114752380Y-93741904D01*
X114657142Y-93789523D01*
X114561904Y-93789523D01*
X114419047Y-93741904D01*
X113847619Y-93170476D01*
X113847619Y-93789523D01*
X114847619Y-94408571D02*
X114847619Y-94503809D01*
X114800000Y-94599047D01*
X114752380Y-94646666D01*
X114657142Y-94694285D01*
X114466666Y-94741904D01*
X114228571Y-94741904D01*
X114038095Y-94694285D01*
X113942857Y-94646666D01*
X113895238Y-94599047D01*
X113847619Y-94503809D01*
X113847619Y-94408571D01*
X113895238Y-94313333D01*
X113942857Y-94265714D01*
X114038095Y-94218095D01*
X114228571Y-94170476D01*
X114466666Y-94170476D01*
X114657142Y-94218095D01*
X114752380Y-94265714D01*
X114800000Y-94313333D01*
X114847619Y-94408571D01*
X113847619Y-73469523D02*
X113847619Y-72898095D01*
X113847619Y-73183809D02*
X114847619Y-73183809D01*
X114704761Y-73088571D01*
X114609523Y-72993333D01*
X114561904Y-72898095D01*
X114752380Y-73850476D02*
X114800000Y-73898095D01*
X114847619Y-73993333D01*
X114847619Y-74231428D01*
X114800000Y-74326666D01*
X114752380Y-74374285D01*
X114657142Y-74421904D01*
X114561904Y-74421904D01*
X114419047Y-74374285D01*
X113847619Y-73802857D01*
X113847619Y-74421904D01*
X114752380Y-47974285D02*
X114800000Y-48021904D01*
X114847619Y-48117142D01*
X114847619Y-48355238D01*
X114800000Y-48450476D01*
X114752380Y-48498095D01*
X114657142Y-48545714D01*
X114561904Y-48545714D01*
X114419047Y-48498095D01*
X113847619Y-47926666D01*
X113847619Y-48545714D01*
X141057285Y-96234285D02*
X140390619Y-96234285D01*
X141438238Y-95996190D02*
X140723952Y-95758095D01*
X140723952Y-96377142D01*
X141057285Y-97186666D02*
X140390619Y-97186666D01*
X141438238Y-96948571D02*
X140723952Y-96710476D01*
X140723952Y-97329523D01*
D13*
X124577457Y-70874076D02*
X124482219Y-71159790D01*
X124386980Y-71255028D01*
X124196504Y-71350266D01*
X123910790Y-71350266D01*
X123720314Y-71255028D01*
X123625076Y-71159790D01*
X123529838Y-70969314D01*
X123529838Y-70207409D01*
X125529838Y-70207409D01*
X125529838Y-70874076D01*
X125434600Y-71064552D01*
X125339361Y-71159790D01*
X125148885Y-71255028D01*
X124958409Y-71255028D01*
X124767933Y-71159790D01*
X124672695Y-71064552D01*
X124577457Y-70874076D01*
X124577457Y-70207409D01*
X123529838Y-72207409D02*
X124863171Y-72207409D01*
X124482219Y-72207409D02*
X124672695Y-72302647D01*
X124767933Y-72397885D01*
X124863171Y-72588361D01*
X124863171Y-72778838D01*
X123625076Y-74207409D02*
X123529838Y-74016933D01*
X123529838Y-73635980D01*
X123625076Y-73445504D01*
X123815552Y-73350266D01*
X124577457Y-73350266D01*
X124767933Y-73445504D01*
X124863171Y-73635980D01*
X124863171Y-74016933D01*
X124767933Y-74207409D01*
X124577457Y-74302647D01*
X124386980Y-74302647D01*
X124196504Y-73350266D01*
X123529838Y-76016933D02*
X124577457Y-76016933D01*
X124767933Y-75921695D01*
X124863171Y-75731219D01*
X124863171Y-75350266D01*
X124767933Y-75159790D01*
X123625076Y-76016933D02*
X123529838Y-75826457D01*
X123529838Y-75350266D01*
X123625076Y-75159790D01*
X123815552Y-75064552D01*
X124006028Y-75064552D01*
X124196504Y-75159790D01*
X124291742Y-75350266D01*
X124291742Y-75826457D01*
X124386980Y-76016933D01*
X123529838Y-77826457D02*
X125529838Y-77826457D01*
X123625076Y-77826457D02*
X123529838Y-77635980D01*
X123529838Y-77255028D01*
X123625076Y-77064552D01*
X123720314Y-76969314D01*
X123910790Y-76874076D01*
X124482219Y-76874076D01*
X124672695Y-76969314D01*
X124767933Y-77064552D01*
X124863171Y-77255028D01*
X124863171Y-77635980D01*
X124767933Y-77826457D01*
X123529838Y-78778838D02*
X125529838Y-78778838D01*
X124767933Y-78778838D02*
X124863171Y-78969314D01*
X124863171Y-79350266D01*
X124767933Y-79540742D01*
X124672695Y-79635980D01*
X124482219Y-79731219D01*
X123910790Y-79731219D01*
X123720314Y-79635980D01*
X123625076Y-79540742D01*
X123529838Y-79350266D01*
X123529838Y-78969314D01*
X123625076Y-78778838D01*
X123529838Y-80874076D02*
X123625076Y-80683600D01*
X123720314Y-80588361D01*
X123910790Y-80493123D01*
X124482219Y-80493123D01*
X124672695Y-80588361D01*
X124767933Y-80683600D01*
X124863171Y-80874076D01*
X124863171Y-81159790D01*
X124767933Y-81350266D01*
X124672695Y-81445504D01*
X124482219Y-81540742D01*
X123910790Y-81540742D01*
X123720314Y-81445504D01*
X123625076Y-81350266D01*
X123529838Y-81159790D01*
X123529838Y-80874076D01*
X123529838Y-83255028D02*
X124577457Y-83255028D01*
X124767933Y-83159790D01*
X124863171Y-82969314D01*
X124863171Y-82588361D01*
X124767933Y-82397885D01*
X123625076Y-83255028D02*
X123529838Y-83064552D01*
X123529838Y-82588361D01*
X123625076Y-82397885D01*
X123815552Y-82302647D01*
X124006028Y-82302647D01*
X124196504Y-82397885D01*
X124291742Y-82588361D01*
X124291742Y-83064552D01*
X124386980Y-83255028D01*
X123529838Y-84207409D02*
X124863171Y-84207409D01*
X124482219Y-84207409D02*
X124672695Y-84302647D01*
X124767933Y-84397885D01*
X124863171Y-84588361D01*
X124863171Y-84778838D01*
X123529838Y-86302647D02*
X125529838Y-86302647D01*
X123625076Y-86302647D02*
X123529838Y-86112171D01*
X123529838Y-85731219D01*
X123625076Y-85540742D01*
X123720314Y-85445504D01*
X123910790Y-85350266D01*
X124482219Y-85350266D01*
X124672695Y-85445504D01*
X124767933Y-85540742D01*
X124863171Y-85731219D01*
X124863171Y-86112171D01*
X124767933Y-86302647D01*
X124101266Y-88683600D02*
X124101266Y-89635980D01*
X123529838Y-88493123D02*
X125529838Y-89159790D01*
X123529838Y-89826457D01*
X123529838Y-91350266D02*
X125529838Y-91350266D01*
X123625076Y-91350266D02*
X123529838Y-91159790D01*
X123529838Y-90778838D01*
X123625076Y-90588361D01*
X123720314Y-90493123D01*
X123910790Y-90397885D01*
X124482219Y-90397885D01*
X124672695Y-90493123D01*
X124767933Y-90588361D01*
X124863171Y-90778838D01*
X124863171Y-91159790D01*
X124767933Y-91350266D01*
X123529838Y-93159790D02*
X124577457Y-93159790D01*
X124767933Y-93064552D01*
X124863171Y-92874076D01*
X124863171Y-92493123D01*
X124767933Y-92302647D01*
X123625076Y-93159790D02*
X123529838Y-92969314D01*
X123529838Y-92493123D01*
X123625076Y-92302647D01*
X123815552Y-92207409D01*
X124006028Y-92207409D01*
X124196504Y-92302647D01*
X124291742Y-92493123D01*
X124291742Y-92969314D01*
X124386980Y-93159790D01*
X124863171Y-94112171D02*
X122863171Y-94112171D01*
X124767933Y-94112171D02*
X124863171Y-94302647D01*
X124863171Y-94683600D01*
X124767933Y-94874076D01*
X124672695Y-94969314D01*
X124482219Y-95064552D01*
X123910790Y-95064552D01*
X123720314Y-94969314D01*
X123625076Y-94874076D01*
X123529838Y-94683600D01*
X123529838Y-94302647D01*
X123625076Y-94112171D01*
X124863171Y-95635980D02*
X124863171Y-96397885D01*
X125529838Y-95921695D02*
X123815552Y-95921695D01*
X123625076Y-96016933D01*
X123529838Y-96207409D01*
X123529838Y-96397885D01*
X123529838Y-97350266D02*
X123625076Y-97159790D01*
X123720314Y-97064552D01*
X123910790Y-96969314D01*
X124482219Y-96969314D01*
X124672695Y-97064552D01*
X124767933Y-97159790D01*
X124863171Y-97350266D01*
X124863171Y-97635980D01*
X124767933Y-97826457D01*
X124672695Y-97921695D01*
X124482219Y-98016933D01*
X123910790Y-98016933D01*
X123720314Y-97921695D01*
X123625076Y-97826457D01*
X123529838Y-97635980D01*
X123529838Y-97350266D01*
X123529838Y-98874076D02*
X124863171Y-98874076D01*
X124482219Y-98874076D02*
X124672695Y-98969314D01*
X124767933Y-99064552D01*
X124863171Y-99255028D01*
X124863171Y-99445504D01*
X129270238Y-61470952D02*
X131270238Y-61470952D01*
X131270238Y-61947142D01*
X131175000Y-62232857D01*
X130984523Y-62423333D01*
X130794047Y-62518571D01*
X130413095Y-62613809D01*
X130127380Y-62613809D01*
X129746428Y-62518571D01*
X129555952Y-62423333D01*
X129365476Y-62232857D01*
X129270238Y-61947142D01*
X129270238Y-61470952D01*
X129270238Y-63470952D02*
X131270238Y-63470952D01*
X129270238Y-64423333D02*
X131270238Y-64423333D01*
X131270238Y-65185238D01*
X131175000Y-65375714D01*
X131079761Y-65470952D01*
X130889285Y-65566190D01*
X130603571Y-65566190D01*
X130413095Y-65470952D01*
X130317857Y-65375714D01*
X130222619Y-65185238D01*
X130222619Y-64423333D01*
X130032142Y-66423333D02*
X130032142Y-67947142D01*
X131270238Y-69756666D02*
X131270238Y-69375714D01*
X131175000Y-69185238D01*
X131079761Y-69090000D01*
X130794047Y-68899523D01*
X130413095Y-68804285D01*
X129651190Y-68804285D01*
X129460714Y-68899523D01*
X129365476Y-68994761D01*
X129270238Y-69185238D01*
X129270238Y-69566190D01*
X129365476Y-69756666D01*
X129460714Y-69851904D01*
X129651190Y-69947142D01*
X130127380Y-69947142D01*
X130317857Y-69851904D01*
X130413095Y-69756666D01*
X130508333Y-69566190D01*
X130508333Y-69185238D01*
X130413095Y-68994761D01*
X130317857Y-68899523D01*
X130127380Y-68804285D01*
X130603571Y-71661428D02*
X129270238Y-71661428D01*
X131365476Y-71185238D02*
X129936904Y-70709047D01*
X129936904Y-71947142D01*
X129270238Y-75280476D02*
X129270238Y-74137619D01*
X129270238Y-74709047D02*
X131270238Y-74709047D01*
X130984523Y-74518571D01*
X130794047Y-74328095D01*
X130698809Y-74137619D01*
X129460714Y-76137619D02*
X129365476Y-76232857D01*
X129270238Y-76137619D01*
X129365476Y-76042380D01*
X129460714Y-76137619D01*
X129270238Y-76137619D01*
X131270238Y-76899523D02*
X131270238Y-78232857D01*
X129270238Y-77375714D01*
X131270238Y-78804285D02*
X131270238Y-80137619D01*
X129270238Y-79280476D01*
X130413095Y-81185238D02*
X130508333Y-80994761D01*
X130603571Y-80899523D01*
X130794047Y-80804285D01*
X130889285Y-80804285D01*
X131079761Y-80899523D01*
X131175000Y-80994761D01*
X131270238Y-81185238D01*
X131270238Y-81566190D01*
X131175000Y-81756666D01*
X131079761Y-81851904D01*
X130889285Y-81947142D01*
X130794047Y-81947142D01*
X130603571Y-81851904D01*
X130508333Y-81756666D01*
X130413095Y-81566190D01*
X130413095Y-81185238D01*
X130317857Y-80994761D01*
X130222619Y-80899523D01*
X130032142Y-80804285D01*
X129651190Y-80804285D01*
X129460714Y-80899523D01*
X129365476Y-80994761D01*
X129270238Y-81185238D01*
X129270238Y-81566190D01*
X129365476Y-81756666D01*
X129460714Y-81851904D01*
X129651190Y-81947142D01*
X130032142Y-81947142D01*
X130222619Y-81851904D01*
X130317857Y-81756666D01*
X130413095Y-81566190D01*
X129270238Y-82804285D02*
X130603571Y-82804285D01*
X130413095Y-82804285D02*
X130508333Y-82899523D01*
X130603571Y-83090000D01*
X130603571Y-83375714D01*
X130508333Y-83566190D01*
X130317857Y-83661428D01*
X129270238Y-83661428D01*
X130317857Y-83661428D02*
X130508333Y-83756666D01*
X130603571Y-83947142D01*
X130603571Y-84232857D01*
X130508333Y-84423333D01*
X130317857Y-84518571D01*
X129270238Y-84518571D01*
X129270238Y-85470952D02*
X130603571Y-85470952D01*
X130413095Y-85470952D02*
X130508333Y-85566190D01*
X130603571Y-85756666D01*
X130603571Y-86042380D01*
X130508333Y-86232857D01*
X130317857Y-86328095D01*
X129270238Y-86328095D01*
X130317857Y-86328095D02*
X130508333Y-86423333D01*
X130603571Y-86613809D01*
X130603571Y-86899523D01*
X130508333Y-87090000D01*
X130317857Y-87185238D01*
X129270238Y-87185238D01*
X128508333Y-90232857D02*
X128603571Y-90137619D01*
X128889285Y-89947142D01*
X129079761Y-89851904D01*
X129365476Y-89756666D01*
X129841666Y-89661428D01*
X130222619Y-89661428D01*
X130698809Y-89756666D01*
X130984523Y-89851904D01*
X131175000Y-89947142D01*
X131460714Y-90137619D01*
X131555952Y-90232857D01*
X131270238Y-91375714D02*
X131270238Y-91566190D01*
X131175000Y-91756666D01*
X131079761Y-91851904D01*
X130889285Y-91947142D01*
X130508333Y-92042380D01*
X130032142Y-92042380D01*
X129651190Y-91947142D01*
X129460714Y-91851904D01*
X129365476Y-91756666D01*
X129270238Y-91566190D01*
X129270238Y-91375714D01*
X129365476Y-91185238D01*
X129460714Y-91090000D01*
X129651190Y-90994761D01*
X130032142Y-90899523D01*
X130508333Y-90899523D01*
X130889285Y-90994761D01*
X131079761Y-91090000D01*
X131175000Y-91185238D01*
X131270238Y-91375714D01*
X129460714Y-92899523D02*
X129365476Y-92994761D01*
X129270238Y-92899523D01*
X129365476Y-92804285D01*
X129460714Y-92899523D01*
X129270238Y-92899523D01*
X131270238Y-94232857D02*
X131270238Y-94423333D01*
X131175000Y-94613809D01*
X131079761Y-94709047D01*
X130889285Y-94804285D01*
X130508333Y-94899523D01*
X130032142Y-94899523D01*
X129651190Y-94804285D01*
X129460714Y-94709047D01*
X129365476Y-94613809D01*
X129270238Y-94423333D01*
X129270238Y-94232857D01*
X129365476Y-94042380D01*
X129460714Y-93947142D01*
X129651190Y-93851904D01*
X130032142Y-93756666D01*
X130508333Y-93756666D01*
X130889285Y-93851904D01*
X131079761Y-93947142D01*
X131175000Y-94042380D01*
X131270238Y-94232857D01*
X131270238Y-95566190D02*
X131270238Y-96899523D01*
X129270238Y-96042380D01*
X131270238Y-97566190D02*
X130889285Y-97566190D01*
X131270238Y-98328095D02*
X130889285Y-98328095D01*
X128508333Y-98994761D02*
X128603571Y-99090000D01*
X128889285Y-99280476D01*
X129079761Y-99375714D01*
X129365476Y-99470952D01*
X129841666Y-99566190D01*
X130222619Y-99566190D01*
X130698809Y-99470952D01*
X130984523Y-99375714D01*
X131175000Y-99280476D01*
X131460714Y-99090000D01*
X131555952Y-98994761D01*
X129270238Y-102042380D02*
X131270238Y-102042380D01*
X131270238Y-102804285D01*
X131175000Y-102994761D01*
X131079761Y-103090000D01*
X130889285Y-103185238D01*
X130603571Y-103185238D01*
X130413095Y-103090000D01*
X130317857Y-102994761D01*
X130222619Y-102804285D01*
X130222619Y-102042380D01*
X129270238Y-104042380D02*
X130603571Y-104042380D01*
X131270238Y-104042380D02*
X131175000Y-103947142D01*
X131079761Y-104042380D01*
X131175000Y-104137619D01*
X131270238Y-104042380D01*
X131079761Y-104042380D01*
X130603571Y-104709047D02*
X130603571Y-105470952D01*
X131270238Y-104994761D02*
X129555952Y-104994761D01*
X129365476Y-105090000D01*
X129270238Y-105280476D01*
X129270238Y-105470952D01*
X129365476Y-106994761D02*
X129270238Y-106804285D01*
X129270238Y-106423333D01*
X129365476Y-106232857D01*
X129460714Y-106137619D01*
X129651190Y-106042380D01*
X130222619Y-106042380D01*
X130413095Y-106137619D01*
X130508333Y-106232857D01*
X130603571Y-106423333D01*
X130603571Y-106804285D01*
X130508333Y-106994761D01*
X129270238Y-107851904D02*
X131270238Y-107851904D01*
X129270238Y-108709047D02*
X130317857Y-108709047D01*
X130508333Y-108613809D01*
X130603571Y-108423333D01*
X130603571Y-108137619D01*
X130508333Y-107947142D01*
X130413095Y-107851904D01*
D12*
X141390619Y-121110476D02*
X141390619Y-121729523D01*
X141009666Y-121396190D01*
X141009666Y-121539047D01*
X140962047Y-121634285D01*
X140914428Y-121681904D01*
X140819190Y-121729523D01*
X140581095Y-121729523D01*
X140485857Y-121681904D01*
X140438238Y-121634285D01*
X140390619Y-121539047D01*
X140390619Y-121253333D01*
X140438238Y-121158095D01*
X140485857Y-121110476D01*
X141057285Y-122586666D02*
X140390619Y-122586666D01*
X141438238Y-122348571D02*
X140723952Y-122110476D01*
X140723952Y-122729523D01*
X113847619Y-65849523D02*
X113847619Y-66040000D01*
X113895238Y-66135238D01*
X113942857Y-66182857D01*
X114085714Y-66278095D01*
X114276190Y-66325714D01*
X114657142Y-66325714D01*
X114752380Y-66278095D01*
X114800000Y-66230476D01*
X114847619Y-66135238D01*
X114847619Y-65944761D01*
X114800000Y-65849523D01*
X114752380Y-65801904D01*
X114657142Y-65754285D01*
X114419047Y-65754285D01*
X114323809Y-65801904D01*
X114276190Y-65849523D01*
X114228571Y-65944761D01*
X114228571Y-66135238D01*
X114276190Y-66230476D01*
X114323809Y-66278095D01*
X114419047Y-66325714D01*
X113847619Y-68389523D02*
X113847619Y-67818095D01*
X113847619Y-68103809D02*
X114847619Y-68103809D01*
X114704761Y-68008571D01*
X114609523Y-67913333D01*
X114561904Y-67818095D01*
X114847619Y-69008571D02*
X114847619Y-69103809D01*
X114800000Y-69199047D01*
X114752380Y-69246666D01*
X114657142Y-69294285D01*
X114466666Y-69341904D01*
X114228571Y-69341904D01*
X114038095Y-69294285D01*
X113942857Y-69246666D01*
X113895238Y-69199047D01*
X113847619Y-69103809D01*
X113847619Y-69008571D01*
X113895238Y-68913333D01*
X113942857Y-68865714D01*
X114038095Y-68818095D01*
X114228571Y-68770476D01*
X114466666Y-68770476D01*
X114657142Y-68818095D01*
X114752380Y-68865714D01*
X114800000Y-68913333D01*
X114847619Y-69008571D01*
X141057285Y-106394285D02*
X140390619Y-106394285D01*
X141438238Y-106156190D02*
X140723952Y-105918095D01*
X140723952Y-106537142D01*
X141390619Y-107108571D02*
X141390619Y-107203809D01*
X141343000Y-107299047D01*
X141295380Y-107346666D01*
X141200142Y-107394285D01*
X141009666Y-107441904D01*
X140771571Y-107441904D01*
X140581095Y-107394285D01*
X140485857Y-107346666D01*
X140438238Y-107299047D01*
X140390619Y-107203809D01*
X140390619Y-107108571D01*
X140438238Y-107013333D01*
X140485857Y-106965714D01*
X140581095Y-106918095D01*
X140771571Y-106870476D01*
X141009666Y-106870476D01*
X141200142Y-106918095D01*
X141295380Y-106965714D01*
X141343000Y-107013333D01*
X141390619Y-107108571D01*
D14*
X119404857Y-47039595D02*
X119404857Y-45739595D01*
X119714380Y-45739595D01*
X119900095Y-45801500D01*
X120023904Y-45925309D01*
X120085809Y-46049119D01*
X120147714Y-46296738D01*
X120147714Y-46482452D01*
X120085809Y-46730071D01*
X120023904Y-46853880D01*
X119900095Y-46977690D01*
X119714380Y-47039595D01*
X119404857Y-47039595D01*
X120704857Y-47039595D02*
X120704857Y-45739595D01*
X121323904Y-47039595D02*
X121323904Y-45739595D01*
X121819142Y-45739595D01*
X121942952Y-45801500D01*
X122004857Y-45863404D01*
X122066761Y-45987214D01*
X122066761Y-46172928D01*
X122004857Y-46296738D01*
X121942952Y-46358642D01*
X121819142Y-46420547D01*
X121323904Y-46420547D01*
X122623904Y-46544357D02*
X123614380Y-46544357D01*
X124790571Y-45739595D02*
X124542952Y-45739595D01*
X124419142Y-45801500D01*
X124357238Y-45863404D01*
X124233428Y-46049119D01*
X124171523Y-46296738D01*
X124171523Y-46791976D01*
X124233428Y-46915785D01*
X124295333Y-46977690D01*
X124419142Y-47039595D01*
X124666761Y-47039595D01*
X124790571Y-46977690D01*
X124852476Y-46915785D01*
X124914380Y-46791976D01*
X124914380Y-46482452D01*
X124852476Y-46358642D01*
X124790571Y-46296738D01*
X124666761Y-46234833D01*
X124419142Y-46234833D01*
X124295333Y-46296738D01*
X124233428Y-46358642D01*
X124171523Y-46482452D01*
X126028666Y-46172928D02*
X126028666Y-47039595D01*
X125719142Y-45677690D02*
X125409619Y-46606261D01*
X126214380Y-46606261D01*
X128381047Y-47039595D02*
X127638190Y-47039595D01*
X128009619Y-47039595D02*
X128009619Y-45739595D01*
X127885809Y-45925309D01*
X127762000Y-46049119D01*
X127638190Y-46111023D01*
X128938190Y-46915785D02*
X129000095Y-46977690D01*
X128938190Y-47039595D01*
X128876285Y-46977690D01*
X128938190Y-46915785D01*
X128938190Y-47039595D01*
X129433428Y-45739595D02*
X130300095Y-45739595D01*
X129742952Y-47039595D01*
X130671523Y-45739595D02*
X131538190Y-45739595D01*
X130981047Y-47039595D01*
X132219142Y-46296738D02*
X132095333Y-46234833D01*
X132033428Y-46172928D01*
X131971523Y-46049119D01*
X131971523Y-45987214D01*
X132033428Y-45863404D01*
X132095333Y-45801500D01*
X132219142Y-45739595D01*
X132466761Y-45739595D01*
X132590571Y-45801500D01*
X132652476Y-45863404D01*
X132714380Y-45987214D01*
X132714380Y-46049119D01*
X132652476Y-46172928D01*
X132590571Y-46234833D01*
X132466761Y-46296738D01*
X132219142Y-46296738D01*
X132095333Y-46358642D01*
X132033428Y-46420547D01*
X131971523Y-46544357D01*
X131971523Y-46791976D01*
X132033428Y-46915785D01*
X132095333Y-46977690D01*
X132219142Y-47039595D01*
X132466761Y-47039595D01*
X132590571Y-46977690D01*
X132652476Y-46915785D01*
X132714380Y-46791976D01*
X132714380Y-46544357D01*
X132652476Y-46420547D01*
X132590571Y-46358642D01*
X132466761Y-46296738D01*
X133271523Y-47039595D02*
X133271523Y-46172928D01*
X133271523Y-46296738D02*
X133333428Y-46234833D01*
X133457238Y-46172928D01*
X133642952Y-46172928D01*
X133766761Y-46234833D01*
X133828666Y-46358642D01*
X133828666Y-47039595D01*
X133828666Y-46358642D02*
X133890571Y-46234833D01*
X134014380Y-46172928D01*
X134200095Y-46172928D01*
X134323904Y-46234833D01*
X134385809Y-46358642D01*
X134385809Y-47039595D01*
X135004857Y-47039595D02*
X135004857Y-46172928D01*
X135004857Y-46296738D02*
X135066761Y-46234833D01*
X135190571Y-46172928D01*
X135376285Y-46172928D01*
X135500095Y-46234833D01*
X135562000Y-46358642D01*
X135562000Y-47039595D01*
X135562000Y-46358642D02*
X135623904Y-46234833D01*
X135747714Y-46172928D01*
X135933428Y-46172928D01*
X136057238Y-46234833D01*
X136119142Y-46358642D01*
X136119142Y-47039595D01*
X118785809Y-48451642D02*
X118971523Y-48513547D01*
X119033428Y-48575452D01*
X119095333Y-48699261D01*
X119095333Y-48884976D01*
X119033428Y-49008785D01*
X118971523Y-49070690D01*
X118847714Y-49132595D01*
X118352476Y-49132595D01*
X118352476Y-47832595D01*
X118785809Y-47832595D01*
X118909619Y-47894500D01*
X118971523Y-47956404D01*
X119033428Y-48080214D01*
X119033428Y-48204023D01*
X118971523Y-48327833D01*
X118909619Y-48389738D01*
X118785809Y-48451642D01*
X118352476Y-48451642D01*
X119652476Y-49132595D02*
X119652476Y-48265928D01*
X119652476Y-48513547D02*
X119714380Y-48389738D01*
X119776285Y-48327833D01*
X119900095Y-48265928D01*
X120023904Y-48265928D01*
X120952476Y-49070690D02*
X120828666Y-49132595D01*
X120581047Y-49132595D01*
X120457238Y-49070690D01*
X120395333Y-48946880D01*
X120395333Y-48451642D01*
X120457238Y-48327833D01*
X120581047Y-48265928D01*
X120828666Y-48265928D01*
X120952476Y-48327833D01*
X121014380Y-48451642D01*
X121014380Y-48575452D01*
X120395333Y-48699261D01*
X122128666Y-49132595D02*
X122128666Y-48451642D01*
X122066761Y-48327833D01*
X121942952Y-48265928D01*
X121695333Y-48265928D01*
X121571523Y-48327833D01*
X122128666Y-49070690D02*
X122004857Y-49132595D01*
X121695333Y-49132595D01*
X121571523Y-49070690D01*
X121509619Y-48946880D01*
X121509619Y-48823071D01*
X121571523Y-48699261D01*
X121695333Y-48637357D01*
X122004857Y-48637357D01*
X122128666Y-48575452D01*
X123304857Y-49132595D02*
X123304857Y-47832595D01*
X123304857Y-49070690D02*
X123181047Y-49132595D01*
X122933428Y-49132595D01*
X122809619Y-49070690D01*
X122747714Y-49008785D01*
X122685809Y-48884976D01*
X122685809Y-48513547D01*
X122747714Y-48389738D01*
X122809619Y-48327833D01*
X122933428Y-48265928D01*
X123181047Y-48265928D01*
X123304857Y-48327833D01*
X123923904Y-49132595D02*
X123923904Y-47832595D01*
X123923904Y-48327833D02*
X124047714Y-48265928D01*
X124295333Y-48265928D01*
X124419142Y-48327833D01*
X124481047Y-48389738D01*
X124542952Y-48513547D01*
X124542952Y-48884976D01*
X124481047Y-49008785D01*
X124419142Y-49070690D01*
X124295333Y-49132595D01*
X124047714Y-49132595D01*
X123923904Y-49070690D01*
X125285809Y-49132595D02*
X125162000Y-49070690D01*
X125100095Y-49008785D01*
X125038190Y-48884976D01*
X125038190Y-48513547D01*
X125100095Y-48389738D01*
X125162000Y-48327833D01*
X125285809Y-48265928D01*
X125471523Y-48265928D01*
X125595333Y-48327833D01*
X125657238Y-48389738D01*
X125719142Y-48513547D01*
X125719142Y-48884976D01*
X125657238Y-49008785D01*
X125595333Y-49070690D01*
X125471523Y-49132595D01*
X125285809Y-49132595D01*
X126833428Y-49132595D02*
X126833428Y-48451642D01*
X126771523Y-48327833D01*
X126647714Y-48265928D01*
X126400095Y-48265928D01*
X126276285Y-48327833D01*
X126833428Y-49070690D02*
X126709619Y-49132595D01*
X126400095Y-49132595D01*
X126276285Y-49070690D01*
X126214380Y-48946880D01*
X126214380Y-48823071D01*
X126276285Y-48699261D01*
X126400095Y-48637357D01*
X126709619Y-48637357D01*
X126833428Y-48575452D01*
X127452476Y-49132595D02*
X127452476Y-48265928D01*
X127452476Y-48513547D02*
X127514380Y-48389738D01*
X127576285Y-48327833D01*
X127700095Y-48265928D01*
X127823904Y-48265928D01*
X128814380Y-49132595D02*
X128814380Y-47832595D01*
X128814380Y-49070690D02*
X128690571Y-49132595D01*
X128442952Y-49132595D01*
X128319142Y-49070690D01*
X128257238Y-49008785D01*
X128195333Y-48884976D01*
X128195333Y-48513547D01*
X128257238Y-48389738D01*
X128319142Y-48327833D01*
X128442952Y-48265928D01*
X128690571Y-48265928D01*
X128814380Y-48327833D01*
X130362000Y-48761166D02*
X130981047Y-48761166D01*
X130238190Y-49132595D02*
X130671523Y-47832595D01*
X131104857Y-49132595D01*
X132095333Y-49132595D02*
X132095333Y-47832595D01*
X132095333Y-49070690D02*
X131971523Y-49132595D01*
X131723904Y-49132595D01*
X131600095Y-49070690D01*
X131538190Y-49008785D01*
X131476285Y-48884976D01*
X131476285Y-48513547D01*
X131538190Y-48389738D01*
X131600095Y-48327833D01*
X131723904Y-48265928D01*
X131971523Y-48265928D01*
X132095333Y-48327833D01*
X133271523Y-49132595D02*
X133271523Y-48451642D01*
X133209619Y-48327833D01*
X133085809Y-48265928D01*
X132838190Y-48265928D01*
X132714380Y-48327833D01*
X133271523Y-49070690D02*
X133147714Y-49132595D01*
X132838190Y-49132595D01*
X132714380Y-49070690D01*
X132652476Y-48946880D01*
X132652476Y-48823071D01*
X132714380Y-48699261D01*
X132838190Y-48637357D01*
X133147714Y-48637357D01*
X133271523Y-48575452D01*
X133890571Y-48265928D02*
X133890571Y-49565928D01*
X133890571Y-48327833D02*
X134014380Y-48265928D01*
X134262000Y-48265928D01*
X134385809Y-48327833D01*
X134447714Y-48389738D01*
X134509619Y-48513547D01*
X134509619Y-48884976D01*
X134447714Y-49008785D01*
X134385809Y-49070690D01*
X134262000Y-49132595D01*
X134014380Y-49132595D01*
X133890571Y-49070690D01*
X134881047Y-48265928D02*
X135376285Y-48265928D01*
X135066761Y-47832595D02*
X135066761Y-48946880D01*
X135128666Y-49070690D01*
X135252476Y-49132595D01*
X135376285Y-49132595D01*
X135995333Y-49132595D02*
X135871523Y-49070690D01*
X135809619Y-49008785D01*
X135747714Y-48884976D01*
X135747714Y-48513547D01*
X135809619Y-48389738D01*
X135871523Y-48327833D01*
X135995333Y-48265928D01*
X136181047Y-48265928D01*
X136304857Y-48327833D01*
X136366761Y-48389738D01*
X136428666Y-48513547D01*
X136428666Y-48884976D01*
X136366761Y-49008785D01*
X136304857Y-49070690D01*
X136181047Y-49132595D01*
X135995333Y-49132595D01*
X136985809Y-49132595D02*
X136985809Y-48265928D01*
X136985809Y-48513547D02*
X137047714Y-48389738D01*
X137109619Y-48327833D01*
X137233428Y-48265928D01*
X137357238Y-48265928D01*
D12*
X121825476Y-116022380D02*
X121254047Y-116022380D01*
X121539761Y-116022380D02*
X121539761Y-115022380D01*
X121444523Y-115165238D01*
X121349285Y-115260476D01*
X121254047Y-115308095D01*
X122301666Y-116022380D02*
X122492142Y-116022380D01*
X122587380Y-115974761D01*
X122635000Y-115927142D01*
X122730238Y-115784285D01*
X122777857Y-115593809D01*
X122777857Y-115212857D01*
X122730238Y-115117619D01*
X122682619Y-115070000D01*
X122587380Y-115022380D01*
X122396904Y-115022380D01*
X122301666Y-115070000D01*
X122254047Y-115117619D01*
X122206428Y-115212857D01*
X122206428Y-115450952D01*
X122254047Y-115546190D01*
X122301666Y-115593809D01*
X122396904Y-115641428D01*
X122587380Y-115641428D01*
X122682619Y-115593809D01*
X122730238Y-115546190D01*
X122777857Y-115450952D01*
X123206428Y-115927142D02*
X123254047Y-115974761D01*
X123206428Y-116022380D01*
X123158809Y-115974761D01*
X123206428Y-115927142D01*
X123206428Y-116022380D01*
X123873095Y-115022380D02*
X123968333Y-115022380D01*
X124063571Y-115070000D01*
X124111190Y-115117619D01*
X124158809Y-115212857D01*
X124206428Y-115403333D01*
X124206428Y-115641428D01*
X124158809Y-115831904D01*
X124111190Y-115927142D01*
X124063571Y-115974761D01*
X123968333Y-116022380D01*
X123873095Y-116022380D01*
X123777857Y-115974761D01*
X123730238Y-115927142D01*
X123682619Y-115831904D01*
X123635000Y-115641428D01*
X123635000Y-115403333D01*
X123682619Y-115212857D01*
X123730238Y-115117619D01*
X123777857Y-115070000D01*
X123873095Y-115022380D01*
X125111190Y-115022380D02*
X124635000Y-115022380D01*
X124587380Y-115498571D01*
X124635000Y-115450952D01*
X124730238Y-115403333D01*
X124968333Y-115403333D01*
X125063571Y-115450952D01*
X125111190Y-115498571D01*
X125158809Y-115593809D01*
X125158809Y-115831904D01*
X125111190Y-115927142D01*
X125063571Y-115974761D01*
X124968333Y-116022380D01*
X124730238Y-116022380D01*
X124635000Y-115974761D01*
X124587380Y-115927142D01*
X125587380Y-116022380D02*
X125587380Y-115355714D01*
X125587380Y-115450952D02*
X125635000Y-115403333D01*
X125730238Y-115355714D01*
X125873095Y-115355714D01*
X125968333Y-115403333D01*
X126015952Y-115498571D01*
X126015952Y-116022380D01*
X126015952Y-115498571D02*
X126063571Y-115403333D01*
X126158809Y-115355714D01*
X126301666Y-115355714D01*
X126396904Y-115403333D01*
X126444523Y-115498571D01*
X126444523Y-116022380D01*
X126920714Y-116022380D02*
X126920714Y-115355714D01*
X126920714Y-115450952D02*
X126968333Y-115403333D01*
X127063571Y-115355714D01*
X127206428Y-115355714D01*
X127301666Y-115403333D01*
X127349285Y-115498571D01*
X127349285Y-116022380D01*
X127349285Y-115498571D02*
X127396904Y-115403333D01*
X127492142Y-115355714D01*
X127635000Y-115355714D01*
X127730238Y-115403333D01*
X127777857Y-115498571D01*
X127777857Y-116022380D01*
X129301666Y-116403333D02*
X129254047Y-116355714D01*
X129158809Y-116212857D01*
X129111190Y-116117619D01*
X129063571Y-115974761D01*
X129015952Y-115736666D01*
X129015952Y-115546190D01*
X129063571Y-115308095D01*
X129111190Y-115165238D01*
X129158809Y-115070000D01*
X129254047Y-114927142D01*
X129301666Y-114879523D01*
X129873095Y-115022380D02*
X129968333Y-115022380D01*
X130063571Y-115070000D01*
X130111190Y-115117619D01*
X130158809Y-115212857D01*
X130206428Y-115403333D01*
X130206428Y-115641428D01*
X130158809Y-115831904D01*
X130111190Y-115927142D01*
X130063571Y-115974761D01*
X129968333Y-116022380D01*
X129873095Y-116022380D01*
X129777857Y-115974761D01*
X129730238Y-115927142D01*
X129682619Y-115831904D01*
X129635000Y-115641428D01*
X129635000Y-115403333D01*
X129682619Y-115212857D01*
X129730238Y-115117619D01*
X129777857Y-115070000D01*
X129873095Y-115022380D01*
X130635000Y-115927142D02*
X130682619Y-115974761D01*
X130635000Y-116022380D01*
X130587380Y-115974761D01*
X130635000Y-115927142D01*
X130635000Y-116022380D01*
X131015952Y-115022380D02*
X131682619Y-115022380D01*
X131254047Y-116022380D01*
X132539761Y-115022380D02*
X132063571Y-115022380D01*
X132015952Y-115498571D01*
X132063571Y-115450952D01*
X132158809Y-115403333D01*
X132396904Y-115403333D01*
X132492142Y-115450952D01*
X132539761Y-115498571D01*
X132587380Y-115593809D01*
X132587380Y-115831904D01*
X132539761Y-115927142D01*
X132492142Y-115974761D01*
X132396904Y-116022380D01*
X132158809Y-116022380D01*
X132063571Y-115974761D01*
X132015952Y-115927142D01*
X132968333Y-115022380D02*
X132968333Y-115212857D01*
X133349285Y-115022380D02*
X133349285Y-115212857D01*
X133682619Y-116403333D02*
X133730238Y-116355714D01*
X133825476Y-116212857D01*
X133873095Y-116117619D01*
X133920714Y-115974761D01*
X133968333Y-115736666D01*
X133968333Y-115546190D01*
X133920714Y-115308095D01*
X133873095Y-115165238D01*
X133825476Y-115070000D01*
X133730238Y-114927142D01*
X133682619Y-114879523D01*
D10*
X135763000Y-113665000D02*
X135763000Y-55753000D01*
X119507000Y-55753000D02*
X119507000Y-113665000D01*
X138557000Y-113665000D02*
X116713000Y-113665000D01*
X116713000Y-113665000D02*
X116713000Y-55753000D01*
X116713000Y-55753000D02*
X138557000Y-55753000D01*
X138557000Y-55753000D02*
X138557000Y-113665000D01*
X125733710Y-55753000D02*
G75*
G03*
X129540000Y-55753000I1903145J0D01*
G01*
X142180000Y-46990000D02*
X142180000Y-125790000D01*
X142180000Y-45720000D02*
X142180000Y-44390000D01*
X144840000Y-46990000D02*
X144840000Y-125790000D01*
X142180000Y-46990000D02*
X144840000Y-46990000D01*
X142180000Y-44390000D02*
X143510000Y-44390000D01*
X142180000Y-125790000D02*
X144840000Y-125790000D01*
X110430000Y-46990000D02*
X110430000Y-125790000D01*
X110430000Y-46990000D02*
X113090000Y-46990000D01*
X110430000Y-45720000D02*
X110430000Y-44390000D01*
X113090000Y-46990000D02*
X113090000Y-125790000D01*
X110430000Y-44390000D02*
X111760000Y-44390000D01*
X110430000Y-125790000D02*
X113090000Y-125790000D01*
G36*
X127674744Y-121965968D02*
G01*
X127731616Y-121987087D01*
X127732267Y-121987493D01*
X127767440Y-122013380D01*
X127793407Y-122043633D01*
X127811670Y-122083058D01*
X127823732Y-122136462D01*
X127831096Y-122208651D01*
X127835264Y-122304432D01*
X127835629Y-122318078D01*
X127840876Y-122523842D01*
X127796716Y-122546678D01*
X127764763Y-122562110D01*
X127745470Y-122569423D01*
X127744578Y-122569514D01*
X127741239Y-122556022D01*
X127738587Y-122519626D01*
X127736956Y-122466452D01*
X127736600Y-122423393D01*
X127736592Y-122353641D01*
X127733403Y-122309837D01*
X127722288Y-122288944D01*
X127698501Y-122287925D01*
X127657296Y-122303741D01*
X127595086Y-122332815D01*
X127549341Y-122356963D01*
X127525813Y-122377913D01*
X127518896Y-122400747D01*
X127518886Y-122401877D01*
X127530299Y-122441212D01*
X127564092Y-122462462D01*
X127615809Y-122465539D01*
X127653061Y-122465006D01*
X127672703Y-122475735D01*
X127684952Y-122501505D01*
X127692002Y-122534337D01*
X127681842Y-122552966D01*
X127678017Y-122555632D01*
X127642001Y-122566340D01*
X127591566Y-122567856D01*
X127539626Y-122560759D01*
X127502822Y-122547788D01*
X127451938Y-122504585D01*
X127423014Y-122444446D01*
X127417286Y-122397462D01*
X127421657Y-122355082D01*
X127437475Y-122320488D01*
X127468797Y-122289763D01*
X127519678Y-122258990D01*
X127594176Y-122224252D01*
X127598714Y-122222288D01*
X127665821Y-122191287D01*
X127707232Y-122165862D01*
X127724981Y-122143014D01*
X127721107Y-122119745D01*
X127697643Y-122093056D01*
X127690627Y-122086914D01*
X127643630Y-122063100D01*
X127594933Y-122064103D01*
X127552522Y-122087451D01*
X127524384Y-122130675D01*
X127521769Y-122139160D01*
X127496308Y-122180308D01*
X127464001Y-122200128D01*
X127417286Y-122219770D01*
X127417286Y-122168950D01*
X127431496Y-122095082D01*
X127473675Y-122027327D01*
X127495624Y-122004661D01*
X127545517Y-121975569D01*
X127608967Y-121962400D01*
X127674744Y-121965968D01*
G37*
D15*
X127674744Y-121965968D02*
X127731616Y-121987087D01*
X127732267Y-121987493D01*
X127767440Y-122013380D01*
X127793407Y-122043633D01*
X127811670Y-122083058D01*
X127823732Y-122136462D01*
X127831096Y-122208651D01*
X127835264Y-122304432D01*
X127835629Y-122318078D01*
X127840876Y-122523842D01*
X127796716Y-122546678D01*
X127764763Y-122562110D01*
X127745470Y-122569423D01*
X127744578Y-122569514D01*
X127741239Y-122556022D01*
X127738587Y-122519626D01*
X127736956Y-122466452D01*
X127736600Y-122423393D01*
X127736592Y-122353641D01*
X127733403Y-122309837D01*
X127722288Y-122288944D01*
X127698501Y-122287925D01*
X127657296Y-122303741D01*
X127595086Y-122332815D01*
X127549341Y-122356963D01*
X127525813Y-122377913D01*
X127518896Y-122400747D01*
X127518886Y-122401877D01*
X127530299Y-122441212D01*
X127564092Y-122462462D01*
X127615809Y-122465539D01*
X127653061Y-122465006D01*
X127672703Y-122475735D01*
X127684952Y-122501505D01*
X127692002Y-122534337D01*
X127681842Y-122552966D01*
X127678017Y-122555632D01*
X127642001Y-122566340D01*
X127591566Y-122567856D01*
X127539626Y-122560759D01*
X127502822Y-122547788D01*
X127451938Y-122504585D01*
X127423014Y-122444446D01*
X127417286Y-122397462D01*
X127421657Y-122355082D01*
X127437475Y-122320488D01*
X127468797Y-122289763D01*
X127519678Y-122258990D01*
X127594176Y-122224252D01*
X127598714Y-122222288D01*
X127665821Y-122191287D01*
X127707232Y-122165862D01*
X127724981Y-122143014D01*
X127721107Y-122119745D01*
X127697643Y-122093056D01*
X127690627Y-122086914D01*
X127643630Y-122063100D01*
X127594933Y-122064103D01*
X127552522Y-122087451D01*
X127524384Y-122130675D01*
X127521769Y-122139160D01*
X127496308Y-122180308D01*
X127464001Y-122200128D01*
X127417286Y-122219770D01*
X127417286Y-122168950D01*
X127431496Y-122095082D01*
X127473675Y-122027327D01*
X127495624Y-122004661D01*
X127545517Y-121975569D01*
X127608967Y-121962400D01*
X127674744Y-121965968D01*
G36*
X129414833Y-121973663D02*
G01*
X129417048Y-122011850D01*
X129418784Y-122069886D01*
X129419899Y-122143180D01*
X129420257Y-122220055D01*
X129420257Y-122480196D01*
X129374326Y-122526127D01*
X129342675Y-122554429D01*
X129314890Y-122565893D01*
X129276915Y-122565168D01*
X129261840Y-122563321D01*
X129214726Y-122557948D01*
X129175756Y-122554869D01*
X129166257Y-122554585D01*
X129134233Y-122556445D01*
X129088432Y-122561114D01*
X129070674Y-122563321D01*
X129027057Y-122566735D01*
X128997745Y-122559320D01*
X128968680Y-122536427D01*
X128958188Y-122526127D01*
X128912257Y-122480196D01*
X128912257Y-121993602D01*
X128949226Y-121976758D01*
X128981059Y-121964282D01*
X128999683Y-121959914D01*
X129004458Y-121973718D01*
X129008921Y-122012286D01*
X129012775Y-122071356D01*
X129015722Y-122146663D01*
X129017143Y-122210286D01*
X129021114Y-122460657D01*
X129055759Y-122465556D01*
X129087268Y-122462131D01*
X129102708Y-122451041D01*
X129107023Y-122430308D01*
X129110708Y-122386145D01*
X129113469Y-122324146D01*
X129115012Y-122249909D01*
X129115235Y-122211706D01*
X129115457Y-121991783D01*
X129161166Y-121975849D01*
X129193518Y-121965015D01*
X129211115Y-121959962D01*
X129211623Y-121959914D01*
X129213388Y-121973648D01*
X129215329Y-122011730D01*
X129217282Y-122069482D01*
X129219084Y-122142227D01*
X129220343Y-122210286D01*
X129224314Y-122460657D01*
X129311400Y-122460657D01*
X129315396Y-122232240D01*
X129319392Y-122003822D01*
X129361847Y-121981868D01*
X129393192Y-121966793D01*
X129411744Y-121959951D01*
X129412279Y-121959914D01*
X129414833Y-121973663D01*
G37*
X129414833Y-121973663D02*
X129417048Y-122011850D01*
X129418784Y-122069886D01*
X129419899Y-122143180D01*
X129420257Y-122220055D01*
X129420257Y-122480196D01*
X129374326Y-122526127D01*
X129342675Y-122554429D01*
X129314890Y-122565893D01*
X129276915Y-122565168D01*
X129261840Y-122563321D01*
X129214726Y-122557948D01*
X129175756Y-122554869D01*
X129166257Y-122554585D01*
X129134233Y-122556445D01*
X129088432Y-122561114D01*
X129070674Y-122563321D01*
X129027057Y-122566735D01*
X128997745Y-122559320D01*
X128968680Y-122536427D01*
X128958188Y-122526127D01*
X128912257Y-122480196D01*
X128912257Y-121993602D01*
X128949226Y-121976758D01*
X128981059Y-121964282D01*
X128999683Y-121959914D01*
X129004458Y-121973718D01*
X129008921Y-122012286D01*
X129012775Y-122071356D01*
X129015722Y-122146663D01*
X129017143Y-122210286D01*
X129021114Y-122460657D01*
X129055759Y-122465556D01*
X129087268Y-122462131D01*
X129102708Y-122451041D01*
X129107023Y-122430308D01*
X129110708Y-122386145D01*
X129113469Y-122324146D01*
X129115012Y-122249909D01*
X129115235Y-122211706D01*
X129115457Y-121991783D01*
X129161166Y-121975849D01*
X129193518Y-121965015D01*
X129211115Y-121959962D01*
X129211623Y-121959914D01*
X129213388Y-121973648D01*
X129215329Y-122011730D01*
X129217282Y-122069482D01*
X129219084Y-122142227D01*
X129220343Y-122210286D01*
X129224314Y-122460657D01*
X129311400Y-122460657D01*
X129315396Y-122232240D01*
X129319392Y-122003822D01*
X129361847Y-121981868D01*
X129393192Y-121966793D01*
X129411744Y-121959951D01*
X129412279Y-121959914D01*
X129414833Y-121973663D01*
G36*
X127010886Y-121866289D02*
G01*
X127015139Y-121925613D01*
X127020025Y-121960572D01*
X127026795Y-121975820D01*
X127036702Y-121976015D01*
X127039914Y-121974195D01*
X127082644Y-121961015D01*
X127138227Y-121961785D01*
X127194737Y-121975333D01*
X127230082Y-121992861D01*
X127266321Y-122020861D01*
X127292813Y-122052549D01*
X127310999Y-122092813D01*
X127322322Y-122146543D01*
X127328222Y-122218626D01*
X127330143Y-122313951D01*
X127330177Y-122332237D01*
X127330200Y-122537646D01*
X127284491Y-122553580D01*
X127252027Y-122564420D01*
X127234215Y-122569468D01*
X127233691Y-122569514D01*
X127231937Y-122555828D01*
X127230444Y-122518076D01*
X127229326Y-122461224D01*
X127228697Y-122390234D01*
X127228600Y-122347073D01*
X127228398Y-122261973D01*
X127227358Y-122200981D01*
X127224831Y-122159177D01*
X127220164Y-122131642D01*
X127212707Y-122113456D01*
X127201811Y-122099698D01*
X127195007Y-122093073D01*
X127148272Y-122066375D01*
X127097272Y-122064375D01*
X127051001Y-122086955D01*
X127042444Y-122095107D01*
X127029893Y-122110436D01*
X127021188Y-122128618D01*
X127015631Y-122154909D01*
X127012526Y-122194562D01*
X127011176Y-122252832D01*
X127010886Y-122333173D01*
X127010886Y-122537646D01*
X126965177Y-122553580D01*
X126932713Y-122564420D01*
X126914901Y-122569468D01*
X126914377Y-122569514D01*
X126913037Y-122555623D01*
X126911828Y-122516439D01*
X126910801Y-122455700D01*
X126910002Y-122377141D01*
X126909481Y-122284498D01*
X126909286Y-122181509D01*
X126909286Y-121784342D01*
X126956457Y-121764444D01*
X127003629Y-121744547D01*
X127010886Y-121866289D01*
G37*
X127010886Y-121866289D02*
X127015139Y-121925613D01*
X127020025Y-121960572D01*
X127026795Y-121975820D01*
X127036702Y-121976015D01*
X127039914Y-121974195D01*
X127082644Y-121961015D01*
X127138227Y-121961785D01*
X127194737Y-121975333D01*
X127230082Y-121992861D01*
X127266321Y-122020861D01*
X127292813Y-122052549D01*
X127310999Y-122092813D01*
X127322322Y-122146543D01*
X127328222Y-122218626D01*
X127330143Y-122313951D01*
X127330177Y-122332237D01*
X127330200Y-122537646D01*
X127284491Y-122553580D01*
X127252027Y-122564420D01*
X127234215Y-122569468D01*
X127233691Y-122569514D01*
X127231937Y-122555828D01*
X127230444Y-122518076D01*
X127229326Y-122461224D01*
X127228697Y-122390234D01*
X127228600Y-122347073D01*
X127228398Y-122261973D01*
X127227358Y-122200981D01*
X127224831Y-122159177D01*
X127220164Y-122131642D01*
X127212707Y-122113456D01*
X127201811Y-122099698D01*
X127195007Y-122093073D01*
X127148272Y-122066375D01*
X127097272Y-122064375D01*
X127051001Y-122086955D01*
X127042444Y-122095107D01*
X127029893Y-122110436D01*
X127021188Y-122128618D01*
X127015631Y-122154909D01*
X127012526Y-122194562D01*
X127011176Y-122252832D01*
X127010886Y-122333173D01*
X127010886Y-122537646D01*
X126965177Y-122553580D01*
X126932713Y-122564420D01*
X126914901Y-122569468D01*
X126914377Y-122569514D01*
X126913037Y-122555623D01*
X126911828Y-122516439D01*
X126910801Y-122455700D01*
X126910002Y-122377141D01*
X126909481Y-122284498D01*
X126909286Y-122181509D01*
X126909286Y-121784342D01*
X126956457Y-121764444D01*
X127003629Y-121744547D01*
X127010886Y-121866289D01*
G36*
X129779876Y-121971335D02*
G01*
X129821667Y-121990344D01*
X129854469Y-122013378D01*
X129878503Y-122039133D01*
X129895097Y-122072358D01*
X129905577Y-122117800D01*
X129911271Y-122180207D01*
X129913507Y-122264327D01*
X129913743Y-122319721D01*
X129913743Y-122535826D01*
X129876774Y-122552670D01*
X129847656Y-122564981D01*
X129833231Y-122569514D01*
X129830472Y-122556025D01*
X129828282Y-122519653D01*
X129826942Y-122466542D01*
X129826657Y-122424372D01*
X129825434Y-122363447D01*
X129822136Y-122315115D01*
X129817321Y-122285518D01*
X129813496Y-122279229D01*
X129787783Y-122285652D01*
X129747418Y-122302125D01*
X129700679Y-122324458D01*
X129655845Y-122348457D01*
X129621193Y-122369930D01*
X129605002Y-122384685D01*
X129604938Y-122384845D01*
X129606330Y-122412152D01*
X129618818Y-122438219D01*
X129640743Y-122459392D01*
X129672743Y-122466474D01*
X129700092Y-122465649D01*
X129738826Y-122465042D01*
X129759158Y-122474116D01*
X129771369Y-122498092D01*
X129772909Y-122502613D01*
X129778203Y-122536806D01*
X129764047Y-122557568D01*
X129727148Y-122567462D01*
X129687289Y-122569292D01*
X129615562Y-122555727D01*
X129578432Y-122536355D01*
X129532576Y-122490845D01*
X129508256Y-122434983D01*
X129506073Y-122375957D01*
X129526629Y-122320953D01*
X129557549Y-122286486D01*
X129588420Y-122267189D01*
X129636942Y-122242759D01*
X129693485Y-122217985D01*
X129702910Y-122214199D01*
X129765019Y-122186791D01*
X129800822Y-122162634D01*
X129812337Y-122138619D01*
X129801580Y-122111635D01*
X129783114Y-122090543D01*
X129739469Y-122064572D01*
X129691446Y-122062624D01*
X129647406Y-122082637D01*
X129615709Y-122122551D01*
X129611549Y-122132848D01*
X129587327Y-122170724D01*
X129551965Y-122198842D01*
X129507343Y-122221917D01*
X129507343Y-122156485D01*
X129509969Y-122116506D01*
X129521230Y-122084997D01*
X129546199Y-122051378D01*
X129570169Y-122025484D01*
X129607441Y-121988817D01*
X129636401Y-121969121D01*
X129667505Y-121961220D01*
X129702713Y-121959914D01*
X129779876Y-121971335D01*
G37*
X129779876Y-121971335D02*
X129821667Y-121990344D01*
X129854469Y-122013378D01*
X129878503Y-122039133D01*
X129895097Y-122072358D01*
X129905577Y-122117800D01*
X129911271Y-122180207D01*
X129913507Y-122264327D01*
X129913743Y-122319721D01*
X129913743Y-122535826D01*
X129876774Y-122552670D01*
X129847656Y-122564981D01*
X129833231Y-122569514D01*
X129830472Y-122556025D01*
X129828282Y-122519653D01*
X129826942Y-122466542D01*
X129826657Y-122424372D01*
X129825434Y-122363447D01*
X129822136Y-122315115D01*
X129817321Y-122285518D01*
X129813496Y-122279229D01*
X129787783Y-122285652D01*
X129747418Y-122302125D01*
X129700679Y-122324458D01*
X129655845Y-122348457D01*
X129621193Y-122369930D01*
X129605002Y-122384685D01*
X129604938Y-122384845D01*
X129606330Y-122412152D01*
X129618818Y-122438219D01*
X129640743Y-122459392D01*
X129672743Y-122466474D01*
X129700092Y-122465649D01*
X129738826Y-122465042D01*
X129759158Y-122474116D01*
X129771369Y-122498092D01*
X129772909Y-122502613D01*
X129778203Y-122536806D01*
X129764047Y-122557568D01*
X129727148Y-122567462D01*
X129687289Y-122569292D01*
X129615562Y-122555727D01*
X129578432Y-122536355D01*
X129532576Y-122490845D01*
X129508256Y-122434983D01*
X129506073Y-122375957D01*
X129526629Y-122320953D01*
X129557549Y-122286486D01*
X129588420Y-122267189D01*
X129636942Y-122242759D01*
X129693485Y-122217985D01*
X129702910Y-122214199D01*
X129765019Y-122186791D01*
X129800822Y-122162634D01*
X129812337Y-122138619D01*
X129801580Y-122111635D01*
X129783114Y-122090543D01*
X129739469Y-122064572D01*
X129691446Y-122062624D01*
X129647406Y-122082637D01*
X129615709Y-122122551D01*
X129611549Y-122132848D01*
X129587327Y-122170724D01*
X129551965Y-122198842D01*
X129507343Y-122221917D01*
X129507343Y-122156485D01*
X129509969Y-122116506D01*
X129521230Y-122084997D01*
X129546199Y-122051378D01*
X129570169Y-122025484D01*
X129607441Y-121988817D01*
X129636401Y-121969121D01*
X129667505Y-121961220D01*
X129702713Y-121959914D01*
X129779876Y-121971335D01*
G36*
X130503196Y-122110384D02*
G01*
X130516884Y-122061695D01*
X130539096Y-122025849D01*
X130571574Y-121997513D01*
X130585733Y-121988355D01*
X130650053Y-121964507D01*
X130720473Y-121963006D01*
X130788595Y-121981966D01*
X130846021Y-122019497D01*
X130873719Y-122053096D01*
X130895662Y-122114064D01*
X130897405Y-122162308D01*
X130893457Y-122226816D01*
X130744686Y-122291934D01*
X130672349Y-122325202D01*
X130625084Y-122351964D01*
X130600507Y-122375144D01*
X130596237Y-122397667D01*
X130609889Y-122422455D01*
X130624943Y-122438886D01*
X130668746Y-122465235D01*
X130716389Y-122467081D01*
X130760145Y-122446546D01*
X130792289Y-122405752D01*
X130798038Y-122391347D01*
X130825576Y-122346356D01*
X130857258Y-122327182D01*
X130900714Y-122310779D01*
X130900714Y-122372966D01*
X130896872Y-122415283D01*
X130881823Y-122450969D01*
X130850280Y-122491943D01*
X130845592Y-122497267D01*
X130810506Y-122533720D01*
X130780347Y-122553283D01*
X130742615Y-122562283D01*
X130711335Y-122565230D01*
X130655385Y-122565965D01*
X130615555Y-122556660D01*
X130590708Y-122542846D01*
X130551656Y-122512467D01*
X130524625Y-122479613D01*
X130507517Y-122438294D01*
X130498238Y-122382521D01*
X130494693Y-122306305D01*
X130494410Y-122267622D01*
X130495372Y-122221247D01*
X130583007Y-122221247D01*
X130584023Y-122246126D01*
X130586556Y-122250200D01*
X130603274Y-122244665D01*
X130639249Y-122230017D01*
X130687331Y-122209190D01*
X130697386Y-122204714D01*
X130758152Y-122173814D01*
X130791632Y-122146657D01*
X130798990Y-122121220D01*
X130781391Y-122095481D01*
X130766856Y-122084109D01*
X130714410Y-122061364D01*
X130665322Y-122065122D01*
X130624227Y-122092884D01*
X130595758Y-122142152D01*
X130586631Y-122181257D01*
X130583007Y-122221247D01*
X130495372Y-122221247D01*
X130496285Y-122177249D01*
X130503196Y-122110384D01*
G37*
X130503196Y-122110384D02*
X130516884Y-122061695D01*
X130539096Y-122025849D01*
X130571574Y-121997513D01*
X130585733Y-121988355D01*
X130650053Y-121964507D01*
X130720473Y-121963006D01*
X130788595Y-121981966D01*
X130846021Y-122019497D01*
X130873719Y-122053096D01*
X130895662Y-122114064D01*
X130897405Y-122162308D01*
X130893457Y-122226816D01*
X130744686Y-122291934D01*
X130672349Y-122325202D01*
X130625084Y-122351964D01*
X130600507Y-122375144D01*
X130596237Y-122397667D01*
X130609889Y-122422455D01*
X130624943Y-122438886D01*
X130668746Y-122465235D01*
X130716389Y-122467081D01*
X130760145Y-122446546D01*
X130792289Y-122405752D01*
X130798038Y-122391347D01*
X130825576Y-122346356D01*
X130857258Y-122327182D01*
X130900714Y-122310779D01*
X130900714Y-122372966D01*
X130896872Y-122415283D01*
X130881823Y-122450969D01*
X130850280Y-122491943D01*
X130845592Y-122497267D01*
X130810506Y-122533720D01*
X130780347Y-122553283D01*
X130742615Y-122562283D01*
X130711335Y-122565230D01*
X130655385Y-122565965D01*
X130615555Y-122556660D01*
X130590708Y-122542846D01*
X130551656Y-122512467D01*
X130524625Y-122479613D01*
X130507517Y-122438294D01*
X130498238Y-122382521D01*
X130494693Y-122306305D01*
X130494410Y-122267622D01*
X130495372Y-122221247D01*
X130583007Y-122221247D01*
X130584023Y-122246126D01*
X130586556Y-122250200D01*
X130603274Y-122244665D01*
X130639249Y-122230017D01*
X130687331Y-122209190D01*
X130697386Y-122204714D01*
X130758152Y-122173814D01*
X130791632Y-122146657D01*
X130798990Y-122121220D01*
X130781391Y-122095481D01*
X130766856Y-122084109D01*
X130714410Y-122061364D01*
X130665322Y-122065122D01*
X130624227Y-122092884D01*
X130595758Y-122142152D01*
X130586631Y-122181257D01*
X130583007Y-122221247D01*
X130495372Y-122221247D01*
X130496285Y-122177249D01*
X130503196Y-122110384D01*
G36*
X124928677Y-122165333D02*
G01*
X124931450Y-122117958D01*
X124935388Y-122084290D01*
X124940849Y-122060498D01*
X124948192Y-122042753D01*
X124957777Y-122027224D01*
X124961887Y-122021381D01*
X125016405Y-121966185D01*
X125085336Y-121934890D01*
X125165072Y-121926165D01*
X125234744Y-121934918D01*
X125290201Y-121962568D01*
X125339148Y-122013480D01*
X125352629Y-122032338D01*
X125367314Y-122057015D01*
X125376842Y-122083816D01*
X125382293Y-122119587D01*
X125384747Y-122171169D01*
X125385286Y-122239267D01*
X125382852Y-122332588D01*
X125374394Y-122402657D01*
X125358174Y-122454931D01*
X125332454Y-122494869D01*
X125295497Y-122527929D01*
X125292782Y-122529886D01*
X125256360Y-122549908D01*
X125212502Y-122559815D01*
X125156724Y-122562257D01*
X125066048Y-122562257D01*
X125066010Y-122650283D01*
X125065166Y-122699308D01*
X125060024Y-122728065D01*
X125046587Y-122745311D01*
X125020858Y-122759808D01*
X125014679Y-122762769D01*
X124985764Y-122776648D01*
X124963376Y-122785414D01*
X124946729Y-122786171D01*
X124935036Y-122776023D01*
X124927510Y-122752073D01*
X124923366Y-122711426D01*
X124921815Y-122651186D01*
X124922071Y-122568455D01*
X124923349Y-122460339D01*
X124923748Y-122428000D01*
X124925185Y-122316524D01*
X124926472Y-122243603D01*
X125065971Y-122243603D01*
X125066755Y-122305499D01*
X125070240Y-122345997D01*
X125078124Y-122372708D01*
X125092105Y-122393244D01*
X125101597Y-122403260D01*
X125140404Y-122432567D01*
X125174763Y-122434952D01*
X125210216Y-122410750D01*
X125211114Y-122409857D01*
X125225539Y-122391153D01*
X125234313Y-122365732D01*
X125238739Y-122326584D01*
X125240118Y-122266697D01*
X125240143Y-122253430D01*
X125236812Y-122170901D01*
X125225969Y-122113691D01*
X125206340Y-122078766D01*
X125176650Y-122063094D01*
X125159491Y-122061514D01*
X125118766Y-122068926D01*
X125090832Y-122093330D01*
X125074017Y-122137980D01*
X125066650Y-122206130D01*
X125065971Y-122243603D01*
X124926472Y-122243603D01*
X124926708Y-122230245D01*
X124928677Y-122165333D01*
G37*
X124928677Y-122165333D02*
X124931450Y-122117958D01*
X124935388Y-122084290D01*
X124940849Y-122060498D01*
X124948192Y-122042753D01*
X124957777Y-122027224D01*
X124961887Y-122021381D01*
X125016405Y-121966185D01*
X125085336Y-121934890D01*
X125165072Y-121926165D01*
X125234744Y-121934918D01*
X125290201Y-121962568D01*
X125339148Y-122013480D01*
X125352629Y-122032338D01*
X125367314Y-122057015D01*
X125376842Y-122083816D01*
X125382293Y-122119587D01*
X125384747Y-122171169D01*
X125385286Y-122239267D01*
X125382852Y-122332588D01*
X125374394Y-122402657D01*
X125358174Y-122454931D01*
X125332454Y-122494869D01*
X125295497Y-122527929D01*
X125292782Y-122529886D01*
X125256360Y-122549908D01*
X125212502Y-122559815D01*
X125156724Y-122562257D01*
X125066048Y-122562257D01*
X125066010Y-122650283D01*
X125065166Y-122699308D01*
X125060024Y-122728065D01*
X125046587Y-122745311D01*
X125020858Y-122759808D01*
X125014679Y-122762769D01*
X124985764Y-122776648D01*
X124963376Y-122785414D01*
X124946729Y-122786171D01*
X124935036Y-122776023D01*
X124927510Y-122752073D01*
X124923366Y-122711426D01*
X124921815Y-122651186D01*
X124922071Y-122568455D01*
X124923349Y-122460339D01*
X124923748Y-122428000D01*
X124925185Y-122316524D01*
X124926472Y-122243603D01*
X125065971Y-122243603D01*
X125066755Y-122305499D01*
X125070240Y-122345997D01*
X125078124Y-122372708D01*
X125092105Y-122393244D01*
X125101597Y-122403260D01*
X125140404Y-122432567D01*
X125174763Y-122434952D01*
X125210216Y-122410750D01*
X125211114Y-122409857D01*
X125225539Y-122391153D01*
X125234313Y-122365732D01*
X125238739Y-122326584D01*
X125240118Y-122266697D01*
X125240143Y-122253430D01*
X125236812Y-122170901D01*
X125225969Y-122113691D01*
X125206340Y-122078766D01*
X125176650Y-122063094D01*
X125159491Y-122061514D01*
X125118766Y-122068926D01*
X125090832Y-122093330D01*
X125074017Y-122137980D01*
X125066650Y-122206130D01*
X125065971Y-122243603D01*
X124926472Y-122243603D01*
X124926708Y-122230245D01*
X124928677Y-122165333D01*
G36*
X125506550Y-122051212D02*
G01*
X125540456Y-122002302D01*
X125601653Y-121952878D01*
X125669063Y-121928359D01*
X125737880Y-121926797D01*
X125803303Y-121946239D01*
X125860527Y-121984735D01*
X125904749Y-122040335D01*
X125931167Y-122111086D01*
X125936510Y-122163162D01*
X125935903Y-122184893D01*
X125930822Y-122201531D01*
X125916855Y-122216437D01*
X125889589Y-122232973D01*
X125844612Y-122254498D01*
X125777511Y-122284374D01*
X125777171Y-122284524D01*
X125715407Y-122312813D01*
X125664759Y-122337933D01*
X125630404Y-122357179D01*
X125617518Y-122367848D01*
X125617514Y-122367934D01*
X125628872Y-122391166D01*
X125655431Y-122416774D01*
X125685923Y-122435221D01*
X125701370Y-122438886D01*
X125743515Y-122426212D01*
X125779808Y-122394471D01*
X125797517Y-122359572D01*
X125814552Y-122333845D01*
X125847922Y-122304546D01*
X125887149Y-122279235D01*
X125921756Y-122265471D01*
X125928993Y-122264714D01*
X125937139Y-122277160D01*
X125937630Y-122308972D01*
X125931643Y-122351866D01*
X125920357Y-122397558D01*
X125904950Y-122437761D01*
X125904171Y-122439322D01*
X125857804Y-122504062D01*
X125797711Y-122548097D01*
X125729465Y-122569711D01*
X125658638Y-122567185D01*
X125590804Y-122538804D01*
X125587788Y-122536808D01*
X125534427Y-122488448D01*
X125499340Y-122425352D01*
X125479922Y-122342387D01*
X125477316Y-122319078D01*
X125472701Y-122209055D01*
X125478233Y-122157748D01*
X125617514Y-122157748D01*
X125619324Y-122189753D01*
X125629222Y-122199093D01*
X125653898Y-122192105D01*
X125692795Y-122175587D01*
X125736275Y-122154881D01*
X125737356Y-122154333D01*
X125774209Y-122134949D01*
X125789000Y-122122013D01*
X125785353Y-122108451D01*
X125769995Y-122090632D01*
X125730923Y-122064845D01*
X125688846Y-122062950D01*
X125651103Y-122081717D01*
X125625034Y-122117915D01*
X125617514Y-122157748D01*
X125478233Y-122157748D01*
X125482194Y-122121027D01*
X125506550Y-122051212D01*
G37*
X125506550Y-122051212D02*
X125540456Y-122002302D01*
X125601653Y-121952878D01*
X125669063Y-121928359D01*
X125737880Y-121926797D01*
X125803303Y-121946239D01*
X125860527Y-121984735D01*
X125904749Y-122040335D01*
X125931167Y-122111086D01*
X125936510Y-122163162D01*
X125935903Y-122184893D01*
X125930822Y-122201531D01*
X125916855Y-122216437D01*
X125889589Y-122232973D01*
X125844612Y-122254498D01*
X125777511Y-122284374D01*
X125777171Y-122284524D01*
X125715407Y-122312813D01*
X125664759Y-122337933D01*
X125630404Y-122357179D01*
X125617518Y-122367848D01*
X125617514Y-122367934D01*
X125628872Y-122391166D01*
X125655431Y-122416774D01*
X125685923Y-122435221D01*
X125701370Y-122438886D01*
X125743515Y-122426212D01*
X125779808Y-122394471D01*
X125797517Y-122359572D01*
X125814552Y-122333845D01*
X125847922Y-122304546D01*
X125887149Y-122279235D01*
X125921756Y-122265471D01*
X125928993Y-122264714D01*
X125937139Y-122277160D01*
X125937630Y-122308972D01*
X125931643Y-122351866D01*
X125920357Y-122397558D01*
X125904950Y-122437761D01*
X125904171Y-122439322D01*
X125857804Y-122504062D01*
X125797711Y-122548097D01*
X125729465Y-122569711D01*
X125658638Y-122567185D01*
X125590804Y-122538804D01*
X125587788Y-122536808D01*
X125534427Y-122488448D01*
X125499340Y-122425352D01*
X125479922Y-122342387D01*
X125477316Y-122319078D01*
X125472701Y-122209055D01*
X125478233Y-122157748D01*
X125617514Y-122157748D01*
X125619324Y-122189753D01*
X125629222Y-122199093D01*
X125653898Y-122192105D01*
X125692795Y-122175587D01*
X125736275Y-122154881D01*
X125737356Y-122154333D01*
X125774209Y-122134949D01*
X125789000Y-122122013D01*
X125785353Y-122108451D01*
X125769995Y-122090632D01*
X125730923Y-122064845D01*
X125688846Y-122062950D01*
X125651103Y-122081717D01*
X125625034Y-122117915D01*
X125617514Y-122157748D01*
X125478233Y-122157748D01*
X125482194Y-122121027D01*
X125506550Y-122051212D01*
G36*
X126351093Y-121942780D02*
G01*
X126397672Y-121969723D01*
X126430057Y-121996466D01*
X126453742Y-122024484D01*
X126470059Y-122058748D01*
X126480339Y-122104227D01*
X126485914Y-122165892D01*
X126488116Y-122248711D01*
X126488371Y-122308246D01*
X126488371Y-122527391D01*
X126426686Y-122555044D01*
X126365000Y-122582697D01*
X126357743Y-122342670D01*
X126354744Y-122253028D01*
X126351598Y-122187962D01*
X126347701Y-122143026D01*
X126342447Y-122113770D01*
X126335231Y-122095748D01*
X126325450Y-122084511D01*
X126322312Y-122082079D01*
X126274761Y-122063083D01*
X126226697Y-122070600D01*
X126198086Y-122090543D01*
X126186447Y-122104675D01*
X126178391Y-122123220D01*
X126173271Y-122151334D01*
X126170441Y-122194173D01*
X126169256Y-122256895D01*
X126169057Y-122322261D01*
X126169018Y-122404268D01*
X126167614Y-122462316D01*
X126162914Y-122501465D01*
X126152987Y-122526780D01*
X126135903Y-122543323D01*
X126109732Y-122556156D01*
X126074775Y-122569491D01*
X126036596Y-122584007D01*
X126041141Y-122326389D01*
X126042971Y-122233519D01*
X126045112Y-122164889D01*
X126048181Y-122115711D01*
X126052794Y-122081198D01*
X126059568Y-122056562D01*
X126069119Y-122037016D01*
X126080634Y-122019770D01*
X126136190Y-121964680D01*
X126203980Y-121932822D01*
X126277713Y-121925191D01*
X126351093Y-121942780D01*
G37*
X126351093Y-121942780D02*
X126397672Y-121969723D01*
X126430057Y-121996466D01*
X126453742Y-122024484D01*
X126470059Y-122058748D01*
X126480339Y-122104227D01*
X126485914Y-122165892D01*
X126488116Y-122248711D01*
X126488371Y-122308246D01*
X126488371Y-122527391D01*
X126426686Y-122555044D01*
X126365000Y-122582697D01*
X126357743Y-122342670D01*
X126354744Y-122253028D01*
X126351598Y-122187962D01*
X126347701Y-122143026D01*
X126342447Y-122113770D01*
X126335231Y-122095748D01*
X126325450Y-122084511D01*
X126322312Y-122082079D01*
X126274761Y-122063083D01*
X126226697Y-122070600D01*
X126198086Y-122090543D01*
X126186447Y-122104675D01*
X126178391Y-122123220D01*
X126173271Y-122151334D01*
X126170441Y-122194173D01*
X126169256Y-122256895D01*
X126169057Y-122322261D01*
X126169018Y-122404268D01*
X126167614Y-122462316D01*
X126162914Y-122501465D01*
X126152987Y-122526780D01*
X126135903Y-122543323D01*
X126109732Y-122556156D01*
X126074775Y-122569491D01*
X126036596Y-122584007D01*
X126041141Y-122326389D01*
X126042971Y-122233519D01*
X126045112Y-122164889D01*
X126048181Y-122115711D01*
X126052794Y-122081198D01*
X126059568Y-122056562D01*
X126069119Y-122037016D01*
X126080634Y-122019770D01*
X126136190Y-121964680D01*
X126203980Y-121932822D01*
X126277713Y-121925191D01*
X126351093Y-121942780D01*
G36*
X127738910Y-117257348D02*
G01*
X127817454Y-117257778D01*
X127874298Y-117258942D01*
X127913105Y-117261207D01*
X127937538Y-117264940D01*
X127951262Y-117270506D01*
X127957940Y-117278273D01*
X127961236Y-117288605D01*
X127961556Y-117289943D01*
X127966562Y-117314079D01*
X127975829Y-117361701D01*
X127988392Y-117427741D01*
X128003287Y-117507128D01*
X128019551Y-117594796D01*
X128020119Y-117597875D01*
X128036410Y-117683789D01*
X128051652Y-117759696D01*
X128064861Y-117821045D01*
X128075054Y-117863282D01*
X128081248Y-117881855D01*
X128081543Y-117882184D01*
X128099788Y-117891253D01*
X128137405Y-117906367D01*
X128186271Y-117924262D01*
X128186543Y-117924358D01*
X128248093Y-117947493D01*
X128320657Y-117976965D01*
X128389057Y-118006597D01*
X128392294Y-118008062D01*
X128503702Y-118058626D01*
X128750399Y-117890160D01*
X128826077Y-117838803D01*
X128894631Y-117792889D01*
X128952088Y-117755030D01*
X128994476Y-117727837D01*
X129017825Y-117713921D01*
X129020042Y-117712889D01*
X129037010Y-117717484D01*
X129068701Y-117739655D01*
X129116352Y-117780447D01*
X129181198Y-117840905D01*
X129247397Y-117905227D01*
X129311214Y-117968612D01*
X129368329Y-118026451D01*
X129415305Y-118075175D01*
X129448703Y-118111210D01*
X129465085Y-118130984D01*
X129465694Y-118132002D01*
X129467505Y-118145572D01*
X129460683Y-118167733D01*
X129443540Y-118201478D01*
X129414393Y-118249800D01*
X129371555Y-118315692D01*
X129314448Y-118400517D01*
X129263766Y-118475177D01*
X129218461Y-118542140D01*
X129181150Y-118597516D01*
X129154452Y-118637420D01*
X129140985Y-118657962D01*
X129140137Y-118659356D01*
X129141781Y-118679038D01*
X129154245Y-118717293D01*
X129175048Y-118766889D01*
X129182462Y-118782728D01*
X129214814Y-118853290D01*
X129249328Y-118933353D01*
X129277365Y-119002629D01*
X129297568Y-119054045D01*
X129313615Y-119093119D01*
X129322888Y-119113541D01*
X129324041Y-119115114D01*
X129341096Y-119117721D01*
X129381298Y-119124863D01*
X129439302Y-119135523D01*
X129509763Y-119148685D01*
X129587335Y-119163333D01*
X129666672Y-119178449D01*
X129742431Y-119193018D01*
X129809264Y-119206022D01*
X129861828Y-119216445D01*
X129894776Y-119223270D01*
X129902857Y-119225199D01*
X129911205Y-119229962D01*
X129917506Y-119240718D01*
X129922045Y-119261098D01*
X129925104Y-119294734D01*
X129926967Y-119345255D01*
X129927918Y-119416292D01*
X129928240Y-119511476D01*
X129928257Y-119550492D01*
X129928257Y-119867799D01*
X129852057Y-119882839D01*
X129809663Y-119890995D01*
X129746400Y-119902899D01*
X129669962Y-119917116D01*
X129588043Y-119932210D01*
X129565400Y-119936355D01*
X129489806Y-119951053D01*
X129423953Y-119965505D01*
X129373366Y-119978375D01*
X129343574Y-119988322D01*
X129338612Y-119991287D01*
X129326426Y-120012283D01*
X129308953Y-120052967D01*
X129289577Y-120105322D01*
X129285734Y-120116600D01*
X129260339Y-120186523D01*
X129228817Y-120265418D01*
X129197969Y-120336266D01*
X129197817Y-120336595D01*
X129146447Y-120447733D01*
X129315399Y-120696253D01*
X129484352Y-120944772D01*
X129267429Y-121162058D01*
X129201819Y-121226726D01*
X129141979Y-121283733D01*
X129091267Y-121330033D01*
X129053046Y-121362584D01*
X129030675Y-121378343D01*
X129027466Y-121379343D01*
X129008626Y-121371469D01*
X128970180Y-121349578D01*
X128916330Y-121316267D01*
X128851276Y-121274131D01*
X128780940Y-121226943D01*
X128709555Y-121178810D01*
X128645908Y-121136928D01*
X128594041Y-121103871D01*
X128557995Y-121082218D01*
X128541867Y-121074543D01*
X128522189Y-121081037D01*
X128484875Y-121098150D01*
X128437621Y-121122326D01*
X128432612Y-121125013D01*
X128368977Y-121156927D01*
X128325341Y-121172579D01*
X128298202Y-121172745D01*
X128284057Y-121158204D01*
X128283975Y-121158000D01*
X128276905Y-121140779D01*
X128260042Y-121099899D01*
X128234695Y-121038525D01*
X128202171Y-120959819D01*
X128163778Y-120866947D01*
X128120822Y-120763072D01*
X128079222Y-120662502D01*
X128033504Y-120551516D01*
X127991526Y-120448703D01*
X127954548Y-120357215D01*
X127923827Y-120280201D01*
X127900622Y-120220815D01*
X127886190Y-120182209D01*
X127881743Y-120167800D01*
X127892896Y-120151272D01*
X127922069Y-120124930D01*
X127960971Y-120095887D01*
X128071757Y-120004039D01*
X128158351Y-119898759D01*
X128219716Y-119782266D01*
X128254815Y-119656776D01*
X128262608Y-119524507D01*
X128256943Y-119463457D01*
X128226078Y-119336795D01*
X128172920Y-119224941D01*
X128100767Y-119129001D01*
X128012917Y-119050076D01*
X127912665Y-118989270D01*
X127803310Y-118947687D01*
X127688147Y-118926428D01*
X127570475Y-118926599D01*
X127453590Y-118949301D01*
X127340789Y-118995638D01*
X127235369Y-119066713D01*
X127191368Y-119106911D01*
X127106979Y-119210129D01*
X127048222Y-119322925D01*
X127014704Y-119442010D01*
X127006035Y-119564095D01*
X127021823Y-119685893D01*
X127061678Y-119804116D01*
X127125207Y-119915475D01*
X127212021Y-120016684D01*
X127309029Y-120095887D01*
X127349437Y-120126162D01*
X127377982Y-120152219D01*
X127388257Y-120167825D01*
X127382877Y-120184843D01*
X127367575Y-120225500D01*
X127343612Y-120286642D01*
X127312244Y-120365119D01*
X127274732Y-120457780D01*
X127232333Y-120561472D01*
X127190663Y-120662526D01*
X127144690Y-120773607D01*
X127102107Y-120876541D01*
X127064221Y-120968165D01*
X127032340Y-121045316D01*
X127007771Y-121104831D01*
X126991820Y-121143544D01*
X126985910Y-121158000D01*
X126971948Y-121172685D01*
X126944940Y-121172642D01*
X126901413Y-121157099D01*
X126837890Y-121125284D01*
X126837388Y-121125013D01*
X126789560Y-121100323D01*
X126750897Y-121082338D01*
X126729095Y-121074614D01*
X126728133Y-121074543D01*
X126711721Y-121082378D01*
X126675487Y-121104165D01*
X126623474Y-121137328D01*
X126559725Y-121179291D01*
X126489060Y-121226943D01*
X126417116Y-121275191D01*
X126352274Y-121317151D01*
X126298735Y-121350227D01*
X126260697Y-121371821D01*
X126242533Y-121379343D01*
X126225808Y-121369457D01*
X126192180Y-121341826D01*
X126145010Y-121299495D01*
X126087658Y-121245505D01*
X126023484Y-121182899D01*
X126002497Y-121161983D01*
X125785499Y-120944623D01*
X125950668Y-120702220D01*
X126000864Y-120627781D01*
X126044919Y-120560972D01*
X126080362Y-120505665D01*
X126104719Y-120465729D01*
X126115522Y-120445036D01*
X126115838Y-120443563D01*
X126110143Y-120424058D01*
X126094826Y-120384822D01*
X126072537Y-120332430D01*
X126056893Y-120297355D01*
X126027641Y-120230201D01*
X126000094Y-120162358D01*
X125978737Y-120105034D01*
X125972935Y-120087572D01*
X125956452Y-120040938D01*
X125940340Y-120004905D01*
X125931490Y-119991287D01*
X125911960Y-119982952D01*
X125869334Y-119971137D01*
X125809145Y-119957181D01*
X125736922Y-119942422D01*
X125704600Y-119936355D01*
X125622522Y-119921273D01*
X125543795Y-119906669D01*
X125476109Y-119893980D01*
X125427160Y-119884642D01*
X125417943Y-119882839D01*
X125341743Y-119867799D01*
X125341743Y-119550492D01*
X125341914Y-119446154D01*
X125342616Y-119367213D01*
X125344134Y-119310038D01*
X125346749Y-119270999D01*
X125350746Y-119246465D01*
X125356409Y-119232805D01*
X125364020Y-119226389D01*
X125367143Y-119225199D01*
X125385978Y-119220980D01*
X125427588Y-119212562D01*
X125486630Y-119200961D01*
X125557757Y-119187195D01*
X125635625Y-119172280D01*
X125714887Y-119157232D01*
X125790198Y-119143069D01*
X125856213Y-119130806D01*
X125907587Y-119121461D01*
X125938975Y-119116050D01*
X125945959Y-119115114D01*
X125952285Y-119102596D01*
X125966290Y-119069246D01*
X125985355Y-119021377D01*
X125992634Y-119002629D01*
X126021996Y-118930195D01*
X126056571Y-118850170D01*
X126087537Y-118782728D01*
X126110323Y-118731159D01*
X126125482Y-118688785D01*
X126130542Y-118662834D01*
X126129736Y-118659356D01*
X126119041Y-118642936D01*
X126094620Y-118606417D01*
X126059095Y-118553687D01*
X126015087Y-118488635D01*
X125965217Y-118415151D01*
X125955356Y-118400645D01*
X125897492Y-118314704D01*
X125854956Y-118249261D01*
X125826054Y-118201304D01*
X125809090Y-118167820D01*
X125802367Y-118145795D01*
X125804190Y-118132217D01*
X125804236Y-118132131D01*
X125818586Y-118114297D01*
X125850323Y-118079817D01*
X125896010Y-118032268D01*
X125952204Y-117975222D01*
X126015468Y-117912255D01*
X126022602Y-117905227D01*
X126102330Y-117828020D01*
X126163857Y-117771330D01*
X126208421Y-117734110D01*
X126237257Y-117715315D01*
X126249958Y-117712889D01*
X126268494Y-117723471D01*
X126306961Y-117747916D01*
X126361386Y-117783612D01*
X126427798Y-117827947D01*
X126502225Y-117878311D01*
X126519601Y-117890160D01*
X126766297Y-118058626D01*
X126877706Y-118008062D01*
X126945457Y-117978595D01*
X127018183Y-117948959D01*
X127080703Y-117925330D01*
X127083457Y-117924358D01*
X127132360Y-117906457D01*
X127170057Y-117891320D01*
X127188425Y-117882210D01*
X127188456Y-117882184D01*
X127194285Y-117865717D01*
X127204192Y-117825219D01*
X127217195Y-117765242D01*
X127232309Y-117690340D01*
X127248552Y-117605064D01*
X127249881Y-117597875D01*
X127266175Y-117510014D01*
X127281133Y-117430260D01*
X127293791Y-117363681D01*
X127303186Y-117315347D01*
X127308354Y-117290325D01*
X127308444Y-117289943D01*
X127311589Y-117279299D01*
X127317704Y-117271262D01*
X127330453Y-117265467D01*
X127353500Y-117261547D01*
X127390509Y-117259135D01*
X127445144Y-117257865D01*
X127521067Y-117257371D01*
X127621944Y-117257286D01*
X127635000Y-117257286D01*
X127738910Y-117257348D01*
G37*
X127738910Y-117257348D02*
X127817454Y-117257778D01*
X127874298Y-117258942D01*
X127913105Y-117261207D01*
X127937538Y-117264940D01*
X127951262Y-117270506D01*
X127957940Y-117278273D01*
X127961236Y-117288605D01*
X127961556Y-117289943D01*
X127966562Y-117314079D01*
X127975829Y-117361701D01*
X127988392Y-117427741D01*
X128003287Y-117507128D01*
X128019551Y-117594796D01*
X128020119Y-117597875D01*
X128036410Y-117683789D01*
X128051652Y-117759696D01*
X128064861Y-117821045D01*
X128075054Y-117863282D01*
X128081248Y-117881855D01*
X128081543Y-117882184D01*
X128099788Y-117891253D01*
X128137405Y-117906367D01*
X128186271Y-117924262D01*
X128186543Y-117924358D01*
X128248093Y-117947493D01*
X128320657Y-117976965D01*
X128389057Y-118006597D01*
X128392294Y-118008062D01*
X128503702Y-118058626D01*
X128750399Y-117890160D01*
X128826077Y-117838803D01*
X128894631Y-117792889D01*
X128952088Y-117755030D01*
X128994476Y-117727837D01*
X129017825Y-117713921D01*
X129020042Y-117712889D01*
X129037010Y-117717484D01*
X129068701Y-117739655D01*
X129116352Y-117780447D01*
X129181198Y-117840905D01*
X129247397Y-117905227D01*
X129311214Y-117968612D01*
X129368329Y-118026451D01*
X129415305Y-118075175D01*
X129448703Y-118111210D01*
X129465085Y-118130984D01*
X129465694Y-118132002D01*
X129467505Y-118145572D01*
X129460683Y-118167733D01*
X129443540Y-118201478D01*
X129414393Y-118249800D01*
X129371555Y-118315692D01*
X129314448Y-118400517D01*
X129263766Y-118475177D01*
X129218461Y-118542140D01*
X129181150Y-118597516D01*
X129154452Y-118637420D01*
X129140985Y-118657962D01*
X129140137Y-118659356D01*
X129141781Y-118679038D01*
X129154245Y-118717293D01*
X129175048Y-118766889D01*
X129182462Y-118782728D01*
X129214814Y-118853290D01*
X129249328Y-118933353D01*
X129277365Y-119002629D01*
X129297568Y-119054045D01*
X129313615Y-119093119D01*
X129322888Y-119113541D01*
X129324041Y-119115114D01*
X129341096Y-119117721D01*
X129381298Y-119124863D01*
X129439302Y-119135523D01*
X129509763Y-119148685D01*
X129587335Y-119163333D01*
X129666672Y-119178449D01*
X129742431Y-119193018D01*
X129809264Y-119206022D01*
X129861828Y-119216445D01*
X129894776Y-119223270D01*
X129902857Y-119225199D01*
X129911205Y-119229962D01*
X129917506Y-119240718D01*
X129922045Y-119261098D01*
X129925104Y-119294734D01*
X129926967Y-119345255D01*
X129927918Y-119416292D01*
X129928240Y-119511476D01*
X129928257Y-119550492D01*
X129928257Y-119867799D01*
X129852057Y-119882839D01*
X129809663Y-119890995D01*
X129746400Y-119902899D01*
X129669962Y-119917116D01*
X129588043Y-119932210D01*
X129565400Y-119936355D01*
X129489806Y-119951053D01*
X129423953Y-119965505D01*
X129373366Y-119978375D01*
X129343574Y-119988322D01*
X129338612Y-119991287D01*
X129326426Y-120012283D01*
X129308953Y-120052967D01*
X129289577Y-120105322D01*
X129285734Y-120116600D01*
X129260339Y-120186523D01*
X129228817Y-120265418D01*
X129197969Y-120336266D01*
X129197817Y-120336595D01*
X129146447Y-120447733D01*
X129315399Y-120696253D01*
X129484352Y-120944772D01*
X129267429Y-121162058D01*
X129201819Y-121226726D01*
X129141979Y-121283733D01*
X129091267Y-121330033D01*
X129053046Y-121362584D01*
X129030675Y-121378343D01*
X129027466Y-121379343D01*
X129008626Y-121371469D01*
X128970180Y-121349578D01*
X128916330Y-121316267D01*
X128851276Y-121274131D01*
X128780940Y-121226943D01*
X128709555Y-121178810D01*
X128645908Y-121136928D01*
X128594041Y-121103871D01*
X128557995Y-121082218D01*
X128541867Y-121074543D01*
X128522189Y-121081037D01*
X128484875Y-121098150D01*
X128437621Y-121122326D01*
X128432612Y-121125013D01*
X128368977Y-121156927D01*
X128325341Y-121172579D01*
X128298202Y-121172745D01*
X128284057Y-121158204D01*
X128283975Y-121158000D01*
X128276905Y-121140779D01*
X128260042Y-121099899D01*
X128234695Y-121038525D01*
X128202171Y-120959819D01*
X128163778Y-120866947D01*
X128120822Y-120763072D01*
X128079222Y-120662502D01*
X128033504Y-120551516D01*
X127991526Y-120448703D01*
X127954548Y-120357215D01*
X127923827Y-120280201D01*
X127900622Y-120220815D01*
X127886190Y-120182209D01*
X127881743Y-120167800D01*
X127892896Y-120151272D01*
X127922069Y-120124930D01*
X127960971Y-120095887D01*
X128071757Y-120004039D01*
X128158351Y-119898759D01*
X128219716Y-119782266D01*
X128254815Y-119656776D01*
X128262608Y-119524507D01*
X128256943Y-119463457D01*
X128226078Y-119336795D01*
X128172920Y-119224941D01*
X128100767Y-119129001D01*
X128012917Y-119050076D01*
X127912665Y-118989270D01*
X127803310Y-118947687D01*
X127688147Y-118926428D01*
X127570475Y-118926599D01*
X127453590Y-118949301D01*
X127340789Y-118995638D01*
X127235369Y-119066713D01*
X127191368Y-119106911D01*
X127106979Y-119210129D01*
X127048222Y-119322925D01*
X127014704Y-119442010D01*
X127006035Y-119564095D01*
X127021823Y-119685893D01*
X127061678Y-119804116D01*
X127125207Y-119915475D01*
X127212021Y-120016684D01*
X127309029Y-120095887D01*
X127349437Y-120126162D01*
X127377982Y-120152219D01*
X127388257Y-120167825D01*
X127382877Y-120184843D01*
X127367575Y-120225500D01*
X127343612Y-120286642D01*
X127312244Y-120365119D01*
X127274732Y-120457780D01*
X127232333Y-120561472D01*
X127190663Y-120662526D01*
X127144690Y-120773607D01*
X127102107Y-120876541D01*
X127064221Y-120968165D01*
X127032340Y-121045316D01*
X127007771Y-121104831D01*
X126991820Y-121143544D01*
X126985910Y-121158000D01*
X126971948Y-121172685D01*
X126944940Y-121172642D01*
X126901413Y-121157099D01*
X126837890Y-121125284D01*
X126837388Y-121125013D01*
X126789560Y-121100323D01*
X126750897Y-121082338D01*
X126729095Y-121074614D01*
X126728133Y-121074543D01*
X126711721Y-121082378D01*
X126675487Y-121104165D01*
X126623474Y-121137328D01*
X126559725Y-121179291D01*
X126489060Y-121226943D01*
X126417116Y-121275191D01*
X126352274Y-121317151D01*
X126298735Y-121350227D01*
X126260697Y-121371821D01*
X126242533Y-121379343D01*
X126225808Y-121369457D01*
X126192180Y-121341826D01*
X126145010Y-121299495D01*
X126087658Y-121245505D01*
X126023484Y-121182899D01*
X126002497Y-121161983D01*
X125785499Y-120944623D01*
X125950668Y-120702220D01*
X126000864Y-120627781D01*
X126044919Y-120560972D01*
X126080362Y-120505665D01*
X126104719Y-120465729D01*
X126115522Y-120445036D01*
X126115838Y-120443563D01*
X126110143Y-120424058D01*
X126094826Y-120384822D01*
X126072537Y-120332430D01*
X126056893Y-120297355D01*
X126027641Y-120230201D01*
X126000094Y-120162358D01*
X125978737Y-120105034D01*
X125972935Y-120087572D01*
X125956452Y-120040938D01*
X125940340Y-120004905D01*
X125931490Y-119991287D01*
X125911960Y-119982952D01*
X125869334Y-119971137D01*
X125809145Y-119957181D01*
X125736922Y-119942422D01*
X125704600Y-119936355D01*
X125622522Y-119921273D01*
X125543795Y-119906669D01*
X125476109Y-119893980D01*
X125427160Y-119884642D01*
X125417943Y-119882839D01*
X125341743Y-119867799D01*
X125341743Y-119550492D01*
X125341914Y-119446154D01*
X125342616Y-119367213D01*
X125344134Y-119310038D01*
X125346749Y-119270999D01*
X125350746Y-119246465D01*
X125356409Y-119232805D01*
X125364020Y-119226389D01*
X125367143Y-119225199D01*
X125385978Y-119220980D01*
X125427588Y-119212562D01*
X125486630Y-119200961D01*
X125557757Y-119187195D01*
X125635625Y-119172280D01*
X125714887Y-119157232D01*
X125790198Y-119143069D01*
X125856213Y-119130806D01*
X125907587Y-119121461D01*
X125938975Y-119116050D01*
X125945959Y-119115114D01*
X125952285Y-119102596D01*
X125966290Y-119069246D01*
X125985355Y-119021377D01*
X125992634Y-119002629D01*
X126021996Y-118930195D01*
X126056571Y-118850170D01*
X126087537Y-118782728D01*
X126110323Y-118731159D01*
X126125482Y-118688785D01*
X126130542Y-118662834D01*
X126129736Y-118659356D01*
X126119041Y-118642936D01*
X126094620Y-118606417D01*
X126059095Y-118553687D01*
X126015087Y-118488635D01*
X125965217Y-118415151D01*
X125955356Y-118400645D01*
X125897492Y-118314704D01*
X125854956Y-118249261D01*
X125826054Y-118201304D01*
X125809090Y-118167820D01*
X125802367Y-118145795D01*
X125804190Y-118132217D01*
X125804236Y-118132131D01*
X125818586Y-118114297D01*
X125850323Y-118079817D01*
X125896010Y-118032268D01*
X125952204Y-117975222D01*
X126015468Y-117912255D01*
X126022602Y-117905227D01*
X126102330Y-117828020D01*
X126163857Y-117771330D01*
X126208421Y-117734110D01*
X126237257Y-117715315D01*
X126249958Y-117712889D01*
X126268494Y-117723471D01*
X126306961Y-117747916D01*
X126361386Y-117783612D01*
X126427798Y-117827947D01*
X126502225Y-117878311D01*
X126519601Y-117890160D01*
X126766297Y-118058626D01*
X126877706Y-118008062D01*
X126945457Y-117978595D01*
X127018183Y-117948959D01*
X127080703Y-117925330D01*
X127083457Y-117924358D01*
X127132360Y-117906457D01*
X127170057Y-117891320D01*
X127188425Y-117882210D01*
X127188456Y-117882184D01*
X127194285Y-117865717D01*
X127204192Y-117825219D01*
X127217195Y-117765242D01*
X127232309Y-117690340D01*
X127248552Y-117605064D01*
X127249881Y-117597875D01*
X127266175Y-117510014D01*
X127281133Y-117430260D01*
X127293791Y-117363681D01*
X127303186Y-117315347D01*
X127308354Y-117290325D01*
X127308444Y-117289943D01*
X127311589Y-117279299D01*
X127317704Y-117271262D01*
X127330453Y-117265467D01*
X127353500Y-117261547D01*
X127390509Y-117259135D01*
X127445144Y-117257865D01*
X127521067Y-117257371D01*
X127621944Y-117257286D01*
X127635000Y-117257286D01*
X127738910Y-117257348D01*
G36*
X128419726Y-122105086D02*
G01*
X128442135Y-122053600D01*
X128477124Y-122013443D01*
X128504375Y-121992861D01*
X128553907Y-121970625D01*
X128611316Y-121960304D01*
X128664682Y-121963067D01*
X128694543Y-121974212D01*
X128706261Y-121977383D01*
X128714037Y-121965557D01*
X128719465Y-121933866D01*
X128723571Y-121885593D01*
X128728067Y-121831829D01*
X128734313Y-121799482D01*
X128745676Y-121780985D01*
X128765528Y-121768770D01*
X128778000Y-121763362D01*
X128825171Y-121743601D01*
X128825117Y-122080358D01*
X128824933Y-122188837D01*
X128824219Y-122272287D01*
X128822675Y-122334704D01*
X128820001Y-122380085D01*
X128815894Y-122412429D01*
X128810055Y-122435733D01*
X128802182Y-122453995D01*
X128796221Y-122464418D01*
X128746855Y-122520945D01*
X128684264Y-122556377D01*
X128615013Y-122569090D01*
X128545668Y-122557463D01*
X128504375Y-122536568D01*
X128461025Y-122500422D01*
X128431481Y-122456276D01*
X128413655Y-122398462D01*
X128405463Y-122321313D01*
X128404302Y-122264714D01*
X128404458Y-122260647D01*
X128505857Y-122260647D01*
X128506476Y-122325550D01*
X128509314Y-122368514D01*
X128515840Y-122396622D01*
X128527523Y-122416953D01*
X128541483Y-122432288D01*
X128588365Y-122461890D01*
X128638701Y-122464419D01*
X128686276Y-122439705D01*
X128689979Y-122436356D01*
X128705783Y-122418935D01*
X128715693Y-122398209D01*
X128721058Y-122367362D01*
X128723228Y-122319577D01*
X128723571Y-122266748D01*
X128722827Y-122200381D01*
X128719748Y-122156106D01*
X128713061Y-122127009D01*
X128701496Y-122106173D01*
X128692013Y-122095107D01*
X128647960Y-122067198D01*
X128597224Y-122063843D01*
X128548796Y-122085159D01*
X128539450Y-122093073D01*
X128523540Y-122110647D01*
X128513610Y-122131587D01*
X128508278Y-122162782D01*
X128506163Y-122211122D01*
X128505857Y-122260647D01*
X128404458Y-122260647D01*
X128407810Y-122173568D01*
X128419726Y-122105086D01*
G37*
X128419726Y-122105086D02*
X128442135Y-122053600D01*
X128477124Y-122013443D01*
X128504375Y-121992861D01*
X128553907Y-121970625D01*
X128611316Y-121960304D01*
X128664682Y-121963067D01*
X128694543Y-121974212D01*
X128706261Y-121977383D01*
X128714037Y-121965557D01*
X128719465Y-121933866D01*
X128723571Y-121885593D01*
X128728067Y-121831829D01*
X128734313Y-121799482D01*
X128745676Y-121780985D01*
X128765528Y-121768770D01*
X128778000Y-121763362D01*
X128825171Y-121743601D01*
X128825117Y-122080358D01*
X128824933Y-122188837D01*
X128824219Y-122272287D01*
X128822675Y-122334704D01*
X128820001Y-122380085D01*
X128815894Y-122412429D01*
X128810055Y-122435733D01*
X128802182Y-122453995D01*
X128796221Y-122464418D01*
X128746855Y-122520945D01*
X128684264Y-122556377D01*
X128615013Y-122569090D01*
X128545668Y-122557463D01*
X128504375Y-122536568D01*
X128461025Y-122500422D01*
X128431481Y-122456276D01*
X128413655Y-122398462D01*
X128405463Y-122321313D01*
X128404302Y-122264714D01*
X128404458Y-122260647D01*
X128505857Y-122260647D01*
X128506476Y-122325550D01*
X128509314Y-122368514D01*
X128515840Y-122396622D01*
X128527523Y-122416953D01*
X128541483Y-122432288D01*
X128588365Y-122461890D01*
X128638701Y-122464419D01*
X128686276Y-122439705D01*
X128689979Y-122436356D01*
X128705783Y-122418935D01*
X128715693Y-122398209D01*
X128721058Y-122367362D01*
X128723228Y-122319577D01*
X128723571Y-122266748D01*
X128722827Y-122200381D01*
X128719748Y-122156106D01*
X128713061Y-122127009D01*
X128701496Y-122106173D01*
X128692013Y-122095107D01*
X128647960Y-122067198D01*
X128597224Y-122063843D01*
X128548796Y-122085159D01*
X128539450Y-122093073D01*
X128523540Y-122110647D01*
X128513610Y-122131587D01*
X128508278Y-122162782D01*
X128506163Y-122211122D01*
X128505857Y-122260647D01*
X128404458Y-122260647D01*
X128407810Y-122173568D01*
X128419726Y-122105086D01*
G36*
X124372096Y-122123159D02*
G01*
X124377068Y-122086949D01*
X124385713Y-122060299D01*
X124399005Y-122036722D01*
X124401943Y-122032338D01*
X124451313Y-121973249D01*
X124505109Y-121938947D01*
X124570602Y-121925331D01*
X124592842Y-121924665D01*
X124676115Y-121936962D01*
X124744145Y-121972733D01*
X124794351Y-122030301D01*
X124812185Y-122067312D01*
X124826063Y-122122882D01*
X124833167Y-122193096D01*
X124833840Y-122269727D01*
X124828427Y-122344552D01*
X124817270Y-122409342D01*
X124800714Y-122455873D01*
X124795626Y-122463887D01*
X124735355Y-122523707D01*
X124663769Y-122559535D01*
X124586092Y-122570020D01*
X124507548Y-122553810D01*
X124485689Y-122544092D01*
X124443122Y-122514143D01*
X124405763Y-122474433D01*
X124402232Y-122469397D01*
X124387881Y-122445124D01*
X124378394Y-122419178D01*
X124372790Y-122385022D01*
X124370086Y-122336119D01*
X124369299Y-122265935D01*
X124369286Y-122250200D01*
X124369322Y-122245192D01*
X124514429Y-122245192D01*
X124515273Y-122311430D01*
X124518596Y-122355386D01*
X124525583Y-122383779D01*
X124537416Y-122403325D01*
X124543457Y-122409857D01*
X124578186Y-122434680D01*
X124611903Y-122433548D01*
X124645995Y-122412016D01*
X124666329Y-122389029D01*
X124678371Y-122355478D01*
X124685134Y-122302569D01*
X124685598Y-122296399D01*
X124686752Y-122200513D01*
X124674688Y-122129299D01*
X124649570Y-122083194D01*
X124611560Y-122062635D01*
X124597992Y-122061514D01*
X124562364Y-122067152D01*
X124537994Y-122086686D01*
X124523093Y-122124042D01*
X124515875Y-122183150D01*
X124514429Y-122245192D01*
X124369322Y-122245192D01*
X124369826Y-122175413D01*
X124372096Y-122123159D01*
G37*
X124372096Y-122123159D02*
X124377068Y-122086949D01*
X124385713Y-122060299D01*
X124399005Y-122036722D01*
X124401943Y-122032338D01*
X124451313Y-121973249D01*
X124505109Y-121938947D01*
X124570602Y-121925331D01*
X124592842Y-121924665D01*
X124676115Y-121936962D01*
X124744145Y-121972733D01*
X124794351Y-122030301D01*
X124812185Y-122067312D01*
X124826063Y-122122882D01*
X124833167Y-122193096D01*
X124833840Y-122269727D01*
X124828427Y-122344552D01*
X124817270Y-122409342D01*
X124800714Y-122455873D01*
X124795626Y-122463887D01*
X124735355Y-122523707D01*
X124663769Y-122559535D01*
X124586092Y-122570020D01*
X124507548Y-122553810D01*
X124485689Y-122544092D01*
X124443122Y-122514143D01*
X124405763Y-122474433D01*
X124402232Y-122469397D01*
X124387881Y-122445124D01*
X124378394Y-122419178D01*
X124372790Y-122385022D01*
X124370086Y-122336119D01*
X124369299Y-122265935D01*
X124369286Y-122250200D01*
X124369322Y-122245192D01*
X124514429Y-122245192D01*
X124515273Y-122311430D01*
X124518596Y-122355386D01*
X124525583Y-122383779D01*
X124537416Y-122403325D01*
X124543457Y-122409857D01*
X124578186Y-122434680D01*
X124611903Y-122433548D01*
X124645995Y-122412016D01*
X124666329Y-122389029D01*
X124678371Y-122355478D01*
X124685134Y-122302569D01*
X124685598Y-122296399D01*
X124686752Y-122200513D01*
X124674688Y-122129299D01*
X124649570Y-122083194D01*
X124611560Y-122062635D01*
X124597992Y-122061514D01*
X124562364Y-122067152D01*
X124537994Y-122086686D01*
X124523093Y-122124042D01*
X124515875Y-122183150D01*
X124514429Y-122245192D01*
X124369322Y-122245192D01*
X124369826Y-122175413D01*
X124372096Y-122123159D01*
G36*
X130287600Y-121973752D02*
G01*
X130304948Y-121981334D01*
X130346356Y-122014128D01*
X130381765Y-122061547D01*
X130403664Y-122112151D01*
X130407229Y-122137098D01*
X130395279Y-122171927D01*
X130369067Y-122190357D01*
X130340964Y-122201516D01*
X130328095Y-122203572D01*
X130321829Y-122188649D01*
X130309456Y-122156175D01*
X130304028Y-122141502D01*
X130273590Y-122090744D01*
X130229520Y-122065427D01*
X130173010Y-122066206D01*
X130168825Y-122067203D01*
X130138655Y-122081507D01*
X130116476Y-122109393D01*
X130101327Y-122154287D01*
X130092250Y-122219615D01*
X130088286Y-122308804D01*
X130087914Y-122356261D01*
X130087730Y-122431071D01*
X130086522Y-122482069D01*
X130083309Y-122514471D01*
X130077109Y-122533495D01*
X130066940Y-122544356D01*
X130051819Y-122552272D01*
X130050946Y-122552670D01*
X130021828Y-122564981D01*
X130007403Y-122569514D01*
X130005186Y-122555809D01*
X130003289Y-122517925D01*
X130001847Y-122460715D01*
X130000998Y-122389027D01*
X130000829Y-122336565D01*
X130001692Y-122235047D01*
X130005070Y-122158032D01*
X130012142Y-122101023D01*
X130024088Y-122059526D01*
X130042090Y-122029043D01*
X130067327Y-122005080D01*
X130092247Y-121988355D01*
X130152171Y-121966097D01*
X130221911Y-121961076D01*
X130287600Y-121973752D01*
G37*
X130287600Y-121973752D02*
X130304948Y-121981334D01*
X130346356Y-122014128D01*
X130381765Y-122061547D01*
X130403664Y-122112151D01*
X130407229Y-122137098D01*
X130395279Y-122171927D01*
X130369067Y-122190357D01*
X130340964Y-122201516D01*
X130328095Y-122203572D01*
X130321829Y-122188649D01*
X130309456Y-122156175D01*
X130304028Y-122141502D01*
X130273590Y-122090744D01*
X130229520Y-122065427D01*
X130173010Y-122066206D01*
X130168825Y-122067203D01*
X130138655Y-122081507D01*
X130116476Y-122109393D01*
X130101327Y-122154287D01*
X130092250Y-122219615D01*
X130088286Y-122308804D01*
X130087914Y-122356261D01*
X130087730Y-122431071D01*
X130086522Y-122482069D01*
X130083309Y-122514471D01*
X130077109Y-122533495D01*
X130066940Y-122544356D01*
X130051819Y-122552272D01*
X130050946Y-122552670D01*
X130021828Y-122564981D01*
X130007403Y-122569514D01*
X130005186Y-122555809D01*
X130003289Y-122517925D01*
X130001847Y-122460715D01*
X130000998Y-122389027D01*
X130000829Y-122336565D01*
X130001692Y-122235047D01*
X130005070Y-122158032D01*
X130012142Y-122101023D01*
X130024088Y-122059526D01*
X130042090Y-122029043D01*
X130067327Y-122005080D01*
X130092247Y-121988355D01*
X130152171Y-121966097D01*
X130221911Y-121961076D01*
X130287600Y-121973752D01*
G36*
X128164926Y-121964755D02*
G01*
X128230858Y-121989084D01*
X128284273Y-122032117D01*
X128305164Y-122062409D01*
X128327939Y-122117994D01*
X128327466Y-122158186D01*
X128303562Y-122185217D01*
X128294717Y-122189813D01*
X128256530Y-122204144D01*
X128237028Y-122200472D01*
X128230422Y-122176407D01*
X128230086Y-122163114D01*
X128217992Y-122114210D01*
X128186471Y-122079999D01*
X128142659Y-122063476D01*
X128093695Y-122067634D01*
X128053894Y-122089227D01*
X128040450Y-122101544D01*
X128030921Y-122116487D01*
X128024485Y-122139075D01*
X128020317Y-122174328D01*
X128017597Y-122227266D01*
X128015502Y-122302907D01*
X128014960Y-122326857D01*
X128012981Y-122408790D01*
X128010731Y-122466455D01*
X128007357Y-122504608D01*
X128002006Y-122528004D01*
X127993824Y-122541398D01*
X127981959Y-122549545D01*
X127974362Y-122553144D01*
X127942102Y-122565452D01*
X127923111Y-122569514D01*
X127916836Y-122555948D01*
X127913006Y-122514934D01*
X127911600Y-122445999D01*
X127912598Y-122348669D01*
X127912908Y-122333657D01*
X127915101Y-122244859D01*
X127917693Y-122180019D01*
X127921382Y-122134067D01*
X127926864Y-122101935D01*
X127934835Y-122078553D01*
X127945993Y-122058852D01*
X127951830Y-122050410D01*
X127985296Y-122013057D01*
X128022727Y-121984003D01*
X128027309Y-121981467D01*
X128094426Y-121961443D01*
X128164926Y-121964755D01*
G37*
X128164926Y-121964755D02*
X128230858Y-121989084D01*
X128284273Y-122032117D01*
X128305164Y-122062409D01*
X128327939Y-122117994D01*
X128327466Y-122158186D01*
X128303562Y-122185217D01*
X128294717Y-122189813D01*
X128256530Y-122204144D01*
X128237028Y-122200472D01*
X128230422Y-122176407D01*
X128230086Y-122163114D01*
X128217992Y-122114210D01*
X128186471Y-122079999D01*
X128142659Y-122063476D01*
X128093695Y-122067634D01*
X128053894Y-122089227D01*
X128040450Y-122101544D01*
X128030921Y-122116487D01*
X128024485Y-122139075D01*
X128020317Y-122174328D01*
X128017597Y-122227266D01*
X128015502Y-122302907D01*
X128014960Y-122326857D01*
X128012981Y-122408790D01*
X128010731Y-122466455D01*
X128007357Y-122504608D01*
X128002006Y-122528004D01*
X127993824Y-122541398D01*
X127981959Y-122549545D01*
X127974362Y-122553144D01*
X127942102Y-122565452D01*
X127923111Y-122569514D01*
X127916836Y-122555948D01*
X127913006Y-122514934D01*
X127911600Y-122445999D01*
X127912598Y-122348669D01*
X127912908Y-122333657D01*
X127915101Y-122244859D01*
X127917693Y-122180019D01*
X127921382Y-122134067D01*
X127926864Y-122101935D01*
X127934835Y-122078553D01*
X127945993Y-122058852D01*
X127951830Y-122050410D01*
X127985296Y-122013057D01*
X128022727Y-121984003D01*
X128027309Y-121981467D01*
X128094426Y-121961443D01*
X128164926Y-121964755D01*
%LPC*%
D16*
X118110000Y-57150000D03*
D17*
X118110000Y-58928000D03*
X118110000Y-60706000D03*
X118110000Y-62484000D03*
X118110000Y-64262000D03*
X118110000Y-66040000D03*
X118110000Y-67818000D03*
X118110000Y-69596000D03*
X118110000Y-71374000D03*
X118110000Y-73152000D03*
X118110000Y-74930000D03*
X118110000Y-76708000D03*
X118110000Y-78486000D03*
X118110000Y-80264000D03*
X118110000Y-82042000D03*
X118110000Y-83820000D03*
X118110000Y-85598000D03*
X118110000Y-87376000D03*
X118110000Y-89154000D03*
X118110000Y-90932000D03*
X118110000Y-92710000D03*
X118110000Y-94488000D03*
X118110000Y-96266000D03*
X118110000Y-98044000D03*
X118110000Y-99822000D03*
X118110000Y-101600000D03*
X118110000Y-103378000D03*
X118110000Y-105156000D03*
X118110000Y-106934000D03*
X118110000Y-108712000D03*
X118110000Y-110490000D03*
X118110000Y-112268000D03*
X137160000Y-112268000D03*
X137160000Y-110490000D03*
X137160000Y-108712000D03*
X137160000Y-106934000D03*
X137160000Y-105156000D03*
X137160000Y-103378000D03*
X137160000Y-101600000D03*
X137160000Y-99822000D03*
X137160000Y-98044000D03*
X137160000Y-96266000D03*
X137160000Y-94488000D03*
X137160000Y-92710000D03*
X137160000Y-90932000D03*
X137160000Y-89154000D03*
X137160000Y-87376000D03*
X137160000Y-85598000D03*
X137160000Y-83820000D03*
X137160000Y-82042000D03*
X137160000Y-80264000D03*
X137160000Y-78486000D03*
X137160000Y-76708000D03*
X137160000Y-74930000D03*
X137160000Y-73152000D03*
X137160000Y-71374000D03*
X137160000Y-69596000D03*
X137160000Y-67818000D03*
X137160000Y-66040000D03*
X137160000Y-64262000D03*
X137160000Y-62484000D03*
X137160000Y-60706000D03*
X137160000Y-58928000D03*
X137160000Y-57150000D03*
D18*
X143510000Y-45720000D03*
D19*
X143510000Y-48260000D03*
X143510000Y-50800000D03*
X143510000Y-53340000D03*
X143510000Y-55880000D03*
X143510000Y-58420000D03*
X143510000Y-60960000D03*
X143510000Y-63500000D03*
X143510000Y-66040000D03*
X143510000Y-68580000D03*
X143510000Y-71120000D03*
X143510000Y-73660000D03*
X143510000Y-76200000D03*
X143510000Y-78740000D03*
X143510000Y-81280000D03*
X143510000Y-83820000D03*
X143510000Y-86360000D03*
X143510000Y-88900000D03*
X143510000Y-91440000D03*
X143510000Y-93980000D03*
X143510000Y-96520000D03*
X143510000Y-99060000D03*
X143510000Y-101600000D03*
X143510000Y-104140000D03*
X143510000Y-106680000D03*
X143510000Y-109220000D03*
X143510000Y-111760000D03*
X143510000Y-114300000D03*
X143510000Y-116840000D03*
X143510000Y-119380000D03*
X143510000Y-121920000D03*
X143510000Y-124460000D03*
D18*
X111760000Y-45720000D03*
D19*
X111760000Y-48260000D03*
X111760000Y-50800000D03*
X111760000Y-53340000D03*
X111760000Y-55880000D03*
X111760000Y-58420000D03*
X111760000Y-60960000D03*
X111760000Y-63500000D03*
X111760000Y-66040000D03*
X111760000Y-68580000D03*
X111760000Y-71120000D03*
X111760000Y-73660000D03*
X111760000Y-76200000D03*
X111760000Y-78740000D03*
X111760000Y-81280000D03*
X111760000Y-83820000D03*
X111760000Y-86360000D03*
X111760000Y-88900000D03*
X111760000Y-91440000D03*
X111760000Y-93980000D03*
X111760000Y-96520000D03*
X111760000Y-99060000D03*
X111760000Y-101600000D03*
X111760000Y-104140000D03*
X111760000Y-106680000D03*
X111760000Y-109220000D03*
X111760000Y-111760000D03*
X111760000Y-114300000D03*
X111760000Y-116840000D03*
X111760000Y-119380000D03*
X111760000Y-121920000D03*
X111760000Y-124460000D03*
M02*
