G04 #@! TF.GenerationSoftware,KiCad,Pcbnew,(6.0.9)*
G04 #@! TF.CreationDate,2022-12-02T20:28:39-05:00*
G04 #@! TF.ProjectId,DIP 68 1.778mm adaptor,44495020-3638-4203-912e-3737386d6d20,rev?*
G04 #@! TF.SameCoordinates,Original*
G04 #@! TF.FileFunction,Soldermask,Top*
G04 #@! TF.FilePolarity,Negative*
%FSLAX46Y46*%
G04 Gerber Fmt 4.6, Leading zero omitted, Abs format (unit mm)*
G04 Created by KiCad (PCBNEW (6.0.9)) date 2022-12-02 20:28:39*
%MOMM*%
%LPD*%
G01*
G04 APERTURE LIST*
G04 Aperture macros list*
%AMRoundRect*
0 Rectangle with rounded corners*
0 $1 Rounding radius*
0 $2 $3 $4 $5 $6 $7 $8 $9 X,Y pos of 4 corners*
0 Add a 4 corners polygon primitive as box body*
4,1,4,$2,$3,$4,$5,$6,$7,$8,$9,$2,$3,0*
0 Add four circle primitives for the rounded corners*
1,1,$1+$1,$2,$3*
1,1,$1+$1,$4,$5*
1,1,$1+$1,$6,$7*
1,1,$1+$1,$8,$9*
0 Add four rect primitives between the rounded corners*
20,1,$1+$1,$2,$3,$4,$5,0*
20,1,$1+$1,$4,$5,$6,$7,0*
20,1,$1+$1,$6,$7,$8,$9,0*
20,1,$1+$1,$8,$9,$2,$3,0*%
G04 Aperture macros list end*
%ADD10RoundRect,0.200000X-1.270000X-0.508000X1.270000X-0.508000X1.270000X0.508000X-1.270000X0.508000X0*%
%ADD11O,2.940000X1.416000*%
%ADD12RoundRect,0.200000X-0.850000X-0.850000X0.850000X-0.850000X0.850000X0.850000X-0.850000X0.850000X0*%
%ADD13O,2.100000X2.100000*%
G04 APERTURE END LIST*
D10*
X118110000Y-57150000D03*
D11*
X118110000Y-58928000D03*
X118110000Y-60706000D03*
X118110000Y-62484000D03*
X118110000Y-64262000D03*
X118110000Y-66040000D03*
X118110000Y-67818000D03*
X118110000Y-69596000D03*
X118110000Y-71374000D03*
X118110000Y-73152000D03*
X118110000Y-74930000D03*
X118110000Y-76708000D03*
X118110000Y-78486000D03*
X118110000Y-80264000D03*
X118110000Y-82042000D03*
X118110000Y-83820000D03*
X118110000Y-85598000D03*
X118110000Y-87376000D03*
X118110000Y-89154000D03*
X118110000Y-90932000D03*
X118110000Y-92710000D03*
X118110000Y-94488000D03*
X118110000Y-96266000D03*
X118110000Y-98044000D03*
X118110000Y-99822000D03*
X118110000Y-101600000D03*
X118110000Y-103378000D03*
X118110000Y-105156000D03*
X118110000Y-106934000D03*
X118110000Y-108712000D03*
X118110000Y-110490000D03*
X118110000Y-112268000D03*
X137160000Y-112268000D03*
X137160000Y-110490000D03*
X137160000Y-108712000D03*
X137160000Y-106934000D03*
X137160000Y-105156000D03*
X137160000Y-103378000D03*
X137160000Y-101600000D03*
X137160000Y-99822000D03*
X137160000Y-98044000D03*
X137160000Y-96266000D03*
X137160000Y-94488000D03*
X137160000Y-92710000D03*
X137160000Y-90932000D03*
X137160000Y-89154000D03*
X137160000Y-87376000D03*
X137160000Y-85598000D03*
X137160000Y-83820000D03*
X137160000Y-82042000D03*
X137160000Y-80264000D03*
X137160000Y-78486000D03*
X137160000Y-76708000D03*
X137160000Y-74930000D03*
X137160000Y-73152000D03*
X137160000Y-71374000D03*
X137160000Y-69596000D03*
X137160000Y-67818000D03*
X137160000Y-66040000D03*
X137160000Y-64262000D03*
X137160000Y-62484000D03*
X137160000Y-60706000D03*
X137160000Y-58928000D03*
X137160000Y-57150000D03*
D12*
X143510000Y-45720000D03*
D13*
X143510000Y-48260000D03*
X143510000Y-50800000D03*
X143510000Y-53340000D03*
X143510000Y-55880000D03*
X143510000Y-58420000D03*
X143510000Y-60960000D03*
X143510000Y-63500000D03*
X143510000Y-66040000D03*
X143510000Y-68580000D03*
X143510000Y-71120000D03*
X143510000Y-73660000D03*
X143510000Y-76200000D03*
X143510000Y-78740000D03*
X143510000Y-81280000D03*
X143510000Y-83820000D03*
X143510000Y-86360000D03*
X143510000Y-88900000D03*
X143510000Y-91440000D03*
X143510000Y-93980000D03*
X143510000Y-96520000D03*
X143510000Y-99060000D03*
X143510000Y-101600000D03*
X143510000Y-104140000D03*
X143510000Y-106680000D03*
X143510000Y-109220000D03*
X143510000Y-111760000D03*
X143510000Y-114300000D03*
X143510000Y-116840000D03*
X143510000Y-119380000D03*
X143510000Y-121920000D03*
X143510000Y-124460000D03*
D12*
X111760000Y-45720000D03*
D13*
X111760000Y-48260000D03*
X111760000Y-50800000D03*
X111760000Y-53340000D03*
X111760000Y-55880000D03*
X111760000Y-58420000D03*
X111760000Y-60960000D03*
X111760000Y-63500000D03*
X111760000Y-66040000D03*
X111760000Y-68580000D03*
X111760000Y-71120000D03*
X111760000Y-73660000D03*
X111760000Y-76200000D03*
X111760000Y-78740000D03*
X111760000Y-81280000D03*
X111760000Y-83820000D03*
X111760000Y-86360000D03*
X111760000Y-88900000D03*
X111760000Y-91440000D03*
X111760000Y-93980000D03*
X111760000Y-96520000D03*
X111760000Y-99060000D03*
X111760000Y-101600000D03*
X111760000Y-104140000D03*
X111760000Y-106680000D03*
X111760000Y-109220000D03*
X111760000Y-111760000D03*
X111760000Y-114300000D03*
X111760000Y-116840000D03*
X111760000Y-119380000D03*
X111760000Y-121920000D03*
X111760000Y-124460000D03*
M02*
