M48
; DRILL file {KiCad (6.0.7)} date Tue Nov 29 19:46:22 2022
; FORMAT={-:-/ absolute / metric / decimal}
; #@! TF.CreationDate,2022-11-29T19:46:22-05:00
; #@! TF.GenerationSoftware,Kicad,Pcbnew,(6.0.7)
; #@! TF.FileFunction,NonPlated,1,2,NPTH
FMAT,2
METRIC
; #@! TA.AperFunction,NonPlated,NPTH,ComponentDrill
T1C1.700
; #@! TA.AperFunction,NonPlated,NPTH,ComponentDrill
T2C3.050
; #@! TA.AperFunction,NonPlated,NPTH,ComponentDrill
T3C4.000
%
G90
G05
T1
X42.095Y-60.282
X44.476Y-117.432
X44.476Y-136.482
X46.857Y-79.332
X49.239Y-98.382
X52.255Y-60.282
X54.636Y-117.432
X54.636Y-136.482
X57.017Y-79.332
X59.399Y-98.382
X61.145Y-60.282
X65.907Y-117.432
X68.289Y-136.482
X70.67Y-79.332
X71.305Y-60.282
X75.432Y-98.382
X76.067Y-117.432
X78.449Y-136.482
X80.195Y-60.282
X80.83Y-79.332
X84.957Y-117.432
X85.593Y-98.382
X89.72Y-79.332
X90.355Y-60.282
X92.101Y-136.482
X94.483Y-98.382
X95.117Y-117.432
X99.245Y-60.282
X99.88Y-79.332
X102.261Y-136.482
X104.007Y-117.432
X104.642Y-98.382
X108.77Y-79.332
X109.405Y-60.282
X113.532Y-98.382
X114.167Y-117.432
X118.295Y-60.282
X118.93Y-79.332
X123.057Y-117.432
X123.692Y-98.382
X127.82Y-79.332
X128.455Y-60.282
X132.582Y-98.382
X133.217Y-117.432
X137.345Y-60.282
X137.98Y-79.332
X142.107Y-117.432
X142.743Y-98.382
X146.87Y-79.332
X147.505Y-60.282
X151.632Y-98.382
X152.267Y-117.432
X156.395Y-60.282
X157.03Y-79.332
X161.157Y-117.432
X161.792Y-98.382
X163.538Y-136.482
X165.92Y-79.332
X166.555Y-60.282
X170.683Y-98.382
X171.317Y-117.432
X173.698Y-136.482
X175.445Y-60.282
X176.08Y-79.332
X180.207Y-117.432
X180.843Y-98.382
X184.97Y-79.332
X185.605Y-60.282
X189.732Y-98.382
X190.367Y-117.432
X194.495Y-60.282
X195.13Y-79.332
X199.257Y-117.432
X199.892Y-98.382
X204.02Y-79.332
X204.655Y-60.282
X208.782Y-98.382
X209.417Y-117.432
X213.545Y-60.282
X214.18Y-79.332
X218.307Y-117.432
X218.942Y-98.382
X223.07Y-79.332
X223.705Y-60.282
X227.832Y-98.382
X228.467Y-117.432
X232.595Y-60.282
X232.595Y-136.482
X233.23Y-79.332
X237.357Y-117.432
X237.992Y-98.382
X242.12Y-79.332
X242.755Y-60.282
X242.755Y-136.482
X246.882Y-98.382
X247.517Y-117.432
X251.645Y-60.282
X251.645Y-136.482
X252.28Y-79.332
X256.407Y-117.432
X257.042Y-98.382
X261.17Y-79.332
X261.805Y-60.282
X261.805Y-136.482
X265.932Y-98.382
X266.567Y-117.432
X270.695Y-60.282
X270.695Y-136.482
X271.33Y-79.332
X275.457Y-117.432
X276.092Y-98.382
X280.22Y-79.332
X280.855Y-60.282
X280.855Y-136.482
X285.617Y-117.432
X289.745Y-136.482
X290.38Y-79.332
X296.889Y-98.382
X299.27Y-60.282
X299.905Y-136.482
X301.651Y-117.432
X304.032Y-79.332
X307.049Y-98.382
X308.795Y-136.482
X309.43Y-60.282
X311.811Y-117.432
X314.192Y-79.332
X318.955Y-136.482
T2
X118.618Y-143.482
X218.618Y-143.482
X290.069Y-91.382
X292.45Y-53.282
X313.869Y-91.382
X316.25Y-53.282
T3
X47.175Y-60.282
X49.556Y-117.432
X49.556Y-136.482
X51.925Y-79.332
X54.319Y-98.382
X66.225Y-60.282
X70.987Y-117.432
X73.369Y-136.482
X75.75Y-79.332
X80.513Y-98.382
X85.275Y-60.282
X90.037Y-117.432
X94.8Y-79.332
X97.181Y-136.482
X99.562Y-98.382
X104.325Y-60.282
X109.087Y-117.432
X113.85Y-79.332
X118.612Y-98.382
X118.618Y-128.242
X123.375Y-60.282
X128.137Y-117.432
X132.9Y-79.332
X137.662Y-98.382
X142.425Y-60.282
X147.187Y-117.432
X151.95Y-79.332
X156.713Y-98.382
X161.475Y-60.282
X166.237Y-117.432
X168.618Y-136.482
X171.0Y-79.332
X175.762Y-98.382
X180.525Y-60.282
X185.287Y-117.432
X190.05Y-79.332
X194.812Y-98.382
X199.575Y-60.282
X204.337Y-117.432
X209.1Y-79.332
X213.862Y-98.382
X218.618Y-128.242
X218.625Y-60.282
X223.387Y-117.432
X228.15Y-79.332
X232.912Y-98.382
X237.675Y-60.282
X237.675Y-136.482
X242.437Y-117.432
X247.2Y-79.332
X251.962Y-98.382
X256.725Y-60.282
X256.725Y-136.482
X261.487Y-117.432
X266.25Y-79.332
X271.012Y-98.382
X275.775Y-60.282
X275.775Y-136.482
X280.537Y-117.432
X285.3Y-79.332
X290.069Y-106.622
X292.45Y-68.522
X294.825Y-136.482
X301.969Y-98.382
X304.35Y-60.282
X306.731Y-117.432
X309.113Y-79.332
X313.869Y-106.622
X313.875Y-136.482
X316.25Y-68.522
T0
M30
