M48
; DRILL file {KiCad (6.0.7)} date Tue Nov 29 19:46:22 2022
; FORMAT={-:-/ absolute / metric / decimal}
; #@! TF.CreationDate,2022-11-29T19:46:22-05:00
; #@! TF.GenerationSoftware,Kicad,Pcbnew,(6.0.7)
; #@! TF.FileFunction,Plated,1,2,PTH
FMAT,2
METRIC
; #@! TA.AperFunction,Plated,PTH,ViaDrill
T1C0.400
; #@! TA.AperFunction,Plated,PTH,ComponentDrill
T2C0.800
; #@! TA.AperFunction,Plated,PTH,ComponentDrill
T3C1.000
; #@! TA.AperFunction,Plated,PTH,ComponentDrill
T4C1.500
%
G90
G05
T1
X45.35Y-70.257
X45.743Y-124.95
X57.466Y-139.772
X67.95Y-88.857
X82.05Y-141.957
X118.245Y-70.162
X158.225Y-131.482
X164.65Y-68.157
X177.75Y-87.757
X178.75Y-67.257
X190.65Y-52.157
X191.65Y-109.857
X191.75Y-70.157
X192.65Y-68.157
X193.05Y-70.157
X197.25Y-70.957
X201.65Y-74.257
X202.15Y-64.057
X206.05Y-88.757
X211.75Y-109.857
X235.45Y-70.157
X238.651Y-67.304
X242.055Y-70.962
X254.45Y-68.157
X263.35Y-89.757
X293.65Y-127.657
X309.95Y-129.482
T2
X40.3Y-77.237
X40.3Y-84.857
X40.35Y-115.347
X40.35Y-122.967
X40.35Y-134.347
X40.35Y-141.967
X42.9Y-77.237
X42.9Y-84.857
X44.75Y-96.237
X44.75Y-103.857
X56.7Y-58.137
X56.7Y-65.757
X61.45Y-115.337
X61.45Y-122.957
X61.45Y-134.337
X61.45Y-141.957
X62.44Y-70.257
X70.06Y-70.257
X71.05Y-96.247
X71.05Y-103.867
X75.75Y-58.147
X75.75Y-65.767
X80.55Y-115.347
X80.55Y-122.967
X85.35Y-77.247
X85.35Y-84.867
X85.35Y-134.337
X85.35Y-141.957
X90.05Y-96.247
X90.05Y-103.867
X94.85Y-58.137
X94.85Y-65.757
X99.65Y-115.347
X99.65Y-122.967
X104.35Y-77.247
X104.35Y-84.867
X109.05Y-96.237
X109.05Y-103.857
X113.85Y-58.147
X113.85Y-65.767
X113.85Y-134.337
X113.85Y-141.957
X118.65Y-115.337
X118.65Y-122.957
X123.35Y-77.247
X123.35Y-84.867
X128.15Y-96.237
X128.15Y-103.857
X132.95Y-58.137
X132.95Y-65.757
X137.75Y-115.337
X137.75Y-122.957
X142.45Y-77.247
X142.45Y-84.867
X147.25Y-96.247
X147.25Y-103.867
X151.95Y-58.137
X151.95Y-65.757
X156.75Y-115.347
X156.75Y-122.967
X161.45Y-77.247
X161.45Y-84.867
X162.56Y-89.257
X170.18Y-89.257
X171.05Y-58.147
X171.05Y-65.767
X175.85Y-115.347
X175.85Y-122.967
X180.55Y-77.247
X180.55Y-84.867
X185.35Y-96.247
X185.35Y-103.867
X190.05Y-58.147
X190.05Y-65.767
X194.85Y-115.347
X194.85Y-122.967
X199.55Y-77.247
X199.55Y-84.867
X204.35Y-96.247
X204.35Y-103.867
X209.15Y-58.147
X209.15Y-65.767
X213.85Y-115.337
X213.85Y-122.957
X218.65Y-77.247
X218.65Y-84.867
X223.45Y-96.247
X223.45Y-103.867
X223.55Y-134.347
X223.55Y-141.967
X228.15Y-58.147
X228.15Y-65.767
X232.95Y-115.347
X232.95Y-122.967
X237.65Y-77.247
X237.65Y-84.867
X242.45Y-96.237
X242.45Y-103.857
X247.25Y-58.147
X247.25Y-65.767
X247.25Y-134.347
X247.25Y-141.967
X251.95Y-115.337
X251.95Y-122.957
X256.75Y-77.247
X256.75Y-84.867
X261.55Y-96.247
X261.55Y-103.867
X266.25Y-58.147
X266.25Y-65.767
X266.25Y-134.347
X266.25Y-141.967
X271.05Y-115.347
X271.05Y-122.967
X275.75Y-77.247
X275.75Y-84.867
X280.55Y-96.247
X280.55Y-103.867
X285.35Y-58.147
X285.35Y-65.767
X285.35Y-134.347
X285.35Y-141.967
X290.15Y-115.337
X290.15Y-122.957
X304.35Y-134.347
X304.35Y-141.967
X318.65Y-77.247
X318.65Y-84.867
T3
X169.095Y-45.66
X169.095Y-48.2
X171.635Y-45.66
X171.635Y-48.2
X174.175Y-45.66
X174.175Y-48.2
X176.715Y-45.66
X176.715Y-48.2
X179.255Y-45.66
X179.255Y-48.2
X181.795Y-45.66
X181.795Y-48.2
X184.335Y-45.66
X184.335Y-48.2
X186.875Y-45.66
X186.875Y-48.2
X189.415Y-45.66
X189.415Y-48.2
X191.955Y-45.66
X191.955Y-48.2
T4
X43.365Y-57.742
X45.746Y-114.892
X45.746Y-133.942
X48.127Y-76.792
X49.715Y-55.202
X50.509Y-95.842
X52.096Y-112.352
X52.096Y-131.402
X54.477Y-74.252
X56.859Y-93.302
X62.415Y-57.742
X67.177Y-114.892
X68.765Y-55.202
X69.559Y-133.942
X71.94Y-76.792
X73.527Y-112.352
X75.909Y-131.402
X76.703Y-95.842
X78.29Y-74.252
X81.465Y-57.742
X83.052Y-93.302
X86.227Y-114.892
X87.815Y-55.202
X90.99Y-76.792
X92.577Y-112.352
X93.371Y-133.942
X95.752Y-95.842
X97.34Y-74.252
X99.721Y-131.402
X100.515Y-57.742
X102.102Y-93.302
X105.277Y-114.892
X106.865Y-55.202
X110.04Y-76.792
X111.627Y-112.352
X114.802Y-95.842
X116.39Y-74.252
X119.565Y-57.742
X121.152Y-93.302
X124.327Y-114.892
X125.915Y-55.202
X129.09Y-76.792
X130.677Y-112.352
X133.852Y-95.842
X135.44Y-74.252
X138.615Y-57.742
X140.202Y-93.302
X143.377Y-114.892
X144.965Y-55.202
X148.14Y-76.792
X149.727Y-112.352
X152.903Y-95.842
X154.49Y-74.252
X157.665Y-57.742
X159.252Y-93.302
X162.427Y-114.892
X164.015Y-55.202
X166.078Y-141.562
X167.19Y-76.792
X168.777Y-112.352
X171.952Y-95.842
X172.428Y-139.022
X173.54Y-74.252
X176.715Y-57.742
X178.302Y-93.302
X181.477Y-114.892
X183.065Y-55.202
X186.24Y-76.792
X187.827Y-112.352
X191.002Y-95.842
X192.59Y-74.252
X195.765Y-57.742
X197.352Y-93.302
X200.527Y-114.892
X202.115Y-55.202
X205.29Y-76.792
X206.877Y-112.352
X210.052Y-95.842
X211.64Y-74.252
X214.815Y-57.742
X216.403Y-93.302
X219.577Y-114.892
X221.165Y-55.202
X224.34Y-76.792
X225.927Y-112.352
X229.102Y-95.842
X230.69Y-74.252
X233.865Y-57.742
X233.865Y-133.942
X235.452Y-93.302
X238.627Y-114.892
X240.215Y-55.202
X240.215Y-131.402
X243.39Y-76.792
X244.977Y-112.352
X248.152Y-95.842
X249.74Y-74.252
X252.915Y-57.742
X252.915Y-133.942
X254.502Y-93.302
X257.677Y-114.892
X259.265Y-55.202
X259.265Y-131.402
X262.44Y-76.792
X264.027Y-112.352
X267.202Y-95.842
X268.79Y-74.252
X271.965Y-57.742
X271.965Y-133.942
X273.552Y-93.302
X276.727Y-114.892
X278.315Y-55.202
X278.315Y-131.402
X281.49Y-76.792
X283.077Y-112.352
X287.84Y-74.252
X291.015Y-133.942
X297.365Y-131.402
X298.159Y-95.842
X300.54Y-57.742
X302.921Y-114.892
X304.509Y-93.302
X305.303Y-76.792
X306.89Y-55.202
X309.271Y-112.352
X310.065Y-133.942
X311.652Y-74.252
X316.415Y-131.402
T0
M30
