G04 #@! TF.GenerationSoftware,KiCad,Pcbnew,(6.0.7)*
G04 #@! TF.CreationDate,2022-11-29T19:45:25-05:00*
G04 #@! TF.ProjectId,Part 7 - Keyboard Basic,50617274-2037-4202-9d20-4b6579626f61,rev?*
G04 #@! TF.SameCoordinates,Original*
G04 #@! TF.FileFunction,Profile,NP*
%FSLAX46Y46*%
G04 Gerber Fmt 4.6, Leading zero omitted, Abs format (unit mm)*
G04 Created by KiCad (PCBNEW (6.0.7)) date 2022-11-29 19:45:25*
%MOMM*%
%LPD*%
G01*
G04 APERTURE LIST*
G04 #@! TA.AperFunction,Profile*
%ADD10C,0.150000*%
G04 #@! TD*
G04 #@! TA.AperFunction,Profile*
%ADD11C,0.100000*%
G04 #@! TD*
G04 APERTURE END LIST*
D10*
X40000000Y-108607093D02*
G75*
G03*
X40000000Y-106407107I0J1099993D01*
G01*
X163000000Y-51000000D02*
G75*
G03*
X164000000Y-50000000I0J1000000D01*
G01*
D11*
X109849999Y-135150001D02*
X107650000Y-135150000D01*
D10*
X197000000Y-50000000D02*
G75*
G03*
X198000000Y-51000000I1000000J0D01*
G01*
X320500000Y-126957107D02*
G75*
G03*
X320500000Y-126957107I-1100000J0D01*
G01*
D11*
X299150000Y-80049998D02*
G75*
G03*
X299150000Y-77850002I-170300J1099998D01*
G01*
D10*
X210200000Y-54757107D02*
G75*
G03*
X210200000Y-54757107I-1100000J0D01*
G01*
D11*
X109849999Y-137349999D02*
G75*
G03*
X109849999Y-135150001I-170299J1099999D01*
G01*
D10*
X196000000Y-42500000D02*
X165000000Y-42500000D01*
X164000000Y-50000000D02*
X164000000Y-43500000D01*
X323000000Y-108607107D02*
X321000000Y-108607107D01*
D11*
X64300000Y-80049998D02*
G75*
G03*
X64300000Y-77850002I-170300J1099998D01*
G01*
X296950002Y-77850000D02*
G75*
G03*
X296950002Y-80050000I159498J-1100000D01*
G01*
D10*
X42750000Y-126957107D02*
G75*
G03*
X42750000Y-126957107I-1100000J0D01*
G01*
D11*
X167300000Y-99149998D02*
G75*
G03*
X167300000Y-96950002I-170300J1099998D01*
G01*
D10*
X197000000Y-50000000D02*
X197000000Y-43500000D01*
D11*
X64300000Y-77850002D02*
X62100001Y-77850001D01*
D10*
X198000000Y-51000000D02*
X322000000Y-51007107D01*
X38000000Y-108607107D02*
X38000000Y-144607107D01*
D11*
X229599999Y-137349999D02*
X227400000Y-137350000D01*
D10*
X165000000Y-42500000D02*
G75*
G03*
X164000000Y-43500000I0J-1000000D01*
G01*
X286400000Y-54757107D02*
G75*
G03*
X286400000Y-54757107I-1100000J0D01*
G01*
X38000000Y-106407107D02*
X40000000Y-106407107D01*
D11*
X229599999Y-135150001D02*
X227400000Y-135150000D01*
D10*
X38000000Y-108607107D02*
X40000000Y-108607107D01*
X76850000Y-54757107D02*
G75*
G03*
X76850000Y-54757107I-1100000J0D01*
G01*
X323000000Y-106407107D02*
X321000000Y-106407107D01*
X163000000Y-51000000D02*
X39000000Y-51007107D01*
X321000000Y-106407093D02*
G75*
G03*
X321000000Y-108607107I0J-1100007D01*
G01*
X39000000Y-51007100D02*
G75*
G03*
X38000000Y-52007107I0J-1000000D01*
G01*
D11*
X299150000Y-80050000D02*
X296950001Y-80050001D01*
D10*
X37999993Y-144607107D02*
G75*
G03*
X39000000Y-145607107I1000007J7D01*
G01*
X153050000Y-54757107D02*
G75*
G03*
X153050000Y-54757107I-1100000J0D01*
G01*
D11*
X64300000Y-80050000D02*
X62100001Y-80050001D01*
X109849999Y-137349999D02*
X107650000Y-137350000D01*
D10*
X322999993Y-52007107D02*
G75*
G03*
X322000000Y-51007107I-999993J7D01*
G01*
X323000000Y-108607107D02*
X323000000Y-144607107D01*
D11*
X107650001Y-135150001D02*
G75*
G03*
X107650001Y-137349999I159499J-1099999D01*
G01*
D10*
X38000000Y-106407107D02*
X38000000Y-52007107D01*
D11*
X165100002Y-96950000D02*
G75*
G03*
X165100002Y-99150000I159498J-1100000D01*
G01*
X167300000Y-96950002D02*
X165100001Y-96950001D01*
D10*
X323000000Y-106407107D02*
X323000000Y-52007107D01*
D11*
X167300000Y-99150000D02*
X165100001Y-99150001D01*
D10*
X197000000Y-43500000D02*
G75*
G03*
X196000000Y-42500000I-1000000J0D01*
G01*
D11*
X227400001Y-135150001D02*
G75*
G03*
X227400001Y-137349999I159499J-1099999D01*
G01*
X229599999Y-137349999D02*
G75*
G03*
X229599999Y-135150001I-170299J1099999D01*
G01*
X62100002Y-77850000D02*
G75*
G03*
X62100002Y-80050000I159498J-1100000D01*
G01*
D10*
X322000000Y-145607100D02*
G75*
G03*
X323000000Y-144607107I0J1000000D01*
G01*
X39000000Y-145607107D02*
X322000000Y-145607107D01*
D11*
X299150000Y-77850002D02*
X296950001Y-77850001D01*
M02*
