%TF.GenerationSoftware,KiCad,Pcbnew,(6.0.9)*%
%TF.CreationDate,2022-12-02T19:16:37-05:00*%
%TF.ProjectId,Part 7 - Keyboard Basic,50617274-2037-4202-9d20-4b6579626f61,rev?*%
%TF.SameCoordinates,Original*%
%TF.FileFunction,Drillmap*%
%TF.FilePolarity,Positive*%
%FSLAX45Y45*%
G04 Gerber Fmt 4.5, Leading zero omitted, Abs format (unit mm)*
G04 Created by KiCad (PCBNEW (6.0.9)) date 2022-12-02 19:16:37*
%MOMM*%
%LPD*%
G01*
G04 APERTURE LIST*
%ADD10C,0.150000*%
%ADD11C,0.100000*%
%ADD12C,0.200000*%
%ADD13C,0.170000*%
%ADD14C,0.305000*%
%ADD15C,0.400000*%
G04 APERTURE END LIST*
D10*
X4000000Y-10860709D02*
G75*
G03*
X4000000Y-10640711I0J109999D01*
G01*
X16300000Y-5100000D02*
G75*
G03*
X16400000Y-5000000I0J100000D01*
G01*
D11*
X10985000Y-13515000D02*
X10765000Y-13515000D01*
D10*
X19700000Y-5000000D02*
G75*
G03*
X19800000Y-5100000I100000J0D01*
G01*
X32050000Y-12695711D02*
G75*
G03*
X32050000Y-12695711I-110000J0D01*
G01*
D11*
X29915000Y-8005000D02*
G75*
G03*
X29915000Y-7785000I-17030J110000D01*
G01*
D10*
X21020000Y-5475711D02*
G75*
G03*
X21020000Y-5475711I-110000J0D01*
G01*
D11*
X10985000Y-13735000D02*
G75*
G03*
X10985000Y-13515000I-17030J110000D01*
G01*
D10*
X19600000Y-4250000D02*
X16500000Y-4250000D01*
X16400000Y-5000000D02*
X16400000Y-4350000D01*
X32300000Y-10860711D02*
X32100000Y-10860711D01*
D11*
X6430000Y-8005000D02*
G75*
G03*
X6430000Y-7785000I-17030J110000D01*
G01*
X29695000Y-7785000D02*
G75*
G03*
X29695000Y-8005000I15950J-110000D01*
G01*
D10*
X4275000Y-12695711D02*
G75*
G03*
X4275000Y-12695711I-110000J0D01*
G01*
D11*
X16730000Y-9915000D02*
G75*
G03*
X16730000Y-9695000I-17030J110000D01*
G01*
D10*
X19700000Y-5000000D02*
X19700000Y-4350000D01*
D11*
X6430000Y-7785000D02*
X6210000Y-7785000D01*
D10*
X19800000Y-5100000D02*
X32200000Y-5100711D01*
X3800000Y-10860711D02*
X3800000Y-14460711D01*
D11*
X22960000Y-13735000D02*
X22740000Y-13735000D01*
D10*
X16500000Y-4250000D02*
G75*
G03*
X16400000Y-4350000I0J-100000D01*
G01*
X28640000Y-5475711D02*
G75*
G03*
X28640000Y-5475711I-110000J0D01*
G01*
X3800000Y-10640711D02*
X4000000Y-10640711D01*
D11*
X22960000Y-13515000D02*
X22740000Y-13515000D01*
D10*
X3800000Y-10860711D02*
X4000000Y-10860711D01*
X7685000Y-5475711D02*
G75*
G03*
X7685000Y-5475711I-110000J0D01*
G01*
X32300000Y-10640711D02*
X32100000Y-10640711D01*
X16300000Y-5100000D02*
X3900000Y-5100711D01*
X32100000Y-10640709D02*
G75*
G03*
X32100000Y-10860711I0J-110001D01*
G01*
X3900000Y-5100710D02*
G75*
G03*
X3800000Y-5200711I0J-100000D01*
G01*
D11*
X29915000Y-8005000D02*
X29695000Y-8005000D01*
D10*
X3799999Y-14460711D02*
G75*
G03*
X3900000Y-14560711I100001J1D01*
G01*
X15305000Y-5475711D02*
G75*
G03*
X15305000Y-5475711I-110000J0D01*
G01*
D11*
X6430000Y-8005000D02*
X6210000Y-8005000D01*
X10985000Y-13735000D02*
X10765000Y-13735000D01*
D10*
X32299999Y-5200711D02*
G75*
G03*
X32200000Y-5100711I-99999J1D01*
G01*
X32300000Y-10860711D02*
X32300000Y-14460711D01*
D11*
X10765000Y-13515000D02*
G75*
G03*
X10765000Y-13735000I15950J-110000D01*
G01*
D10*
X3800000Y-10640711D02*
X3800000Y-5200711D01*
D11*
X16510000Y-9695000D02*
G75*
G03*
X16510000Y-9915000I15950J-110000D01*
G01*
X16730000Y-9695000D02*
X16510000Y-9695000D01*
D10*
X32300000Y-10640711D02*
X32300000Y-5200711D01*
D11*
X16730000Y-9915000D02*
X16510000Y-9915000D01*
D10*
X19700000Y-4350000D02*
G75*
G03*
X19600000Y-4250000I-100000J0D01*
G01*
D11*
X22740000Y-13515000D02*
G75*
G03*
X22740000Y-13735000I15950J-110000D01*
G01*
X22960000Y-13735000D02*
G75*
G03*
X22960000Y-13515000I-17030J110000D01*
G01*
X6210000Y-7785000D02*
G75*
G03*
X6210000Y-8005000I15950J-110000D01*
G01*
D10*
X32200000Y-14560710D02*
G75*
G03*
X32300000Y-14460711I0J100000D01*
G01*
X3900000Y-14560711D02*
X32200000Y-14560711D01*
D11*
X29915000Y-7785000D02*
X29695000Y-7785000D01*
D12*
D13*
X4124500Y-5943211D02*
X4294500Y-6113211D01*
X4294500Y-5943211D02*
X4124500Y-6113211D01*
X4362625Y-11658211D02*
X4532625Y-11828211D01*
X4532625Y-11658211D02*
X4362625Y-11828211D01*
X4362625Y-13563211D02*
X4532625Y-13733211D01*
X4532625Y-13563211D02*
X4362625Y-13733211D01*
X4600750Y-7848211D02*
X4770750Y-8018211D01*
X4770750Y-7848211D02*
X4600750Y-8018211D01*
X4838875Y-9753211D02*
X5008875Y-9923211D01*
X5008875Y-9753211D02*
X4838875Y-9923211D01*
X5140500Y-5943211D02*
X5310500Y-6113211D01*
X5310500Y-5943211D02*
X5140500Y-6113211D01*
X5378625Y-11658211D02*
X5548625Y-11828211D01*
X5548625Y-11658211D02*
X5378625Y-11828211D01*
X5378625Y-13563211D02*
X5548625Y-13733211D01*
X5548625Y-13563211D02*
X5378625Y-13733211D01*
X5616750Y-7848211D02*
X5786750Y-8018211D01*
X5786750Y-7848211D02*
X5616750Y-8018211D01*
X5854875Y-9753211D02*
X6024875Y-9923211D01*
X6024875Y-9753211D02*
X5854875Y-9923211D01*
X6029500Y-5943211D02*
X6199500Y-6113211D01*
X6199500Y-5943211D02*
X6029500Y-6113211D01*
X6505700Y-11658220D02*
X6675700Y-11828220D01*
X6675700Y-11658220D02*
X6505700Y-11828220D01*
X6743875Y-13563211D02*
X6913875Y-13733211D01*
X6913875Y-13563211D02*
X6743875Y-13733211D01*
X6982000Y-7848211D02*
X7152000Y-8018211D01*
X7152000Y-7848211D02*
X6982000Y-8018211D01*
X7045500Y-5943211D02*
X7215500Y-6113211D01*
X7215500Y-5943211D02*
X7045500Y-6113211D01*
X7458250Y-9753211D02*
X7628250Y-9923211D01*
X7628250Y-9753211D02*
X7458250Y-9923211D01*
X7521700Y-11658220D02*
X7691700Y-11828220D01*
X7691700Y-11658220D02*
X7521700Y-11828220D01*
X7759875Y-13563211D02*
X7929875Y-13733211D01*
X7929875Y-13563211D02*
X7759875Y-13733211D01*
X7934500Y-5943211D02*
X8104500Y-6113211D01*
X8104500Y-5943211D02*
X7934500Y-6113211D01*
X7998000Y-7848211D02*
X8168000Y-8018211D01*
X8168000Y-7848211D02*
X7998000Y-8018211D01*
X8410700Y-11658220D02*
X8580700Y-11828220D01*
X8580700Y-11658220D02*
X8410700Y-11828220D01*
X8474250Y-9753211D02*
X8644250Y-9923211D01*
X8644250Y-9753211D02*
X8474250Y-9923211D01*
X8887000Y-7848211D02*
X9057000Y-8018211D01*
X9057000Y-7848211D02*
X8887000Y-8018211D01*
X8950500Y-5943211D02*
X9120500Y-6113211D01*
X9120500Y-5943211D02*
X8950500Y-6113211D01*
X9125125Y-13563211D02*
X9295125Y-13733211D01*
X9295125Y-13563211D02*
X9125125Y-13733211D01*
X9363250Y-9753211D02*
X9533250Y-9923211D01*
X9533250Y-9753211D02*
X9363250Y-9923211D01*
X9426700Y-11658220D02*
X9596700Y-11828220D01*
X9596700Y-11658220D02*
X9426700Y-11828220D01*
X9839500Y-5943211D02*
X10009500Y-6113211D01*
X10009500Y-5943211D02*
X9839500Y-6113211D01*
X9903000Y-7848211D02*
X10073000Y-8018211D01*
X10073000Y-7848211D02*
X9903000Y-8018211D01*
X10141125Y-13563211D02*
X10311125Y-13733211D01*
X10311125Y-13563211D02*
X10141125Y-13733211D01*
X10315700Y-11658220D02*
X10485700Y-11828220D01*
X10485700Y-11658220D02*
X10315700Y-11828220D01*
X10379250Y-9753211D02*
X10549250Y-9923211D01*
X10549250Y-9753211D02*
X10379250Y-9923211D01*
X10792000Y-7848211D02*
X10962000Y-8018211D01*
X10962000Y-7848211D02*
X10792000Y-8018211D01*
X10855500Y-5943211D02*
X11025500Y-6113211D01*
X11025500Y-5943211D02*
X10855500Y-6113211D01*
X11268250Y-9753211D02*
X11438250Y-9923211D01*
X11438250Y-9753211D02*
X11268250Y-9923211D01*
X11331700Y-11658220D02*
X11501700Y-11828220D01*
X11501700Y-11658220D02*
X11331700Y-11828220D01*
X11744500Y-5943211D02*
X11914500Y-6113211D01*
X11914500Y-5943211D02*
X11744500Y-6113211D01*
X11808000Y-7848211D02*
X11978000Y-8018211D01*
X11978000Y-7848211D02*
X11808000Y-8018211D01*
X12220700Y-11658220D02*
X12390700Y-11828220D01*
X12390700Y-11658220D02*
X12220700Y-11828220D01*
X12284250Y-9753211D02*
X12454250Y-9923211D01*
X12454250Y-9753211D02*
X12284250Y-9923211D01*
X12697000Y-7848211D02*
X12867000Y-8018211D01*
X12867000Y-7848211D02*
X12697000Y-8018211D01*
X12760500Y-5943211D02*
X12930500Y-6113211D01*
X12930500Y-5943211D02*
X12760500Y-6113211D01*
X13173250Y-9753211D02*
X13343250Y-9923211D01*
X13343250Y-9753211D02*
X13173250Y-9923211D01*
X13236700Y-11658220D02*
X13406700Y-11828220D01*
X13406700Y-11658220D02*
X13236700Y-11828220D01*
X13649500Y-5943211D02*
X13819500Y-6113211D01*
X13819500Y-5943211D02*
X13649500Y-6113211D01*
X13713000Y-7848211D02*
X13883000Y-8018211D01*
X13883000Y-7848211D02*
X13713000Y-8018211D01*
X14125700Y-11658220D02*
X14295700Y-11828220D01*
X14295700Y-11658220D02*
X14125700Y-11828220D01*
X14189250Y-9753211D02*
X14359250Y-9923211D01*
X14359250Y-9753211D02*
X14189250Y-9923211D01*
X14602000Y-7848211D02*
X14772000Y-8018211D01*
X14772000Y-7848211D02*
X14602000Y-8018211D01*
X14665500Y-5943211D02*
X14835500Y-6113211D01*
X14835500Y-5943211D02*
X14665500Y-6113211D01*
X15078250Y-9753211D02*
X15248250Y-9923211D01*
X15248250Y-9753211D02*
X15078250Y-9923211D01*
X15141700Y-11658220D02*
X15311700Y-11828220D01*
X15311700Y-11658220D02*
X15141700Y-11828220D01*
X15554500Y-5943211D02*
X15724500Y-6113211D01*
X15724500Y-5943211D02*
X15554500Y-6113211D01*
X15618000Y-7848211D02*
X15788000Y-8018211D01*
X15788000Y-7848211D02*
X15618000Y-8018211D01*
X16030700Y-11658220D02*
X16200700Y-11828220D01*
X16200700Y-11658220D02*
X16030700Y-11828220D01*
X16094250Y-9753211D02*
X16264250Y-9923211D01*
X16264250Y-9753211D02*
X16094250Y-9923211D01*
X16268850Y-13563200D02*
X16438850Y-13733200D01*
X16438850Y-13563200D02*
X16268850Y-13733200D01*
X16507000Y-7848211D02*
X16677000Y-8018211D01*
X16677000Y-7848211D02*
X16507000Y-8018211D01*
X16570500Y-5943211D02*
X16740500Y-6113211D01*
X16740500Y-5943211D02*
X16570500Y-6113211D01*
X16983250Y-9753211D02*
X17153250Y-9923211D01*
X17153250Y-9753211D02*
X16983250Y-9923211D01*
X17046700Y-11658220D02*
X17216700Y-11828220D01*
X17216700Y-11658220D02*
X17046700Y-11828220D01*
X17284850Y-13563200D02*
X17454850Y-13733200D01*
X17454850Y-13563200D02*
X17284850Y-13733200D01*
X17459500Y-5943211D02*
X17629500Y-6113211D01*
X17629500Y-5943211D02*
X17459500Y-6113211D01*
X17523000Y-7848211D02*
X17693000Y-8018211D01*
X17693000Y-7848211D02*
X17523000Y-8018211D01*
X17935700Y-11658220D02*
X18105700Y-11828220D01*
X18105700Y-11658220D02*
X17935700Y-11828220D01*
X17999250Y-9753211D02*
X18169250Y-9923211D01*
X18169250Y-9753211D02*
X17999250Y-9923211D01*
X18412000Y-7848211D02*
X18582000Y-8018211D01*
X18582000Y-7848211D02*
X18412000Y-8018211D01*
X18475500Y-5943211D02*
X18645500Y-6113211D01*
X18645500Y-5943211D02*
X18475500Y-6113211D01*
X18888250Y-9753211D02*
X19058250Y-9923211D01*
X19058250Y-9753211D02*
X18888250Y-9923211D01*
X18951700Y-11658220D02*
X19121700Y-11828220D01*
X19121700Y-11658220D02*
X18951700Y-11828220D01*
X19364500Y-5943211D02*
X19534500Y-6113211D01*
X19534500Y-5943211D02*
X19364500Y-6113211D01*
X19428000Y-7848211D02*
X19598000Y-8018211D01*
X19598000Y-7848211D02*
X19428000Y-8018211D01*
X19840700Y-11658220D02*
X20010700Y-11828220D01*
X20010700Y-11658220D02*
X19840700Y-11828220D01*
X19904250Y-9753211D02*
X20074250Y-9923211D01*
X20074250Y-9753211D02*
X19904250Y-9923211D01*
X20317000Y-7848211D02*
X20487000Y-8018211D01*
X20487000Y-7848211D02*
X20317000Y-8018211D01*
X20380500Y-5943211D02*
X20550500Y-6113211D01*
X20550500Y-5943211D02*
X20380500Y-6113211D01*
X20793250Y-9753211D02*
X20963250Y-9923211D01*
X20963250Y-9753211D02*
X20793250Y-9923211D01*
X20856700Y-11658220D02*
X21026700Y-11828220D01*
X21026700Y-11658220D02*
X20856700Y-11828220D01*
X21269500Y-5943211D02*
X21439500Y-6113211D01*
X21439500Y-5943211D02*
X21269500Y-6113211D01*
X21333000Y-7848211D02*
X21503000Y-8018211D01*
X21503000Y-7848211D02*
X21333000Y-8018211D01*
X21745700Y-11658220D02*
X21915700Y-11828220D01*
X21915700Y-11658220D02*
X21745700Y-11828220D01*
X21809250Y-9753211D02*
X21979250Y-9923211D01*
X21979250Y-9753211D02*
X21809250Y-9923211D01*
X22222000Y-7848230D02*
X22392000Y-8018230D01*
X22392000Y-7848230D02*
X22222000Y-8018230D01*
X22285500Y-5943211D02*
X22455500Y-6113211D01*
X22455500Y-5943211D02*
X22285500Y-6113211D01*
X22698250Y-9753211D02*
X22868250Y-9923211D01*
X22868250Y-9753211D02*
X22698250Y-9923211D01*
X22761700Y-11658220D02*
X22931700Y-11828220D01*
X22931700Y-11658220D02*
X22761700Y-11828220D01*
X23174500Y-5943211D02*
X23344500Y-6113211D01*
X23344500Y-5943211D02*
X23174500Y-6113211D01*
X23174500Y-13563200D02*
X23344500Y-13733200D01*
X23344500Y-13563200D02*
X23174500Y-13733200D01*
X23238000Y-7848230D02*
X23408000Y-8018230D01*
X23408000Y-7848230D02*
X23238000Y-8018230D01*
X23650700Y-11658220D02*
X23820700Y-11828220D01*
X23820700Y-11658220D02*
X23650700Y-11828220D01*
X23714250Y-9753211D02*
X23884250Y-9923211D01*
X23884250Y-9753211D02*
X23714250Y-9923211D01*
X24127000Y-7848200D02*
X24297000Y-8018200D01*
X24297000Y-7848200D02*
X24127000Y-8018200D01*
X24190500Y-5943211D02*
X24360500Y-6113211D01*
X24360500Y-5943211D02*
X24190500Y-6113211D01*
X24190500Y-13563200D02*
X24360500Y-13733200D01*
X24360500Y-13563200D02*
X24190500Y-13733200D01*
X24603250Y-9753211D02*
X24773250Y-9923211D01*
X24773250Y-9753211D02*
X24603250Y-9923211D01*
X24666700Y-11658220D02*
X24836700Y-11828220D01*
X24836700Y-11658220D02*
X24666700Y-11828220D01*
X25079500Y-5943211D02*
X25249500Y-6113211D01*
X25249500Y-5943211D02*
X25079500Y-6113211D01*
X25079500Y-13563220D02*
X25249500Y-13733220D01*
X25249500Y-13563220D02*
X25079500Y-13733220D01*
X25143000Y-7848200D02*
X25313000Y-8018200D01*
X25313000Y-7848200D02*
X25143000Y-8018200D01*
X25555700Y-11658220D02*
X25725700Y-11828220D01*
X25725700Y-11658220D02*
X25555700Y-11828220D01*
X25619250Y-9753211D02*
X25789250Y-9923211D01*
X25789250Y-9753211D02*
X25619250Y-9923211D01*
X26032000Y-7848200D02*
X26202000Y-8018200D01*
X26202000Y-7848200D02*
X26032000Y-8018200D01*
X26095500Y-5943211D02*
X26265500Y-6113211D01*
X26265500Y-5943211D02*
X26095500Y-6113211D01*
X26095500Y-13563220D02*
X26265500Y-13733220D01*
X26265500Y-13563220D02*
X26095500Y-13733220D01*
X26508240Y-9753211D02*
X26678240Y-9923211D01*
X26678240Y-9753211D02*
X26508240Y-9923211D01*
X26571700Y-11658220D02*
X26741700Y-11828220D01*
X26741700Y-11658220D02*
X26571700Y-11828220D01*
X26984500Y-5943211D02*
X27154500Y-6113211D01*
X27154500Y-5943211D02*
X26984500Y-6113211D01*
X26984500Y-13563220D02*
X27154500Y-13733220D01*
X27154500Y-13563220D02*
X26984500Y-13733220D01*
X27048000Y-7848200D02*
X27218000Y-8018200D01*
X27218000Y-7848200D02*
X27048000Y-8018200D01*
X27460700Y-11658220D02*
X27630700Y-11828220D01*
X27630700Y-11658220D02*
X27460700Y-11828220D01*
X27524240Y-9753211D02*
X27694240Y-9923211D01*
X27694240Y-9753211D02*
X27524240Y-9923211D01*
X27937000Y-7848200D02*
X28107000Y-8018200D01*
X28107000Y-7848200D02*
X27937000Y-8018200D01*
X28000500Y-5943211D02*
X28170500Y-6113211D01*
X28170500Y-5943211D02*
X28000500Y-6113211D01*
X28000500Y-13563220D02*
X28170500Y-13733220D01*
X28170500Y-13563220D02*
X28000500Y-13733220D01*
X28476700Y-11658220D02*
X28646700Y-11828220D01*
X28646700Y-11658220D02*
X28476700Y-11828220D01*
X28889500Y-13563220D02*
X29059500Y-13733220D01*
X29059500Y-13563220D02*
X28889500Y-13733220D01*
X28953000Y-7848200D02*
X29123000Y-8018200D01*
X29123000Y-7848200D02*
X28953000Y-8018200D01*
X29603875Y-9753211D02*
X29773875Y-9923211D01*
X29773875Y-9753211D02*
X29603875Y-9923211D01*
X29842000Y-5943210D02*
X30012000Y-6113210D01*
X30012000Y-5943210D02*
X29842000Y-6113210D01*
X29905500Y-13563220D02*
X30075500Y-13733220D01*
X30075500Y-13563220D02*
X29905500Y-13733220D01*
X30080130Y-11658220D02*
X30250130Y-11828220D01*
X30250130Y-11658220D02*
X30080130Y-11828220D01*
X30318250Y-7848200D02*
X30488250Y-8018200D01*
X30488250Y-7848200D02*
X30318250Y-8018200D01*
X30619875Y-9753211D02*
X30789875Y-9923211D01*
X30789875Y-9753211D02*
X30619875Y-9923211D01*
X30794500Y-13563220D02*
X30964500Y-13733220D01*
X30964500Y-13563220D02*
X30794500Y-13733220D01*
X30858000Y-5943210D02*
X31028000Y-6113210D01*
X31028000Y-5943210D02*
X30858000Y-6113210D01*
X31096130Y-11658220D02*
X31266130Y-11828220D01*
X31266130Y-11658220D02*
X31096130Y-11828220D01*
X31334250Y-7848200D02*
X31504250Y-8018200D01*
X31504250Y-7848200D02*
X31334250Y-8018200D01*
X31810500Y-13563220D02*
X31980500Y-13733220D01*
X31980500Y-13563220D02*
X31810500Y-13733220D01*
D14*
X12014350Y-14348200D02*
G75*
G03*
X12014350Y-14348200I-152500J0D01*
G01*
X22014350Y-14348200D02*
G75*
G03*
X22014350Y-14348200I-152500J0D01*
G01*
X29159375Y-9138211D02*
G75*
G03*
X29159375Y-9138211I-152500J0D01*
G01*
X29397500Y-5328210D02*
G75*
G03*
X29397500Y-5328210I-152500J0D01*
G01*
X31539375Y-9138211D02*
G75*
G03*
X31539375Y-9138211I-152500J0D01*
G01*
X31777500Y-5328210D02*
G75*
G03*
X31777500Y-5328210I-152500J0D01*
G01*
D15*
X4717500Y-5828211D02*
X4717500Y-6228211D01*
X4517500Y-6028211D02*
X4917500Y-6028211D01*
X4955625Y-11543211D02*
X4955625Y-11943211D01*
X4755625Y-11743211D02*
X5155625Y-11743211D01*
X4955625Y-13448211D02*
X4955625Y-13848211D01*
X4755625Y-13648211D02*
X5155625Y-13648211D01*
X5193750Y-7733211D02*
X5193750Y-8133211D01*
X4993750Y-7933211D02*
X5393750Y-7933211D01*
X5431875Y-9638211D02*
X5431875Y-10038211D01*
X5231875Y-9838211D02*
X5631875Y-9838211D01*
X6622500Y-5828211D02*
X6622500Y-6228211D01*
X6422500Y-6028211D02*
X6822500Y-6028211D01*
X7098700Y-11543220D02*
X7098700Y-11943220D01*
X6898700Y-11743220D02*
X7298700Y-11743220D01*
X7336875Y-13448211D02*
X7336875Y-13848211D01*
X7136875Y-13648211D02*
X7536875Y-13648211D01*
X7575000Y-7733211D02*
X7575000Y-8133211D01*
X7375000Y-7933211D02*
X7775000Y-7933211D01*
X8051250Y-9638211D02*
X8051250Y-10038211D01*
X7851250Y-9838211D02*
X8251250Y-9838211D01*
X8527500Y-5828211D02*
X8527500Y-6228211D01*
X8327500Y-6028211D02*
X8727500Y-6028211D01*
X9003700Y-11543220D02*
X9003700Y-11943220D01*
X8803700Y-11743220D02*
X9203700Y-11743220D01*
X9480000Y-7733211D02*
X9480000Y-8133211D01*
X9280000Y-7933211D02*
X9680000Y-7933211D01*
X9718125Y-13448211D02*
X9718125Y-13848211D01*
X9518125Y-13648211D02*
X9918125Y-13648211D01*
X9956250Y-9638211D02*
X9956250Y-10038211D01*
X9756250Y-9838211D02*
X10156250Y-9838211D01*
X10432500Y-5828211D02*
X10432500Y-6228211D01*
X10232500Y-6028211D02*
X10632500Y-6028211D01*
X10908700Y-11543220D02*
X10908700Y-11943220D01*
X10708700Y-11743220D02*
X11108700Y-11743220D01*
X11385000Y-7733211D02*
X11385000Y-8133211D01*
X11185000Y-7933211D02*
X11585000Y-7933211D01*
X11861250Y-9638211D02*
X11861250Y-10038211D01*
X11661250Y-9838211D02*
X12061250Y-9838211D01*
X11861850Y-12624200D02*
X11861850Y-13024200D01*
X11661850Y-12824200D02*
X12061850Y-12824200D01*
X12337500Y-5828211D02*
X12337500Y-6228211D01*
X12137500Y-6028211D02*
X12537500Y-6028211D01*
X12813700Y-11543220D02*
X12813700Y-11943220D01*
X12613700Y-11743220D02*
X13013700Y-11743220D01*
X13290000Y-7733211D02*
X13290000Y-8133211D01*
X13090000Y-7933211D02*
X13490000Y-7933211D01*
X13766250Y-9638211D02*
X13766250Y-10038211D01*
X13566250Y-9838211D02*
X13966250Y-9838211D01*
X14242500Y-5828211D02*
X14242500Y-6228211D01*
X14042500Y-6028211D02*
X14442500Y-6028211D01*
X14718700Y-11543220D02*
X14718700Y-11943220D01*
X14518700Y-11743220D02*
X14918700Y-11743220D01*
X15195000Y-7733211D02*
X15195000Y-8133211D01*
X14995000Y-7933211D02*
X15395000Y-7933211D01*
X15671250Y-9638211D02*
X15671250Y-10038211D01*
X15471250Y-9838211D02*
X15871250Y-9838211D01*
X16147500Y-5828211D02*
X16147500Y-6228211D01*
X15947500Y-6028211D02*
X16347500Y-6028211D01*
X16623700Y-11543220D02*
X16623700Y-11943220D01*
X16423700Y-11743220D02*
X16823700Y-11743220D01*
X16861850Y-13448200D02*
X16861850Y-13848200D01*
X16661850Y-13648200D02*
X17061850Y-13648200D01*
X17100000Y-7733211D02*
X17100000Y-8133211D01*
X16900000Y-7933211D02*
X17300000Y-7933211D01*
X17576250Y-9638211D02*
X17576250Y-10038211D01*
X17376250Y-9838211D02*
X17776250Y-9838211D01*
X18052500Y-5828211D02*
X18052500Y-6228211D01*
X17852500Y-6028211D02*
X18252500Y-6028211D01*
X18528700Y-11543220D02*
X18528700Y-11943220D01*
X18328700Y-11743220D02*
X18728700Y-11743220D01*
X19005000Y-7733211D02*
X19005000Y-8133211D01*
X18805000Y-7933211D02*
X19205000Y-7933211D01*
X19481250Y-9638211D02*
X19481250Y-10038211D01*
X19281250Y-9838211D02*
X19681250Y-9838211D01*
X19957500Y-5828211D02*
X19957500Y-6228211D01*
X19757500Y-6028211D02*
X20157500Y-6028211D01*
X20433700Y-11543220D02*
X20433700Y-11943220D01*
X20233700Y-11743220D02*
X20633700Y-11743220D01*
X20910000Y-7733211D02*
X20910000Y-8133211D01*
X20710000Y-7933211D02*
X21110000Y-7933211D01*
X21386250Y-9638211D02*
X21386250Y-10038211D01*
X21186250Y-9838211D02*
X21586250Y-9838211D01*
X21861850Y-12624200D02*
X21861850Y-13024200D01*
X21661850Y-12824200D02*
X22061850Y-12824200D01*
X21862500Y-5828211D02*
X21862500Y-6228211D01*
X21662500Y-6028211D02*
X22062500Y-6028211D01*
X22338700Y-11543220D02*
X22338700Y-11943220D01*
X22138700Y-11743220D02*
X22538700Y-11743220D01*
X22815000Y-7733230D02*
X22815000Y-8133230D01*
X22615000Y-7933230D02*
X23015000Y-7933230D01*
X23291250Y-9638211D02*
X23291250Y-10038211D01*
X23091250Y-9838211D02*
X23491250Y-9838211D01*
X23767500Y-5828211D02*
X23767500Y-6228211D01*
X23567500Y-6028211D02*
X23967500Y-6028211D01*
X23767500Y-13448200D02*
X23767500Y-13848200D01*
X23567500Y-13648200D02*
X23967500Y-13648200D01*
X24243700Y-11543220D02*
X24243700Y-11943220D01*
X24043700Y-11743220D02*
X24443700Y-11743220D01*
X24720000Y-7733200D02*
X24720000Y-8133200D01*
X24520000Y-7933200D02*
X24920000Y-7933200D01*
X25196250Y-9638211D02*
X25196250Y-10038211D01*
X24996250Y-9838211D02*
X25396250Y-9838211D01*
X25672500Y-5828211D02*
X25672500Y-6228211D01*
X25472500Y-6028211D02*
X25872500Y-6028211D01*
X25672500Y-13448220D02*
X25672500Y-13848220D01*
X25472500Y-13648220D02*
X25872500Y-13648220D01*
X26148700Y-11543220D02*
X26148700Y-11943220D01*
X25948700Y-11743220D02*
X26348700Y-11743220D01*
X26625000Y-7733200D02*
X26625000Y-8133200D01*
X26425000Y-7933200D02*
X26825000Y-7933200D01*
X27101240Y-9638211D02*
X27101240Y-10038211D01*
X26901240Y-9838211D02*
X27301240Y-9838211D01*
X27577500Y-5828211D02*
X27577500Y-6228211D01*
X27377500Y-6028211D02*
X27777500Y-6028211D01*
X27577500Y-13448220D02*
X27577500Y-13848220D01*
X27377500Y-13648220D02*
X27777500Y-13648220D01*
X28053700Y-11543220D02*
X28053700Y-11943220D01*
X27853700Y-11743220D02*
X28253700Y-11743220D01*
X28530000Y-7733200D02*
X28530000Y-8133200D01*
X28330000Y-7933200D02*
X28730000Y-7933200D01*
X29006875Y-10462211D02*
X29006875Y-10862211D01*
X28806875Y-10662211D02*
X29206875Y-10662211D01*
X29245000Y-6652210D02*
X29245000Y-7052210D01*
X29045000Y-6852210D02*
X29445000Y-6852210D01*
X29482500Y-13448220D02*
X29482500Y-13848220D01*
X29282500Y-13648220D02*
X29682500Y-13648220D01*
X30196875Y-9638211D02*
X30196875Y-10038211D01*
X29996875Y-9838211D02*
X30396875Y-9838211D01*
X30435000Y-5828210D02*
X30435000Y-6228210D01*
X30235000Y-6028210D02*
X30635000Y-6028210D01*
X30673130Y-11543220D02*
X30673130Y-11943220D01*
X30473130Y-11743220D02*
X30873130Y-11743220D01*
X30911250Y-7733200D02*
X30911250Y-8133200D01*
X30711250Y-7933200D02*
X31111250Y-7933200D01*
X31386875Y-10462211D02*
X31386875Y-10862211D01*
X31186875Y-10662211D02*
X31586875Y-10662211D01*
X31387500Y-13448220D02*
X31387500Y-13848220D01*
X31187500Y-13648220D02*
X31587500Y-13648220D01*
X31625000Y-6652210D02*
X31625000Y-7052210D01*
X31425000Y-6852210D02*
X31825000Y-6852210D01*
D12*
X4050119Y-14878687D02*
X4050119Y-14678687D01*
X4097738Y-14678687D01*
X4126309Y-14688211D01*
X4145357Y-14707258D01*
X4154881Y-14726306D01*
X4164405Y-14764401D01*
X4164405Y-14792973D01*
X4154881Y-14831068D01*
X4145357Y-14850115D01*
X4126309Y-14869163D01*
X4097738Y-14878687D01*
X4050119Y-14878687D01*
X4250119Y-14878687D02*
X4250119Y-14745353D01*
X4250119Y-14783449D02*
X4259643Y-14764401D01*
X4269167Y-14754877D01*
X4288214Y-14745353D01*
X4307262Y-14745353D01*
X4373929Y-14878687D02*
X4373929Y-14745353D01*
X4373929Y-14678687D02*
X4364405Y-14688211D01*
X4373929Y-14697734D01*
X4383452Y-14688211D01*
X4373929Y-14678687D01*
X4373929Y-14697734D01*
X4497738Y-14878687D02*
X4478690Y-14869163D01*
X4469167Y-14850115D01*
X4469167Y-14678687D01*
X4602500Y-14878687D02*
X4583452Y-14869163D01*
X4573929Y-14850115D01*
X4573929Y-14678687D01*
X4831071Y-14878687D02*
X4831071Y-14678687D01*
X4897738Y-14821544D01*
X4964405Y-14678687D01*
X4964405Y-14878687D01*
X5145357Y-14878687D02*
X5145357Y-14773925D01*
X5135833Y-14754877D01*
X5116786Y-14745353D01*
X5078690Y-14745353D01*
X5059643Y-14754877D01*
X5145357Y-14869163D02*
X5126310Y-14878687D01*
X5078690Y-14878687D01*
X5059643Y-14869163D01*
X5050119Y-14850115D01*
X5050119Y-14831068D01*
X5059643Y-14812020D01*
X5078690Y-14802496D01*
X5126310Y-14802496D01*
X5145357Y-14792973D01*
X5240595Y-14745353D02*
X5240595Y-14945353D01*
X5240595Y-14754877D02*
X5259643Y-14745353D01*
X5297738Y-14745353D01*
X5316786Y-14754877D01*
X5326310Y-14764401D01*
X5335833Y-14783449D01*
X5335833Y-14840592D01*
X5326310Y-14859639D01*
X5316786Y-14869163D01*
X5297738Y-14878687D01*
X5259643Y-14878687D01*
X5240595Y-14869163D01*
X5421548Y-14859639D02*
X5431071Y-14869163D01*
X5421548Y-14878687D01*
X5412024Y-14869163D01*
X5421548Y-14859639D01*
X5421548Y-14878687D01*
X5421548Y-14754877D02*
X5431071Y-14764401D01*
X5421548Y-14773925D01*
X5412024Y-14764401D01*
X5421548Y-14754877D01*
X5421548Y-14773925D01*
D13*
X3622500Y-15123211D02*
X3792500Y-15293211D01*
X3792500Y-15123211D02*
X3622500Y-15293211D01*
D12*
X4154881Y-15298687D02*
X4040595Y-15298687D01*
X4097738Y-15298687D02*
X4097738Y-15098687D01*
X4078690Y-15127258D01*
X4059643Y-15146306D01*
X4040595Y-15155830D01*
X4240595Y-15279639D02*
X4250119Y-15289163D01*
X4240595Y-15298687D01*
X4231071Y-15289163D01*
X4240595Y-15279639D01*
X4240595Y-15298687D01*
X4316786Y-15098687D02*
X4450119Y-15098687D01*
X4364405Y-15298687D01*
X4564405Y-15098687D02*
X4583452Y-15098687D01*
X4602500Y-15108211D01*
X4612024Y-15117734D01*
X4621548Y-15136782D01*
X4631071Y-15174877D01*
X4631071Y-15222496D01*
X4621548Y-15260592D01*
X4612024Y-15279639D01*
X4602500Y-15289163D01*
X4583452Y-15298687D01*
X4564405Y-15298687D01*
X4545357Y-15289163D01*
X4535833Y-15279639D01*
X4526310Y-15260592D01*
X4516786Y-15222496D01*
X4516786Y-15174877D01*
X4526310Y-15136782D01*
X4535833Y-15117734D01*
X4545357Y-15108211D01*
X4564405Y-15098687D01*
X4754881Y-15098687D02*
X4773929Y-15098687D01*
X4792976Y-15108211D01*
X4802500Y-15117734D01*
X4812024Y-15136782D01*
X4821548Y-15174877D01*
X4821548Y-15222496D01*
X4812024Y-15260592D01*
X4802500Y-15279639D01*
X4792976Y-15289163D01*
X4773929Y-15298687D01*
X4754881Y-15298687D01*
X4735833Y-15289163D01*
X4726310Y-15279639D01*
X4716786Y-15260592D01*
X4707262Y-15222496D01*
X4707262Y-15174877D01*
X4716786Y-15136782D01*
X4726310Y-15117734D01*
X4735833Y-15108211D01*
X4754881Y-15098687D01*
X4907262Y-15298687D02*
X4907262Y-15165353D01*
X4907262Y-15184401D02*
X4916786Y-15174877D01*
X4935833Y-15165353D01*
X4964405Y-15165353D01*
X4983452Y-15174877D01*
X4992976Y-15193925D01*
X4992976Y-15298687D01*
X4992976Y-15193925D02*
X5002500Y-15174877D01*
X5021548Y-15165353D01*
X5050119Y-15165353D01*
X5069167Y-15174877D01*
X5078690Y-15193925D01*
X5078690Y-15298687D01*
X5173929Y-15298687D02*
X5173929Y-15165353D01*
X5173929Y-15184401D02*
X5183452Y-15174877D01*
X5202500Y-15165353D01*
X5231071Y-15165353D01*
X5250119Y-15174877D01*
X5259643Y-15193925D01*
X5259643Y-15298687D01*
X5259643Y-15193925D02*
X5269167Y-15174877D01*
X5288214Y-15165353D01*
X5316786Y-15165353D01*
X5335833Y-15174877D01*
X5345357Y-15193925D01*
X5345357Y-15298687D01*
X5735833Y-15089163D02*
X5564405Y-15346306D01*
X5992976Y-15098687D02*
X6012024Y-15098687D01*
X6031071Y-15108211D01*
X6040595Y-15117734D01*
X6050119Y-15136782D01*
X6059643Y-15174877D01*
X6059643Y-15222496D01*
X6050119Y-15260592D01*
X6040595Y-15279639D01*
X6031071Y-15289163D01*
X6012024Y-15298687D01*
X5992976Y-15298687D01*
X5973928Y-15289163D01*
X5964405Y-15279639D01*
X5954881Y-15260592D01*
X5945357Y-15222496D01*
X5945357Y-15174877D01*
X5954881Y-15136782D01*
X5964405Y-15117734D01*
X5973928Y-15108211D01*
X5992976Y-15098687D01*
X6145357Y-15279639D02*
X6154881Y-15289163D01*
X6145357Y-15298687D01*
X6135833Y-15289163D01*
X6145357Y-15279639D01*
X6145357Y-15298687D01*
X6278690Y-15098687D02*
X6297738Y-15098687D01*
X6316786Y-15108211D01*
X6326309Y-15117734D01*
X6335833Y-15136782D01*
X6345357Y-15174877D01*
X6345357Y-15222496D01*
X6335833Y-15260592D01*
X6326309Y-15279639D01*
X6316786Y-15289163D01*
X6297738Y-15298687D01*
X6278690Y-15298687D01*
X6259643Y-15289163D01*
X6250119Y-15279639D01*
X6240595Y-15260592D01*
X6231071Y-15222496D01*
X6231071Y-15174877D01*
X6240595Y-15136782D01*
X6250119Y-15117734D01*
X6259643Y-15108211D01*
X6278690Y-15098687D01*
X6516786Y-15098687D02*
X6478690Y-15098687D01*
X6459643Y-15108211D01*
X6450119Y-15117734D01*
X6431071Y-15146306D01*
X6421548Y-15184401D01*
X6421548Y-15260592D01*
X6431071Y-15279639D01*
X6440595Y-15289163D01*
X6459643Y-15298687D01*
X6497738Y-15298687D01*
X6516786Y-15289163D01*
X6526309Y-15279639D01*
X6535833Y-15260592D01*
X6535833Y-15212973D01*
X6526309Y-15193925D01*
X6516786Y-15184401D01*
X6497738Y-15174877D01*
X6459643Y-15174877D01*
X6440595Y-15184401D01*
X6431071Y-15193925D01*
X6421548Y-15212973D01*
X6707262Y-15098687D02*
X6669167Y-15098687D01*
X6650119Y-15108211D01*
X6640595Y-15117734D01*
X6621548Y-15146306D01*
X6612024Y-15184401D01*
X6612024Y-15260592D01*
X6621548Y-15279639D01*
X6631071Y-15289163D01*
X6650119Y-15298687D01*
X6688214Y-15298687D01*
X6707262Y-15289163D01*
X6716786Y-15279639D01*
X6726309Y-15260592D01*
X6726309Y-15212973D01*
X6716786Y-15193925D01*
X6707262Y-15184401D01*
X6688214Y-15174877D01*
X6650119Y-15174877D01*
X6631071Y-15184401D01*
X6621548Y-15193925D01*
X6612024Y-15212973D01*
X6821548Y-15298687D02*
X6859643Y-15298687D01*
X6878690Y-15289163D01*
X6888214Y-15279639D01*
X6907262Y-15251068D01*
X6916786Y-15212973D01*
X6916786Y-15136782D01*
X6907262Y-15117734D01*
X6897738Y-15108211D01*
X6878690Y-15098687D01*
X6840595Y-15098687D01*
X6821548Y-15108211D01*
X6812024Y-15117734D01*
X6802500Y-15136782D01*
X6802500Y-15184401D01*
X6812024Y-15203449D01*
X6821548Y-15212973D01*
X6840595Y-15222496D01*
X6878690Y-15222496D01*
X6897738Y-15212973D01*
X6907262Y-15203449D01*
X6916786Y-15184401D01*
X6992976Y-15098687D02*
X6992976Y-15136782D01*
X7069167Y-15098687D02*
X7069167Y-15136782D01*
X7364405Y-15374877D02*
X7354881Y-15365353D01*
X7335833Y-15336782D01*
X7326309Y-15317734D01*
X7316786Y-15289163D01*
X7307262Y-15241544D01*
X7307262Y-15203449D01*
X7316786Y-15155830D01*
X7326309Y-15127258D01*
X7335833Y-15108211D01*
X7354881Y-15079639D01*
X7364405Y-15070115D01*
X7545357Y-15298687D02*
X7431071Y-15298687D01*
X7488214Y-15298687D02*
X7488214Y-15098687D01*
X7469167Y-15127258D01*
X7450119Y-15146306D01*
X7431071Y-15155830D01*
X7621548Y-15117734D02*
X7631071Y-15108211D01*
X7650119Y-15098687D01*
X7697738Y-15098687D01*
X7716786Y-15108211D01*
X7726309Y-15117734D01*
X7735833Y-15136782D01*
X7735833Y-15155830D01*
X7726309Y-15184401D01*
X7612024Y-15298687D01*
X7735833Y-15298687D01*
X7850119Y-15184401D02*
X7831071Y-15174877D01*
X7821548Y-15165353D01*
X7812024Y-15146306D01*
X7812024Y-15136782D01*
X7821548Y-15117734D01*
X7831071Y-15108211D01*
X7850119Y-15098687D01*
X7888214Y-15098687D01*
X7907262Y-15108211D01*
X7916786Y-15117734D01*
X7926309Y-15136782D01*
X7926309Y-15146306D01*
X7916786Y-15165353D01*
X7907262Y-15174877D01*
X7888214Y-15184401D01*
X7850119Y-15184401D01*
X7831071Y-15193925D01*
X7821548Y-15203449D01*
X7812024Y-15222496D01*
X7812024Y-15260592D01*
X7821548Y-15279639D01*
X7831071Y-15289163D01*
X7850119Y-15298687D01*
X7888214Y-15298687D01*
X7907262Y-15289163D01*
X7916786Y-15279639D01*
X7926309Y-15260592D01*
X7926309Y-15222496D01*
X7916786Y-15203449D01*
X7907262Y-15193925D01*
X7888214Y-15184401D01*
X8164405Y-15298687D02*
X8164405Y-15098687D01*
X8250119Y-15298687D02*
X8250119Y-15193925D01*
X8240595Y-15174877D01*
X8221548Y-15165353D01*
X8192976Y-15165353D01*
X8173928Y-15174877D01*
X8164405Y-15184401D01*
X8373928Y-15298687D02*
X8354881Y-15289163D01*
X8345357Y-15279639D01*
X8335833Y-15260592D01*
X8335833Y-15203449D01*
X8345357Y-15184401D01*
X8354881Y-15174877D01*
X8373928Y-15165353D01*
X8402500Y-15165353D01*
X8421548Y-15174877D01*
X8431071Y-15184401D01*
X8440595Y-15203449D01*
X8440595Y-15260592D01*
X8431071Y-15279639D01*
X8421548Y-15289163D01*
X8402500Y-15298687D01*
X8373928Y-15298687D01*
X8554881Y-15298687D02*
X8535833Y-15289163D01*
X8526310Y-15270115D01*
X8526310Y-15098687D01*
X8707262Y-15289163D02*
X8688214Y-15298687D01*
X8650119Y-15298687D01*
X8631071Y-15289163D01*
X8621548Y-15270115D01*
X8621548Y-15193925D01*
X8631071Y-15174877D01*
X8650119Y-15165353D01*
X8688214Y-15165353D01*
X8707262Y-15174877D01*
X8716786Y-15193925D01*
X8716786Y-15212973D01*
X8621548Y-15232020D01*
X8792976Y-15289163D02*
X8812024Y-15298687D01*
X8850119Y-15298687D01*
X8869167Y-15289163D01*
X8878690Y-15270115D01*
X8878690Y-15260592D01*
X8869167Y-15241544D01*
X8850119Y-15232020D01*
X8821548Y-15232020D01*
X8802500Y-15222496D01*
X8792976Y-15203449D01*
X8792976Y-15193925D01*
X8802500Y-15174877D01*
X8821548Y-15165353D01*
X8850119Y-15165353D01*
X8869167Y-15174877D01*
X8945357Y-15374877D02*
X8954881Y-15365353D01*
X8973929Y-15336782D01*
X8983452Y-15317734D01*
X8992976Y-15289163D01*
X9002500Y-15241544D01*
X9002500Y-15203449D01*
X8992976Y-15155830D01*
X8983452Y-15127258D01*
X8973929Y-15108211D01*
X8954881Y-15079639D01*
X8945357Y-15070115D01*
X9307262Y-15374877D02*
X9297738Y-15365353D01*
X9278690Y-15336782D01*
X9269167Y-15317734D01*
X9259643Y-15289163D01*
X9250119Y-15241544D01*
X9250119Y-15203449D01*
X9259643Y-15155830D01*
X9269167Y-15127258D01*
X9278690Y-15108211D01*
X9297738Y-15079639D01*
X9307262Y-15070115D01*
X9383452Y-15165353D02*
X9383452Y-15298687D01*
X9383452Y-15184401D02*
X9392976Y-15174877D01*
X9412024Y-15165353D01*
X9440595Y-15165353D01*
X9459643Y-15174877D01*
X9469167Y-15193925D01*
X9469167Y-15298687D01*
X9592976Y-15298687D02*
X9573929Y-15289163D01*
X9564405Y-15279639D01*
X9554881Y-15260592D01*
X9554881Y-15203449D01*
X9564405Y-15184401D01*
X9573929Y-15174877D01*
X9592976Y-15165353D01*
X9621548Y-15165353D01*
X9640595Y-15174877D01*
X9650119Y-15184401D01*
X9659643Y-15203449D01*
X9659643Y-15260592D01*
X9650119Y-15279639D01*
X9640595Y-15289163D01*
X9621548Y-15298687D01*
X9592976Y-15298687D01*
X9716786Y-15165353D02*
X9792976Y-15165353D01*
X9745357Y-15098687D02*
X9745357Y-15270115D01*
X9754881Y-15289163D01*
X9773929Y-15298687D01*
X9792976Y-15298687D01*
X10012024Y-15165353D02*
X10012024Y-15365353D01*
X10012024Y-15174877D02*
X10031071Y-15165353D01*
X10069167Y-15165353D01*
X10088214Y-15174877D01*
X10097738Y-15184401D01*
X10107262Y-15203449D01*
X10107262Y-15260592D01*
X10097738Y-15279639D01*
X10088214Y-15289163D01*
X10069167Y-15298687D01*
X10031071Y-15298687D01*
X10012024Y-15289163D01*
X10221548Y-15298687D02*
X10202500Y-15289163D01*
X10192976Y-15270115D01*
X10192976Y-15098687D01*
X10383452Y-15298687D02*
X10383452Y-15193925D01*
X10373929Y-15174877D01*
X10354881Y-15165353D01*
X10316786Y-15165353D01*
X10297738Y-15174877D01*
X10383452Y-15289163D02*
X10364405Y-15298687D01*
X10316786Y-15298687D01*
X10297738Y-15289163D01*
X10288214Y-15270115D01*
X10288214Y-15251068D01*
X10297738Y-15232020D01*
X10316786Y-15222496D01*
X10364405Y-15222496D01*
X10383452Y-15212973D01*
X10450119Y-15165353D02*
X10526310Y-15165353D01*
X10478690Y-15098687D02*
X10478690Y-15270115D01*
X10488214Y-15289163D01*
X10507262Y-15298687D01*
X10526310Y-15298687D01*
X10669167Y-15289163D02*
X10650119Y-15298687D01*
X10612024Y-15298687D01*
X10592976Y-15289163D01*
X10583452Y-15270115D01*
X10583452Y-15193925D01*
X10592976Y-15174877D01*
X10612024Y-15165353D01*
X10650119Y-15165353D01*
X10669167Y-15174877D01*
X10678690Y-15193925D01*
X10678690Y-15212973D01*
X10583452Y-15232020D01*
X10850119Y-15298687D02*
X10850119Y-15098687D01*
X10850119Y-15289163D02*
X10831071Y-15298687D01*
X10792976Y-15298687D01*
X10773929Y-15289163D01*
X10764405Y-15279639D01*
X10754881Y-15260592D01*
X10754881Y-15203449D01*
X10764405Y-15184401D01*
X10773929Y-15174877D01*
X10792976Y-15165353D01*
X10831071Y-15165353D01*
X10850119Y-15174877D01*
X10926310Y-15374877D02*
X10935833Y-15365353D01*
X10954881Y-15336782D01*
X10964405Y-15317734D01*
X10973929Y-15289163D01*
X10983452Y-15241544D01*
X10983452Y-15203449D01*
X10973929Y-15155830D01*
X10964405Y-15127258D01*
X10954881Y-15108211D01*
X10935833Y-15079639D01*
X10926310Y-15070115D01*
X3792500Y-15498211D02*
G75*
G03*
X3792500Y-15498211I-100000J0D01*
G01*
X4031071Y-15388687D02*
X4154881Y-15388687D01*
X4088214Y-15464877D01*
X4116786Y-15464877D01*
X4135833Y-15474401D01*
X4145357Y-15483925D01*
X4154881Y-15502973D01*
X4154881Y-15550592D01*
X4145357Y-15569639D01*
X4135833Y-15579163D01*
X4116786Y-15588687D01*
X4059643Y-15588687D01*
X4040595Y-15579163D01*
X4031071Y-15569639D01*
X4240595Y-15569639D02*
X4250119Y-15579163D01*
X4240595Y-15588687D01*
X4231071Y-15579163D01*
X4240595Y-15569639D01*
X4240595Y-15588687D01*
X4373929Y-15388687D02*
X4392976Y-15388687D01*
X4412024Y-15398211D01*
X4421548Y-15407734D01*
X4431071Y-15426782D01*
X4440595Y-15464877D01*
X4440595Y-15512496D01*
X4431071Y-15550592D01*
X4421548Y-15569639D01*
X4412024Y-15579163D01*
X4392976Y-15588687D01*
X4373929Y-15588687D01*
X4354881Y-15579163D01*
X4345357Y-15569639D01*
X4335833Y-15550592D01*
X4326310Y-15512496D01*
X4326310Y-15464877D01*
X4335833Y-15426782D01*
X4345357Y-15407734D01*
X4354881Y-15398211D01*
X4373929Y-15388687D01*
X4621548Y-15388687D02*
X4526310Y-15388687D01*
X4516786Y-15483925D01*
X4526310Y-15474401D01*
X4545357Y-15464877D01*
X4592976Y-15464877D01*
X4612024Y-15474401D01*
X4621548Y-15483925D01*
X4631071Y-15502973D01*
X4631071Y-15550592D01*
X4621548Y-15569639D01*
X4612024Y-15579163D01*
X4592976Y-15588687D01*
X4545357Y-15588687D01*
X4526310Y-15579163D01*
X4516786Y-15569639D01*
X4754881Y-15388687D02*
X4773929Y-15388687D01*
X4792976Y-15398211D01*
X4802500Y-15407734D01*
X4812024Y-15426782D01*
X4821548Y-15464877D01*
X4821548Y-15512496D01*
X4812024Y-15550592D01*
X4802500Y-15569639D01*
X4792976Y-15579163D01*
X4773929Y-15588687D01*
X4754881Y-15588687D01*
X4735833Y-15579163D01*
X4726310Y-15569639D01*
X4716786Y-15550592D01*
X4707262Y-15512496D01*
X4707262Y-15464877D01*
X4716786Y-15426782D01*
X4726310Y-15407734D01*
X4735833Y-15398211D01*
X4754881Y-15388687D01*
X4907262Y-15588687D02*
X4907262Y-15455353D01*
X4907262Y-15474401D02*
X4916786Y-15464877D01*
X4935833Y-15455353D01*
X4964405Y-15455353D01*
X4983452Y-15464877D01*
X4992976Y-15483925D01*
X4992976Y-15588687D01*
X4992976Y-15483925D02*
X5002500Y-15464877D01*
X5021548Y-15455353D01*
X5050119Y-15455353D01*
X5069167Y-15464877D01*
X5078690Y-15483925D01*
X5078690Y-15588687D01*
X5173929Y-15588687D02*
X5173929Y-15455353D01*
X5173929Y-15474401D02*
X5183452Y-15464877D01*
X5202500Y-15455353D01*
X5231071Y-15455353D01*
X5250119Y-15464877D01*
X5259643Y-15483925D01*
X5259643Y-15588687D01*
X5259643Y-15483925D02*
X5269167Y-15464877D01*
X5288214Y-15455353D01*
X5316786Y-15455353D01*
X5335833Y-15464877D01*
X5345357Y-15483925D01*
X5345357Y-15588687D01*
X5735833Y-15379163D02*
X5564405Y-15636306D01*
X5992976Y-15388687D02*
X6012024Y-15388687D01*
X6031071Y-15398211D01*
X6040595Y-15407734D01*
X6050119Y-15426782D01*
X6059643Y-15464877D01*
X6059643Y-15512496D01*
X6050119Y-15550592D01*
X6040595Y-15569639D01*
X6031071Y-15579163D01*
X6012024Y-15588687D01*
X5992976Y-15588687D01*
X5973928Y-15579163D01*
X5964405Y-15569639D01*
X5954881Y-15550592D01*
X5945357Y-15512496D01*
X5945357Y-15464877D01*
X5954881Y-15426782D01*
X5964405Y-15407734D01*
X5973928Y-15398211D01*
X5992976Y-15388687D01*
X6145357Y-15569639D02*
X6154881Y-15579163D01*
X6145357Y-15588687D01*
X6135833Y-15579163D01*
X6145357Y-15569639D01*
X6145357Y-15588687D01*
X6345357Y-15588687D02*
X6231071Y-15588687D01*
X6288214Y-15588687D02*
X6288214Y-15388687D01*
X6269167Y-15417258D01*
X6250119Y-15436306D01*
X6231071Y-15445830D01*
X6421548Y-15407734D02*
X6431071Y-15398211D01*
X6450119Y-15388687D01*
X6497738Y-15388687D01*
X6516786Y-15398211D01*
X6526309Y-15407734D01*
X6535833Y-15426782D01*
X6535833Y-15445830D01*
X6526309Y-15474401D01*
X6412024Y-15588687D01*
X6535833Y-15588687D01*
X6659643Y-15388687D02*
X6678690Y-15388687D01*
X6697738Y-15398211D01*
X6707262Y-15407734D01*
X6716786Y-15426782D01*
X6726309Y-15464877D01*
X6726309Y-15512496D01*
X6716786Y-15550592D01*
X6707262Y-15569639D01*
X6697738Y-15579163D01*
X6678690Y-15588687D01*
X6659643Y-15588687D01*
X6640595Y-15579163D01*
X6631071Y-15569639D01*
X6621548Y-15550592D01*
X6612024Y-15512496D01*
X6612024Y-15464877D01*
X6621548Y-15426782D01*
X6631071Y-15407734D01*
X6640595Y-15398211D01*
X6659643Y-15388687D01*
X6916786Y-15588687D02*
X6802500Y-15588687D01*
X6859643Y-15588687D02*
X6859643Y-15388687D01*
X6840595Y-15417258D01*
X6821548Y-15436306D01*
X6802500Y-15445830D01*
X6992976Y-15388687D02*
X6992976Y-15426782D01*
X7069167Y-15388687D02*
X7069167Y-15426782D01*
X7364405Y-15664877D02*
X7354881Y-15655353D01*
X7335833Y-15626782D01*
X7326309Y-15607734D01*
X7316786Y-15579163D01*
X7307262Y-15531544D01*
X7307262Y-15493449D01*
X7316786Y-15445830D01*
X7326309Y-15417258D01*
X7335833Y-15398211D01*
X7354881Y-15369639D01*
X7364405Y-15360115D01*
X7526309Y-15388687D02*
X7488214Y-15388687D01*
X7469167Y-15398211D01*
X7459643Y-15407734D01*
X7440595Y-15436306D01*
X7431071Y-15474401D01*
X7431071Y-15550592D01*
X7440595Y-15569639D01*
X7450119Y-15579163D01*
X7469167Y-15588687D01*
X7507262Y-15588687D01*
X7526309Y-15579163D01*
X7535833Y-15569639D01*
X7545357Y-15550592D01*
X7545357Y-15502973D01*
X7535833Y-15483925D01*
X7526309Y-15474401D01*
X7507262Y-15464877D01*
X7469167Y-15464877D01*
X7450119Y-15474401D01*
X7440595Y-15483925D01*
X7431071Y-15502973D01*
X7783452Y-15588687D02*
X7783452Y-15388687D01*
X7869167Y-15588687D02*
X7869167Y-15483925D01*
X7859643Y-15464877D01*
X7840595Y-15455353D01*
X7812024Y-15455353D01*
X7792976Y-15464877D01*
X7783452Y-15474401D01*
X7992976Y-15588687D02*
X7973928Y-15579163D01*
X7964405Y-15569639D01*
X7954881Y-15550592D01*
X7954881Y-15493449D01*
X7964405Y-15474401D01*
X7973928Y-15464877D01*
X7992976Y-15455353D01*
X8021548Y-15455353D01*
X8040595Y-15464877D01*
X8050119Y-15474401D01*
X8059643Y-15493449D01*
X8059643Y-15550592D01*
X8050119Y-15569639D01*
X8040595Y-15579163D01*
X8021548Y-15588687D01*
X7992976Y-15588687D01*
X8173928Y-15588687D02*
X8154881Y-15579163D01*
X8145357Y-15560115D01*
X8145357Y-15388687D01*
X8326309Y-15579163D02*
X8307262Y-15588687D01*
X8269167Y-15588687D01*
X8250119Y-15579163D01*
X8240595Y-15560115D01*
X8240595Y-15483925D01*
X8250119Y-15464877D01*
X8269167Y-15455353D01*
X8307262Y-15455353D01*
X8326309Y-15464877D01*
X8335833Y-15483925D01*
X8335833Y-15502973D01*
X8240595Y-15522020D01*
X8412024Y-15579163D02*
X8431071Y-15588687D01*
X8469167Y-15588687D01*
X8488214Y-15579163D01*
X8497738Y-15560115D01*
X8497738Y-15550592D01*
X8488214Y-15531544D01*
X8469167Y-15522020D01*
X8440595Y-15522020D01*
X8421548Y-15512496D01*
X8412024Y-15493449D01*
X8412024Y-15483925D01*
X8421548Y-15464877D01*
X8440595Y-15455353D01*
X8469167Y-15455353D01*
X8488214Y-15464877D01*
X8564405Y-15664877D02*
X8573929Y-15655353D01*
X8592976Y-15626782D01*
X8602500Y-15607734D01*
X8612024Y-15579163D01*
X8621548Y-15531544D01*
X8621548Y-15493449D01*
X8612024Y-15445830D01*
X8602500Y-15417258D01*
X8592976Y-15398211D01*
X8573929Y-15369639D01*
X8564405Y-15360115D01*
X8926310Y-15664877D02*
X8916786Y-15655353D01*
X8897738Y-15626782D01*
X8888214Y-15607734D01*
X8878690Y-15579163D01*
X8869167Y-15531544D01*
X8869167Y-15493449D01*
X8878690Y-15445830D01*
X8888214Y-15417258D01*
X8897738Y-15398211D01*
X8916786Y-15369639D01*
X8926310Y-15360115D01*
X9002500Y-15455353D02*
X9002500Y-15588687D01*
X9002500Y-15474401D02*
X9012024Y-15464877D01*
X9031071Y-15455353D01*
X9059643Y-15455353D01*
X9078690Y-15464877D01*
X9088214Y-15483925D01*
X9088214Y-15588687D01*
X9212024Y-15588687D02*
X9192976Y-15579163D01*
X9183452Y-15569639D01*
X9173929Y-15550592D01*
X9173929Y-15493449D01*
X9183452Y-15474401D01*
X9192976Y-15464877D01*
X9212024Y-15455353D01*
X9240595Y-15455353D01*
X9259643Y-15464877D01*
X9269167Y-15474401D01*
X9278690Y-15493449D01*
X9278690Y-15550592D01*
X9269167Y-15569639D01*
X9259643Y-15579163D01*
X9240595Y-15588687D01*
X9212024Y-15588687D01*
X9335833Y-15455353D02*
X9412024Y-15455353D01*
X9364405Y-15388687D02*
X9364405Y-15560115D01*
X9373929Y-15579163D01*
X9392976Y-15588687D01*
X9412024Y-15588687D01*
X9631071Y-15455353D02*
X9631071Y-15655353D01*
X9631071Y-15464877D02*
X9650119Y-15455353D01*
X9688214Y-15455353D01*
X9707262Y-15464877D01*
X9716786Y-15474401D01*
X9726310Y-15493449D01*
X9726310Y-15550592D01*
X9716786Y-15569639D01*
X9707262Y-15579163D01*
X9688214Y-15588687D01*
X9650119Y-15588687D01*
X9631071Y-15579163D01*
X9840595Y-15588687D02*
X9821548Y-15579163D01*
X9812024Y-15560115D01*
X9812024Y-15388687D01*
X10002500Y-15588687D02*
X10002500Y-15483925D01*
X9992976Y-15464877D01*
X9973929Y-15455353D01*
X9935833Y-15455353D01*
X9916786Y-15464877D01*
X10002500Y-15579163D02*
X9983452Y-15588687D01*
X9935833Y-15588687D01*
X9916786Y-15579163D01*
X9907262Y-15560115D01*
X9907262Y-15541068D01*
X9916786Y-15522020D01*
X9935833Y-15512496D01*
X9983452Y-15512496D01*
X10002500Y-15502973D01*
X10069167Y-15455353D02*
X10145357Y-15455353D01*
X10097738Y-15388687D02*
X10097738Y-15560115D01*
X10107262Y-15579163D01*
X10126310Y-15588687D01*
X10145357Y-15588687D01*
X10288214Y-15579163D02*
X10269167Y-15588687D01*
X10231071Y-15588687D01*
X10212024Y-15579163D01*
X10202500Y-15560115D01*
X10202500Y-15483925D01*
X10212024Y-15464877D01*
X10231071Y-15455353D01*
X10269167Y-15455353D01*
X10288214Y-15464877D01*
X10297738Y-15483925D01*
X10297738Y-15502973D01*
X10202500Y-15522020D01*
X10469167Y-15588687D02*
X10469167Y-15388687D01*
X10469167Y-15579163D02*
X10450119Y-15588687D01*
X10412024Y-15588687D01*
X10392976Y-15579163D01*
X10383452Y-15569639D01*
X10373929Y-15550592D01*
X10373929Y-15493449D01*
X10383452Y-15474401D01*
X10392976Y-15464877D01*
X10412024Y-15455353D01*
X10450119Y-15455353D01*
X10469167Y-15464877D01*
X10545357Y-15664877D02*
X10554881Y-15655353D01*
X10573929Y-15626782D01*
X10583452Y-15607734D01*
X10592976Y-15579163D01*
X10602500Y-15531544D01*
X10602500Y-15493449D01*
X10592976Y-15445830D01*
X10583452Y-15417258D01*
X10573929Y-15398211D01*
X10554881Y-15369639D01*
X10545357Y-15360115D01*
X3692500Y-15718211D02*
X3692500Y-15918211D01*
X3592500Y-15818211D02*
X3792500Y-15818211D01*
X4135833Y-15775353D02*
X4135833Y-15908687D01*
X4088214Y-15699163D02*
X4040595Y-15842020D01*
X4164405Y-15842020D01*
X4240595Y-15889639D02*
X4250119Y-15899163D01*
X4240595Y-15908687D01*
X4231071Y-15899163D01*
X4240595Y-15889639D01*
X4240595Y-15908687D01*
X4373929Y-15708687D02*
X4392976Y-15708687D01*
X4412024Y-15718211D01*
X4421548Y-15727734D01*
X4431071Y-15746782D01*
X4440595Y-15784877D01*
X4440595Y-15832496D01*
X4431071Y-15870592D01*
X4421548Y-15889639D01*
X4412024Y-15899163D01*
X4392976Y-15908687D01*
X4373929Y-15908687D01*
X4354881Y-15899163D01*
X4345357Y-15889639D01*
X4335833Y-15870592D01*
X4326310Y-15832496D01*
X4326310Y-15784877D01*
X4335833Y-15746782D01*
X4345357Y-15727734D01*
X4354881Y-15718211D01*
X4373929Y-15708687D01*
X4564405Y-15708687D02*
X4583452Y-15708687D01*
X4602500Y-15718211D01*
X4612024Y-15727734D01*
X4621548Y-15746782D01*
X4631071Y-15784877D01*
X4631071Y-15832496D01*
X4621548Y-15870592D01*
X4612024Y-15889639D01*
X4602500Y-15899163D01*
X4583452Y-15908687D01*
X4564405Y-15908687D01*
X4545357Y-15899163D01*
X4535833Y-15889639D01*
X4526310Y-15870592D01*
X4516786Y-15832496D01*
X4516786Y-15784877D01*
X4526310Y-15746782D01*
X4535833Y-15727734D01*
X4545357Y-15718211D01*
X4564405Y-15708687D01*
X4754881Y-15708687D02*
X4773929Y-15708687D01*
X4792976Y-15718211D01*
X4802500Y-15727734D01*
X4812024Y-15746782D01*
X4821548Y-15784877D01*
X4821548Y-15832496D01*
X4812024Y-15870592D01*
X4802500Y-15889639D01*
X4792976Y-15899163D01*
X4773929Y-15908687D01*
X4754881Y-15908687D01*
X4735833Y-15899163D01*
X4726310Y-15889639D01*
X4716786Y-15870592D01*
X4707262Y-15832496D01*
X4707262Y-15784877D01*
X4716786Y-15746782D01*
X4726310Y-15727734D01*
X4735833Y-15718211D01*
X4754881Y-15708687D01*
X4907262Y-15908687D02*
X4907262Y-15775353D01*
X4907262Y-15794401D02*
X4916786Y-15784877D01*
X4935833Y-15775353D01*
X4964405Y-15775353D01*
X4983452Y-15784877D01*
X4992976Y-15803925D01*
X4992976Y-15908687D01*
X4992976Y-15803925D02*
X5002500Y-15784877D01*
X5021548Y-15775353D01*
X5050119Y-15775353D01*
X5069167Y-15784877D01*
X5078690Y-15803925D01*
X5078690Y-15908687D01*
X5173929Y-15908687D02*
X5173929Y-15775353D01*
X5173929Y-15794401D02*
X5183452Y-15784877D01*
X5202500Y-15775353D01*
X5231071Y-15775353D01*
X5250119Y-15784877D01*
X5259643Y-15803925D01*
X5259643Y-15908687D01*
X5259643Y-15803925D02*
X5269167Y-15784877D01*
X5288214Y-15775353D01*
X5316786Y-15775353D01*
X5335833Y-15784877D01*
X5345357Y-15803925D01*
X5345357Y-15908687D01*
X5735833Y-15699163D02*
X5564405Y-15956306D01*
X5992976Y-15708687D02*
X6012024Y-15708687D01*
X6031071Y-15718211D01*
X6040595Y-15727734D01*
X6050119Y-15746782D01*
X6059643Y-15784877D01*
X6059643Y-15832496D01*
X6050119Y-15870592D01*
X6040595Y-15889639D01*
X6031071Y-15899163D01*
X6012024Y-15908687D01*
X5992976Y-15908687D01*
X5973928Y-15899163D01*
X5964405Y-15889639D01*
X5954881Y-15870592D01*
X5945357Y-15832496D01*
X5945357Y-15784877D01*
X5954881Y-15746782D01*
X5964405Y-15727734D01*
X5973928Y-15718211D01*
X5992976Y-15708687D01*
X6145357Y-15889639D02*
X6154881Y-15899163D01*
X6145357Y-15908687D01*
X6135833Y-15899163D01*
X6145357Y-15889639D01*
X6145357Y-15908687D01*
X6345357Y-15908687D02*
X6231071Y-15908687D01*
X6288214Y-15908687D02*
X6288214Y-15708687D01*
X6269167Y-15737258D01*
X6250119Y-15756306D01*
X6231071Y-15765830D01*
X6526309Y-15708687D02*
X6431071Y-15708687D01*
X6421548Y-15803925D01*
X6431071Y-15794401D01*
X6450119Y-15784877D01*
X6497738Y-15784877D01*
X6516786Y-15794401D01*
X6526309Y-15803925D01*
X6535833Y-15822973D01*
X6535833Y-15870592D01*
X6526309Y-15889639D01*
X6516786Y-15899163D01*
X6497738Y-15908687D01*
X6450119Y-15908687D01*
X6431071Y-15899163D01*
X6421548Y-15889639D01*
X6602500Y-15708687D02*
X6735833Y-15708687D01*
X6650119Y-15908687D01*
X6907262Y-15708687D02*
X6812024Y-15708687D01*
X6802500Y-15803925D01*
X6812024Y-15794401D01*
X6831071Y-15784877D01*
X6878690Y-15784877D01*
X6897738Y-15794401D01*
X6907262Y-15803925D01*
X6916786Y-15822973D01*
X6916786Y-15870592D01*
X6907262Y-15889639D01*
X6897738Y-15899163D01*
X6878690Y-15908687D01*
X6831071Y-15908687D01*
X6812024Y-15899163D01*
X6802500Y-15889639D01*
X6992976Y-15708687D02*
X6992976Y-15746782D01*
X7069167Y-15708687D02*
X7069167Y-15746782D01*
X7364405Y-15984877D02*
X7354881Y-15975353D01*
X7335833Y-15946782D01*
X7326309Y-15927734D01*
X7316786Y-15899163D01*
X7307262Y-15851544D01*
X7307262Y-15813449D01*
X7316786Y-15765830D01*
X7326309Y-15737258D01*
X7335833Y-15718211D01*
X7354881Y-15689639D01*
X7364405Y-15680115D01*
X7421548Y-15708687D02*
X7554881Y-15708687D01*
X7469167Y-15908687D01*
X7669167Y-15708687D02*
X7688214Y-15708687D01*
X7707262Y-15718211D01*
X7716786Y-15727734D01*
X7726309Y-15746782D01*
X7735833Y-15784877D01*
X7735833Y-15832496D01*
X7726309Y-15870592D01*
X7716786Y-15889639D01*
X7707262Y-15899163D01*
X7688214Y-15908687D01*
X7669167Y-15908687D01*
X7650119Y-15899163D01*
X7640595Y-15889639D01*
X7631071Y-15870592D01*
X7621548Y-15832496D01*
X7621548Y-15784877D01*
X7631071Y-15746782D01*
X7640595Y-15727734D01*
X7650119Y-15718211D01*
X7669167Y-15708687D01*
X7973928Y-15908687D02*
X7973928Y-15708687D01*
X8059643Y-15908687D02*
X8059643Y-15803925D01*
X8050119Y-15784877D01*
X8031071Y-15775353D01*
X8002500Y-15775353D01*
X7983452Y-15784877D01*
X7973928Y-15794401D01*
X8183452Y-15908687D02*
X8164405Y-15899163D01*
X8154881Y-15889639D01*
X8145357Y-15870592D01*
X8145357Y-15813449D01*
X8154881Y-15794401D01*
X8164405Y-15784877D01*
X8183452Y-15775353D01*
X8212024Y-15775353D01*
X8231071Y-15784877D01*
X8240595Y-15794401D01*
X8250119Y-15813449D01*
X8250119Y-15870592D01*
X8240595Y-15889639D01*
X8231071Y-15899163D01*
X8212024Y-15908687D01*
X8183452Y-15908687D01*
X8364405Y-15908687D02*
X8345357Y-15899163D01*
X8335833Y-15880115D01*
X8335833Y-15708687D01*
X8516786Y-15899163D02*
X8497738Y-15908687D01*
X8459643Y-15908687D01*
X8440595Y-15899163D01*
X8431071Y-15880115D01*
X8431071Y-15803925D01*
X8440595Y-15784877D01*
X8459643Y-15775353D01*
X8497738Y-15775353D01*
X8516786Y-15784877D01*
X8526310Y-15803925D01*
X8526310Y-15822973D01*
X8431071Y-15842020D01*
X8602500Y-15899163D02*
X8621548Y-15908687D01*
X8659643Y-15908687D01*
X8678690Y-15899163D01*
X8688214Y-15880115D01*
X8688214Y-15870592D01*
X8678690Y-15851544D01*
X8659643Y-15842020D01*
X8631071Y-15842020D01*
X8612024Y-15832496D01*
X8602500Y-15813449D01*
X8602500Y-15803925D01*
X8612024Y-15784877D01*
X8631071Y-15775353D01*
X8659643Y-15775353D01*
X8678690Y-15784877D01*
X8754881Y-15984877D02*
X8764405Y-15975353D01*
X8783452Y-15946782D01*
X8792976Y-15927734D01*
X8802500Y-15899163D01*
X8812024Y-15851544D01*
X8812024Y-15813449D01*
X8802500Y-15765830D01*
X8792976Y-15737258D01*
X8783452Y-15718211D01*
X8764405Y-15689639D01*
X8754881Y-15680115D01*
X9116786Y-15984877D02*
X9107262Y-15975353D01*
X9088214Y-15946782D01*
X9078690Y-15927734D01*
X9069167Y-15899163D01*
X9059643Y-15851544D01*
X9059643Y-15813449D01*
X9069167Y-15765830D01*
X9078690Y-15737258D01*
X9088214Y-15718211D01*
X9107262Y-15689639D01*
X9116786Y-15680115D01*
X9192976Y-15775353D02*
X9192976Y-15908687D01*
X9192976Y-15794401D02*
X9202500Y-15784877D01*
X9221548Y-15775353D01*
X9250119Y-15775353D01*
X9269167Y-15784877D01*
X9278690Y-15803925D01*
X9278690Y-15908687D01*
X9402500Y-15908687D02*
X9383452Y-15899163D01*
X9373929Y-15889639D01*
X9364405Y-15870592D01*
X9364405Y-15813449D01*
X9373929Y-15794401D01*
X9383452Y-15784877D01*
X9402500Y-15775353D01*
X9431071Y-15775353D01*
X9450119Y-15784877D01*
X9459643Y-15794401D01*
X9469167Y-15813449D01*
X9469167Y-15870592D01*
X9459643Y-15889639D01*
X9450119Y-15899163D01*
X9431071Y-15908687D01*
X9402500Y-15908687D01*
X9526310Y-15775353D02*
X9602500Y-15775353D01*
X9554881Y-15708687D02*
X9554881Y-15880115D01*
X9564405Y-15899163D01*
X9583452Y-15908687D01*
X9602500Y-15908687D01*
X9821548Y-15775353D02*
X9821548Y-15975353D01*
X9821548Y-15784877D02*
X9840595Y-15775353D01*
X9878690Y-15775353D01*
X9897738Y-15784877D01*
X9907262Y-15794401D01*
X9916786Y-15813449D01*
X9916786Y-15870592D01*
X9907262Y-15889639D01*
X9897738Y-15899163D01*
X9878690Y-15908687D01*
X9840595Y-15908687D01*
X9821548Y-15899163D01*
X10031071Y-15908687D02*
X10012024Y-15899163D01*
X10002500Y-15880115D01*
X10002500Y-15708687D01*
X10192976Y-15908687D02*
X10192976Y-15803925D01*
X10183452Y-15784877D01*
X10164405Y-15775353D01*
X10126310Y-15775353D01*
X10107262Y-15784877D01*
X10192976Y-15899163D02*
X10173929Y-15908687D01*
X10126310Y-15908687D01*
X10107262Y-15899163D01*
X10097738Y-15880115D01*
X10097738Y-15861068D01*
X10107262Y-15842020D01*
X10126310Y-15832496D01*
X10173929Y-15832496D01*
X10192976Y-15822973D01*
X10259643Y-15775353D02*
X10335833Y-15775353D01*
X10288214Y-15708687D02*
X10288214Y-15880115D01*
X10297738Y-15899163D01*
X10316786Y-15908687D01*
X10335833Y-15908687D01*
X10478690Y-15899163D02*
X10459643Y-15908687D01*
X10421548Y-15908687D01*
X10402500Y-15899163D01*
X10392976Y-15880115D01*
X10392976Y-15803925D01*
X10402500Y-15784877D01*
X10421548Y-15775353D01*
X10459643Y-15775353D01*
X10478690Y-15784877D01*
X10488214Y-15803925D01*
X10488214Y-15822973D01*
X10392976Y-15842020D01*
X10659643Y-15908687D02*
X10659643Y-15708687D01*
X10659643Y-15899163D02*
X10640595Y-15908687D01*
X10602500Y-15908687D01*
X10583452Y-15899163D01*
X10573929Y-15889639D01*
X10564405Y-15870592D01*
X10564405Y-15813449D01*
X10573929Y-15794401D01*
X10583452Y-15784877D01*
X10602500Y-15775353D01*
X10640595Y-15775353D01*
X10659643Y-15784877D01*
X10735833Y-15984877D02*
X10745357Y-15975353D01*
X10764405Y-15946782D01*
X10773929Y-15927734D01*
X10783452Y-15899163D01*
X10792976Y-15851544D01*
X10792976Y-15813449D01*
X10783452Y-15765830D01*
X10773929Y-15737258D01*
X10764405Y-15718211D01*
X10745357Y-15689639D01*
X10735833Y-15680115D01*
M02*
