M48
; DRILL file {KiCad (6.0.7)} date Sun Oct 23 20:31:50 2022
; FORMAT={-:-/ absolute / metric / decimal}
; #@! TF.CreationDate,2022-10-23T20:31:50-04:00
; #@! TF.GenerationSoftware,Kicad,Pcbnew,(6.0.7)
; #@! TF.FileFunction,Plated,1,2,PTH
FMAT,2
METRIC
; #@! TA.AperFunction,Plated,PTH,ViaDrill
T1C0.400
; #@! TA.AperFunction,Plated,PTH,ComponentDrill
T2C0.800
; #@! TA.AperFunction,Plated,PTH,ComponentDrill
T3C0.900
; #@! TA.AperFunction,Plated,PTH,ComponentDrill
T4C0.990
; #@! TA.AperFunction,Plated,PTH,ComponentDrill
T5C1.000
; #@! TA.AperFunction,Plated,PTH,ComponentDrill
T6C1.300
; #@! TA.AperFunction,Plated,PTH,ComponentDrill
T7C1.600
%
G90
G05
T1
X103.83Y-137.779
X109.538Y-135.553
X110.474Y-118.195
X112.587Y-91.138
X112.995Y-104.386
X113.475Y-94.275
X116.794Y-102.394
X117.794Y-102.623
X120.946Y-129.106
X121.967Y-123.241
X126.897Y-74.866
X128.217Y-107.944
X129.224Y-78.325
X130.273Y-137.55
X132.244Y-110.527
X134.7Y-114.288
X136.71Y-95.119
X137.074Y-120.973
X154.055Y-136.55
X155.917Y-130.635
X164.038Y-128.905
X165.764Y-94.252
X169.605Y-104.358
X178.827Y-137.965
T2
X93.193Y-59.131
X101.346Y-123.19
X101.346Y-133.35
X103.353Y-59.131
X105.41Y-71.74
X105.41Y-74.28
X105.41Y-76.82
X105.41Y-79.36
X105.41Y-81.9
X105.41Y-84.44
X105.41Y-86.98
X105.41Y-89.52
X105.41Y-92.06
X105.41Y-97.155
X105.41Y-107.315
X105.41Y-114.32
X105.41Y-116.82
X106.045Y-127.655
X106.045Y-130.155
X108.433Y-56.896
X108.433Y-67.056
X108.585Y-74.315
X108.585Y-76.815
X108.585Y-87.65
X108.585Y-90.15
X108.585Y-100.985
X108.585Y-103.485
X108.585Y-114.32
X108.585Y-116.82
X109.215Y-125.085
X109.215Y-132.705
X111.755Y-125.085
X111.755Y-132.705
X111.76Y-71.745
X111.76Y-79.365
X111.76Y-85.08
X111.76Y-92.7
X111.76Y-98.415
X111.76Y-106.035
X111.76Y-111.75
X111.76Y-119.37
X112.878Y-56.896
X112.878Y-67.056
X114.295Y-125.085
X114.295Y-132.705
X114.3Y-71.745
X114.3Y-79.365
X114.3Y-85.08
X114.3Y-92.7
X114.3Y-98.415
X114.3Y-106.035
X114.3Y-111.75
X114.3Y-119.37
X116.835Y-125.085
X116.835Y-132.705
X116.84Y-71.745
X116.84Y-79.365
X116.84Y-85.08
X116.84Y-92.7
X116.84Y-98.415
X116.84Y-106.035
X116.84Y-111.75
X116.84Y-119.37
X117.196Y-56.896
X117.196Y-67.056
X119.375Y-125.085
X119.375Y-132.705
X119.38Y-71.745
X119.38Y-79.365
X119.38Y-85.08
X119.38Y-92.7
X119.38Y-98.415
X119.38Y-106.035
X119.38Y-111.75
X119.38Y-119.37
X121.514Y-56.896
X121.514Y-67.056
X121.915Y-125.085
X121.915Y-132.705
X121.92Y-71.745
X121.92Y-79.365
X121.92Y-85.08
X121.92Y-92.7
X121.92Y-98.415
X121.92Y-106.035
X121.92Y-111.75
X121.92Y-119.37
X124.455Y-125.085
X124.455Y-132.705
X124.46Y-71.745
X124.46Y-79.365
X124.46Y-85.08
X124.46Y-92.7
X124.46Y-98.415
X124.46Y-106.035
X124.46Y-111.75
X124.46Y-119.37
X125.832Y-56.896
X125.832Y-67.056
X126.995Y-125.085
X126.995Y-132.705
X127.0Y-71.745
X127.0Y-79.365
X127.0Y-85.08
X127.0Y-92.7
X127.0Y-98.415
X127.0Y-106.035
X127.0Y-111.75
X127.0Y-119.37
X130.15Y-56.896
X130.15Y-67.056
X130.175Y-100.985
X130.175Y-103.485
X130.175Y-114.32
X130.175Y-116.82
X130.175Y-127.655
X130.175Y-130.155
X132.1Y-71.755
X132.1Y-74.295
X132.1Y-76.835
X132.1Y-80.645
X132.1Y-83.185
X133.35Y-87.445
X133.35Y-89.985
X133.35Y-92.525
X133.35Y-98.415
X133.35Y-106.035
X133.35Y-111.75
X133.35Y-119.37
X133.35Y-125.085
X133.35Y-132.705
X134.468Y-56.896
X134.468Y-67.056
X134.6Y-71.755
X134.6Y-74.295
X134.6Y-76.835
X134.6Y-80.645
X134.6Y-83.185
X135.89Y-98.415
X135.89Y-106.035
X135.89Y-111.75
X135.89Y-119.37
X135.89Y-125.085
X135.89Y-132.705
X137.795Y-74.315
X137.795Y-76.815
X137.795Y-87.65
X137.795Y-90.15
X138.43Y-98.415
X138.43Y-106.035
X138.43Y-111.75
X138.43Y-119.37
X138.43Y-125.085
X138.43Y-132.705
X138.913Y-56.896
X138.913Y-67.056
X140.97Y-98.415
X140.97Y-106.035
X140.97Y-111.75
X140.97Y-119.37
X140.97Y-125.085
X140.97Y-132.705
X140.98Y-85.08
X140.98Y-92.7
X140.985Y-71.745
X140.985Y-79.365
X143.51Y-98.415
X143.51Y-106.035
X143.51Y-111.75
X143.51Y-119.37
X143.51Y-125.085
X143.51Y-132.705
X143.525Y-71.745
X143.525Y-79.365
X146.05Y-98.415
X146.05Y-106.035
X146.05Y-111.75
X146.05Y-119.37
X146.05Y-125.085
X146.05Y-132.705
X146.065Y-71.745
X146.065Y-79.365
X148.59Y-98.415
X148.59Y-106.035
X148.59Y-111.75
X148.59Y-119.37
X148.59Y-125.085
X148.59Y-132.705
X148.6Y-85.08
X148.6Y-92.7
X148.605Y-71.745
X148.605Y-79.365
X149.835Y-56.896
X149.835Y-67.056
X151.765Y-74.315
X151.765Y-76.815
X151.765Y-87.63
X151.765Y-90.13
X151.765Y-127.655
X151.765Y-130.155
X154.153Y-56.896
X154.153Y-67.056
X154.305Y-100.985
X154.305Y-103.485
X154.305Y-114.32
X154.305Y-116.82
X154.93Y-71.745
X154.93Y-79.365
X154.93Y-85.08
X154.93Y-92.7
X154.93Y-125.085
X154.93Y-132.705
X157.47Y-71.745
X157.47Y-79.365
X157.47Y-85.08
X157.47Y-92.7
X157.47Y-125.085
X157.47Y-132.705
X157.475Y-98.415
X157.475Y-106.035
X157.475Y-111.75
X157.475Y-119.37
X158.471Y-56.896
X158.471Y-67.056
X160.01Y-71.745
X160.01Y-79.365
X160.01Y-85.08
X160.01Y-92.7
X160.01Y-125.085
X160.01Y-132.705
X160.015Y-98.415
X160.015Y-106.035
X160.015Y-111.75
X160.015Y-119.37
X162.55Y-71.745
X162.55Y-79.365
X162.55Y-85.08
X162.55Y-92.7
X162.55Y-125.085
X162.55Y-132.705
X162.555Y-98.415
X162.555Y-106.035
X162.555Y-111.75
X162.555Y-119.37
X162.789Y-56.896
X162.789Y-67.056
X165.09Y-71.745
X165.09Y-79.365
X165.09Y-85.08
X165.09Y-92.7
X165.09Y-125.085
X165.09Y-132.705
X165.095Y-98.415
X165.095Y-106.035
X165.095Y-111.75
X165.095Y-119.37
X167.107Y-56.896
X167.107Y-67.056
X167.63Y-71.745
X167.63Y-79.365
X167.63Y-85.08
X167.63Y-92.7
X167.63Y-125.085
X167.63Y-132.705
X167.635Y-98.415
X167.635Y-106.035
X167.635Y-111.75
X167.635Y-119.37
X170.17Y-71.745
X170.17Y-79.365
X170.17Y-85.08
X170.17Y-92.7
X170.17Y-125.085
X170.17Y-132.705
X170.175Y-98.415
X170.175Y-106.035
X170.175Y-111.75
X170.175Y-119.37
X171.425Y-56.896
X171.425Y-67.056
X172.71Y-71.745
X172.71Y-79.365
X172.71Y-85.08
X172.71Y-92.7
X172.71Y-125.085
X172.71Y-132.705
X172.715Y-98.415
X172.715Y-106.035
X172.715Y-111.75
X172.715Y-119.37
X175.743Y-56.896
X175.743Y-67.056
X180.061Y-56.896
X180.061Y-67.056
X184.379Y-56.896
X184.379Y-67.056
T3
X96.195Y-127.02
X96.195Y-129.56
X97.008Y-52.99
X99.548Y-52.99
X112.237Y-52.991
X114.777Y-52.991
X127.488Y-52.991
X130.028Y-52.991
X148.59Y-52.99
X151.13Y-52.99
X163.83Y-52.99
X166.37Y-52.99
X168.91Y-52.99
X171.45Y-52.99
X173.99Y-52.99
X176.53Y-52.99
X179.07Y-52.99
X181.61Y-52.99
T4
X103.618Y-48.896
X108.118Y-48.896
X118.872Y-48.896
X123.372Y-48.896
X134.123Y-48.896
X138.623Y-48.896
X155.225Y-48.896
X159.725Y-48.896
T5
X142.997Y-51.192
X142.997Y-63.892
X145.537Y-56.272
X179.115Y-127.03
X179.115Y-129.57
X179.121Y-73.66
X179.121Y-76.2
X179.121Y-78.74
X179.121Y-81.28
X179.121Y-83.82
X179.121Y-86.36
X179.121Y-88.9
X179.121Y-91.44
X179.121Y-93.98
X179.121Y-96.52
X179.121Y-99.06
X179.121Y-101.6
X179.121Y-104.14
X179.121Y-106.68
X179.121Y-109.22
X179.121Y-111.76
X179.121Y-114.3
X179.121Y-116.84
X179.121Y-119.38
X179.121Y-121.92
T6
X102.368Y-51.386
X109.378Y-51.386
X117.622Y-51.386
X124.632Y-51.386
X132.873Y-51.386
X139.883Y-51.386
X153.975Y-51.386
X160.985Y-51.386
T7
X101.069Y-64.49
X101.069Y-69.19
X101.069Y-73.89
X101.069Y-79.73
X101.069Y-84.43
X101.069Y-89.13
X101.069Y-94.97
X101.069Y-99.67
X101.069Y-104.37
X101.069Y-110.21
X101.069Y-114.91
X101.069Y-119.61
T0
M30
