%TF.GenerationSoftware,KiCad,Pcbnew,(6.0.7)*%
%TF.CreationDate,2022-10-23T20:31:47-04:00*%
%TF.ProjectId,Part 3 - Mapping things out,50617274-2033-4202-9d20-4d617070696e,1.1*%
%TF.SameCoordinates,Original*%
%TF.FileFunction,Legend,Bot*%
%TF.FilePolarity,Positive*%
%FSLAX46Y46*%
G04 Gerber Fmt 4.6, Leading zero omitted, Abs format (unit mm)*
G04 Created by KiCad (PCBNEW (6.0.7)) date 2022-10-23 20:31:47*
%MOMM*%
%LPD*%
G01*
G04 APERTURE LIST*
%ADD10C,0.150000*%
%ADD11C,0.200000*%
G04 APERTURE END LIST*
D10*
X152527000Y-55626000D02*
X162433000Y-55626000D01*
X89662000Y-62484000D02*
X102616000Y-62484000D01*
X89662000Y-91186000D02*
X89662000Y-77724000D01*
X147066000Y-67183000D02*
X141478000Y-67183000D01*
X110871000Y-55626000D02*
X116205000Y-55626000D01*
X162433000Y-55626000D02*
X162433000Y-46200000D01*
X102616000Y-106426000D02*
X89662000Y-106426000D01*
X141478000Y-55626000D02*
X141351000Y-55626000D01*
X102616000Y-108204000D02*
X102616000Y-121666000D01*
X89662000Y-106426000D02*
X89662000Y-92964000D01*
X141478000Y-67183000D02*
X141478000Y-55626000D01*
X102616000Y-121666000D02*
X89662000Y-121666000D01*
X131445000Y-55626000D02*
X131445000Y-46200000D01*
X102616000Y-62484000D02*
X102616000Y-75946000D01*
X141351000Y-55626000D02*
X141351000Y-46200000D01*
X102616000Y-75946000D02*
X89662000Y-75946000D01*
X89662000Y-92964000D02*
X102616000Y-92964000D01*
X102616000Y-77724000D02*
X102616000Y-91186000D01*
X183007000Y-55626000D02*
X183007000Y-46200000D01*
X89662000Y-121666000D02*
X89662000Y-108204000D01*
X147066000Y-55626000D02*
X147066000Y-67183000D01*
X89662000Y-108204000D02*
X102616000Y-108204000D01*
X147066000Y-55626000D02*
X152527000Y-55626000D01*
X162433000Y-55626000D02*
X183007000Y-55626000D01*
X89662000Y-77724000D02*
X102616000Y-77724000D01*
X89662000Y-75946000D02*
X89662000Y-62484000D01*
X152527000Y-55626000D02*
X152527000Y-46200000D01*
X102616000Y-92964000D02*
X102616000Y-106426000D01*
X95631000Y-46200000D02*
X95631000Y-55626000D01*
X131445000Y-55626000D02*
X141351000Y-55626000D01*
X95631000Y-55626000D02*
X110871000Y-55626000D01*
X110871000Y-55626000D02*
X110871000Y-46200000D01*
X116205000Y-55626000D02*
X131445000Y-55626000D01*
X116205000Y-55626000D02*
X116205000Y-46200000D01*
X102616000Y-91186000D02*
X89662000Y-91186000D01*
D11*
X188615857Y-129901142D02*
X187473000Y-129901142D01*
X188044428Y-130472571D02*
X188044428Y-129329714D01*
X186044428Y-128972571D02*
X186758714Y-128972571D01*
X186830142Y-129686857D01*
X186758714Y-129615428D01*
X186615857Y-129544000D01*
X186258714Y-129544000D01*
X186115857Y-129615428D01*
X186044428Y-129686857D01*
X185973000Y-129829714D01*
X185973000Y-130186857D01*
X186044428Y-130329714D01*
X186115857Y-130401142D01*
X186258714Y-130472571D01*
X186615857Y-130472571D01*
X186758714Y-130401142D01*
X186830142Y-130329714D01*
X185544428Y-128972571D02*
X185044428Y-130472571D01*
X184544428Y-128972571D01*
D10*
X95424523Y-104687619D02*
X95519761Y-104640000D01*
X95615000Y-104544761D01*
X95757857Y-104401904D01*
X95853095Y-104354285D01*
X95948333Y-104354285D01*
X95900714Y-104592380D02*
X95995952Y-104544761D01*
X96091190Y-104449523D01*
X96138809Y-104259047D01*
X96138809Y-103925714D01*
X96091190Y-103735238D01*
X95995952Y-103640000D01*
X95900714Y-103592380D01*
X95710238Y-103592380D01*
X95615000Y-103640000D01*
X95519761Y-103735238D01*
X95472142Y-103925714D01*
X95472142Y-104259047D01*
X95519761Y-104449523D01*
X95615000Y-104544761D01*
X95710238Y-104592380D01*
X95900714Y-104592380D01*
X94853095Y-103592380D02*
X94757857Y-103592380D01*
X94662619Y-103640000D01*
X94615000Y-103687619D01*
X94567380Y-103782857D01*
X94519761Y-103973333D01*
X94519761Y-104211428D01*
X94567380Y-104401904D01*
X94615000Y-104497142D01*
X94662619Y-104544761D01*
X94757857Y-104592380D01*
X94853095Y-104592380D01*
X94948333Y-104544761D01*
X94995952Y-104497142D01*
X95043571Y-104401904D01*
X95091190Y-104211428D01*
X95091190Y-103973333D01*
X95043571Y-103782857D01*
X94995952Y-103687619D01*
X94948333Y-103640000D01*
X94853095Y-103592380D01*
X94091190Y-104497142D02*
X94043571Y-104544761D01*
X94091190Y-104592380D01*
X94138809Y-104544761D01*
X94091190Y-104497142D01*
X94091190Y-104592380D01*
X94091190Y-103973333D02*
X94043571Y-104020952D01*
X94091190Y-104068571D01*
X94138809Y-104020952D01*
X94091190Y-103973333D01*
X94091190Y-104068571D01*
X93424523Y-103592380D02*
X93329285Y-103592380D01*
X93234047Y-103640000D01*
X93186428Y-103687619D01*
X93138809Y-103782857D01*
X93091190Y-103973333D01*
X93091190Y-104211428D01*
X93138809Y-104401904D01*
X93186428Y-104497142D01*
X93234047Y-104544761D01*
X93329285Y-104592380D01*
X93424523Y-104592380D01*
X93519761Y-104544761D01*
X93567380Y-104497142D01*
X93615000Y-104401904D01*
X93662619Y-104211428D01*
X93662619Y-103973333D01*
X93615000Y-103782857D01*
X93567380Y-103687619D01*
X93519761Y-103640000D01*
X93424523Y-103592380D01*
X95424523Y-95797619D02*
X95519761Y-95750000D01*
X95615000Y-95654761D01*
X95757857Y-95511904D01*
X95853095Y-95464285D01*
X95948333Y-95464285D01*
X95900714Y-95702380D02*
X95995952Y-95654761D01*
X96091190Y-95559523D01*
X96138809Y-95369047D01*
X96138809Y-95035714D01*
X96091190Y-94845238D01*
X95995952Y-94750000D01*
X95900714Y-94702380D01*
X95710238Y-94702380D01*
X95615000Y-94750000D01*
X95519761Y-94845238D01*
X95472142Y-95035714D01*
X95472142Y-95369047D01*
X95519761Y-95559523D01*
X95615000Y-95654761D01*
X95710238Y-95702380D01*
X95900714Y-95702380D01*
X94853095Y-94702380D02*
X94757857Y-94702380D01*
X94662619Y-94750000D01*
X94615000Y-94797619D01*
X94567380Y-94892857D01*
X94519761Y-95083333D01*
X94519761Y-95321428D01*
X94567380Y-95511904D01*
X94615000Y-95607142D01*
X94662619Y-95654761D01*
X94757857Y-95702380D01*
X94853095Y-95702380D01*
X94948333Y-95654761D01*
X94995952Y-95607142D01*
X95043571Y-95511904D01*
X95091190Y-95321428D01*
X95091190Y-95083333D01*
X95043571Y-94892857D01*
X94995952Y-94797619D01*
X94948333Y-94750000D01*
X94853095Y-94702380D01*
X94091190Y-95607142D02*
X94043571Y-95654761D01*
X94091190Y-95702380D01*
X94138809Y-95654761D01*
X94091190Y-95607142D01*
X94091190Y-95702380D01*
X94091190Y-95083333D02*
X94043571Y-95130952D01*
X94091190Y-95178571D01*
X94138809Y-95130952D01*
X94091190Y-95083333D01*
X94091190Y-95178571D01*
X93091190Y-95702380D02*
X93662619Y-95702380D01*
X93376904Y-95702380D02*
X93376904Y-94702380D01*
X93472142Y-94845238D01*
X93567380Y-94940476D01*
X93662619Y-94988095D01*
X160860952Y-54522714D02*
X161622857Y-54808428D01*
X160860952Y-55094142D01*
X159670476Y-55141761D02*
X159527619Y-55189380D01*
X159289523Y-55189380D01*
X159194285Y-55141761D01*
X159146666Y-55094142D01*
X159099047Y-54998904D01*
X159099047Y-54903666D01*
X159146666Y-54808428D01*
X159194285Y-54760809D01*
X159289523Y-54713190D01*
X159480000Y-54665571D01*
X159575238Y-54617952D01*
X159622857Y-54570333D01*
X159670476Y-54475095D01*
X159670476Y-54379857D01*
X159622857Y-54284619D01*
X159575238Y-54237000D01*
X159480000Y-54189380D01*
X159241904Y-54189380D01*
X159099047Y-54237000D01*
X158670476Y-55189380D02*
X158670476Y-54189380D01*
X158289523Y-54189380D01*
X158194285Y-54237000D01*
X158146666Y-54284619D01*
X158099047Y-54379857D01*
X158099047Y-54522714D01*
X158146666Y-54617952D01*
X158194285Y-54665571D01*
X158289523Y-54713190D01*
X158670476Y-54713190D01*
X157670476Y-54665571D02*
X157337142Y-54665571D01*
X157194285Y-55189380D02*
X157670476Y-55189380D01*
X157670476Y-54189380D01*
X157194285Y-54189380D01*
X156765714Y-54665571D02*
X156432380Y-54665571D01*
X156289523Y-55189380D02*
X156765714Y-55189380D01*
X156765714Y-54189380D01*
X156289523Y-54189380D01*
X155860952Y-55189380D02*
X155860952Y-54189380D01*
X155622857Y-54189380D01*
X155480000Y-54237000D01*
X155384761Y-54332238D01*
X155337142Y-54427476D01*
X155289523Y-54617952D01*
X155289523Y-54760809D01*
X155337142Y-54951285D01*
X155384761Y-55046523D01*
X155480000Y-55141761D01*
X155622857Y-55189380D01*
X155860952Y-55189380D01*
X154099047Y-54522714D02*
X153337142Y-54808428D01*
X154099047Y-55094142D01*
D11*
X187615857Y-82228428D02*
X187758714Y-82157000D01*
X187901571Y-82014142D01*
X188115857Y-81799857D01*
X188258714Y-81728428D01*
X188401571Y-81728428D01*
X188330142Y-82085571D02*
X188473000Y-82014142D01*
X188615857Y-81871285D01*
X188687285Y-81585571D01*
X188687285Y-81085571D01*
X188615857Y-80799857D01*
X188473000Y-80657000D01*
X188330142Y-80585571D01*
X188044428Y-80585571D01*
X187901571Y-80657000D01*
X187758714Y-80799857D01*
X187687285Y-81085571D01*
X187687285Y-81585571D01*
X187758714Y-81871285D01*
X187901571Y-82014142D01*
X188044428Y-82085571D01*
X188330142Y-82085571D01*
X186258714Y-82085571D02*
X187115857Y-82085571D01*
X186687285Y-82085571D02*
X186687285Y-80585571D01*
X186830142Y-80799857D01*
X186973000Y-80942714D01*
X187115857Y-81014142D01*
X188973000Y-77749000D02*
X187473000Y-77749000D01*
X187758714Y-79529714D02*
X187830142Y-79601142D01*
X188044428Y-79672571D01*
X188187285Y-79672571D01*
X188401571Y-79601142D01*
X188544428Y-79458285D01*
X188615857Y-79315428D01*
X188687285Y-79029714D01*
X188687285Y-78815428D01*
X188615857Y-78529714D01*
X188544428Y-78386857D01*
X188401571Y-78244000D01*
X188187285Y-78172571D01*
X188044428Y-78172571D01*
X187830142Y-78244000D01*
X187758714Y-78315428D01*
X187473000Y-77749000D02*
X186258714Y-77749000D01*
X186401571Y-79672571D02*
X187115857Y-79672571D01*
X187115857Y-78172571D01*
X186258714Y-77749000D02*
X184758714Y-77749000D01*
X185901571Y-79672571D02*
X185901571Y-78172571D01*
X185044428Y-79672571D02*
X185687285Y-78815428D01*
X185044428Y-78172571D02*
X185901571Y-79029714D01*
X184758714Y-77749000D02*
X183615857Y-77749000D01*
X184758714Y-79815428D02*
X183615857Y-79815428D01*
X183615857Y-77749000D02*
X182187285Y-77749000D01*
X183330142Y-79601142D02*
X183115857Y-79672571D01*
X182758714Y-79672571D01*
X182615857Y-79601142D01*
X182544428Y-79529714D01*
X182473000Y-79386857D01*
X182473000Y-79244000D01*
X182544428Y-79101142D01*
X182615857Y-79029714D01*
X182758714Y-78958285D01*
X183044428Y-78886857D01*
X183187285Y-78815428D01*
X183258714Y-78744000D01*
X183330142Y-78601142D01*
X183330142Y-78458285D01*
X183258714Y-78315428D01*
X183187285Y-78244000D01*
X183044428Y-78172571D01*
X182687285Y-78172571D01*
X182473000Y-78244000D01*
X182187285Y-77749000D02*
X180830142Y-77749000D01*
X181830142Y-78886857D02*
X181330142Y-78886857D01*
X181115857Y-79672571D02*
X181830142Y-79672571D01*
X181830142Y-78172571D01*
X181115857Y-78172571D01*
X180830142Y-77749000D02*
X179615857Y-77749000D01*
X179758714Y-79672571D02*
X180473000Y-79672571D01*
X180473000Y-78172571D01*
D10*
X95757857Y-79938571D02*
X96091190Y-79938571D01*
X96091190Y-80462380D02*
X96091190Y-79462380D01*
X95615000Y-79462380D01*
X95281666Y-80176666D02*
X94805476Y-80176666D01*
X95376904Y-80462380D02*
X95043571Y-79462380D01*
X94710238Y-80462380D01*
X94424523Y-80414761D02*
X94281666Y-80462380D01*
X94043571Y-80462380D01*
X93948333Y-80414761D01*
X93900714Y-80367142D01*
X93853095Y-80271904D01*
X93853095Y-80176666D01*
X93900714Y-80081428D01*
X93948333Y-80033809D01*
X94043571Y-79986190D01*
X94234047Y-79938571D01*
X94329285Y-79890952D01*
X94376904Y-79843333D01*
X94424523Y-79748095D01*
X94424523Y-79652857D01*
X94376904Y-79557619D01*
X94329285Y-79510000D01*
X94234047Y-79462380D01*
X93995952Y-79462380D01*
X93853095Y-79510000D01*
X93567380Y-79462380D02*
X92995952Y-79462380D01*
X93281666Y-80462380D02*
X93281666Y-79462380D01*
D11*
X188330142Y-95825571D02*
X188187285Y-95825571D01*
X188044428Y-95897000D01*
X187973000Y-95968428D01*
X187901571Y-96111285D01*
X187830142Y-96397000D01*
X187830142Y-96754142D01*
X187901571Y-97039857D01*
X187973000Y-97182714D01*
X188044428Y-97254142D01*
X188187285Y-97325571D01*
X188330142Y-97325571D01*
X188473000Y-97254142D01*
X188544428Y-97182714D01*
X188615857Y-97039857D01*
X188687285Y-96754142D01*
X188687285Y-96397000D01*
X188615857Y-96111285D01*
X188544428Y-95968428D01*
X188473000Y-95897000D01*
X188330142Y-95825571D01*
X187187285Y-97182714D02*
X187115857Y-97254142D01*
X187187285Y-97325571D01*
X187258714Y-97254142D01*
X187187285Y-97182714D01*
X187187285Y-97325571D01*
X185830142Y-96325571D02*
X185830142Y-97325571D01*
X186187285Y-95754142D02*
X186544428Y-96825571D01*
X185615857Y-96825571D01*
X184401571Y-95825571D02*
X184687285Y-95825571D01*
X184830142Y-95897000D01*
X184901571Y-95968428D01*
X185044428Y-96182714D01*
X185115857Y-96468428D01*
X185115857Y-97039857D01*
X185044428Y-97182714D01*
X184973000Y-97254142D01*
X184830142Y-97325571D01*
X184544428Y-97325571D01*
X184401571Y-97254142D01*
X184330142Y-97182714D01*
X184258714Y-97039857D01*
X184258714Y-96682714D01*
X184330142Y-96539857D01*
X184401571Y-96468428D01*
X184544428Y-96397000D01*
X184830142Y-96397000D01*
X184973000Y-96468428D01*
X185044428Y-96539857D01*
X185115857Y-96682714D01*
X183330142Y-95825571D02*
X183187285Y-95825571D01*
X183044428Y-95897000D01*
X182973000Y-95968428D01*
X182901571Y-96111285D01*
X182830142Y-96397000D01*
X182830142Y-96754142D01*
X182901571Y-97039857D01*
X182973000Y-97182714D01*
X183044428Y-97254142D01*
X183187285Y-97325571D01*
X183330142Y-97325571D01*
X183473000Y-97254142D01*
X183544428Y-97182714D01*
X183615857Y-97039857D01*
X183687285Y-96754142D01*
X183687285Y-96397000D01*
X183615857Y-96111285D01*
X183544428Y-95968428D01*
X183473000Y-95897000D01*
X183330142Y-95825571D01*
X181973000Y-96468428D02*
X182115857Y-96397000D01*
X182187285Y-96325571D01*
X182258714Y-96182714D01*
X182258714Y-96111285D01*
X182187285Y-95968428D01*
X182115857Y-95897000D01*
X181973000Y-95825571D01*
X181687285Y-95825571D01*
X181544428Y-95897000D01*
X181473000Y-95968428D01*
X181401571Y-96111285D01*
X181401571Y-96182714D01*
X181473000Y-96325571D01*
X181544428Y-96397000D01*
X181687285Y-96468428D01*
X181973000Y-96468428D01*
X182115857Y-96539857D01*
X182187285Y-96611285D01*
X182258714Y-96754142D01*
X182258714Y-97039857D01*
X182187285Y-97182714D01*
X182115857Y-97254142D01*
X181973000Y-97325571D01*
X181687285Y-97325571D01*
X181544428Y-97254142D01*
X181473000Y-97182714D01*
X181401571Y-97039857D01*
X181401571Y-96754142D01*
X181473000Y-96611285D01*
X181544428Y-96539857D01*
X181687285Y-96468428D01*
D10*
X97805476Y-64698571D02*
X98138809Y-64698571D01*
X98138809Y-65222380D02*
X98138809Y-64222380D01*
X97662619Y-64222380D01*
X96710238Y-65222380D02*
X97043571Y-64746190D01*
X97281666Y-65222380D02*
X97281666Y-64222380D01*
X96900714Y-64222380D01*
X96805476Y-64270000D01*
X96757857Y-64317619D01*
X96710238Y-64412857D01*
X96710238Y-64555714D01*
X96757857Y-64650952D01*
X96805476Y-64698571D01*
X96900714Y-64746190D01*
X97281666Y-64746190D01*
X96281666Y-64698571D02*
X95948333Y-64698571D01*
X95805476Y-65222380D02*
X96281666Y-65222380D01*
X96281666Y-64222380D01*
X95805476Y-64222380D01*
X95376904Y-64698571D02*
X95043571Y-64698571D01*
X94900714Y-65222380D02*
X95376904Y-65222380D01*
X95376904Y-64222380D01*
X94900714Y-64222380D01*
X93138809Y-65222380D02*
X93472142Y-64746190D01*
X93710238Y-65222380D02*
X93710238Y-64222380D01*
X93329285Y-64222380D01*
X93234047Y-64270000D01*
X93186428Y-64317619D01*
X93138809Y-64412857D01*
X93138809Y-64555714D01*
X93186428Y-64650952D01*
X93234047Y-64698571D01*
X93329285Y-64746190D01*
X93710238Y-64746190D01*
X92710238Y-64222380D02*
X92710238Y-65031904D01*
X92662619Y-65127142D01*
X92615000Y-65174761D01*
X92519761Y-65222380D01*
X92329285Y-65222380D01*
X92234047Y-65174761D01*
X92186428Y-65127142D01*
X92138809Y-65031904D01*
X92138809Y-64222380D01*
X91662619Y-65222380D02*
X91662619Y-64222380D01*
X91091190Y-65222380D01*
X91091190Y-64222380D01*
D11*
X96793571Y-114406071D02*
X97293571Y-113691785D01*
X97650714Y-114406071D02*
X97650714Y-112906071D01*
X97079285Y-112906071D01*
X96936428Y-112977500D01*
X96865000Y-113048928D01*
X96793571Y-113191785D01*
X96793571Y-113406071D01*
X96865000Y-113548928D01*
X96936428Y-113620357D01*
X97079285Y-113691785D01*
X97650714Y-113691785D01*
X96150714Y-113620357D02*
X95650714Y-113620357D01*
X95436428Y-114406071D02*
X96150714Y-114406071D01*
X96150714Y-112906071D01*
X95436428Y-112906071D01*
X94865000Y-114334642D02*
X94650714Y-114406071D01*
X94293571Y-114406071D01*
X94150714Y-114334642D01*
X94079285Y-114263214D01*
X94007857Y-114120357D01*
X94007857Y-113977500D01*
X94079285Y-113834642D01*
X94150714Y-113763214D01*
X94293571Y-113691785D01*
X94579285Y-113620357D01*
X94722142Y-113548928D01*
X94793571Y-113477500D01*
X94865000Y-113334642D01*
X94865000Y-113191785D01*
X94793571Y-113048928D01*
X94722142Y-112977500D01*
X94579285Y-112906071D01*
X94222142Y-112906071D01*
X94007857Y-112977500D01*
X93365000Y-113620357D02*
X92865000Y-113620357D01*
X92650714Y-114406071D02*
X93365000Y-114406071D01*
X93365000Y-112906071D01*
X92650714Y-112906071D01*
X92222142Y-112906071D02*
X91365000Y-112906071D01*
X91793571Y-114406071D02*
X91793571Y-112906071D01*
X97615000Y-116035357D02*
X98115000Y-116035357D01*
X98115000Y-116821071D02*
X98115000Y-115321071D01*
X97400714Y-115321071D01*
X96900714Y-116392500D02*
X96186428Y-116392500D01*
X97043571Y-116821071D02*
X96543571Y-115321071D01*
X96043571Y-116821071D01*
X95615000Y-116749642D02*
X95400714Y-116821071D01*
X95043571Y-116821071D01*
X94900714Y-116749642D01*
X94829285Y-116678214D01*
X94757857Y-116535357D01*
X94757857Y-116392500D01*
X94829285Y-116249642D01*
X94900714Y-116178214D01*
X95043571Y-116106785D01*
X95329285Y-116035357D01*
X95472142Y-115963928D01*
X95543571Y-115892500D01*
X95615000Y-115749642D01*
X95615000Y-115606785D01*
X95543571Y-115463928D01*
X95472142Y-115392500D01*
X95329285Y-115321071D01*
X94972142Y-115321071D01*
X94757857Y-115392500D01*
X94329285Y-115321071D02*
X93472142Y-115321071D01*
X93900714Y-116821071D02*
X93900714Y-115321071D01*
X91043571Y-116821071D02*
X91900714Y-116821071D01*
X91472142Y-116821071D02*
X91472142Y-115321071D01*
X91615000Y-115535357D01*
X91757857Y-115678214D01*
X91900714Y-115749642D01*
D10*
X180887619Y-50514047D02*
X180887619Y-49847380D01*
X179887619Y-50275952D01*
X179982857Y-49466428D02*
X179935238Y-49418809D01*
X179887619Y-49466428D01*
X179935238Y-49514047D01*
X179982857Y-49466428D01*
X179887619Y-49466428D01*
X180554285Y-48561666D02*
X179887619Y-48561666D01*
X180935238Y-48799761D02*
X180220952Y-49037857D01*
X180220952Y-48418809D01*
X179887619Y-48037857D02*
X180887619Y-48037857D01*
X180173333Y-47704523D01*
X180887619Y-47371190D01*
X179887619Y-47371190D01*
D11*
X188615857Y-89705571D02*
X188615857Y-88205571D01*
X188115857Y-89277000D01*
X187615857Y-88205571D01*
X187615857Y-89705571D01*
X186615857Y-88205571D02*
X186330142Y-88205571D01*
X186187285Y-88277000D01*
X186044428Y-88419857D01*
X185973000Y-88705571D01*
X185973000Y-89205571D01*
X186044428Y-89491285D01*
X186187285Y-89634142D01*
X186330142Y-89705571D01*
X186615857Y-89705571D01*
X186758714Y-89634142D01*
X186901571Y-89491285D01*
X186973000Y-89205571D01*
X186973000Y-88705571D01*
X186901571Y-88419857D01*
X186758714Y-88277000D01*
X186615857Y-88205571D01*
X185330142Y-89705571D02*
X185330142Y-88205571D01*
X184973000Y-88205571D01*
X184758714Y-88277000D01*
X184615857Y-88419857D01*
X184544428Y-88562714D01*
X184473000Y-88848428D01*
X184473000Y-89062714D01*
X184544428Y-89348428D01*
X184615857Y-89491285D01*
X184758714Y-89634142D01*
X184973000Y-89705571D01*
X185330142Y-89705571D01*
X183830142Y-88919857D02*
X183330142Y-88919857D01*
X183115857Y-89705571D02*
X183830142Y-89705571D01*
X183830142Y-88205571D01*
X183115857Y-88205571D01*
X188687285Y-92174142D02*
X188473000Y-92245571D01*
X188115857Y-92245571D01*
X187973000Y-92174142D01*
X187901571Y-92102714D01*
X187830142Y-91959857D01*
X187830142Y-91817000D01*
X187901571Y-91674142D01*
X187973000Y-91602714D01*
X188115857Y-91531285D01*
X188401571Y-91459857D01*
X188544428Y-91388428D01*
X188615857Y-91317000D01*
X188687285Y-91174142D01*
X188687285Y-91031285D01*
X188615857Y-90888428D01*
X188544428Y-90817000D01*
X188401571Y-90745571D01*
X188044428Y-90745571D01*
X187830142Y-90817000D01*
X187401571Y-90745571D02*
X186544428Y-90745571D01*
X186973000Y-92245571D02*
X186973000Y-90745571D01*
X186044428Y-91459857D02*
X185544428Y-91459857D01*
X185330142Y-92245571D02*
X186044428Y-92245571D01*
X186044428Y-90745571D01*
X185330142Y-90745571D01*
X184687285Y-92245571D02*
X184687285Y-90745571D01*
X184115857Y-90745571D01*
X183973000Y-90817000D01*
X183901571Y-90888428D01*
X183830142Y-91031285D01*
X183830142Y-91245571D01*
X183901571Y-91388428D01*
X183973000Y-91459857D01*
X184115857Y-91531285D01*
X184687285Y-91531285D01*
X188687285Y-87094142D02*
X188473000Y-87165571D01*
X188115857Y-87165571D01*
X187973000Y-87094142D01*
X187901571Y-87022714D01*
X187830142Y-86879857D01*
X187830142Y-86737000D01*
X187901571Y-86594142D01*
X187973000Y-86522714D01*
X188115857Y-86451285D01*
X188401571Y-86379857D01*
X188544428Y-86308428D01*
X188615857Y-86237000D01*
X188687285Y-86094142D01*
X188687285Y-85951285D01*
X188615857Y-85808428D01*
X188544428Y-85737000D01*
X188401571Y-85665571D01*
X188044428Y-85665571D01*
X187830142Y-85737000D01*
X187187285Y-87165571D02*
X187187285Y-85665571D01*
X186615857Y-85665571D01*
X186473000Y-85737000D01*
X186401571Y-85808428D01*
X186330142Y-85951285D01*
X186330142Y-86165571D01*
X186401571Y-86308428D01*
X186473000Y-86379857D01*
X186615857Y-86451285D01*
X187187285Y-86451285D01*
X185687285Y-86379857D02*
X185187285Y-86379857D01*
X184973000Y-87165571D02*
X185687285Y-87165571D01*
X185687285Y-85665571D01*
X184973000Y-85665571D01*
X184330142Y-86379857D02*
X183830142Y-86379857D01*
X183615857Y-87165571D02*
X184330142Y-87165571D01*
X184330142Y-85665571D01*
X183615857Y-85665571D01*
X182973000Y-87165571D02*
X182973000Y-85665571D01*
X182615857Y-85665571D01*
X182401571Y-85737000D01*
X182258714Y-85879857D01*
X182187285Y-86022714D01*
X182115857Y-86308428D01*
X182115857Y-86522714D01*
X182187285Y-86808428D01*
X182258714Y-86951285D01*
X182401571Y-87094142D01*
X182615857Y-87165571D01*
X182973000Y-87165571D01*
D10*
X115157047Y-55094142D02*
X115204666Y-55141761D01*
X115347523Y-55189380D01*
X115442761Y-55189380D01*
X115585619Y-55141761D01*
X115680857Y-55046523D01*
X115728476Y-54951285D01*
X115776095Y-54760809D01*
X115776095Y-54617952D01*
X115728476Y-54427476D01*
X115680857Y-54332238D01*
X115585619Y-54237000D01*
X115442761Y-54189380D01*
X115347523Y-54189380D01*
X115204666Y-54237000D01*
X115157047Y-54284619D01*
X114252285Y-55189380D02*
X114728476Y-55189380D01*
X114728476Y-54189380D01*
X113728476Y-54189380D02*
X113538000Y-54189380D01*
X113442761Y-54237000D01*
X113347523Y-54332238D01*
X113299904Y-54522714D01*
X113299904Y-54856047D01*
X113347523Y-55046523D01*
X113442761Y-55141761D01*
X113538000Y-55189380D01*
X113728476Y-55189380D01*
X113823714Y-55141761D01*
X113918952Y-55046523D01*
X113966571Y-54856047D01*
X113966571Y-54522714D01*
X113918952Y-54332238D01*
X113823714Y-54237000D01*
X113728476Y-54189380D01*
X112299904Y-55094142D02*
X112347523Y-55141761D01*
X112490380Y-55189380D01*
X112585619Y-55189380D01*
X112728476Y-55141761D01*
X112823714Y-55046523D01*
X112871333Y-54951285D01*
X112918952Y-54760809D01*
X112918952Y-54617952D01*
X112871333Y-54427476D01*
X112823714Y-54332238D01*
X112728476Y-54237000D01*
X112585619Y-54189380D01*
X112490380Y-54189380D01*
X112347523Y-54237000D01*
X112299904Y-54284619D01*
X111871333Y-55189380D02*
X111871333Y-54189380D01*
X111299904Y-55189380D02*
X111728476Y-54617952D01*
X111299904Y-54189380D02*
X111871333Y-54760809D01*
D11*
X188973000Y-105689000D02*
X187473000Y-105689000D01*
X187758714Y-107469714D02*
X187830142Y-107541142D01*
X188044428Y-107612571D01*
X188187285Y-107612571D01*
X188401571Y-107541142D01*
X188544428Y-107398285D01*
X188615857Y-107255428D01*
X188687285Y-106969714D01*
X188687285Y-106755428D01*
X188615857Y-106469714D01*
X188544428Y-106326857D01*
X188401571Y-106184000D01*
X188187285Y-106112571D01*
X188044428Y-106112571D01*
X187830142Y-106184000D01*
X187758714Y-106255428D01*
X187473000Y-105689000D02*
X186258714Y-105689000D01*
X186401571Y-107612571D02*
X187115857Y-107612571D01*
X187115857Y-106112571D01*
X186258714Y-105689000D02*
X184758714Y-105689000D01*
X185901571Y-107612571D02*
X185901571Y-106112571D01*
X185044428Y-107612571D02*
X185687285Y-106755428D01*
X185044428Y-106112571D02*
X185901571Y-106969714D01*
D10*
X152042190Y-54808428D02*
X151280285Y-54808428D01*
X150804095Y-54808428D02*
X150042190Y-54808428D01*
X148851714Y-55141761D02*
X148708857Y-55189380D01*
X148470761Y-55189380D01*
X148375523Y-55141761D01*
X148327904Y-55094142D01*
X148280285Y-54998904D01*
X148280285Y-54903666D01*
X148327904Y-54808428D01*
X148375523Y-54760809D01*
X148470761Y-54713190D01*
X148661238Y-54665571D01*
X148756476Y-54617952D01*
X148804095Y-54570333D01*
X148851714Y-54475095D01*
X148851714Y-54379857D01*
X148804095Y-54284619D01*
X148756476Y-54237000D01*
X148661238Y-54189380D01*
X148423142Y-54189380D01*
X148280285Y-54237000D01*
X147375523Y-55189380D02*
X147851714Y-55189380D01*
X147851714Y-54189380D01*
X146851714Y-54189380D02*
X146661238Y-54189380D01*
X146566000Y-54237000D01*
X146470761Y-54332238D01*
X146423142Y-54522714D01*
X146423142Y-54856047D01*
X146470761Y-55046523D01*
X146566000Y-55141761D01*
X146661238Y-55189380D01*
X146851714Y-55189380D01*
X146946952Y-55141761D01*
X147042190Y-55046523D01*
X147089809Y-54856047D01*
X147089809Y-54522714D01*
X147042190Y-54332238D01*
X146946952Y-54237000D01*
X146851714Y-54189380D01*
X146089809Y-54189380D02*
X145851714Y-55189380D01*
X145661238Y-54475095D01*
X145470761Y-55189380D01*
X145232666Y-54189380D01*
X144089809Y-54808428D02*
X143327904Y-54808428D01*
X142851714Y-54808428D02*
X142089809Y-54808428D01*
X95424523Y-119927619D02*
X95519761Y-119880000D01*
X95615000Y-119784761D01*
X95757857Y-119641904D01*
X95853095Y-119594285D01*
X95948333Y-119594285D01*
X95900714Y-119832380D02*
X95995952Y-119784761D01*
X96091190Y-119689523D01*
X96138809Y-119499047D01*
X96138809Y-119165714D01*
X96091190Y-118975238D01*
X95995952Y-118880000D01*
X95900714Y-118832380D01*
X95710238Y-118832380D01*
X95615000Y-118880000D01*
X95519761Y-118975238D01*
X95472142Y-119165714D01*
X95472142Y-119499047D01*
X95519761Y-119689523D01*
X95615000Y-119784761D01*
X95710238Y-119832380D01*
X95900714Y-119832380D01*
X94519761Y-119832380D02*
X95091190Y-119832380D01*
X94805476Y-119832380D02*
X94805476Y-118832380D01*
X94900714Y-118975238D01*
X94995952Y-119070476D01*
X95091190Y-119118095D01*
X94091190Y-119737142D02*
X94043571Y-119784761D01*
X94091190Y-119832380D01*
X94138809Y-119784761D01*
X94091190Y-119737142D01*
X94091190Y-119832380D01*
X94091190Y-119213333D02*
X94043571Y-119260952D01*
X94091190Y-119308571D01*
X94138809Y-119260952D01*
X94091190Y-119213333D01*
X94091190Y-119308571D01*
X93424523Y-118832380D02*
X93329285Y-118832380D01*
X93234047Y-118880000D01*
X93186428Y-118927619D01*
X93138809Y-119022857D01*
X93091190Y-119213333D01*
X93091190Y-119451428D01*
X93138809Y-119641904D01*
X93186428Y-119737142D01*
X93234047Y-119784761D01*
X93329285Y-119832380D01*
X93424523Y-119832380D01*
X93519761Y-119784761D01*
X93567380Y-119737142D01*
X93615000Y-119641904D01*
X93662619Y-119451428D01*
X93662619Y-119213333D01*
X93615000Y-119022857D01*
X93567380Y-118927619D01*
X93519761Y-118880000D01*
X93424523Y-118832380D01*
D11*
X187864428Y-112565571D02*
X188695857Y-112565571D01*
X188280142Y-112565571D02*
X188280142Y-111065571D01*
X188418714Y-111279857D01*
X188557285Y-111422714D01*
X188695857Y-111494142D01*
X186617285Y-111565571D02*
X186617285Y-112565571D01*
X186963714Y-110994142D02*
X187310142Y-112065571D01*
X186409428Y-112065571D01*
X185855142Y-112422714D02*
X185785857Y-112494142D01*
X185855142Y-112565571D01*
X185924428Y-112494142D01*
X185855142Y-112422714D01*
X185855142Y-112565571D01*
X185300857Y-111065571D02*
X184330857Y-111065571D01*
X184954428Y-112565571D01*
X183153000Y-111565571D02*
X183153000Y-112565571D01*
X183499428Y-110994142D02*
X183845857Y-112065571D01*
X182945142Y-112065571D01*
X181698000Y-111065571D02*
X182390857Y-111065571D01*
X182460142Y-111779857D01*
X182390857Y-111708428D01*
X182252285Y-111637000D01*
X181905857Y-111637000D01*
X181767285Y-111708428D01*
X181698000Y-111779857D01*
X181628714Y-111922714D01*
X181628714Y-112279857D01*
X181698000Y-112422714D01*
X181767285Y-112494142D01*
X181905857Y-112565571D01*
X182252285Y-112565571D01*
X182390857Y-112494142D01*
X182460142Y-112422714D01*
X180381571Y-111065571D02*
X180658714Y-111065571D01*
X180797285Y-111137000D01*
X180866571Y-111208428D01*
X181005142Y-111422714D01*
X181074428Y-111708428D01*
X181074428Y-112279857D01*
X181005142Y-112422714D01*
X180935857Y-112494142D01*
X180797285Y-112565571D01*
X180520142Y-112565571D01*
X180381571Y-112494142D01*
X180312285Y-112422714D01*
X180243000Y-112279857D01*
X180243000Y-111922714D01*
X180312285Y-111779857D01*
X180381571Y-111708428D01*
X180520142Y-111637000D01*
X180797285Y-111637000D01*
X180935857Y-111708428D01*
X181005142Y-111779857D01*
X181074428Y-111922714D01*
D10*
X139445619Y-54522714D02*
X140207523Y-54808428D01*
X139445619Y-55094142D01*
X138207523Y-55189380D02*
X138207523Y-54189380D01*
X137874190Y-54903666D01*
X137540857Y-54189380D01*
X137540857Y-55189380D01*
X136874190Y-54189380D02*
X136683714Y-54189380D01*
X136588476Y-54237000D01*
X136493238Y-54332238D01*
X136445619Y-54522714D01*
X136445619Y-54856047D01*
X136493238Y-55046523D01*
X136588476Y-55141761D01*
X136683714Y-55189380D01*
X136874190Y-55189380D01*
X136969428Y-55141761D01*
X137064666Y-55046523D01*
X137112285Y-54856047D01*
X137112285Y-54522714D01*
X137064666Y-54332238D01*
X136969428Y-54237000D01*
X136874190Y-54189380D01*
X136017047Y-55189380D02*
X136017047Y-54189380D01*
X135778952Y-54189380D01*
X135636095Y-54237000D01*
X135540857Y-54332238D01*
X135493238Y-54427476D01*
X135445619Y-54617952D01*
X135445619Y-54760809D01*
X135493238Y-54951285D01*
X135540857Y-55046523D01*
X135636095Y-55141761D01*
X135778952Y-55189380D01*
X136017047Y-55189380D01*
X135017047Y-54665571D02*
X134683714Y-54665571D01*
X134540857Y-55189380D02*
X135017047Y-55189380D01*
X135017047Y-54189380D01*
X134540857Y-54189380D01*
X133350380Y-54522714D02*
X132588476Y-54808428D01*
X133350380Y-55094142D01*
X182386666Y-54935428D02*
X181624761Y-54935428D01*
X181148571Y-54935428D02*
X180386666Y-54935428D01*
X179910476Y-54935428D02*
X179148571Y-54935428D01*
X178672380Y-54935428D02*
X177910476Y-54935428D01*
X177434285Y-54935428D02*
X176672380Y-54935428D01*
X176196190Y-54935428D02*
X175434285Y-54935428D01*
X173862857Y-54792571D02*
X174196190Y-54792571D01*
X174196190Y-55316380D02*
X174196190Y-54316380D01*
X173720000Y-54316380D01*
X173386666Y-55030666D02*
X172910476Y-55030666D01*
X173481904Y-55316380D02*
X173148571Y-54316380D01*
X172815238Y-55316380D01*
X172529523Y-55268761D02*
X172386666Y-55316380D01*
X172148571Y-55316380D01*
X172053333Y-55268761D01*
X172005714Y-55221142D01*
X171958095Y-55125904D01*
X171958095Y-55030666D01*
X172005714Y-54935428D01*
X172053333Y-54887809D01*
X172148571Y-54840190D01*
X172339047Y-54792571D01*
X172434285Y-54744952D01*
X172481904Y-54697333D01*
X172529523Y-54602095D01*
X172529523Y-54506857D01*
X172481904Y-54411619D01*
X172434285Y-54364000D01*
X172339047Y-54316380D01*
X172100952Y-54316380D01*
X171958095Y-54364000D01*
X171672380Y-54316380D02*
X171100952Y-54316380D01*
X171386666Y-55316380D02*
X171386666Y-54316380D01*
X170005714Y-54935428D02*
X169243809Y-54935428D01*
X168767619Y-54935428D02*
X168005714Y-54935428D01*
X167529523Y-54935428D02*
X166767619Y-54935428D01*
X166291428Y-54935428D02*
X165529523Y-54935428D01*
X165053333Y-54935428D02*
X164291428Y-54935428D01*
X163815238Y-54935428D02*
X163053333Y-54935428D01*
D11*
X188687285Y-94714142D02*
X188473000Y-94785571D01*
X188115857Y-94785571D01*
X187973000Y-94714142D01*
X187901571Y-94642714D01*
X187830142Y-94499857D01*
X187830142Y-94357000D01*
X187901571Y-94214142D01*
X187973000Y-94142714D01*
X188115857Y-94071285D01*
X188401571Y-93999857D01*
X188544428Y-93928428D01*
X188615857Y-93857000D01*
X188687285Y-93714142D01*
X188687285Y-93571285D01*
X188615857Y-93428428D01*
X188544428Y-93357000D01*
X188401571Y-93285571D01*
X188044428Y-93285571D01*
X187830142Y-93357000D01*
X186473000Y-94785571D02*
X187187285Y-94785571D01*
X187187285Y-93285571D01*
X185687285Y-93285571D02*
X185401571Y-93285571D01*
X185258714Y-93357000D01*
X185115857Y-93499857D01*
X185044428Y-93785571D01*
X185044428Y-94285571D01*
X185115857Y-94571285D01*
X185258714Y-94714142D01*
X185401571Y-94785571D01*
X185687285Y-94785571D01*
X185830142Y-94714142D01*
X185973000Y-94571285D01*
X186044428Y-94285571D01*
X186044428Y-93785571D01*
X185973000Y-93499857D01*
X185830142Y-93357000D01*
X185687285Y-93285571D01*
X184544428Y-93285571D02*
X184187285Y-94785571D01*
X183901571Y-93714142D01*
X183615857Y-94785571D01*
X183258714Y-93285571D01*
X96650714Y-67900357D02*
X96436428Y-67971785D01*
X96365000Y-68043214D01*
X96293571Y-68186071D01*
X96293571Y-68400357D01*
X96365000Y-68543214D01*
X96436428Y-68614642D01*
X96579285Y-68686071D01*
X97150714Y-68686071D01*
X97150714Y-67186071D01*
X96650714Y-67186071D01*
X96507857Y-67257500D01*
X96436428Y-67328928D01*
X96365000Y-67471785D01*
X96365000Y-67614642D01*
X96436428Y-67757500D01*
X96507857Y-67828928D01*
X96650714Y-67900357D01*
X97150714Y-67900357D01*
X95365000Y-67186071D02*
X95079285Y-67186071D01*
X94936428Y-67257500D01*
X94793571Y-67400357D01*
X94722142Y-67686071D01*
X94722142Y-68186071D01*
X94793571Y-68471785D01*
X94936428Y-68614642D01*
X95079285Y-68686071D01*
X95365000Y-68686071D01*
X95507857Y-68614642D01*
X95650714Y-68471785D01*
X95722142Y-68186071D01*
X95722142Y-67686071D01*
X95650714Y-67400357D01*
X95507857Y-67257500D01*
X95365000Y-67186071D01*
X93793571Y-67186071D02*
X93507857Y-67186071D01*
X93365000Y-67257500D01*
X93222142Y-67400357D01*
X93150714Y-67686071D01*
X93150714Y-68186071D01*
X93222142Y-68471785D01*
X93365000Y-68614642D01*
X93507857Y-68686071D01*
X93793571Y-68686071D01*
X93936428Y-68614642D01*
X94079285Y-68471785D01*
X94150714Y-68186071D01*
X94150714Y-67686071D01*
X94079285Y-67400357D01*
X93936428Y-67257500D01*
X93793571Y-67186071D01*
X92722142Y-67186071D02*
X91865000Y-67186071D01*
X92293571Y-68686071D02*
X92293571Y-67186071D01*
X97329285Y-71101071D02*
X97329285Y-69601071D01*
X96829285Y-70672500D01*
X96329285Y-69601071D01*
X96329285Y-71101071D01*
X95329285Y-69601071D02*
X95043571Y-69601071D01*
X94900714Y-69672500D01*
X94757857Y-69815357D01*
X94686428Y-70101071D01*
X94686428Y-70601071D01*
X94757857Y-70886785D01*
X94900714Y-71029642D01*
X95043571Y-71101071D01*
X95329285Y-71101071D01*
X95472142Y-71029642D01*
X95615000Y-70886785D01*
X95686428Y-70601071D01*
X95686428Y-70101071D01*
X95615000Y-69815357D01*
X95472142Y-69672500D01*
X95329285Y-69601071D01*
X94043571Y-71101071D02*
X94043571Y-69601071D01*
X93686428Y-69601071D01*
X93472142Y-69672500D01*
X93329285Y-69815357D01*
X93257857Y-69958214D01*
X93186428Y-70243928D01*
X93186428Y-70458214D01*
X93257857Y-70743928D01*
X93329285Y-70886785D01*
X93472142Y-71029642D01*
X93686428Y-71101071D01*
X94043571Y-71101071D01*
X92543571Y-70315357D02*
X92043571Y-70315357D01*
X91829285Y-71101071D02*
X92543571Y-71101071D01*
X92543571Y-69601071D01*
X91829285Y-69601071D01*
X188758714Y-100905571D02*
X187830142Y-100905571D01*
X188330142Y-101477000D01*
X188115857Y-101477000D01*
X187973000Y-101548428D01*
X187901571Y-101619857D01*
X187830142Y-101762714D01*
X187830142Y-102119857D01*
X187901571Y-102262714D01*
X187973000Y-102334142D01*
X188115857Y-102405571D01*
X188544428Y-102405571D01*
X188687285Y-102334142D01*
X188758714Y-102262714D01*
X187187285Y-102262714D02*
X187115857Y-102334142D01*
X187187285Y-102405571D01*
X187258714Y-102334142D01*
X187187285Y-102262714D01*
X187187285Y-102405571D01*
X185830142Y-100905571D02*
X186115857Y-100905571D01*
X186258714Y-100977000D01*
X186330142Y-101048428D01*
X186473000Y-101262714D01*
X186544428Y-101548428D01*
X186544428Y-102119857D01*
X186473000Y-102262714D01*
X186401571Y-102334142D01*
X186258714Y-102405571D01*
X185973000Y-102405571D01*
X185830142Y-102334142D01*
X185758714Y-102262714D01*
X185687285Y-102119857D01*
X185687285Y-101762714D01*
X185758714Y-101619857D01*
X185830142Y-101548428D01*
X185973000Y-101477000D01*
X186258714Y-101477000D01*
X186401571Y-101548428D01*
X186473000Y-101619857D01*
X186544428Y-101762714D01*
X184830142Y-101548428D02*
X184973000Y-101477000D01*
X185044428Y-101405571D01*
X185115857Y-101262714D01*
X185115857Y-101191285D01*
X185044428Y-101048428D01*
X184973000Y-100977000D01*
X184830142Y-100905571D01*
X184544428Y-100905571D01*
X184401571Y-100977000D01*
X184330142Y-101048428D01*
X184258714Y-101191285D01*
X184258714Y-101262714D01*
X184330142Y-101405571D01*
X184401571Y-101477000D01*
X184544428Y-101548428D01*
X184830142Y-101548428D01*
X184973000Y-101619857D01*
X185044428Y-101691285D01*
X185115857Y-101834142D01*
X185115857Y-102119857D01*
X185044428Y-102262714D01*
X184973000Y-102334142D01*
X184830142Y-102405571D01*
X184544428Y-102405571D01*
X184401571Y-102334142D01*
X184330142Y-102262714D01*
X184258714Y-102119857D01*
X184258714Y-101834142D01*
X184330142Y-101691285D01*
X184401571Y-101619857D01*
X184544428Y-101548428D01*
X182973000Y-100905571D02*
X183258714Y-100905571D01*
X183401571Y-100977000D01*
X183473000Y-101048428D01*
X183615857Y-101262714D01*
X183687285Y-101548428D01*
X183687285Y-102119857D01*
X183615857Y-102262714D01*
X183544428Y-102334142D01*
X183401571Y-102405571D01*
X183115857Y-102405571D01*
X182973000Y-102334142D01*
X182901571Y-102262714D01*
X182830142Y-102119857D01*
X182830142Y-101762714D01*
X182901571Y-101619857D01*
X182973000Y-101548428D01*
X183115857Y-101477000D01*
X183401571Y-101477000D01*
X183544428Y-101548428D01*
X183615857Y-101619857D01*
X183687285Y-101762714D01*
X181544428Y-101405571D02*
X181544428Y-102405571D01*
X181901571Y-100834142D02*
X182258714Y-101905571D01*
X181330142Y-101905571D01*
X188973000Y-118389000D02*
X187473000Y-118389000D01*
X188615857Y-120312571D02*
X188615857Y-118812571D01*
X188044428Y-118812571D01*
X187901571Y-118884000D01*
X187830142Y-118955428D01*
X187758714Y-119098285D01*
X187758714Y-119312571D01*
X187830142Y-119455428D01*
X187901571Y-119526857D01*
X188044428Y-119598285D01*
X188615857Y-119598285D01*
X187473000Y-118389000D02*
X185758714Y-118389000D01*
X187258714Y-118812571D02*
X186901571Y-120312571D01*
X186615857Y-119241142D01*
X186330142Y-120312571D01*
X185973000Y-118812571D01*
X185758714Y-118389000D02*
X184258714Y-118389000D01*
X184544428Y-120312571D02*
X185044428Y-119598285D01*
X185401571Y-120312571D02*
X185401571Y-118812571D01*
X184830142Y-118812571D01*
X184687285Y-118884000D01*
X184615857Y-118955428D01*
X184544428Y-119098285D01*
X184544428Y-119312571D01*
X184615857Y-119455428D01*
X184687285Y-119526857D01*
X184830142Y-119598285D01*
X185401571Y-119598285D01*
X184258714Y-118389000D02*
X183115857Y-118389000D01*
X184258714Y-120455428D02*
X183115857Y-120455428D01*
X183115857Y-118389000D02*
X181544428Y-118389000D01*
X182758714Y-118812571D02*
X182758714Y-120026857D01*
X182687285Y-120169714D01*
X182615857Y-120241142D01*
X182473000Y-120312571D01*
X182187285Y-120312571D01*
X182044428Y-120241142D01*
X181973000Y-120169714D01*
X181901571Y-120026857D01*
X181901571Y-118812571D01*
X181544428Y-118389000D02*
X180044428Y-118389000D01*
X181187285Y-120312571D02*
X181187285Y-118812571D01*
X180615857Y-118812571D01*
X180473000Y-118884000D01*
X180401571Y-118955428D01*
X180330142Y-119098285D01*
X180330142Y-119312571D01*
X180401571Y-119455428D01*
X180473000Y-119526857D01*
X180615857Y-119598285D01*
X181187285Y-119598285D01*
X188973000Y-75209000D02*
X187473000Y-75209000D01*
X187758714Y-76989714D02*
X187830142Y-77061142D01*
X188044428Y-77132571D01*
X188187285Y-77132571D01*
X188401571Y-77061142D01*
X188544428Y-76918285D01*
X188615857Y-76775428D01*
X188687285Y-76489714D01*
X188687285Y-76275428D01*
X188615857Y-75989714D01*
X188544428Y-75846857D01*
X188401571Y-75704000D01*
X188187285Y-75632571D01*
X188044428Y-75632571D01*
X187830142Y-75704000D01*
X187758714Y-75775428D01*
X187473000Y-75209000D02*
X186258714Y-75209000D01*
X186401571Y-77132571D02*
X187115857Y-77132571D01*
X187115857Y-75632571D01*
X186258714Y-75209000D02*
X184758714Y-75209000D01*
X185901571Y-77132571D02*
X185901571Y-75632571D01*
X185044428Y-77132571D02*
X185687285Y-76275428D01*
X185044428Y-75632571D02*
X185901571Y-76489714D01*
X184758714Y-75209000D02*
X183615857Y-75209000D01*
X184758714Y-77275428D02*
X183615857Y-77275428D01*
X183615857Y-75209000D02*
X182115857Y-75209000D01*
X183258714Y-77132571D02*
X183258714Y-75632571D01*
X182901571Y-75632571D01*
X182687285Y-75704000D01*
X182544428Y-75846857D01*
X182473000Y-75989714D01*
X182401571Y-76275428D01*
X182401571Y-76489714D01*
X182473000Y-76775428D01*
X182544428Y-76918285D01*
X182687285Y-77061142D01*
X182901571Y-77132571D01*
X183258714Y-77132571D01*
X182115857Y-75209000D02*
X181401571Y-75209000D01*
X181758714Y-77132571D02*
X181758714Y-75632571D01*
X181401571Y-75209000D02*
X179973000Y-75209000D01*
X181115857Y-77061142D02*
X180901571Y-77132571D01*
X180544428Y-77132571D01*
X180401571Y-77061142D01*
X180330142Y-76989714D01*
X180258714Y-76846857D01*
X180258714Y-76704000D01*
X180330142Y-76561142D01*
X180401571Y-76489714D01*
X180544428Y-76418285D01*
X180830142Y-76346857D01*
X180973000Y-76275428D01*
X181044428Y-76204000D01*
X181115857Y-76061142D01*
X181115857Y-75918285D01*
X181044428Y-75775428D01*
X180973000Y-75704000D01*
X180830142Y-75632571D01*
X180473000Y-75632571D01*
X180258714Y-75704000D01*
X96793571Y-99166071D02*
X97293571Y-98451785D01*
X97650714Y-99166071D02*
X97650714Y-97666071D01*
X97079285Y-97666071D01*
X96936428Y-97737500D01*
X96865000Y-97808928D01*
X96793571Y-97951785D01*
X96793571Y-98166071D01*
X96865000Y-98308928D01*
X96936428Y-98380357D01*
X97079285Y-98451785D01*
X97650714Y-98451785D01*
X96150714Y-98380357D02*
X95650714Y-98380357D01*
X95436428Y-99166071D02*
X96150714Y-99166071D01*
X96150714Y-97666071D01*
X95436428Y-97666071D01*
X94865000Y-99094642D02*
X94650714Y-99166071D01*
X94293571Y-99166071D01*
X94150714Y-99094642D01*
X94079285Y-99023214D01*
X94007857Y-98880357D01*
X94007857Y-98737500D01*
X94079285Y-98594642D01*
X94150714Y-98523214D01*
X94293571Y-98451785D01*
X94579285Y-98380357D01*
X94722142Y-98308928D01*
X94793571Y-98237500D01*
X94865000Y-98094642D01*
X94865000Y-97951785D01*
X94793571Y-97808928D01*
X94722142Y-97737500D01*
X94579285Y-97666071D01*
X94222142Y-97666071D01*
X94007857Y-97737500D01*
X93365000Y-98380357D02*
X92865000Y-98380357D01*
X92650714Y-99166071D02*
X93365000Y-99166071D01*
X93365000Y-97666071D01*
X92650714Y-97666071D01*
X92222142Y-97666071D02*
X91365000Y-97666071D01*
X91793571Y-99166071D02*
X91793571Y-97666071D01*
X97615000Y-100795357D02*
X98115000Y-100795357D01*
X98115000Y-101581071D02*
X98115000Y-100081071D01*
X97400714Y-100081071D01*
X96900714Y-101152500D02*
X96186428Y-101152500D01*
X97043571Y-101581071D02*
X96543571Y-100081071D01*
X96043571Y-101581071D01*
X95615000Y-101509642D02*
X95400714Y-101581071D01*
X95043571Y-101581071D01*
X94900714Y-101509642D01*
X94829285Y-101438214D01*
X94757857Y-101295357D01*
X94757857Y-101152500D01*
X94829285Y-101009642D01*
X94900714Y-100938214D01*
X95043571Y-100866785D01*
X95329285Y-100795357D01*
X95472142Y-100723928D01*
X95543571Y-100652500D01*
X95615000Y-100509642D01*
X95615000Y-100366785D01*
X95543571Y-100223928D01*
X95472142Y-100152500D01*
X95329285Y-100081071D01*
X94972142Y-100081071D01*
X94757857Y-100152500D01*
X94329285Y-100081071D02*
X93472142Y-100081071D01*
X93900714Y-101581071D02*
X93900714Y-100081071D01*
X91543571Y-100081071D02*
X91400714Y-100081071D01*
X91257857Y-100152500D01*
X91186428Y-100223928D01*
X91115000Y-100366785D01*
X91043571Y-100652500D01*
X91043571Y-101009642D01*
X91115000Y-101295357D01*
X91186428Y-101438214D01*
X91257857Y-101509642D01*
X91400714Y-101581071D01*
X91543571Y-101581071D01*
X91686428Y-101509642D01*
X91757857Y-101438214D01*
X91829285Y-101295357D01*
X91900714Y-101009642D01*
X91900714Y-100652500D01*
X91829285Y-100366785D01*
X91757857Y-100223928D01*
X91686428Y-100152500D01*
X91543571Y-100081071D01*
X187830142Y-126377000D02*
X187973000Y-126305571D01*
X188187285Y-126305571D01*
X188401571Y-126377000D01*
X188544428Y-126519857D01*
X188615857Y-126662714D01*
X188687285Y-126948428D01*
X188687285Y-127162714D01*
X188615857Y-127448428D01*
X188544428Y-127591285D01*
X188401571Y-127734142D01*
X188187285Y-127805571D01*
X188044428Y-127805571D01*
X187830142Y-127734142D01*
X187758714Y-127662714D01*
X187758714Y-127162714D01*
X188044428Y-127162714D01*
X187115857Y-127805571D02*
X187115857Y-126305571D01*
X186258714Y-127805571D01*
X186258714Y-126305571D01*
X185544428Y-127805571D02*
X185544428Y-126305571D01*
X185187285Y-126305571D01*
X184973000Y-126377000D01*
X184830142Y-126519857D01*
X184758714Y-126662714D01*
X184687285Y-126948428D01*
X184687285Y-127162714D01*
X184758714Y-127448428D01*
X184830142Y-127591285D01*
X184973000Y-127734142D01*
X185187285Y-127805571D01*
X185544428Y-127805571D01*
D10*
X109624000Y-54808428D02*
X108862095Y-54808428D01*
X108385904Y-54808428D02*
X107624000Y-54808428D01*
X107147809Y-54808428D02*
X106385904Y-54808428D01*
X104576380Y-55189380D02*
X104909714Y-54713190D01*
X105147809Y-55189380D02*
X105147809Y-54189380D01*
X104766857Y-54189380D01*
X104671619Y-54237000D01*
X104624000Y-54284619D01*
X104576380Y-54379857D01*
X104576380Y-54522714D01*
X104624000Y-54617952D01*
X104671619Y-54665571D01*
X104766857Y-54713190D01*
X105147809Y-54713190D01*
X104147809Y-54665571D02*
X103814476Y-54665571D01*
X103671619Y-55189380D02*
X104147809Y-55189380D01*
X104147809Y-54189380D01*
X103671619Y-54189380D01*
X103290666Y-55141761D02*
X103147809Y-55189380D01*
X102909714Y-55189380D01*
X102814476Y-55141761D01*
X102766857Y-55094142D01*
X102719238Y-54998904D01*
X102719238Y-54903666D01*
X102766857Y-54808428D01*
X102814476Y-54760809D01*
X102909714Y-54713190D01*
X103100190Y-54665571D01*
X103195428Y-54617952D01*
X103243047Y-54570333D01*
X103290666Y-54475095D01*
X103290666Y-54379857D01*
X103243047Y-54284619D01*
X103195428Y-54237000D01*
X103100190Y-54189380D01*
X102862095Y-54189380D01*
X102719238Y-54237000D01*
X102290666Y-54665571D02*
X101957333Y-54665571D01*
X101814476Y-55189380D02*
X102290666Y-55189380D01*
X102290666Y-54189380D01*
X101814476Y-54189380D01*
X101528761Y-54189380D02*
X100957333Y-54189380D01*
X101243047Y-55189380D02*
X101243047Y-54189380D01*
X99862095Y-54808428D02*
X99100190Y-54808428D01*
X98624000Y-54808428D02*
X97862095Y-54808428D01*
X97385904Y-54808428D02*
X96624000Y-54808428D01*
X131110714Y-54808428D02*
X130348809Y-54808428D01*
X129872619Y-54808428D02*
X129110714Y-54808428D01*
X128634523Y-54808428D02*
X127872619Y-54808428D01*
X127396428Y-54808428D02*
X126634523Y-54808428D01*
X125444047Y-55141761D02*
X125301190Y-55189380D01*
X125063095Y-55189380D01*
X124967857Y-55141761D01*
X124920238Y-55094142D01*
X124872619Y-54998904D01*
X124872619Y-54903666D01*
X124920238Y-54808428D01*
X124967857Y-54760809D01*
X125063095Y-54713190D01*
X125253571Y-54665571D01*
X125348809Y-54617952D01*
X125396428Y-54570333D01*
X125444047Y-54475095D01*
X125444047Y-54379857D01*
X125396428Y-54284619D01*
X125348809Y-54237000D01*
X125253571Y-54189380D01*
X125015476Y-54189380D01*
X124872619Y-54237000D01*
X124586904Y-54189380D02*
X124015476Y-54189380D01*
X124301190Y-55189380D02*
X124301190Y-54189380D01*
X123682142Y-54665571D02*
X123348809Y-54665571D01*
X123205952Y-55189380D02*
X123682142Y-55189380D01*
X123682142Y-54189380D01*
X123205952Y-54189380D01*
X122777380Y-55189380D02*
X122777380Y-54189380D01*
X122396428Y-54189380D01*
X122301190Y-54237000D01*
X122253571Y-54284619D01*
X122205952Y-54379857D01*
X122205952Y-54522714D01*
X122253571Y-54617952D01*
X122301190Y-54665571D01*
X122396428Y-54713190D01*
X122777380Y-54713190D01*
X121015476Y-54808428D02*
X120253571Y-54808428D01*
X119777380Y-54808428D02*
X119015476Y-54808428D01*
X118539285Y-54808428D02*
X117777380Y-54808428D01*
X117301190Y-54808428D02*
X116539285Y-54808428D01*
D11*
X187830142Y-121297000D02*
X187973000Y-121225571D01*
X188187285Y-121225571D01*
X188401571Y-121297000D01*
X188544428Y-121439857D01*
X188615857Y-121582714D01*
X188687285Y-121868428D01*
X188687285Y-122082714D01*
X188615857Y-122368428D01*
X188544428Y-122511285D01*
X188401571Y-122654142D01*
X188187285Y-122725571D01*
X188044428Y-122725571D01*
X187830142Y-122654142D01*
X187758714Y-122582714D01*
X187758714Y-122082714D01*
X188044428Y-122082714D01*
X187115857Y-122725571D02*
X187115857Y-121225571D01*
X186258714Y-122725571D01*
X186258714Y-121225571D01*
X185544428Y-122725571D02*
X185544428Y-121225571D01*
X185187285Y-121225571D01*
X184973000Y-121297000D01*
X184830142Y-121439857D01*
X184758714Y-121582714D01*
X184687285Y-121868428D01*
X184687285Y-122082714D01*
X184758714Y-122368428D01*
X184830142Y-122511285D01*
X184973000Y-122654142D01*
X185187285Y-122725571D01*
X185544428Y-122725571D01*
X96650714Y-83140357D02*
X96436428Y-83211785D01*
X96365000Y-83283214D01*
X96293571Y-83426071D01*
X96293571Y-83640357D01*
X96365000Y-83783214D01*
X96436428Y-83854642D01*
X96579285Y-83926071D01*
X97150714Y-83926071D01*
X97150714Y-82426071D01*
X96650714Y-82426071D01*
X96507857Y-82497500D01*
X96436428Y-82568928D01*
X96365000Y-82711785D01*
X96365000Y-82854642D01*
X96436428Y-82997500D01*
X96507857Y-83068928D01*
X96650714Y-83140357D01*
X97150714Y-83140357D01*
X95365000Y-82426071D02*
X95079285Y-82426071D01*
X94936428Y-82497500D01*
X94793571Y-82640357D01*
X94722142Y-82926071D01*
X94722142Y-83426071D01*
X94793571Y-83711785D01*
X94936428Y-83854642D01*
X95079285Y-83926071D01*
X95365000Y-83926071D01*
X95507857Y-83854642D01*
X95650714Y-83711785D01*
X95722142Y-83426071D01*
X95722142Y-82926071D01*
X95650714Y-82640357D01*
X95507857Y-82497500D01*
X95365000Y-82426071D01*
X93793571Y-82426071D02*
X93507857Y-82426071D01*
X93365000Y-82497500D01*
X93222142Y-82640357D01*
X93150714Y-82926071D01*
X93150714Y-83426071D01*
X93222142Y-83711785D01*
X93365000Y-83854642D01*
X93507857Y-83926071D01*
X93793571Y-83926071D01*
X93936428Y-83854642D01*
X94079285Y-83711785D01*
X94150714Y-83426071D01*
X94150714Y-82926071D01*
X94079285Y-82640357D01*
X93936428Y-82497500D01*
X93793571Y-82426071D01*
X92722142Y-82426071D02*
X91865000Y-82426071D01*
X92293571Y-83926071D02*
X92293571Y-82426071D01*
X97900714Y-86269642D02*
X97686428Y-86341071D01*
X97329285Y-86341071D01*
X97186428Y-86269642D01*
X97115000Y-86198214D01*
X97043571Y-86055357D01*
X97043571Y-85912500D01*
X97115000Y-85769642D01*
X97186428Y-85698214D01*
X97329285Y-85626785D01*
X97615000Y-85555357D01*
X97757857Y-85483928D01*
X97829285Y-85412500D01*
X97900714Y-85269642D01*
X97900714Y-85126785D01*
X97829285Y-84983928D01*
X97757857Y-84912500D01*
X97615000Y-84841071D01*
X97257857Y-84841071D01*
X97043571Y-84912500D01*
X96400714Y-86341071D02*
X96400714Y-84841071D01*
X95829285Y-84841071D01*
X95686428Y-84912500D01*
X95615000Y-84983928D01*
X95543571Y-85126785D01*
X95543571Y-85341071D01*
X95615000Y-85483928D01*
X95686428Y-85555357D01*
X95829285Y-85626785D01*
X96400714Y-85626785D01*
X94900714Y-85555357D02*
X94400714Y-85555357D01*
X94186428Y-86341071D02*
X94900714Y-86341071D01*
X94900714Y-84841071D01*
X94186428Y-84841071D01*
X93543571Y-85555357D02*
X93043571Y-85555357D01*
X92829285Y-86341071D02*
X93543571Y-86341071D01*
X93543571Y-84841071D01*
X92829285Y-84841071D01*
X92186428Y-86341071D02*
X92186428Y-84841071D01*
X91829285Y-84841071D01*
X91615000Y-84912500D01*
X91472142Y-85055357D01*
X91400714Y-85198214D01*
X91329285Y-85483928D01*
X91329285Y-85698214D01*
X91400714Y-85983928D01*
X91472142Y-86126785D01*
X91615000Y-86269642D01*
X91829285Y-86341071D01*
X92186428Y-86341071D01*
D10*
X143811047Y-135596380D02*
X143811047Y-136310666D01*
X143858666Y-136453523D01*
X143953904Y-136548761D01*
X144096761Y-136596380D01*
X144192000Y-136596380D01*
X142858666Y-136596380D02*
X143334857Y-136596380D01*
X143334857Y-135596380D01*
X141953904Y-136501142D02*
X142001523Y-136548761D01*
X142144380Y-136596380D01*
X142239619Y-136596380D01*
X142382476Y-136548761D01*
X142477714Y-136453523D01*
X142525333Y-136358285D01*
X142572952Y-136167809D01*
X142572952Y-136024952D01*
X142525333Y-135834476D01*
X142477714Y-135739238D01*
X142382476Y-135644000D01*
X142239619Y-135596380D01*
X142144380Y-135596380D01*
X142001523Y-135644000D01*
X141953904Y-135691619D01*
X141239619Y-135596380D02*
X141239619Y-136310666D01*
X141287238Y-136453523D01*
X141382476Y-136548761D01*
X141525333Y-136596380D01*
X141620571Y-136596380D01*
X140287238Y-136596380D02*
X140763428Y-136596380D01*
X140763428Y-135596380D01*
X139382476Y-136501142D02*
X139430095Y-136548761D01*
X139572952Y-136596380D01*
X139668190Y-136596380D01*
X139811047Y-136548761D01*
X139906285Y-136453523D01*
X139953904Y-136358285D01*
X140001523Y-136167809D01*
X140001523Y-136024952D01*
X139953904Y-135834476D01*
X139906285Y-135739238D01*
X139811047Y-135644000D01*
X139668190Y-135596380D01*
X139572952Y-135596380D01*
X139430095Y-135644000D01*
X139382476Y-135691619D01*
X138668190Y-135596380D02*
X138668190Y-136310666D01*
X138715809Y-136453523D01*
X138811047Y-136548761D01*
X138953904Y-136596380D01*
X139049142Y-136596380D01*
X137715809Y-136596380D02*
X138192000Y-136596380D01*
X138192000Y-135596380D01*
X136811047Y-136501142D02*
X136858666Y-136548761D01*
X137001523Y-136596380D01*
X137096761Y-136596380D01*
X137239619Y-136548761D01*
X137334857Y-136453523D01*
X137382476Y-136358285D01*
X137430095Y-136167809D01*
X137430095Y-136024952D01*
X137382476Y-135834476D01*
X137334857Y-135739238D01*
X137239619Y-135644000D01*
X137096761Y-135596380D01*
X137001523Y-135596380D01*
X136858666Y-135644000D01*
X136811047Y-135691619D01*
X136096761Y-135596380D02*
X136096761Y-136310666D01*
X136144380Y-136453523D01*
X136239619Y-136548761D01*
X136382476Y-136596380D01*
X136477714Y-136596380D01*
X135144380Y-136596380D02*
X135620571Y-136596380D01*
X135620571Y-135596380D01*
X134239619Y-136501142D02*
X134287238Y-136548761D01*
X134430095Y-136596380D01*
X134525333Y-136596380D01*
X134668190Y-136548761D01*
X134763428Y-136453523D01*
X134811047Y-136358285D01*
X134858666Y-136167809D01*
X134858666Y-136024952D01*
X134811047Y-135834476D01*
X134763428Y-135739238D01*
X134668190Y-135644000D01*
X134525333Y-135596380D01*
X134430095Y-135596380D01*
X134287238Y-135644000D01*
X134239619Y-135691619D01*
D11*
X188973000Y-113309000D02*
X187473000Y-113309000D01*
X187758714Y-115232571D02*
X188258714Y-114518285D01*
X188615857Y-115232571D02*
X188615857Y-113732571D01*
X188044428Y-113732571D01*
X187901571Y-113804000D01*
X187830142Y-113875428D01*
X187758714Y-114018285D01*
X187758714Y-114232571D01*
X187830142Y-114375428D01*
X187901571Y-114446857D01*
X188044428Y-114518285D01*
X188615857Y-114518285D01*
X187473000Y-113309000D02*
X186115857Y-113309000D01*
X187115857Y-114446857D02*
X186615857Y-114446857D01*
X186401571Y-115232571D02*
X187115857Y-115232571D01*
X187115857Y-113732571D01*
X186401571Y-113732571D01*
X186115857Y-113309000D02*
X184687285Y-113309000D01*
X185830142Y-115161142D02*
X185615857Y-115232571D01*
X185258714Y-115232571D01*
X185115857Y-115161142D01*
X185044428Y-115089714D01*
X184973000Y-114946857D01*
X184973000Y-114804000D01*
X185044428Y-114661142D01*
X185115857Y-114589714D01*
X185258714Y-114518285D01*
X185544428Y-114446857D01*
X185687285Y-114375428D01*
X185758714Y-114304000D01*
X185830142Y-114161142D01*
X185830142Y-114018285D01*
X185758714Y-113875428D01*
X185687285Y-113804000D01*
X185544428Y-113732571D01*
X185187285Y-113732571D01*
X184973000Y-113804000D01*
X184687285Y-113309000D02*
X183330142Y-113309000D01*
X184330142Y-114446857D02*
X183830142Y-114446857D01*
X183615857Y-115232571D02*
X184330142Y-115232571D01*
X184330142Y-113732571D01*
X183615857Y-113732571D01*
X183330142Y-113309000D02*
X182187285Y-113309000D01*
X183187285Y-113732571D02*
X182330142Y-113732571D01*
X182758714Y-115232571D02*
X182758714Y-113732571D01*
D10*
X93305238Y-127822142D02*
X93352857Y-127869761D01*
X93495714Y-127917380D01*
X93590952Y-127917380D01*
X93733809Y-127869761D01*
X93829047Y-127774523D01*
X93876666Y-127679285D01*
X93924285Y-127488809D01*
X93924285Y-127345952D01*
X93876666Y-127155476D01*
X93829047Y-127060238D01*
X93733809Y-126965000D01*
X93590952Y-126917380D01*
X93495714Y-126917380D01*
X93352857Y-126965000D01*
X93305238Y-127012619D01*
X92400476Y-127917380D02*
X92876666Y-127917380D01*
X92876666Y-126917380D01*
X92067142Y-127917380D02*
X92067142Y-126917380D01*
X91495714Y-127917380D02*
X91924285Y-127345952D01*
X91495714Y-126917380D02*
X92067142Y-127488809D01*
X93686190Y-129527380D02*
X93686190Y-128527380D01*
X93448095Y-128527380D01*
X93305238Y-128575000D01*
X93210000Y-128670238D01*
X93162380Y-128765476D01*
X93114761Y-128955952D01*
X93114761Y-129098809D01*
X93162380Y-129289285D01*
X93210000Y-129384523D01*
X93305238Y-129479761D01*
X93448095Y-129527380D01*
X93686190Y-129527380D01*
X92686190Y-129527380D02*
X92686190Y-128527380D01*
X92257619Y-129479761D02*
X92114761Y-129527380D01*
X91876666Y-129527380D01*
X91781428Y-129479761D01*
X91733809Y-129432142D01*
X91686190Y-129336904D01*
X91686190Y-129241666D01*
X91733809Y-129146428D01*
X91781428Y-129098809D01*
X91876666Y-129051190D01*
X92067142Y-129003571D01*
X92162380Y-128955952D01*
X92210000Y-128908333D01*
X92257619Y-128813095D01*
X92257619Y-128717857D01*
X92210000Y-128622619D01*
X92162380Y-128575000D01*
X92067142Y-128527380D01*
X91829047Y-128527380D01*
X91686190Y-128575000D01*
D11*
X188973000Y-115849000D02*
X187258714Y-115849000D01*
X188615857Y-117772571D02*
X188615857Y-116272571D01*
X188115857Y-117344000D01*
X187615857Y-116272571D01*
X187615857Y-117772571D01*
X187258714Y-115849000D02*
X185758714Y-115849000D01*
X186044428Y-117772571D02*
X186544428Y-117058285D01*
X186901571Y-117772571D02*
X186901571Y-116272571D01*
X186330142Y-116272571D01*
X186187285Y-116344000D01*
X186115857Y-116415428D01*
X186044428Y-116558285D01*
X186044428Y-116772571D01*
X186115857Y-116915428D01*
X186187285Y-116986857D01*
X186330142Y-117058285D01*
X186901571Y-117058285D01*
D10*
X95424523Y-111037619D02*
X95519761Y-110990000D01*
X95615000Y-110894761D01*
X95757857Y-110751904D01*
X95853095Y-110704285D01*
X95948333Y-110704285D01*
X95900714Y-110942380D02*
X95995952Y-110894761D01*
X96091190Y-110799523D01*
X96138809Y-110609047D01*
X96138809Y-110275714D01*
X96091190Y-110085238D01*
X95995952Y-109990000D01*
X95900714Y-109942380D01*
X95710238Y-109942380D01*
X95615000Y-109990000D01*
X95519761Y-110085238D01*
X95472142Y-110275714D01*
X95472142Y-110609047D01*
X95519761Y-110799523D01*
X95615000Y-110894761D01*
X95710238Y-110942380D01*
X95900714Y-110942380D01*
X94519761Y-110942380D02*
X95091190Y-110942380D01*
X94805476Y-110942380D02*
X94805476Y-109942380D01*
X94900714Y-110085238D01*
X94995952Y-110180476D01*
X95091190Y-110228095D01*
X94091190Y-110847142D02*
X94043571Y-110894761D01*
X94091190Y-110942380D01*
X94138809Y-110894761D01*
X94091190Y-110847142D01*
X94091190Y-110942380D01*
X94091190Y-110323333D02*
X94043571Y-110370952D01*
X94091190Y-110418571D01*
X94138809Y-110370952D01*
X94091190Y-110323333D01*
X94091190Y-110418571D01*
X93091190Y-110942380D02*
X93662619Y-110942380D01*
X93376904Y-110942380D02*
X93376904Y-109942380D01*
X93472142Y-110085238D01*
X93567380Y-110180476D01*
X93662619Y-110228095D01*
D11*
X187830142Y-99865571D02*
X188687285Y-99865571D01*
X188258714Y-99865571D02*
X188258714Y-98365571D01*
X188401571Y-98579857D01*
X188544428Y-98722714D01*
X188687285Y-98794142D01*
X187187285Y-99722714D02*
X187115857Y-99794142D01*
X187187285Y-99865571D01*
X187258714Y-99794142D01*
X187187285Y-99722714D01*
X187187285Y-99865571D01*
X186258714Y-99008428D02*
X186401571Y-98937000D01*
X186473000Y-98865571D01*
X186544428Y-98722714D01*
X186544428Y-98651285D01*
X186473000Y-98508428D01*
X186401571Y-98437000D01*
X186258714Y-98365571D01*
X185973000Y-98365571D01*
X185830142Y-98437000D01*
X185758714Y-98508428D01*
X185687285Y-98651285D01*
X185687285Y-98722714D01*
X185758714Y-98865571D01*
X185830142Y-98937000D01*
X185973000Y-99008428D01*
X186258714Y-99008428D01*
X186401571Y-99079857D01*
X186473000Y-99151285D01*
X186544428Y-99294142D01*
X186544428Y-99579857D01*
X186473000Y-99722714D01*
X186401571Y-99794142D01*
X186258714Y-99865571D01*
X185973000Y-99865571D01*
X185830142Y-99794142D01*
X185758714Y-99722714D01*
X185687285Y-99579857D01*
X185687285Y-99294142D01*
X185758714Y-99151285D01*
X185830142Y-99079857D01*
X185973000Y-99008428D01*
X184401571Y-98865571D02*
X184401571Y-99865571D01*
X184758714Y-98294142D02*
X185115857Y-99365571D01*
X184187285Y-99365571D01*
X183758714Y-98365571D02*
X182830142Y-98365571D01*
X183330142Y-98937000D01*
X183115857Y-98937000D01*
X182973000Y-99008428D01*
X182901571Y-99079857D01*
X182830142Y-99222714D01*
X182830142Y-99579857D01*
X182901571Y-99722714D01*
X182973000Y-99794142D01*
X183115857Y-99865571D01*
X183544428Y-99865571D01*
X183687285Y-99794142D01*
X183758714Y-99722714D01*
X182258714Y-98508428D02*
X182187285Y-98437000D01*
X182044428Y-98365571D01*
X181687285Y-98365571D01*
X181544428Y-98437000D01*
X181473000Y-98508428D01*
X181401571Y-98651285D01*
X181401571Y-98794142D01*
X181473000Y-99008428D01*
X182330142Y-99865571D01*
X181401571Y-99865571D01*
D10*
X169727619Y-49895000D02*
X169727619Y-50466428D01*
X169727619Y-50180714D02*
X170727619Y-50180714D01*
X170584761Y-50275952D01*
X170489523Y-50371190D01*
X170441904Y-50466428D01*
X169822857Y-49466428D02*
X169775238Y-49418809D01*
X169727619Y-49466428D01*
X169775238Y-49514047D01*
X169822857Y-49466428D01*
X169727619Y-49466428D01*
X170299047Y-48847380D02*
X170346666Y-48942619D01*
X170394285Y-48990238D01*
X170489523Y-49037857D01*
X170537142Y-49037857D01*
X170632380Y-48990238D01*
X170680000Y-48942619D01*
X170727619Y-48847380D01*
X170727619Y-48656904D01*
X170680000Y-48561666D01*
X170632380Y-48514047D01*
X170537142Y-48466428D01*
X170489523Y-48466428D01*
X170394285Y-48514047D01*
X170346666Y-48561666D01*
X170299047Y-48656904D01*
X170299047Y-48847380D01*
X170251428Y-48942619D01*
X170203809Y-48990238D01*
X170108571Y-49037857D01*
X169918095Y-49037857D01*
X169822857Y-48990238D01*
X169775238Y-48942619D01*
X169727619Y-48847380D01*
X169727619Y-48656904D01*
X169775238Y-48561666D01*
X169822857Y-48514047D01*
X169918095Y-48466428D01*
X170108571Y-48466428D01*
X170203809Y-48514047D01*
X170251428Y-48561666D01*
X170299047Y-48656904D01*
X169727619Y-48037857D02*
X170727619Y-48037857D01*
X170013333Y-47704523D01*
X170727619Y-47371190D01*
X169727619Y-47371190D01*
X175807619Y-50514047D02*
X175807619Y-49895000D01*
X175426666Y-50228333D01*
X175426666Y-50085476D01*
X175379047Y-49990238D01*
X175331428Y-49942619D01*
X175236190Y-49895000D01*
X174998095Y-49895000D01*
X174902857Y-49942619D01*
X174855238Y-49990238D01*
X174807619Y-50085476D01*
X174807619Y-50371190D01*
X174855238Y-50466428D01*
X174902857Y-50514047D01*
X174902857Y-49466428D02*
X174855238Y-49418809D01*
X174807619Y-49466428D01*
X174855238Y-49514047D01*
X174902857Y-49466428D01*
X174807619Y-49466428D01*
X175807619Y-48561666D02*
X175807619Y-48752142D01*
X175760000Y-48847380D01*
X175712380Y-48895000D01*
X175569523Y-48990238D01*
X175379047Y-49037857D01*
X174998095Y-49037857D01*
X174902857Y-48990238D01*
X174855238Y-48942619D01*
X174807619Y-48847380D01*
X174807619Y-48656904D01*
X174855238Y-48561666D01*
X174902857Y-48514047D01*
X174998095Y-48466428D01*
X175236190Y-48466428D01*
X175331428Y-48514047D01*
X175379047Y-48561666D01*
X175426666Y-48656904D01*
X175426666Y-48847380D01*
X175379047Y-48942619D01*
X175331428Y-48990238D01*
X175236190Y-49037857D01*
X174807619Y-48037857D02*
X175807619Y-48037857D01*
X175093333Y-47704523D01*
X175807619Y-47371190D01*
X174807619Y-47371190D01*
X96400714Y-89304761D02*
X96257857Y-89352380D01*
X96019761Y-89352380D01*
X95924523Y-89304761D01*
X95876904Y-89257142D01*
X95829285Y-89161904D01*
X95829285Y-89066666D01*
X95876904Y-88971428D01*
X95924523Y-88923809D01*
X96019761Y-88876190D01*
X96210238Y-88828571D01*
X96305476Y-88780952D01*
X96353095Y-88733333D01*
X96400714Y-88638095D01*
X96400714Y-88542857D01*
X96353095Y-88447619D01*
X96305476Y-88400000D01*
X96210238Y-88352380D01*
X95972142Y-88352380D01*
X95829285Y-88400000D01*
X94924523Y-89352380D02*
X95400714Y-89352380D01*
X95400714Y-88352380D01*
X94400714Y-88352380D02*
X94210238Y-88352380D01*
X94115000Y-88400000D01*
X94019761Y-88495238D01*
X93972142Y-88685714D01*
X93972142Y-89019047D01*
X94019761Y-89209523D01*
X94115000Y-89304761D01*
X94210238Y-89352380D01*
X94400714Y-89352380D01*
X94495952Y-89304761D01*
X94591190Y-89209523D01*
X94638809Y-89019047D01*
X94638809Y-88685714D01*
X94591190Y-88495238D01*
X94495952Y-88400000D01*
X94400714Y-88352380D01*
X93638809Y-88352380D02*
X93400714Y-89352380D01*
X93210238Y-88638095D01*
X93019761Y-89352380D01*
X92781666Y-88352380D01*
D11*
X187758714Y-109882714D02*
X187830142Y-109954142D01*
X188044428Y-110025571D01*
X188187285Y-110025571D01*
X188401571Y-109954142D01*
X188544428Y-109811285D01*
X188615857Y-109668428D01*
X188687285Y-109382714D01*
X188687285Y-109168428D01*
X188615857Y-108882714D01*
X188544428Y-108739857D01*
X188401571Y-108597000D01*
X188187285Y-108525571D01*
X188044428Y-108525571D01*
X187830142Y-108597000D01*
X187758714Y-108668428D01*
X186401571Y-110025571D02*
X187115857Y-110025571D01*
X187115857Y-108525571D01*
X185901571Y-110025571D02*
X185901571Y-108525571D01*
X185044428Y-110025571D02*
X185687285Y-109168428D01*
X185044428Y-108525571D02*
X185901571Y-109382714D01*
X187615857Y-84768428D02*
X187758714Y-84697000D01*
X187901571Y-84554142D01*
X188115857Y-84339857D01*
X188258714Y-84268428D01*
X188401571Y-84268428D01*
X188330142Y-84625571D02*
X188473000Y-84554142D01*
X188615857Y-84411285D01*
X188687285Y-84125571D01*
X188687285Y-83625571D01*
X188615857Y-83339857D01*
X188473000Y-83197000D01*
X188330142Y-83125571D01*
X188044428Y-83125571D01*
X187901571Y-83197000D01*
X187758714Y-83339857D01*
X187687285Y-83625571D01*
X187687285Y-84125571D01*
X187758714Y-84411285D01*
X187901571Y-84554142D01*
X188044428Y-84625571D01*
X188330142Y-84625571D01*
X186758714Y-83125571D02*
X186615857Y-83125571D01*
X186473000Y-83197000D01*
X186401571Y-83268428D01*
X186330142Y-83411285D01*
X186258714Y-83697000D01*
X186258714Y-84054142D01*
X186330142Y-84339857D01*
X186401571Y-84482714D01*
X186473000Y-84554142D01*
X186615857Y-84625571D01*
X186758714Y-84625571D01*
X186901571Y-84554142D01*
X186973000Y-84482714D01*
X187044428Y-84339857D01*
X187115857Y-84054142D01*
X187115857Y-83697000D01*
X187044428Y-83411285D01*
X186973000Y-83268428D01*
X186901571Y-83197000D01*
X186758714Y-83125571D01*
X188758714Y-103445571D02*
X187758714Y-103445571D01*
X188401571Y-104945571D01*
X187187285Y-104802714D02*
X187115857Y-104874142D01*
X187187285Y-104945571D01*
X187258714Y-104874142D01*
X187187285Y-104802714D01*
X187187285Y-104945571D01*
X186615857Y-103445571D02*
X185687285Y-103445571D01*
X186187285Y-104017000D01*
X185973000Y-104017000D01*
X185830142Y-104088428D01*
X185758714Y-104159857D01*
X185687285Y-104302714D01*
X185687285Y-104659857D01*
X185758714Y-104802714D01*
X185830142Y-104874142D01*
X185973000Y-104945571D01*
X186401571Y-104945571D01*
X186544428Y-104874142D01*
X186615857Y-104802714D01*
X185187285Y-103445571D02*
X184187285Y-103445571D01*
X184830142Y-104945571D01*
X183687285Y-103588428D02*
X183615857Y-103517000D01*
X183473000Y-103445571D01*
X183115857Y-103445571D01*
X182973000Y-103517000D01*
X182901571Y-103588428D01*
X182830142Y-103731285D01*
X182830142Y-103874142D01*
X182901571Y-104088428D01*
X183758714Y-104945571D01*
X182830142Y-104945571D01*
X181973000Y-104088428D02*
X182115857Y-104017000D01*
X182187285Y-103945571D01*
X182258714Y-103802714D01*
X182258714Y-103731285D01*
X182187285Y-103588428D01*
X182115857Y-103517000D01*
X181973000Y-103445571D01*
X181687285Y-103445571D01*
X181544428Y-103517000D01*
X181473000Y-103588428D01*
X181401571Y-103731285D01*
X181401571Y-103802714D01*
X181473000Y-103945571D01*
X181544428Y-104017000D01*
X181687285Y-104088428D01*
X181973000Y-104088428D01*
X182115857Y-104159857D01*
X182187285Y-104231285D01*
X182258714Y-104374142D01*
X182258714Y-104659857D01*
X182187285Y-104802714D01*
X182115857Y-104874142D01*
X181973000Y-104945571D01*
X181687285Y-104945571D01*
X181544428Y-104874142D01*
X181473000Y-104802714D01*
X181401571Y-104659857D01*
X181401571Y-104374142D01*
X181473000Y-104231285D01*
X181544428Y-104159857D01*
X181687285Y-104088428D01*
D10*
X99210238Y-74064761D02*
X99067380Y-74112380D01*
X98829285Y-74112380D01*
X98734047Y-74064761D01*
X98686428Y-74017142D01*
X98638809Y-73921904D01*
X98638809Y-73826666D01*
X98686428Y-73731428D01*
X98734047Y-73683809D01*
X98829285Y-73636190D01*
X99019761Y-73588571D01*
X99115000Y-73540952D01*
X99162619Y-73493333D01*
X99210238Y-73398095D01*
X99210238Y-73302857D01*
X99162619Y-73207619D01*
X99115000Y-73160000D01*
X99019761Y-73112380D01*
X98781666Y-73112380D01*
X98638809Y-73160000D01*
X98210238Y-74112380D02*
X98210238Y-73112380D01*
X97734047Y-74112380D02*
X97734047Y-73112380D01*
X97162619Y-74112380D01*
X97162619Y-73112380D01*
X96162619Y-73160000D02*
X96257857Y-73112380D01*
X96400714Y-73112380D01*
X96543571Y-73160000D01*
X96638809Y-73255238D01*
X96686428Y-73350476D01*
X96734047Y-73540952D01*
X96734047Y-73683809D01*
X96686428Y-73874285D01*
X96638809Y-73969523D01*
X96543571Y-74064761D01*
X96400714Y-74112380D01*
X96305476Y-74112380D01*
X96162619Y-74064761D01*
X96115000Y-74017142D01*
X96115000Y-73683809D01*
X96305476Y-73683809D01*
X95210238Y-74112380D02*
X95686428Y-74112380D01*
X95686428Y-73112380D01*
X94876904Y-73588571D02*
X94543571Y-73588571D01*
X94400714Y-74112380D02*
X94876904Y-74112380D01*
X94876904Y-73112380D01*
X94400714Y-73112380D01*
X93257857Y-74064761D02*
X93115000Y-74112380D01*
X92876904Y-74112380D01*
X92781666Y-74064761D01*
X92734047Y-74017142D01*
X92686428Y-73921904D01*
X92686428Y-73826666D01*
X92734047Y-73731428D01*
X92781666Y-73683809D01*
X92876904Y-73636190D01*
X93067380Y-73588571D01*
X93162619Y-73540952D01*
X93210238Y-73493333D01*
X93257857Y-73398095D01*
X93257857Y-73302857D01*
X93210238Y-73207619D01*
X93162619Y-73160000D01*
X93067380Y-73112380D01*
X92829285Y-73112380D01*
X92686428Y-73160000D01*
X92400714Y-73112380D02*
X91829285Y-73112380D01*
X92115000Y-74112380D02*
X92115000Y-73112380D01*
X91495952Y-73588571D02*
X91162619Y-73588571D01*
X91019761Y-74112380D02*
X91495952Y-74112380D01*
X91495952Y-73112380D01*
X91019761Y-73112380D01*
X90591190Y-74112380D02*
X90591190Y-73112380D01*
X90210238Y-73112380D01*
X90115000Y-73160000D01*
X90067380Y-73207619D01*
X90019761Y-73302857D01*
X90019761Y-73445714D01*
X90067380Y-73540952D01*
X90115000Y-73588571D01*
X90210238Y-73636190D01*
X90591190Y-73636190D01*
X165314285Y-50156904D02*
X164647619Y-50156904D01*
X165695238Y-50395000D02*
X164980952Y-50633095D01*
X164980952Y-50014047D01*
X165647619Y-49204523D02*
X165647619Y-49395000D01*
X165600000Y-49490238D01*
X165552380Y-49537857D01*
X165409523Y-49633095D01*
X165219047Y-49680714D01*
X164838095Y-49680714D01*
X164742857Y-49633095D01*
X164695238Y-49585476D01*
X164647619Y-49490238D01*
X164647619Y-49299761D01*
X164695238Y-49204523D01*
X164742857Y-49156904D01*
X164838095Y-49109285D01*
X165076190Y-49109285D01*
X165171428Y-49156904D01*
X165219047Y-49204523D01*
X165266666Y-49299761D01*
X165266666Y-49490238D01*
X165219047Y-49585476D01*
X165171428Y-49633095D01*
X165076190Y-49680714D01*
X165647619Y-48490238D02*
X165647619Y-48395000D01*
X165600000Y-48299761D01*
X165552380Y-48252142D01*
X165457142Y-48204523D01*
X165266666Y-48156904D01*
X165028571Y-48156904D01*
X164838095Y-48204523D01*
X164742857Y-48252142D01*
X164695238Y-48299761D01*
X164647619Y-48395000D01*
X164647619Y-48490238D01*
X164695238Y-48585476D01*
X164742857Y-48633095D01*
X164838095Y-48680714D01*
X165028571Y-48728333D01*
X165266666Y-48728333D01*
X165457142Y-48680714D01*
X165552380Y-48633095D01*
X165600000Y-48585476D01*
X165647619Y-48490238D01*
X164647619Y-47728333D02*
X165647619Y-47728333D01*
X164647619Y-47156904D02*
X165219047Y-47585476D01*
X165647619Y-47156904D02*
X165076190Y-47728333D01*
D11*
X187830142Y-73037000D02*
X187973000Y-72965571D01*
X188187285Y-72965571D01*
X188401571Y-73037000D01*
X188544428Y-73179857D01*
X188615857Y-73322714D01*
X188687285Y-73608428D01*
X188687285Y-73822714D01*
X188615857Y-74108428D01*
X188544428Y-74251285D01*
X188401571Y-74394142D01*
X188187285Y-74465571D01*
X188044428Y-74465571D01*
X187830142Y-74394142D01*
X187758714Y-74322714D01*
X187758714Y-73822714D01*
X188044428Y-73822714D01*
X187115857Y-74465571D02*
X187115857Y-72965571D01*
X186258714Y-74465571D01*
X186258714Y-72965571D01*
X185544428Y-74465571D02*
X185544428Y-72965571D01*
X185187285Y-72965571D01*
X184973000Y-73037000D01*
X184830142Y-73179857D01*
X184758714Y-73322714D01*
X184687285Y-73608428D01*
X184687285Y-73822714D01*
X184758714Y-74108428D01*
X184830142Y-74251285D01*
X184973000Y-74394142D01*
X185187285Y-74465571D01*
X185544428Y-74465571D01*
M02*
