%TF.GenerationSoftware,KiCad,Pcbnew,(6.0.7)*%
%TF.CreationDate,2022-10-23T20:31:47-04:00*%
%TF.ProjectId,Part 3 - Mapping things out,50617274-2033-4202-9d20-4d617070696e,1.1*%
%TF.SameCoordinates,Original*%
%TF.FileFunction,Soldermask,Bot*%
%TF.FilePolarity,Negative*%
%FSLAX46Y46*%
G04 Gerber Fmt 4.6, Leading zero omitted, Abs format (unit mm)*
G04 Created by KiCad (PCBNEW (6.0.7)) date 2022-10-23 20:31:47*
%MOMM*%
%LPD*%
G01*
G04 APERTURE LIST*
%ADD10C,1.600000*%
%ADD11O,1.600000X1.600000*%
%ADD12R,1.600000X1.600000*%
%ADD13R,1.800000X1.800000*%
%ADD14C,1.800000*%
%ADD15C,2.100000*%
%ADD16C,1.750000*%
%ADD17C,2.600000*%
%ADD18R,1.780000X7.620000*%
%ADD19R,1.700000X1.700000*%
%ADD20O,1.700000X1.700000*%
%ADD21R,1.500000X1.500000*%
%ADD22C,1.500000*%
G04 APERTURE END LIST*
D10*
%TO.C,R18*%
X184378600Y-67056000D03*
D11*
X184378600Y-56896000D03*
%TD*%
D12*
%TO.C,U9*%
X157475000Y-106035000D03*
D11*
X160015000Y-106035000D03*
X162555000Y-106035000D03*
X165095000Y-106035000D03*
X167635000Y-106035000D03*
X170175000Y-106035000D03*
X172715000Y-106035000D03*
X172715000Y-98415000D03*
X170175000Y-98415000D03*
X167635000Y-98415000D03*
X165095000Y-98415000D03*
X162555000Y-98415000D03*
X160015000Y-98415000D03*
X157475000Y-98415000D03*
%TD*%
D13*
%TO.C,D2*%
X96195400Y-127020000D03*
D14*
X96195400Y-129560000D03*
%TD*%
D12*
%TO.C,RN1*%
X105410000Y-71740000D03*
D11*
X105410000Y-74280000D03*
X105410000Y-76820000D03*
X105410000Y-79360000D03*
X105410000Y-81900000D03*
X105410000Y-84440000D03*
X105410000Y-86980000D03*
X105410000Y-89520000D03*
X105410000Y-92060000D03*
%TD*%
D12*
%TO.C,U12*%
X154930000Y-79365000D03*
D11*
X157470000Y-79365000D03*
X160010000Y-79365000D03*
X162550000Y-79365000D03*
X165090000Y-79365000D03*
X167630000Y-79365000D03*
X170170000Y-79365000D03*
X172710000Y-79365000D03*
X172710000Y-71745000D03*
X170170000Y-71745000D03*
X167630000Y-71745000D03*
X165090000Y-71745000D03*
X162550000Y-71745000D03*
X160010000Y-71745000D03*
X157470000Y-71745000D03*
X154930000Y-71745000D03*
%TD*%
D10*
%TO.C,C21*%
X154305000Y-114320000D03*
X154305000Y-116820000D03*
%TD*%
D12*
%TO.C,U1*%
X111760000Y-119370000D03*
D11*
X114300000Y-119370000D03*
X116840000Y-119370000D03*
X119380000Y-119370000D03*
X121920000Y-119370000D03*
X124460000Y-119370000D03*
X127000000Y-119370000D03*
X127000000Y-111750000D03*
X124460000Y-111750000D03*
X121920000Y-111750000D03*
X119380000Y-111750000D03*
X116840000Y-111750000D03*
X114300000Y-111750000D03*
X111760000Y-111750000D03*
%TD*%
D12*
%TO.C,U10*%
X133350000Y-106035000D03*
D11*
X135890000Y-106035000D03*
X138430000Y-106035000D03*
X140970000Y-106035000D03*
X143510000Y-106035000D03*
X146050000Y-106035000D03*
X148590000Y-106035000D03*
X148590000Y-98415000D03*
X146050000Y-98415000D03*
X143510000Y-98415000D03*
X140970000Y-98415000D03*
X138430000Y-98415000D03*
X135890000Y-98415000D03*
X133350000Y-98415000D03*
%TD*%
D10*
%TO.C,R13*%
X149834600Y-56896000D03*
D11*
X149834600Y-67056000D03*
%TD*%
D10*
%TO.C,C16*%
X130175000Y-114320000D03*
X130175000Y-116820000D03*
%TD*%
%TO.C,R12*%
X154152600Y-67056000D03*
D11*
X154152600Y-56896000D03*
%TD*%
D10*
%TO.C,C3*%
X105410000Y-114320000D03*
X105410000Y-116820000D03*
%TD*%
%TO.C,R5*%
X130149600Y-67056000D03*
D11*
X130149600Y-56896000D03*
%TD*%
D10*
%TO.C,R8*%
X121513600Y-67056000D03*
D11*
X121513600Y-56896000D03*
%TD*%
D15*
%TO.C,SW3*%
X160985000Y-51386300D03*
X153975000Y-51386300D03*
D16*
X155225000Y-48896300D03*
X159725000Y-48896300D03*
%TD*%
D13*
%TO.C,D7*%
X176530000Y-52990000D03*
D14*
X173990000Y-52990000D03*
%TD*%
D10*
%TO.C,C4*%
X132100000Y-74295000D03*
X134600000Y-74295000D03*
%TD*%
D12*
%TO.C,U5*%
X111760000Y-92700000D03*
D11*
X114300000Y-92700000D03*
X116840000Y-92700000D03*
X119380000Y-92700000D03*
X121920000Y-92700000D03*
X124460000Y-92700000D03*
X127000000Y-92700000D03*
X127000000Y-85080000D03*
X124460000Y-85080000D03*
X121920000Y-85080000D03*
X119380000Y-85080000D03*
X116840000Y-85080000D03*
X114300000Y-85080000D03*
X111760000Y-85080000D03*
%TD*%
D17*
%TO.C,SW7*%
X101068600Y-104369600D03*
X101068600Y-99669600D03*
X101068600Y-94969600D03*
%TD*%
D15*
%TO.C,SW4*%
X117622000Y-51386300D03*
X124632000Y-51386300D03*
D16*
X118872000Y-48896300D03*
X123372000Y-48896300D03*
%TD*%
D12*
%TO.C,U3*%
X111760000Y-106035000D03*
D11*
X114300000Y-106035000D03*
X116840000Y-106035000D03*
X119380000Y-106035000D03*
X121920000Y-106035000D03*
X124460000Y-106035000D03*
X127000000Y-106035000D03*
X127000000Y-98415000D03*
X124460000Y-98415000D03*
X121920000Y-98415000D03*
X119380000Y-98415000D03*
X116840000Y-98415000D03*
X114300000Y-98415000D03*
X111760000Y-98415000D03*
%TD*%
D10*
%TO.C,R15*%
X171424600Y-67056000D03*
D11*
X171424600Y-56896000D03*
%TD*%
D10*
%TO.C,C8*%
X108585000Y-87650000D03*
X108585000Y-90150000D03*
%TD*%
D18*
%TO.C,J1*%
X177490000Y-142200000D03*
X174950000Y-142200000D03*
X172410000Y-142200000D03*
X169870000Y-142200000D03*
X167330000Y-142200000D03*
X164790000Y-142200000D03*
X162250000Y-142200000D03*
X159710000Y-142200000D03*
X157170000Y-142200000D03*
X154630000Y-142200000D03*
X152090000Y-142200000D03*
X149550000Y-142200000D03*
X147010000Y-142200000D03*
X144470000Y-142200000D03*
X141930000Y-142200000D03*
X139390000Y-142200000D03*
X136850000Y-142200000D03*
X134310000Y-142200000D03*
X131770000Y-142200000D03*
X129230000Y-142200000D03*
X126690000Y-142200000D03*
X124150000Y-142200000D03*
X121610000Y-142200000D03*
X119070000Y-142200000D03*
X116530000Y-142200000D03*
X113990000Y-142200000D03*
X111450000Y-142200000D03*
X108910000Y-142200000D03*
X106370000Y-142200000D03*
X103830000Y-142200000D03*
X101290000Y-142200000D03*
%TD*%
D10*
%TO.C,R4*%
X134467600Y-67056000D03*
D11*
X134467600Y-56896000D03*
%TD*%
D10*
%TO.C,C6*%
X132100000Y-71755000D03*
X134600000Y-71755000D03*
%TD*%
D19*
%TO.C,J2*%
X179120800Y-121920000D03*
D20*
X179120800Y-119380000D03*
X179120800Y-116840000D03*
X179120800Y-114300000D03*
X179120800Y-111760000D03*
X179120800Y-109220000D03*
X179120800Y-106680000D03*
X179120800Y-104140000D03*
X179120800Y-101600000D03*
X179120800Y-99060000D03*
X179120800Y-96520000D03*
X179120800Y-93980000D03*
X179120800Y-91440000D03*
X179120800Y-88900000D03*
X179120800Y-86360000D03*
X179120800Y-83820000D03*
X179120800Y-81280000D03*
X179120800Y-78740000D03*
X179120800Y-76200000D03*
X179120800Y-73660000D03*
%TD*%
D10*
%TO.C,C19*%
X151765000Y-87630000D03*
X151765000Y-90130000D03*
%TD*%
D17*
%TO.C,SW6*%
X101068600Y-73889600D03*
X101068600Y-69189600D03*
X101068600Y-64489600D03*
%TD*%
D12*
%TO.C,U2*%
X154930000Y-132705000D03*
D11*
X157470000Y-132705000D03*
X160010000Y-132705000D03*
X162550000Y-132705000D03*
X165090000Y-132705000D03*
X167630000Y-132705000D03*
X170170000Y-132705000D03*
X172710000Y-132705000D03*
X172710000Y-125085000D03*
X170170000Y-125085000D03*
X167630000Y-125085000D03*
X165090000Y-125085000D03*
X162550000Y-125085000D03*
X160010000Y-125085000D03*
X157470000Y-125085000D03*
X154930000Y-125085000D03*
%TD*%
D13*
%TO.C,D4*%
X130028000Y-52991300D03*
D14*
X127488000Y-52991300D03*
%TD*%
D12*
%TO.C,U6*%
X133350000Y-119370000D03*
D11*
X135890000Y-119370000D03*
X138430000Y-119370000D03*
X140970000Y-119370000D03*
X143510000Y-119370000D03*
X146050000Y-119370000D03*
X148590000Y-119370000D03*
X148590000Y-111750000D03*
X146050000Y-111750000D03*
X143510000Y-111750000D03*
X140970000Y-111750000D03*
X138430000Y-111750000D03*
X135890000Y-111750000D03*
X133350000Y-111750000D03*
%TD*%
D10*
%TO.C,R10*%
X158470600Y-67056000D03*
D11*
X158470600Y-56896000D03*
%TD*%
D14*
%TO.C,RV1*%
X142997000Y-63892400D03*
X145537000Y-56272400D03*
X142997000Y-51192400D03*
%TD*%
D10*
%TO.C,C14*%
X137795000Y-87650000D03*
X137795000Y-90150000D03*
%TD*%
%TO.C,C7*%
X108585000Y-74315000D03*
X108585000Y-76815000D03*
%TD*%
%TO.C,R7*%
X162788600Y-67056000D03*
D11*
X162788600Y-56896000D03*
%TD*%
D10*
%TO.C,R6*%
X167106600Y-67056000D03*
D11*
X167106600Y-56896000D03*
%TD*%
D13*
%TO.C,D9*%
X114777000Y-52991300D03*
D14*
X112237000Y-52991300D03*
%TD*%
D10*
%TO.C,C12*%
X132100000Y-83185000D03*
X134600000Y-83185000D03*
%TD*%
D12*
%TO.C,U7*%
X133350000Y-132705000D03*
D11*
X135890000Y-132705000D03*
X138430000Y-132705000D03*
X140970000Y-132705000D03*
X143510000Y-132705000D03*
X146050000Y-132705000D03*
X148590000Y-132705000D03*
X148590000Y-125085000D03*
X146050000Y-125085000D03*
X143510000Y-125085000D03*
X140970000Y-125085000D03*
X138430000Y-125085000D03*
X135890000Y-125085000D03*
X133350000Y-125085000D03*
%TD*%
D15*
%TO.C,SW2*%
X139883000Y-51386300D03*
X132873000Y-51386300D03*
D16*
X134123000Y-48896300D03*
X138623000Y-48896300D03*
%TD*%
D10*
%TO.C,R1*%
X105410000Y-107315000D03*
D11*
X105410000Y-97155000D03*
%TD*%
D10*
%TO.C,C11*%
X106045000Y-127655000D03*
X106045000Y-130155000D03*
%TD*%
%TO.C,C9*%
X134600000Y-80645000D03*
X132100000Y-80645000D03*
%TD*%
%TO.C,C5*%
X132100000Y-76835000D03*
X134600000Y-76835000D03*
%TD*%
D12*
%TO.C,U8*%
X157475000Y-119370000D03*
D11*
X160015000Y-119370000D03*
X162555000Y-119370000D03*
X165095000Y-119370000D03*
X167635000Y-119370000D03*
X170175000Y-119370000D03*
X172715000Y-119370000D03*
X172715000Y-111750000D03*
X170175000Y-111750000D03*
X167635000Y-111750000D03*
X165095000Y-111750000D03*
X162555000Y-111750000D03*
X160015000Y-111750000D03*
X157475000Y-111750000D03*
%TD*%
D17*
%TO.C,SW5*%
X101068600Y-89129600D03*
X101068600Y-84429600D03*
X101068600Y-79729600D03*
%TD*%
D10*
%TO.C,C13*%
X137795000Y-74315000D03*
X137795000Y-76815000D03*
%TD*%
%TO.C,C15*%
X130175000Y-100985000D03*
X130175000Y-103485000D03*
%TD*%
%TO.C,R19*%
X138912600Y-56896000D03*
D11*
X138912600Y-67056000D03*
%TD*%
D17*
%TO.C,SW8*%
X101068600Y-119609600D03*
X101068600Y-114909600D03*
X101068600Y-110209600D03*
%TD*%
D10*
%TO.C,C2*%
X108585000Y-114320000D03*
X108585000Y-116820000D03*
%TD*%
D12*
%TO.C,U13*%
X154930000Y-92700000D03*
D11*
X157470000Y-92700000D03*
X160010000Y-92700000D03*
X162550000Y-92700000D03*
X165090000Y-92700000D03*
X167630000Y-92700000D03*
X170170000Y-92700000D03*
X172710000Y-92700000D03*
X172710000Y-85080000D03*
X170170000Y-85080000D03*
X167630000Y-85080000D03*
X165090000Y-85080000D03*
X162550000Y-85080000D03*
X160010000Y-85080000D03*
X157470000Y-85080000D03*
X154930000Y-85080000D03*
%TD*%
D15*
%TO.C,SW1*%
X109377600Y-51386300D03*
X102367600Y-51386300D03*
D16*
X103617600Y-48896300D03*
X108117600Y-48896300D03*
%TD*%
D10*
%TO.C,R14*%
X103352600Y-59131200D03*
D11*
X93192600Y-59131200D03*
%TD*%
D10*
%TO.C,C17*%
X130175000Y-127655000D03*
X130175000Y-130155000D03*
%TD*%
D21*
%TO.C,RS1*%
X133350000Y-92525000D03*
D22*
X133350000Y-89985000D03*
X133350000Y-87445000D03*
%TD*%
D12*
%TO.C,X1*%
X140980000Y-92700000D03*
D11*
X148600000Y-92700000D03*
X148600000Y-85080000D03*
X140980000Y-85080000D03*
%TD*%
D10*
%TO.C,R9*%
X117195600Y-67056000D03*
D11*
X117195600Y-56896000D03*
%TD*%
D12*
%TO.C,U14*%
X109215000Y-132705000D03*
D11*
X111755000Y-132705000D03*
X114295000Y-132705000D03*
X116835000Y-132705000D03*
X119375000Y-132705000D03*
X121915000Y-132705000D03*
X124455000Y-132705000D03*
X126995000Y-132705000D03*
X126995000Y-125085000D03*
X124455000Y-125085000D03*
X121915000Y-125085000D03*
X119375000Y-125085000D03*
X116835000Y-125085000D03*
X114295000Y-125085000D03*
X111755000Y-125085000D03*
X109215000Y-125085000D03*
%TD*%
D10*
%TO.C,R3*%
X101346000Y-123190000D03*
D11*
X101346000Y-133350000D03*
%TD*%
D13*
%TO.C,D5*%
X166370000Y-52990000D03*
D14*
X163830000Y-52990000D03*
%TD*%
D13*
%TO.C,D6*%
X171450000Y-52990000D03*
D14*
X168910000Y-52990000D03*
%TD*%
D19*
%TO.C,J3*%
X179115000Y-129570000D03*
D20*
X179115000Y-127030000D03*
%TD*%
D10*
%TO.C,R20*%
X112877600Y-67056000D03*
D11*
X112877600Y-56896000D03*
%TD*%
D13*
%TO.C,D8*%
X181610000Y-52990000D03*
D14*
X179070000Y-52990000D03*
%TD*%
D12*
%TO.C,U4*%
X111760000Y-79365000D03*
D11*
X114300000Y-79365000D03*
X116840000Y-79365000D03*
X119380000Y-79365000D03*
X121920000Y-79365000D03*
X124460000Y-79365000D03*
X127000000Y-79365000D03*
X127000000Y-71745000D03*
X124460000Y-71745000D03*
X121920000Y-71745000D03*
X119380000Y-71745000D03*
X116840000Y-71745000D03*
X114300000Y-71745000D03*
X111760000Y-71745000D03*
%TD*%
D12*
%TO.C,U11*%
X140985000Y-79365000D03*
D11*
X143525000Y-79365000D03*
X146065000Y-79365000D03*
X148605000Y-79365000D03*
X148605000Y-71745000D03*
X146065000Y-71745000D03*
X143525000Y-71745000D03*
X140985000Y-71745000D03*
%TD*%
D10*
%TO.C,C1*%
X151765000Y-127655000D03*
X151765000Y-130155000D03*
%TD*%
%TO.C,R11*%
X125831600Y-67056000D03*
D11*
X125831600Y-56896000D03*
%TD*%
D10*
%TO.C,C20*%
X154305000Y-100985000D03*
X154305000Y-103485000D03*
%TD*%
%TO.C,R16*%
X175742600Y-67056000D03*
D11*
X175742600Y-56896000D03*
%TD*%
D10*
%TO.C,C18*%
X151765000Y-74315000D03*
X151765000Y-76815000D03*
%TD*%
%TO.C,C10*%
X108585000Y-100985000D03*
X108585000Y-103485000D03*
%TD*%
D13*
%TO.C,D1*%
X99548000Y-52990000D03*
D14*
X97008000Y-52990000D03*
%TD*%
D10*
%TO.C,R2*%
X108432600Y-67056000D03*
D11*
X108432600Y-56896000D03*
%TD*%
D13*
%TO.C,D3*%
X151130000Y-52990000D03*
D14*
X148590000Y-52990000D03*
%TD*%
D10*
%TO.C,R17*%
X180060600Y-67056000D03*
D11*
X180060600Y-56896000D03*
%TD*%
M02*
