G04 #@! TF.GenerationSoftware,KiCad,Pcbnew,(6.0.7)*
G04 #@! TF.CreationDate,2022-11-29T19:50:19-05:00*
G04 #@! TF.ProjectId,DIP 68 1.778mm adaptor,44495020-3638-4203-912e-3737386d6d20,rev?*
G04 #@! TF.SameCoordinates,Original*
G04 #@! TF.FileFunction,Copper,L2,Bot*
G04 #@! TF.FilePolarity,Positive*
%FSLAX46Y46*%
G04 Gerber Fmt 4.6, Leading zero omitted, Abs format (unit mm)*
G04 Created by KiCad (PCBNEW (6.0.7)) date 2022-11-29 19:50:19*
%MOMM*%
%LPD*%
G01*
G04 APERTURE LIST*
G04 #@! TA.AperFunction,ComponentPad*
%ADD10R,2.540000X1.016000*%
G04 #@! TD*
G04 #@! TA.AperFunction,ComponentPad*
%ADD11O,2.540000X1.016000*%
G04 #@! TD*
G04 #@! TA.AperFunction,ComponentPad*
%ADD12R,1.700000X1.700000*%
G04 #@! TD*
G04 #@! TA.AperFunction,ComponentPad*
%ADD13O,1.700000X1.700000*%
G04 #@! TD*
G04 #@! TA.AperFunction,Conductor*
%ADD14C,0.333000*%
G04 #@! TD*
G04 #@! TA.AperFunction,Conductor*
%ADD15C,0.250000*%
G04 #@! TD*
G04 APERTURE END LIST*
D10*
X118110000Y-57150000D03*
D11*
X118110000Y-58928000D03*
X118110000Y-60706000D03*
X118110000Y-62484000D03*
X118110000Y-64262000D03*
X118110000Y-66040000D03*
X118110000Y-67818000D03*
X118110000Y-69596000D03*
X118110000Y-71374000D03*
X118110000Y-73152000D03*
X118110000Y-74930000D03*
X118110000Y-76708000D03*
X118110000Y-78486000D03*
X118110000Y-80264000D03*
X118110000Y-82042000D03*
X118110000Y-83820000D03*
X118110000Y-85598000D03*
X118110000Y-87376000D03*
X118110000Y-89154000D03*
X118110000Y-90932000D03*
X118110000Y-92710000D03*
X118110000Y-94488000D03*
X118110000Y-96266000D03*
X118110000Y-98044000D03*
X118110000Y-99822000D03*
X118110000Y-101600000D03*
X118110000Y-103378000D03*
X118110000Y-105156000D03*
X118110000Y-106934000D03*
X118110000Y-108712000D03*
X118110000Y-110490000D03*
X118110000Y-112268000D03*
X137160000Y-112268000D03*
X137160000Y-110490000D03*
X137160000Y-108712000D03*
X137160000Y-106934000D03*
X137160000Y-105156000D03*
X137160000Y-103378000D03*
X137160000Y-101600000D03*
X137160000Y-99822000D03*
X137160000Y-98044000D03*
X137160000Y-96266000D03*
X137160000Y-94488000D03*
X137160000Y-92710000D03*
X137160000Y-90932000D03*
X137160000Y-89154000D03*
X137160000Y-87376000D03*
X137160000Y-85598000D03*
X137160000Y-83820000D03*
X137160000Y-82042000D03*
X137160000Y-80264000D03*
X137160000Y-78486000D03*
X137160000Y-76708000D03*
X137160000Y-74930000D03*
X137160000Y-73152000D03*
X137160000Y-71374000D03*
X137160000Y-69596000D03*
X137160000Y-67818000D03*
X137160000Y-66040000D03*
X137160000Y-64262000D03*
X137160000Y-62484000D03*
X137160000Y-60706000D03*
X137160000Y-58928000D03*
X137160000Y-57150000D03*
D12*
X143510000Y-45720000D03*
D13*
X143510000Y-48260000D03*
X143510000Y-50800000D03*
X143510000Y-53340000D03*
X143510000Y-55880000D03*
X143510000Y-58420000D03*
X143510000Y-60960000D03*
X143510000Y-63500000D03*
X143510000Y-66040000D03*
X143510000Y-68580000D03*
X143510000Y-71120000D03*
X143510000Y-73660000D03*
X143510000Y-76200000D03*
X143510000Y-78740000D03*
X143510000Y-81280000D03*
X143510000Y-83820000D03*
X143510000Y-86360000D03*
X143510000Y-88900000D03*
X143510000Y-91440000D03*
X143510000Y-93980000D03*
X143510000Y-96520000D03*
X143510000Y-99060000D03*
X143510000Y-101600000D03*
X143510000Y-104140000D03*
X143510000Y-106680000D03*
X143510000Y-109220000D03*
X143510000Y-111760000D03*
X143510000Y-114300000D03*
X143510000Y-116840000D03*
X143510000Y-119380000D03*
X143510000Y-121920000D03*
X143510000Y-124460000D03*
D12*
X111760000Y-45720000D03*
D13*
X111760000Y-48260000D03*
X111760000Y-50800000D03*
X111760000Y-53340000D03*
X111760000Y-55880000D03*
X111760000Y-58420000D03*
X111760000Y-60960000D03*
X111760000Y-63500000D03*
X111760000Y-66040000D03*
X111760000Y-68580000D03*
X111760000Y-71120000D03*
X111760000Y-73660000D03*
X111760000Y-76200000D03*
X111760000Y-78740000D03*
X111760000Y-81280000D03*
X111760000Y-83820000D03*
X111760000Y-86360000D03*
X111760000Y-88900000D03*
X111760000Y-91440000D03*
X111760000Y-93980000D03*
X111760000Y-96520000D03*
X111760000Y-99060000D03*
X111760000Y-101600000D03*
X111760000Y-104140000D03*
X111760000Y-106680000D03*
X111760000Y-109220000D03*
X111760000Y-111760000D03*
X111760000Y-114300000D03*
X111760000Y-116840000D03*
X111760000Y-119380000D03*
X111760000Y-121920000D03*
X111760000Y-124460000D03*
D14*
X111760000Y-45720000D02*
X118110000Y-52070000D01*
X118110000Y-52070000D02*
X118110000Y-57150000D01*
X116205000Y-52705000D02*
X116205000Y-57785000D01*
X117348000Y-58928000D02*
X118110000Y-58928000D01*
X116205000Y-57785000D02*
X117348000Y-58928000D01*
X111760000Y-48260000D02*
X116205000Y-52705000D01*
X115570000Y-59055000D02*
X117221000Y-60706000D01*
X115570000Y-54610000D02*
X111760000Y-50800000D01*
X115570000Y-54610000D02*
X115570000Y-59055000D01*
X117221000Y-60706000D02*
X118110000Y-60706000D01*
X114935000Y-60325000D02*
X114935000Y-56515000D01*
X117094000Y-62484000D02*
X114935000Y-60325000D01*
X118110000Y-62484000D02*
X117094000Y-62484000D01*
X114935000Y-56515000D02*
X111760000Y-53340000D01*
X116967000Y-64262000D02*
X114300000Y-61595000D01*
X114300000Y-58420000D02*
X111760000Y-55880000D01*
X118110000Y-64262000D02*
X116967000Y-64262000D01*
X114300000Y-61595000D02*
X114300000Y-58420000D01*
X116840000Y-66040000D02*
X113665000Y-62865000D01*
X118110000Y-66040000D02*
X116840000Y-66040000D01*
X113665000Y-60325000D02*
X111760000Y-58420000D01*
X113665000Y-62865000D02*
X113665000Y-60325000D01*
X113030000Y-62230000D02*
X113030000Y-63500000D01*
X113030000Y-63500000D02*
X117348000Y-67818000D01*
X111760000Y-60960000D02*
X113030000Y-62230000D01*
X117348000Y-67818000D02*
X118110000Y-67818000D01*
X111760000Y-63500000D02*
X113030000Y-64770000D01*
X118110000Y-69596000D02*
X117221000Y-69596000D01*
X113030000Y-65405000D02*
X113030000Y-64770000D01*
X117221000Y-69596000D02*
X113030000Y-65405000D01*
X111760000Y-66040000D02*
X117094000Y-71374000D01*
X117094000Y-71374000D02*
X118110000Y-71374000D01*
X116967000Y-73152000D02*
X112395000Y-68580000D01*
X112395000Y-68580000D02*
X111760000Y-68580000D01*
X118110000Y-73152000D02*
X116967000Y-73152000D01*
X115570000Y-74930000D02*
X118110000Y-74930000D01*
X111760000Y-71120000D02*
X115570000Y-74930000D01*
X114808000Y-76708000D02*
X118110000Y-76708000D01*
X111760000Y-73660000D02*
X114808000Y-76708000D01*
X114046000Y-78486000D02*
X118110000Y-78486000D01*
X111760000Y-76200000D02*
X114046000Y-78486000D01*
X113284000Y-80264000D02*
X118110000Y-80264000D01*
X111760000Y-78740000D02*
X113284000Y-80264000D01*
X111760000Y-81280000D02*
X112522000Y-82042000D01*
X112522000Y-82042000D02*
X118110000Y-82042000D01*
X118110000Y-83820000D02*
X111760000Y-83820000D01*
X112522000Y-85598000D02*
X111760000Y-86360000D01*
X118110000Y-85598000D02*
X112522000Y-85598000D01*
X118110000Y-87376000D02*
X113284000Y-87376000D01*
X113284000Y-87376000D02*
X111760000Y-88900000D01*
X118110000Y-89154000D02*
X114046000Y-89154000D01*
X114046000Y-89154000D02*
X111760000Y-91440000D01*
X114808000Y-90932000D02*
X111760000Y-93980000D01*
X118110000Y-90932000D02*
X114808000Y-90932000D01*
X118110000Y-92710000D02*
X115570000Y-92710000D01*
X115570000Y-92710000D02*
X111760000Y-96520000D01*
X118110000Y-94488000D02*
X116332000Y-94488000D01*
X116332000Y-94488000D02*
X111760000Y-99060000D01*
X118110000Y-96266000D02*
X117094000Y-96266000D01*
X117094000Y-96266000D02*
X111760000Y-101600000D01*
X111760000Y-104140000D02*
X111760000Y-103886000D01*
X118110000Y-98044000D02*
X117856000Y-98044000D01*
X111760000Y-103886000D02*
X117602000Y-98044000D01*
D15*
X117602000Y-98044000D02*
X118110000Y-98044000D01*
D14*
X113030000Y-104775000D02*
X113030000Y-104140000D01*
X113030000Y-104140000D02*
X117348000Y-99822000D01*
X111760000Y-106045000D02*
X113030000Y-104775000D01*
X117348000Y-99822000D02*
X118110000Y-99822000D01*
X111760000Y-106680000D02*
X111760000Y-106045000D01*
X117475000Y-101600000D02*
X118110000Y-101600000D01*
X113030000Y-107950000D02*
X113030000Y-106045000D01*
X111760000Y-109220000D02*
X113030000Y-107950000D01*
X113030000Y-106045000D02*
X117475000Y-101600000D01*
X111760000Y-111760000D02*
X113665000Y-109855000D01*
X113665000Y-109855000D02*
X113665000Y-106680000D01*
X116967000Y-103378000D02*
X118110000Y-103378000D01*
X113665000Y-106680000D02*
X116967000Y-103378000D01*
X111760000Y-114300000D02*
X114300000Y-111760000D01*
X117094000Y-105156000D02*
X118110000Y-105156000D01*
X114300000Y-107950000D02*
X117094000Y-105156000D01*
X114300000Y-111760000D02*
X114300000Y-107950000D01*
X114935000Y-109220000D02*
X117221000Y-106934000D01*
X117221000Y-106934000D02*
X118110000Y-106934000D01*
X111760000Y-116840000D02*
X114935000Y-113665000D01*
X114935000Y-113665000D02*
X114935000Y-109220000D01*
X111760000Y-119380000D02*
X115570000Y-115570000D01*
X115570000Y-110490000D02*
X117348000Y-108712000D01*
X115570000Y-115570000D02*
X115570000Y-110490000D01*
X117348000Y-108712000D02*
X118110000Y-108712000D01*
X116205000Y-111760000D02*
X117475000Y-110490000D01*
X111760000Y-121920000D02*
X116205000Y-117475000D01*
X117475000Y-110490000D02*
X118110000Y-110490000D01*
X116205000Y-112174270D02*
X116205000Y-111760000D01*
X116205000Y-117475000D02*
X116205000Y-112174270D01*
X118110000Y-118110000D02*
X118110000Y-112268000D01*
X111760000Y-124460000D02*
X118110000Y-118110000D01*
X137160000Y-52070000D02*
X137160000Y-57150000D01*
X143510000Y-45720000D02*
X137160000Y-52070000D01*
X139065000Y-57785000D02*
X139065000Y-52705000D01*
X139065000Y-52705000D02*
X143510000Y-48260000D01*
X137160000Y-58928000D02*
X137922000Y-58928000D01*
X137922000Y-58928000D02*
X139065000Y-57785000D01*
X139700000Y-58928000D02*
X139700000Y-54610000D01*
X137922000Y-60706000D02*
X139700000Y-58928000D01*
X137160000Y-60706000D02*
X137922000Y-60706000D01*
X139700000Y-54610000D02*
X143510000Y-50800000D01*
X137922000Y-62484000D02*
X140335000Y-60071000D01*
X140335000Y-56515000D02*
X143510000Y-53340000D01*
X137160000Y-62484000D02*
X137922000Y-62484000D01*
X140335000Y-60071000D02*
X140335000Y-56515000D01*
X137160000Y-64262000D02*
X137922000Y-64262000D01*
X137922000Y-64262000D02*
X140970000Y-61214000D01*
X140970000Y-61214000D02*
X140970000Y-58420000D01*
X140970000Y-58420000D02*
X143510000Y-55880000D01*
X137160000Y-66040000D02*
X137795000Y-66040000D01*
X141605000Y-62230000D02*
X141605000Y-60325000D01*
X141605000Y-60325000D02*
X143510000Y-58420000D01*
X137795000Y-66040000D02*
X141605000Y-62230000D01*
X142293500Y-63446500D02*
X137922000Y-67818000D01*
X143510000Y-60960000D02*
X142293500Y-62176500D01*
X137922000Y-67818000D02*
X137160000Y-67818000D01*
X142293500Y-62176500D02*
X142293500Y-63446500D01*
X138049000Y-69596000D02*
X137160000Y-69596000D01*
X143510000Y-63500000D02*
X142240000Y-64770000D01*
X142240000Y-64770000D02*
X142240000Y-65405000D01*
X142240000Y-65405000D02*
X138049000Y-69596000D01*
X143510000Y-66040000D02*
X138176000Y-71374000D01*
X138176000Y-71374000D02*
X137160000Y-71374000D01*
X143510000Y-68580000D02*
X138938000Y-73152000D01*
X138938000Y-73152000D02*
X137160000Y-73152000D01*
X143510000Y-71120000D02*
X139700000Y-74930000D01*
X139700000Y-74930000D02*
X137160000Y-74930000D01*
X143510000Y-73660000D02*
X140462000Y-76708000D01*
X140462000Y-76708000D02*
X137160000Y-76708000D01*
X143510000Y-76200000D02*
X141224000Y-78486000D01*
X141224000Y-78486000D02*
X137160000Y-78486000D01*
X143510000Y-78740000D02*
X141986000Y-80264000D01*
X141986000Y-80264000D02*
X137160000Y-80264000D01*
X143510000Y-81280000D02*
X142748000Y-82042000D01*
X142748000Y-82042000D02*
X137160000Y-82042000D01*
X137160000Y-83820000D02*
X143510000Y-83820000D01*
X142748000Y-85598000D02*
X137160000Y-85598000D01*
X143510000Y-86360000D02*
X142748000Y-85598000D01*
X141986000Y-87376000D02*
X137160000Y-87376000D01*
X143510000Y-88900000D02*
X141986000Y-87376000D01*
X143510000Y-91440000D02*
X141224000Y-89154000D01*
X141224000Y-89154000D02*
X137160000Y-89154000D01*
X143510000Y-93980000D02*
X140462000Y-90932000D01*
X140462000Y-90932000D02*
X137160000Y-90932000D01*
X143510000Y-96520000D02*
X139700000Y-92710000D01*
X139700000Y-92710000D02*
X137160000Y-92710000D01*
X138938000Y-94488000D02*
X137160000Y-94488000D01*
X143510000Y-99060000D02*
X138938000Y-94488000D01*
X138176000Y-96266000D02*
X137160000Y-96266000D01*
X143510000Y-101600000D02*
X138176000Y-96266000D01*
X137160000Y-98044000D02*
X137668000Y-98044000D01*
X143510000Y-103886000D02*
X143510000Y-104140000D01*
X137668000Y-98044000D02*
X143510000Y-103886000D01*
X142240000Y-104521000D02*
X137541000Y-99822000D01*
X143510000Y-106426000D02*
X142240000Y-105156000D01*
X143510000Y-106680000D02*
X143510000Y-106426000D01*
X137541000Y-99822000D02*
X137160000Y-99822000D01*
X142240000Y-105156000D02*
X142240000Y-104521000D01*
X137160000Y-101600000D02*
X137795000Y-101600000D01*
X142240000Y-106045000D02*
X142240000Y-107950000D01*
X137795000Y-101600000D02*
X142240000Y-106045000D01*
X142240000Y-107950000D02*
X143510000Y-109220000D01*
X137160000Y-103378000D02*
X138303000Y-103378000D01*
X141605000Y-106680000D02*
X141605000Y-109855000D01*
X138303000Y-103378000D02*
X141605000Y-106680000D01*
X141605000Y-109855000D02*
X143510000Y-111760000D01*
X140970000Y-107950000D02*
X140970000Y-111760000D01*
X140970000Y-111760000D02*
X143510000Y-114300000D01*
X138176000Y-105156000D02*
X140970000Y-107950000D01*
X137160000Y-105156000D02*
X138176000Y-105156000D01*
X140335000Y-113665000D02*
X143510000Y-116840000D01*
X140335000Y-109220000D02*
X140335000Y-113665000D01*
X137160000Y-106934000D02*
X138049000Y-106934000D01*
X138049000Y-106934000D02*
X140335000Y-109220000D01*
X137922000Y-108712000D02*
X139700000Y-110490000D01*
X139700000Y-110490000D02*
X139700000Y-115570000D01*
X139700000Y-115570000D02*
X143510000Y-119380000D01*
X137160000Y-108712000D02*
X137922000Y-108712000D01*
X137795000Y-110490000D02*
X139065000Y-111760000D01*
X137160000Y-110490000D02*
X137795000Y-110490000D01*
X139065000Y-117475000D02*
X143510000Y-121920000D01*
X139065000Y-111760000D02*
X139065000Y-117475000D01*
X137160000Y-118110000D02*
X137160000Y-112268000D01*
X143510000Y-124460000D02*
X137160000Y-118110000D01*
G04 #@! TA.AperFunction,NonConductor*
G36*
X141487319Y-45295258D02*
G01*
X141569398Y-45350102D01*
X141624242Y-45432181D01*
X141643500Y-45529000D01*
X141643500Y-45808689D01*
X141624242Y-45905508D01*
X141569398Y-45987587D01*
X136357630Y-51199355D01*
X136345564Y-51210656D01*
X136298206Y-51252188D01*
X136242511Y-51322837D01*
X136238399Y-51327915D01*
X136180882Y-51397071D01*
X136175216Y-51407189D01*
X136174485Y-51408252D01*
X136173472Y-51409627D01*
X136172368Y-51411279D01*
X136171483Y-51412745D01*
X136170783Y-51413823D01*
X136163602Y-51422932D01*
X136121727Y-51502524D01*
X136118591Y-51508299D01*
X136074646Y-51586769D01*
X136070914Y-51597763D01*
X136070405Y-51598907D01*
X136069646Y-51600472D01*
X136068865Y-51602289D01*
X136068264Y-51603885D01*
X136067768Y-51605083D01*
X136062368Y-51615346D01*
X136058929Y-51626422D01*
X136035695Y-51701250D01*
X136033653Y-51707532D01*
X136004759Y-51792652D01*
X136003094Y-51804131D01*
X136002796Y-51805374D01*
X136002336Y-51807047D01*
X136001904Y-51808957D01*
X136001604Y-51810637D01*
X136001334Y-51811909D01*
X135997894Y-51822987D01*
X135995955Y-51839369D01*
X135987326Y-51912271D01*
X135986462Y-51918835D01*
X135973560Y-52007821D01*
X135974015Y-52019405D01*
X135974015Y-52019407D01*
X135976805Y-52090411D01*
X135977000Y-52100344D01*
X135977000Y-55505054D01*
X135957742Y-55601873D01*
X135902898Y-55683952D01*
X135822856Y-55737941D01*
X135689407Y-55794587D01*
X135680813Y-55799999D01*
X135680811Y-55800000D01*
X135490418Y-55919896D01*
X135490412Y-55919900D01*
X135481817Y-55925313D01*
X135297799Y-56087548D01*
X135142085Y-56277116D01*
X135136980Y-56285887D01*
X135136976Y-56285893D01*
X135023790Y-56480367D01*
X135018683Y-56489142D01*
X134930768Y-56718170D01*
X134880600Y-56958308D01*
X134869472Y-57203377D01*
X134897668Y-57447074D01*
X134964465Y-57683127D01*
X134968759Y-57692337D01*
X134968760Y-57692338D01*
X135063844Y-57896248D01*
X135063847Y-57896253D01*
X135068142Y-57905464D01*
X135073857Y-57913873D01*
X135076303Y-57918179D01*
X135107380Y-58011876D01*
X135100236Y-58110332D01*
X135074982Y-58170409D01*
X135027967Y-58251191D01*
X135018683Y-58267142D01*
X134930768Y-58496170D01*
X134880600Y-58736308D01*
X134869472Y-58981377D01*
X134897668Y-59225074D01*
X134900434Y-59234848D01*
X134900434Y-59234849D01*
X134938485Y-59369315D01*
X134964465Y-59461127D01*
X134968759Y-59470337D01*
X134968760Y-59470338D01*
X135063844Y-59674248D01*
X135063847Y-59674253D01*
X135068142Y-59683464D01*
X135073857Y-59691873D01*
X135076303Y-59696179D01*
X135107380Y-59789876D01*
X135100236Y-59888332D01*
X135074982Y-59948409D01*
X135023793Y-60036362D01*
X135018683Y-60045142D01*
X134930768Y-60274170D01*
X134880600Y-60514308D01*
X134869472Y-60759377D01*
X134897668Y-61003074D01*
X134900434Y-61012848D01*
X134900434Y-61012849D01*
X134938485Y-61147315D01*
X134964465Y-61239127D01*
X134968759Y-61248337D01*
X134968760Y-61248338D01*
X135063844Y-61452248D01*
X135063847Y-61452253D01*
X135068142Y-61461464D01*
X135073857Y-61469873D01*
X135076303Y-61474179D01*
X135107380Y-61567876D01*
X135100236Y-61666332D01*
X135074982Y-61726409D01*
X135023793Y-61814362D01*
X135018683Y-61823142D01*
X134930768Y-62052170D01*
X134880600Y-62292308D01*
X134869472Y-62537377D01*
X134897668Y-62781074D01*
X134900434Y-62790848D01*
X134900434Y-62790849D01*
X134938485Y-62925315D01*
X134964465Y-63017127D01*
X134968759Y-63026337D01*
X134968760Y-63026338D01*
X135063844Y-63230248D01*
X135063847Y-63230253D01*
X135068142Y-63239464D01*
X135073857Y-63247873D01*
X135076303Y-63252179D01*
X135107380Y-63345876D01*
X135100236Y-63444332D01*
X135074982Y-63504409D01*
X135023793Y-63592362D01*
X135018683Y-63601142D01*
X134930768Y-63830170D01*
X134880600Y-64070308D01*
X134869472Y-64315377D01*
X134897668Y-64559074D01*
X134900434Y-64568848D01*
X134900434Y-64568849D01*
X134938485Y-64703315D01*
X134964465Y-64795127D01*
X134968759Y-64804337D01*
X134968760Y-64804338D01*
X135063844Y-65008248D01*
X135063847Y-65008253D01*
X135068142Y-65017464D01*
X135073857Y-65025873D01*
X135076303Y-65030179D01*
X135107380Y-65123876D01*
X135100236Y-65222332D01*
X135074982Y-65282409D01*
X135023793Y-65370362D01*
X135018683Y-65379142D01*
X134930768Y-65608170D01*
X134880600Y-65848308D01*
X134869472Y-66093377D01*
X134897668Y-66337074D01*
X134900434Y-66346848D01*
X134900434Y-66346849D01*
X134938485Y-66481315D01*
X134964465Y-66573127D01*
X134968759Y-66582337D01*
X134968760Y-66582338D01*
X135063844Y-66786248D01*
X135063847Y-66786253D01*
X135068142Y-66795464D01*
X135073857Y-66803873D01*
X135076303Y-66808179D01*
X135107380Y-66901876D01*
X135100236Y-67000332D01*
X135074982Y-67060409D01*
X135023793Y-67148362D01*
X135018683Y-67157142D01*
X134930768Y-67386170D01*
X134880600Y-67626308D01*
X134869472Y-67871377D01*
X134897668Y-68115074D01*
X134900434Y-68124848D01*
X134900434Y-68124849D01*
X134938485Y-68259315D01*
X134964465Y-68351127D01*
X134968759Y-68360337D01*
X134968760Y-68360338D01*
X135063844Y-68564248D01*
X135063847Y-68564253D01*
X135068142Y-68573464D01*
X135073857Y-68581873D01*
X135076303Y-68586179D01*
X135107380Y-68679876D01*
X135100236Y-68778332D01*
X135074982Y-68838409D01*
X135023793Y-68926362D01*
X135018683Y-68935142D01*
X134930768Y-69164170D01*
X134880600Y-69404308D01*
X134869472Y-69649377D01*
X134897668Y-69893074D01*
X134900434Y-69902848D01*
X134900434Y-69902849D01*
X134938485Y-70037315D01*
X134964465Y-70129127D01*
X134968759Y-70138337D01*
X134968760Y-70138338D01*
X135063844Y-70342248D01*
X135063847Y-70342253D01*
X135068142Y-70351464D01*
X135073857Y-70359873D01*
X135076303Y-70364179D01*
X135107380Y-70457876D01*
X135100236Y-70556332D01*
X135074982Y-70616409D01*
X135023793Y-70704362D01*
X135018683Y-70713142D01*
X134930768Y-70942170D01*
X134880600Y-71182308D01*
X134869472Y-71427377D01*
X134897668Y-71671074D01*
X134900434Y-71680848D01*
X134900434Y-71680849D01*
X134938485Y-71815315D01*
X134964465Y-71907127D01*
X134968759Y-71916337D01*
X134968760Y-71916338D01*
X135063844Y-72120248D01*
X135063847Y-72120253D01*
X135068142Y-72129464D01*
X135073857Y-72137873D01*
X135076303Y-72142179D01*
X135107380Y-72235876D01*
X135100236Y-72334332D01*
X135074982Y-72394409D01*
X135023793Y-72482362D01*
X135018683Y-72491142D01*
X134930768Y-72720170D01*
X134880600Y-72960308D01*
X134869472Y-73205377D01*
X134897668Y-73449074D01*
X134900434Y-73458848D01*
X134900434Y-73458849D01*
X134938485Y-73593315D01*
X134964465Y-73685127D01*
X134968759Y-73694337D01*
X134968760Y-73694338D01*
X135063844Y-73898248D01*
X135063847Y-73898253D01*
X135068142Y-73907464D01*
X135073857Y-73915873D01*
X135076303Y-73920179D01*
X135107380Y-74013876D01*
X135100236Y-74112332D01*
X135074982Y-74172409D01*
X135023793Y-74260362D01*
X135018683Y-74269142D01*
X134930768Y-74498170D01*
X134880600Y-74738308D01*
X134869472Y-74983377D01*
X134897668Y-75227074D01*
X134900434Y-75236848D01*
X134900434Y-75236849D01*
X134938485Y-75371315D01*
X134964465Y-75463127D01*
X134968759Y-75472337D01*
X134968760Y-75472338D01*
X135063844Y-75676248D01*
X135063847Y-75676253D01*
X135068142Y-75685464D01*
X135073857Y-75693873D01*
X135076303Y-75698179D01*
X135107380Y-75791876D01*
X135100236Y-75890332D01*
X135074982Y-75950409D01*
X135023793Y-76038362D01*
X135018683Y-76047142D01*
X134930768Y-76276170D01*
X134880600Y-76516308D01*
X134869472Y-76761377D01*
X134897668Y-77005074D01*
X134900434Y-77014848D01*
X134900434Y-77014849D01*
X134938485Y-77149315D01*
X134964465Y-77241127D01*
X134968759Y-77250337D01*
X134968760Y-77250338D01*
X135063844Y-77454248D01*
X135063847Y-77454253D01*
X135068142Y-77463464D01*
X135073857Y-77471873D01*
X135076303Y-77476179D01*
X135107380Y-77569876D01*
X135100236Y-77668332D01*
X135074982Y-77728409D01*
X135023793Y-77816362D01*
X135018683Y-77825142D01*
X134930768Y-78054170D01*
X134880600Y-78294308D01*
X134869472Y-78539377D01*
X134897668Y-78783074D01*
X134900434Y-78792848D01*
X134900434Y-78792849D01*
X134938485Y-78927315D01*
X134964465Y-79019127D01*
X134968759Y-79028337D01*
X134968760Y-79028338D01*
X135063844Y-79232248D01*
X135063847Y-79232253D01*
X135068142Y-79241464D01*
X135073857Y-79249873D01*
X135076303Y-79254179D01*
X135107380Y-79347876D01*
X135100236Y-79446332D01*
X135074982Y-79506409D01*
X135023793Y-79594362D01*
X135018683Y-79603142D01*
X134930768Y-79832170D01*
X134880600Y-80072308D01*
X134869472Y-80317377D01*
X134897668Y-80561074D01*
X134900434Y-80570848D01*
X134900434Y-80570849D01*
X134938485Y-80705315D01*
X134964465Y-80797127D01*
X134968759Y-80806337D01*
X134968760Y-80806338D01*
X135063844Y-81010248D01*
X135063847Y-81010253D01*
X135068142Y-81019464D01*
X135073857Y-81027873D01*
X135076303Y-81032179D01*
X135107380Y-81125876D01*
X135100236Y-81224332D01*
X135074982Y-81284409D01*
X135023793Y-81372362D01*
X135018683Y-81381142D01*
X134930768Y-81610170D01*
X134880600Y-81850308D01*
X134869472Y-82095377D01*
X134897668Y-82339074D01*
X134900434Y-82348848D01*
X134900434Y-82348849D01*
X134938485Y-82483315D01*
X134964465Y-82575127D01*
X134968759Y-82584337D01*
X134968760Y-82584338D01*
X135063844Y-82788248D01*
X135063847Y-82788253D01*
X135068142Y-82797464D01*
X135073857Y-82805873D01*
X135076303Y-82810179D01*
X135107380Y-82903876D01*
X135100236Y-83002332D01*
X135074982Y-83062409D01*
X135023793Y-83150362D01*
X135018683Y-83159142D01*
X134930768Y-83388170D01*
X134880600Y-83628308D01*
X134869472Y-83873377D01*
X134897668Y-84117074D01*
X134900434Y-84126848D01*
X134900434Y-84126849D01*
X134938485Y-84261315D01*
X134964465Y-84353127D01*
X134968759Y-84362337D01*
X134968760Y-84362338D01*
X135063844Y-84566248D01*
X135063847Y-84566253D01*
X135068142Y-84575464D01*
X135073857Y-84583873D01*
X135076303Y-84588179D01*
X135107380Y-84681876D01*
X135100236Y-84780332D01*
X135074982Y-84840409D01*
X135023793Y-84928362D01*
X135018683Y-84937142D01*
X134930768Y-85166170D01*
X134880600Y-85406308D01*
X134869472Y-85651377D01*
X134897668Y-85895074D01*
X134900434Y-85904848D01*
X134900434Y-85904849D01*
X134938485Y-86039315D01*
X134964465Y-86131127D01*
X134968759Y-86140337D01*
X134968760Y-86140338D01*
X135063844Y-86344248D01*
X135063847Y-86344253D01*
X135068142Y-86353464D01*
X135073857Y-86361873D01*
X135076303Y-86366179D01*
X135107380Y-86459876D01*
X135100236Y-86558332D01*
X135074982Y-86618409D01*
X135023793Y-86706362D01*
X135018683Y-86715142D01*
X134930768Y-86944170D01*
X134880600Y-87184308D01*
X134869472Y-87429377D01*
X134897668Y-87673074D01*
X134900434Y-87682848D01*
X134900434Y-87682849D01*
X134938485Y-87817315D01*
X134964465Y-87909127D01*
X134968759Y-87918337D01*
X134968760Y-87918338D01*
X135063844Y-88122248D01*
X135063847Y-88122253D01*
X135068142Y-88131464D01*
X135073857Y-88139873D01*
X135076303Y-88144179D01*
X135107380Y-88237876D01*
X135100236Y-88336332D01*
X135074982Y-88396409D01*
X135023793Y-88484362D01*
X135018683Y-88493142D01*
X134930768Y-88722170D01*
X134880600Y-88962308D01*
X134869472Y-89207377D01*
X134897668Y-89451074D01*
X134900434Y-89460848D01*
X134900434Y-89460849D01*
X134938485Y-89595315D01*
X134964465Y-89687127D01*
X134968759Y-89696337D01*
X134968760Y-89696338D01*
X135063844Y-89900248D01*
X135063847Y-89900253D01*
X135068142Y-89909464D01*
X135073857Y-89917873D01*
X135076303Y-89922179D01*
X135107380Y-90015876D01*
X135100236Y-90114332D01*
X135074982Y-90174409D01*
X135023793Y-90262362D01*
X135018683Y-90271142D01*
X134930768Y-90500170D01*
X134880600Y-90740308D01*
X134869472Y-90985377D01*
X134897668Y-91229074D01*
X134900434Y-91238848D01*
X134900434Y-91238849D01*
X134938485Y-91373315D01*
X134964465Y-91465127D01*
X134968759Y-91474337D01*
X134968760Y-91474338D01*
X135063844Y-91678248D01*
X135063847Y-91678253D01*
X135068142Y-91687464D01*
X135073857Y-91695873D01*
X135076303Y-91700179D01*
X135107380Y-91793876D01*
X135100236Y-91892332D01*
X135074982Y-91952409D01*
X135023793Y-92040362D01*
X135018683Y-92049142D01*
X134930768Y-92278170D01*
X134880600Y-92518308D01*
X134869472Y-92763377D01*
X134897668Y-93007074D01*
X134900434Y-93016848D01*
X134900434Y-93016849D01*
X134938485Y-93151315D01*
X134964465Y-93243127D01*
X134968759Y-93252337D01*
X134968760Y-93252338D01*
X135063844Y-93456248D01*
X135063847Y-93456253D01*
X135068142Y-93465464D01*
X135073857Y-93473873D01*
X135076303Y-93478179D01*
X135107380Y-93571876D01*
X135100236Y-93670332D01*
X135074982Y-93730409D01*
X135023793Y-93818362D01*
X135018683Y-93827142D01*
X134930768Y-94056170D01*
X134880600Y-94296308D01*
X134869472Y-94541377D01*
X134897668Y-94785074D01*
X134900434Y-94794848D01*
X134900434Y-94794849D01*
X134938485Y-94929315D01*
X134964465Y-95021127D01*
X134968759Y-95030337D01*
X134968760Y-95030338D01*
X135063844Y-95234248D01*
X135063847Y-95234253D01*
X135068142Y-95243464D01*
X135073857Y-95251873D01*
X135076303Y-95256179D01*
X135107380Y-95349876D01*
X135100236Y-95448332D01*
X135074982Y-95508409D01*
X135023793Y-95596362D01*
X135018683Y-95605142D01*
X134930768Y-95834170D01*
X134880600Y-96074308D01*
X134869472Y-96319377D01*
X134897668Y-96563074D01*
X134900434Y-96572848D01*
X134900434Y-96572849D01*
X134938485Y-96707315D01*
X134964465Y-96799127D01*
X134968759Y-96808337D01*
X134968760Y-96808338D01*
X135063844Y-97012248D01*
X135063847Y-97012253D01*
X135068142Y-97021464D01*
X135073857Y-97029873D01*
X135076303Y-97034179D01*
X135107380Y-97127876D01*
X135100236Y-97226332D01*
X135074982Y-97286409D01*
X135023793Y-97374362D01*
X135018683Y-97383142D01*
X134930768Y-97612170D01*
X134880600Y-97852308D01*
X134869472Y-98097377D01*
X134897668Y-98341074D01*
X134900434Y-98350848D01*
X134900434Y-98350849D01*
X134938485Y-98485315D01*
X134964465Y-98577127D01*
X134968759Y-98586337D01*
X134968760Y-98586338D01*
X135063844Y-98790248D01*
X135063847Y-98790253D01*
X135068142Y-98799464D01*
X135073857Y-98807873D01*
X135076303Y-98812179D01*
X135107380Y-98905876D01*
X135100236Y-99004332D01*
X135074982Y-99064409D01*
X135023793Y-99152362D01*
X135018683Y-99161142D01*
X134930768Y-99390170D01*
X134880600Y-99630308D01*
X134869472Y-99875377D01*
X134897668Y-100119074D01*
X134900434Y-100128848D01*
X134900434Y-100128849D01*
X134938485Y-100263315D01*
X134964465Y-100355127D01*
X134968759Y-100364337D01*
X134968760Y-100364338D01*
X135063844Y-100568248D01*
X135063847Y-100568253D01*
X135068142Y-100577464D01*
X135073857Y-100585873D01*
X135076303Y-100590179D01*
X135107380Y-100683876D01*
X135100236Y-100782332D01*
X135074982Y-100842409D01*
X135023793Y-100930362D01*
X135018683Y-100939142D01*
X134930768Y-101168170D01*
X134880600Y-101408308D01*
X134869472Y-101653377D01*
X134897668Y-101897074D01*
X134900434Y-101906848D01*
X134900434Y-101906849D01*
X134938485Y-102041315D01*
X134964465Y-102133127D01*
X134968759Y-102142337D01*
X134968760Y-102142338D01*
X135063844Y-102346248D01*
X135063847Y-102346253D01*
X135068142Y-102355464D01*
X135073857Y-102363873D01*
X135076303Y-102368179D01*
X135107380Y-102461876D01*
X135100236Y-102560332D01*
X135074982Y-102620409D01*
X135023793Y-102708362D01*
X135018683Y-102717142D01*
X134930768Y-102946170D01*
X134880600Y-103186308D01*
X134869472Y-103431377D01*
X134897668Y-103675074D01*
X134900434Y-103684848D01*
X134900434Y-103684849D01*
X134938485Y-103819315D01*
X134964465Y-103911127D01*
X134968759Y-103920337D01*
X134968760Y-103920338D01*
X135063844Y-104124248D01*
X135063847Y-104124253D01*
X135068142Y-104133464D01*
X135073857Y-104141873D01*
X135076303Y-104146179D01*
X135107380Y-104239876D01*
X135100236Y-104338332D01*
X135074982Y-104398409D01*
X135023793Y-104486362D01*
X135018683Y-104495142D01*
X134930768Y-104724170D01*
X134880600Y-104964308D01*
X134869472Y-105209377D01*
X134897668Y-105453074D01*
X134900434Y-105462848D01*
X134900434Y-105462849D01*
X134938485Y-105597315D01*
X134964465Y-105689127D01*
X134968759Y-105698337D01*
X134968760Y-105698338D01*
X135063844Y-105902248D01*
X135063847Y-105902253D01*
X135068142Y-105911464D01*
X135073857Y-105919873D01*
X135076303Y-105924179D01*
X135107380Y-106017876D01*
X135100236Y-106116332D01*
X135074982Y-106176409D01*
X135023793Y-106264362D01*
X135018683Y-106273142D01*
X134930768Y-106502170D01*
X134880600Y-106742308D01*
X134869472Y-106987377D01*
X134897668Y-107231074D01*
X134900434Y-107240848D01*
X134900434Y-107240849D01*
X134938485Y-107375315D01*
X134964465Y-107467127D01*
X134968759Y-107476337D01*
X134968760Y-107476338D01*
X135063844Y-107680248D01*
X135063847Y-107680253D01*
X135068142Y-107689464D01*
X135073857Y-107697873D01*
X135076303Y-107702179D01*
X135107380Y-107795876D01*
X135100236Y-107894332D01*
X135074982Y-107954409D01*
X135023793Y-108042362D01*
X135018683Y-108051142D01*
X134930768Y-108280170D01*
X134880600Y-108520308D01*
X134869472Y-108765377D01*
X134897668Y-109009074D01*
X134900434Y-109018848D01*
X134900434Y-109018849D01*
X134938485Y-109153315D01*
X134964465Y-109245127D01*
X134968759Y-109254337D01*
X134968760Y-109254338D01*
X135063844Y-109458248D01*
X135063847Y-109458253D01*
X135068142Y-109467464D01*
X135073857Y-109475873D01*
X135076303Y-109480179D01*
X135107380Y-109573876D01*
X135100236Y-109672332D01*
X135074982Y-109732409D01*
X135023793Y-109820362D01*
X135018683Y-109829142D01*
X134930768Y-110058170D01*
X134880600Y-110298308D01*
X134869472Y-110543377D01*
X134897668Y-110787074D01*
X134900434Y-110796848D01*
X134900434Y-110796849D01*
X134938485Y-110931315D01*
X134964465Y-111023127D01*
X134968759Y-111032337D01*
X134968760Y-111032338D01*
X135063844Y-111236248D01*
X135063847Y-111236253D01*
X135068142Y-111245464D01*
X135073857Y-111253873D01*
X135076303Y-111258179D01*
X135107380Y-111351876D01*
X135100236Y-111450332D01*
X135074982Y-111510409D01*
X135023793Y-111598362D01*
X135018683Y-111607142D01*
X134930768Y-111836170D01*
X134880600Y-112076308D01*
X134869472Y-112321377D01*
X134897668Y-112565074D01*
X134900434Y-112574848D01*
X134900434Y-112574849D01*
X134938485Y-112709315D01*
X134964465Y-112801127D01*
X134968759Y-112810337D01*
X134968760Y-112810338D01*
X135028119Y-112937633D01*
X135068142Y-113023464D01*
X135073851Y-113031865D01*
X135073853Y-113031868D01*
X135200322Y-113217961D01*
X135200326Y-113217966D01*
X135206034Y-113226365D01*
X135213015Y-113233747D01*
X135213018Y-113233751D01*
X135297040Y-113322601D01*
X135374592Y-113404610D01*
X135382657Y-113410776D01*
X135382659Y-113410778D01*
X135561414Y-113547447D01*
X135569479Y-113553613D01*
X135785682Y-113669540D01*
X135806371Y-113676664D01*
X135891642Y-113726392D01*
X135951394Y-113804970D01*
X135976528Y-113900433D01*
X135977000Y-113915879D01*
X135977000Y-118061709D01*
X135976458Y-118078256D01*
X135972339Y-118141100D01*
X135973702Y-118152615D01*
X135973702Y-118152620D01*
X135982903Y-118230359D01*
X135983596Y-118236944D01*
X135986427Y-118267748D01*
X135991826Y-118326508D01*
X135994970Y-118337658D01*
X135995209Y-118338946D01*
X135995465Y-118340631D01*
X135995846Y-118342549D01*
X135996261Y-118344227D01*
X135996530Y-118345491D01*
X135997894Y-118357014D01*
X136024576Y-118442943D01*
X136026441Y-118449242D01*
X136047693Y-118524598D01*
X136047695Y-118524603D01*
X136050843Y-118535765D01*
X136055973Y-118546169D01*
X136056430Y-118547358D01*
X136056997Y-118548992D01*
X136057727Y-118550822D01*
X136058431Y-118552376D01*
X136058928Y-118553576D01*
X136062368Y-118564654D01*
X136097692Y-118631794D01*
X136104245Y-118644249D01*
X136107252Y-118650151D01*
X136147006Y-118730764D01*
X136153942Y-118740052D01*
X136154617Y-118741154D01*
X136155463Y-118742642D01*
X136156519Y-118744316D01*
X136157505Y-118745730D01*
X136158200Y-118746800D01*
X136163602Y-118757068D01*
X136175165Y-118771735D01*
X136219278Y-118827693D01*
X136223293Y-118832925D01*
X136277093Y-118904973D01*
X136285612Y-118912848D01*
X136285614Y-118912850D01*
X136337785Y-118961076D01*
X136344947Y-118967962D01*
X141567488Y-124190503D01*
X141622332Y-124272582D01*
X141641590Y-124369401D01*
X141640800Y-124384868D01*
X141640566Y-124392335D01*
X141639655Y-124401222D01*
X141640006Y-124410154D01*
X141649079Y-124641067D01*
X141633637Y-124738567D01*
X141582058Y-124822736D01*
X141502195Y-124880760D01*
X141406207Y-124903805D01*
X141396274Y-124904000D01*
X113872974Y-124904000D01*
X113776155Y-124884742D01*
X113694076Y-124829898D01*
X113639232Y-124747819D01*
X113619974Y-124651000D01*
X113622226Y-124617319D01*
X113626715Y-124583899D01*
X113627575Y-124577498D01*
X113631268Y-124460000D01*
X113627739Y-124410154D01*
X113626312Y-124389999D01*
X113638684Y-124292061D01*
X113687594Y-124206314D01*
X113699782Y-124193233D01*
X118912370Y-118980645D01*
X118924436Y-118969344D01*
X118971794Y-118927812D01*
X118978977Y-118918700D01*
X118978983Y-118918694D01*
X119027448Y-118857216D01*
X119031617Y-118852067D01*
X119081698Y-118791852D01*
X119081700Y-118791849D01*
X119089118Y-118782930D01*
X119094788Y-118772806D01*
X119095524Y-118771735D01*
X119096548Y-118770345D01*
X119097623Y-118768736D01*
X119098519Y-118767252D01*
X119099217Y-118766177D01*
X119106398Y-118757068D01*
X119148286Y-118677452D01*
X119151421Y-118671678D01*
X119189688Y-118603349D01*
X119189689Y-118603346D01*
X119195354Y-118593231D01*
X119199082Y-118582249D01*
X119199607Y-118581070D01*
X119200357Y-118579524D01*
X119201128Y-118577730D01*
X119201736Y-118576114D01*
X119202229Y-118574924D01*
X119207632Y-118564654D01*
X119234300Y-118478768D01*
X119236347Y-118472468D01*
X119261511Y-118398337D01*
X119265241Y-118387349D01*
X119266906Y-118375868D01*
X119267203Y-118374630D01*
X119267664Y-118372953D01*
X119268094Y-118371051D01*
X119268394Y-118369373D01*
X119268667Y-118368089D01*
X119272106Y-118357013D01*
X119273620Y-118344227D01*
X119282671Y-118267748D01*
X119283535Y-118261180D01*
X119294776Y-118183652D01*
X119296440Y-118172179D01*
X119293195Y-118089589D01*
X119293000Y-118079656D01*
X119293000Y-113912946D01*
X119312258Y-113816127D01*
X119367102Y-113734048D01*
X119447144Y-113680059D01*
X119580593Y-113623413D01*
X119589189Y-113618000D01*
X119779582Y-113498104D01*
X119779588Y-113498100D01*
X119788183Y-113492687D01*
X119972201Y-113330452D01*
X120127915Y-113140884D01*
X120133020Y-113132113D01*
X120133024Y-113132107D01*
X120246210Y-112937633D01*
X120246211Y-112937631D01*
X120251317Y-112928858D01*
X120339232Y-112699830D01*
X120389400Y-112459692D01*
X120400528Y-112214623D01*
X120372332Y-111970926D01*
X120337015Y-111846118D01*
X120308302Y-111744650D01*
X120308301Y-111744646D01*
X120305535Y-111734873D01*
X120250394Y-111616622D01*
X120206156Y-111521752D01*
X120206153Y-111521747D01*
X120201858Y-111512536D01*
X120196143Y-111504127D01*
X120193697Y-111499821D01*
X120162620Y-111406124D01*
X120169764Y-111307668D01*
X120195018Y-111247591D01*
X120246207Y-111159638D01*
X120246207Y-111159637D01*
X120251317Y-111150858D01*
X120339232Y-110921830D01*
X120389400Y-110681692D01*
X120400528Y-110436623D01*
X120372332Y-110192926D01*
X120337015Y-110068118D01*
X120308302Y-109966650D01*
X120308301Y-109966646D01*
X120305535Y-109956873D01*
X120250394Y-109838622D01*
X120206156Y-109743752D01*
X120206153Y-109743747D01*
X120201858Y-109734536D01*
X120196143Y-109726127D01*
X120193697Y-109721821D01*
X120162620Y-109628124D01*
X120169764Y-109529668D01*
X120195018Y-109469591D01*
X120246207Y-109381638D01*
X120246207Y-109381637D01*
X120251317Y-109372858D01*
X120339232Y-109143830D01*
X120389400Y-108903692D01*
X120400528Y-108658623D01*
X120372332Y-108414926D01*
X120337015Y-108290118D01*
X120308302Y-108188650D01*
X120308301Y-108188646D01*
X120305535Y-108178873D01*
X120250394Y-108060622D01*
X120206156Y-107965752D01*
X120206153Y-107965747D01*
X120201858Y-107956536D01*
X120196143Y-107948127D01*
X120193697Y-107943821D01*
X120162620Y-107850124D01*
X120169764Y-107751668D01*
X120195018Y-107691591D01*
X120246207Y-107603638D01*
X120246207Y-107603637D01*
X120251317Y-107594858D01*
X120339232Y-107365830D01*
X120389400Y-107125692D01*
X120400528Y-106880623D01*
X120372332Y-106636926D01*
X120337015Y-106512118D01*
X120308302Y-106410650D01*
X120308301Y-106410646D01*
X120305535Y-106400873D01*
X120250394Y-106282622D01*
X120206156Y-106187752D01*
X120206153Y-106187747D01*
X120201858Y-106178536D01*
X120196143Y-106170127D01*
X120193697Y-106165821D01*
X120162620Y-106072124D01*
X120169764Y-105973668D01*
X120195018Y-105913591D01*
X120246207Y-105825638D01*
X120246207Y-105825637D01*
X120251317Y-105816858D01*
X120339232Y-105587830D01*
X120389400Y-105347692D01*
X120400528Y-105102623D01*
X120372332Y-104858926D01*
X120337015Y-104734118D01*
X120308302Y-104632650D01*
X120308301Y-104632646D01*
X120305535Y-104622873D01*
X120250394Y-104504622D01*
X120206156Y-104409752D01*
X120206153Y-104409747D01*
X120201858Y-104400536D01*
X120196143Y-104392127D01*
X120193697Y-104387821D01*
X120162620Y-104294124D01*
X120169764Y-104195668D01*
X120195018Y-104135591D01*
X120246207Y-104047638D01*
X120246207Y-104047637D01*
X120251317Y-104038858D01*
X120339232Y-103809830D01*
X120389400Y-103569692D01*
X120400528Y-103324623D01*
X120372332Y-103080926D01*
X120337015Y-102956118D01*
X120308302Y-102854650D01*
X120308301Y-102854646D01*
X120305535Y-102844873D01*
X120250394Y-102726622D01*
X120206156Y-102631752D01*
X120206153Y-102631747D01*
X120201858Y-102622536D01*
X120196143Y-102614127D01*
X120193697Y-102609821D01*
X120162620Y-102516124D01*
X120169764Y-102417668D01*
X120195018Y-102357591D01*
X120246207Y-102269638D01*
X120246207Y-102269637D01*
X120251317Y-102260858D01*
X120339232Y-102031830D01*
X120389400Y-101791692D01*
X120400528Y-101546623D01*
X120372332Y-101302926D01*
X120337015Y-101178118D01*
X120308302Y-101076650D01*
X120308301Y-101076646D01*
X120305535Y-101066873D01*
X120250394Y-100948622D01*
X120206156Y-100853752D01*
X120206153Y-100853747D01*
X120201858Y-100844536D01*
X120196143Y-100836127D01*
X120193697Y-100831821D01*
X120162620Y-100738124D01*
X120169764Y-100639668D01*
X120195018Y-100579591D01*
X120246207Y-100491638D01*
X120246207Y-100491637D01*
X120251317Y-100482858D01*
X120339232Y-100253830D01*
X120389400Y-100013692D01*
X120400528Y-99768623D01*
X120372332Y-99524926D01*
X120337015Y-99400118D01*
X120308302Y-99298650D01*
X120308301Y-99298646D01*
X120305535Y-99288873D01*
X120250394Y-99170622D01*
X120206156Y-99075752D01*
X120206153Y-99075747D01*
X120201858Y-99066536D01*
X120196143Y-99058127D01*
X120193697Y-99053821D01*
X120162620Y-98960124D01*
X120169764Y-98861668D01*
X120195018Y-98801591D01*
X120246207Y-98713638D01*
X120246207Y-98713637D01*
X120251317Y-98704858D01*
X120339232Y-98475830D01*
X120389400Y-98235692D01*
X120400528Y-97990623D01*
X120372332Y-97746926D01*
X120337015Y-97622118D01*
X120308302Y-97520650D01*
X120308301Y-97520646D01*
X120305535Y-97510873D01*
X120250394Y-97392622D01*
X120206156Y-97297752D01*
X120206153Y-97297747D01*
X120201858Y-97288536D01*
X120196143Y-97280127D01*
X120193697Y-97275821D01*
X120162620Y-97182124D01*
X120169764Y-97083668D01*
X120195018Y-97023591D01*
X120246207Y-96935638D01*
X120246207Y-96935637D01*
X120251317Y-96926858D01*
X120339232Y-96697830D01*
X120389400Y-96457692D01*
X120400528Y-96212623D01*
X120372332Y-95968926D01*
X120337015Y-95844118D01*
X120308302Y-95742650D01*
X120308301Y-95742646D01*
X120305535Y-95732873D01*
X120250394Y-95614622D01*
X120206156Y-95519752D01*
X120206153Y-95519747D01*
X120201858Y-95510536D01*
X120196143Y-95502127D01*
X120193697Y-95497821D01*
X120162620Y-95404124D01*
X120169764Y-95305668D01*
X120195018Y-95245591D01*
X120246207Y-95157638D01*
X120246207Y-95157637D01*
X120251317Y-95148858D01*
X120339232Y-94919830D01*
X120389400Y-94679692D01*
X120400528Y-94434623D01*
X120372332Y-94190926D01*
X120337015Y-94066118D01*
X120308302Y-93964650D01*
X120308301Y-93964646D01*
X120305535Y-93954873D01*
X120250394Y-93836622D01*
X120206156Y-93741752D01*
X120206153Y-93741747D01*
X120201858Y-93732536D01*
X120196143Y-93724127D01*
X120193697Y-93719821D01*
X120162620Y-93626124D01*
X120169764Y-93527668D01*
X120195018Y-93467591D01*
X120246207Y-93379638D01*
X120246207Y-93379637D01*
X120251317Y-93370858D01*
X120339232Y-93141830D01*
X120389400Y-92901692D01*
X120400528Y-92656623D01*
X120372332Y-92412926D01*
X120337015Y-92288118D01*
X120308302Y-92186650D01*
X120308301Y-92186646D01*
X120305535Y-92176873D01*
X120250394Y-92058622D01*
X120206156Y-91963752D01*
X120206153Y-91963747D01*
X120201858Y-91954536D01*
X120196143Y-91946127D01*
X120193697Y-91941821D01*
X120162620Y-91848124D01*
X120169764Y-91749668D01*
X120195018Y-91689591D01*
X120246207Y-91601638D01*
X120246207Y-91601637D01*
X120251317Y-91592858D01*
X120339232Y-91363830D01*
X120389400Y-91123692D01*
X120400528Y-90878623D01*
X120372332Y-90634926D01*
X120337015Y-90510118D01*
X120308302Y-90408650D01*
X120308301Y-90408646D01*
X120305535Y-90398873D01*
X120250394Y-90280622D01*
X120206156Y-90185752D01*
X120206153Y-90185747D01*
X120201858Y-90176536D01*
X120196143Y-90168127D01*
X120193697Y-90163821D01*
X120162620Y-90070124D01*
X120169764Y-89971668D01*
X120195018Y-89911591D01*
X120246207Y-89823638D01*
X120246207Y-89823637D01*
X120251317Y-89814858D01*
X120339232Y-89585830D01*
X120389400Y-89345692D01*
X120400528Y-89100623D01*
X120372332Y-88856926D01*
X120337015Y-88732118D01*
X120308302Y-88630650D01*
X120308301Y-88630646D01*
X120305535Y-88620873D01*
X120250394Y-88502622D01*
X120206156Y-88407752D01*
X120206153Y-88407747D01*
X120201858Y-88398536D01*
X120196143Y-88390127D01*
X120193697Y-88385821D01*
X120162620Y-88292124D01*
X120169764Y-88193668D01*
X120195018Y-88133591D01*
X120246207Y-88045638D01*
X120246207Y-88045637D01*
X120251317Y-88036858D01*
X120339232Y-87807830D01*
X120389400Y-87567692D01*
X120400528Y-87322623D01*
X120372332Y-87078926D01*
X120337015Y-86954118D01*
X120308302Y-86852650D01*
X120308301Y-86852646D01*
X120305535Y-86842873D01*
X120250394Y-86724622D01*
X120206156Y-86629752D01*
X120206153Y-86629747D01*
X120201858Y-86620536D01*
X120196143Y-86612127D01*
X120193697Y-86607821D01*
X120162620Y-86514124D01*
X120169764Y-86415668D01*
X120195018Y-86355591D01*
X120246207Y-86267638D01*
X120246207Y-86267637D01*
X120251317Y-86258858D01*
X120339232Y-86029830D01*
X120389400Y-85789692D01*
X120400528Y-85544623D01*
X120372332Y-85300926D01*
X120337015Y-85176118D01*
X120308302Y-85074650D01*
X120308301Y-85074646D01*
X120305535Y-85064873D01*
X120250394Y-84946622D01*
X120206156Y-84851752D01*
X120206153Y-84851747D01*
X120201858Y-84842536D01*
X120196143Y-84834127D01*
X120193697Y-84829821D01*
X120162620Y-84736124D01*
X120169764Y-84637668D01*
X120195018Y-84577591D01*
X120246207Y-84489638D01*
X120246207Y-84489637D01*
X120251317Y-84480858D01*
X120339232Y-84251830D01*
X120389400Y-84011692D01*
X120400528Y-83766623D01*
X120372332Y-83522926D01*
X120337015Y-83398118D01*
X120308302Y-83296650D01*
X120308301Y-83296646D01*
X120305535Y-83286873D01*
X120250394Y-83168622D01*
X120206156Y-83073752D01*
X120206153Y-83073747D01*
X120201858Y-83064536D01*
X120196143Y-83056127D01*
X120193697Y-83051821D01*
X120162620Y-82958124D01*
X120169764Y-82859668D01*
X120195018Y-82799591D01*
X120246207Y-82711638D01*
X120246207Y-82711637D01*
X120251317Y-82702858D01*
X120339232Y-82473830D01*
X120389400Y-82233692D01*
X120400528Y-81988623D01*
X120372332Y-81744926D01*
X120337015Y-81620118D01*
X120308302Y-81518650D01*
X120308301Y-81518646D01*
X120305535Y-81508873D01*
X120250394Y-81390622D01*
X120206156Y-81295752D01*
X120206153Y-81295747D01*
X120201858Y-81286536D01*
X120196143Y-81278127D01*
X120193697Y-81273821D01*
X120162620Y-81180124D01*
X120169764Y-81081668D01*
X120195018Y-81021591D01*
X120246207Y-80933638D01*
X120246207Y-80933637D01*
X120251317Y-80924858D01*
X120339232Y-80695830D01*
X120389400Y-80455692D01*
X120400528Y-80210623D01*
X120372332Y-79966926D01*
X120337015Y-79842118D01*
X120308302Y-79740650D01*
X120308301Y-79740646D01*
X120305535Y-79730873D01*
X120250394Y-79612622D01*
X120206156Y-79517752D01*
X120206153Y-79517747D01*
X120201858Y-79508536D01*
X120196143Y-79500127D01*
X120193697Y-79495821D01*
X120162620Y-79402124D01*
X120169764Y-79303668D01*
X120195018Y-79243591D01*
X120246207Y-79155638D01*
X120246207Y-79155637D01*
X120251317Y-79146858D01*
X120339232Y-78917830D01*
X120389400Y-78677692D01*
X120400528Y-78432623D01*
X120372332Y-78188926D01*
X120337015Y-78064118D01*
X120308302Y-77962650D01*
X120308301Y-77962646D01*
X120305535Y-77952873D01*
X120250394Y-77834622D01*
X120206156Y-77739752D01*
X120206153Y-77739747D01*
X120201858Y-77730536D01*
X120196143Y-77722127D01*
X120193697Y-77717821D01*
X120162620Y-77624124D01*
X120169764Y-77525668D01*
X120195018Y-77465591D01*
X120246207Y-77377638D01*
X120246207Y-77377637D01*
X120251317Y-77368858D01*
X120339232Y-77139830D01*
X120389400Y-76899692D01*
X120400528Y-76654623D01*
X120372332Y-76410926D01*
X120337015Y-76286118D01*
X120308302Y-76184650D01*
X120308301Y-76184646D01*
X120305535Y-76174873D01*
X120250394Y-76056622D01*
X120206156Y-75961752D01*
X120206153Y-75961747D01*
X120201858Y-75952536D01*
X120196143Y-75944127D01*
X120193697Y-75939821D01*
X120162620Y-75846124D01*
X120169764Y-75747668D01*
X120195018Y-75687591D01*
X120246207Y-75599638D01*
X120246207Y-75599637D01*
X120251317Y-75590858D01*
X120339232Y-75361830D01*
X120389400Y-75121692D01*
X120400528Y-74876623D01*
X120372332Y-74632926D01*
X120337015Y-74508118D01*
X120308302Y-74406650D01*
X120308301Y-74406646D01*
X120305535Y-74396873D01*
X120250394Y-74278622D01*
X120206156Y-74183752D01*
X120206153Y-74183747D01*
X120201858Y-74174536D01*
X120196143Y-74166127D01*
X120193697Y-74161821D01*
X120162620Y-74068124D01*
X120169764Y-73969668D01*
X120195018Y-73909591D01*
X120246207Y-73821638D01*
X120246207Y-73821637D01*
X120251317Y-73812858D01*
X120339232Y-73583830D01*
X120389400Y-73343692D01*
X120400528Y-73098623D01*
X120372332Y-72854926D01*
X120337015Y-72730118D01*
X120308302Y-72628650D01*
X120308301Y-72628646D01*
X120305535Y-72618873D01*
X120250394Y-72500622D01*
X120206156Y-72405752D01*
X120206153Y-72405747D01*
X120201858Y-72396536D01*
X120196143Y-72388127D01*
X120193697Y-72383821D01*
X120162620Y-72290124D01*
X120169764Y-72191668D01*
X120195018Y-72131591D01*
X120246207Y-72043638D01*
X120246207Y-72043637D01*
X120251317Y-72034858D01*
X120339232Y-71805830D01*
X120389400Y-71565692D01*
X120400528Y-71320623D01*
X120372332Y-71076926D01*
X120337015Y-70952118D01*
X120308302Y-70850650D01*
X120308301Y-70850646D01*
X120305535Y-70840873D01*
X120250394Y-70722622D01*
X120206156Y-70627752D01*
X120206153Y-70627747D01*
X120201858Y-70618536D01*
X120196143Y-70610127D01*
X120193697Y-70605821D01*
X120162620Y-70512124D01*
X120169764Y-70413668D01*
X120195018Y-70353591D01*
X120246207Y-70265638D01*
X120246207Y-70265637D01*
X120251317Y-70256858D01*
X120339232Y-70027830D01*
X120389400Y-69787692D01*
X120400528Y-69542623D01*
X120372332Y-69298926D01*
X120337015Y-69174118D01*
X120308302Y-69072650D01*
X120308301Y-69072646D01*
X120305535Y-69062873D01*
X120250394Y-68944622D01*
X120206156Y-68849752D01*
X120206153Y-68849747D01*
X120201858Y-68840536D01*
X120196143Y-68832127D01*
X120193697Y-68827821D01*
X120162620Y-68734124D01*
X120169764Y-68635668D01*
X120195018Y-68575591D01*
X120246207Y-68487638D01*
X120246207Y-68487637D01*
X120251317Y-68478858D01*
X120339232Y-68249830D01*
X120389400Y-68009692D01*
X120400528Y-67764623D01*
X120372332Y-67520926D01*
X120337015Y-67396118D01*
X120308302Y-67294650D01*
X120308301Y-67294646D01*
X120305535Y-67284873D01*
X120250394Y-67166622D01*
X120206156Y-67071752D01*
X120206153Y-67071747D01*
X120201858Y-67062536D01*
X120196143Y-67054127D01*
X120193697Y-67049821D01*
X120162620Y-66956124D01*
X120169764Y-66857668D01*
X120195018Y-66797591D01*
X120246207Y-66709638D01*
X120246207Y-66709637D01*
X120251317Y-66700858D01*
X120339232Y-66471830D01*
X120389400Y-66231692D01*
X120400528Y-65986623D01*
X120372332Y-65742926D01*
X120337015Y-65618118D01*
X120308302Y-65516650D01*
X120308301Y-65516646D01*
X120305535Y-65506873D01*
X120250394Y-65388622D01*
X120206156Y-65293752D01*
X120206153Y-65293747D01*
X120201858Y-65284536D01*
X120196143Y-65276127D01*
X120193697Y-65271821D01*
X120162620Y-65178124D01*
X120169764Y-65079668D01*
X120195018Y-65019591D01*
X120246207Y-64931638D01*
X120246207Y-64931637D01*
X120251317Y-64922858D01*
X120339232Y-64693830D01*
X120389400Y-64453692D01*
X120400528Y-64208623D01*
X120372332Y-63964926D01*
X120337015Y-63840118D01*
X120308302Y-63738650D01*
X120308301Y-63738646D01*
X120305535Y-63728873D01*
X120250394Y-63610622D01*
X120206156Y-63515752D01*
X120206153Y-63515747D01*
X120201858Y-63506536D01*
X120196143Y-63498127D01*
X120193697Y-63493821D01*
X120162620Y-63400124D01*
X120169764Y-63301668D01*
X120195018Y-63241591D01*
X120246207Y-63153638D01*
X120246207Y-63153637D01*
X120251317Y-63144858D01*
X120339232Y-62915830D01*
X120389400Y-62675692D01*
X120400528Y-62430623D01*
X120372332Y-62186926D01*
X120337015Y-62062118D01*
X120308302Y-61960650D01*
X120308301Y-61960646D01*
X120305535Y-61950873D01*
X120250394Y-61832622D01*
X120206156Y-61737752D01*
X120206153Y-61737747D01*
X120201858Y-61728536D01*
X120196143Y-61720127D01*
X120193697Y-61715821D01*
X120162620Y-61622124D01*
X120169764Y-61523668D01*
X120195018Y-61463591D01*
X120246207Y-61375638D01*
X120246207Y-61375637D01*
X120251317Y-61366858D01*
X120339232Y-61137830D01*
X120389400Y-60897692D01*
X120400528Y-60652623D01*
X120372332Y-60408926D01*
X120337015Y-60284118D01*
X120308302Y-60182650D01*
X120308301Y-60182646D01*
X120305535Y-60172873D01*
X120250394Y-60054622D01*
X120206156Y-59959752D01*
X120206153Y-59959747D01*
X120201858Y-59950536D01*
X120196143Y-59942127D01*
X120193697Y-59937821D01*
X120162620Y-59844124D01*
X120169764Y-59745668D01*
X120195018Y-59685591D01*
X120246207Y-59597638D01*
X120246207Y-59597637D01*
X120251317Y-59588858D01*
X120339232Y-59359830D01*
X120389400Y-59119692D01*
X120400528Y-58874623D01*
X120372332Y-58630926D01*
X120337015Y-58506118D01*
X120308302Y-58404650D01*
X120308301Y-58404646D01*
X120305535Y-58394873D01*
X120283247Y-58347075D01*
X120259783Y-58251191D01*
X120274799Y-58153624D01*
X120280529Y-58140818D01*
X120280179Y-58140672D01*
X120352030Y-57968062D01*
X120356787Y-57956634D01*
X120396189Y-57761221D01*
X120396500Y-57755082D01*
X120396500Y-56544918D01*
X120396189Y-56538779D01*
X120386181Y-56489142D01*
X120359233Y-56355498D01*
X120356787Y-56343366D01*
X120280179Y-56159328D01*
X120169284Y-55993675D01*
X120028325Y-55852716D01*
X119862672Y-55741821D01*
X119678634Y-55665213D01*
X119562486Y-55641793D01*
X119495993Y-55628386D01*
X119404890Y-55590370D01*
X119335271Y-55520385D01*
X119297733Y-55429085D01*
X119293000Y-55380377D01*
X119293000Y-52118291D01*
X119293542Y-52101744D01*
X119296902Y-52050475D01*
X119297661Y-52038900D01*
X119292625Y-51996345D01*
X119287097Y-51949641D01*
X119286404Y-51943056D01*
X119279234Y-51865030D01*
X119278174Y-51853492D01*
X119275030Y-51842342D01*
X119274791Y-51841054D01*
X119274535Y-51839369D01*
X119274154Y-51837451D01*
X119273739Y-51835773D01*
X119273470Y-51834507D01*
X119272106Y-51822986D01*
X119245424Y-51737057D01*
X119243559Y-51730758D01*
X119222307Y-51655402D01*
X119222305Y-51655397D01*
X119219157Y-51644235D01*
X119214027Y-51633831D01*
X119213570Y-51632642D01*
X119212999Y-51630995D01*
X119212276Y-51629183D01*
X119211571Y-51627627D01*
X119211070Y-51626417D01*
X119207632Y-51615346D01*
X119165735Y-51535711D01*
X119162776Y-51529906D01*
X119122994Y-51449236D01*
X119116055Y-51439943D01*
X119115392Y-51438862D01*
X119114538Y-51437360D01*
X119113484Y-51435690D01*
X119112500Y-51434278D01*
X119111803Y-51433205D01*
X119106398Y-51422931D01*
X119050725Y-51352310D01*
X119046693Y-51347055D01*
X118999851Y-51284326D01*
X118999850Y-51284325D01*
X118992907Y-51275027D01*
X118932215Y-51218924D01*
X118925053Y-51212038D01*
X113700602Y-45987587D01*
X113645758Y-45905508D01*
X113626500Y-45808689D01*
X113626500Y-45529000D01*
X113645758Y-45432181D01*
X113700602Y-45350102D01*
X113782681Y-45295258D01*
X113879500Y-45276000D01*
X141390500Y-45276000D01*
X141487319Y-45295258D01*
G37*
G04 #@! TD.AperFunction*
M02*
